<svg xmlns="http://www.w3.org/2000/svg" viewBox="0.0 0.0 256.0 256.0" height="256.0px" width="256.0px"><path fill="#F29481" fill-opacity="1.0"  filling="0" d="M128.58700561523438 189.23519897460938 C128.74176025390625 188.21759033203125 128.8995819091797 187.1544952392578 129.0636444091797 186.0695037841797 C129.2277069091797 184.98451232910156 129.39801025390625 183.8776397705078 129.57772827148438 182.77249145507812 C129.6883087158203 182.09356689453125 130.04159545898438 181.79788208007812 130.7573699951172 181.84243774414062 C131.65939331054688 181.89849853515625 132.5558319091797 182.001220703125 133.44143676757812 182.1612548828125 C134.32704162597656 182.3212890625 135.20179748535156 182.53863525390625 136.0604248046875 182.82394409179688 C137.12640380859375 183.1787567138672 137.40518188476562 183.72018432617188 137.06954956054688 184.86451721191406 C136.78924560546875 185.81875610351562 136.48550415039062 186.76626586914062 136.17416381835938 187.71157836914062 C135.8628387451172 188.65689086914062 135.54393005371094 189.60000610351562 135.2332763671875 190.54541015625 C135.1756591796875 190.72128295898438 135.0804443359375 190.88641357421875 134.9906005859375 191.04920959472656 C134.44378662109375 192.03915405273438 133.9630126953125 192.29183959960938 132.86476135253906 192.05377197265625 C131.83334350585938 191.8302764892578 130.79730224609375 191.5983428955078 129.79891967773438 191.26272583007812 C128.81817626953125 190.93324279785156 128.54476928710938 190.42559814453125 128.58700561523438 189.23519897460938"></path>
<path fill="#000000" fill-opacity="1.0"  filling="0" d="M129.94790649414062 197.12716674804688 C129.52243041992188 197.23007202148438 129.4072265625 197.5272979736328 129.26898193359375 197.80377197265625 C128.7659454345703 198.8075408935547 128.24984741210938 199.80441284179688 127.76139831542969 200.8158721923828 C127.03488159179688 202.31961059570312 126.59403991699219 201.89797973632812 125.51577758789062 201.64454650878906 C125.4566421508789 201.63072204589844 125.40132904052734 201.59616088867188 125.34833526611328 201.56390380859375 C125.12101745605469 201.42413330078125 124.96356964111328 201.20755004882812 124.99046325683594 200.9541015625 C125.03577423095703 200.52249145507812 125.12101745605469 200.09011840820312 125.23391723632812 199.67001342773438 C125.52472686767578 198.58584594726562 125.81673431396484 197.5020294189453 126.10948944091797 196.41844177246094 C126.40223693847656 195.3348388671875 126.69572448730469 194.25148010253906 126.989501953125 193.16824340820312 C127.28327941894531 192.08499145507812 127.57733154296875 191.00186157226562 127.87122344970703 189.91871643066406 C127.93650817871094 189.6783447265625 128.01715087890625 189.44102478027344 128.10009765625 189.2060089111328 C128.43801879882812 188.25369262695312 128.67532348632812 188.052490234375 129.59385681152344 188.22372436523438 C130.4820556640625 188.38885498046875 131.36717224121094 188.57009887695312 132.25152587890625 188.7560577392578 C133.1358642578125 188.9420166015625 134.0194549560547 189.13265991210938 134.90457153320312 189.3166046142578 C135.40760803222656 189.42105102539062 135.65875244140625 189.728271484375 135.6234130859375 190.24205017089844 C135.58502197265625 190.8019256591797 135.53433227539062 191.36102294921875 135.478271484375 191.9193572998047 C135.39761352539062 192.7288360595703 135.393798828125 193.53292846679688 135.489013671875 194.3462371826172 C135.59999084472656 195.296630859375 135.868408203125 196.15565490722656 136.29800415039062 196.9224090576172 C136.72760009765625 197.6891632080078 137.31838989257812 198.3636474609375 138.0740966796875 198.9450225830078 C138.96421813964844 199.62930297851562 139.87966918945312 200.28057861328125 140.78054809570312 200.95028686523438 C141.60845947265625 201.5654296875 141.65911865234375 201.69830322265625 141.38955688476562 202.4716796875 C140.9617919921875 203.69818115234375 140.685302734375 203.99847412109375 139.75448608398438 203.9009246826172 C138.5736846923828 203.77728271484375 137.40191650390625 203.60678100585938 136.24539184570312 203.36380004882812 C135.08889770507812 203.12083435058594 133.94764709472656 202.80538940429688 132.82791137695312 202.39181518554688 C131.45010375976562 201.88339233398438 130.8134307861328 200.77670288085938 130.44863891601562 199.46881103515625 C130.23435974121094 198.7023468017578 130.11224365234375 197.9105224609375 129.94790649414062 197.12716674804688"></path>
<path fill="#F29481" fill-opacity="1.0"  filling="0" d="M110.4883041381836 196.59341430664062 C110.60504913330078 195.28857421875 110.70411682128906 193.9814453125 110.84467315673828 192.67967224121094 C110.95372772216797 191.668212890625 111.27474975585938 191.32876586914062 112.21707916259766 191.22738647460938 C113.78765106201172 191.05844116210938 115.33131408691406 191.31417846679688 116.86117553710938 191.62290954589844 C117.45484924316406 191.7427215576172 117.8442153930664 192.24038696289062 117.81349182128906 192.8555450439453 C117.76664733886719 193.78982543945312 117.71385192871094 194.72543334960938 117.59587097167969 195.65097045898438 C117.4778823852539 196.57650756835938 117.29470825195312 197.49197387695312 116.98712921142578 198.38592529296875 C116.62002563476562 199.45343017578125 116.12005615234375 199.79443359375 115.02643585205078 199.7337646484375 C114.03109741210938 199.67922973632812 113.03500366210938 199.57247924804688 112.0481185913086 199.42425537109375 C110.82315826416016 199.24069213867188 110.50904846191406 198.82366943359375 110.4883041381836 197.53036499023438 C110.48371124267578 197.21856689453125 110.4883041381836 196.90675354003906 110.4883041381836 196.59341430664062"></path>
<path fill="#000000" fill-opacity="1.0"  filling="0" d="M112.86604309082031 205.56134033203125 C112.42520904541016 206.85081481933594 112.06501770019531 207.90988159179688 111.70252227783203 208.96742248535156 C111.56120300292969 209.380615234375 111.43602752685547 209.8007049560547 111.26628875732422 210.20159912109375 C110.95295715332031 210.94271850585938 110.63040161132812 211.09939575195312 109.79096984863281 210.9749755859375 C108.84709930419922 210.83518981933594 108.60365295410156 210.5640869140625 108.71040344238281 209.612548828125 C108.84556579589844 208.40371704101562 108.98649597167969 207.19546508789062 109.13068389892578 205.98757934570312 C109.27487182617188 204.7797088623047 109.42233276367188 203.5722198486328 109.570556640625 202.36492919921875 C109.74566650390625 200.94105529785156 109.92460632324219 199.51718139648438 110.14117431640625 198.09869384765625 C110.26558685302734 197.28306579589844 110.56050872802734 197.0303955078125 111.40991973876953 197.05191040039062 C112.25202941894531 197.0734100341797 113.09413146972656 197.10182189941406 113.9357681274414 197.13897705078125 C114.77739715576172 197.17611694335938 115.6185531616211 197.22201538085938 116.45875549316406 197.27847290039062 C117.4894027709961 197.3475799560547 117.61458587646484 197.5196075439453 117.71212005615234 198.5157012939453 C117.80274963378906 199.44729614257812 117.86111450195312 200.38272094726562 117.9901351928711 201.3081512451172 C118.14066314697266 202.38796997070312 118.46687316894531 203.36026000976562 118.99659729003906 204.20054626464844 C119.52632904052734 205.04083251953125 120.25957489013672 205.74911499023438 121.22418212890625 206.30093383789062 C122.30628967285156 206.91993713378906 123.4183578491211 207.48516845703125 124.51046752929688 208.08653259277344 C125.1778564453125 208.45440673828125 125.28768157958984 208.69479370117188 125.16555786132812 209.45126342773438 C125.1256332397461 209.69625854492188 125.07340240478516 209.94277954101562 124.99352264404297 210.17703247070312 C124.8191909790039 210.68927001953125 124.4927978515625 211.0364227294922 123.91525268554688 211.0609893798828 C122.69606018066406 211.11282348632812 121.47993469238281 211.1235809326172 120.26898956298828 211.05514526367188 C119.05804443359375 210.9866943359375 117.85228729248047 210.83905029296875 116.65382385253906 210.57408142089844 C115.22149658203125 210.25765991210938 114.48114013671875 209.2254638671875 113.89286041259766 207.99819946289062 C113.54265594482422 207.27320861816406 113.51960754394531 206.41766357421875 112.86604309082031 205.56134033203125"></path>
<path fill="#F7468E" fill-opacity="1.0"  filling="0" d="M123.4997787475586 149.3614044189453 C123.30546569824219 149.9596710205078 123.59115600585938 150.48268127441406 123.715576171875 150.99801635742188 C124.02470397949219 152.27865600585938 124.26316833496094 153.56716918945312 124.44853973388672 154.86402893066406 C124.6339111328125 156.160888671875 124.76620483398438 157.4661102294922 124.86296844482422 158.7801513671875 C124.95935821533203 160.08921813964844 125.09548950195312 161.39540100097656 125.24639892578125 162.7003173828125 C125.39730834960938 164.0052490234375 125.56300354003906 165.30892944335938 125.7185287475586 166.6129913330078 C125.84563446044922 167.68051147460938 125.87308502197266 168.7430419921875 125.82191467285156 169.8014373779297 C125.77074432373047 170.85983276367188 125.64094543457031 171.9141082763672 125.45355987548828 172.96511840820312 C125.25541687011719 174.076416015625 124.87218475341797 175.14393615722656 124.3376693725586 176.14080810546875 C123.68793487548828 177.35269165039062 123.06354522705078 178.58688354492188 122.30706787109375 179.731201171875 C121.62559509277344 180.7631378173828 121.04566955566406 181.8286895751953 120.5598373413086 182.92652893066406 C120.07400512695312 184.02438354492188 119.68226623535156 185.15451049804688 119.37716674804688 186.31558227539062 C119.07207489013672 187.47665405273438 118.85362243652344 188.66867065429688 118.71435546875 189.89031982421875 C118.64371490478516 190.508544921875 118.51544952392578 191.1267852783203 118.34418487548828 191.7250518798828 C118.13220977783203 192.4638671875 117.58002471923828 192.92083740234375 116.82353973388672 192.8970184326172 C115.95032501220703 192.86898803710938 115.07289123535156 192.86207580566406 114.19938659667969 192.8131103515625 C113.32588195800781 192.76416015625 112.45631408691406 192.67315673828125 111.59884643554688 192.4769287109375 C110.49292755126953 192.22348022460938 110.20338439941406 191.78956604003906 110.16421508789062 190.6060791015625 C110.14579010009766 190.0438995361328 110.1496353149414 189.47865295410156 110.18572998046875 188.917236328125 C110.26201629638672 187.7314453125 110.3367691040039 186.54541015625 110.41288757324219 185.3594207763672 C110.48899841308594 184.17343139648438 110.56648254394531 182.98748779296875 110.64823150634766 181.8019256591797 C110.72998046875 180.61636352539062 110.81599426269531 179.43116760253906 110.90917205810547 178.2466583251953 C110.99211883544922 177.19296264648438 111.24864196777344 176.15078735351562 111.46290588378906 175.1109161376953 C111.58885955810547 174.49957275390625 111.75704956054688 173.89361572265625 111.95903015136719 173.30303955078125 C112.35839080810547 172.13490295410156 112.58290100097656 170.98001098632812 112.64889526367188 169.8361053466797 C112.71488952636719 168.6922149658203 112.62235260009766 167.559326171875 112.38763427734375 166.43524169921875 C112.15290832519531 165.31114196777344 111.77598571777344 164.19583129882812 111.27320861816406 163.08709716796875 C110.62579345703125 161.66015625 109.91615295410156 160.27008056640625 109.08672332763672 158.94296264648438 C108.40703582763672 157.85586547851562 107.72140502929688 156.7724151611328 107.0357666015625 155.68894958496094 C106.35013580322266 154.60549926757812 105.66450500488281 153.52203369140625 104.98483276367188 152.4349365234375 C104.52056884765625 151.6926727294922 104.0572738647461 150.9498291015625 103.5987777709961 150.2041015625 C103.1402816772461 149.4583740234375 102.68658447265625 148.70974731445312 102.24152374267578 147.95596313476562 C101.50463104248047 146.70816040039062 100.92939758300781 145.4430694580078 100.50699615478516 144.1616973876953 C100.0845947265625 142.88034057617188 99.81503295898438 141.5827178955078 99.68946075439453 140.2698211669922 C99.56388854980469 138.95692443847656 99.58232116699219 137.62876892089844 99.73592376708984 136.28634643554688 C99.8895263671875 134.94393920898438 100.17829895019531 133.58726501464844 100.59339904785156 132.21734619140625 C100.96664428710938 130.98623657226562 101.40766906738281 129.78219604492188 101.9002456665039 128.6000518798828 C102.392822265625 127.41790771484375 102.93695068359375 126.25765991210938 103.51641845703125 125.11410522460938 C104.09587097167969 123.97093963623047 104.69682312011719 122.83890533447266 105.30498504638672 121.71052551269531 C105.91313934326172 120.58213806152344 106.52850341796875 119.45740509033203 107.13676452636719 118.3288345336914 C107.67051696777344 117.33810424804688 108.21118927001953 116.35103607177734 108.74974822998047 115.36280822753906 C109.28831481933594 114.37458801269531 109.82476043701172 113.38520812988281 110.3500747680664 112.38988494873047 C110.68569946289062 111.75398254394531 111.13189697265625 111.44371032714844 111.84844970703125 111.54585266113281 C112.8384017944336 111.68793487548828 113.82604217529297 111.85150909423828 114.81906127929688 111.96595001220703 C115.9580078125 112.09727478027344 117.09746551513672 112.22391510009766 118.23694610595703 112.35000610351562 C119.37643432617188 112.47610473632812 120.51594543457031 112.60165405273438 121.65499877929688 112.73081970214844 C122.79405975341797 112.8599853515625 123.93266296386719 112.99276733398438 125.07032012939453 113.13330078125 C126.37055969238281 113.2938232421875 127.6569595336914 113.58027648925781 128.9410400390625 113.84678649902344 C130.06617736816406 114.08024597167969 130.62603759765625 114.85977935791016 130.77734375 115.95186614990234 C130.92478942871094 117.01400756835938 130.8318634033203 118.0769271850586 130.6959228515625 119.13292694091797 C130.5761260986328 120.06219482421875 130.43251037597656 120.98994445800781 130.26968383789062 121.91307830810547 C130.04388427734375 123.19775390625 129.94073486328125 124.46183013916016 129.94921875 125.70693969726562 C129.9576873779297 126.9520492553711 130.07778930664062 128.17819213867188 130.29849243164062 129.38697814941406 C130.51919555664062 130.59576416015625 130.84051513671875 131.78720092773438 131.25140380859375 132.962890625 C131.66232299804688 134.1385955810547 132.16281127929688 135.29856872558594 132.74188232421875 136.44442749023438 C133.13278198242188 137.21780395507812 133.63352966308594 137.96734619140625 134.21644592285156 138.60708618164062 C134.99481201171875 139.46188354492188 135.76031494140625 140.32952880859375 136.54684448242188 141.1776885986328 C137.3333740234375 142.02584838867188 138.14093017578125 142.85452270507812 139.00338745117188 143.63134765625 C139.8639373779297 144.40626525878906 140.70547485351562 145.20114135742188 141.5180206298828 146.02464294433594 C142.33056640625 146.84812927246094 143.11410522460938 147.70022583007812 143.85867309570312 148.58956909179688 C144.78335571289062 149.69471740722656 145.6558074951172 150.83981323242188 146.33163452148438 152.11776733398438 C146.88998413085938 153.17337036132812 147.268798828125 154.2568359375 147.45993041992188 155.3740692138672 C147.65106201171875 156.49131774902344 147.65451049804688 157.64236450195312 147.46212768554688 158.83314514160156 C147.27511596679688 159.9893798828125 146.9923095703125 161.1096954345703 146.62060546875 162.19851684570312 C146.24888610839844 163.287353515625 145.78826904296875 164.34469604492188 145.2456817626953 165.37496948242188 C144.837890625 166.14910888671875 144.39935302734375 166.9102020263672 143.9247283935547 167.64442443847656 C143.19244384765625 168.77606201171875 142.5272979736328 169.93344116210938 141.9266357421875 171.11569213867188 C141.32595825195312 172.29794311523438 140.7897491455078 173.50506591796875 140.31532287597656 174.73622131347656 C139.84088134765625 175.96737670898438 139.42823791503906 177.2225341796875 139.0746612548828 178.50088500976562 C138.72109985351562 179.77923583984375 138.42662048339844 181.08074951171875 138.18853759765625 182.40460205078125 C137.82835388183594 184.4067840576172 137.46815490722656 184.7209014892578 135.4598388671875 184.66482543945312 C133.96145629882812 184.62335205078125 132.46002197265625 184.51507568359375 130.972412109375 184.33229064941406 C129.42489624023438 184.14259338378906 129.21446228027344 183.48826599121094 129.13534545898438 182.39999389648438 C129.04013061523438 181.0867156982422 128.98483276367188 179.77957153320312 129.09542846679688 178.4647674560547 C129.19757080078125 177.24940490722656 129.28799438476562 176.03289794921875 129.38082885742188 174.8165740966797 C129.47366333007812 173.60025024414062 129.5688934326172 172.38412475585938 129.68063354492188 171.16952514648438 C129.79583740234375 169.91537475585938 130.0022430419922 168.6829376220703 130.31365966796875 167.47755432128906 C130.62509155273438 166.27218627929688 131.04153442382812 165.0938720703125 131.57681274414062 163.94802856445312 C131.81491088867188 163.43807983398438 132.05068969726562 162.9273681640625 132.29490661621094 162.42047119140625 C132.98150634765625 160.995849609375 132.82098388671875 159.63954162597656 131.99691772460938 158.32012939453125 C131.430908203125 157.41311645507812 130.76889038085938 156.5813751220703 130.0385284423828 155.80877685546875 C129.09310913085938 154.808837890625 128.11239624023438 153.84268188476562 127.14929962158203 152.85963439941406 C126.23001098632812 151.921142578125 125.31455993652344 150.97882080078125 124.39832305908203 150.0380096435547 C124.13797760009766 149.7722930908203 123.91372680664062 149.46200561523438 123.4997787475586 149.3614044189453"></path>
<path fill="#FCAC9F" fill-opacity="1.0"  filling="0" d="M128.0071563720703 62.00140380859375 C127.9656982421875 62.0159912109375 127.92344665527344 62.04670715332031 127.8812026977539 62.0029296875 C127.88582611083984 60.98994445800781 127.8236083984375 60.033782958984375 127.72222900390625 59.07914733886719 C127.70380401611328 58.9063720703125 127.69612121582031 58.73124694824219 127.73912811279297 58.55308532714844 C127.79367065429688 58.32884216308594 127.67001342773438 58.14988708496094 127.44345092773438 58.09228515625 C127.36357116699219 58.07232666015625 127.27755737304688 58.066925048828125 127.19461822509766 58.07000732421875 C126.58098602294922 58.09150695800781 125.96659088134766 58.10917663574219 125.35295867919922 58.14219665527344 C124.42827606201172 58.19212341308594 124.43367004394531 58.186737060546875 123.5811767578125 57.81657409667969 C122.80664825439453 57.48057556152344 122.05784606933594 57.095420837402344 121.31634521484375 56.696250915527344 C120.57483673095703 56.297080993652344 119.84062957763672 55.88389587402344 119.09528350830078 55.49183654785156 C118.98854064941406 55.43577575683594 118.88639831542969 55.372802734375 118.79270935058594 55.31901550292969 C118.76734924316406 55.26142883300781 118.80113983154297 55.23686218261719 118.82111358642578 55.20845031738281 C118.87103271484375 55.1385498046875 118.8848648071289 55.069427490234375 118.80652618408203 55.014892578125 C118.74278259277344 54.970367431640625 118.6821060180664 55.00184631347656 118.63141632080078 55.04945373535156 C118.60453796386719 55.074798583984375 118.57766723632812 55.1016845703125 118.55692291259766 55.132415771484375 C118.40255737304688 55.35820007324219 118.19596099853516 55.53253173828125 117.99551391601562 55.71379089355469 C117.64300537109375 56.03173828125 117.29431915283203 56.353515625 116.96563720703125 56.69758605957031 C116.19993591308594 57.49861145019531 115.45574188232422 58.31959533691406 114.66699981689453 59.09837341308594 C114.54643249511719 59.21739196777344 114.42278289794922 59.28038024902344 114.25227355957031 59.28729248046875 C113.82450866699219 59.304962158203125 113.39749145507812 59.33489990234375 112.9697265625 59.36332702636719 C112.57957458496094 59.38865661621094 112.18867492675781 59.413238525390625 111.80390167236328 59.49003601074219 C111.4967041015625 59.55070495605469 111.36844635009766 59.70585632324219 111.37689208984375 60.01228332519531 C111.38457489013672 60.29106140136719 111.39763641357422 60.57061767578125 111.4229736328125 60.8486328125 C111.49055480957031 61.581298828125 111.59807586669922 62.30937194824219 111.71019744873047 63.03666687011719 C111.72402954101562 63.12652587890625 111.76089477539062 63.21714782714844 111.72249603271484 63.33311462402344 C111.67103576660156 63.33003234863281 111.63416290283203 63.326202392578125 111.59807586669922 63.32466125488281 C110.91609191894531 63.29931640625 110.47986602783203 63.86763000488281 110.69490814208984 64.51736450195312 C110.86771392822266 65.03883361816406 111.16952514648438 65.48506164550781 111.5658187866211 65.86444091796875 C111.7739486694336 66.06411743164062 112.02738189697266 66.19699096679688 112.32383728027344 66.15013122558594 C112.50200653076172 66.12171936035156 112.5434799194336 66.20005798339844 112.59187316894531 66.33828735351562 C112.79230499267578 66.91889953613281 113.02579498291016 67.48721313476562 113.25849151611328 68.0555419921875 C113.78994750976562 69.35577392578125 114.46578979492188 70.5745849609375 115.37049102783203 71.65208435058594 C115.56402587890625 71.88249206542969 115.7713851928711 72.09214782714844 115.98643493652344 72.29106140136719 C115.9203872680664 73.57823181152344 115.28907775878906 74.32780456542969 114.84979248046875 75.50437927246094 C114.71154022216797 75.87303161621094 114.65087890625 76.11953735351562 114.7146224975586 76.50277709960938 C114.9166030883789 77.728515625 116.33586883544922 78.36517333984375 117.37804412841797 78.74533081054688 C118.99622344970703 79.3355484008789 120.66989135742188 79.40582275390625 122.24678802490234 79.03813934326172 C123.82368469238281 78.67045593261719 125.3038101196289 77.86482238769531 126.534912109375 76.70321655273438 C126.65087890625 76.59339904785156 126.71846771240234 76.37605285644531 126.62246704101562 76.2293701171875 C125.71238708496094 74.84466552734375 125.18092346191406 73.40696716308594 125.0150375366211 71.804931640625 C125.09336853027344 71.71121215820312 125.18170166015625 71.63442993164062 125.25541687011719 71.5338134765625 C126.08255767822266 70.41484069824219 126.66393280029297 69.169921875 127.03103637695312 67.82667541503906 C127.28447723388672 66.90048217773438 127.43270874023438 65.95352172851562 127.57478332519531 65.00581359863281 C127.59782409667969 64.85221862792969 127.65003967285156 64.76390075683594 127.80902099609375 64.71089172363281 C128.0570831298828 64.62873840332031 128.29055786132812 64.49971008300781 128.44952392578125 64.28236389160156 C128.76748657226562 63.846893310546875 128.9840545654297 63.36460876464844 129.04933166503906 62.826995849609375 C129.12384033203125 62.21412658691406 128.5931396484375 61.799407958984375 128.0071563720703 62.00140380859375"></path>
<path fill="#000000" fill-opacity="1.0"  filling="0" d="M135.57733154296875 66.95578002929688 C136.07040405273438 66.39974975585938 136.2662353515625 65.72773742675781 136.32998657226562 65.0096435546875 C136.43365478515625 63.85150146484375 136.10650634765625 62.854644775390625 135.188720703125 62.0950927734375 C134.77017211914062 61.748748779296875 134.32550048828125 61.44305419921875 133.80096435546875 61.278717041015625 C133.67807006835938 61.240325927734375 133.63507080078125 61.18962097167969 133.67959594726562 61.05828857421875 C133.7548828125 60.83787536621094 133.81784057617188 60.613616943359375 133.87930297851562 60.389373779296875 C134.02597045898438 59.851776123046875 134.04824829101562 59.308807373046875 133.96145629882812 58.75660705566406 C133.8278350830078 57.913330078125 133.4783935546875 57.20063781738281 132.79180908203125 56.666107177734375 C132.13746643066406 56.15693664550781 131.4124755859375 55.82438659667969 130.5861053466797 55.72453308105469 C130.34188842773438 55.69535827636719 130.3372802734375 55.693817138671875 130.3441925048828 55.43730163574219 C130.34954833984375 55.230712890625 130.32498168945312 55.03025817871094 130.2742919921875 54.82981872558594 C130.04159545898438 53.905914306640625 129.5155029296875 53.182464599609375 128.76748657226562 52.609527587890625 C128.2751922607422 52.232452392578125 127.71686553955078 52.053497314453125 127.09785461425781 52.08958435058594 C126.9434814453125 52.09880065917969 126.83673858642578 52.05656433105469 126.7269058227539 51.952117919921875 C126.17472076416016 51.4283447265625 125.54573059082031 51.01515197753906 124.85221099853516 50.70259094238281 C123.87224578857422 50.26176452636719 122.85311126708984 49.99986267089844 121.76715850830078 50.04978942871094 C121.28179168701172 50.072052001953125 120.80178833007812 50.12506103515625 120.32870483398438 50.236419677734375 C119.9132080078125 50.33393859863281 119.50923919677734 50.359283447265625 119.10527038574219 50.15730285644531 C118.751220703125 49.98066711425781 118.36261749267578 49.92230224609375 117.96556091308594 49.92921447753906 C117.77049255371094 49.932281494140625 117.57466125488281 49.92304992675781 117.37957000732422 49.93074035644531 C116.76517486572266 49.956085205078125 116.14464569091797 49.96299743652344 115.54635620117188 50.10893249511719 C114.50533294677734 50.36236572265625 113.5482177734375 50.743289947509766 112.7045669555664 51.29288864135742 C111.86092376708984 51.84248733520508 111.13074493408203 52.560760498046875 110.5436019897461 53.4888916015625 C110.49292755126953 53.56877136230469 110.44300079345703 53.60487365722656 110.34315490722656 53.59794616699219 C110.12812042236328 53.58258056640625 109.91615295410156 53.62174987792969 109.70802307128906 53.675506591796875 C108.7111587524414 53.93280029296875 107.95698547363281 54.527984619140625 107.40325164794922 55.37739562988281 C106.67443084716797 56.49560546875 106.56690979003906 57.68292236328125 107.0722427368164 58.9224853515625 C107.14827728271484 59.10835266113281 107.15289306640625 59.11296081542969 106.97624206542969 59.181304931640625 C105.79583740234375 59.635955810546875 104.9717788696289 60.47308349609375 104.40038299560547 61.57977294921875 C103.90348052978516 62.54283142089844 103.81900024414062 63.532806396484375 104.23680114746094 64.54579162597656 C104.29592895507812 64.68939208984375 104.28287506103516 64.76774597167969 104.1561508178711 64.87141418457031 C103.62316131591797 65.30917358398438 103.30905151367188 65.88287353515625 103.19770050048828 66.5587158203125 C103.05254364013672 67.43730163574219 103.2883071899414 68.21144104003906 103.85432434082031 68.87960815429688 C103.34130096435547 70.142578125 102.98994445800781 71.5706787109375 103.16389465332031 72.79438781738281 C103.33784484863281 74.01809692382812 104.037109375 75.03742980957031 105.62532806396484 75.48286437988281 C106.53157043457031 75.73706817626953 107.50194549560547 75.68522644042969 108.3448257446289 75.37246704101562 C109.18770599365234 75.05970001220703 109.9030990600586 74.48600769042969 110.29938507080078 73.69650268554688 C111.4198989868164 74.36158752441406 112.85298919677734 74.62040710449219 113.91590118408203 73.96223449707031 C114.5249252319336 73.76179504394531 115.3013687133789 73.51754760742188 115.79903411865234 73.14431762695312 C116.09241485595703 72.92466735839844 116.21835327148438 72.60209655761719 116.07398223876953 72.25343322753906 C115.8704605102539 71.76268005371094 115.45267486572266 71.28192138671875 115.0809555053711 70.83262634277344 C114.88050842285156 70.12071228027344 114.42507934570312 69.46636962890625 113.84140014648438 68.95486450195312 C113.70008850097656 68.69145202636719 113.56031036376953 68.42649841308594 113.43435668945312 68.15461730957031 C113.15481567382812 67.55404663085938 112.9428482055664 66.92811584472656 112.6932373046875 66.31680297851562 C112.60338592529297 66.09559631347656 112.58879852294922 66.07563781738281 112.36760711669922 66.10020446777344 C112.03199768066406 66.13632202148438 111.77241516113281 66.00575256347656 111.54278564453125 65.77690124511719 C111.2171401977539 65.4520263671875 111.02745056152344 65.05036926269531 110.89305114746094 64.62026977539062 C110.81779479980469 64.37989807128906 110.86002349853516 64.13874816894531 110.94988250732422 63.90911865234375 C111.07891082763672 63.57963562011719 111.32697296142578 63.49131774902344 111.63878631591797 63.66717529296875 C111.83154296875 63.7762451171875 112.01202392578125 63.76548767089844 112.19020080566406 63.646453857421875 C112.33843231201172 63.54737854003906 112.46207427978516 63.42143249511719 112.57650756835938 63.28474426269531 C112.81689453125 62.99749755859375 112.99506378173828 62.66880798339844 113.19627380371094 62.355438232421875 C113.45279693603516 61.95686340332031 113.60255432128906 61.5206298828125 113.6517105102539 61.04908752441406 C113.65938568115234 60.973052978515625 113.65323638916016 60.88934326171875 113.70315551757812 60.8087158203125 C113.83295440673828 60.88780212402344 113.94123840332031 60.958465576171875 114.05413818359375 61.02220153808594 C114.97035217285156 61.54060363769531 115.88275146484375 61.51908874511719 116.78129577636719 60.98225402832031 C116.89419555664062 60.9146728515625 116.95565032958984 60.93464660644531 117.04703521728516 61.006072998046875 C117.4341049194336 61.30711364746094 117.86649322509766 61.517547607421875 118.34341430664062 61.637359619140625 C119.2627182006836 61.86854553222656 120.09522247314453 61.69573974609375 120.84172821044922 61.10975646972656 C121.09286499023438 60.912384033203125 121.32324981689453 60.69502258300781 121.48223114013672 60.41624450683594 C121.55596160888672 60.28721618652344 121.63276672363281 60.27339172363281 121.75257110595703 60.33253479003906 C121.81094360351562 60.3609619140625 121.87468719482422 60.37861633300781 121.93611907958984 60.398590087890625 C122.52517700195312 60.59135437011719 123.10963439941406 60.56524658203125 123.69023132324219 60.3609619140625 C123.97822570800781 60.25956726074219 124.21554565429688 60.08601379394531 124.4106216430664 59.85099792480469 C124.553466796875 59.67974853515625 124.66558837890625 59.48774719238281 124.79308319091797 59.25733947753906 C124.86526489257812 59.357940673828125 124.90827941894531 59.4178466796875 124.95128631591797 59.477752685546875 C125.38905334472656 60.079864501953125 125.95352935791016 60.496124267578125 126.687744140625 60.66047668457031 C126.80985260009766 60.6881103515625 126.8781967163086 60.764923095703125 126.94117736816406 60.86015319824219 C127.19308471679688 61.241851806640625 127.41580963134766 61.637359619140625 127.56555938720703 62.07283020019531 C127.66309356689453 62.35621643066406 127.77752685546875 62.39154052734375 128.0517120361328 62.26483154296875 C128.4111328125 62.09815979003906 128.72140502929688 62.21644592285156 128.81971740722656 62.59199523925781 C128.98867797851562 63.241729736328125 128.88421630859375 64.174072265625 127.95878601074219 64.54502868652344 C127.69304656982422 64.65177917480469 127.54867553710938 64.8353271484375 127.46111297607422 65.10258483886719 C127.17311096191406 65.97810363769531 126.92427825927734 66.86592102050781 126.5963363647461 67.72837829589844 C126.46731567382812 68.06784057617188 126.34520721435547 68.41343688964844 126.2822265625 68.77055358886719 C126.24536895751953 68.98175048828125 126.18392944335938 69.19064331054688 126.12786865234375 69.3995361328125 C125.95584106445312 69.80964660644531 125.74923706054688 70.20210266113281 125.48504638671875 70.57150268554688 C125.17861938476562 71.00006103515625 124.82610321044922 71.32493591308594 124.71934509277344 71.85638427734375 C124.58495330810547 72.5245361328125 124.78309631347656 73.61280822753906 125.27462005615234 74.10737609863281 C125.91513061523438 74.75096130371094 127.13855743408203 74.55743408203125 127.95339965820312 74.58354187011719 C128.56625366210938 74.60273742675781 129.23519897460938 74.69259643554688 129.8165740966797 74.53822326660156 C129.89797973632812 74.53671264648438 129.97708129882812 74.53898620605469 130.06002807617188 74.53286743164062 C131.3763885498047 74.42994689941406 132.342529296875 73.75102233886719 132.9530792236328 72.57676696777344 C133.06906127929688 72.353271484375 133.0636749267578 72.34942626953125 133.3255615234375 72.40164184570312 C133.5828399658203 72.45234680175781 133.84243774414062 72.46847534179688 134.10354614257812 72.4508056640625 C135.12115478515625 72.38169860839844 136.23013305664062 71.65670776367188 136.31231689453125 70.2320556640625 C136.36761474609375 69.27436828613281 136.06732177734375 68.43186950683594 135.51666259765625 67.67308044433594 C135.37843322753906 67.48262023925781 135.36460876464844 67.3336181640625 135.46597290039062 67.14698791503906 C135.50131225585938 67.08323669433594 135.52896118164062 67.01028442382812 135.57733154296875 66.95578002929688"></path>
<path fill="#F29481" fill-opacity="1.0"  filling="0" d="M170.99749755859375 93.75205993652344 C171.28012084960938 93.6629638671875 171.6656494140625 94.12222290039062 171.8077392578125 94.29348754882812 C171.89683532714844 94.40023803710938 171.97055053710938 94.51852416992188 172.05043029785156 94.63140869140625 C172.23245239257812 94.78347778320312 172.44287109375 94.88330078125 172.66790771484375 94.95321655273438 C172.77926635742188 94.93476867675781 172.8791046142578 94.88563537597656 172.94976806640625 94.75277709960938 C173.07339477539062 94.52084350585938 172.94744873046875 94.25355529785156 172.78848266601562 94.066162109375 C172.384521484375 93.59153747558594 171.99819946289062 93.08389282226562 171.5228271484375 92.68914794921875 C170.75328063964844 92.05055236816406 169.98355102539062 91.41099548339844 169.20480346679688 90.783447265625 C168.42605590820312 90.15589904785156 167.63827514648438 89.54034423828125 166.8326416015625 88.94975280761719 C165.9325408935547 88.29080200195312 164.89112854003906 87.82464599609375 163.910400390625 87.2755126953125 C162.84133911132812 86.67648315429688 161.75308227539062 86.74868774414062 160.66329956054688 87.20793151855469 C159.7347869873047 87.599609375 158.9014892578125 88.15718078613281 158.10354614257812 88.76083374023438 C157.17196655273438 89.46508026123047 156.24371337890625 90.17317962646484 155.329345703125 90.8976821899414 C154.41497802734375 91.6221923828125 153.5144805908203 92.36311340332031 152.63841247558594 93.13302612304688 C151.76235961914062 93.9029312133789 150.91073608398438 94.70182800292969 150.09408569335938 95.54226684570312 C149.26617431640625 96.39398193359375 148.41522216796875 97.22418212890625 147.55661010742188 98.04594421386719 C147.3062286376953 98.28555297851562 147.1065673828125 98.65803527832031 146.52056884765625 98.54898071289062 C145.83474731445312 97.62814331054688 145.09593200683594 96.6243896484375 144.34405517578125 95.62982177734375 C143.9677276611328 95.13137817382812 143.58143615722656 94.63832092285156 143.17440795898438 94.16523742675781 C142.898681640625 93.84576416015625 142.5384979248047 93.79351806640625 142.15988159179688 93.99627685546875 C140.8949737548828 94.67366027832031 139.63006591796875 95.35256958007812 138.3674774169922 96.03379821777344 C138.14784240722656 96.15205383300781 137.9274139404297 96.27340698242188 137.72312927246094 96.41548156738281 C137.21163940429688 96.77183532714844 137.0979766845703 97.10975646972656 137.3713836669922 97.70341491699219 C137.60562133789062 98.21183776855469 137.90130615234375 98.69337463378906 138.19544982910156 99.17106628417969 C138.5886688232422 99.81004333496094 139.0341033935547 100.4167709350586 139.4073486328125 101.06649017333984 C140.0017852783203 102.1002197265625 140.65997314453125 103.08863830566406 141.35317993164062 104.05209350585938 C142.04640197753906 105.01554870605469 142.774658203125 105.95404052734375 143.50924682617188 106.88793182373047 C143.89324951171875 107.37638854980469 144.3294677734375 107.83794403076172 144.80331420898438 108.2396011352539 C146.24331665039062 109.46149444580078 147.32696533203125 109.47531127929688 148.8460693359375 108.32563781738281 C149.6002655029297 107.75422668457031 150.22848510742188 107.051513671875 150.74533081054688 106.2643051147461 C151.49874877929688 105.11461639404297 152.24215698242188 103.95648193359375 152.9364471435547 102.77069091796875 C153.50706481933594 101.79532623291016 154.11109924316406 100.85125732421875 154.77992248535156 99.9548110961914 C155.44876098632812 99.05836486816406 156.18238830566406 98.20953369140625 157.01220703125 97.42463684082031 C157.64657592773438 96.8244400024414 158.30264282226562 96.2444076538086 158.9377899169922 95.64239501953125 C159.5729217529297 95.04037475585938 160.1871337890625 94.41637420654297 160.73779296875 93.72824096679688 C160.96511840820312 93.44331359863281 161.2991943359375 93.23289489746094 161.6102294921875 93.02861022949219 C162.27609252929688 92.59007263183594 162.60018920898438 92.65458679199219 163.0003204345703 93.30047607421875 C163.6285400390625 94.31422424316406 164.07321166992188 95.41477966308594 164.5048370361328 96.52299499511719 C164.75289916992188 97.16120910644531 165.03936767578125 97.78558349609375 165.3396453857422 98.40151977539062 C165.4517822265625 98.63192749023438 165.6890869140625 98.75865173339844 165.96401977539062 98.6826171875 C166.25048828125 98.60275268554688 166.33804321289062 98.35160827636719 166.33497619628906 98.09893798828125 C166.3303680419922 97.71954345703125 166.20516967773438 97.35321044921875 166.12684631347656 96.98149108886719 C165.8772430419922 96.62130737304688 165.69752502441406 96.14131164550781 165.69677734375 95.7127685546875 C166.04159545898438 95.70661926269531 166.26661682128906 95.93086242675781 166.44171142578125 96.21733093261719 C166.5261993408203 96.28799438476562 166.59532165527344 96.38169860839844 166.661376953125 96.47538757324219 C167.20127868652344 97.23800659179688 167.53076171875 98.10354614257812 167.86712646484375 98.96600341796875 C168.068359375 99.4813232421875 168.27723693847656 99.99513244628906 168.51686096191406 100.4927978515625 C168.6228485107422 100.71320343017578 168.8309783935547 100.87449645996094 169.10899353027344 100.8460693359375 C169.4300079345703 100.81304931640625 169.47763061523438 100.54655456542969 169.4730224609375 100.31846618652344 C169.4430694580078 99.38533020019531 169.0874786376953 98.4744873046875 168.76568603515625 97.59742736816406 C168.49459838867188 97.11819458007812 167.9815673828125 96.28030395507812 168.35635375976562 96.25727844238281 C168.58213806152344 96.24345397949219 168.85169982910156 96.68733215332031 168.96383666992188 96.83480834960938 C169.00759887695312 96.89241027832031 169.043701171875 96.95462036132812 169.0867156982422 97.01298522949219 C169.575927734375 97.67578125 169.96685791015625 98.31320190429688 170.376953125 98.93759155273438 C170.58047485351562 99.24710083007812 170.73406982421875 99.60806274414062 171.1057891845703 99.76243591308594 C171.21099853515625 99.80619812011719 171.35922241210938 99.81773376464844 171.46060180664062 99.77702331542969 C171.557373046875 99.73785400390625 171.6864013671875 99.60806274414062 171.68255615234375 99.52357482910156 C171.66873168945312 99.21791076660156 171.6564483642578 98.89533996582031 171.552001953125 98.61273193359375 C171.15187072753906 97.53062438964844 170.61119079589844 96.51992797851562 169.95455932617188 95.572998046875 C169.7272186279297 95.12908935546875 169.27334594726562 94.87257385253906 169.1412353515625 94.40103149414062 C169.38778686523438 94.29426574707031 169.575927734375 94.38796997070312 169.7364501953125 94.52389526367188 C169.84780883789062 94.62451171875 169.8946533203125 94.67289733886719 169.9368896484375 94.72280883789062 C170.10739135742188 94.92250061035156 170.27328491210938 95.15133666992188 170.4284210205078 95.38558959960938 C170.46298217773438 95.42245483398438 170.49830627441406 95.4600830078125 170.52902221679688 95.49848937988281 C170.74867248535156 95.71968078613281 170.95372009277344 95.91627502441406 171.12728881835938 96.1397705078125 C171.38763427734375 96.47538757324219 171.6933135986328 96.77951049804688 171.99972534179688 97.0751953125 C172.1855926513672 97.25413513183594 172.47512817382812 97.32864379882812 172.67788696289062 97.20576477050781 C172.75929260253906 97.15660095214844 172.81150817871094 97.09822082519531 172.84454345703125 97.03372192382812 C172.77618408203125 96.47308349609375 172.54733276367188 95.99385070800781 172.1556396484375 95.589111328125 C171.83538818359375 95.25733947753906 171.61343383789062 94.85797119140625 171.31085205078125 94.5115966796875 C171.22021484375 94.32344055175781 171.09963989257812 94.19517517089844 171.00363159179688 94.05618286132812 C170.92454528808594 93.94483947753906 170.82470703125 93.80734252929688 170.99749755859375 93.75205993652344"></path>
<path fill="#F29481" fill-opacity="1.0"  filling="0" d="M101.76536560058594 98.17881774902344 C101.07877349853516 97.44767761230469 100.32460021972656 96.7933349609375 99.55343627929688 96.15839385986328 C98.78227233886719 95.52344512939453 97.99411010742188 94.90789031982422 97.23954772949219 94.25431823730469 C96.83941650390625 93.907958984375 96.45924377441406 93.98860168457031 96.12442016601562 94.46170043945312 C95.61869049072266 95.17747497558594 95.08781433105469 95.87174987792969 94.53024291992188 96.54374694824219 C93.97267150878906 97.21574401855469 93.38841247558594 97.86547088623047 92.77592468261719 98.49215698242188 C91.89657592773438 99.3914794921875 90.919677734375 100.16178894042969 89.80607604980469 100.75314331054688 C88.94514465332031 101.21087646484375 88.06886291503906 101.402099609375 87.1072998046875 101.04268646240234 C86.40768432617188 100.78155517578125 85.67578125 100.60569763183594 84.96536254882812 100.37298583984375 C83.42399597167969 99.86764526367188 81.89028930664062 99.33695983886719 80.34585571289062 98.84083557128906 C79.43692779541016 98.54898834228516 78.54374694824219 98.45068359375 77.66773986816406 98.53755950927734 C76.791748046875 98.62443542480469 75.93292999267578 98.89649963378906 75.09274291992188 99.34539794921875 C74.65266418457031 99.58041381835938 74.22105407714844 99.83154296875 73.78712463378906 100.07807159423828 C72.70195007324219 100.6932373046875 71.64363098144531 101.36371612548828 70.52696228027344 101.91590118408203 C69.13074493408203 102.60594940185547 67.85490417480469 103.44364929199219 66.67121887207031 104.39692687988281 C65.48754119873047 105.35020446777344 64.3960189819336 106.4190673828125 63.368438720703125 107.57144927978516 C62.9068603515625 108.08908081054688 62.53208923339844 108.66047668457031 62.25407409667969 109.29407501220703 C62.13043212890625 109.57515716552734 61.955322265625 109.9030990600586 62.176513671875 110.17267608642578 C63.180267333984375 110.3685073852539 63.562744140625 108.84249114990234 64.16871643066406 108.34483337402344 C64.31768798828125 108.72421264648438 63.93061828613281 109.10054016113281 63.764739990234375 109.39238739013672 C63.539703369140625 109.78712463378906 63.30699157714844 110.14808654785156 63.11883544921875 110.53900146484375 C62.970611572265625 111.01900482177734 62.821624755859375 111.4974594116211 62.69950866699219 111.98284912109375 C62.63883972167969 112.22169494628906 62.73406982421875 112.4958724975586 63.02745056152344 112.5434799194336 C63.186431884765625 112.56958770751953 63.43756103515625 112.53118896484375 63.52357482910156 112.42290496826172 C63.86456298828125 111.99205780029297 64.16871643066406 111.52973175048828 64.46591186523438 111.06585693359375 C65.07109069824219 110.12120819091797 65.67398071289062 109.1758041381836 66.49574279785156 108.40933227539062 C66.54718017578125 108.342529296875 66.60401916503906 108.279541015625 66.66777038574219 108.21118927001953 C66.80447387695312 108.06450653076172 66.91429138183594 107.89171600341797 67.06483459472656 107.75884246826172 C67.29829406738281 107.98616790771484 67.05714416503906 108.35404205322266 66.9327392578125 108.55372619628906 C66.7906494140625 108.78182220458984 66.61785888671875 108.98381042480469 66.4427490234375 109.18272399902344 C65.67626953125 110.3800277709961 65.11871337890625 111.68179321289062 64.54962158203125 112.97586822509766 C64.42826843261719 113.25157165527344 64.37911987304688 113.56414794921875 64.33381652832031 113.86520385742188 C64.31846618652344 113.96659088134766 64.39218139648438 114.11557006835938 64.47283935546875 114.19084930419922 C64.61643981933594 114.32447814941406 64.79693603515625 114.31295776367188 64.97586059570312 114.21925354003906 C65.51115417480469 113.94047546386719 65.7315673828125 113.41593170166016 65.98886108398438 112.9251708984375 C66.43199157714844 112.08038330078125 67.34744262695312 110.46757507324219 67.38200378417969 110.42994689941406 C67.47801208496094 110.32549285888672 68.18609619140625 109.3516845703125 68.40576171875 109.56824493408203 C68.53861999511719 109.69956970214844 68.34585571289062 110.00064086914062 68.27442932128906 110.1050796508789 C68.25904846191406 110.19032287597656 66.93656921386719 112.84300231933594 66.47114562988281 114.00038146972656 C66.20619201660156 114.65855407714844 66.29452514648438 115.07941436767578 66.60862731933594 115.14086151123047 C67.06636047363281 115.23072052001953 67.28524780273438 114.89049530029297 67.51641845703125 114.614013671875 C68.16766357421875 113.83755493164062 68.54014587402344 112.8982925415039 68.93797302246094 111.98668670654297 C69.607666015625 110.45144653320312 70.66751098632812 109.25413513183594 71.97157287597656 108.24883270263672 C72.13822937011719 108.12057495117188 72.33253479003906 107.86176300048828 72.68505859375 108.20198059082031 C72.28721618652344 108.79872131347656 71.88249206542969 109.41388702392578 71.47007751464844 110.023681640625 C71.22354125976562 110.38848114013672 70.99775695800781 110.75711059570312 70.97087097167969 111.21560668945312 C70.95013427734375 111.56734466552734 71.41093444824219 111.9736328125 71.72659301757812 111.82771301269531 C72.05990600585938 111.67410278320312 72.40702819824219 111.49440002441406 72.66354370117188 111.24095916748047 C73.48568725585938 110.42918395996094 74.31724548339844 109.62431335449219 75.07977294921875 108.76165771484375 C75.84230041503906 107.89899444580078 76.53580474853516 106.97854614257812 77.08184814453125 105.93560028076172 C77.25541687011719 105.60460662841797 77.4520263671875 105.28126525878906 77.67398071289062 104.98098754882812 C78.50880432128906 103.85124969482422 78.90048217773438 103.71685791015625 80.21836853027344 104.22526550292969 C81.61459350585938 104.76441955566406 83.00083923339844 105.33273315429688 84.37016296386719 105.93714141845703 C85.28523254394531 106.34149932861328 86.2039566040039 106.73145294189453 87.13871002197266 107.07618713378906 C88.07347106933594 107.42092895507812 89.02425384521484 107.72044372558594 90.00344848632812 107.94393157958984 C91.55633544921875 108.29798126220703 92.97792053222656 108.08216857910156 94.2320556640625 107.04228973388672 C94.52005004882812 106.8034439086914 94.84262084960938 106.60530090332031 95.12216186523438 106.35723876953125 C96.33792114257812 105.28050994873047 97.56364440917969 104.21376037597656 98.74713134765625 103.10246276855469 C99.79391479492188 102.11941528320312 100.80767822265625 101.0987548828125 101.80377197265625 100.06424713134766 C102.5564193725586 99.27781677246094 102.54643249511719 99.01055908203125 101.76536560058594 98.17881774902344"></path>
<path fill="#43B5AC" fill-opacity="1.0"  filling="0" d="M143.51998901367188 94.92787170410156 C142.5703582763672 95.40863800048828 141.61669921875 95.87749481201172 140.66302490234375 96.34539794921875 C139.70936584472656 96.81329345703125 138.75570678710938 97.28023529052734 137.8060760498047 97.75717163085938 C137.60101318359375 97.85931396484375 137.39596557617188 97.93075561523438 137.1832275390625 97.93075561523438 C137.08877563476562 97.93075561523438 137.00198364257812 97.91461181640625 136.90750122070312 97.89157104492188 C136.3399658203125 97.72645568847656 136.2769775390625 98.12811279296875 136.23782348632812 98.498291015625 C136.09573364257812 99.93292236328125 136.02508544921875 101.36678314208984 135.74168395996094 102.78604125976562 C135.7178955078125 102.89664459228516 135.70252990722656 102.99878692626953 135.67103576660156 103.10936737060547 C135.45831298828125 104.18917083740234 135.18258666992188 105.24517059326172 134.8515625 106.2773666381836 C134.70181274414062 106.7504653930664 134.5443878173828 107.20741271972656 134.36312866210938 107.66438293457031 C134.0597686767578 108.47615814208984 133.71493530273438 109.27027130126953 133.32574462890625 110.04757690429688 C132.9365692138672 110.82489013671875 132.50303649902344 111.58540344238281 132.02227783203125 112.3299789428711 C131.46240234375 113.2047348022461 130.96627807617188 114.11865997314453 130.43020629882812 115.00952911376953 C130.1468048095703 115.47416687011719 129.78431701660156 115.69534301757812 129.70521545410156 115.6869125366211 C129.46099853515625 115.6554183959961 129.23211669921875 115.62393188476562 129.01171875 115.6001205444336 C127.7660140991211 115.43500518798828 126.76529693603516 115.30060577392578 125.76460266113281 115.20613861083984 C124.5035400390625 115.09554290771484 123.25016784667969 114.99340057373047 121.98988342285156 114.89125061035156 C121.53292083740234 114.85208892822266 121.06751251220703 114.81214904785156 120.61055755615234 114.77298736572266 C119.46009063720703 114.67852783203125 118.31729888916016 114.58406066894531 117.16607666015625 114.48114013671875 C116.18074035644531 114.39435577392578 115.19615173339844 114.2922134399414 114.203125 114.18930053710938 C113.73004150390625 114.1417007446289 113.25772857666016 114.087158203125 112.7769546508789 114.03954315185547 C112.6824951171875 114.0234146118164 112.59571075439453 114.0157470703125 112.50123596191406 114.008056640625 C112.25701904296875 113.97657012939453 112.01280212402344 113.9212646484375 111.76856994628906 113.86598205566406 C111.08275604248047 113.71621704101562 110.66495513916016 113.28306579589844 110.55513000488281 112.60492706298828 C110.42149353027344 111.80082702636719 110.31858825683594 110.99749755859375 110.21644592285156 110.18572998046875 C110.0981674194336 109.34246063232422 110.0190658569336 108.48306274414062 109.90155792236328 107.63211822509766 C109.87776184082031 107.42706298828125 109.84626007080078 107.23046112060547 109.81478118896484 107.02539825439453 C109.76715850830078 106.74969482421875 109.72799682617188 106.4739761352539 109.68114471435547 106.19825744628906 C109.51948547363281 105.20523071289062 109.35590362548828 104.21221160888672 109.19136047363281 103.21919250488281 C109.02681732177734 102.22616577148438 108.86131286621094 101.23313903808594 108.69580841064453 100.24011993408203 C108.61670684814453 99.75167846679688 108.5383529663086 99.26246643066406 108.45157623291016 98.78169250488281 C108.38860321044922 98.38771057128906 108.31794738769531 97.98603820800781 108.25419616699219 97.59205627441406 C108.21503448486328 97.35551452636719 108.20658874511719 97.04830932617188 107.89938354492188 97.02450561523438 C107.74195098876953 97.01683044433594 107.54457092285156 97.14277648925781 107.4262924194336 97.26873779296875 C107.09528350830078 97.61509704589844 106.77196502685547 97.96223449707031 106.44940185546875 98.30937194824219 C106.13452911376953 98.65574645996094 105.82655334472656 98.99519348144531 105.51934814453125 99.341552734375 C105.21984100341797 99.67257690429688 104.93644714355469 100.01893615722656 104.63692474365234 100.3583984375 C104.53478240966797 100.49202728271484 104.41651153564453 100.62643432617188 104.28978729248047 100.76005554199219 C103.62008666992188 101.48504638671875 103.29676818847656 101.53267669677734 102.53260040283203 100.9651107788086 C102.20926666259766 100.72856903076172 101.88671875 100.48433685302734 101.5710678100586 100.24011993408203 C101.20088958740234 99.94059753417969 100.8384017944336 99.63340759277344 100.49893951416016 99.30239868164062 C99.83692932128906 98.6641845703125 99.14341735839844 98.04901123046875 98.43379211425781 97.45843505859375 C97.70111083984375 96.85171508789062 96.95230102539062 96.26033020019531 96.19583129882812 95.68511962890625 C95.69970703125 95.29881286621094 95.20280456542969 94.91250610351562 94.76966857910156 94.4716796875 C94.24127197265625 93.94326782226562 94.21823120117188 93.42333984375 94.65138244628906 92.7774658203125 C94.7381591796875 92.64384460449219 94.83265686035156 92.50942993164062 94.93476867675781 92.38348388671875 C95.09989929199219 92.17074584960938 95.27346801757812 91.9580078125 95.4547119140625 91.74526977539062 C95.65977478027344 91.50105285644531 95.85638427734375 91.24838256835938 96.05375671386719 90.99647521972656 C96.90470886230469 89.90130615234375 97.70111083984375 88.76618957519531 98.41842651367188 87.58424377441406 C99.00132751464844 86.63883972167969 99.52972412109375 85.66886901855469 100.01049041748047 84.66047668457031 C100.14411926269531 84.37709045410156 100.28619384765625 84.08523559570312 100.42827606201172 83.80952453613281 C100.9244155883789 82.87181091308594 101.47660064697266 81.97323608398438 102.12249755859375 81.12997436523438 C102.71385192871094 80.36581420898438 103.38353729248047 79.69535827636719 104.1239013671875 79.13624572753906 C104.80973052978516 78.60786437988281 105.55852508544922 78.17471313476562 106.37797546386719 77.83602905273438 C106.55921936035156 77.76536560058594 106.740478515625 77.69393920898438 106.9217300415039 77.62327575683594 C107.89900207519531 77.24888610839844 108.8939437866211 76.9197998046875 109.88399505615234 76.57794189453125 C110.87403869628906 76.236083984375 111.85919189453125 75.88146209716797 112.81689453125 75.45599365234375 C113.0142593383789 75.37689208984375 113.20319366455078 75.29010009765625 113.39212036132812 75.19563293457031 C113.6993179321289 75.04588317871094 113.99115753173828 75.09349060058594 114.26687622070312 75.25862121582031 C114.3298568725586 75.29010009765625 114.38513946533203 75.32926940917969 114.44044494628906 75.37689208984375 C115.07096862792969 75.88145446777344 115.6938247680664 76.41677856445312 116.34738159179688 76.89752197265625 C116.77286529541016 77.20474243164062 117.20600891113281 77.465087890625 117.65528106689453 77.68548583984375 C118.50238800048828 78.09137725830078 119.38501739501953 78.341552734375 120.29730224609375 78.46463012695312 C121.2095947265625 78.58770751953125 122.15155029296875 78.58367919921875 123.11730194091797 78.48115539550781 C123.88146209716797 78.39436340332031 124.51199340820312 78.07948303222656 125.07954406738281 77.66169738769531 C125.35525512695312 77.45663452148438 125.62328338623047 77.2362060546875 125.87519073486328 76.99966430664062 C126.19852447509766 76.70783996582031 126.44275665283203 76.337646484375 126.75763702392578 76.03045654296875 C126.9941635131836 75.79391479492188 127.30905151367188 75.75474548339844 127.62470245361328 75.84921264648438 C127.80594635009766 75.90451049804688 127.97950744628906 75.99127197265625 128.136962890625 76.09342956542969 C128.42034912109375 76.28236389160156 128.71218872070312 76.4559326171875 129.0040283203125 76.61337280273438 C129.50860595703125 76.90521240234375 130.02853393554688 77.15711975097656 130.56460571289062 77.36985778808594 C130.80882263183594 77.47200012207031 131.05303955078125 77.57490539550781 131.29727172851562 77.66169738769531 C132.23500061035156 78.008056640625 133.196533203125 78.27609252929688 134.181884765625 78.52877807617188 C135.28549194335938 78.81214904785156 136.28619384765625 79.22225952148438 137.16864013671875 79.76600646972656 C137.94085693359375 80.23487854003906 138.62841796875 80.8062744140625 139.22543334960938 81.4781723022461 C139.8224639892578 82.15007019042969 140.32896423339844 82.9224853515625 140.73907470703125 83.79339599609375 C140.92031860351562 84.15589904785156 141.070068359375 84.53453063964844 141.212158203125 84.93618774414062 C141.24363708496094 85.03065490722656 141.27513122558594 85.13356018066406 141.30661010742188 85.22802734375 C141.58233642578125 86.023681640625 141.8350067138672 86.81240844726562 142.0792236328125 87.61573791503906 C142.44171142578125 88.79000854492188 142.78042602539062 89.98040771484375 143.1981964111328 91.1385498046875 C143.3633270263672 91.59550476074219 143.53689575195312 92.05247497558594 143.73428344726562 92.50175476074219 C143.84486389160156 92.76210021972656 143.963134765625 93.00631713867188 144.08140563964844 93.25822448730469 C144.50457763671875 94.123779296875 144.36325073242188 94.50163269042969 143.51998901367188 94.92787170410156"></path>
</svg>