<svg xmlns="http://www.w3.org/2000/svg" viewBox="0.0 0.0 256.0 256.0" height="256.0px" width="256.0px"><path fill="#F29481" fill-opacity="1.0"  filling="0" d="M127.1002197265625 152.05401611328125 C127.24615478515625 152.09011840820312 127.54875183105469 152.14926147460938 127.84288024902344 152.23834228515625 C129.0325164794922 152.5990447998047 130.2128448486328 152.9828643798828 131.38357543945312 153.3922119140625 C132.55429077148438 153.80154418945312 133.71539306640625 154.23641967773438 134.86656188964844 154.6991729736328 C136.0177459716797 155.1619415283203 137.15899658203125 155.65261840820312 138.2899932861328 156.173583984375 C140.08633422851562 157.000732421875 140.0802001953125 157.56825256347656 139.20620727539062 158.9644775390625 C138.54959106445312 160.01358032226562 138.0089111328125 161.14100646972656 137.48898315429688 162.26611328125 C137.17869567871094 162.93734741210938 136.96060180664062 163.66159057617188 136.78472900390625 164.38272094726562 C136.47518920898438 165.6568603515625 136.70712280273438 166.8564453125 137.49282836914062 167.91860961914062 C137.97280883789062 168.56756591796875 138.45741271972656 169.2196044921875 139.00192260742188 169.81326293945312 C139.99282836914062 170.89402770996094 140.9122772216797 172.01760864257812 141.76625061035156 173.18028259277344 C142.62022399902344 174.34295654296875 143.40872192382812 175.54473876953125 144.1377410888672 176.78189086914062 C144.86676025390625 178.01904296875 145.53631591796875 179.29156494140625 146.1523895263672 180.5957489013672 C146.76846313476562 181.89993286132812 147.3310546875 183.23577880859375 147.84619140625 184.59954833984375 C148.27806091308594 185.74310302734375 148.71923828125 186.88221740722656 149.17758178710938 188.01380920410156 C149.6359100341797 189.1453857421875 150.11138916015625 190.26942443847656 150.61187744140625 191.38282775878906 C151.11236572265625 192.4962158203125 151.63784790039062 193.59896850585938 152.1961669921875 194.68798828125 C153.27676391601562 196.796142578125 152.80593872070312 197.01275634765625 151.09796142578125 197.7738037109375 C150.53192138671875 198.0264892578125 149.98968505859375 198.33135986328125 149.43060302734375 198.60098266601562 C148.5758056640625 199.01263427734375 148.30780029296875 198.96038818359375 147.6373291015625 198.26535034179688 C147.50830078125 198.1317138671875 147.39157104492188 197.98504638671875 147.27560424804688 197.839111328125 C146.4237060546875 196.7666015625 145.5430908203125 195.7200164794922 144.64352416992188 194.69053649902344 C143.7439727783203 193.6610565185547 142.82546997070312 192.64869689941406 141.89776611328125 191.64463806152344 C140.97006225585938 190.64056396484375 140.03317260742188 189.64480590820312 139.0968475341797 188.64854431152344 C138.1605224609375 187.65228271484375 137.22476196289062 186.65550231933594 136.29931640625 185.6494140625 C135.49984741210938 184.780029296875 134.70266723632812 183.90911865234375 133.90931701660156 183.03512573242188 C132.98348999023438 182.01560974121094 132.1377410888672 180.943115234375 131.3858642578125 179.80886840820312 C130.63400268554688 178.6746368408203 129.97601318359375 177.47866821289062 129.42575073242188 176.21221923828125 C128.90196228027344 175.00799560546875 128.22994995117188 173.8982391357422 127.38821411132812 172.88677978515625 C126.91207885742188 172.31387329101562 126.47662353515625 171.70712280273438 126.02886962890625 171.1103973388672 C125.18598937988281 169.98641967773438 124.60960388183594 168.79928588867188 124.28819274902344 167.5431365966797 C123.96678161621094 166.2869873046875 123.90035247802734 164.9617919921875 124.07737731933594 163.56173706054688 C124.28397369384766 161.92550659179688 124.55757141113281 160.3031005859375 124.86727142333984 158.68780517578125 C125.17697143554688 157.072509765625 125.52276611328125 155.46432495117188 125.87374877929688 153.85653686523438 C125.97894287109375 153.37496948242188 126.14944458007812 152.90341186523438 126.3360595703125 152.4464569091797 C126.4305419921875 152.2152862548828 126.67243957519531 152.09547424316406 127.1002197265625 152.05401611328125"></path>
<path fill="#F29481" fill-opacity="1.0"  filling="0" d="M107.77426147460938 185.80914306640625 C107.80499267578125 184.24166870117188 107.69401550292969 182.69107055664062 107.47321319580078 181.1563262939453 C107.25241088867188 179.62158203125 106.92178344726562 178.1026611328125 106.51321411132812 176.59854125976562 C106.17951965332031 175.3689727783203 105.84059143066406 174.14083862304688 105.49868774414062 172.9135284423828 C105.15678405761719 171.68621826171875 104.81190490722656 170.459716796875 104.46630859375 169.23341369628906 C104.12071228027344 168.00711059570312 103.7743911743164 166.781005859375 103.42960357666016 165.55445861816406 C103.08482360839844 164.32791137695312 102.7415771484375 163.1009521484375 102.40211486816406 161.87290954589844 C102.1705551147461 161.03463745117188 101.93861389160156 160.19482421875 101.72434997558594 159.3512725830078 C101.51007843017578 158.50772094726562 101.3134765625 157.66041564941406 101.152587890625 156.80715942382812 C100.90068817138672 155.47276306152344 100.93179321289062 154.21055603027344 101.27076721191406 153.03485107421875 C101.6097412109375 151.859130859375 102.25658416748047 150.76992797851562 103.23616027832031 149.78152465820312 C103.9227523803711 149.08917236328125 104.67213439941406 148.4855194091797 105.45568084716797 147.92938232421875 C106.2392349243164 147.37326049804688 107.05696105957031 146.86463928222656 107.8802490234375 146.36236572265625 C108.44168090820312 146.0198516845703 109.05606079101562 145.9683837890625 109.68045043945312 146.15423583984375 C110.51373291015625 146.40155029296875 111.34623718261719 146.651123046875 112.16799926757812 146.93377685546875 C113.6663818359375 147.44833374023438 115.16456604003906 147.96328735351562 116.66139221191406 148.48196411132812 C118.1582260131836 149.0006561279297 119.6537094116211 149.52310180664062 121.14669799804688 150.05262756347656 C121.84634399414062 150.30068969726562 122.51065063476562 150.65240478515625 123.17881774902344 150.98190307617188 C123.39616394042969 151.08941650390625 123.58737182617188 151.26296997070312 123.76559448242188 151.43272399902344 C124.04434204101562 151.69842529296875 124.03361511230469 152.2229766845703 123.73100280761719 152.42266845703125 C123.31784057617188 152.69528198242188 122.88235473632812 152.93643188476562 122.44844055175781 153.17837524414062 C121.57830047607422 153.66259765625 120.68646240234375 154.101318359375 119.78474426269531 154.51930236816406 C118.88301849365234 154.93728637695312 117.97140502929688 155.33453369140625 117.06170654296875 155.73580932617188 C116.04025268554688 156.18663024902344 115.008056640625 156.63975524902344 114.05575561523438 157.2149658203125 C112.48904418945312 158.16116333007812 112.06585693359375 159.22329711914062 112.48135375976562 161.00967407226562 C112.67718505859375 161.8521728515625 112.94598388671875 162.69158935546875 113.29005432128906 163.4849395751953 C113.8035888671875 164.66868591308594 114.20661926269531 165.8714599609375 114.5122299194336 167.09117126464844 C114.81784057617188 168.31089782714844 115.0260238647461 169.54757690429688 115.14986419677734 170.79913330078125 C115.27371215820312 172.05068969726562 115.31321716308594 173.31710815429688 115.28146362304688 174.59634399414062 C115.25267028808594 175.74644470214844 115.21235656738281 176.89633178710938 115.1727066040039 178.04632568359375 C115.133056640625 179.19631958007812 115.09407806396484 180.3463897705078 115.06796264648438 181.49685668945312 C115.04225158691406 182.6177520751953 115.05396270751953 183.7373046875 115.11126708984375 184.8545379638672 C115.1685791015625 185.97177124023438 115.271484375 187.08670043945312 115.42816162109375 188.1983642578125 C115.46272277832031 188.4449462890625 115.48806762695312 188.69223022460938 115.50958251953125 188.9403076171875 C115.68391418457031 190.93634033203125 115.78143310546875 191.13137817382812 113.41293334960938 191.59527587890625 C112.12806701660156 191.84637451171875 110.80787658691406 191.794921875 109.50381469726562 191.70046997070312 C108.2857666015625 191.61294555664062 107.95782470703125 191.29193115234375 107.89407348632812 190.0999755859375 C107.81729125976562 188.67147827148438 107.81112670898438 187.23992919921875 107.77426147460938 185.80914306640625"></path>
<path fill="#000000" fill-opacity="1.0"  filling="0" d="M112.89453125 198.2584228515625 C113.30772399902344 199.35513305664062 113.6348876953125 200.32666015625 114.04344177246094 201.2774658203125 C114.46202087402344 202.25125122070312 115.07334899902344 202.54229736328125 116.27603149414062 202.4501953125 C117.0286865234375 202.39260864257812 117.40806579589844 202.0869140625 117.38348388671875 201.42645263671875 C117.32513427734375 199.89044189453125 117.27981567382812 198.35134887695312 117.11776733398438 196.81613159179688 C116.984130859375 195.546630859375 116.82957458496094 194.2777099609375 116.66790771484375 193.00906372070312 C116.5062484741211 191.74041748046875 116.33747863769531 190.47207641601562 116.1754150390625 189.2037353515625 C116.14164733886719 188.93798828125 116.07481384277344 188.669921875 115.98574829101562 188.410400390625 C115.80447387695312 187.88043212890625 115.43121337890625 187.630859375 114.73773193359375 187.62701416015625 C113.62643432617188 187.62088012695312 112.51514434814453 187.6153106689453 111.40423583984375 187.61434936523438 C110.29332733154297 187.61338806152344 109.18280029296875 187.61703491210938 108.07302856445312 187.62933349609375 C106.970947265625 187.64163208007812 106.670654296875 187.888916015625 106.60614013671875 188.7928466796875 C106.55392456054688 189.52169799804688 106.59921264648438 190.260498046875 106.58926391601562 190.99395751953125 C106.57698059082031 191.90093994140625 106.50670623779297 192.7943115234375 106.33025360107422 193.66665649414062 C106.15380096435547 194.53900146484375 105.87117004394531 195.3903350830078 105.43417358398438 196.2132568359375 C105.029052734375 196.97665405273438 104.53733825683594 197.67323303222656 103.94012451171875 198.2940673828125 C103.34291076660156 198.91488647460938 102.64019012451172 199.45997619628906 101.81306457519531 199.92037963867188 C101.4267578125 200.13540649414062 101.03738403320312 200.34738159179688 100.66334533691406 200.57626342773438 C100.17953491210938 200.87347412109375 99.99519348144531 201.27975463867188 100.19718933105469 201.79507446289062 C100.32391357421875 202.11688232421875 100.45523071289062 202.440185546875 100.61882019042969 202.75042724609375 C100.87457275390625 203.23583984375 101.33612060546875 203.53692626953125 101.95053100585938 203.49465942382812 C103.42585754394531 203.39329528808594 104.8624038696289 203.19496154785156 106.23194122314453 202.84811401367188 C107.60147094726562 202.50125122070312 108.90399932861328 202.00587463378906 110.11128234863281 201.3104248046875 C111.08128356933594 200.75213623046875 111.71182250976562 199.92037963867188 112.14881896972656 198.99032592773438 C112.25709533691406 198.75994873046875 112.283203125 198.48577880859375 112.89453125 198.2584228515625"></path>
<path fill="#000000" fill-opacity="1.0"  filling="0" d="M154.3388671875 201.46713256835938 C155.2374267578125 202.21978759765625 155.99853515625 202.9063720703125 156.82107543945312 203.53460693359375 C157.66357421875 204.17742919921875 158.338623046875 204.132080078125 159.34161376953125 203.46163940429688 C159.9691162109375 203.04229736328125 160.15032958984375 202.5899658203125 159.803955078125 202.0262451171875 C158.9998779296875 200.71603393554688 158.20501708984375 199.39739990234375 157.31103515625 198.13861083984375 C156.57223510742188 197.09799194335938 155.81500244140625 196.068115234375 155.05160522460938 195.0418701171875 C154.2882080078125 194.015625 153.51866149902344 192.99302673339844 152.7552490234375 191.96697998046875 C152.59552001953125 191.751953125 152.40582275390625 191.55148315429688 152.2008056640625 191.36871337890625 C151.782958984375 190.99542236328125 151.335205078125 190.96170043945312 150.72930908203125 191.298828125 C149.75778198242188 191.83834838867188 148.78665161132812 192.37863159179688 147.81809997558594 192.92276000976562 C146.84954833984375 193.46688842773438 145.8835906982422 194.01486206054688 144.92242431640625 194.56976318359375 C143.96859741210938 195.12115478515625 143.8272705078125 195.483642578125 144.21435546875 196.3031005859375 C144.52691650390625 196.963623046875 144.9285888671875 197.58489990234375 145.27957153320312 198.229248046875 C145.7138671875 199.02566528320312 146.09075927734375 199.83859252929688 146.36492919921875 200.685302734375 C146.63909912109375 201.5320281982422 146.810546875 202.41253662109375 146.833984375 203.3441162109375 C146.85549926757812 204.2081298828125 146.76870727539062 205.056396484375 146.5529022216797 205.89035034179688 C146.33709716796875 206.72430419921875 145.9922637939453 207.5439453125 145.4976806640625 208.3507080078125 C145.2664794921875 208.72781372070312 145.03073120117188 209.10333251953125 144.8179931640625 209.48660278320312 C144.54226684570312 209.98272705078125 144.5806884765625 210.4273681640625 145.010009765625 210.77685546875 C145.27801513671875 210.9957275390625 145.5506591796875 211.2122802734375 145.8463134765625 211.40277099609375 C146.30792236328125 211.69998168945312 146.8570556640625 211.73684692382812 147.37158203125 211.39813232421875 C148.6072998046875 210.58596801757812 149.7617950439453 209.70852661132812 150.78506469726562 208.73451232910156 C151.80831909179688 207.760498046875 152.70034790039062 206.68991088867188 153.4111328125 205.491455078125 C153.9825439453125 204.5291748046875 154.12384033203125 203.49465942382812 154.048583984375 202.47015380859375 C154.02862548828125 202.21746826171875 153.917236328125 201.96481323242188 154.3388671875 201.46713256835938"></path>
<path fill="#59B9C9" fill-opacity="1.0"  filling="0" d="M150.56414794921875 136.14491271972656 C150.5618896484375 137.56338500976562 150.4942626953125 138.91354370117188 150.37063598632812 140.21762084960938 C150.35833740234375 140.35891723632812 150.3468017578125 140.50021362304688 150.32684326171875 140.64154052734375 C150.3092041015625 140.885009765625 150.28463745117188 141.12844848632812 150.25927734375 141.36422729492188 C150.24774169921875 141.5370330810547 150.23468017578125 141.63072204589844 150.22161865234375 141.733642578125 C150.15866088867188 142.3311309814453 150.07958984375 142.9132843017578 150.00042724609375 143.49465942382812 C149.9013671875 144.2027587890625 149.79388427734375 144.90316772460938 149.68634033203125 145.60360717773438 C149.57113647460938 146.32012939453125 149.47207641601562 147.03591918945312 149.38836669921875 147.74322509765625 C149.33770751953125 148.19940185546875 149.28619384765625 148.64715576171875 149.242431640625 149.09490966796875 C149.21173095703125 149.43284606933594 149.18099975585938 149.7630615234375 149.15872192382812 150.09255981445312 C149.12338256835938 150.5479736328125 149.09576416015625 151.01107788085938 149.06887817382812 151.47418212890625 C148.9859619140625 153.1146240234375 148.99591064453125 154.75201416015625 149.10113525390625 156.38784790039062 C149.111083984375 156.48922729492188 149.11419677734375 156.5836944580078 149.1241455078125 156.67738342285156 C149.23321533203125 158.17959594726562 149.4290771484375 159.68716430664062 149.71783447265625 161.18478393554688 C149.74395751953125 161.2938232421875 149.76312255859375 161.4105682373047 149.76617431640625 161.528076171875 C149.785400390625 161.66094970703125 149.78848266601562 161.79379272460938 149.78387451171875 161.9197540283203 C149.77008056640625 162.28839111328125 149.426025390625 162.62631225585938 149.04891967773438 162.6124725341797 L148.742431640625 162.59713745117188 C148.41302490234375 162.57408142089844 148.08200073242188 162.52032470703125 147.7593994140625 162.46580505371094 C146.60205078125 162.27609252929688 145.45233154296875 162.06259155273438 144.30267333984375 161.833740234375 C144.20053100585938 161.81300354003906 144.09759521484375 161.79226684570312 143.99542236328125 161.770751953125 C142.68756103515625 161.5142364501953 141.37966918945312 161.2262420654297 140.08633422851562 160.93057250976562 C139.74766540527344 160.85299682617188 139.41587829589844 160.76776123046875 139.0848846435547 160.68942260742188 C138.84832763671875 160.63259887695312 138.61944580078125 160.57574462890625 138.39059448242188 160.5189208984375 C138.0833740234375 160.44825744628906 137.77542114257812 160.36993408203125 137.47592163085938 160.29159545898438 C136.56044006347656 160.05661010742188 135.64578247070312 159.82159423828125 134.73721313476562 159.562744140625 C134.39007568359375 159.46983337402344 134.03448486328125 159.36923217773438 133.68734741210938 159.27627563476562 C133.60060119628906 159.24710083007812 133.521484375 159.22561645507812 133.4346923828125 159.1964111328125 C133.2449951171875 159.146484375 133.0714111328125 159.09658813476562 132.90554809570312 159.0458984375 C132.80262756347656 159.01747131347656 132.70046997070312 158.98828125 132.59759521484375 158.9521942138672 C131.28659057617188 158.57818603515625 129.990966796875 158.18035888671875 128.69461059570312 157.75103759765625 C128.6392822265625 157.7364501953125 128.58401489257812 157.71493530273438 128.52871704101562 157.70034790039062 C128.39430236816406 157.65660095214844 128.34669494628906 157.64199829101562 128.30752563476562 157.62738037109375 C127.39897155761719 157.33709716796875 126.50503540039062 157.03909301757812 125.60337829589844 156.72500610351562 C125.31845092773438 156.6305389404297 125.0419921875 156.5276336669922 124.75706481933594 156.42547607421875 C124.44065856933594 156.3240966796875 124.1326904296875 156.21426391601562 123.82394409179688 156.1044464111328 C123.61042785644531 156.03146362304688 123.39694213867188 155.9508514404297 123.18341064453125 155.87789916992188 C122.89849853515625 155.7757568359375 122.61358642578125 155.6728515625 122.32865905761719 155.57069396972656 C121.47463989257812 155.2634735107422 120.62753295898438 154.95628356933594 119.78118896484375 154.64065551757812 C119.48860168457031 154.53848266601562 119.19598388671875 154.42869567871094 118.902587890625 154.31808471679688 C118.72825622558594 154.25973510742188 118.5546875 154.1936798095703 118.38034057617188 154.12762451171875 C118.34040832519531 154.113037109375 118.30125427246094 154.09841918945312 118.26132202148438 154.08384704589844 C118.10308837890625 154.02548217773438 117.94491577148438 153.96633911132812 117.78668212890625 153.90028381347656 C117.57318115234375 153.81967163085938 117.36734008789062 153.74668884277344 117.15310668945312 153.65762329101562 C116.07713317871094 153.2620849609375 115.00038146972656 152.85043334960938 113.93209838867188 152.4395751953125 C113.87681579589844 152.41729736328125 113.81306457519531 152.39578247070312 113.75776672363281 152.37351989746094 C112.59423828125 151.9250030517578 111.43838500976562 151.47726440429688 110.27410888671875 151.02105712890625 C109.97306823730469 150.903564453125 109.68045043945312 150.7852783203125 109.37937927246094 150.66778564453125 C109.173583984375 150.58712768554688 108.96006774902344 150.5057373046875 108.75347900390625 150.41741943359375 C108.61138916015625 150.365966796875 108.47622680664062 150.31448364257812 108.33413696289062 150.25613403320312 C108.19975280761719 150.20468139648438 108.07302856445312 150.15322875976562 107.9378662109375 150.10177612304688 C107.09075927734375 149.770751953125 106.24365234375 149.45587158203125 105.39730834960938 149.132568359375 C105.11238098144531 149.0303955078125 104.81979370117188 148.91981506347656 104.53485107421875 148.80999755859375 C104.35284423828125 148.7439422607422 104.17080688476562 148.67864990234375 103.98881530761719 148.60494995117188 C103.79141235351562 148.53965759277344 103.59329223632812 148.46592712402344 103.39512634277344 148.38528442382812 C103.181640625 148.31231689453125 102.97581481933594 148.231689453125 102.76229858398438 148.15103149414062 C102.41439819335938 148.01895141601562 102.05804443359375 147.89453125 101.732421875 147.71481323242188 C101.24012756347656 147.45294189453125 101.23860168457031 146.81011962890625 101.732421875 146.50753784179688 C102.09490966796875 146.27865600585938 102.49810791015625 146.11122131347656 102.88519287109375 145.9138641357422 C103.87552642822266 145.41043090820312 104.86183166503906 144.89913940429688 105.84083557128906 144.37326049804688 C106.81983947753906 143.8473663330078 107.79155731201172 143.306884765625 108.75271606445312 142.74510192871094 C109.38555908203125 142.37643432617188 110.01144409179688 141.99935913085938 110.63584899902344 141.6153564453125 C111.26869201660156 141.222900390625 111.8853759765625 140.82278442382812 112.50131225585938 140.39962768554688 C112.78700256347656 140.21990966796875 113.07194519042969 140.02406311035156 113.34841918945312 139.82901000976562 C114.67243957519531 138.9012451171875 115.94041442871094 137.912841796875 117.11929321289062 136.81613159179688 C117.8773193359375 136.1149444580078 118.54931640625 135.40838623046875 119.18829345703125 134.64727783203125 C120.2066650390625 133.4215850830078 120.95928955078125 132.1873779296875 121.52072143554688 130.8802490234375 C121.69119262695312 130.49166870117188 121.83712768554688 130.08843994140625 121.97613525390625 129.6852569580078 C122.106689453125 129.27435302734375 122.22882080078125 128.85581970214844 122.33631896972656 128.437255859375 C122.58438110351562 127.40428161621094 122.74490356445312 126.34214782714844 122.81863403320312 125.25082397460938 C122.87469482421875 124.37144470214844 122.89926147460938 123.49288940429688 122.91537475585938 122.60659790039062 C122.91694641113281 122.3477783203125 122.9261474609375 122.09664916992188 122.92691040039062 121.83782958984375 C122.933837890625 121.47686767578125 122.94076538085938 121.13203430175781 122.94686889648438 120.779541015625 C122.97300720214844 119.64981079101562 123.0474853515625 119.50694274902344 124.13037109375 119.25196838378906 C124.6756591796875 119.12066650390625 125.220947265625 118.98855590820312 125.76620483398438 118.86489868164062 C126.0618896484375 118.79423522949219 126.36602783203125 118.72434997558594 126.66246032714844 118.65371704101562 C127.72191619873047 118.40718841552734 128.7815704345703 118.16046142578125 129.8401641845703 117.90979766845703 C130.8987579345703 117.65913391113281 131.956298828125 117.404541015625 133.01153564453125 117.14227294921875 C133.44775390625 117.02938842773438 133.82101440429688 116.93338012695312 134.19500732421875 116.8297119140625 C134.49913024902344 116.759033203125 134.8101806640625 116.67303466796875 135.11355590820312 116.58700561523438 C135.68185424804688 116.43878173828125 136.24249267578125 116.27597045898438 136.8023681640625 116.12005615234375 C137.7516326904297 115.85281372070312 138.7008819580078 115.58554077148438 139.6585693359375 115.32595825195312 C139.96192932128906 115.23994445800781 140.2576141357422 115.146240234375 140.56173706054688 115.0986328125 C140.81900024414062 115.05256652832031 141.03021240234375 115.03181457519531 141.2030029296875 115.04330444335938 C141.532470703125 115.05868530273438 141.7398681640625 115.18617248535156 141.9671630859375 115.4864501953125 C142.048583984375 115.6016845703125 142.1300048828125 115.73300170898438 142.22064208984375 115.89581298828125 C142.24517822265625 115.9342041015625 142.2620849609375 115.973388671875 142.28668212890625 116.01177978515625 C142.44256591796875 116.289794921875 142.59844970703125 116.56011962890625 142.7628173828125 116.838134765625 C143.32962036132812 117.84268188476562 143.904052734375 118.84646606445312 144.47085571289062 119.85101318359375 C144.55224609375 119.98233032226562 144.62677001953125 120.121337890625 144.70046997070312 120.26034545898438 C145.29953002929688 121.31097412109375 145.890869140625 122.36160278320312 146.47454833984375 123.42068481445312 C146.50759887695312 123.47442626953125 146.5406494140625 123.53665161132812 146.5728759765625 123.59039306640625 C146.68728637695312 123.77548217773438 146.786376953125 123.96134948730469 146.89312744140625 124.15411376953125 C146.9422607421875 124.23934936523438 146.99139404296875 124.33154296875 147.04135131835938 124.4244384765625 C147.0736083984375 124.47053527832031 147.09893798828125 124.52505493164062 147.13119506835938 124.57882690429688 C147.26254272460938 124.81842041015625 147.40231323242188 125.06573486328125 147.53363037109375 125.30534362792969 C147.550537109375 125.34454345703125 147.5743408203125 125.37521362304688 147.59124755859375 125.41363525390625 C148.01901245117188 126.18624877929688 148.3914794921875 126.97653198242188 148.7255859375 127.78291320800781 C148.84231567382812 128.0701446533203 148.9598388671875 128.35662841796875 149.06887817382812 128.65228271484375 C149.152587890625 128.86195373535156 149.2286376953125 129.07928466796875 149.2969970703125 129.2974090576172 C149.41522216796875 129.62380981445312 149.51739501953125 129.95021057128906 149.62030029296875 130.28428649902344 C149.73089599609375 130.63449096679688 149.83456420898438 131.00006103515625 149.9298095703125 131.3579559326172 C150.19012451171875 132.33099365234375 150.31689453125 133.32325744628906 150.40365600585938 134.24563598632812 C150.4251708984375 134.45684814453125 150.44586181640625 134.65960693359375 150.45819091796875 134.85540771484375 C150.49658203125 135.34002685546875 150.5303955078125 135.75399780273438 150.56414794921875 136.14491271972656"></path>
<path fill="#F29481" fill-opacity="1.0"  filling="0" d="M134.0368194580078 84.08372497558594 C134.0118408203125 83.21856689453125 133.97171020507812 82.35417938232422 133.9252471923828 81.49017333984375 C133.8787841796875 80.62617492675781 133.82598876953125 79.76255798339844 133.77569580078125 78.89894104003906 C133.74725341796875 78.41357421875 133.748046875 77.92665100097656 133.73574829101562 77.44053649902344 C133.67315673828125 76.51431274414062 133.6180419921875 75.58810424804688 133.56716918945312 74.66179656982422 C133.51629638671875 73.73548889160156 133.46963500976562 72.80908966064453 133.4239501953125 71.88249206542969 C133.34176635742188 70.2266845703125 133.14744567871094 68.59162902832031 132.5660858154297 67.02334594726562 C132.1751708984375 65.96659851074219 131.70977783203125 64.9459228515625 130.9540557861328 64.094970703125 C130.10308837890625 63.13575744628906 129.04403686523438 62.486785888671875 127.83291625976562 62.041351318359375 C126.57183837890625 61.57746887207031 125.32000732421875 61.64274597167969 124.03976440429688 61.88853454589844 C123.04519653320312 62.07896423339844 122.112060546875 62.399993896484375 121.26881408691406 62.96986389160156 C120.50809478759766 63.484031677246094 119.90713500976562 64.100341796875 119.45228576660156 64.81026458740234 C118.99744415283203 65.52017974853516 118.68871307373047 66.32369995117188 118.512451171875 67.2122802734375 C118.22444152832031 68.66226196289062 118.11846923828125 70.12684631347656 118.21829223632812 71.60140991210938 C118.24365234375 71.98002624511719 118.13613891601562 72.2818603515625 117.90496826171875 72.56831359863281 C117.66075134277344 72.87091064453125 117.37503051757812 73.12741088867188 117.07859802246094 73.37396240234375 C116.93035888671875 73.49760437011719 116.77522277832031 73.61433410644531 116.65925598144531 73.77023315429688 C116.37893676757812 74.14656066894531 116.48031616210938 74.550537109375 116.90426635742188 74.75253295898438 C117.24525451660156 74.91531372070312 117.606201171875 74.924560546875 117.97256469726562 74.87922668457031 C118.4095458984375 74.82472229003906 118.50863647460938 74.872314453125 118.63226318359375 75.30009460449219 C118.89337158203125 76.20173645019531 119.12838745117188 77.11103820800781 119.3319091796875 78.02725219726562 C119.46015930175781 78.60403442382812 119.65985107421875 79.15544128417969 119.90176391601562 79.69383239746094 C120.00312805175781 79.91885375976562 120.15290832519531 80.09011840820312 120.35334777832031 80.23219299316406 C120.93472290039062 80.64384460449219 121.5982666015625 80.82278442382812 122.28872680664062 80.93106079101562 C122.75947570800781 81.00558471679688 123.2371826171875 81.04090881347656 123.70260620117188 81.15147399902344 C123.76866149902344 81.16683959960938 123.83622741699219 81.17835998535156 123.90151977539062 81.19680786132812 C124.41377258300781 81.3388671875 124.57504272460938 81.5308837890625 124.61421203613281 82.05465698242188 C124.65414428710938 82.57305908203125 124.69024658203125 83.09222412109375 124.72709655761719 83.61137390136719 C124.73478698730469 83.71585083007812 124.7470703125 83.81953430175781 124.75706481933594 83.92396545410156 C124.55814361572266 84.97343444824219 124.455810546875 86.8592529296875 124.81657409667969 88.29205322265625 C125.1773452758789 89.724853515625 126.001220703125 90.70463562011719 127.65472412109375 89.9420166015625 C128.49569702148438 89.55416870117188 129.3739013671875 89.01541137695312 130.2216796875 88.4276123046875 C131.0694580078125 87.83979797363281 131.8867950439453 87.20294189453125 132.60601806640625 86.61888122558594 C133.1873779296875 86.14730834960938 133.6566619873047 85.58283996582031 133.88319396972656 84.95077514648438 C133.99072265625 84.86015319824219 134.04830932617188 84.72268676757812 134.04910278320312 84.52378845214844 C134.05215454101562 84.37709045410156 134.04141235351562 84.23039245605469 134.0368194580078 84.08372497558594"></path>
<path fill="#000000" fill-opacity="1.0"  filling="0" d="M139.48037719726562 77.84140014648438 C140.58860778808594 77.71468353271484 141.67379760742188 77.49983978271484 142.74026489257812 77.21443176269531 C143.80673217773438 76.92903137207031 144.85447692871094 76.57305908203125 145.8878173828125 76.16409301757812 C146.8524169921875 75.78201293945312 147.78573608398438 75.34175109863281 148.69024658203125 74.84879302978516 C149.59475708007812 74.3558349609375 150.47047424316406 73.81017303466797 151.31988525390625 73.21728515625 C152.4396209716797 72.43546295166016 153.51904296875 71.6067886352539 154.55142211914062 70.7237777709961 C155.5838165283203 69.84076690673828 156.5691680908203 68.9034194946289 157.50076293945312 67.90425109863281 C158.03604125976562 67.32980346679688 158.5145263671875 66.71231079101562 158.89617919921875 66.02574157714844 C159.19110107421875 65.49581909179688 159.39157104492188 64.93746948242188 159.4215087890625 64.32305908203125 C159.46142578125 63.494384765625 159.1680908203125 62.7955322265625 158.61819458007812 62.19187927246094 C158.1827392578125 61.71417236328125 157.63592529296875 61.393157958984375 157.05914306640625 61.11590576171875 C156.71124267578125 60.949249267578125 156.35025024414062 60.80487060546875 156.01617431640625 60.6136474609375 C155.0078125 60.03688049316406 154.31121826171875 59.20973205566406 154.01324462890625 58.071563720703125 C153.91339111328125 57.6890869140625 153.81048583984375 57.307373046875 153.653076171875 56.941070556640625 C153.09320068359375 55.63543701171875 152.08175659179688 54.99571228027344 150.6785888671875 54.940399169921875 C149.69631958007812 54.9012451171875 148.80084228515625 55.2122802734375 147.93838500976562 55.64543151855469 C147.02444458007812 56.10472106933594 146.26104736328125 56.758270263671875 145.5291748046875 57.459442138671875 C144.54302978515625 58.404876708984375 143.6744384765625 59.44859313964844 142.83963012695312 60.524566650390625 C142.16531372070312 61.3939208984375 141.47259521484375 62.247161865234375 140.62547302246094 62.96217346191406 C139.90048217773438 63.57426452636719 139.12173461914062 64.08192443847656 138.20091247558594 64.36915588378906 C137.03585815429688 64.73165893554688 135.87078857421875 64.69325256347656 134.69882202148438 64.4451904296875 C133.73036193847656 64.23934936523438 132.78573608398438 63.95751953125 131.87796020507812 63.558135986328125 C130.5255126953125 62.96293640136719 129.15310668945312 62.4268798828125 127.70388793945312 62.10662841796875 C126.67936706542969 61.88044738769531 125.65408325195312 61.75737380981445 124.62889862060547 61.75084686279297 C123.60371398925781 61.74431610107422 122.57862091064453 61.854331970214844 121.55448913574219 62.094329833984375 C120.65594482421875 62.304779052734375 119.79501342773438 62.6434326171875 118.98785400390625 63.08198547363281 C117.80282592773438 63.72633361816406 117.29747009277344 64.79078674316406 117.33894348144531 66.1002197265625 C117.363525390625 66.8828125 117.74137878417969 67.55560302734375 118.2275390625 68.15463256835938 C118.74977111816406 68.79820251464844 119.39260864257812 69.29048156738281 120.1697998046875 69.60462951660156 C121.14517211914062 69.99934387207031 122.169677734375 70.19674682617188 123.2003173828125 70.37184143066406 C123.98370361328125 70.50471496582031 124.77471923828125 70.60762023925781 125.50816345214844 70.93710327148438 C126.62022399902344 71.43705749511719 127.5111083984375 72.17048645019531 128.03411865234375 73.29714965820312 C128.162353515625 73.57363891601562 128.3129119873047 73.84011840820312 128.457275390625 74.10971069335938 C129.27676391601562 75.64337158203125 130.5516357421875 76.64488220214844 132.1743927001953 77.22471618652344 C133.46694946289062 77.68702697753906 134.81094360351562 77.9051513671875 136.17799377441406 77.96966552734375 C137.2816162109375 78.02189636230469 138.38369750976562 77.96734619140625 139.48037719726562 77.84140014648438"></path>
<path fill="#F29481" fill-opacity="1.0"  filling="0" d="M172.39532470703125 134.4530029296875 C172.96368408203125 134.80474853515625 173.53662109375 135.14804077148438 174.0933837890625 135.51589965820312 C174.16867065429688 135.56582641601562 174.18862915039062 135.7340087890625 174.1932373046875 135.84921264648438 C174.200927734375 136.07347106933594 174.02349853515625 136.18484497070312 173.8460693359375 136.19253540039062 C173.54345703125 136.20481872558594 173.2255859375 136.20404052734375 172.93600463867188 136.12722778320312 C171.98443603515625 135.8760986328125 171.04672241210938 135.57351684570312 170.095947265625 135.31927490234375 C169.50537109375 135.16110229492188 168.957763671875 134.82623291015625 168.314208984375 134.87156677246094 C168.22967529296875 134.80242919921875 168.14984130859375 134.7263946533203 168.05999755859375 134.66648864746094 C168.04461669921875 134.65652465820312 167.94479370117188 134.7340850830078 167.94863891601562 134.74099731445312 C168.046142578125 134.946044921875 168.20208740234375 134.88462829589844 168.357177734375 134.8223876953125 C168.3909912109375 135.42605590820312 169.02227783203125 135.47059631347656 169.30877685546875 135.8384552001953 C169.49844360351562 136.08192443847656 169.74652099609375 136.32537841796875 169.5352783203125 136.6533203125 C169.39321899414062 136.87448120117188 169.11749267578125 136.95974731445312 168.87481689453125 136.87603759765625 C167.52276611328125 136.41217041015625 166.17877197265625 135.92965698242188 164.91358947753906 135.30230712890625 C163.64840698242188 134.67494201660156 162.4620361328125 133.9027099609375 161.42523193359375 132.859375 C161.03738403320312 132.46847534179688 160.736328125 131.98233032226562 160.43832397460938 131.51309204101562 C159.640380859375 130.2581787109375 158.849365234375 128.99789428710938 158.0882568359375 127.71994018554688 C157.564453125 126.84060668945312 157.6558837890625 126.63322448730469 158.62127685546875 126.18777465820312 C158.84625244140625 126.0841064453125 159.07363891601562 125.981201171875 159.30706787109375 125.90057373046875 C161.552734375 125.12872314453125 161.21710205078125 125.06034851074219 162.63253784179688 126.61785888671875 C163.23617553710938 127.28179931640625 163.89627075195312 127.82228088378906 164.6310577392578 128.23699951171875 C165.3658447265625 128.6517333984375 166.17530822753906 128.94068908691406 167.07769775390625 129.10159301757812 C168.54302978515625 129.36270141601562 169.99761962890625 129.64532470703125 171.48294067382812 129.76052856445312 C171.97369384765625 129.7981414794922 172.46368408203125 129.87802124023438 172.94677734375 129.97479248046875 C173.27163696289062 130.04006958007812 173.34075927734375 130.34803771972656 173.10882568359375 130.69287109375 C172.94830322265625 130.93246459960938 172.3385009765625 131.17208862304688 173.12261962890625 131.3925323486328 C174.01425170898438 131.64288330078125 174.29153442382812 131.86868286132812 174.14791870117188 132.18893432617188 C173.90982055664062 132.72268676757812 173.406005859375 132.49612426757812 173.010498046875 132.57830810546875 C172.88995361328125 132.60366821289062 172.767822265625 132.62130737304688 172.4437255859375 132.6781463623047 C173.10955810546875 132.9615478515625 173.63259887695312 133.15890502929688 174.12640380859375 133.41159057617188 C174.25543212890625 133.47764587402344 174.3775634765625 133.73263549804688 174.3521728515625 133.87393188476562 C174.3253173828125 134.01983642578125 174.137939453125 134.1949462890625 173.9827880859375 134.24948120117188 C173.458251953125 134.43380737304688 172.86151123046875 134.2010955810547 172.3492431640625 134.50289916992188 C172.27630615234375 134.4268798828125 172.37152099609375 134.15272521972656 172.11114501953125 134.29937744140625 C172.2071533203125 134.35008239746094 172.3016357421875 134.40155029296875 172.39532470703125 134.4530029296875"></path>
<path fill="#F29481" fill-opacity="1.0"  filling="0" d="M120.15290832519531 48.98533630371094 C121.20968627929688 48.85401916503906 121.80026245117188 48.24884033203125 122.3040771484375 47.50848388671875 C122.57901000976562 47.103736877441406 122.77178955078125 46.6114501953125 123.25717163085938 46.4002685546875 C123.40463256835938 46.336517333984375 123.64115905761719 46.33497619628906 123.77247619628906 46.41331481933594 C123.90380859375 46.49163818359375 124.0382080078125 46.713592529296875 124.02362060546875 46.857208251953125 C123.992919921875 47.157501220703125 123.92071533203125 47.4808349609375 123.76866149902344 47.73657989501953 C123.1653823852539 48.751102447509766 122.49414825439453 49.682106018066406 121.66010284423828 50.40959548950195 C120.8260498046875 51.137081146240234 119.82919311523438 51.661048889160156 118.57466125488281 51.86149597167969 C117.90341186523438 51.969024658203125 117.24601745605469 52.167938232421875 116.57325744628906 52.261627197265625 C114.83448791503906 52.50433349609375 113.59417724609375 53.390594482421875 112.868408203125 54.99725341796875 C112.61343383789062 55.561737060546875 112.35462951660156 56.12696838378906 112.05282592773438 56.666107177734375 C111.94219970703125 56.8642578125 111.71719360351562 57.1038818359375 111.51828002929688 57.13075256347656 C110.58822631835938 57.255157470703125 109.67430114746094 57.12384033203125 108.83486938476562 56.68836975097656 C108.60757446289062 56.57011413574219 108.56378173828125 56.262908935546875 108.66668701171875 56.02021789550781 C109.12519073486328 54.936187744140625 109.57734680175781 53.84735870361328 110.10073852539062 52.79683303833008 C110.6241226196289 51.746307373046875 111.21874237060547 50.73408508300781 111.96217346191406 49.80326843261719 C112.8760986328125 48.65895080566406 114.11566162109375 48.177398681640625 115.56947326660156 48.23960876464844 C115.75457763671875 48.24729919433594 115.9434814453125 48.26112365722656 116.1224365234375 48.30564880371094 C117.358154296875 48.61286926269531 118.28973388671875 48.14361572265625 119.07232666015625 47.211265563964844 C119.34803771972656 46.883331298828125 119.68746948242188 46.601470947265625 120.02847290039062 46.33882141113281 C120.22201538085938 46.18982696533203 120.50003051757812 46.126853942871094 120.69509887695312 46.343421936035156 C120.80722045898438 46.46784210205078 120.87713623046875 46.668296813964844 120.88710021972656 46.83879089355469 C120.90863037109375 47.222015380859375 120.71278381347656 47.54688262939453 120.55303955078125 47.88555908203125 C120.40249633789062 48.20429992675781 120.03157043457031 48.43315124511719 120.15290832519531 48.98533630371094"></path>
<path fill="#FF6D66" fill-opacity="1.0"  filling="0" d="M127.19700622558594 88.91827392578125 C127.74227905273438 88.84072875976562 127.977294921875 88.44441223144531 128.28756713867188 88.15335083007812 C128.94496154785156 87.53741455078125 129.60140991210938 86.92032623291016 130.25747680664062 86.3028564453125 C130.91354370117188 85.68537902832031 131.56922912597656 85.06752014160156 132.22509765625 84.45004272460938 C133.432373046875 83.31417846679688 134.8524169921875 82.85029602050781 136.5028533935547 83.05152893066406 C137.11878967285156 83.12678527832031 137.7431640625 83.17900085449219 138.36294555664062 83.17131042480469 C139.79066467285156 83.15364837646484 141.2977294921875 83.6514892578125 142.7111053466797 84.44447326660156 C144.12448120117188 85.2374496459961 145.44415283203125 86.32556915283203 146.4970703125 87.48846435546875 C147.5500030517578 88.65135955810547 148.336181640625 89.8890380859375 148.68255615234375 90.98112487792969 C149.15335083007812 92.46490478515625 149.58804321289062 93.95481872558594 149.72781372070312 95.51078796386719 C149.8115234375 96.43928527832031 149.86529541015625 97.37088012695312 149.9136962890625 98.30169677734375 C149.9781951904297 99.54853820800781 150.1986083984375 100.72779846191406 150.61004638671875 101.83766174316406 C151.02151489257812 102.94751739501953 151.62400817871094 103.98796844482422 152.45269775390625 104.95718383789062 C153.284423828125 105.92985534667969 154.0316925048828 106.95801544189453 154.67373657226562 108.05049896240234 C155.3157958984375 109.14297485351562 155.85263061523438 110.2997817993164 156.26348876953125 111.52973937988281 C156.60946655273438 112.5642318725586 157.0355224609375 113.56436157226562 157.51361083984375 114.54010009765625 C157.99169921875 115.51583862304688 158.52182006835938 116.46720123291016 159.075927734375 117.40415954589844 C159.766357421875 118.57113647460938 160.25921630859375 119.80876922607422 160.6783447265625 121.07308959960938 C161.09747314453125 122.33740997314453 161.44287109375 123.62841796875 161.83837890625 124.90214538574219 C161.9881591796875 125.38369750976562 161.84149169921875 125.77383422851562 161.442138671875 126.03878784179688 C160.44830322265625 126.69773864746094 159.3585205078125 127.13780212402344 158.18890380859375 127.37666320800781 C157.6290283203125 127.49105834960938 157.2135009765625 127.26296997070312 156.941650390625 126.7845458984375 C156.542236328125 126.08256530761719 156.12066650390625 125.38827514648438 155.78271484375 124.65716552734375 C155.26507568359375 123.53742218017578 154.63607788085938 122.50541687011719 153.9048614501953 121.55155944824219 C153.1736297607422 120.59770202636719 152.3401641845703 119.72199249267578 151.41357421875 118.91482543945312 C150.42669677734375 118.05465698242188 149.53814697265625 117.10232543945312 148.75628662109375 116.04866027832031 C147.9376220703125 114.94580078125 147.25177001953125 113.77767944335938 146.73263549804688 112.4981689453125 C146.14625549316406 111.05317687988281 145.48558044433594 109.64793395996094 144.73562622070312 108.29212951660156 C143.9856719970703 106.93632507324219 143.1464385986328 105.62995910644531 142.20294189453125 104.38272094726562 C141.98101806640625 104.08935546875 141.82894897460938 103.73068237304688 141.37042236328125 103.56402587890625 C140.8758544921875 104.35969543457031 140.71304321289062 105.26516723632812 140.610107421875 106.17755126953125 C140.4580535888672 107.52845001220703 140.4678497314453 108.86092376708984 140.63238525390625 110.1745834350586 C140.79693603515625 111.48825073242188 141.11622619628906 112.78309631347656 141.58316040039062 114.05874633789062 C141.71066284179688 114.40740966796875 141.87347412109375 114.74534606933594 141.97409057617188 115.10093688964844 C142.0462646484375 115.35591125488281 141.93569946289062 115.62088012695312 141.70144653320312 115.73300170898438 C141.311279296875 115.91963195800781 140.8973388671875 116.06015014648438 140.4857177734375 116.1953125 C138.94970703125 116.69912719726562 137.39451599121094 117.13094329833984 135.83047485351562 117.52944946289062 C134.26644897460938 117.92794799804688 132.69357299804688 118.29313659667969 131.1222381591797 118.6636962890625 C130.0040283203125 118.927490234375 128.88487243652344 119.18688201904297 127.76522827148438 119.44416809082031 C126.64558410644531 119.70144653320312 125.52545166015625 119.95661926269531 124.40531921386719 120.21197509765625 C124.104248046875 120.28031921386719 123.79399108886719 120.3240966796875 123.48602294921875 120.347900390625 C123.07437133789062 120.37937927246094 122.74797058105469 120.18356323242188 122.56672668457031 119.83026123046875 C121.8962631225586 118.52466583251953 121.20455169677734 117.22888946533203 120.54728698730469 115.9184799194336 C119.89002227783203 114.60807800292969 119.26720428466797 113.28305053710938 118.73452758789062 111.9189682006836 C118.20184326171875 110.55488586425781 117.75930786132812 109.15174865722656 117.46260070800781 107.68511962890625 C117.27481842041016 106.75814056396484 117.14463806152344 105.83269500732422 117.09088134765625 104.90715789794922 C117.03712463378906 103.98162841796875 117.05978393554688 103.05599975585938 117.17767333984375 102.128662109375 C117.35354614257812 100.74664306640625 117.33204650878906 99.39726257324219 117.19178771972656 98.0550765991211 C117.05152893066406 96.71289825439453 116.79251861572266 95.37792205810547 116.49337768554688 94.02471923828125 C116.17619323730469 92.58817291259766 115.60307312011719 91.36358642578125 114.85629272460938 90.26631164550781 C114.10951232910156 89.16902160644531 113.1890640258789 88.19904327392578 112.17721557617188 87.27169799804688 C111.374267578125 86.53594207763672 110.59781646728516 85.77427673339844 109.8260726928711 85.00829315185547 C109.0543212890625 84.2423095703125 108.28728485107422 83.47200012207031 107.50315856933594 82.71896362304688 C106.60870361328125 81.85958099365234 105.85359191894531 80.93891906738281 105.2354965209961 79.95619201660156 C104.61740112304688 78.97346496582031 104.13632202148438 77.92867279052734 103.7899169921875 76.82101440429688 C103.44351959228516 75.71336364746094 103.23179626464844 74.5428466796875 103.15243530273438 73.30868530273438 C103.1048583984375 72.56756591796875 102.96890258789062 71.82951354980469 102.84602355957031 71.09527587890625 C102.63482666015625 69.8346176147461 102.58912658691406 68.59333801269531 102.73312377929688 67.37731170654297 C102.87712097167969 66.1612777709961 103.21080780029297 64.97048950195312 103.75839233398438 63.81080627441406 C104.30252075195312 62.659202575683594 104.86758422851562 61.51757049560547 105.43177795410156 60.375648498535156 C105.9959716796875 59.233726501464844 106.5593032836914 58.091514587402344 107.0999755859375 56.938751220703125 C107.53312683105469 56.015625 108.14523315429688 55.61930847167969 109.15591430664062 55.769866943359375 C110.07675170898438 55.90655517578125 111.00985717773438 55.96722412109375 111.93069458007812 56.102386474609375 C112.66107177734375 56.20991516113281 112.94522094726562 56.493316650390625 112.89913940429688 57.21600341796875 C112.82081604003906 58.454010009765625 112.66642761230469 59.68818664550781 112.509765625 60.92005920410156 C112.42375183105469 61.59669494628906 112.30316162109375 62.2740478515625 112.13345336914062 62.934539794921875 C111.85121154785156 64.0362319946289 111.73197937011719 65.14579772949219 111.69741821289062 66.2594985961914 C111.66285705566406 67.37319946289062 111.71296691894531 68.49102020263672 111.7694091796875 69.60922241210938 C111.8377685546875 70.9593505859375 112.33465576171875 72.16053771972656 113.18869018554688 73.18887329101562 C113.82688903808594 73.95648193359375 114.431884765625 74.74406433105469 114.99156188964844 75.56226348876953 C115.55123901367188 76.3804702758789 116.06561279296875 77.22930145263672 116.52256774902344 78.11941528320312 C116.984130859375 79.01799011230469 117.69912719726562 79.72991943359375 118.48788452148438 80.3397216796875 C119.37223815917969 81.02400207519531 120.2466049194336 81.7259521484375 121.15179443359375 82.38192749023438 C122.05697631835938 83.03789520263672 122.99298095703125 83.64788055419922 124.0006103515625 84.14822387695312 C125.015869140625 84.65281677246094 125.67021179199219 85.40312194824219 126.06803894042969 86.42918395996094 C126.3145751953125 87.06585693359375 126.5595703125 87.70327758789062 126.82681274414062 88.33074951171875 C126.92282104492188 88.54731750488281 127.08180236816406 88.73779296875 127.19700622558594 88.91827392578125"></path></svg>