<svg xmlns="http://www.w3.org/2000/svg" viewBox="0.0 0.0 256.0 256.0" height="256.0px" width="256.0px"><path fill="#B0B0B0" fill-opacity="1.0"  filling="0" d="M123.46610260009766 131.82015991210938 C122.72959899902344 131.5060577392578 121.97183990478516 131.01095581054688 121.51820373535156 130.33108520507812 C121.0645751953125 129.65121459960938 120.91506958007812 128.78656005859375 121.39507293701172 127.73336791992188 C121.65568542480469 127.16250610351562 122.14527893066406 126.58805084228516 122.94963073730469 126.3073501586914 C123.75398254394531 126.02664184570312 124.87309265136719 126.0396957397461 126.39270782470703 126.64384460449219 C127.68614959716797 127.15545654296875 128.84909057617188 127.65303039550781 129.98440551757812 128.16015625 C131.11972045898438 128.6672821044922 132.22738647460938 129.18397521972656 133.41030883789062 129.73382568359375 C134.5932159423828 130.28367614746094 135.85134887695312 130.86669921875 137.28759765625 131.50650024414062 C138.7238311767578 132.14630126953125 140.33816528320312 132.84288024902344 142.23345947265625 133.61984252929688 C143.1408233642578 133.9920654296875 144.42050170898438 134.51358032226562 145.9192352294922 135.1172332763672 C147.41798400878906 135.72088623046875 149.13580322265625 136.40670776367188 150.91944885253906 137.10757446289062 C152.70309448242188 137.8084259033203 154.55258178710938 138.52432250976562 156.31466674804688 139.18812561035156 C158.07675170898438 139.8519287109375 159.75143432617188 140.46365356445312 161.18548583984375 140.95616149902344 C162.61953735351562 141.4486846923828 163.81295776367188 141.82199096679688 164.61248779296875 142.00897216796875 C164.8684844970703 142.77159118652344 164.63449096679688 143.8013458251953 164.4000701904297 144.83116149902344 C164.16563415527344 145.86099243164062 163.93075561523438 146.890869140625 164.18496704101562 147.65374755859375 C163.32244873046875 147.4066619873047 162.19300842285156 147.0279541015625 160.8917694091797 146.56411743164062 C159.5905303955078 146.10028076171875 158.11749267578125 145.55133056640625 156.5677490234375 144.96377563476562 C155.01800537109375 144.37620544433594 153.39157104492188 143.75003051757812 151.78353881835938 143.13174438476562 C150.17550659179688 142.51345825195312 148.58590698242188 141.90306091308594 147.10980224609375 141.34707641601562 C145.6337127685547 140.79107666015625 144.27113342285156 140.28948974609375 143.1171875 139.8887939453125 C141.86740112304688 139.45501708984375 140.49700927734375 138.94236755371094 139.0711669921875 138.38565063476562 C137.64532470703125 137.8289337158203 136.16400146484375 137.22817993164062 134.6923370361328 136.61819458007812 C133.22067260742188 136.00820922851562 131.75865173339844 135.38902282714844 130.3714141845703 134.79544067382812 C128.98416137695312 134.20187377929688 127.67169189453125 133.6339111328125 126.49909973144531 133.1264190673828 C125.32650756835938 132.61892700195312 124.29380798339844 132.17190551757812 123.46610260009766 131.82015991210938"></path>
<path fill="#B0B0B0" fill-opacity="1.0"  filling="0" d="M121.90298461914062 170.47869873046875 C123.08191680908203 170.73521423339844 124.26893615722656 171.12100219726562 125.44137573242188 171.62326049804688 C126.61382293701172 172.12551879882812 127.77169799804688 172.74423217773438 128.892333984375 173.4666290283203 C130.01296997070312 174.18902587890625 131.09637451171875 175.01507568359375 132.119873046875 175.9320068359375 C133.14337158203125 176.84893798828125 134.10696411132812 177.8567352294922 134.98800659179688 178.94261169433594 C135.86904907226562 180.02847290039062 136.66751098632812 181.19241333007812 137.3607635498047 182.421630859375 C138.14224243164062 183.80726623535156 138.6111297607422 185.47235107421875 138.8764190673828 187.2036895751953 C139.14170837402344 188.93502807617188 139.2034149169922 190.7326202392578 139.17054748535156 192.38328552246094 C139.1376953125 194.03395080566406 139.01025390625 195.53768920898438 138.89727783203125 196.68133544921875 C140.86337280273438 196.6900634765625 141.9093780517578 196.5426025390625 143.87648010253906 196.31936645507812 C144.03033447265625 195.00428771972656 144.16842651367188 193.57052612304688 144.2277374267578 192.06661987304688 C144.2870635986328 190.56271362304688 144.2676239013672 188.98866271972656 144.10643005371094 187.3930206298828 C143.94525146484375 185.79736328125 143.642333984375 184.18011474609375 143.13467407226562 182.58981323242188 C142.62701416015625 180.99951171875 141.91464233398438 179.4361572265625 140.93453979492188 177.94827270507812 C140.10704040527344 176.6917266845703 139.2229766845703 175.49749755859375 138.28872680664062 174.3783721923828 C137.35446166992188 173.25924682617188 136.37001037597656 172.21522521972656 135.34170532226562 171.25909423828125 C134.31341552734375 170.30296325683594 133.24127197265625 169.43472290039062 132.13168334960938 168.66714477539062 C131.02207946777344 167.89956665039062 129.875 167.232666015625 128.6968231201172 166.67921447753906 C127.51863861083984 166.12576293945312 126.30935668945312 165.68576049804688 125.07532501220703 165.37200927734375 C125.07532501220703 165.37200927734375 124.09024047851562 165.10220336914062 123.01094055175781 165.1697235107422 C121.931640625 165.2372589111328 120.75814056396484 165.6421356201172 120.38130950927734 166.99151611328125 C119.56978607177734 169.89556884765625 121.90298461914062 170.47869873046875 121.90298461914062 170.47869873046875"></path>
<path fill="#0D1D33" fill-opacity="1.0"  filling="0" d="M151.2149658203125 198.8983154296875 C151.21957397460938 199.82913208007812 150.84619140625 200.67391967773438 150.23890686035156 201.28704833984375 C149.63160705566406 201.900146484375 148.7904052734375 202.28158569335938 147.8593292236328 202.28567504882812 L144.2645721435547 202.3778533935547 L140.66981506347656 202.47003173828125 C139.73873901367188 202.47462463378906 138.89407348632812 202.10137939453125 138.2810821533203 201.49420166015625 C137.6680908203125 200.88702392578125 137.2867889404297 200.0459442138672 137.28244018554688 199.1148681640625 C137.27783203125 198.1835479736328 137.6510772705078 197.3387451171875 138.25823974609375 196.72581481933594 C138.86541748046875 196.11288452148438 139.7064971923828 195.73182678222656 140.6375732421875 195.72799682617188 L144.23257446289062 195.6350860595703 L147.8275909423828 195.54217529296875 C148.7589111328125 195.538330078125 149.60345458984375 195.91207885742188 150.21632385253906 196.51943969726562 C150.8291778564453 197.1267852783203 151.21035766601562 197.96774291992188 151.2149658203125 198.8983154296875"></path>
<path fill="#B0B0B0" fill-opacity="1.0"  filling="0" d="M225.3034210205078 117.7703857421875 C225.40121459960938 117.9757080078125 225.31365966796875 118.221435546875 225.10885620117188 118.32025146484375 L220.6799774169922 120.38727569580078 L216.25111389160156 122.45429992675781 L211.8222198486328 124.52132415771484 L207.3933563232422 126.58834838867188 L202.9644775390625 128.65536499023438 L198.5355987548828 130.72239685058594 L194.10671997070312 132.7894287109375 L189.67784118652344 134.8564453125 L185.24896240234375 136.9234619140625 L180.82008361816406 138.99049377441406 L176.39120483398438 141.05751037597656 L171.9623260498047 143.12454223632812 L167.533447265625 145.19155883789062 C167.32864379882812 145.28884887695312 167.08236694335938 145.20330810546875 166.98406982421875 144.99697875976562 C166.88577270507812 144.79116821289062 166.9733123779297 144.54541015625 167.17759704589844 144.44659423828125 L171.60647583007812 142.3796844482422 L176.0353546142578 140.3127899169922 L180.4642333984375 138.24588012695312 L184.89312744140625 136.17898559570312 L189.32199096679688 134.11207580566406 L193.75086975097656 132.045166015625 L198.17974853515625 129.978271484375 L202.608642578125 127.91136169433594 L207.03750610351562 125.8444595336914 L211.46640014648438 123.77755737304688 L215.895263671875 121.71064758300781 L220.3241424560547 119.64374542236328 L224.75302124023438 117.57684326171875 C224.95834350585938 117.47750854492188 225.20462036132812 117.56402587890625 225.3034210205078 117.7703857421875"></path>
<path fill="#0D1D33" fill-opacity="1.0"  filling="0" d="M170.7104034423828 143.28488159179688 C170.99713134765625 143.9207763671875 170.7139892578125 144.67034912109375 170.07757568359375 144.95758056640625 L166.39988708496094 146.5698699951172 L162.72218322753906 148.18215942382812 L159.0444793701172 149.79443359375 C158.40756225585938 150.08218383789062 157.65798950195312 149.79901123046875 157.37127685546875 149.16162109375 C157.08352661132812 148.52520751953125 157.36767578125 147.776123046875 158.00408935546875 147.48941040039062 L161.68179321289062 145.8767852783203 L165.3594970703125 144.26416015625 L169.0371856689453 142.65151977539062 C169.67410278320312 142.36428833007812 170.42266845703125 142.64743041992188 170.7104034423828 143.28488159179688"></path>
<path fill="#0D1D33" fill-opacity="1.0"  filling="0" d="M166.84786987304688 139.35218811035156 C168.25946044921875 138.64511108398438 169.97569274902344 139.21600341796875 170.68377685546875 140.6270751953125 L172.8080596923828 144.86846923828125 C173.51461791992188 146.28109741210938 172.94375610351562 147.997314453125 171.5326690673828 148.703369140625 L169.9710693359375 145.5863037109375 L168.40948486328125 142.46925354003906 L166.84786987304688 139.35218811035156"></path>
<path fill="#D9A570" fill-opacity="1.0"  filling="0" d="M160.01010131835938 147.42645263671875 C159.4625244140625 146.4618377685547 159.35781860351562 145.36654663085938 159.63116455078125 144.37550354003906 C159.90451049804688 143.38446044921875 160.555908203125 142.4976806640625 161.5205078125 141.95010375976562 C162.48538208007812 141.40225219726562 163.5809326171875 141.2974090576172 164.5720977783203 141.57073974609375 C165.56326293945312 141.84408569335938 166.45004272460938 142.49560546875 166.99737548828125 143.46046447753906 L167.56362915039062 144.4588623046875 C168.11122131347656 145.4232177734375 167.93280029296875 146.01931762695312 167.37619018554688 146.51123046875 C166.819580078125 147.0031280517578 165.88479614257812 147.39083862304688 164.919677734375 147.93841552734375 L165.109130859375 148.27175903320312 C164.14425659179688 148.81907653808594 163.2849884033203 149.33950805664062 162.5299835205078 149.48204040527344 C161.77496337890625 149.62457275390625 161.1242218017578 149.38917541503906 160.57638549804688 148.42483520507812 L160.01010131835938 147.42645263671875"></path>
<path fill="#FFC489" fill-opacity="1.0"  filling="0" d="M159.89645385742188 147.2257080078125 C159.62356567382812 146.74343872070312 159.7919921875 146.13006591796875 160.27378845214844 145.85562133789062 C160.75660705566406 145.58168029785156 161.36947631835938 145.75167846679688 161.64288330078125 146.23397827148438 L163.31967163085938 149.1856689453125 C163.59307861328125 149.66900634765625 163.4246368408203 150.28182983398438 162.94183349609375 150.5557861328125 C162.45901489257812 150.82916259765625 161.84613037109375 150.65972900390625 161.57273864746094 150.17843627929688 L159.89645385742188 147.2257080078125"></path>
<path fill="#EDB47B" fill-opacity="1.0"  filling="0" d="M162.55987548828125 144.6841583251953 C161.89324951171875 143.51016235351562 162.18917846679688 141.6326141357422 163.54342651367188 141.3162078857422 C164.53082275390625 141.0855712890625 165.5101318359375 141.30918884277344 166.376953125 141.8269500732422 C167.2437744140625 142.34471130371094 167.99807739257812 143.1566162109375 168.53543090820312 144.1025390625 C169.20205688476562 145.27706909179688 167.16635131835938 144.8797607421875 165.9569854736328 145.56683349609375 C164.7466278076172 146.25341796875 163.22598266601562 145.8582000732422 162.55987548828125 144.6841583251953"></path>
<path fill="#FFC489" fill-opacity="1.0"  filling="0" d="M165.1367645263672 144.25100708007812 C164.8633575439453 143.76870727539062 165.0318145751953 143.15585327148438 165.51461791992188 142.8824462890625 C165.99642944335938 142.60800170898438 166.60980224609375 142.7769775390625 166.88372802734375 143.25978088378906 L168.5589599609375 146.2130126953125 C168.83340454101562 146.69476318359375 168.66494750976562 147.30816650390625 168.18162536621094 147.58209228515625 C167.69984436035156 147.85498046875 167.0864715576172 147.6865234375 166.81356811523438 147.20477294921875 L165.1367645263672 144.25100708007812"></path>
<path fill="#FFC489" fill-opacity="1.0"  filling="0" d="M161.64288330078125 146.2344970703125 C161.36895751953125 145.75218200683594 161.5379180908203 145.13832092285156 162.02073669433594 144.86541748046875 C162.50201416015625 144.59149169921875 163.11538696289062 144.75994873046875 163.38931274414062 145.2422637939453 L165.06610107421875 148.1944580078125 C165.34002685546875 148.67724609375 165.17056274414062 149.29061889648438 164.68824768066406 149.56451416015625 C164.20645141601562 149.83847045898438 163.59259033203125 149.66949462890625 163.3191680908203 149.18618774414062 L161.64288330078125 146.2344970703125"></path>
<path fill="#FFC489" fill-opacity="1.0"  filling="0" d="M163.38983154296875 145.2427520751953 C163.11538696289062 144.76043701171875 163.28536987304688 144.14706420898438 163.7681884765625 143.87367248535156 C164.24998474121094 143.60076904296875 164.8633575439453 143.76870727539062 165.1367645263672 144.25100708007812 L166.8130645751953 147.2042236328125 C167.0864715576172 147.68603515625 166.9180145263672 148.29940795898438 166.43572998046875 148.572265625 C165.95339965820312 148.84619140625 165.34054565429688 148.67724609375 165.06661987304688 148.1944580078125 L163.38983154296875 145.2427520751953"></path>
<path fill="#EDB47B" fill-opacity="1.0"  filling="0" d="M164.15423583984375 146.58880615234375 C163.9166717529297 146.17050170898438 164.06362915039062 145.63804626464844 164.48243713378906 145.4014892578125 L167.34707641601562 143.77587890625 C167.765380859375 143.53778076171875 168.2968292236328 143.6837158203125 168.534912109375 144.1025390625 C168.77297973632812 144.52236938476562 168.62603759765625 145.0538330078125 168.2072296142578 145.29087829589844 L165.34207153320312 146.9169921875 C164.92428588867188 147.15557861328125 164.39129638671875 147.00811767578125 164.15423583984375 146.58880615234375"></path>
<path fill="#C7C7C7" fill-opacity="1.0"  filling="0" d="M124.37030792236328 164.039794921875 C124.37030792236328 165.55718994140625 124.06600952148438 166.97879028320312 123.53514099121094 168.19984436035156 C123.0042724609375 169.42091369628906 122.24683380126953 170.4414520263672 121.3405532836914 171.15670776367188 C120.43428039550781 171.87197875976562 119.37915802001953 172.281982421875 118.2529296875 172.281982421875 L114.29005432128906 172.281982421875 L110.3271713256836 172.281982421875 C109.20094299316406 172.281982421875 108.14570617675781 171.87197875976562 107.2392807006836 171.15672302246094 C106.33284759521484 170.4414520263672 105.5752182006836 169.42091369628906 105.044189453125 168.19985961914062 C104.51316833496094 166.97879028320312 104.20875549316406 165.55718994140625 104.20875549316406 164.039794921875 L103.70875549316406 159.29283142089844 L103.20875549316406 154.54586791992188 L102.70875549316406 149.79888916015625 L102.20875549316406 145.05191040039062 L101.70874786376953 140.30494689941406 L101.208740234375 135.5579833984375 L100.708740234375 130.81100463867188 C100.708740234375 129.2937774658203 101.11868286132812 128.03778076171875 101.8338851928711 127.03744506835938 C102.54908752441406 126.037109375 103.56956481933594 125.29243469238281 104.7906265258789 124.79784393310547 C106.01168823242188 124.30325317382812 107.433349609375 124.05874633789062 108.95091247558594 124.05874633789062 L112.51033782958984 124.05874633789062 L116.06976318359375 124.05874633789062 L119.62918853759766 124.05874633789062 C121.1465835571289 124.05874633789062 122.56818389892578 124.46880340576172 123.78924560546875 125.18412780761719 C125.01030731201172 125.89944458007812 126.03083801269531 126.92003631591797 126.74610137939453 128.14109802246094 C127.46136474609375 129.36216735839844 127.8713607788086 130.78370666503906 127.8713607788086 132.30093383789062 L127.3712158203125 136.83505249023438 L126.87106323242188 141.3691864013672 L126.37091064453125 145.9033203125 L125.87075805664062 150.43743896484375 L125.37061309814453 154.9715576171875 L124.87045288085938 159.50567626953125 L124.37030792236328 164.039794921875"></path>
<path fill="#EDB47B" fill-opacity="1.0"  filling="0" d="M117.8545913696289 124.87127685546875 C117.8545913696289 125.85612487792969 117.45561218261719 126.74752807617188 116.81049346923828 127.39271545410156 C116.16537475585938 128.03790283203125 115.27410888671875 128.43687438964844 114.28954315185547 128.43687438964844 C113.30496215820312 128.43687438964844 112.41356658935547 128.03790283203125 111.76831817626953 127.39271545410156 C111.1230697631836 126.74752807617188 110.72396850585938 125.85612487792969 110.72396850585938 124.87127685546875 L110.72396850585938 121.45470428466797 L110.72396850585938 118.03813171386719 L110.72396850585938 114.62155151367188 C110.72396850585938 113.63673400878906 111.1230697631836 112.74534606933594 111.76831817626953 112.10017395019531 C112.41356658935547 111.45498657226562 113.30496215820312 111.05601501464844 114.28954315185547 111.05601501464844 C115.27410888671875 111.05601501464844 116.16537475585938 111.45498657226562 116.81049346923828 112.10017395019531 C117.45561218261719 112.74534606933594 117.8545913696289 113.63673400878906 117.8545913696289 114.62155151367188 L117.85459899902344 118.03813171386719 L117.85459899902344 121.45470428466797 L117.8545913696289 124.87127685546875"></path>
<path fill="#FFC489" fill-opacity="1.0"  filling="0" d="M137.28192138671875 106.95541381835938 C137.28192138671875 108.64695739746094 137.0076904296875 110.2744369506836 136.50128173828125 111.79581451416016 C135.99485778808594 113.31719970703125 135.25625610351562 114.73248291015625 134.32748413085938 115.9996337890625 C133.3987274169922 117.26678466796875 132.27981567382812 118.38580322265625 131.01278686523438 119.31464385986328 C129.74575805664062 120.24348449707031 128.3306121826172 120.9821548461914 126.80939483642578 121.48860931396484 C125.28817749023438 121.99507141113281 123.66088104248047 122.26931762695312 121.96954345703125 122.26931762695312 C120.27799987792969 122.26931762695312 118.6505355834961 121.99507141113281 117.12918090820312 121.48860931396484 C115.60782623291016 120.98214721679688 114.19258117675781 120.24348449707031 112.92548370361328 119.31464385986328 C111.65837860107422 118.38580322265625 110.53942108154297 117.26678466796875 109.61062622070312 115.9996337890625 C108.68183135986328 114.73248291015625 107.94320678710938 113.31719970703125 107.43678283691406 111.79581451416016 C106.93035888671875 110.27442932128906 106.6561279296875 108.64695739746094 106.6561279296875 106.95541381835938 L106.6561279296875 103.04117584228516 L106.6561279296875 99.12693786621094 L106.6561279296875 95.21269226074219 C106.6561279296875 93.52124786376953 106.93035888671875 91.89384460449219 107.43678283691406 90.37252044677734 C107.94320678710938 88.8511962890625 108.68183135986328 87.43595886230469 109.61062622070312 86.1688461303711 C110.53942108154297 84.90172576904297 111.65837860107422 83.7827377319336 112.92548370361328 82.8539047241211 C114.19258117675781 81.92507934570312 115.60782623291016 81.18641662597656 117.12918090820312 80.67996215820312 C118.65052795410156 80.17350769042969 120.27799987792969 79.89926147460938 121.96954345703125 79.89926147460938 C123.66088104248047 79.89926147460938 125.28817749023438 80.17350769042969 126.80940246582031 80.67996215820312 C128.33062744140625 81.18641662597656 129.7457733154297 81.92507934570312 131.01278686523438 82.8539047241211 C132.27981567382812 83.78273010253906 133.3987274169922 84.90171813964844 134.32748413085938 86.16883850097656 C135.25625610351562 87.43595886230469 135.99485778808594 88.8511962890625 136.50128173828125 90.37251281738281 C137.0076904296875 91.89383697509766 137.28192138671875 93.521240234375 137.28192138671875 95.21269226074219 L137.28192138671875 99.12693786621094 L137.28192138671875 103.04117584228516 L137.28192138671875 106.95541381835938"></path>
<path fill="#26180A" fill-opacity="1.0"  filling="0" d="M121.09913635253906 100.7591552734375 C121.09913635253906 101.60855102539062 120.41203308105469 102.29618835449219 119.56262969970703 102.29618835449219 C118.7137222290039 102.29618835449219 118.02509307861328 101.60855102539062 118.02509307861328 100.7591552734375 L118.02509307861328 98.78746032714844 C118.02509307861328 97.93905639648438 118.7137222290039 97.25094604492188 119.56262969970703 97.25094604492188 C120.41152954101562 97.25094604492188 121.09913635253906 97.93905639648438 121.09913635253906 98.78746032714844 L121.09913635253906 100.7591552734375"></path>
<path fill="#26180A" fill-opacity="1.0"  filling="0" d="M134.38656616210938 100.7591552734375 C134.38656616210938 101.60855102539062 133.69842529296875 102.29618835449219 132.84902954101562 102.29618835449219 C132.00064086914062 102.29618835449219 131.31251525878906 101.60855102539062 131.31251525878906 100.7591552734375 L131.31251525878906 98.78746032714844 C131.31251525878906 97.93905639648438 132.00064086914062 97.25094604492188 132.84902954101562 97.25094604492188 C133.69842529296875 97.25094604492188 134.38656616210938 97.93905639648438 134.38656616210938 98.78746032714844 L134.38656616210938 100.7591552734375"></path>
<path fill="#ED997B" fill-opacity="1.0"  filling="0" d="M128.89996337890625 108.33831787109375 C128.89996337890625 109.18258666992188 128.21490478515625 109.8681640625 127.36959838867188 109.8681640625 C126.52531433105469 109.8681640625 125.83973693847656 109.18258666992188 125.83973693847656 108.33831787109375 L125.83973693847656 106.15359497070312 C125.83973693847656 105.31034851074219 126.52479553222656 104.62478637695312 127.36959838867188 104.62478637695312 C128.21438598632812 104.62478637695312 128.89996337890625 105.31034851074219 128.89996337890625 106.15359497070312 L128.89996337890625 108.33831787109375"></path>
<path fill="#FFFFFF" fill-opacity="1.0"  filling="0" d="M126.67430877685547 115.68447875976562 C126.36198425292969 116.64114379882812 125.6912612915039 117.38059997558594 124.85932159423828 117.80281066894531 C124.02738952636719 118.22502136230469 123.03424072265625 118.3299789428711 122.07705688476562 118.01765441894531 C121.1203842163086 117.70507049560547 120.38079833984375 117.03446960449219 119.95852661132812 116.20266723632812 C119.5362548828125 115.37085723876953 119.43130493164062 114.37783813476562 119.74388122558594 113.42041015625 L123.20909118652344 114.55244445800781 L126.67430877685547 115.68447875976562"></path>
<path fill="#523416" fill-opacity="1.0"  filling="0" d="M110.72447204589844 102.22296142578125 C110.72447204589844 102.84249877929688 110.22220611572266 103.34425354003906 109.60269165039062 103.34425354003906 C108.982666015625 103.34425354003906 108.48089599609375 102.84249877929688 108.48089599609375 102.22296142578125 L108.48089599609375 97.23199462890625 L108.48089599609375 92.24102783203125 C108.48089599609375 91.62150573730469 108.982666015625 91.11871337890625 109.60269165039062 91.11871337890625 C110.22220611572266 91.11871337890625 110.72447204589844 91.62150573730469 110.72447204589844 92.24102783203125 L110.72447204589844 97.23199462890625 L110.72447204589844 102.22296142578125"></path>
<path fill="#523416" fill-opacity="1.0"  filling="0" d="M105.01260375976562 101.84359741210938 C105.01260375976562 101.84359741210938 106.10981750488281 101.96392059326172 107.24505615234375 101.4850082397461 C108.38028717041016 101.00608825683594 109.55353546142578 99.92794036865234 109.70559692382812 97.53099060058594 C109.76652526855469 96.57232666015625 110.17835998535156 95.58916473388672 110.87173461914062 94.66065216064453 C111.56510925292969 93.73214721679688 112.5400161743164 92.85829162597656 113.72709655761719 92.11823272705078 C114.91417694091797 91.37818145751953 116.31343841552734 90.77192687988281 117.85549926757812 90.37861633300781 C119.3975601196289 89.98530578613281 121.08242797851562 89.80493927001953 122.84074401855469 89.91667175292969 C124.59905242919922 90.02839660644531 126.43080139160156 90.43222045898438 128.26663208007812 91.207275390625 C130.1024627685547 91.9824447631836 131.81997680664062 92.42716979980469 133.38490295410156 92.57408142089844 C134.9498291015625 92.72099304199219 136.36219787597656 92.57008361816406 137.5876922607422 92.15398406982422 C138.81320190429688 91.7378921508789 139.85186767578125 91.05661010742188 140.66941833496094 90.14276885986328 C141.48696899414062 89.22892761230469 142.08338928222656 88.08253479003906 142.4244384765625 86.7362060546875 C142.76548767089844 85.38987731933594 142.85116577148438 83.8436279296875 142.6471710205078 82.13006591796875 C142.6471710205078 82.13006591796875 142.1117401123047 82.84403991699219 141.02809143066406 83.1628189086914 C139.94444274902344 83.48159790039062 138.3125762939453 83.4051742553711 136.11968994140625 81.82437133789062 C135.45582580566406 81.34555053710938 134.54510498046875 80.71662902832031 133.43252563476562 80.06133270263672 C132.3199462890625 79.40603637695312 131.0055389404297 78.72435760498047 129.53428649902344 78.14002227783203 C128.0630340576172 77.5556869506836 126.43496704101562 77.06869506835938 124.69508361816406 76.8027572631836 C122.9552001953125 76.53682708740234 121.10350036621094 76.49195861816406 119.18502807617188 76.79186248779297 C117.26654052734375 77.09176635742188 115.28128051757812 77.7364501953125 113.27423858642578 78.84963989257812 C111.614501953125 79.77056121826172 110.2303695678711 80.77185821533203 109.08409881591797 81.84306335449219 C107.93782806396484 82.91426849365234 107.02941131591797 84.05538177490234 106.32112884521484 85.25590515136719 C105.61283874511719 86.45643615722656 105.10467529296875 87.71638488769531 104.75890350341797 89.0252685546875 C104.41313171386719 90.33415985107422 104.22975158691406 91.69198608398438 104.1710205078125 93.08826446533203 C104.11228942871094 94.48455047607422 104.17822265625 95.91929626464844 104.33106231689453 97.38201141357422 C104.48390197753906 98.8447265625 104.72366333007812 100.33541870117188 105.01260375976562 101.84359741210938"></path>
<path fill="#FFC489" fill-opacity="1.0"  filling="0" d="M108.48037719726562 103.57260131835938 C108.48037719726562 104.9990234375 107.32429504394531 106.15414428710938 105.89837646484375 106.15414428710938 C104.47193908691406 106.15414428710938 103.31584167480469 104.9990234375 103.31584167480469 103.57260131835938 L103.31584167480469 100.113037109375 C103.31584167480469 98.6876220703125 104.47142028808594 97.53099060058594 105.89837646484375 97.53099060058594 C107.32479858398438 97.53099060058594 108.48037719726562 98.6876220703125 108.48037719726562 100.113037109375 L108.48037719726562 103.57260131835938"></path>
<path fill="#B0B0B0" fill-opacity="1.0"  filling="0" d="M108.98419189453125 170.47869873046875 C107.80525970458984 170.73521423339844 106.5719985961914 171.12307739257812 105.31163024902344 171.6282196044922 C104.05126190185547 172.13336181640625 102.7637939453125 172.7558135986328 101.47644805908203 173.4815216064453 C100.18910217285156 174.20721435546875 98.90188598632812 175.0361785888672 97.64202117919922 175.954345703125 C96.38216400146484 176.8725128173828 95.149658203125 177.87989807128906 93.97174835205078 178.96246337890625 C92.79383087158203 180.04501342773438 91.67050170898438 181.2027587890625 90.62899780273438 182.421630859375 C89.40864562988281 183.85011291503906 88.25005340576172 185.32345581054688 87.17338562011719 186.7629852294922 C86.09671020507812 188.2025146484375 85.10195922851562 189.60821533203125 84.20928955078125 190.90142822265625 C83.31661987304688 192.19464111328125 82.5260238647461 193.3753662109375 81.85767364501953 194.36489868164062 C81.18931579589844 195.3544464111328 80.64320373535156 196.15281677246094 80.23948669433594 196.68133544921875 C78.27340698242188 196.6900634765625 77.22740173339844 196.5426025390625 75.26028442382812 196.31936645507812 C75.6226806640625 195.23126220703125 76.16413116455078 194.01141357421875 76.8375244140625 192.71743774414062 C77.51091766357422 191.4234619140625 78.3162612915039 190.05535888671875 79.20642852783203 188.67074584960938 C80.09660339355469 187.28614807128906 81.07160186767578 185.88504028320312 82.0843276977539 184.52505493164062 C83.0970458984375 183.16506958007812 84.14749145507812 181.84620666503906 85.18853759765625 180.62608337402344 C86.2295913696289 179.4059600830078 87.26124572753906 178.28457641601562 88.23640441894531 177.319580078125 C89.30587768554688 176.2610626220703 90.40377044677734 175.21080017089844 91.52529907226562 174.19528198242188 C92.64683532714844 173.1797637939453 93.79199981689453 172.19900512695312 94.95601654052734 171.27947998046875 C96.12003326416016 170.35995483398438 97.30290222167969 169.50167846679688 98.49983215332031 168.7311248779297 C99.69676208496094 167.9605712890625 100.90775299072266 167.2777557373047 102.12802124023438 166.70916748046875 C103.34828186035156 166.1405792236328 104.57781982421875 165.68621826171875 105.81184387207031 165.37255859375 C105.81184387207031 165.37255859375 106.79693603515625 165.10272216796875 107.87635803222656 165.1702423095703 C108.95578002929688 165.23776245117188 110.12954711914062 165.6426239013672 110.50688934326172 166.99200439453125 C111.3178939819336 169.89556884765625 108.98419189453125 170.47869873046875 108.98419189453125 170.47869873046875"></path>
<path fill="#0D1D33" fill-opacity="1.0"  filling="0" d="M67.92127990722656 198.8983154296875 C67.91666412353516 199.82913208007812 68.29016876220703 200.67391967773438 68.89752960205078 201.28704833984375 C69.50489807128906 201.900146484375 70.34611511230469 202.28158569335938 71.27693176269531 202.28567504882812 L74.87168884277344 202.3778533935547 L78.46644592285156 202.47003173828125 C79.39751434326172 202.47462463378906 80.2421875 202.10137939453125 80.85517883300781 201.49420166015625 C81.46817016601562 200.88702392578125 81.84947967529297 200.0459442138672 81.85383605957031 199.1148681640625 C81.85843658447266 198.1835479736328 81.48518371582031 197.3387451171875 80.87796020507812 196.72581481933594 C80.27072143554688 196.11288452148438 79.42951202392578 195.73182678222656 78.49818420410156 195.72799682617188 L74.90316772460938 195.6350860595703 L71.30815124511719 195.54217529296875 C70.3773422241211 195.538330078125 69.53292846679688 195.91207885742188 68.9200668334961 196.51943969726562 C68.30720520019531 197.1267852783203 67.92588806152344 197.96774291992188 67.92127990722656 198.8983154296875"></path>
<path fill="#D9D9D9" fill-opacity="1.0"  filling="0" d="M67.03346252441406 128.15988159179688 C67.97827911376953 128.9449462890625 68.85334777832031 129.68154907226562 69.73165893554688 130.3689727783203 C70.60997009277344 131.056396484375 71.49151611328125 131.69464111328125 72.44929504394531 132.2830352783203 C73.40707397460938 132.8714141845703 74.44108581542969 133.409912109375 75.62431335449219 133.89785766601562 C77.19709777832031 134.54664611816406 78.80104064941406 135.06809997558594 80.40794372558594 135.44711303710938 C82.01485443115234 135.8261260986328 83.6247329711914 136.0626983642578 85.20938110351562 136.14170837402344 C86.79402923583984 136.22071838378906 88.35345458984375 136.1421661376953 89.85945892333984 135.8909454345703 C91.36546325683594 135.6397247314453 92.81805419921875 135.21583557128906 94.18902587890625 134.60415649414062 C95.55999755859375 133.9924774169922 96.849365234375 133.19300842285156 98.02891540527344 132.19064331054688 C99.2084732055664 131.18829345703125 100.27822875976562 129.9830322265625 101.20997619628906 128.55975341796875 C102.08601379394531 127.222900390625 103.89491271972656 126.85992431640625 105.23123168945312 127.73593139648438 C106.56805419921875 128.61148071289062 106.94285583496094 130.40399169921875 106.06578063964844 131.73977661132812 C105.14757537841797 133.1425323486328 104.12060546875 134.40328979492188 103.00303649902344 135.52325439453125 C101.88546752929688 136.64321899414062 100.67729949951172 137.62237548828125 99.39669036865234 138.46192932128906 C98.11608123779297 139.30148315429688 96.76302337646484 140.00143432617188 95.3556900024414 140.56297302246094 C93.94835662841797 141.12451171875 92.48673248291016 141.54763793945312 90.9889907836914 141.8335418701172 C89.49124908447266 142.11944580078125 87.95738220214844 142.26812744140625 86.40554809570312 142.28079223632812 C84.85371398925781 142.29344177246094 83.2839126586914 142.17007446289062 81.71430969238281 141.911865234375 C80.14470672607422 141.65365600585938 78.5752944946289 141.2606201171875 77.02423858642578 140.73394775390625 C75.47317504882812 140.20726013183594 73.94047546386719 139.54693603515625 72.44427490234375 138.75418090820312 C71.47113800048828 138.23875427246094 70.65979766845703 137.75509643554688 69.84569549560547 137.2305145263672 C69.03160095214844 136.70594787597656 68.21475219726562 136.14047241210938 67.2306137084961 135.46145629882812 C66.24647521972656 134.7824249267578 65.09504699707031 133.98983764648438 63.611785888671875 133.01104736328125 C63.930755615234375 132.09535217285156 64.60505676269531 131.33120727539062 65.29017639160156 130.5716552734375 C65.97529602050781 129.81210327148438 66.67123413085938 129.05715942382812 67.03346252441406 128.15988159179688"></path>
<path fill="#D9A570" fill-opacity="1.0"  filling="0" d="M59.23112487792969 132.9424591064453 C60.211082458496094 133.884033203125 61.47981262207031 134.3391876220703 62.73881530761719 134.31410217285156 C63.99781799316406 134.2890167236328 65.2470932006836 133.78366088867188 66.18814086914062 132.80421447753906 C67.12895202636719 131.823486328125 67.58361053466797 130.5543670654297 67.55826568603516 129.29534912109375 C67.53292846679688 128.03634643554688 67.02758026123047 126.78744506835938 66.04838562011719 125.84713745117188 L65.03309631347656 124.87127685546875 C64.05337524414062 123.93099975585938 63.292030334472656 123.96351623535156 62.54029083251953 124.47590637207031 C61.78854751586914 124.98829650878906 61.046409606933594 125.98055267333984 60.1051025390625 126.95976257324219 L59.76716613769531 126.63668823242188 C58.825599670410156 127.61563110351562 57.94828796386719 128.47821044921875 57.551361083984375 129.3314666748047 C57.1544303894043 130.18470764160156 57.237884521484375 131.0286102294922 58.21784973144531 131.97018432617188 L59.23112487792969 132.9424591064453"></path>
<path fill="#FFC489" fill-opacity="1.0"  filling="0" d="M59.43589782714844 133.13906860351562 C59.92536926269531 133.60855102539062 60.702606201171875 133.59524536132812 61.174652099609375 133.1052703857422 C61.64569091796875 132.61477661132812 61.630340576171875 131.83499145507812 61.139312744140625 131.36447143554688 L58.14002990722656 128.48292541503906 C57.65107727050781 128.01446533203125 56.872833251953125 128.02828979492188 56.401275634765625 128.51828002929688 C55.93074035644531 129.00929260253906 55.945587158203125 129.7869873046875 56.43609619140625 130.25753784179688 L59.43589782714844 133.13906860351562"></path>
<path fill="#EDB47B" fill-opacity="1.0"  filling="0" d="M63.25645446777344 130.74546813964844 C64.44888305664062 131.89080810546875 66.7667236328125 132.10635375976562 67.55162048339844 130.59494018554688 C68.12300872802734 129.4923553466797 68.15321350097656 128.26202392578125 67.80018615722656 127.076416015625 C67.44715881347656 125.89081573486328 66.71090698242188 124.74995422363281 65.74937438964844 123.82632446289062 C64.55744934082031 122.6824951171875 64.41409301757812 125.21844482421875 63.23289489746094 126.44619750976562 C62.053253173828125 127.67449951171875 62.0634765625 129.59909057617188 63.25645446777344 130.74546813964844"></path>
<path fill="#FFC489" fill-opacity="1.0"  filling="0" d="M64.54771423339844 127.81582641601562 C65.0382080078125 128.2878875732422 65.81541442871094 128.27249145507812 66.28749084472656 127.78202819824219 C66.75750732421875 127.29306030273438 66.74111938476562 126.51327514648438 66.25215148925781 126.04324340820312 L63.25285339355469 123.16120910644531 C62.762359619140625 122.69171142578125 61.983612060546875 122.70553588867188 61.51359558105469 123.19706726074219 C61.04205322265625 123.6865234375 61.058929443359375 124.46527099609375 61.54841613769531 124.93527221679688 L64.54771423339844 127.81582641601562"></path>
<path fill="#FFC489" fill-opacity="1.0"  filling="0" d="M61.139312744140625 131.36447143554688 C61.630340576171875 131.83499145507812 62.409088134765625 131.82015991210938 62.8775634765625 131.33221435546875 C63.34861755371094 130.83969116210938 63.333770751953125 130.06195068359375 62.84222412109375 129.59144592285156 L59.844482421875 126.71041870117188 C59.3544921875 126.24038696289062 58.57574462890625 126.25473022460938 58.104705810546875 126.7452392578125 C57.63468933105469 127.2357177734375 57.65107727050781 128.01446533203125 58.14002990722656 128.4834747314453 L61.139312744140625 131.36447143554688"></path>
<path fill="#FFC489" fill-opacity="1.0"  filling="0" d="M62.84222412109375 129.5908966064453 C63.333251953125 130.06195068359375 64.11251831054688 130.04660034179688 64.58251953125 129.55609130859375 C65.05355834960938 129.06613159179688 65.03767395019531 128.2878875732422 64.54771423339844 127.81631469726562 L61.54893493652344 124.93632507324219 C61.058929443359375 124.46578979492188 60.28070068359375 124.48062133789062 59.80964660644531 124.97164916992188 C59.34016418457031 125.46163940429688 59.355010986328125 126.24038696289062 59.845001220703125 126.71041870117188 L62.84222412109375 129.5908966064453"></path>
<path fill="#EDB47B" fill-opacity="1.0"  filling="0" d="M61.47572326660156 128.27659606933594 C61.900665283203125 128.6846923828125 62.57600402832031 128.67135620117188 62.98457336425781 128.24588012695312 L65.77908325195312 125.336181640625 C66.18867492675781 124.91120910644531 66.17485046386719 124.23640441894531 65.74885559082031 123.82632446289062 C65.32337951660156 123.41824340820312 64.6480712890625 123.43258666992188 64.23947143554688 123.8575439453125 L61.44447326660156 126.76776123046875 C61.03590393066406 127.19371032714844 61.050750732421875 127.8685302734375 61.47572326660156 128.27659606933594"></path>
<path fill="#214C85" fill-opacity="1.0"  filling="0" d="M138.3100128173828 115.26773071289062 C138.3100128173828 116.7427978515625 138.0110321044922 118.14810180664062 137.47036743164062 119.42634582519531 C136.9296875 120.70458221435547 136.14732360839844 121.85574340820312 135.1805419921875 122.82252502441406 C134.21376037597656 123.789306640625 133.06256103515625 124.57170104980469 131.7842254638672 125.11241149902344 C130.50588989257812 125.65310668945312 129.1004180908203 125.95211791992188 127.62509155273438 125.95211791992188 L124.05439758300781 125.95211791992188 C122.57907104492188 125.95211791992188 121.17359924316406 125.65310668945312 119.895263671875 125.11241149902344 C118.61692810058594 124.57170867919922 117.46572875976562 123.789306640625 116.49894714355469 122.82252502441406 C115.53216552734375 121.85574340820312 114.74979400634766 120.70457458496094 114.20912170410156 119.42634582519531 C113.66844177246094 118.14810180664062 113.36946868896484 116.7427978515625 113.36946868896484 115.26773071289062 L113.36947631835938 111.01075744628906 L113.36947631835938 106.7537841796875 L113.36947631835938 102.49681091308594 L113.36947631835938 98.23982238769531 L113.36946868896484 93.98284912109375 C113.36946868896484 92.50751495361328 113.66844177246094 91.10200500488281 114.20911407470703 89.82362365722656 C114.74978637695312 88.54523468017578 115.53215789794922 87.39397430419922 116.49894714355469 86.4271240234375 C117.46572875976562 85.46027374267578 118.61692810058594 84.67784118652344 119.895263671875 84.13712310791016 C121.17359924316406 83.59640502929688 122.57907104492188 83.29739379882812 124.05439758300781 83.29739379882812 L127.62509155273438 83.29739379882812 C129.1004180908203 83.29739379882812 130.50588989257812 83.59640502929688 131.7842254638672 84.13712310791016 C133.06256103515625 84.67784118652344 134.21376037597656 85.46027374267578 135.1805419921875 86.42711639404297 C136.14732360839844 87.39396667480469 136.9296875 88.54523468017578 137.47036743164062 89.82362365722656 C138.0110321044922 91.10200500488281 138.3100128173828 92.50751495361328 138.3100128173828 93.98284912109375 L138.3100128173828 98.23982238769531 L138.3100128173828 102.49681091308594 L138.3100128173828 106.7537841796875 L138.3100128173828 111.01075744628906 L138.3100128173828 115.26773071289062"></path>
<path fill="#D9D9D9" fill-opacity="1.0"  filling="0" d="M138.25369262695312 114.26010131835938 C138.25369262695312 115.59590148925781 137.98300170898438 116.86841583251953 137.4934844970703 118.02578735351562 C137.00396728515625 119.18315887451172 136.29562377929688 120.22540283203125 135.4202880859375 121.10066223144531 C134.54495239257812 121.9759292602539 133.50265502929688 122.68421936035156 132.34523010253906 123.17369079589844 C131.18780517578125 123.66316223144531 129.91525268554688 123.93382263183594 128.57945251464844 123.93382263183594 L125.34719848632812 123.93382263183594 C124.01139068603516 123.93382263183594 122.73884582519531 123.66316223144531 121.5814208984375 123.17369079589844 C120.42399597167969 122.68421936035156 119.38169860839844 121.9759292602539 118.5063705444336 121.10066986083984 C117.63104248046875 120.22540283203125 116.92269134521484 119.18316650390625 116.43316650390625 118.02578735351562 C115.94364929199219 116.86841583251953 115.67295837402344 115.59590148925781 115.67295837402344 114.26010131835938 L115.67295837402344 109.44243621826172 L115.67295837402344 104.62477111816406 L115.67295837402344 99.8071060180664 L115.67295837402344 94.98944091796875 C115.67295837402344 93.65363311767578 115.94364929199219 92.38114929199219 116.43316650390625 91.22382354736328 C116.92268371582031 90.06649017333984 117.63103485107422 89.0243148803711 118.50636291503906 88.14910888671875 C119.3816909790039 87.27391052246094 120.42399597167969 86.56568145751953 121.5814208984375 86.07625579833984 C122.73884582519531 85.58683013916016 124.01139068603516 85.31620788574219 125.34719848632812 85.31620788574219 L128.57945251464844 85.31620788574219 C129.91526794433594 85.31620788574219 131.18780517578125 85.58686828613281 132.34523010253906 86.07633209228516 C133.50265502929688 86.5657958984375 134.54495239257812 87.2740707397461 135.4202880859375 88.14930725097656 C136.29562377929688 89.02454376220703 137.00396728515625 90.06674194335938 137.4934844970703 91.22404479980469 C137.98300170898438 92.38134765625 138.25369262695312 93.65376281738281 138.25369262695312 94.98944091796875 L138.25369262695312 99.8071060180664 L138.25369262695312 104.62477111816406 L138.25369262695312 109.44243621826172 L138.25369262695312 114.26010131835938"></path>
<path fill="#0D1D33" fill-opacity="1.0"  filling="0" d="M116.51878356933594 86.40884399414062 L112.13452911376953 84.83059692382812 L107.75027465820312 83.25234985351562 L105.59526062011719 86.40884399414062 L109.94239807128906 87.81504821777344 L114.28954315185547 89.22125244140625 L116.51878356933594 86.40884399414062"></path>
<path fill="#0D1D33" fill-opacity="1.0"  filling="0" d="M113.5440673828125 106.15414428710938 L109.98438262939453 107.39956665039062 L106.42469787597656 108.64498901367188 L107.49223327636719 111.94483947753906 L110.35635375976562 110.9067611694336 L113.2204818725586 109.86868286132812 L113.5440673828125 106.15414428710938"></path></svg>