<svg xmlns="http://www.w3.org/2000/svg" viewBox="0.0 0.0 256.0 256.0" height="256.0px" width="256.0px"><path fill="#44151F" fill-opacity="1.0"  filling="0" d="M103.68269348144531 112.060791015625 C103.68269348144531 112.060791015625 103.1545181274414 111.83977508544922 102.23783874511719 111.46517181396484 C101.32115936279297 111.09056854248047 100.01597595214844 110.56237030029297 98.46195220947266 109.9480209350586 C96.9079360961914 109.33366394042969 95.1050796508789 108.6331558227539 93.19306182861328 107.91390991210938 C91.28104400634766 107.19467163085938 89.25985717773438 106.45669555664062 87.26918029785156 105.76742553710938 C85.27849578857422 105.0781478881836 83.31832122802734 104.43757629394531 81.5283203125 103.91312408447266 C79.73831939697266 103.388671875 78.11849212646484 102.98035430908203 76.80851745605469 102.75558471679688 C75.49853515625 102.53082275390625 74.49839782714844 102.48960876464844 73.94778442382812 102.69938659667969 C73.39716339111328 102.9091567993164 72.57307434082031 103.58717346191406 71.56916809082031 104.59750366210938 C70.56526184082031 105.60783386230469 69.38153076171875 106.95047760009766 68.11164093017578 108.48951721191406 C66.84175109863281 110.02855682373047 65.4856948852539 111.76398468017578 64.13712310791016 113.55989074707031 C62.788551330566406 115.35578918457031 61.447471618652344 117.212158203125 60.20752716064453 118.99308013916016 C58.967586517333984 120.77399444580078 57.82878494262695 122.47946166992188 56.8847770690918 123.97354888916016 C55.940765380859375 125.46763610839844 55.191551208496094 126.75035095214844 54.73078155517578 127.6857681274414 C54.27001190185547 128.62118530273438 54.097686767578125 129.20928955078125 54.307464599609375 129.31417846679688 C54.55220031738281 129.43653869628906 55.18443298339844 128.99295043945312 56.08774948120117 128.1610107421875 C56.991065979003906 127.32906341552734 58.16545867919922 126.1087646484375 59.4945182800293 124.67772674560547 C60.82357406616211 123.24668884277344 62.30729293823242 121.60489654541016 63.829254150390625 119.92997741699219 C65.3512191772461 118.25505065917969 66.91142272949219 116.54698944091797 68.3934555053711 114.9833984375 C69.87548828125 113.41980743408203 71.27934265136719 112.00068664550781 72.48860168457031 110.90364074707031 C73.69786834716797 109.80659484863281 74.71253967285156 109.0316162109375 75.41619873046875 108.75633239746094 C77.06808471679688 108.90925598144531 78.90863800048828 109.22535705566406 80.82909393310547 109.64600372314453 C82.74954223632812 110.066650390625 84.74989318847656 110.59184265136719 86.72135925292969 111.16293334960938 C88.69282531738281 111.73402404785156 90.63540649414062 112.35101318359375 92.4403305053711 112.95525360107422 C94.24525451660156 113.55950164794922 95.91252899169922 114.1510009765625 97.33336639404297 114.6711196899414 C98.75419616699219 115.19123840332031 99.92860412597656 115.63996124267578 100.74779510498047 115.95866394042969 C101.56698608398438 116.27735900878906 102.03097534179688 116.46603393554688 102.03097534179688 116.46603393554688 L103.68269348144531 112.060791015625"></path>
<path fill="#44151F" fill-opacity="1.0"  filling="0" d="M102.99659729003906 121.70173645019531 C102.99659729003906 121.70173645019531 102.33867645263672 121.53297424316406 101.22722625732422 121.25899505615234 C100.11577606201172 120.98501586914062 98.55079650878906 120.6058120727539 96.73666381835938 120.18492889404297 C94.92253875732422 119.76405334472656 92.85926818847656 119.3014907836914 90.75123596191406 118.86078643798828 C88.64320373535156 118.42008209228516 86.49041748046875 118.0012435913086 84.49726104736328 117.66780090332031 C82.50410461425781 117.33435821533203 80.67057800292969 117.08631134033203 79.20106506347656 116.9872055053711 C77.73155975341797 116.88809967041016 76.62606811523438 116.93792724609375 76.08897399902344 117.20024108886719 C75.55188751220703 117.46255493164062 74.7544174194336 118.27063751220703 73.80443572998047 119.43768310546875 C72.85445404052734 120.604736328125 71.751953125 122.13075256347656 70.60481262207031 123.82894134521484 C69.4576644897461 125.52713775634766 68.265869140625 127.39750671386719 67.13729858398438 129.2532501220703 C66.00872039794922 131.10899353027344 64.94336700439453 132.9501190185547 64.04908752441406 134.58982849121094 C63.154815673828125 136.2295379638672 62.43162536621094 137.66783142089844 61.98738479614258 138.71791076660156 C61.54314422607422 139.7679901123047 61.37785339355469 140.42987060546875 61.59938049316406 140.5167236328125 C61.820899963378906 140.60342407226562 62.34111404418945 140.19845581054688 63.07063293457031 139.4551544189453 C63.800148010253906 138.71185302734375 64.73896026611328 137.6302032470703 65.79768371582031 136.36354064941406 C66.85639953613281 135.09686279296875 68.03502655029297 133.64517211914062 69.24415588378906 132.1617889404297 C70.45328521728516 130.6783905029297 71.69292449951172 129.16329956054688 72.87367248535156 127.76982879638672 C74.0544204711914 126.37635040283203 75.17627716064453 125.1044921875 76.14984893798828 124.10757446289062 C77.12342834472656 123.11065673828125 77.94871520996094 122.388671875 78.53631591796875 122.09495544433594 C80.12699890136719 122.16827392578125 82.01644134521484 122.3542709350586 84.02151489257812 122.60494995117188 C86.0265884399414 122.85562896728516 88.14729309082031 123.17098236083984 90.20049285888672 123.50300598144531 C92.25370025634766 123.83502960205078 94.2394027709961 124.18372344970703 95.9744644165039 124.50108337402344 C97.70953369140625 124.81844329833984 99.1939697265625 125.1044692993164 100.24463653564453 125.3111572265625 C101.29530334472656 125.51783752441406 101.91220092773438 125.64518737792969 101.91220092773438 125.64518737792969 L102.99659729003906 121.70173645019531"></path>
<path fill="#44151F" fill-opacity="1.0"  filling="0" d="M102.12313842773438 131.14712524414062 C102.12313842773438 131.14712524414062 101.27432250976562 131.10731506347656 99.89651489257812 131.05886840820312 C98.5186996459961 131.01043701171875 96.61189270019531 130.953369140625 94.49589538574219 130.9188690185547 C92.37989807128906 130.88436889648438 90.05472564697266 130.87242126464844 87.84017944335938 130.9142303466797 C85.6256332397461 130.95603942871094 83.52172088623047 131.0515899658203 81.84825897216797 131.23208618164062 C80.17478942871094 131.41256713867188 78.93177795410156 131.677978515625 78.43902587890625 132.0595245361328 C77.94627380371094 132.44085693359375 77.27301788330078 133.55690002441406 76.52093505859375 135.1001739501953 C75.76885223388672 136.64344787597656 74.93794250488281 138.61395263671875 74.1299057006836 140.70423889160156 C73.32186126708984 142.79452514648438 72.53668212890625 145.0045928955078 71.87606048583984 147.0269775390625 C71.2154312133789 149.04934692382812 70.67935180664062 150.884033203125 70.36952209472656 152.22357177734375 C70.05968475341797 153.5631103515625 69.97608947753906 154.40750122070312 70.22041320800781 154.44927978515625 C70.4649429321289 154.49105834960938 70.95060729980469 153.8546600341797 71.59268188476562 152.792724609375 C72.23475646972656 151.73080444335938 73.03323364257812 150.2433319091797 73.90341186523438 148.58297729492188 C74.7735824584961 146.92262268066406 75.71543884277344 145.08937072753906 76.6442642211914 143.33587646484375 C77.57308959960938 141.58238220214844 78.48887634277344 139.90863037109375 79.30691528320312 138.56727600097656 C80.12494659423828 137.22592163085938 80.84523010253906 136.21694946289062 81.38302612304688 135.79302978515625 C82.74925231933594 135.5751190185547 84.38946533203125 135.40042114257812 86.13941192626953 135.2603759765625 C87.88935852050781 135.12033081054688 89.7490463256836 135.01492309570312 91.5542221069336 134.93557739257812 C93.35940551757812 134.8562469482422 95.1100845336914 134.80299377441406 96.64202117919922 134.76724243164062 C98.17395782470703 134.7314910888672 99.48715209960938 134.7132568359375 100.4173583984375 134.70394897460938 C101.34756469726562 134.69464111328125 101.89479064941406 134.69427490234375 101.89479064941406 134.69427490234375 L102.12313842773438 131.14712524414062"></path>
<path fill="#44151F" fill-opacity="1.0"  filling="0" d="M176.0057373046875 128.5410614013672 C175.83920288085938 129.32386779785156 175.6721649169922 130.1391143798828 175.47885131835938 130.97607421875 C175.28553771972656 131.8130340576172 175.06594848632812 132.67169189453125 174.7943115234375 133.54129028320312 C174.52267456054688 134.410888671875 174.198974609375 135.2914276123047 173.7974395751953 136.1721649169922 C173.39590454101562 137.0529022216797 172.9165496826172 137.93382263183594 172.33358764648438 138.80416870117188 C171.75062561035156 139.6745147705078 171.06405639648438 140.5343017578125 170.2480926513672 141.37277221679688 C169.43212890625 142.21124267578125 168.48680114746094 143.02838134765625 167.38629150390625 143.8134307861328 C166.28579711914062 144.59849548339844 165.03013610839844 145.3514862060547 163.59353637695312 146.06163024902344 C162.1569366455078 146.77178955078125 160.53939819335938 147.43910217285156 158.71514892578125 148.05284118652344 C156.89089965820312 148.66656494140625 154.85992431640625 149.22671508789062 152.59646606445312 149.72250366210938 C150.3330078125 150.21829223632812 147.83705139160156 150.64974975585938 145.08282470703125 151.006103515625 C142.32861328125 151.36245727539062 139.31613159179688 151.64370727539062 136.01959228515625 151.83909606933594 C135.949951171875 151.84422302246094 135.8782958984375 151.8483123779297 135.80865478515625 151.8524169921875 C132.3546142578125 152.0526580810547 129.2024383544922 152.07540893554688 126.32537078857422 151.9474334716797 C123.44831085205078 151.8194580078125 120.84635925292969 151.54075622558594 118.4927749633789 151.13807678222656 C116.13919067382812 150.7353973388672 114.03396606445312 150.20875549316406 112.15035247802734 149.58486938476562 C110.26673889160156 148.96099853515625 108.604736328125 148.23989868164062 107.13758087158203 147.44833374023438 C105.6704330444336 146.65676879882812 104.39813995361328 145.79473876953125 103.2939453125 144.8889923095703 C102.18975067138672 143.98324584960938 101.253662109375 143.0337677001953 100.45892333984375 142.0673370361328 C99.6641845703125 141.1009063720703 99.01078796386719 140.11752319335938 98.47199249267578 139.1439208984375 C97.93319702148438 138.17031860351562 97.50899505615234 137.20651245117188 97.17263793945312 136.27923583984375 C96.8362808227539 135.3519744873047 96.58776092529297 134.46124267578125 96.40033721923828 133.63381958007812 C96.21290588378906 132.806396484375 96.0865707397461 132.04226684570312 95.99456787109375 131.36819458007812 C95.9025650024414 130.69412231445312 95.84489440917969 130.11009216308594 95.79481506347656 129.6428680419922 C95.74890899658203 129.21458435058594 95.7030029296875 128.63970947265625 95.6800537109375 127.94564819335938 C95.6571044921875 127.2515869140625 95.6571044921875 126.43834686279297 95.70299530029297 125.5333251953125 C95.74888610839844 124.62830352783203 95.84066772460938 123.63150787353516 96.00128936767578 122.57034301757812 C96.16191101074219 121.5091781616211 96.39136505126953 120.38363647460938 96.71259307861328 119.22113037109375 C97.03382873535156 118.05862426757812 97.44683837890625 116.8591537475586 97.97457122802734 115.6501235961914 C98.50230407714844 114.44109344482422 99.14476013183594 113.22249603271484 99.92487335205078 112.0217514038086 C100.70499420166016 110.82100677490234 101.62277221679688 109.63809967041016 102.70116424560547 108.50045013427734 C103.77955627441406 107.36280059814453 105.01854705810547 106.27040100097656 106.44109344482422 105.25065612792969 C107.86363983154297 104.23091125488281 109.46973419189453 103.28382873535156 111.28231811523438 102.43680572509766 C113.09490203857422 101.58978271484375 115.11398315429688 100.84281921386719 117.36249542236328 100.22332000732422 C119.61100769042969 99.60382843017578 122.08895874023438 99.11180114746094 124.81929016113281 98.77465057373047 C127.54961395263672 98.4375 130.53231811523438 98.25521850585938 133.79034423828125 98.25521850585938 C134.83737182617188 98.25521850585938 135.86009216308594 98.2716064453125 136.8590087890625 98.3037338256836 C137.85792541503906 98.33586120605469 138.83303833007812 98.38373565673828 139.78485107421875 98.44671630859375 C142.78099060058594 98.64388275146484 145.54550170898438 98.9891586303711 148.09451293945312 99.45986938476562 C150.64352416992188 99.93058013916016 152.9770050048828 100.52672576904297 155.111083984375 101.22563934326172 C157.2451629638672 101.92455291748047 159.1798095703125 102.72622680664062 160.93113708496094 103.60800170898438 C162.68246459960938 104.48977661132812 164.25047302246094 105.45164489746094 165.6512451171875 106.47093200683594 C167.05201721191406 107.49021911621094 168.2855682373047 108.56693267822266 169.36798095703125 109.67839813232422 C170.4503936767578 110.78986358642578 171.38168334960938 111.93608093261719 172.17791748046875 113.0943832397461 C172.9741668701172 114.252685546875 173.6353759765625 115.42306518554688 174.17764282226562 116.58285522460938 C174.71990966796875 117.74264526367188 175.1432342529297 118.891845703125 175.46371459960938 120.00778198242188 C175.78419494628906 121.12371826171875 176.00181579589844 122.2063980102539 176.13270568847656 123.23314666748047 C176.26358032226562 124.2598876953125 176.30770874023438 125.23070526123047 176.28118896484375 126.12291717529297 C176.25466918945312 127.01512145996094 176.157470703125 127.8287353515625 176.0057373046875 128.5410614013672"></path>
<path fill="#4B1A25" fill-opacity="1.0"  filling="0" d="M176.0057373046875 128.5410614013672 C175.83920288085938 129.32386779785156 175.6721649169922 130.1391143798828 175.47885131835938 130.97607421875 C175.28553771972656 131.8130340576172 175.06594848632812 132.67169189453125 174.7943115234375 133.54129028320312 C174.52267456054688 134.410888671875 174.198974609375 135.2914276123047 173.7974395751953 136.1721649169922 C173.39590454101562 137.0529022216797 172.9165496826172 137.93382263183594 172.33358764648438 138.80416870117188 C171.75062561035156 139.6745147705078 171.06405639648438 140.5343017578125 170.2480926513672 141.37277221679688 C169.43212890625 142.21124267578125 168.48680114746094 143.02838134765625 167.38629150390625 143.8134307861328 C166.28579711914062 144.59849548339844 165.03013610839844 145.3514862060547 163.59353637695312 146.06163024902344 C162.1569366455078 146.77178955078125 160.53939819335938 147.43910217285156 158.71514892578125 148.05284118652344 C156.89089965820312 148.66656494140625 154.85992431640625 149.22671508789062 152.59646606445312 149.72250366210938 C150.3330078125 150.21829223632812 147.83705139160156 150.64974975585938 145.08282470703125 151.006103515625 C142.32861328125 151.36245727539062 139.31613159179688 151.64370727539062 136.01959228515625 151.83909606933594 C133.02450561523438 151.62905883789062 130.34719848632812 151.24807739257812 127.95336151123047 150.73043823242188 C125.55952453613281 150.21279907226562 123.44915008544922 149.55853271484375 121.58793640136719 148.80194091796875 C119.72671508789062 148.04534912109375 118.1146469116211 147.18643188476562 116.71742248535156 146.25950622558594 C115.3201904296875 145.33258056640625 114.13780212402344 144.33766174316406 113.13593292236328 143.3090362548828 C112.13406372070312 142.28042602539062 111.3127212524414 141.21810913085938 110.63758087158203 140.15643310546875 C109.96244812011719 139.09475708007812 109.43351745605469 138.03372192382812 109.0164794921875 137.0076141357422 C108.59944915771484 135.9815216064453 108.29430389404297 134.99037170410156 108.06674194335938 134.0684814453125 C107.83918762207031 133.1466064453125 107.68920135498047 132.29397583007812 107.58248901367188 131.54493713378906 C107.47576904296875 130.7958984375 107.41232299804688 130.15042114257812 107.35781860351562 129.6428680419922 C107.31024932861328 129.19900512695312 107.26268005371094 128.59768676757812 107.24065399169922 127.86943054199219 C107.2186279296875 127.14116668701172 107.22213745117188 126.28594970703125 107.2767333984375 125.33429718017578 C107.33132934570312 124.38264465332031 107.43701171875 123.33454895019531 107.61931610107422 122.22052764892578 C107.80162048339844 121.10650634765625 108.060546875 119.92655181884766 108.42164611816406 118.711181640625 C108.7827377319336 117.49581146240234 109.24600219726562 116.24502563476562 109.83696746826172 114.98932647705078 C110.42793273925781 113.73362731933594 111.14661407470703 112.4730224609375 112.01853942871094 111.2380142211914 C112.89046478271484 110.00300598144531 113.91564178466797 108.7936019897461 115.1196060180664 107.64030456542969 C116.32357025146484 106.48701477050781 117.70632934570312 105.38983154296875 119.29341888427734 104.37926483154297 C120.88050842285156 103.36870574951172 122.67192840576172 102.44476318359375 124.69322204589844 101.63794708251953 C126.71451568603516 100.83113098144531 128.96568298339844 100.14144897460938 131.47225952148438 99.59941101074219 C133.97885131835938 99.057373046875 136.7408447265625 98.6629638671875 139.7838134765625 98.44671630859375 C142.78004455566406 98.64388275146484 145.54464721679688 98.9891586303711 148.09373474121094 99.45986938476562 C150.642822265625 99.93058013916016 152.97637939453125 100.52672576904297 155.1105194091797 101.22563934326172 C157.24465942382812 101.92455291748047 159.1793670654297 102.72622680664062 160.9307403564453 103.60800170898438 C162.68211364746094 104.48977661132812 164.2501678466797 105.45164489746094 165.65098571777344 106.47093200683594 C167.0518035888672 107.49021911621094 168.28538513183594 108.56693267822266 169.36782836914062 109.67839813232422 C170.4502716064453 110.78986358642578 171.38157653808594 111.93608093261719 172.17784118652344 113.0943832397461 C172.97410583496094 114.252685546875 173.6353302001953 115.42306518554688 174.17759704589844 116.58285522460938 C174.71987915039062 117.74264526367188 175.14320373535156 118.891845703125 175.4636993408203 120.00778198242188 C175.7841796875 121.12371826171875 176.00181579589844 122.2063980102539 176.1326904296875 123.23314666748047 C176.26358032226562 124.2598876953125 176.30770874023438 125.23070526123047 176.28118896484375 126.12291717529297 C176.25466918945312 127.01512145996094 176.157470703125 127.8287353515625 176.0057373046875 128.5410614013672"></path>
<path fill="#4B1A25" fill-opacity="1.0"  filling="0" d="M168.84698486328125 113.673583984375 C168.84698486328125 113.673583984375 169.37515258789062 113.45256805419922 170.29183959960938 113.07796478271484 C171.20852661132812 112.70336151123047 172.51370239257812 112.1751708984375 174.06771850585938 111.5608139038086 C175.62173461914062 110.94646453857422 177.42459106445312 110.24595642089844 179.3366241455078 109.5267105102539 C181.24864196777344 108.8074722290039 183.2698211669922 108.06949615478516 185.260498046875 107.3802261352539 C187.2511749267578 106.69095611572266 189.2113494873047 106.05037689208984 191.00135803222656 105.52592468261719 C192.79135131835938 105.00148010253906 194.41116333007812 104.59315490722656 195.7211456298828 104.3683853149414 C197.0311279296875 104.14361572265625 198.03125 104.10240173339844 198.58187866210938 104.31217956542969 C199.1324920654297 104.5219497680664 199.9565887451172 105.19996643066406 200.9604949951172 106.21029663085938 C201.9644012451172 107.22062683105469 203.14813232421875 108.56327056884766 204.41802978515625 110.10231018066406 C205.68792724609375 111.64134979248047 207.04397583007812 113.37678527832031 208.39254760742188 115.17269134521484 C209.74111938476562 116.96859741210938 211.0821990966797 118.82496643066406 212.3221435546875 120.60588073730469 C213.5620880126953 122.38680267333984 214.70089721679688 124.0922622680664 215.6448974609375 125.58634948730469 C216.58889770507812 127.08043670654297 217.33811950683594 128.36314392089844 217.79888916015625 129.29855346679688 C218.25967407226562 130.2339630126953 218.4320068359375 130.82208251953125 218.22222900390625 130.9269561767578 C217.9774932861328 131.04933166503906 217.34524536132812 130.60574340820312 216.4419403076172 129.7738037109375 C215.5386199951172 128.94186401367188 214.36422729492188 127.72156524658203 213.03517150878906 126.29052734375 C211.70611572265625 124.85948944091797 210.22239685058594 123.21770477294922 208.70042419433594 121.54278564453125 C207.178466796875 119.86786651611328 205.61825561523438 118.15980529785156 204.13623046875 116.5962142944336 C202.65420532226562 115.03262329101562 201.25033569335938 113.61351013183594 200.04107666015625 112.51646423339844 C198.83180236816406 111.41941833496094 197.817138671875 110.64443969726562 197.11346435546875 110.36915588378906 C195.4615936279297 110.5220718383789 193.62103271484375 110.83814239501953 191.70059204101562 111.25874328613281 C189.7801513671875 111.67933654785156 187.77980041503906 112.20446014404297 185.80833435058594 112.77546691894531 C183.8368682861328 113.34648132324219 181.894287109375 113.96337890625 180.08937072753906 114.56754302978516 C178.28443908691406 115.17169952392578 176.61717224121094 115.76311492919922 175.1963348388672 116.28315734863281 C173.77549743652344 116.80319213867188 172.60108947753906 117.25186157226562 171.78189086914062 117.57051086425781 C170.96270751953125 117.88916015625 170.49871826171875 118.07780456542969 170.49871826171875 118.07780456542969 L168.84698486328125 113.673583984375"></path>
<path fill="#4B1A25" fill-opacity="1.0"  filling="0" d="M169.53411865234375 123.31455993652344 C169.53411865234375 123.31455993652344 170.19203186035156 123.14579772949219 171.30348205566406 122.87181854248047 C172.41493225097656 122.59783935546875 173.97991943359375 122.21863555908203 175.79403686523438 121.7977523803711 C177.608154296875 121.37686920166016 179.6714324951172 120.914306640625 181.7794647216797 120.47360229492188 C183.8874969482422 120.03289794921875 186.040283203125 119.61405181884766 188.03343200683594 119.28060913085938 C190.02658081054688 118.94715881347656 191.860107421875 118.69911193847656 193.32962036132812 118.60000610351562 C194.79913330078125 118.50090026855469 195.90463256835938 118.55073547363281 196.44171142578125 118.81304931640625 C196.9788055419922 119.07536315917969 197.77627563476562 119.88346862792969 198.72625732421875 121.0505599975586 C199.67623901367188 122.2176513671875 200.77874755859375 123.74372100830078 201.92588806152344 125.44197082519531 C203.07302856445312 127.14021301269531 204.26483154296875 129.01063537597656 205.39341735839844 130.86642456054688 C206.52198791503906 132.7222137451172 207.5873565673828 134.56336975097656 208.48162841796875 136.2030792236328 C209.3759002685547 137.84278869628906 210.09909057617188 139.2810516357422 210.5433349609375 140.33106994628906 C210.98757934570312 141.38107299804688 211.15286254882812 142.0428466796875 210.93133544921875 142.12953186035156 C210.70980834960938 142.2162322998047 210.18959045410156 141.81126403808594 209.4600830078125 141.06796264648438 C208.73056030273438 140.3246612548828 207.791748046875 139.24301147460938 206.73301696777344 137.97633361816406 C205.67430114746094 136.70965576171875 204.4956817626953 135.25796508789062 203.2865447998047 133.7745819091797 C202.07742309570312 132.2911834716797 200.83778381347656 130.77609252929688 199.6570281982422 129.38262939453125 C198.47628784179688 127.98915100097656 197.35443115234375 126.71730041503906 196.380859375 125.72038269042969 C195.40728759765625 124.72347259521484 194.58200073242188 124.00149536132812 193.994384765625 123.70777893066406 C192.40370178222656 123.78109741210938 190.51426696777344 123.96709442138672 188.50918579101562 124.2177734375 C186.50411987304688 124.46844482421875 184.3834228515625 124.78379821777344 182.33021545410156 125.1158218383789 C180.2770233154297 125.44784545898438 178.29132080078125 125.7965316772461 176.55625915527344 126.1138916015625 C174.82119750976562 126.43124389648438 173.33676147460938 126.71726989746094 172.2860870361328 126.9239501953125 C171.2354278564453 127.1306381225586 170.6185302734375 127.25798034667969 170.6185302734375 127.25798034667969 L169.53411865234375 123.31455993652344"></path>
<path fill="#4B1A25" fill-opacity="1.0"  filling="0" d="M170.40655517578125 132.76095581054688 C170.40655517578125 132.76095581054688 171.25537109375 132.72117614746094 172.6331787109375 132.6728057861328 C174.010986328125 132.62442016601562 175.9178009033203 132.5674285888672 178.03379821777344 132.53298950195312 C180.14979553222656 132.49855041503906 182.47496032714844 132.48666381835938 184.68951416015625 132.5284881591797 C186.904052734375 132.5703125 189.00796508789062 132.66586303710938 190.68142700195312 132.84628295898438 C192.35488891601562 133.02670288085938 193.597900390625 133.2919921875 194.09063720703125 133.67333984375 C194.58338928222656 134.05467224121094 195.25665283203125 135.17071533203125 196.00872802734375 136.7139892578125 C196.76080322265625 138.25726318359375 197.5917205810547 140.22776794433594 198.39976501464844 142.31805419921875 C199.2078094482422 144.40834045410156 199.99298095703125 146.618408203125 200.6536102294922 148.64077758789062 C201.31423950195312 150.66314697265625 201.85031127929688 152.4978485107422 202.16014099121094 153.83738708496094 C202.46998596191406 155.1769256591797 202.5535888671875 156.02133178710938 202.30926513671875 156.0631103515625 C202.06472778320312 156.10488891601562 201.57907104492188 155.46849060058594 200.93699645996094 154.40655517578125 C200.294921875 153.34463500976562 199.49644470214844 151.85716247558594 198.6262664794922 150.19680786132812 C197.756103515625 148.5364532470703 196.81423950195312 146.7032012939453 195.88540649414062 144.94970703125 C194.95657348632812 143.1962127685547 194.04078674316406 141.5224609375 193.22274780273438 140.1811065673828 C192.40472412109375 138.83975219726562 191.6844482421875 137.83078002929688 191.14663696289062 137.40682983398438 C189.78042602539062 137.1889190673828 188.1402130126953 137.0142364501953 186.39027404785156 136.8741912841797 C184.6403350830078 136.73414611816406 182.78065490722656 136.6287384033203 180.97547912597656 136.54940795898438 C179.17030334472656 136.47007751464844 177.41961669921875 136.4168243408203 175.88768005371094 136.38107299804688 C174.35574340820312 136.34532165527344 173.04254150390625 136.3270721435547 172.11231994628906 136.31776428222656 C171.18211364746094 136.30845642089844 170.6348876953125 136.30809020996094 170.6348876953125 136.30809020996094 L170.40655517578125 132.76095581054688"></path>
<path fill="#FFFFFF" fill-opacity="1.0"  filling="0" d="M128.75634765625 125.08197021484375 C128.45086669921875 126.41283416748047 127.85001373291016 127.63082122802734 127.02656555175781 128.66331481933594 C126.203125 129.69581604003906 125.15708923339844 130.54281616210938 123.96124267578125 131.13168334960938 C122.7654037475586 131.72056579589844 121.41975402832031 132.0513153076172 119.9970703125 132.0513153076172 C118.34262084960938 132.0513153076172 116.7926254272461 131.60427856445312 115.46127319335938 130.8244171142578 C114.12991333007812 130.0445556640625 113.0172119140625 128.9318389892578 112.23733520507812 127.6004867553711 C111.45746612548828 126.26913452148438 111.01043701171875 124.71914672851562 111.01043701171875 123.064697265625 C111.01043701171875 122.00537109375 111.1934814453125 120.98930358886719 111.52986907958984 120.04606628417969 C111.86625671386719 119.10282897949219 112.35598754882812 118.23242950439453 112.9693603515625 117.46443176269531 L116.5799560546875 119.20626831054688 L120.86131286621094 121.27218627929688 L125.14266967773438 123.33810424804688 L128.75634765625 125.08197021484375"></path>
<path fill="#44151F" fill-opacity="1.0"  filling="0" d="M125.14266967773438 123.33810424804688 C125.07200622558594 124.69746398925781 124.47399139404297 125.91755676269531 123.54957580566406 126.79782104492188 C122.62516784667969 127.67807006835938 121.37435913085938 128.21849060058594 119.99810791015625 128.21849060058594 C118.57473754882812 128.21849060058594 117.28628540039062 127.6417236328125 116.35367584228516 126.7091064453125 C115.42106628417969 125.77650451660156 114.84429931640625 124.48805236816406 114.84429931640625 123.064697265625 C114.84429931640625 121.52970886230469 115.51605224609375 120.15141296386719 116.58099365234375 119.20626831054688 L120.86183166503906 121.27218627929688 L125.14266967773438 123.33810424804688"></path>
<path fill="#FFFFFF" fill-opacity="1.0"  filling="0" d="M143.86651611328125 125.08197021484375 C144.1719970703125 126.41283416748047 144.77285766601562 127.63082122802734 145.59629821777344 128.66331481933594 C146.41973876953125 129.69581604003906 147.4657745361328 130.54281616210938 148.66162109375 131.13168334960938 C149.8574676513672 131.72056579589844 151.203125 132.0513153076172 152.62579345703125 132.0513153076172 C154.2802276611328 132.0513153076172 155.83023071289062 131.60427856445312 157.1615753173828 130.8244171142578 C158.492919921875 130.0445556640625 159.6056365966797 128.9318389892578 160.38551330566406 127.6004867553711 C161.16539001464844 126.26913452148438 161.6124267578125 124.71914672851562 161.6124267578125 123.064697265625 C161.6124267578125 122.00537109375 161.42938232421875 120.98930358886719 161.09298706054688 120.04606628417969 C160.75660705566406 119.10282897949219 160.26687622070312 118.23242950439453 159.65350341796875 117.46443176269531 L156.04287719726562 119.20626831054688 L151.76153564453125 121.27218627929688 L147.48019409179688 123.33810424804688 L143.86651611328125 125.08197021484375"></path>
<path fill="#44151F" fill-opacity="1.0"  filling="0" d="M147.48019409179688 123.33810424804688 C147.5508575439453 124.69746398925781 148.14886474609375 125.91755676269531 149.0732879638672 126.79782104492188 C149.99771118164062 127.67807006835938 151.24851989746094 128.21849060058594 152.62478637695312 128.21849060058594 C154.0481414794922 128.21849060058594 155.33657836914062 127.6417236328125 156.26919555664062 126.7091064453125 C157.20179748535156 125.77650451660156 157.778564453125 124.48805236816406 157.778564453125 123.064697265625 C157.778564453125 121.52970886230469 157.1068115234375 120.15141296386719 156.0418701171875 119.20626831054688 L151.7610321044922 121.27218627929688 L147.48019409179688 123.33810424804688"></path></svg>