<svg xmlns="http://www.w3.org/2000/svg" viewBox="0.0 0.0 256.0 256.0" height="256.0px" width="256.0px"><path fill="#EEC2AB" fill-opacity="1.0"  filling="0" d="M136.90142822265625 83.02610778808594 C137.63525390625 82.54534149169922 138.61666870117188 81.4571533203125 139.67599487304688 80.09529113769531 C140.73533630371094 78.73343658447266 141.87258911132812 77.09791564941406 142.9181365966797 75.52249145507812 C143.9636688232422 73.94706726074219 144.91748046875 72.4317398071289 145.60989379882812 71.31027221679688 C146.3023223876953 70.18879699707031 146.73336791992188 69.461181640625 146.73336791992188 69.461181640625 C146.73336791992188 69.461181640625 145.96156311035156 68.67384338378906 144.8256072998047 67.49280548095703 C143.6896514892578 66.31177520751953 142.18954467773438 64.73705291748047 140.73297119140625 63.16229248046875 C139.27638244628906 61.58753204345703 137.86331176757812 60.012733459472656 136.90142822265625 58.83154296875 C136.18002319335938 57.9457893371582 135.20697021484375 56.76243209838867 134.1494598388672 55.47080993652344 C133.0919647216797 54.1791877746582 131.95001220703125 52.779300689697266 130.89080810546875 51.460487365722656 C129.83160400390625 50.14167022705078 128.85516357421875 48.90392303466797 128.12867736816406 47.936588287353516 C127.40217590332031 46.96925354003906 126.92562866210938 46.27232360839844 126.86624145507812 46.03514099121094 C126.74771118164062 45.560516357421875 126.76358795166016 43.77312088012695 126.79520416259766 41.97388458251953 C126.82682037353516 40.174652099609375 126.87417602539062 38.36357879638672 126.8186264038086 37.84159851074219 C126.7080307006836 36.79762268066406 127.53030395507812 36.781768798828125 127.89433288574219 37.84159851074219 C128.25836181640625 38.90144348144531 128.28961181640625 39.091400146484375 128.28961181640625 39.091400146484375 C128.28961181640625 39.091400146484375 128.74041748046875 38.01581573486328 129.1763916015625 36.765254974365234 C129.61236572265625 35.51469421386719 130.03347778320312 34.08915710449219 129.97409057617188 33.389251708984375 C129.85528564453125 31.98944091796875 130.87570190429688 32.91462707519531 130.89926147460938 34.40965270996094 C130.92282104492188 35.90419006347656 130.66220092773438 37.01933288574219 130.66220092773438 37.01933288574219 C130.66220092773438 37.01933288574219 131.9908447265625 36.378814697265625 132.94009399414062 34.69435119628906 C133.88934326171875 33.009857177734375 133.9364471435547 32.39289855957031 134.29229736328125 32.938690185546875 C134.64813232421875 33.48448181152344 134.3158416748047 35.85710144042969 133.60415649414062 36.52116394042969 C133.60415649414062 36.52116394042969 134.4581756591797 37.99212646484375 133.53298950195312 39.463104248046875 C132.60780334472656 40.93408203125 132.60780334472656 40.93408203125 132.60780334472656 40.93408203125 C132.60780334472656 40.93408203125 133.9364471435547 40.38829040527344 134.69573974609375 39.273162841796875 C135.45504760742188 38.15802001953125 135.73971557617188 40.19834899902344 134.41107177734375 41.47987365722656 C133.08242797851562 42.760894775390625 132.72659301757812 43.06962585449219 132.72659301757812 43.06962585449219 C132.72659301757812 43.06962585449219 133.1359405517578 43.70425033569336 133.48594665527344 44.64735412597656 C133.83596801757812 45.59046173095703 134.12664794921875 46.84204864501953 133.88934326171875 48.07597351074219 C133.88934326171875 48.07597351074219 134.4324188232422 48.54523468017578 135.3472137451172 49.33744430541992 C136.2620086669922 50.12965393066406 137.5485076904297 51.244808197021484 139.03538513183594 52.536590576171875 C140.52224731445312 53.82837677001953 142.20947265625 55.296791076660156 143.9257049560547 56.7955207824707 C145.6419219970703 58.29425048828125 147.38714599609375 59.82329559326172 148.99000549316406 61.23634338378906 C150.59286499023438 62.64938735961914 152.05337524414062 63.94643020629883 153.20016479492188 64.98115539550781 C154.34695434570312 66.01588439941406 155.18002319335938 66.78829193115234 155.5279998779297 67.15206909179688 C156.57196044921875 68.24339294433594 156.9752960205078 69.01446533203125 156.7973175048828 70.13555145263672 C156.61932373046875 71.25663757324219 155.8600311279297 72.72774505615234 154.57875061035156 75.21914672851562 C154.0662384033203 76.2155990600586 153.3024139404297 77.53813171386719 152.40830993652344 79.01646423339844 C151.5142059326172 80.49478912353516 150.48980712890625 82.12890625 149.45616149902344 83.74852752685547 C148.42250061035156 85.3681411743164 147.3795928955078 86.97325897216797 146.4484405517578 88.39359283447266 C145.5172882080078 89.81391906738281 144.69790649414062 91.04945373535156 144.11129760742188 91.9299087524414 C143.52468872070312 92.81036376953125 143.17088317871094 93.33573913574219 143.17088317871094 93.33573913574219 L141.08106994628906 89.89920043945312 L138.9912567138672 86.46265411376953 L136.90142822265625 83.02610778808594"></path>
<path fill="#DF9280" fill-opacity="1.0"  filling="0" d="M142.7771453857422 89.6478042602539 C142.68243408203125 89.6478042602539 142.60052490234375 89.57664489746094 142.58924865722656 89.48038482666016 C142.28871154785156 86.92858123779297 143.93478393554688 85.50931549072266 144.0049285888672 85.44992065429688 C144.0847930908203 85.38285827636719 144.2041015625 85.39308166503906 144.27220153808594 85.47296142578125 C144.33978271484375 85.5528335571289 144.3295440673828 85.67212677001953 144.24966430664062 85.74022674560547 C144.23379516601562 85.7535400390625 142.68960571289062 87.09395599365234 142.965576171875 89.43584442138672 C142.97836303710938 89.5397720336914 142.90362548828125 89.63397979736328 142.7996826171875 89.64627075195312"></path>
<path fill="#DF9280" fill-opacity="1.0"  filling="0" d="M131.3267822265625 45.070526123046875 C131.24435424804688 45.070526123046875 131.16806030273438 45.01625061035156 131.14453125 44.93280029296875 C130.55264282226562 42.86177062988281 128.59066772460938 42.457275390625 128.5072021484375 42.44140625 L128.37203979492188 42.41477966308594 L128.07046508789062 39.96846008300781 C128.05767822265625 39.86451721191406 128.1313934326172 39.769287109375 128.23533630371094 39.75648498535156 C128.33926391601562 39.741119384765625 128.43399047851562 39.817413330078125 128.44729614257812 39.92134094238281 L128.71609497070312 42.09991455078125 C129.21888732910156 42.23353576660156 130.939208984375 42.829498291015625 131.5100860595703 44.82733154296875 C131.53875732421875 44.928192138671875 131.48089599609375 45.03315734863281 131.38003540039062 45.06182861328125"></path>
<path fill="#DF9280" fill-opacity="1.0"  filling="0" d="M131.65907287597656 39.178436279296875 C131.61761474609375 39.178436279296875 131.5761260986328 39.165130615234375 131.54132080078125 39.13746643066406 C131.4593963623047 39.07246398925781 131.44505310058594 38.95265197753906 131.5100860595703 38.8707275390625 L133.2186279296875 36.71160888671875 C133.28466796875 36.62968444824219 133.40345764160156 36.6153564453125 133.48538208007812 36.68040466308594 C133.56729125976562 36.74540710449219 133.58163452148438 36.86521911621094 133.5166015625 36.9471435546875 L131.80859375 39.106231689453125 C131.77017211914062 39.153350830078125 131.7148895263672 39.178436279296875 131.65907287597656 39.178436279296875"></path>
<path fill="#EEC2AB" fill-opacity="1.0"  filling="0" d="M116.16595458984375 93.63066101074219 C115.18905639648438 94.08940887451172 114.40786743164062 94.40569305419922 113.35289764404297 94.61522674560547 C112.29792022705078 94.82476806640625 110.96915435791016 94.92755126953125 108.8970947265625 94.95928955078125 C107.5157241821289 94.98045349121094 105.79512023925781 94.97874450683594 104.09734344482422 94.96763610839844 C102.39956665039062 94.95652770996094 100.72462463378906 94.93600463867188 99.43457794189453 94.91954803466797 C98.14453125 94.90309143066406 97.23936462402344 94.89068603515625 97.08116149902344 94.89580535888672 C96.60653686523438 94.91117095947266 96.95469665527344 94.04179382324219 97.6663818359375 92.90259552001953 C97.84429931640625 92.617919921875 98.38505554199219 91.58387756347656 99.11762237548828 90.1565933227539 C99.85018920898438 88.72931671142578 100.7745590209961 86.90880584716797 101.71967315673828 85.05120086669922 C102.664794921875 83.193603515625 103.63066864013672 81.29891967773438 104.44624328613281 79.7232894897461 C105.2618179321289 78.14765930175781 105.92709350585938 76.89108276367188 106.27102661132812 76.30970001220703 C106.95915985107422 75.14720153808594 106.95033264160156 73.82445526123047 106.80429077148438 72.55802154541016 C106.65824127197266 71.29158782958984 106.3749771118164 70.08147430419922 106.51423645019531 69.14425659179688 C106.79277038574219 67.26983642578125 106.98272705078125 66.13114929199219 106.98272705078125 66.13114929199219 C106.98272705078125 66.13114929199219 105.53529357910156 66.17875671386719 104.96595764160156 67.81562805175781 C104.3966064453125 69.4530029296875 104.325439453125 70.2593994140625 104.325439453125 70.2593994140625 C104.325439453125 70.2593994140625 102.26106262207031 66.98515319824219 101.85810852050781 66.13114929199219 C101.45465087890625 65.27713012695312 100.67181396484375 62.00288391113281 100.00723266601562 62.429901123046875 C99.3426513671875 62.856903076171875 99.17677307128906 64.49427795410156 99.48550415039062 65.30067443847656 C99.48550415039062 65.30067443847656 98.82093811035156 62.21636962890625 98.1092529296875 62.501068115234375 C97.39756774902344 62.78572082519531 97.08883666992188 63.829681396484375 97.63462829589844 65.34828186035156 C97.63462829589844 65.34828186035156 95.76019287109375 63.54502868652344 95.40434265136719 64.0196533203125 C95.04852294921875 64.49427795410156 94.85856628417969 65.65702819824219 95.71258544921875 66.74809265136719 C95.71258544921875 66.74809265136719 94.90565490722656 67.15155029296875 95.33319091796875 68.50375366210938 C95.54669189453125 69.17984771728516 96.44230651855469 70.0754623413086 97.28455352783203 70.80205535888672 C98.12680053710938 71.52864074707031 98.91566467285156 72.08621215820312 98.91566467285156 72.08621215820312 C98.91566467285156 72.08621215820312 101.09831237792969 75.83507537841797 100.95596313476562 76.30970001220703 C100.93224334716797 76.38880157470703 100.63780212402344 76.76753997802734 100.14362335205078 77.39759063720703 C99.64945220947266 78.02764129638672 98.95555114746094 78.90901184082031 98.1329116821289 79.99337005615234 C97.31027221679688 81.07772827148438 96.35888671875 82.36508178710938 95.34976196289062 83.8071060180664 C94.34062957763672 85.24913024902344 93.27375030517578 86.84583282470703 92.22010803222656 88.54888916015625 C91.16647338867188 90.25193786621094 90.12606811523438 92.06134796142578 89.16990661621094 93.92878723144531 C88.21373748779297 95.79623413085938 87.34180450439453 97.72171020507812 86.62509155273438 99.65689849853516 C86.15046691894531 100.93817901611328 85.93696594238281 101.64998626708984 86.44122314453125 102.11859130859375 C86.94548034667969 102.58720397949219 88.16749572753906 102.81260681152344 90.56390380859375 103.12108612060547 C91.36270904541016 103.22391510009766 92.61214447021484 103.37953186035156 94.13981628417969 103.56748962402344 C95.66748046875 103.75544738769531 97.47338104248047 103.97574615478516 99.38511657714844 104.20793151855469 C101.29684448242188 104.44011688232422 103.31441497802734 104.6841812133789 105.26541137695312 104.91968536376953 C107.2164077758789 105.15518188476562 109.10083770751953 105.38211059570312 110.74629974365234 105.58001708984375 C112.39176177978516 105.77792358398438 113.79825592041016 105.94680786132812 114.79338836669922 106.06621551513672 C115.78852081298828 106.18562316894531 116.37228393554688 106.25555419921875 116.37228393554688 106.25555419921875 L116.30351257324219 102.04725646972656 L116.23473358154297 97.83895874023438 L116.16595458984375 93.63066101074219"></path>
<path fill="#DF9280" fill-opacity="1.0"  filling="0" d="M102.80787658691406 74.93446350097656 C102.80326843261719 74.93446350097656 102.79866027832031 74.93446350097656 102.79403686523438 74.9339599609375 C102.68910217285156 74.92678833007812 102.61074829101562 74.83564758300781 102.617919921875 74.73121643066406 C102.81044006347656 72.0406494140625 103.90048217773438 70.78009033203125 103.94656372070312 70.72787475585938 C104.01568603515625 70.6495361328125 104.13548278808594 70.64134216308594 104.21383666992188 70.71096801757812 C104.29266357421875 70.78009033203125 104.29985046386719 70.89990234375 104.230712890625 70.97874450683594 C104.22047424316406 70.99102783203125 103.17855834960938 72.20652770996094 102.99679565429688 74.75782775878906 C102.9896240234375 74.85816955566406 102.90617370605469 74.93446350097656 102.80787658691406 74.93446350097656"></path>
<path fill="#DF9280" fill-opacity="1.0"  filling="0" d="M115.28327941894531 103.31104278564453 C115.23820495605469 103.31104278564453 115.19264221191406 103.295166015625 115.15679931640625 103.2629165649414 C114.34579467773438 102.53766632080078 112.9947509765625 102.21702575683594 111.841796875 102.07788848876953 C110.68883514404297 101.93875122070312 109.73395538330078 101.98112487792969 109.71527099609375 101.98189544677734 C109.61491394042969 101.99417877197266 109.52171325683594 101.9061050415039 109.5166015625 101.80166625976562 C109.511474609375 101.69721984863281 109.59237670898438 101.60761260986328 109.69683837890625 101.60301208496094 C109.7777328491211 101.59890747070312 110.77178192138672 101.55513763427734 111.96269226074219 101.70636749267578 C113.15360260009766 101.85760498046875 114.54137420654297 102.20384216308594 115.40971374511719 102.97977447509766 C115.48806762695312 103.04991912841797 115.49472045898438 103.16973114013672 115.42509460449219 103.24755096435547 C115.38772583007812 103.28954315185547 115.33547973632812 103.31104278564453 115.28327941894531 103.31104278564453"></path>
<path fill="#DF9280" fill-opacity="1.0"  filling="0" d="M110.84524536132812 103.69094848632812 C110.77766418457031 103.69094848632812 110.71162414550781 103.65408325195312 110.67784118652344 103.590087890625 C110.628662109375 103.49740600585938 110.66400146484375 103.38220977783203 110.75666809082031 103.33357238769531 L113.25984191894531 102.00390625 C113.35200500488281 101.95423889160156 113.46720886230469 101.99008178710938 113.51634216308594 102.08274841308594 C113.56550598144531 102.1754150390625 113.53016662597656 102.2906265258789 113.4375 102.33927154541016 L110.93434143066406 103.66841888427734"></path>
<path fill="#DF9280" fill-opacity="1.0"  filling="0" d="M100.57710266113281 68.480712890625 C100.50234985351562 68.480712890625 100.43116760253906 68.4361572265625 100.40147399902344 68.36244201660156 L99.35749816894531 65.79988098144531 C99.31808471679688 65.70259094238281 99.36466979980469 65.592529296875 99.46144104003906 65.55258178710938 C99.55769348144531 65.51213073730469 99.66879272460938 65.55923461914062 99.70872497558594 65.65652465820312 L100.75271606445312 68.21907043457031 C100.79212951660156 68.31634521484375 100.74552917480469 68.42694091796875 100.64877319335938 68.46636962890625"></path>
<path fill="#DF9280" fill-opacity="1.0"  filling="0" d="M98.77383422851562 67.95846557617188 C98.70317077636719 67.95846557617188 98.63456726074219 67.91853332519531 98.60231018066406 67.84991455078125 L97.74827575683594 66.04666137695312 C97.70323181152344 65.95193481445312 97.74368286132812 65.83877563476562 97.83891296386719 65.79371643066406 C97.93312072753906 65.74969482421875 98.04627990722656 65.78912353515625 98.09184265136719 65.88433837890625 L98.94586181640625 67.6876220703125 C98.99090576171875 67.7823486328125 98.95046997070312 67.89547729492188 98.855224609375 67.94053649902344"></path>
<path fill="#DF9280" fill-opacity="1.0"  filling="0" d="M98.34681701660156 70.09402465820312 C98.29356384277344 70.09402465820312 98.24134826660156 70.07200622558594 98.20396423339844 70.02900695800781 L95.68902587890625 67.13414001464844 C95.61990356445312 67.05477905273438 95.62860107421875 66.93496704101562 95.70745849609375 66.86637878417969 C95.78631591796875 66.79673767089844 95.90715026855469 66.80647277832031 95.97523498535156 66.88479614257812 L98.49017333984375 69.7796630859375 C98.55929565429688 69.8590087890625 98.55059814453125 69.97882080078125 98.47175598144531 70.04742431640625 C98.43539428710938 70.07865905761719 98.39083862304688 70.09402465820312 98.34681701660156 70.09402465820312"></path>
<path fill="#EEC2AB" fill-opacity="1.0"  filling="0" d="M123.48908996582031 81.19827270507812 L123.99136352539062 84.99449157714844 L124.49363708496094 88.79071807861328 C124.49363708496094 88.79071807861328 123.0346908569336 89.66854858398438 121.2642593383789 90.71251678466797 C119.49382019042969 91.75648498535156 117.41190338134766 92.96659851074219 116.16595458984375 93.63116455078125 C115.54297637939453 93.96332550048828 115.17266845703125 94.94795989990234 115.00865173339844 96.26551818847656 C114.84463500976562 97.58306884765625 114.88690948486328 99.23353576660156 115.08908081054688 100.8973388671875 C115.291259765625 102.56114196777344 115.6533432006836 104.23829650878906 116.12894439697266 105.6092300415039 C116.60453796386719 106.98015594482422 117.19366455078125 108.04486083984375 117.84991455078125 108.48377227783203 C117.99208068847656 108.5788345336914 118.01313018798828 109.96556091308594 117.97801208496094 111.77227783203125 C117.94288635253906 113.57899475097656 117.85160064697266 115.80570220947266 117.76908874511719 117.58073425292969 C117.68658447265625 119.35575866699219 117.61285400390625 120.67910766601562 117.61285400390625 120.67910766601562 C117.61285400390625 120.67910766601562 117.98721313476562 120.78324127197266 118.66144561767578 120.92340850830078 C119.33568572998047 121.0635757446289 120.30979919433594 121.2397689819336 121.50932312011719 121.3838882446289 C122.70884704589844 121.52800750732422 124.13377380371094 121.64004516601562 125.7096176147461 121.65190887451172 C127.28546905517578 121.66377258300781 129.0122528076172 121.57544708251953 130.8154754638672 121.31884002685547 C132.61871337890625 121.0622329711914 134.49838256835938 120.63734436035156 136.38003540039062 119.97605895996094 C138.26168823242188 119.31477355957031 140.14529418945312 118.41709899902344 141.9564208984375 117.21492004394531 C141.9564208984375 117.21492004394531 142.027587890625 116.32221221923828 142.13656616210938 114.9208755493164 C142.2455596923828 113.51953887939453 142.39236450195312 111.60957336425781 142.5436248779297 109.57504272460938 C142.69488525390625 107.54051208496094 142.85061645507812 105.38142395019531 142.9774627685547 103.48184967041016 C143.1042938232422 101.582275390625 143.20223999023438 99.94221496582031 143.2379608154297 98.94573211669922 C143.27354431152344 97.94924926757812 143.2953338623047 96.51974487304688 143.24398803710938 94.90857696533203 C143.192626953125 93.29740905761719 143.06813049316406 91.50457763671875 142.81114196777344 89.78144073486328 C142.55413818359375 88.05830383300781 142.16465759277344 86.40486907958984 141.58331298828125 85.0724868774414 C141.00198364257812 83.74009704589844 140.22879028320312 82.72877502441406 139.20440673828125 82.28985595703125 C138.87213134765625 82.14752197265625 137.02151489257812 82.94239807128906 135.2539520263672 83.77286529541016 C133.48638916015625 84.60333251953125 131.80191040039062 85.46937561035156 131.80191040039062 85.46937561035156 L130.1409912109375 81.90278625488281 L128.48007202148438 78.33619689941406 L125.98458099365234 79.7672348022461 L123.48908996582031 81.19827270507812"></path>
<path fill="#DF9280" fill-opacity="1.0"  filling="0" d="M124.86688232421875 83.7004165649414 C124.79571533203125 83.7004165649414 124.72454833984375 83.69939422607422 124.65338134765625 83.69632720947266 C124.4439697265625 83.68864440917969 124.2806396484375 83.51200103759766 124.288330078125 83.30259704589844 C124.29652404785156 83.09318542480469 124.47416687011719 82.92166900634766 124.68203735351562 82.93804168701172 C125.44185638427734 82.96415710449219 126.2042236328125 82.81671142578125 126.88160705566406 82.50489807128906 C127.62451934814453 82.16390991210938 128.22201538085938 81.5976333618164 128.65773010253906 80.82196044921875 C128.7601318359375 80.63865661621094 128.99053955078125 80.57363891601562 129.17486572265625 80.67705535888672 C129.35763549804688 80.77996826171875 129.42266845703125 81.01139831542969 129.31973266601562 81.19417572021484 C128.80313110351562 82.11219787597656 128.0899200439453 82.78495788574219 127.19904327392578 83.19456481933594 C126.4781494140625 83.52685546875 125.67584228515625 83.7004165649414 124.86688232421875 83.7004165649414"></path>
<path fill="#DF9280" fill-opacity="1.0"  filling="0" d="M119.00959777832031 107.67584228515625 C118.97325134277344 107.67584228515625 118.95327758789062 107.67533111572266 118.95021057128906 107.67533111572266 C118.84577941894531 107.67122650146484 118.76383972167969 107.58316802978516 118.7679443359375 107.47872161865234 C118.77151489257812 107.37427520751953 118.84268188476562 107.30054473876953 118.96453857421875 107.29593658447266 C118.97989654541016 107.29850006103516 119.53308868408203 107.31266021728516 120.4630126953125 107.16228485107422 C121.3929443359375 107.01190948486328 122.69960021972656 106.69699096679688 124.22191619873047 106.0413818359375 C125.74422454833984 105.38578033447266 127.482177734375 104.38948059082031 129.27468872070312 102.87635803222656 C129.35455322265625 102.8097915649414 129.474365234375 102.81951904296875 129.54196166992188 102.89888763427734 C129.61004638671875 102.97875213623047 129.59930419921875 103.09856414794922 129.5194091796875 103.16614532470703 C127.79448699951172 104.62244415283203 126.11632537841797 105.60895538330078 124.62388610839844 106.27706146240234 C123.1314468383789 106.94515991210938 121.8247299194336 107.29486083984375 120.84268951416016 107.47753143310547 C119.86065673828125 107.66020202636719 119.20330810546875 107.67584228515625 119.00959777832031 107.67584228515625"></path>
<path fill="#DF9280" fill-opacity="1.0"  filling="0" d="M134.27999877929688 101.60608673095703 C134.14840698242188 101.60608673095703 134.07571411132812 101.60301208496094 134.07058715820312 101.60249328613281 C133.96563720703125 101.597900390625 133.88473510742188 101.50931549072266 133.88986206054688 101.40435791015625 C133.89447021484375 101.29940032958984 133.98458862304688 101.20825958251953 134.0880126953125 101.22361755371094 C134.10899353027344 101.223876953125 135.15219116210938 101.26329803466797 136.6917724609375 101.01708984375 C138.23135375976562 100.77088165283203 140.267333984375 100.23904418945312 142.27386474609375 99.09677124023438 C142.3639678955078 99.04454040527344 142.48019409179688 99.07678985595703 142.53240966796875 99.16793823242188 C142.58413696289062 99.25856018066406 142.55238342285156 99.3747787475586 142.46124267578125 99.4264907836914 C140.66566467285156 100.44869995117188 138.84652709960938 100.99360656738281 137.3632049560547 101.28295135498047 C135.8798828125 101.57229614257812 134.73236083984375 101.60608673095703 134.27999877929688 101.60608673095703"></path>
<path fill="#DF9280" fill-opacity="1.0"  filling="0" d="M131.5638427734375 118.6551742553711 C131.5638427734375 118.98694610595703 131.4363555908203 119.2557373046875 131.2791748046875 119.2557373046875 C131.12197875976562 119.2557373046875 130.99449157714844 118.98694610595703 130.99449157714844 118.6551742553711 C130.99449157714844 118.32339477539062 131.12197875976562 118.05459594726562 131.2791748046875 118.05459594726562 C131.4363555908203 118.05459594726562 131.5638427734375 118.32339477539062 131.5638427734375 118.6551742553711"></path>
<path fill="#DF9280" fill-opacity="1.0"  filling="0" d="M116.01133728027344 105.44403076171875 C115.93606567382812 105.44403076171875 115.8643798828125 105.39897918701172 115.83468627929688 105.32423400878906 C115.15245056152344 103.60672760009766 114.88505554199219 101.48973083496094 114.7898941040039 99.77555847167969 C114.6947250366211 98.0613784790039 114.77178192138672 96.75001525878906 114.7784423828125 96.64376831054688 C114.78459167480469 96.53933715820312 114.8629150390625 96.45945739746094 114.97966003417969 96.46610260009766 C115.08409118652344 96.47277069091797 115.16397094726562 96.5628890991211 115.15731811523438 96.6673355102539 C115.155517578125 96.69293212890625 115.07986450195312 97.9832992553711 115.1712646484375 99.68665313720703 C115.26264953613281 101.3900146484375 115.52108764648438 103.50636291503906 116.18745422363281 105.1839370727539 C116.22586059570312 105.28173065185547 116.17875671386719 105.39179992675781 116.08096313476562 105.43071746826172"></path>
<path fill="#DF9280" fill-opacity="1.0"  filling="0" d="M143.03109741210938 91.76441955566406 C142.93484497070312 91.76441955566406 142.8524169921875 91.69120788574219 142.84268188476562 91.5934066772461 C142.65170288085938 89.67135620117188 142.35769653320312 88.03398132324219 141.9634552001953 86.69068908691406 C141.5692138671875 85.34739685058594 141.0747528076172 84.29817962646484 140.48287963867188 83.55245208740234 C140.41734313964844 83.47053527832031 140.43116760253906 83.35122680664062 140.51361083984375 83.28569793701172 C140.59552001953125 83.22066497802734 140.71481323242188 83.23346710205078 140.78036499023438 83.31642150878906 C141.395263671875 84.0913314819336 141.9080352783203 85.1717758178711 142.31564331054688 86.54815673828125 C142.7232666015625 87.92454528808594 143.02572631835938 89.59686279296875 143.22003173828125 91.5555191040039 C143.2302703857422 91.65997314453125 143.15447998046875 91.75314331054688 143.050048828125 91.76339721679688"></path>
<path fill="#EEC2AB" fill-opacity="1.0"  filling="0" d="M134.6245880126953 148.1304931640625 C134.6245880126953 148.1304931640625 135.02349853515625 148.78741455078125 135.618896484375 149.82322692871094 C136.21429443359375 150.85903930664062 137.0061798095703 152.2737274169922 137.79212951660156 153.78924560546875 C138.57809448242188 155.3047637939453 139.3581085205078 156.92111206054688 139.9297637939453 158.36026000976562 C140.5014190673828 159.7993927001953 140.86471557617188 161.06130981445312 140.81723022460938 161.8679656982422 C140.76974487304688 162.67462158203125 140.55616760253906 163.65330505371094 140.2462158203125 164.8144073486328 C139.93626403808594 165.9755096435547 139.52992248535156 167.3190155029297 139.09690856933594 168.8553009033203 C138.66387939453125 170.39158630371094 138.20416259765625 172.1206512451172 137.78746032714844 174.05288696289062 C137.37074279785156 175.985107421875 136.99703979492188 178.12051391601562 136.73605346679688 180.4694366455078 C136.5272674560547 182.3485870361328 136.29188537597656 184.45550537109375 136.04891967773438 186.62393188476562 C135.80593872070312 188.7923583984375 135.5553741455078 191.02227783203125 135.31617736816406 193.14743041992188 C135.07699584960938 195.2725830078125 134.8491973876953 197.29295349121094 134.65176391601562 199.04226684570312 C134.454345703125 200.79159545898438 134.28729248046875 202.2698516845703 134.16958618164062 203.310791015625 C134.05189514160156 204.3517303466797 133.98355102539062 204.95533752441406 133.98355102539062 204.95533752441406 L135.8815460205078 207.32794189453125 L138.159423828125 205.71463012695312 C138.159423828125 205.71463012695312 138.29527282714844 205.27392578125 138.53822326660156 204.48629760742188 C138.7811737060547 203.69866943359375 139.1312255859375 202.5641326904297 139.55963134765625 201.17645263671875 C139.988037109375 199.7887725830078 140.49478149414062 198.14796447753906 141.0511474609375 196.34780883789062 C141.6074981689453 194.5476531982422 142.2134552001953 192.588134765625 142.8402557373047 190.5630645751953 C143.46705627441406 188.53799438476562 144.11471557617188 186.44735717773438 144.7544708251953 184.38494873046875 C145.39422607421875 182.32254028320312 146.02609252929688 180.28836059570312 146.6212921142578 178.3761749267578 C147.2165069580078 176.46400451660156 147.77505493164062 174.673828125 148.26821899414062 173.09947204589844 C148.76138305664062 171.5251007080078 149.18914794921875 170.16653442382812 149.52276611328125 169.11753845214844 C149.85638427734375 168.06854248046875 150.09585571289062 167.32913208007812 150.21241760253906 166.99310302734375 C150.48130798339844 166.218017578125 150.55775451660156 164.94578552246094 150.49842834472656 163.36363220214844 C150.43911743164062 161.781494140625 150.24403381347656 159.8894500732422 149.96986389160156 157.87474060058594 C149.69569396972656 155.86004638671875 149.3424530029297 153.72268676757812 148.96678161621094 151.64991760253906 C148.59112548828125 149.5771484375 148.19305419921875 147.5689697265625 147.8292694091797 145.8126220703125 C147.46548461914062 144.0562744140625 147.13595581054688 142.55178833007812 146.89736938476562 141.48635864257812 C146.65879821777344 140.4209442138672 146.51116943359375 139.79461669921875 146.51116943359375 139.79461669921875 L142.54898071289062 142.5732421875 L138.5867919921875 145.35186767578125 L134.6245880126953 148.1304931640625"></path>
<path fill="#FF664D" fill-opacity="1.0"  filling="0" d="M144.66285705566406 223.1282501220703 C144.66285705566406 223.1359405517578 144.65516662597656 223.15078735351562 144.65516662597656 223.15846252441406 C144.44625854492188 223.82662963867188 142.85369873046875 224.07711791992188 141.11404418945312 223.84173583984375 C139.3743896484375 223.60633850097656 137.4876708984375 222.8850555419922 136.69049072265625 221.60964965820312 C135.8817901611328 220.33042907714844 135.31231689453125 219.28646850585938 134.7315216064453 218.31936645507812 C134.15072631835938 217.35226440429688 133.55859375 216.46200561523438 132.70458984375 215.490234375 C131.85057067871094 214.51846313476562 131.0078125 213.13095092773438 130.46778869628906 211.86770629882812 C129.92774963378906 210.60447692871094 129.6904296875 209.4655303955078 130.04730224609375 208.99090576171875 C130.12307739257812 208.89208984375 130.22189331054688 208.76307678222656 130.34323120117188 208.61868286132812 C131.31500244140625 207.39602661132812 133.5550079345703 204.81504821777344 133.5550079345703 204.81504821777344 C133.5550079345703 204.81504821777344 133.51712036132812 203.8130645751953 134.10951232910156 203.85862731933594 C134.10951232910156 203.85862731933594 135.0510711669922 205.0280303955078 136.14419555664062 205.45297241210938 C137.2373046875 205.87796020507812 137.51840209960938 204.29127502441406 138.96890258789062 204.54931640625 C140.41171264648438 204.81504821777344 139.6826171875 205.52877807617188 139.6826171875 205.52877807617188 C139.6826171875 205.52877807617188 139.3732452392578 206.45318603515625 139.3608856201172 208.03622436523438 C139.34854125976562 209.6192626953125 139.63320922851562 211.86093139648438 140.82131958007812 214.49542236328125 C142.0055694580078 217.1301727294922 143.04953002929688 218.94482421875 143.75564575195312 220.27256774902344 C144.46176147460938 221.60031127929688 144.83001708984375 222.44114685058594 144.66285705566406 223.1282501220703"></path>
<path fill="#EEC2AB" fill-opacity="1.0"  filling="0" d="M112.82003784179688 143.8046112060547 L109.7513656616211 145.25970458984375 L106.68269348144531 146.71481323242188 L110.77426147460938 148.67630004882812 L114.8658218383789 150.6377716064453 L118.95738220214844 152.5992431640625 L121.67814636230469 155.63641357421875 L118.57798767089844 158.420166015625 L116.36360168457031 156.77511596679688 C116.36360168457031 156.77511596679688 115.76428985595703 156.73997497558594 114.74493408203125 156.68052673339844 C113.72557830810547 156.62107849121094 112.28617095947266 156.5373077392578 110.60598754882812 156.44007873535156 C108.92579650878906 156.34283447265625 107.00482940673828 156.2321319580078 105.0223388671875 156.11878967285156 C103.03984832763672 156.0054473876953 100.99584197998047 155.88946533203125 99.06958770751953 155.78167724609375 C97.14332580566406 155.67388916015625 95.33480834960938 155.5742950439453 93.82331085205078 155.49374389648438 C92.31180572509766 155.41317749023438 91.09732055664062 155.35165405273438 90.35910034179688 155.32000732421875 C88.8828353881836 155.25668334960938 87.23078918457031 155.01763916015625 85.81774139404297 154.5677032470703 C84.40469360351562 154.11776733398438 83.23065948486328 153.45693969726562 82.71043395996094 152.55007934570312 C82.19020080566406 151.64321899414062 82.32377624511719 150.49029541015625 83.52595520019531 149.05618286132812 C84.37423706054688 148.0442657470703 85.59942626953125 146.8524932861328 87.01683807373047 145.59329223632812 C88.43424987792969 144.33407592773438 90.04387664794922 143.0074462890625 91.6610336303711 141.72576904296875 C93.27818298339844 140.44410705566406 94.9028549194336 139.20742797851562 96.35034942626953 138.12814331054688 C97.79784393310547 137.04885864257812 99.06816101074219 136.12698364257812 99.97660827636719 135.4749298095703 C100.88505554199219 134.8228759765625 101.43162536621094 134.44064331054688 101.43162536621094 134.44064331054688 L105.22776794433594 137.5619659423828 L109.02391052246094 140.68328857421875 L112.82003784179688 143.8046112060547"></path>
<path fill="#DF9280" fill-opacity="1.0"  filling="0" d="M98.96377563476562 150.6377716064453 C98.8946533203125 150.6377716064453 98.82759094238281 150.599365234375 98.79379272460938 150.53228759765625 C98.74720764160156 150.43911743164062 98.78509521484375 150.32492065429688 98.8787841796875 150.27783203125 L102.42208099365234 148.50656127929688 L105.96537780761719 146.73529052734375 C106.05906677246094 146.6902313232422 106.1727294921875 146.72659301757812 106.2198486328125 146.82080078125 C106.26643371582031 146.9139862060547 106.22854614257812 147.0281524658203 106.13484191894531 147.0752716064453 L102.59154510498047 148.84652709960938 L99.04824829101562 150.6177978515625"></path>
<path fill="#FF664D" fill-opacity="1.0"  filling="0" d="M124.54278564453125 174.06585693359375 C124.29959106445312 174.1339569091797 124.06459045410156 174.1795196533203 123.83673095703125 174.21023559570312 C121.8245849609375 174.43807983398438 120.56454467773438 172.9727325439453 120.64799499511719 171.68966674804688 C120.84801483154297 168.6855926513672 120.59326934814453 166.30831909179688 120.16471099853516 164.4737548828125 C119.73614501953125 162.6392059326172 119.13377380371094 161.34738159179688 118.63853454589844 160.51419067382812 C118.14329528808594 159.68099975585938 117.75520324707031 159.3064422607422 117.75520324707031 159.3064422607422 L116.44192504882812 158.78265380859375 C115.95603942871094 158.5850372314453 115.74354553222656 158.01568603515625 115.97856140136719 157.55282592773438 L116.36563110351562 156.77816772460938 C116.36563110351562 156.77816772460938 117.89906311035156 157.408447265625 118.74949645996094 155.88986206054688 C119.60762023925781 154.3712615966797 118.95481872558594 152.602294921875 118.95481872558594 152.602294921875 C118.95481872558594 152.602294921875 120.20755767822266 152.74847412109375 121.67475891113281 152.9525146484375 C123.14196014404297 153.1565399169922 124.82362365722656 153.41842651367188 125.68147277832031 153.6498565673828 C126.00812530517578 153.73330688476562 126.21292877197266 153.8167724609375 126.25081634521484 153.89306640625 C126.4962387084961 154.38662719726562 126.44560241699219 155.32643127441406 126.30416107177734 156.4954071044922 C126.1627197265625 157.66436767578125 125.93045806884766 159.06251525878906 125.8126220703125 160.47274780273438 C125.69477844238281 161.8829803466797 125.69136810302734 163.30532836914062 126.00761413574219 164.52268981933594 C126.76716613769531 167.43775939941406 126.40095520019531 169.82354736328125 125.84486389160156 171.48057556152344 C125.28877258300781 173.13760375976562 124.54278564453125 174.06585693359375 124.54278564453125 174.06585693359375"></path>
<path fill="#394363" fill-opacity="1.0"  filling="0" d="M117.60568237304688 122.23251342773438 C117.60568237304688 122.23251342773438 117.59557342529297 123.07002258300781 116.97650146484375 124.23175048828125 C116.35743713378906 125.39347839355469 115.12940216064453 126.87943267822266 112.69355773925781 128.17633056640625 C111.06967163085938 129.0410919189453 109.18563079833984 130.01832580566406 107.39530181884766 130.9369659423828 C105.60497283935547 131.85560607910156 103.90835571289062 132.7156524658203 102.6593246459961 133.34603881835938 C101.41029357910156 133.97640991210938 100.60884094238281 134.37713623046875 100.60884094238281 134.37713623046875 C100.60884094238281 134.37713623046875 100.93309783935547 135.03355407714844 101.52031707763672 136.0448760986328 C102.1075439453125 137.0561981201172 102.95773315429688 138.42242431640625 104.00960540771484 139.842041015625 C105.06147766113281 141.26165771484375 106.31503295898438 142.73468017578125 107.70896911621094 143.95956420898438 C109.10291290283203 145.18446350097656 110.63725280761719 146.16122436523438 112.25068664550781 146.58836364746094 L115.73062896728516 144.57952880859375 L119.21056365966797 142.57069396972656 L122.69050598144531 140.56185913085938 L126.17044067382812 138.5530242919922 L128.70126342773438 142.15939331054688 L131.23207092285156 145.7657470703125 L133.76287841796875 149.37210083007812 C133.76287841796875 149.37210083007812 134.30857849121094 149.1783447265625 135.20916748046875 148.80960083007812 C136.10977172851562 148.44085693359375 137.3652801513672 147.89712524414062 138.78489685058594 147.1971893310547 C140.2045135498047 146.49725341796875 141.78823852539062 145.64111328125 143.3452911376953 144.6475372314453 C144.90234375 143.65396118164062 146.43270874023438 142.52294921875 147.74560546875 141.27328491210938 L146.56903076171875 136.7495574951172 L145.3924560546875 132.22584533691406 L144.21588134765625 127.70211029052734 L143.03929138183594 123.17839050292969 L141.8627166748047 118.65465545654297 L137.60562133789062 119.86724853515625 L133.3485107421875 121.079833984375 L129.09140014648438 122.29241943359375 L125.26283264160156 122.27245330810547 L121.43426513671875 122.25248718261719 L117.60568237304688 122.23251342773438"></path>
<path fill="#BC2E61" fill-opacity="1.0"  filling="0" d="M117.60568237304688 122.23251342773438 C117.60568237304688 122.23251342773438 117.40574645996094 123.05414581298828 116.73919677734375 124.12096405029297 C116.07263946533203 125.18777465820312 114.93946075439453 126.4997787475586 113.07296752929688 127.48051452636719 C111.8286361694336 128.13433837890625 110.22578430175781 128.84437561035156 108.64169311523438 129.50048828125 C107.05760192871094 130.1566162109375 105.49226379394531 130.75881958007812 104.32295227050781 131.19699096679688 C103.15363311767578 131.63516235351562 102.38034057617188 131.90931701660156 102.38034057617188 131.90931701660156 C102.38034057617188 131.90931701660156 103.29771423339844 132.43130493164062 104.59474182128906 133.4436492919922 C105.89176940917969 134.4560089111328 107.56844329833984 135.95872497558594 109.0870361328125 137.92019653320312 C109.0870361328125 137.92019653320312 109.79706573486328 137.6389923095703 110.83282470703125 137.16796875 C111.86857604980469 136.6969451904297 113.23006439208984 136.03610229492188 114.53296661376953 135.27682495117188 C115.83587646484375 134.51754760742188 117.0802001953125 133.65985107421875 117.88165283203125 132.79507446289062 C117.88165283203125 132.79507446289062 117.51788330078125 133.6333465576172 116.4185562133789 134.8275146484375 C115.31922912597656 136.02169799804688 113.4843521118164 137.57177734375 110.54214477539062 138.99539184570312 L113.13645935058594 142.6019287109375 C113.13645935058594 142.6019287109375 113.7832260131836 142.39804077148438 114.74635314941406 141.985595703125 C115.70948791503906 141.57315063476562 116.98896789550781 140.9521484375 118.25440979003906 140.11793518066406 C119.51984405517578 139.28372192382812 120.77122497558594 138.23626708984375 121.67814636230469 136.970947265625 C121.67814636230469 136.970947265625 121.20710754394531 138.28665161132812 120.35289764404297 139.82354736328125 C119.49868774414062 141.36044311523438 118.26131439208984 143.1185302734375 116.72865295410156 144.00326538085938 C116.72865295410156 144.00326538085938 118.76742553710938 146.2084503173828 121.17178344726562 145.06976318359375 L123.07002258300781 141.30502319335938 L124.96826171875 137.540283203125 L125.9383316040039 140.78823852539062 L126.90839385986328 144.03619384765625 L127.87845611572266 147.28414916992188 L129.09088134765625 146.77780151367188 L130.15635681152344 149.05569458007812 C130.15635681152344 149.05569458007812 131.40602111816406 148.54957580566406 132.8375701904297 147.87738037109375 C134.2691192626953 147.20518493652344 135.882568359375 146.36691284179688 136.610107421875 145.7025909423828 L135.32882690429688 142.1278076171875 L134.04754638671875 138.5530242919922 L132.76626586914062 134.97824096679688 L131.4849853515625 131.40345764160156 L133.4462890625 135.41055297851562 L135.4075927734375 139.41763305664062 L137.368896484375 143.42471313476562 L141.29183959960938 140.95736694335938 L140.08966064453125 137.01344299316406 L138.88748168945312 133.06951904296875 L137.685302734375 129.12557983398438 L139.66778564453125 132.90072631835938 L141.65025329589844 136.67587280273438 L143.63272094726562 140.45101928710938 C143.63272094726562 140.45101928710938 144.96136474609375 140.0081329345703 146.3770294189453 139.38336181640625 C147.79270935058594 138.7585906982422 149.29542541503906 137.95193481445312 149.64358520507812 137.22439575195312 L148.08731079101562 133.51055908203125 L146.53103637695312 129.7967071533203 L144.97476196289062 126.08287048339844 L143.41848754882812 122.3690185546875 L141.86221313476562 118.6551742553711 L137.6051025390625 119.86776733398438 L133.34799194335938 121.08035278320312 L129.09088134765625 122.29293060302734 L125.26248931884766 122.27279663085938 L121.43408966064453 122.25265502929688 L117.60568237304688 122.23251342773438"></path>
<path fill="#EA5482" fill-opacity="1.0"  filling="0" d="M148.56787109375 131.2135009765625 L146.33265686035156 127.0272216796875 L144.09744262695312 122.8409423828125 L141.86221313476562 118.65465545654297 L138.5083465576172 119.5875244140625 L135.15447998046875 120.5203857421875 L130.95941162109375 120.9530258178711 L126.76434326171875 121.38566589355469 L122.56927490234375 121.81830596923828 L118.37420654296875 122.25094604492188 L117.60568237304688 122.23251342773438 C117.60568237304688 122.23251342773438 117.23562622070312 122.89293670654297 116.43756866455078 123.70671844482422 C115.63951110839844 124.52049255371094 114.41346740722656 125.48762512207031 112.70149230957031 126.10103607177734 C110.98951721191406 126.71444702148438 108.79161071777344 126.97415161132812 106.04985046386719 126.37305450439453 C106.04985046386719 126.37305450439453 106.37804412841797 127.19161987304688 107.04434967041016 128.0220184326172 C107.71065521240234 128.8524169921875 108.71507263183594 129.69467163085938 110.06752014160156 129.7420196533203 C110.06752014160156 129.7420196533203 110.95929718017578 129.6412811279297 112.2054443359375 129.16384887695312 C113.45158386230469 128.6864013671875 115.05209350585938 127.83226013183594 116.46955871582031 126.325439453125 C115.87513732910156 127.45030212402344 115.04788208007812 128.62815856933594 113.90746307373047 129.59429931640625 C112.76705169677734 130.56045532226562 111.31348419189453 131.31488037109375 109.46644592285156 131.5928955078125 C109.46644592285156 131.5928955078125 110.79505920410156 135.26239013671875 110.98503112792969 135.19943237304688 C111.04834747314453 135.1782684326172 111.7724838256836 134.97557067871094 112.81060791015625 134.5410919189453 C113.8487319946289 134.1066131591797 115.20085144042969 133.4403533935547 116.5201187133789 132.49205017089844 C117.83939361572266 131.5437469482422 119.12582397460938 130.31341552734375 120.03257751464844 128.75079345703125 C120.03257751464844 128.75079345703125 119.80058288574219 129.4883575439453 119.2499008178711 130.55145263671875 C118.69921875 131.61456298828125 117.829833984375 133.00318908691406 116.55506896972656 134.3053436279297 C115.28030395507812 135.60748291015625 113.60014343261719 136.82315063476562 111.42790222167969 137.540283203125 L114.08518981933594 140.38751220703125 C114.08518981933594 140.38751220703125 114.80227661132812 140.21177673339844 115.847412109375 139.77593994140625 C116.8925552368164 139.340087890625 118.26575469970703 138.64413452148438 119.57799530029297 137.6036834716797 C120.89022827148438 136.56321716308594 122.14149475097656 135.17825317382812 122.94277954101562 133.36441040039062 C122.94277954101562 133.36441040039062 122.89529418945312 134.97784423828125 122.5947494506836 136.8285369873047 C122.29420471191406 138.67922973632812 121.74060821533203 140.7671661376953 120.72837829589844 141.71615600585938 L123.76556396484375 142.28549194335938 C123.76556396484375 142.28549194335938 124.49311828613281 141.37619018554688 125.13766479492188 139.86770629882812 C125.7822036743164 138.35922241210938 126.34374237060547 136.2515869140625 126.01171112060547 133.85491943359375 L126.97657775878906 138.51309204101562 L127.94143676757812 143.1712646484375 L129.09036254882812 142.71456909179688 L128.20681762695312 138.45899963378906 L127.32328796386719 134.20343017578125 L126.43974304199219 129.94784545898438 L128.14761352539062 133.97608947753906 L129.85546875 138.00433349609375 L131.56332397460938 142.03257751464844 L133.19252014160156 141.14682006835938 L132.17056274414062 136.7045440673828 L131.1486053466797 132.26226806640625 L130.12664794921875 127.8199691772461 C130.22836303710938 128.25311279296875 130.56105041503906 129.60377502441406 131.12100219726562 131.24270629882812 C131.68096923828125 132.8816375732422 132.46820068359375 134.808837890625 133.47900390625 136.3950958251953 C134.48980712890625 137.98135375976562 135.72418212890625 139.22665405273438 137.17843627929688 139.50177001953125 L138.949951171875 138.10963439941406 C138.949951171875 138.10963439941406 138.41098022460938 137.58734130859375 137.70095825195312 136.6807403564453 C136.99093627929688 135.77413940429688 136.10983276367188 134.4832305908203 135.4255828857422 132.94601440429688 C134.74131774902344 131.40879821777344 134.25390625 129.62527465820312 134.33120727539062 127.73343658447266 C134.33120727539062 127.73343658447266 134.68727111816406 128.73171997070312 135.37452697753906 130.06277465820312 C136.06178283691406 131.39382934570312 137.08023071289062 133.05763244628906 138.40496826171875 134.38868713378906 C139.72972106933594 135.7197265625 141.36077880859375 136.718017578125 143.27328491210938 136.718017578125 L145.91009521484375 134.69357299804688 C145.91009521484375 134.69357299804688 145.18600463867188 134.34910583496094 144.21353149414062 133.68829345703125 C143.24105834960938 133.0274658203125 142.02017211914062 132.05029296875 141.02659606933594 130.78485107421875 C140.0330047607422 129.51942443847656 139.2667236328125 127.96572875976562 139.20339965820312 126.1518783569336 L142.71495056152344 129.63168334960938 L146.22650146484375 133.11148071289062 L148.56787109375 131.2135009765625"></path>
<path fill="#394363" fill-opacity="1.0"  filling="0" d="M117.42291259765625 119.16051483154297 L117.60568237304688 122.23251342773438 C117.60568237304688 122.23251342773438 117.96534729003906 122.36226654052734 118.61751556396484 122.54102325439453 C119.26968383789062 122.71977996826172 120.21436309814453 122.94754028320312 121.3843765258789 123.14356994628906 C122.55439758300781 123.339599609375 123.94975280761719 123.50389099121094 125.50328826904297 123.55570983886719 C127.05683135986328 123.60752868652344 128.7685546875 123.546875 130.5712890625 123.29299926757812 C132.3740234375 123.03912353515625 134.2677764892578 122.59202575683594 136.1853790283203 121.8709716796875 C138.1029815673828 121.14991760253906 140.04443359375 120.1549072265625 141.94259643554688 118.80519104003906 L142.3675537109375 115.96563720703125 C142.3675537109375 115.9655532836914 142.09425354003906 116.1535415649414 141.56883239746094 116.45036315917969 C141.0434112548828 116.74718475341797 140.26585388183594 117.15284729003906 139.25732421875 117.58810424804688 C138.24879455566406 118.02336120605469 137.00930786132812 118.48821258544922 135.55999755859375 118.90342712402344 C134.11070251464844 119.31864166259766 132.4515838623047 119.6842041015625 130.6038360595703 119.92089080810547 C128.75608825683594 120.15757751464844 126.71969604492188 120.265380859375 124.51581573486328 120.16506958007812 C122.31194305419922 120.06475067138672 119.94058227539062 119.75631713867188 117.42291259765625 119.16051483154297"></path>
<path fill="#394363" fill-opacity="1.0"  filling="0" d="M117.09062194824219 77.82879638671875 C117.09062194824219 77.82879638671875 116.44209289550781 77.12752532958984 115.69513702392578 76.0325698852539 C114.94818878173828 74.93760681152344 114.10282135009766 73.44895935058594 113.70915222167969 71.87420654296875 C113.31548309326172 70.29944610595703 113.37350463867188 68.63858032226562 114.433349609375 67.19917297363281 C114.433349609375 67.19917297363281 113.72282409667969 65.59687042236328 113.79084777832031 63.84666442871094 C113.85888671875 62.09645462036133 114.70547485351562 60.198341369628906 117.81971740722656 59.606719970703125 C118.65222930908203 59.44851303100586 119.76087951660156 59.659400939941406 120.96749114990234 59.90721130371094 C122.17410278320312 60.15502166748047 123.47867584228516 60.43975067138672 124.70304107666016 60.42922592163086 C125.92739868164062 60.418701171875 127.07154846191406 60.11292266845703 127.95731353759766 59.179718017578125 C127.95731353759766 59.179718017578125 128.6689910888672 61.45759582519531 126.15404510498047 62.31163024902344 L128.62188720703125 62.64390563964844 C128.62188720703125 62.64390563964844 128.62188720703125 64.44717407226562 127.67264556884766 64.54190063476562 C127.67264556884766 64.54190063476562 128.25389099121094 64.80288696289062 128.7967987060547 65.88243865966797 C129.3397216796875 66.96199035644531 129.84429931640625 68.86009979248047 129.69094848632812 72.13433837890625 L125.4908447265625 74.0324935913086 L121.29073333740234 75.93064880371094 L117.09062194824219 77.82879638671875"></path>
<path fill="#F1B99B" fill-opacity="1.0"  filling="0" d="M118.37728881835938 77.36954498291016 C119.27378845214844 77.88716888427734 119.7509765625 78.7391357421875 119.4427490234375 79.27264404296875 C119.13504028320312 79.80614471435547 118.15866088867188 79.8189468383789 117.26214599609375 79.30131530761719 C116.36563110351562 78.78367614746094 115.88845825195312 77.93170928955078 116.19667053222656 77.39820861816406 C116.50437927246094 76.86521911621094 117.48077392578125 76.8519058227539 118.37728881835938 77.36954498291016"></path>
<path fill="#F1B99B" fill-opacity="1.0"  filling="0" d="M130.712890625 73.55718994140625 C130.29766845703125 74.50540161132812 129.50405883789062 75.07423400878906 128.93984985351562 74.82745361328125 C128.3756103515625 74.58067321777344 128.25479125976562 73.61146545410156 128.6695098876953 72.66322326660156 C129.08473205566406 71.71499633789062 129.87832641601562 71.14616394042969 130.44256591796875 71.39297485351562 C131.00677490234375 71.63975524902344 131.1281280517578 72.60845947265625 130.712890625 73.55718994140625"></path>
<path fill="#FF664D" fill-opacity="1.0"  filling="0" d="M129.89523315429688 77.51187896728516 C129.8798828125 77.70951080322266 129.86502075195312 77.8989486694336 129.84197998046875 78.08889770507812 C129.8343048095703 78.2179183959961 129.811767578125 78.3469467163086 129.79641723632812 78.46879577636719 C129.64845275878906 79.48613739013672 129.3599395751953 80.39724731445312 128.9081573486328 81.14604187011719 C128.45639038085938 81.89485168457031 127.84133911132812 82.4813461303711 127.04032135009766 82.84947204589844 C126.31532287597656 83.18355560302734 125.45925903320312 83.36762237548828 124.53958129882812 83.31066131591797 C123.61990356445312 83.25370025634766 122.63660430908203 82.95571899414062 121.65715026855469 82.32569885253906 C121.5506591796875 82.25760650634766 121.44467163085938 82.18131256103516 121.33816528320312 82.10554504394531 C121.1712646484375 81.98419952392578 120.99667358398438 81.85517120361328 120.82977294921875 81.7031021118164 C120.45753479003906 81.39179992675781 120.08583068847656 81.01958465576172 119.72897338867188 80.5946273803711 C119.22797393798828 80.00633239746094 118.74208068847656 79.3078384399414 118.27986907958984 78.48499298095703 C117.81765747070312 77.66214752197266 117.3791275024414 76.71495056152344 116.97285461425781 75.6292495727539 C116.57042694091797 74.55482482910156 116.27052307128906 73.5792007446289 116.05888366699219 72.68998718261719 C115.84723663330078 71.80076599121094 115.72384643554688 70.9979476928711 115.6744384765625 70.26911926269531 C115.54924774169922 68.40518188476562 115.92313385009766 67.04608154296875 116.58930969238281 66.03622436523438 C117.25548553466797 65.0263671875 118.21395111083984 64.36576080322266 119.25791931152344 63.89881896972656 C120.51436614990234 63.336891174316406 121.94937133789062 63.16421890258789 123.31513977050781 63.4783935546875 C124.68089294433594 63.792572021484375 125.97740936279297 64.59359741210938 126.95686340332031 65.97906494140625 C127.26048278808594 66.40403747558594 127.53389739990234 66.89044189453125 127.7694091796875 67.42906188964844 C128.3692169189453 68.79943084716797 128.87033081054688 70.25530242919922 129.23764038085938 71.7073974609375 C129.6049346923828 73.15949249267578 129.83840942382812 74.6078109741211 129.90292358398438 75.96307373046875 C129.92596435546875 76.50221252441406 129.92596435546875 77.01830291748047 129.89523315429688 77.51187896728516"></path>
<path fill="#F1B049" fill-opacity="1.0"  filling="0" d="M120.89016723632812 73.09022521972656 C121.43545532226562 74.60781860351562 121.32589721679688 76.03629302978516 120.64543151855469 76.28052520751953 C119.96499633789062 76.52472686767578 118.97172546386719 75.49254608154297 118.42643737792969 73.9749755859375 C117.88116455078125 72.45741271972656 117.99072265625 71.02894592285156 118.67117309570312 70.78471374511719 C119.35110473632812 70.54048156738281 120.34489440917969 71.57266235351562 120.89016723632812 73.09022521972656"></path>
<path fill="#394363" fill-opacity="1.0"  filling="0" d="M120.48876953125 73.234619140625 C120.8814697265625 74.32774353027344 120.82771301269531 75.3471450805664 120.36897277832031 75.51200103759766 C119.91021728515625 75.6768569946289 119.22003173828125 74.92422485351562 118.82733154296875 73.83161926269531 C118.43463134765625 72.73849487304688 118.48837280273438 71.71910095214844 118.9471435546875 71.55422973632812 C119.40589904785156 71.38937377929688 120.0960693359375 72.14149475097656 120.48876953125 73.234619140625"></path>
<path fill="#F1B049" fill-opacity="1.0"  filling="0" d="M127.00755310058594 70.56300354003906 C127.52774047851562 72.01145935058594 127.38951110839844 73.38720703125 126.69881439208984 73.63552856445312 C126.00812530517578 73.88385009765625 125.02610778808594 72.91053771972656 124.50592041015625 71.46208190917969 C123.98573303222656 70.01362609863281 124.12397766113281 68.63789367675781 124.81465148925781 68.38955688476562 C125.5053482055664 68.14125061035156 126.48735809326172 69.11456298828125 127.00755310058594 70.56300354003906"></path>
<path fill="#394363" fill-opacity="1.0"  filling="0" d="M126.58721160888672 70.71405029296875 C126.97990417480469 71.80717468261719 126.9261474609375 72.82656860351562 126.46739959716797 72.99142456054688 C126.0086441040039 73.15629577636719 125.31847381591797 72.40364074707031 124.92576599121094 71.31103515625 C124.53305053710938 70.21791076660156 124.58680725097656 69.19853210449219 125.04556274414062 69.03366088867188 C125.50432586669922 68.86878967285156 126.19450378417969 69.62094116210938 126.58721160888672 70.71405029296875"></path>
<path fill="#394363" fill-opacity="1.0"  filling="0" d="M129.89523315429688 77.51187896728516 L128.8548583984375 77.31475067138672 L127.79193878173828 79.91161346435547 L125.04352569580078 79.22809600830078 L124.13267517089844 81.5059814453125 L121.42214965820312 80.71648406982422 L120.82977294921875 81.70361328125 C120.45753479003906 81.39232635498047 120.08583068847656 81.02009582519531 119.72897338867188 80.59513854980469 L120.73094177246094 78.93267059326172 L123.23666381835938 79.66175842285156 L124.13267517089844 77.44479370117188 L126.8887710571289 78.12064361572266 L127.9137954711914 75.5923843383789 L129.90292358398438 75.96460723876953 C129.92596435546875 76.50221252441406 129.92596435546875 77.01830291748047 129.89523315429688 77.51187896728516"></path>
<path fill="#394363" fill-opacity="1.0"  filling="0" d="M129.84249877929688 78.08889770507812 C129.83480834960938 78.2179183959961 129.81228637695312 78.3469467163086 129.79693603515625 78.46879577636719 L129.6755828857422 78.4385986328125 L128.5747833251953 81.30118560791016 L125.70502471923828 80.60281372070312 L124.7864990234375 82.82746124267578 L121.83277893066406 82.0149154663086 L121.65817260742188 82.32621002197266 C121.55168151855469 82.25810241699219 121.44569396972656 82.18182373046875 121.33920288085938 82.10604095458984 L121.64280700683594 81.5669174194336 L124.55815124511719 82.37177276611328 L125.47666931152344 80.16249084472656 L128.33926391601562 80.85318756103516 L129.4400634765625 77.99827575683594 L129.84249877929688 78.08889770507812"></path>
<path fill="#F1B049" fill-opacity="1.0"  filling="0" d="M124.82388305664062 74.330810546875 L122.45484924316406 75.363525390625 C121.8245849609375 72.29229736328125 120.63252258300781 70.83079528808594 119.34657287597656 70.23104858398438 C118.06061553955078 69.63130187988281 116.68077087402344 69.893310546875 115.67494201660156 70.26911926269531 C115.54976654052734 68.40518188476562 115.92366027832031 67.04608154296875 116.58982849121094 66.03622436523438 C117.25601196289062 65.0263671875 118.21446990966797 64.36576080322266 119.25843811035156 63.89881896972656 C120.51488494873047 63.336891174316406 121.94989013671875 63.16421890258789 123.3156509399414 63.4783935546875 C124.68141174316406 63.792572021484375 125.97792053222656 64.59359741210938 126.9573745727539 65.97906494140625 C126.19039916992188 66.27499389648438 125.2718734741211 66.66259765625 124.30009460449219 67.15615844726562 C123.01676940917969 67.80128479003906 123.14772033691406 69.5949478149414 123.59949493408203 71.22732543945312 C124.05126953125 72.85971069335938 124.82388305664062 74.330810546875 124.82388305664062 74.330810546875"></path></svg>