<svg xmlns="http://www.w3.org/2000/svg" viewBox="0.0 0.0 256.0 256.0" height="256.0px" width="256.0px"><path fill="#EDB47B" fill-opacity="1.0"  filling="0" d="M126.69760131835938 125.48512268066406 C127.61471557617188 125.40031433105469 128.61871337890625 125.12431335449219 129.35455322265625 124.53895568847656 C130.09039306640625 123.95359802246094 130.55807495117188 123.05888366699219 130.40255737304688 121.73664855957031 C130.31744384765625 121.01953125 129.98304748535156 120.21824645996094 129.2006378173828 119.62816619873047 C128.41824340820312 119.0380859375 127.18783569335938 118.6592025756836 125.31072235107422 118.78688049316406 C123.71440124511719 118.89280700683594 122.26588439941406 119.02916717529297 120.84420013427734 119.18568420410156 C119.42252349853516 119.34220886230469 118.02767944335938 119.51889038085938 116.5387191772461 119.7054443359375 C115.04975891113281 119.89200592041016 113.4666748046875 120.08844757080078 111.66851806640625 120.28448486328125 C109.870361328125 120.48052215576172 107.85711669921875 120.67616271972656 105.5078353881836 120.86111450195312 C104.57077026367188 120.9350357055664 103.31402587890625 121.03166198730469 101.84839630126953 121.13960266113281 C100.38276672363281 121.24754333496094 98.70825958251953 121.3667984008789 96.93566131591797 121.48597717285156 C95.1630630493164 121.60516357421875 93.29237365722656 121.72427368164062 91.43440246582031 121.83192443847656 C89.57642364501953 121.9395751953125 87.73116302490234 122.03577423095703 86.00940704345703 122.10912322998047 C84.28765106201172 122.18247985839844 82.68940734863281 122.23298645019531 81.32546997070312 122.24925994873047 C79.9615249633789 122.26553344726562 78.83189392089844 122.24757385253906 78.04736328125 122.18400573730469 C77.4988784790039 122.92929077148438 77.39328002929688 124.1395263671875 77.28816223144531 125.35009002685547 C77.18303680419922 126.56065368652344 77.07839965820312 127.77153015136719 76.5318374633789 128.51809692382812 C77.39157104492188 128.54507446289062 78.48641204833984 128.53709411621094 79.74663543701172 128.50428771972656 C81.0068588256836 128.4714813232422 82.43245697021484 128.41383361816406 83.95370483398438 128.3415069580078 C85.47494506835938 128.2691650390625 87.09183502197266 128.18214416503906 88.73463439941406 128.090576171875 C90.37743377685547 127.9990005493164 92.04615020751953 127.90287780761719 93.6710433959961 127.81233978271484 C95.29592895507812 127.7218017578125 96.87699890136719 127.63685607910156 98.34451293945312 127.567626953125 C99.81201934814453 127.49840545654297 101.16596984863281 127.44491577148438 102.33663940429688 127.41728210449219 C103.85830688476562 127.38131713867188 105.53971099853516 127.3013687133789 107.29730224609375 127.19268035888672 C109.05490112304688 127.08399963378906 110.88867950439453 126.94658660888672 112.71508026123047 126.79568481445312 C114.54148864746094 126.64478302001953 116.36051940917969 126.48039245605469 118.088623046875 126.3177719116211 C119.81672668457031 126.15514373779297 121.45389556884766 125.99427795410156 122.91658020019531 125.85041809082031 C124.37925720214844 125.7065658569336 125.66744995117188 125.5797119140625 126.69760131835938 125.48512268066406"></path>
<path fill="#D9D9D9" fill-opacity="1.0"  filling="0" d="M128.8089599609375 169.51072692871094 C127.45280456542969 169.80577087402344 126.08732604980469 170.24954223632812 124.73860168457031 170.8273162841797 C123.38987731933594 171.40509033203125 122.05789947509766 172.1168670654297 120.76875305175781 172.9479217529297 C119.47959899902344 173.77896118164062 118.2332763671875 174.72926330566406 117.05583953857422 175.7841033935547 C115.87841033935547 176.8389434814453 114.7698745727539 177.99832153320312 113.75630187988281 179.2474822998047 C112.74273681640625 180.49664306640625 111.82412719726562 181.83560180664062 111.02656555175781 183.24960327148438 C110.35247802734375 184.44512939453125 109.8806381225586 185.82144165039062 109.5581283569336 187.27508544921875 C109.2356185913086 188.72874450683594 109.06243896484375 190.2597198486328 108.98567962646484 191.76455688476562 C108.90892028808594 193.2694091796875 108.92858123779297 194.74810791015625 108.99175262451172 196.09719848632812 C109.054931640625 197.4462890625 109.16160583496094 198.665771484375 109.2588882446289 199.65216064453125 C108.12832641601562 199.65695190429688 107.2620849609375 199.61712646484375 106.39568328857422 199.54400634765625 C105.52928161621094 199.47088623046875 104.66272735595703 199.36448669433594 103.53152465820312 199.23617553710938 C103.38983154296875 198.0258026123047 103.25975799560547 196.72808837890625 103.17840576171875 195.37161254882812 C103.09705352783203 194.01513671875 103.06442260742188 192.5998992919922 103.11761474609375 191.15451049804688 C103.17080688476562 189.7091064453125 103.309814453125 188.23355102539062 103.57174682617188 186.75640869140625 C103.83367919921875 185.27926635742188 104.21853637695312 183.80055236816406 104.76341247558594 182.34884643554688 C105.30828857421875 180.8971405029297 106.01318359375 179.47244262695312 106.91519165039062 178.10336303710938 C107.86738586425781 176.65785217285156 108.884521484375 175.2840576171875 109.95933532714844 173.99667358398438 C111.03414916992188 172.7092742919922 112.16663360595703 171.50828552246094 113.3495101928711 170.4084014892578 C114.53238677978516 169.3085174560547 115.76566314697266 168.3097381591797 117.04206085205078 167.4267578125 C118.3184585571289 166.54379272460938 119.63797760009766 165.776611328125 120.99333953857422 165.13995361328125 C122.34870147705078 164.50328063964844 123.73991394042969 163.99713134765625 125.1596908569336 163.63616943359375 C125.1596908569336 163.63616943359375 126.29280853271484 163.325927734375 127.53440856933594 163.4036865234375 C128.7760009765625 163.4814453125 130.12608337402344 163.94720458984375 130.55999755859375 165.49920654296875 C131.4924774169922 168.83935546875 128.8089599609375 169.51072692871094 128.8089599609375 169.51072692871094"></path>
<path fill="#2D3742" fill-opacity="1.0"  filling="0" d="M95.08992004394531 202.20321655273438 C95.08480834960938 203.27392578125 95.51456451416016 204.24560546875 96.21321105957031 204.9508056640625 C96.91184997558594 205.656005859375 97.87936401367188 206.0947265625 98.94976806640625 206.09951782226562 L103.08512878417969 206.2057647705078 L107.22048950195312 206.31201171875 C108.29151916503906 206.31744384765625 109.26319885253906 205.88800048828125 109.96832275390625 205.18943786621094 C110.67344665527344 204.49087524414062 111.11199951171875 203.523193359375 111.1167984008789 202.45216369628906 C111.12223815917969 201.38113403320312 110.69296264648438 200.40945434570312 109.99456024169922 199.70440673828125 C109.2961654663086 198.99935913085938 108.32864379882812 198.56097412109375 107.25759887695312 198.55648803710938 L103.12191772460938 198.44992065429688 L98.9862289428711 198.34335327148438 C97.91519165039062 198.33822631835938 96.94367980957031 198.76783752441406 96.23863983154297 199.46640014648438 C95.53359985351562 200.1649627685547 95.09503936767578 201.1324920654297 95.08992004394531 202.20321655273438"></path>
<path fill="#E6E6E6" fill-opacity="1.0"  filling="0" d="M125.97056579589844 162.10400390625 C125.97056579589844 163.84950256347656 126.32050323486328 165.48483276367188 126.93108367919922 166.8895263671875 C127.54167175292969 168.29420471191406 128.41290283203125 169.46823120117188 129.45547485351562 170.29107666015625 C130.49806213378906 171.11392211914062 131.71200561523438 171.58560180664062 133.0080108642578 171.58560180664062 L137.56736755371094 171.58560180664062 L142.12672424316406 171.58560180664062 C143.4220733642578 171.58560180664062 144.63580322265625 171.11392211914062 145.67837524414062 170.29107666015625 C146.72096252441406 169.46823120117188 147.5924072265625 168.29420471191406 148.2032012939453 166.8895263671875 C148.81399536132812 165.48483276367188 149.16415405273438 163.8494873046875 149.16415405273438 162.10400390625 L149.6674346923828 157.325927734375 L150.17071533203125 152.5478515625 L150.6739959716797 147.76976013183594 L151.17727661132812 142.99168395996094 L151.6805419921875 138.21360778808594 L152.183837890625 133.43551635742188 L152.68710327148438 128.65744018554688 L153.1903839111328 123.87936401367188 C153.1903839111328 122.13408660888672 152.7187042236328 120.68917846679688 151.8958740234375 119.53831481933594 C151.07305908203125 118.387451171875 149.89907836914062 117.53063201904297 148.49449157714844 116.96153259277344 C147.08990478515625 116.39242553710938 145.4547119140625 116.11103820800781 143.7094268798828 116.11103820800781 L139.61492919921875 116.11104583740234 L135.52041625976562 116.11104583740234 L131.42591857910156 116.11103820800781 C129.680419921875 116.11103820800781 128.04507446289062 116.58271789550781 126.64039611816406 117.40554809570312 C125.2357177734375 118.22837829589844 124.06169128417969 119.40235137939453 123.23884582519531 120.80693817138672 C122.4159927368164 122.2115249633789 121.9443130493164 123.84672546386719 121.9443130493164 125.59199523925781 L122.44759368896484 130.156005859375 L122.95088195800781 134.72000122070312 L123.45415496826172 139.28399658203125 L123.95744323730469 143.84799194335938 L124.46072387695312 148.41200256347656 L124.96399688720703 152.9759979248047 L125.46728515625 157.54000854492188 L125.97056579589844 162.10400390625"></path>
<path fill="#D9D9D9" fill-opacity="1.0"  filling="0" d="M125.42720794677734 157.17857360839844 L125.97056579589844 162.10336303710938 C125.97056579589844 163.84886169433594 126.32050323486328 165.48419189453125 126.93108367919922 166.88888549804688 C127.54167175292969 168.29356384277344 128.41290283203125 169.46759033203125 129.45547485351562 170.29043579101562 C130.49806213378906 171.11328125 131.71200561523438 171.5849609375 133.0080108642578 171.5849609375 L137.56736755371094 171.5849609375 L142.12672424316406 171.5849609375 C143.4220733642578 171.5849609375 144.63580322265625 171.11328125 145.67837524414062 170.29043579101562 C146.72096252441406 169.46759033203125 147.5924072265625 168.29356384277344 148.2032012939453 166.88888549804688 C148.81399536132812 165.48419189453125 149.16415405273438 163.84884643554688 149.16415405273438 162.10336303710938 L149.68255615234375 157.17857360839844 L144.83148193359375 157.17857360839844 L139.9804229736328 157.17857360839844 L135.1293487548828 157.17857360839844 L130.2782745361328 157.17857360839844 L125.42720794677734 157.17857360839844"></path>
<path fill="#EDB47B" fill-opacity="1.0"  filling="0" d="M133.4662322998047 117.04672241210938 C133.4662322998047 118.17920684814453 133.92495727539062 119.2044906616211 134.6667938232422 119.9466552734375 C135.40863037109375 120.68881225585938 136.43359375 121.14785766601562 137.56607055664062 121.14785766601562 C138.69918823242188 121.14785766601562 139.72479248046875 120.68881225585938 140.4671173095703 119.9466552734375 C141.20944213867188 119.2044906616211 141.66847229003906 118.17920684814453 141.66847229003906 117.04672241210938 L141.66847229003906 113.11627197265625 L141.66847229003906 109.18582153320312 L141.66847229003906 105.25535583496094 C141.66847229003906 104.12287902832031 141.20944213867188 103.09744262695312 140.4671173095703 102.35511779785156 C139.72479248046875 101.61279296875 138.69918823242188 101.15359497070312 137.56607055664062 101.15359497070312 C136.43359375 101.15359497070312 135.40863037109375 101.61279296875 134.6667938232422 102.35511779785156 C133.92495727539062 103.09744262695312 133.4662322998047 104.12287902832031 133.4662322998047 105.25535583496094 L133.46624755859375 109.18582153320312 L133.46624755859375 113.11627197265625 L133.4662322998047 117.04672241210938"></path>
<path fill="#FFC489" fill-opacity="1.0"  filling="0" d="M111.11808776855469 96.43679809570312 C111.11808776855469 98.05834197998047 111.33714294433594 99.62869262695312 111.74727630615234 101.11985778808594 C112.15740966796875 102.61103057861328 112.75860595703125 104.02302551269531 113.52289581298828 105.32786560058594 C114.28718566894531 106.63270568847656 115.21456146240234 107.83039855957031 116.27703857421875 108.89295959472656 C117.33951568603516 109.95552062988281 118.53710174560547 110.88294982910156 119.84180450439453 111.64727020263672 C121.14649963378906 112.4115982055664 122.55831909179688 113.0128173828125 124.04927062988281 113.42295837402344 C125.54021453857422 113.83309936523438 127.11029052734375 114.05215454101562 128.7315216064453 114.05215454101562 C130.35317993164062 114.05215454101562 131.92361450195312 113.83309936523438 133.41485595703125 113.42295837402344 C134.90609741210938 113.0128173828125 136.3181610107422 112.4115982055664 137.623046875 111.64727020263672 C138.9279327392578 110.88294219970703 140.1256561279297 109.95551300048828 141.18824768066406 108.89295196533203 C142.25082397460938 107.83039093017578 143.1782684326172 106.63270568847656 143.94261169433594 105.32786560058594 C144.70693969726562 104.02302551269531 145.30816650390625 102.61103057861328 145.71832275390625 101.11986541748047 C146.1284637451172 99.62869262695312 146.34751892089844 98.058349609375 146.34751892089844 96.43679809570312 L146.3475341796875 91.93418884277344 L146.3475341796875 87.43157958984375 L146.34751892089844 82.92897033691406 C146.34751892089844 81.30752563476562 146.1284637451172 79.73725128173828 145.71832275390625 78.24612426757812 C145.3081817626953 76.75499725341797 144.7069549560547 75.343017578125 143.94261169433594 74.03817749023438 C143.1782684326172 72.73333740234375 142.25082397460938 71.53562927246094 141.188232421875 70.47303771972656 C140.12564086914062 69.41045379638672 138.92791748046875 68.48298645019531 137.62303161621094 67.71862030029297 C136.31814575195312 66.95426177978516 134.90609741210938 66.3530044555664 133.41485595703125 65.94284057617188 C131.92361450195312 65.53267669677734 130.35317993164062 65.3135986328125 128.7315216064453 65.3135986328125 C127.11029052734375 65.3135986328125 125.54021453857422 65.53267669677734 124.04926300048828 65.94284057617188 C122.55831909179688 66.3530044555664 121.14649963378906 66.95426177978516 119.84180450439453 67.71862030029297 C118.537109375 68.48298645019531 117.33952331542969 69.41045379638672 116.27704620361328 70.47303771972656 C115.21456909179688 71.53562927246094 114.28718566894531 72.73333740234375 113.52289581298828 74.03817749023438 C112.75860595703125 75.343017578125 112.15740203857422 76.75499725341797 111.74727630615234 78.24612426757812 C111.33714294433594 79.73725128173828 111.11808776855469 81.30752563476562 111.11808776855469 82.92897033691406 L111.11808776855469 87.43157958984375 L111.11808776855469 91.93418884277344 L111.11808776855469 96.43679809570312"></path>
<path fill="#523416" fill-opacity="1.0"  filling="0" d="M129.73248291015625 89.30912780761719 C129.73248291015625 90.2857666015625 130.5235137939453 91.07679748535156 131.50015258789062 91.07679748535156 C132.4761505126953 91.07679748535156 133.2691192626953 90.2857666015625 133.2691192626953 89.30912780761719 L133.2691192626953 87.04095458984375 C133.2691192626953 86.06497192382812 132.47679138183594 85.27328491210938 131.50015258789062 85.27328491210938 C130.52415466308594 85.27328491210938 129.73248291015625 86.06431579589844 129.73248291015625 87.04095458984375 L129.73248291015625 89.30912780761719"></path>
<path fill="#523416" fill-opacity="1.0"  filling="0" d="M114.4486312866211 89.30912780761719 C114.4486312866211 90.2857666015625 115.23968505859375 91.07679748535156 116.21694946289062 91.07679748535156 C117.19359588623047 91.07679748535156 117.98464965820312 90.2857666015625 117.98464965820312 89.30912780761719 L117.98464965820312 87.04095458984375 C117.98464965820312 86.06497192382812 117.1942367553711 85.27328491210938 116.21694946289062 85.27328491210938 C115.24031066894531 85.27328491210938 114.4486312866211 86.06431579589844 114.4486312866211 87.04095458984375 L114.4486312866211 89.30912780761719"></path>
<path fill="#ED997B" fill-opacity="1.0"  filling="0" d="M119.83808898925781 98.63905334472656 C119.83808898925781 99.61122131347656 120.62591552734375 100.3990478515625 121.59744262695312 100.3990478515625 C122.56896209716797 100.3990478515625 123.3574447631836 99.61122131347656 123.3574447631836 98.63905334472656 L123.3574447631836 96.12640380859375 C123.3574447631836 95.15489196777344 122.56896209716797 94.36640930175781 121.59744262695312 94.36640930175781 C120.62591552734375 94.36640930175781 119.83808898925781 95.15489196777344 119.83808898925781 96.12640380859375 L119.83808898925781 98.63905334472656"></path>
<path fill="#523416" fill-opacity="1.0"  filling="0" d="M126.7724838256836 109.00833129882812 C127.66400146484375 109.13313293457031 127.66400146484375 109.13313293457031 128.50816345214844 108.85856628417969 C130.58816528320312 108.17953491210938 130.58816528320312 108.17953491210938 131.05728149414062 106.1513671875 C130.88385009765625 106.13728332519531 130.88385009765625 106.13728332519531 130.8153533935547 105.92095947265625 C130.7667236328125 105.76800537109375 130.7667236328125 105.76800537109375 130.8185577392578 105.66752624511719 C130.87039184570312 105.56703186035156 130.87039184570312 105.56703186035156 131.02272033691406 105.51904296875 C131.0892791748047 105.49794006347656 131.0892791748047 105.49794006347656 131.2198486328125 105.45889282226562 C131.31712341308594 105.43008422851562 131.31712341308594 105.43008422851562 131.3651123046875 105.41535949707031 C131.4323272705078 105.39488220214844 131.4323272705078 105.39488220214844 131.5020751953125 105.40383911132812 C131.8188934326172 105.44607543945312 131.8188934326172 105.44607543945312 131.77728271484375 105.76351928710938 C131.590087890625 107.17504119873047 131.49647521972656 107.88079833984375 131.11264038085938 108.34368133544922 C130.72879028320312 108.80656433105469 130.05471801757812 109.02656555175781 128.70655822753906 109.46656799316406 C127.72160339355469 109.78721618652344 127.72160339355469 109.78721618652344 126.68415832519531 109.64192199707031 C126.3667221069336 109.59776306152344 126.3667221069336 109.59776306152344 126.4115219116211 109.28096008300781 C126.43392944335938 109.12225341796875 126.43392944335938 109.12225341796875 126.52416229248047 109.05439758300781 C126.61439514160156 108.98591613769531 126.61439514160156 108.98591613769531 126.7724838256836 109.00833129882812"></path>
<path fill="#523416" fill-opacity="1.0"  filling="0" d="M141.66847229003906 90.99232482910156 C141.66847229003906 91.70527648925781 142.24575805664062 92.283203125 142.95870971679688 92.283203125 C143.6723175048828 92.283203125 144.24896240234375 91.70527648925781 144.24896240234375 90.99232482910156 L144.24896240234375 87.13248443603516 L144.24896240234375 83.27264404296875 L144.24896240234375 79.41279602050781 C144.24896240234375 78.69984436035156 143.6729736328125 78.12191772460938 142.95870971679688 78.12191772460938 C142.24639892578125 78.12191772460938 141.66847229003906 78.69984436035156 141.66847229003906 79.41279602050781 L141.66847229003906 83.27264404296875 L141.66847229003906 87.13248443603516 L141.66847229003906 90.99232482910156"></path>
<path fill="#523416" fill-opacity="1.0"  filling="0" d="M148.23870849609375 90.55648803710938 C148.23870849609375 90.55648803710938 146.9761505126953 90.69488525390625 145.67007446289062 90.14408874511719 C144.36399841308594 89.5932846069336 143.014404296875 88.35328674316406 142.84031677246094 85.59649658203125 C142.78196716308594 84.6773452758789 142.4432830810547 83.73866271972656 141.8704376220703 82.83312225341797 C141.29759216308594 81.9275894165039 140.49058532714844 81.0551986694336 139.49560546875 80.2686538696289 C138.50062561035156 79.48210144042969 137.31765747070312 78.78138732910156 135.99288940429688 78.21920013427734 C134.66812133789062 77.65701293945312 133.2015380859375 77.23335266113281 131.6393280029297 77.00090026855469 C130.07711791992188 76.76844787597656 128.41929626464844 76.72721862792969 126.71202087402344 76.92987823486328 C125.0047378540039 77.13253784179688 123.24800872802734 77.5791015625 121.48800659179688 78.32225036621094 C119.72811126708984 79.06529235839844 118.0627212524414 79.54436492919922 116.51466369628906 79.78119659423828 C114.96659851074219 80.01802825927734 113.53585815429688 80.01261901855469 112.2452621459961 79.78668212890625 C110.95466613769531 79.56075286865234 109.80421447753906 79.11429595947266 108.81671905517578 78.46904754638672 C107.8292236328125 77.82379150390625 107.00469207763672 76.979736328125 106.36593627929688 75.95861053466797 C105.72718048095703 74.9374771118164 105.27420043945312 73.73926544189453 105.02981567382812 72.38569641113281 C104.78543853759766 71.0321273803711 104.74964904785156 69.52320861816406 104.94527435302734 67.88064575195312 C104.94527435302734 67.88064575195312 105.56111145019531 68.7019271850586 106.8075942993164 69.06856536865234 C108.0540771484375 69.43521118164062 109.93119812011719 69.34720611572266 112.45376586914062 67.52864074707031 C113.0903549194336 67.06976318359375 113.92411041259766 66.49093627929688 114.92507934570312 65.8745346069336 C115.9260482788086 65.25814056396484 117.09422302246094 64.60417175292969 118.39965057373047 63.99501037597656 C119.70507049560547 63.38584899902344 121.14773559570312 62.821495056152344 122.69767761230469 62.38432312011719 C124.24762725830078 61.94715118408203 125.90485382080078 61.63715744018555 127.63939666748047 61.53672409057617 C129.37393188476562 61.43629455566406 131.185791015625 61.54541778564453 133.0449981689453 61.946475982666016 C134.90420532226562 62.3475341796875 136.81077575683594 63.04052734375 138.73472595214844 64.10783386230469 C140.37120056152344 65.01544952392578 141.77476501464844 65.99105834960938 142.97274780273438 67.02706146240234 C144.17071533203125 68.06306457519531 145.16311645507812 69.15946960449219 145.97726440429688 70.30867004394531 C146.79141235351562 71.45787048339844 147.4273223876953 72.65987396240234 147.91232299804688 73.90706634521484 C148.3973388671875 75.15426635742188 148.73143005371094 76.4466552734375 148.9419708251953 77.77664184570312 C149.1525115966797 79.10663604736328 149.23948669433594 80.4742202758789 149.230224609375 81.8718032836914 C149.22097778320312 83.26939392089844 149.11549377441406 84.69697570800781 148.94113159179688 86.1469497680664 C148.76675415039062 87.59693145751953 148.52349853515625 89.06930541992188 148.23870849609375 90.55648803710938"></path>
<path fill="#FFC489" fill-opacity="1.0"  filling="0" d="M144.24896240234375 92.54560852050781 C144.24896240234375 94.18656921386719 145.57888793945312 95.51583862304688 147.22048950195312 95.51583862304688 C148.8614501953125 95.51583862304688 150.1907196044922 94.18656921386719 150.1907196044922 92.54560852050781 L150.1907196044922 88.56672668457031 C150.1907196044922 86.92640686035156 148.86207580566406 85.59649658203125 147.22048950195312 85.59649658203125 C145.5795135498047 85.59649658203125 144.24896240234375 86.92640686035156 144.24896240234375 88.56672668457031 L144.24896240234375 92.54560852050781"></path>
<path fill="#D9D9D9" fill-opacity="1.0"  filling="0" d="M178.93504333496094 202.55392456054688 C180.65151977539062 201.61569213867188 182.0300750732422 200.52639770507812 181.29534912109375 199.13311767578125 L178.16094970703125 195.61183166503906 L175.0265655517578 192.090576171875 L171.89215087890625 188.56927490234375 L168.7577667236328 185.04800415039062 L165.62335205078125 181.52671813964844 L162.4889678955078 178.0054473876953 L159.3545684814453 174.48416137695312 L156.2201690673828 170.962890625 L153.08575439453125 167.4416046142578 L149.9513702392578 163.92031860351562 C149.38816833496094 162.85183715820312 148.4366455078125 162.117919921875 147.35496520996094 161.7992706298828 C146.27328491210938 161.4806365966797 145.06143188476562 161.5772705078125 143.97760009765625 162.169921875 C142.89439392089844 162.7619171142578 142.15872192382812 163.730712890625 141.84295654296875 164.81375122070312 C141.52719116210938 165.89678955078125 141.63134765625 167.09408569335938 142.2278289794922 168.14303588867188 L145.67965698242188 171.50221252441406 L149.1315155029297 174.8613739013672 L152.58334350585938 178.22055053710938 L156.03518676757812 181.5797119140625 L159.48703002929688 184.93887329101562 L162.93887329101562 188.2980499267578 L166.39071655273438 191.65721130371094 L169.84255981445312 195.01638793945312 L173.2943878173828 198.3755340576172 L176.74623107910156 201.73471069335938 L178.93504333496094 202.55392456054688"></path>
<path fill="#2D3742" fill-opacity="1.0"  filling="0" d="M183.9859161376953 202.52896118164062 C184.03231811523438 203.66111755371094 183.6148681640625 204.7052764892578 182.90286254882812 205.47792053222656 C182.1908721923828 206.25054931640625 181.18431091308594 206.75167846679688 180.05247497558594 206.79776000976562 L175.71072387695312 207.04800415039062 L171.36895751953125 207.29824829101562 C170.23519897460938 207.34368896484375 169.19088745117188 206.92608642578125 168.41824340820312 206.21400451660156 C167.64559936523438 205.50192260742188 167.14463806152344 204.495361328125 167.09759521484375 203.36288452148438 C167.05247497558594 202.23040771484375 167.47023010253906 201.1865692138672 168.18238830566406 200.41424560546875 C168.89456176757812 199.64193725585938 169.901123046875 199.14112854003906 171.03359985351562 199.0947265625 L175.3753662109375 198.8448028564453 L179.71713256835938 198.59487915039062 C180.85057067871094 198.5491180419922 181.8947296142578 198.9667205810547 182.66705322265625 199.67872619628906 C183.43936157226562 200.39071655273438 183.93984985351562 201.39712524414062 183.9859161376953 202.52896118164062"></path>
<path fill="#EDB47B" fill-opacity="1.0"  filling="0" d="M77.22431945800781 130.67103576660156 C78.64031982421875 130.46688842773438 79.83937072753906 129.7083282470703 80.6334457397461 128.6470489501953 C81.42752838134766 127.58576202392578 81.81664276123047 126.22175598144531 81.61279296875 124.80671691894531 C81.4092788696289 123.3907241821289 80.65087890625 122.19136047363281 79.58952331542969 121.39704132080078 C78.52816009521484 120.60272216796875 77.16383361816406 120.21343994140625 75.74847412109375 120.4176025390625 L74.28351593017578 120.62944030761719 C72.86847686767578 120.8326416015625 72.4017562866211 121.48544311523438 72.33992004394531 122.4412841796875 C72.27808380126953 123.39712524414062 72.62112426757812 124.656005859375 72.82560729980469 126.07136535644531 L72.33663940429688 126.14175415039062 C72.54080200195312 127.55712127685547 72.68912506103516 128.84384155273438 73.14024353027344 129.72584533691406 C73.59136962890625 130.60784912109375 74.34529113769531 131.08511352539062 75.76065063476562 130.88160705566406 L77.22431945800781 130.67103576660156"></path>
<path fill="#EDB47B" fill-opacity="1.0"  filling="0" d="M70.48384857177734 126.87710571289062 C70.04095458984375 127.72129821777344 70.36927795410156 128.76768493652344 71.21792602539062 129.21121215820312 L73.88607788085938 130.6614532470703 C74.73408508300781 131.1017608642578 75.7779312133789 130.7734375 76.2208023071289 129.92800903320312 C76.66432189941406 129.0800018310547 76.33793640136719 128.03488159179688 75.48992156982422 127.59199523925781 L72.81919860839844 126.14241027832031 C71.97312927246094 125.69888305664062 70.92544555664062 126.02786254882812 70.48384857177734 126.87710571289062"></path>
<path fill="#EDB47B" fill-opacity="1.0"  filling="0" d="M72.90431213378906 126.80288696289062 C73.43296813964844 127.30400085449219 74.27008056640625 127.27969360351562 74.77183532714844 126.74847412109375 L76.39039611816406 125.08961486816406 C76.89088439941406 124.55839538574219 76.86592102050781 123.72383117675781 76.33728790283203 123.22335815429688 C75.80671691894531 122.72096252441406 74.97152709960938 122.74400329589844 74.46977233886719 123.27458190917969 L72.84992218017578 124.93473815917969 C72.34880828857422 125.46464538574219 72.37248229980469 126.30305480957031 72.90431213378906 126.80288696289062"></path>
<path fill="#EDB47B" fill-opacity="1.0"  filling="0" d="M70.34751892089844 124.38240051269531 C69.63328552246094 124.59808349609375 69.22943115234375 125.35519409179688 69.44703674316406 126.07136535644531 L70.09984588623047 128.3555145263672 C70.31871032714844 129.071044921875 71.07455444335938 129.47360229492188 71.78943634033203 129.2579345703125 C72.50560760498047 129.03968811035156 72.91007995605469 128.28512573242188 72.69183349609375 127.5689697265625 L72.03775024414062 125.28352355957031 C71.82144165039062 124.56800842285156 71.06367492675781 124.16288757324219 70.34751892089844 124.38240051269531"></path>
<path fill="#EDB47B" fill-opacity="1.0"  filling="0" d="M70.30847930908203 121.53056335449219 C70.32768249511719 122.25953674316406 70.93568420410156 122.83360290527344 71.66592407226562 122.81312561035156 L76.65534973144531 122.67359924316406 C77.38496398925781 122.65312194824219 77.95840454101562 122.04512023925781 77.93855285644531 121.31680297851562 C77.9180908203125 120.58592224121094 77.31199645996094 120.01121520996094 76.58175659179688 120.03233337402344 L71.59103393554688 120.17184448242188 C70.86335754394531 120.19168090820312 70.2867202758789 120.80096435546875 70.30847930908203 121.53056335449219"></path>
<path fill="#EDB47B" fill-opacity="1.0"  filling="0" d="M73.75297546386719 127.48896789550781 C74.43840026855469 127.24256896972656 74.79488372802734 126.48480224609375 74.54656219482422 125.79743957519531 L72.8531265258789 121.10240173339844 C72.60480499267578 120.41569519042969 71.84896850585938 120.06111145019531 71.16287231445312 120.30816650390625 C70.47552490234375 120.55584716796875 70.11968994140625 121.31169128417969 70.36736297607422 121.99839782714844 L72.06080627441406 126.69473266601562 C72.30720520019531 127.38145446777344 73.06687927246094 127.73793029785156 73.75297546386719 127.48896789550781"></path>
<path fill="#FFC489" fill-opacity="1.0"  filling="0" d="M149.82400512695312 119.16767883300781 C151.48583984375 118.85559844970703 153.13038635253906 118.72757720947266 154.73751831054688 118.77047729492188 C156.3446502685547 118.81336975097656 157.9143829345703 119.02718353271484 159.42662048339844 119.39877319335938 C160.9388427734375 119.77035522460938 162.39356994628906 120.29971313476562 163.77069091796875 120.97370147705078 C165.14781188964844 121.64768981933594 166.4473114013672 122.46630096435547 167.64910888671875 123.4164047241211 C168.8509063720703 124.36650085449219 169.9550018310547 125.44808959960938 170.9412841796875 126.64801025390625 C171.9275665283203 127.84793853759766 172.7960205078125 129.16619873046875 173.52658081054688 130.58966064453125 C174.2571258544922 132.01312255859375 174.84976196289062 133.5417938232422 175.2843780517578 135.16250610351562 C175.718994140625 136.78323364257812 175.99560546875 138.49600219726562 176.09408569335938 140.2876739501953 C176.16883850097656 141.64422607421875 176.14248657226562 142.99574279785156 176.0219268798828 144.33334350585938 C175.90135192871094 145.67092895507812 175.68655395507812 146.9945831298828 175.38438415527344 148.29537963867188 C175.08221435546875 149.59617614746094 174.69268798828125 150.87411499023438 174.22267150878906 152.1202850341797 C173.75265502929688 153.366455078125 173.2021484375 154.58084106445312 172.57798767089844 155.75453186035156 C171.95384216308594 156.92823791503906 171.25607299804688 158.06124877929688 170.49151611328125 159.14463806152344 C169.65664672851562 158.68319702148438 168.82879638671875 158.2099151611328 168.0068817138672 157.72703552246094 C167.18496704101562 157.24417114257812 166.36895751953125 156.75167846679688 165.55775451660156 156.25184631347656 C166.3371124267578 155.2012939453125 167.0326385498047 154.0850830078125 167.63291931152344 152.91806030273438 C168.2332000732422 151.75103759765625 168.7382354736328 150.533203125 169.1366424560547 149.27935791015625 C169.5350341796875 148.0255126953125 169.82679748535156 146.73568725585938 170.00051879882812 145.42465209960938 C170.17422485351562 144.1136474609375 170.22991943359375 142.78143310546875 170.15615844726562 141.44288635253906 C170.0561065673828 139.62486267089844 169.72412109375 137.90994262695312 169.1919708251953 136.32366943359375 C168.65980529785156 134.73739624023438 167.92747497558594 133.27978515625 167.02670288085938 131.97633361816406 C166.12594604492188 130.6728973388672 165.05674743652344 129.5236358642578 163.8508758544922 128.55409240722656 C162.64500427246094 127.58454132080078 161.30247497558594 126.79470825195312 159.85499572753906 126.21012878417969 C158.40753173828125 125.62554931640625 156.8551483154297 125.2462158203125 155.22958374023438 125.09767150878906 C153.60401916503906 124.94912719726562 151.9052734375 125.03135681152344 150.1651153564453 125.36991882324219 C148.52992248535156 125.68801879882812 147.12896728515625 124.54046630859375 147.03488159179688 122.83297729492188 C146.9881591796875 121.98017120361328 147.2763214111328 121.14080810546875 147.7807159423828 120.47615814208984 C148.28512573242188 119.81151580810547 149.00576782226562 119.32159423828125 149.82400512695312 119.16767883300781"></path>
<path fill="#FFC489" fill-opacity="1.0"  filling="0" d="M167.28384399414062 158.96351623535156 C167.59359741210938 158.51040649414062 167.47775268554688 157.89344787597656 167.022705078125 157.58367919921875 L163.92129516601562 155.46847534179688 C163.46881103515625 155.15936279296875 162.8511962890625 155.2764892578125 162.54270935058594 155.72959899902344 C162.23297119140625 156.18336486816406 162.34881591796875 156.80160522460938 162.80384826660156 157.1094512939453 L165.9040069580078 159.22528076171875 C166.35775756835938 159.53311157226562 166.9747314453125 159.41664123535156 167.28384399414062 158.96351623535156"></path>
<path fill="#FFC489" fill-opacity="1.0"  filling="0" d="M162.31744384765625 158.12319946289062 L163.1884765625 156.84255981445312 C162.5075225830078 156.63328552246094 162.09344482421875 156.38624572753906 162.5420684814453 155.72897338867188 C163.2403106689453 154.70433044433594 164.17311096191406 153.8524932861328 165.20623779296875 153.34544372558594 C166.23936462402344 152.83840942382812 167.372802734375 152.67617797851562 168.47232055664062 153.03073120117188 C168.60736083984375 153.07423400878906 168.7296142578125 153.13632202148438 168.843505859375 153.20480346679688 C169.4937744140625 153.3072052001953 170.13119506835938 153.5452880859375 170.7097625732422 153.94015502929688 C171.68161010742188 154.60287475585938 172.31727600097656 155.57359313964844 172.57591247558594 156.63272094726562 C172.83456420898438 157.69183349609375 172.71615600585938 158.83935546875 172.17984008789062 159.85568237304688 C172.14846801757812 159.93504333496094 172.11007690429688 160.0118408203125 172.060791015625 160.08416748046875 L171.9167938232422 160.29344177246094 L171.17568969726562 161.38272094726562 L169.88031005859375 163.28160095214844 C169.52255249023438 163.8025665283203 168.8115234375 163.93824768066406 168.28927612304688 163.5811309814453 C167.77792358398438 163.2329559326172 167.6416015625 162.5449676513672 167.96926879882812 162.0259246826172 C167.59934997558594 162.51551818847656 166.9088134765625 162.64031982421875 166.39808654785156 162.29151916503906 C165.90464782714844 161.9548797607422 165.76319885253906 161.30079650878906 166.04928588867188 160.78944396972656 C166.09664916992188 160.70176696777344 166.09793090820312 160.7011260986328 166.09664916992188 160.7011260986328 C165.74143981933594 161.22335815429688 165.02911376953125 161.3583984375 164.50816345214844 161.00192260742188 C163.9859161376953 160.64544677734375 163.8508758544922 159.9337615966797 164.20672607421875 159.4121551513672 C163.85023498535156 159.9337615966797 163.13792419433594 160.0688018798828 162.616943359375 159.7123260498047 C162.0959930419922 159.35711669921875 161.96031188964844 158.64544677734375 162.31744384765625 158.12319946289062"></path>
<path fill="#2D3742" fill-opacity="1.0"  filling="0" d="M150.84352111816406 158.66336059570312 L146.42080688476562 158.66336059570312 L141.99807739257812 158.66336059570312 L137.5753631591797 158.66336059570312 L133.15264892578125 158.66336059570312 L128.72991943359375 158.66336059570312 L124.30720520019531 158.66336059570312 L123.10655975341797 155.3564910888672 L127.92959594726562 155.3564910888672 L132.75265502929688 155.35650634765625 L137.57568359375 155.3564910888672 L142.3987274169922 155.35650634765625 L147.2217559814453 155.3564910888672 L152.0447998046875 155.3564910888672 L150.84352111816406 158.66336059570312"></path>
<path fill="#2D3742" fill-opacity="1.0"  filling="0" d="M125.5052719116211 178.83743286132812 L121.59808349609375 181.07040405273438 L122.92085266113281 176.8627166748047 L124.24363708496094 172.65505981445312 L125.56640625 168.44735717773438 L126.88919067382812 164.23968505859375 L128.21194458007812 160.03201293945312 L129.53472900390625 155.82432556152344 L132.45248413085938 156.7407989501953 L131.06304931640625 161.16012573242188 L129.67361450195312 165.57945251464844 L128.28416442871094 169.998779296875 L126.89471435546875 174.41810607910156 L125.5052719116211 178.83743286132812"></path>
<path fill="#2D3742" fill-opacity="1.0"  filling="0" d="M138.5401611328125 179.58880615234375 L142.44735717773438 181.82176208496094 L141.12448120117188 177.61407470703125 L139.80160522460938 173.40640258789062 L138.4787139892578 169.19873046875 L137.1558380126953 164.9910430908203 L135.83294677734375 160.78335571289062 L134.51007080078125 156.57568359375 L131.59359741210938 157.49281311035156 L132.98291015625 161.91201782226562 L134.37222290039062 166.33120727539062 L135.76153564453125 170.7504119873047 L137.15084838867188 175.16961669921875 L138.5401611328125 179.58880615234375"></path>
<path fill="#2D3742" fill-opacity="1.0"  filling="0" d="M134.3072052001953 156.7407989501953 C134.3072052001953 158.23968505859375 133.0924835205078 159.4556884765625 131.59359741210938 159.4556884765625 C130.09344482421875 159.4556884765625 128.8787078857422 158.24032592773438 128.8787078857422 156.7407989501953 C128.8787078857422 155.2412872314453 130.09344482421875 154.0259246826172 131.59359741210938 154.0259246826172 C133.0924835205078 154.0265655517578 134.3072052001953 155.24192810058594 134.3072052001953 156.7407989501953"></path></svg>