<svg xmlns="http://www.w3.org/2000/svg" viewBox="0.0 0.0 256.0 256.0" height="256.0px" width="256.0px"><path fill="#FFE500" fill-opacity="1.0"  filling="0" d="M209.51779174804688 107.22366333007812 C210.55618286132812 107.12158203125 211.41314697265625 106.90990447998047 212.19818115234375 106.53170776367188 C212.98321533203125 106.15351104736328 213.6963348388672 105.60879516601562 214.44705200195312 104.84063720703125 C215.21969604492188 104.04991149902344 215.84378051757812 103.15087127685547 216.33877563476562 102.18338775634766 C216.8337860107422 101.21591186523438 217.19970703125 100.17999267578125 217.45602416992188 99.11552429199219 C217.7586212158203 97.85845184326172 217.88096618652344 96.41873168945312 217.7460174560547 95.01764678955078 C217.61105346679688 93.61656951904297 217.21881103515625 92.25413513183594 216.49220275878906 91.15161895751953 C215.76559448242188 90.04910278320312 214.70465087890625 89.20651245117188 213.23233032226562 88.84512329101562 C212.47171020507812 88.65824890136719 211.90078735351562 89.31486511230469 212.03683471679688 90.04093933105469 C212.2750701904297 91.31487274169922 212.6068115234375 92.61679077148438 212.82205200195312 93.92686462402344 C213.03729248046875 95.23694610595703 213.13600158691406 96.55518341064453 212.90817260742188 97.86175537109375 C212.6640167236328 99.26207733154297 212.1099395751953 100.57968139648438 211.35406494140625 101.77828216552734 C210.59817504882812 102.97688293457031 209.64048767089844 104.05647277832031 208.589111328125 104.98078918457031 C207.76483154296875 105.70464324951172 208.384033203125 107.33502960205078 209.51779174804688 107.22366333007812"></path>
<path fill="#9CCD00" fill-opacity="1.0"  filling="0" d="M88.73153686523438 159.10592651367188 C89.13406372070312 157.96287536621094 90.12222290039062 156.9552001953125 90.80191040039062 155.95774841308594 C91.46942138671875 154.97854614257812 92.05825805664062 153.95135498046875 92.741455078125 152.97984313964844 C93.392333984375 152.05441284179688 94.32904815673828 151.03897094726562 95.04728698730469 149.95120239257812 C95.76551818847656 148.8634490966797 96.26527404785156 147.703369140625 96.042236328125 146.48863220214844 C95.9459228515625 145.96383666992188 95.39138793945312 145.63136291503906 94.89663696289062 145.6163330078125 C93.62319946289062 145.5777587890625 92.45568084716797 146.39639282226562 91.44992065429688 147.46051025390625 C90.44416046142578 148.52462768554688 89.60015869140625 149.834228515625 88.9737548828125 150.777587890625 C88.22879028320312 151.89920043945312 87.5277099609375 153.12767028808594 87.20413208007812 154.44094848632812 C86.82015991210938 155.99969482421875 87.14047241210938 157.33889770507812 87.2105712890625 158.89984130859375 C87.251220703125 159.79327392578125 88.44189453125 159.92800903320312 88.73153686523438 159.10592651367188"></path>
<path fill="#5AA612" fill-opacity="1.0"  filling="0" d="M210.4835205078125 143.46591186523438 C209.6887969970703 143.81423950195312 208.87576293945312 144.09991455078125 208.0526123046875 144.3111114501953 C207.22946166992188 144.52230834960938 206.39617919921875 144.65902709960938 205.56097412109375 144.70944213867188 C203.98582458496094 144.804443359375 202.36233520507812 144.74790954589844 200.73086547851562 144.55125427246094 C199.09939575195312 144.3546142578125 197.4599609375 144.0178680419922 195.85293579101562 143.55245971679688 C194.24591064453125 143.08705139160156 192.6713104248047 142.4929962158203 191.16952514648438 141.78172302246094 C189.667724609375 141.07044982910156 188.23873901367188 140.24195861816406 186.92295837402344 139.30770874023438 C185.60716247558594 138.3734588623047 184.40457153320312 137.33343505859375 183.35556030273438 136.19908142089844 C182.30654907226562 135.06472778320312 181.41110229492188 133.83604431152344 180.7096405029297 132.5244903564453 C180.0081787109375 131.2129364013672 179.5006866455078 129.81849670410156 179.22755432128906 128.3526153564453 C178.95440673828125 126.8867416381836 178.91563415527344 125.34942626953125 179.15159606933594 123.75212097167969 C179.3875732421875 122.15481567382812 179.89828491210938 120.49752044677734 180.72412109375 118.79167175292969 C181.37428283691406 117.44886016845703 182.17544555664062 116.09552764892578 183.10348510742188 114.77397155761719 C184.03152465820312 113.4524154663086 185.08644104003906 112.16263580322266 186.24407958984375 110.9469223022461 C187.40171813964844 109.73121643066406 188.66207885742188 108.58958435058594 190.0010223388672 107.56431579589844 C191.3399658203125 106.53905487060547 192.75750732421875 105.63015747070312 194.2294921875 104.87993621826172 C195.7014617919922 104.12970733642578 197.22789001464844 103.53814697265625 198.78460693359375 103.14755249023438 C200.34132385253906 102.7569580078125 201.9283447265625 102.56732177734375 203.52151489257812 102.62095642089844 C205.11468505859375 102.6745834350586 206.71401977539062 102.97146606445312 208.29534912109375 103.55391693115234 C209.747314453125 104.08867645263672 211.11810302734375 104.84558868408203 212.39141845703125 105.78018188476562 C213.66473388671875 106.71477508544922 214.84056091308594 107.82704162597656 215.90260314941406 109.07251739501953 C216.9646453857422 110.3179931640625 217.91290283203125 111.69666290283203 218.7310791015625 113.1640625 C219.54925537109375 114.63146209716797 220.23733520507812 116.18758392333984 220.77902221679688 117.78795623779297 C221.32070922851562 119.3883285522461 221.71600341796875 121.03294372558594 221.9486083984375 122.67733764648438 C222.18121337890625 124.32172393798828 222.25111389160156 125.96588897705078 222.1420135498047 127.56533813476562 C222.0329132080078 129.164794921875 221.74481201171875 130.71954345703125 221.2613983154297 132.1851043701172 C220.7779998779297 133.65066528320312 220.09927368164062 135.02703857421875 219.20895385742188 136.26976013183594 C218.5077362060547 137.24842834472656 217.6918487548828 138.20448303222656 216.78652954101562 139.100830078125 C215.8812255859375 139.9971923828125 214.88648986816406 140.83384704589844 213.82757568359375 141.57371520996094 C212.76866149902344 142.3135986328125 211.64556884765625 142.95669555664062 210.4835205078125 143.46591186523438"></path>
<path fill="#9CCD00" fill-opacity="1.0"  filling="0" d="M208.12640380859375 138.8108673095703 C208.05282592773438 140.1913604736328 208.50338745117188 141.5424041748047 208.837158203125 142.87197875976562 C209.2147216796875 144.37664794921875 209.3017578125 145.8697509765625 209.29153442382812 147.41375732421875 C209.2862548828125 148.22479248046875 209.07208251953125 150.01065063476562 209.22625732421875 151.55545043945312 C209.38040161132812 153.10025024414062 209.90289306640625 154.40399169921875 211.37091064453125 154.25086975097656 C212.02047729492188 154.18304443359375 212.81246948242188 153.93182373046875 213.099853515625 153.2592010498047 C213.67779541015625 151.90591430664062 214.33953857421875 150.73663330078125 214.48672485351562 149.2291259765625 C214.64962768554688 147.56192016601562 214.55108642578125 146.00897216796875 214.29986572265625 144.35552978515625 C214.1032257080078 143.06112670898438 213.61553955078125 141.52880859375 212.81153869628906 140.26951599121094 C212.00753784179688 139.01022338867188 210.88720703125 138.02398681640625 209.42529296875 137.82174682617188 C208.7481689453125 137.7276611328125 208.16546630859375 138.08224487304688 208.12640380859375 138.8108673095703"></path>
<path fill="#9CCD00" fill-opacity="1.0"  filling="0" d="M202.16192626953125 134.06399536132812 C201.50140380859375 135.63128662109375 200.6792755126953 137.07200622558594 199.7244415283203 138.37960815429688 C198.7696075439453 139.6872100830078 197.6820526123047 140.8616943359375 196.49069213867188 141.89651489257812 C195.29933166503906 142.93133544921875 194.00418090820312 143.8264923095703 192.6341094970703 144.57542419433594 C191.2640380859375 145.32437133789062 189.81907653808594 145.92709350585938 188.32809448242188 146.37705993652344 C186.83712768554688 146.8270263671875 185.30014038085938 147.1242218017578 183.74607849121094 147.26211547851562 C182.19200134277344 147.40000915527344 180.62081909179688 147.3785858154297 179.0614471435547 147.19131469726562 C177.5020751953125 147.00404357910156 175.95449829101562 146.65090942382812 174.4476318359375 146.1253662109375 C172.94076538085938 145.59982299804688 171.474609375 144.90187072753906 170.0780487060547 144.0249786376953 C168.68148803710938 143.1480712890625 167.35455322265625 142.09222412109375 166.1260986328125 140.85086059570312 C164.80665588378906 139.517578125 163.7540740966797 138.1341094970703 162.9437713623047 136.7209930419922 C162.13345336914062 135.30787658691406 161.56541442871094 133.8651123046875 161.21502685546875 132.4132843017578 C160.86463928222656 130.96145629882812 160.73193359375 129.50054931640625 160.7922821044922 128.05111694335938 C160.85263061523438 126.60169219970703 161.10604858398438 125.16374969482422 161.5279541015625 123.75785827636719 C161.94984436035156 122.35196685791016 162.5402069091797 120.97811889648438 163.27444458007812 119.6568832397461 C164.00868225097656 118.33564758300781 164.8867950439453 117.0670166015625 165.88417053222656 115.87155151367188 C166.88156127929688 114.67609405517578 167.9982147216797 113.55380249023438 169.2095489501953 112.5252456665039 C170.42088317871094 111.49668884277344 171.72691345214844 110.56185913085938 173.10301208496094 109.74132537841797 C174.47911071777344 108.92079162597656 175.92527770996094 108.21454620361328 177.4169464111328 107.64315795898438 C178.90859985351562 107.07176971435547 180.44573974609375 106.63523864746094 182.00376892089844 106.3541259765625 C183.56179809570312 106.07301330566406 185.14071655273438 105.94731903076172 186.71591186523438 105.99759674072266 C188.29110717773438 106.04788208007812 189.86257934570312 106.27413940429688 191.40576171875 106.69694519042969 C192.83944702148438 107.090087890625 194.1584930419922 107.75032043457031 195.3555908203125 108.61888122558594 C196.55270385742188 109.48744201660156 197.62786865234375 110.56433868408203 198.57383728027344 111.79082489013672 C199.51980590820312 113.0173110961914 200.3365478515625 114.39338684082031 201.0167999267578 115.86030578613281 C201.69705200195312 117.32722473144531 202.24081420898438 118.8849868774414 202.64077758789062 120.47484588623047 C203.04075622558594 122.06470489501953 203.2969512939453 123.68666076660156 203.402099609375 125.2819595336914 C203.50723266601562 126.87725830078125 203.4613037109375 128.44590759277344 203.2570343017578 129.92916870117188 C203.05276489257812 131.41241455078125 202.69015502929688 132.81027221679688 202.16192626953125 134.06399536132812"></path>
<path fill="#5AA612" fill-opacity="1.0"  filling="0" d="M180.3001708984375 136.4390411376953 C179.68496704101562 137.94320678710938 178.8795623779297 139.30165100097656 177.9200439453125 140.5150146484375 C176.9605255126953 141.7283935546875 175.84690856933594 142.7967071533203 174.61529541015625 143.7205810546875 C173.38368225097656 144.64447021484375 172.0340576171875 145.42393493652344 170.60255432128906 146.05963134765625 C169.17105102539062 146.69532775878906 167.65765380859375 147.18724060058594 166.09848022460938 147.53602600097656 C164.539306640625 147.8848114013672 162.93434143066406 148.09048461914062 161.31968688964844 148.15365600585938 C159.70504760742188 148.2168426513672 158.0807342529297 148.13754272460938 156.48284912109375 147.9164276123047 C154.8849639892578 147.69529724121094 153.31350708007812 147.33233642578125 151.80459594726562 146.82818603515625 C150.29566955566406 146.32403564453125 148.8492889404297 145.67869567871094 147.50155639648438 144.892822265625 C146.15380859375 144.10696411132812 144.90472412109375 143.1805419921875 143.79037475585938 142.1142578125 C142.676025390625 141.04794311523438 141.69644165039062 139.84176635742188 140.8876953125 138.49632263183594 C139.9534454345703 136.9420623779297 139.24778747558594 135.37387084960938 138.7495574951172 133.80955505371094 C138.25132751464844 132.2452392578125 137.9605255126953 130.68479919433594 137.85595703125 129.14602661132812 C137.7513885498047 127.60725402832031 137.83306884765625 126.09014129638672 138.07981872558594 124.61249542236328 C138.32655334472656 123.13484191894531 138.7383575439453 121.69664764404297 139.29405212402344 120.31570434570312 C139.8497314453125 118.93475341796875 140.54930114746094 117.6110610961914 141.37156677246094 116.36239624023438 C142.19383239746094 115.11373901367188 143.1387939453125 113.94011688232422 144.18527221679688 112.85932922363281 C145.23175048828125 111.7785415649414 146.3797607421875 110.79058837890625 147.6081085205078 109.91325378417969 C148.83645629882812 109.03591918945312 150.14512634277344 108.26921844482422 151.51296997070312 107.63092803955078 C152.8808135986328 106.99263763427734 154.30780029296875 106.48275756835938 155.7727813720703 106.11908721923828 C157.23776245117188 105.75541687011719 158.74070739746094 105.53795623779297 160.2604522705078 105.4844970703125 C161.7801971435547 105.4310302734375 163.31674194335938 105.54156494140625 164.84890747070312 105.83389282226562 C166.38107299804688 106.126220703125 167.9088592529297 106.600341796875 169.41107177734375 107.27404022216797 C170.91329956054688 107.94773864746094 172.38995361328125 108.82101440429688 173.81985473632812 109.91167449951172 C175.20465087890625 110.96794128417969 176.41094970703125 112.15692901611328 177.4425811767578 113.44706726074219 C178.47422790527344 114.7372055053711 179.33120727539062 116.12848663330078 180.0174102783203 117.58935546875 C180.70359802246094 119.05021667480469 181.218994140625 120.5806655883789 181.56744384765625 122.14911651611328 C181.9158935546875 123.71756744384766 182.097412109375 125.32403564453125 182.1158447265625 126.93693542480469 C182.13427734375 128.54983520507812 181.98960876464844 130.16917419433594 181.68569946289062 131.7633819580078 C181.38180541992188 133.3575897216797 180.91867065429688 134.92666625976562 180.3001708984375 136.4390411376953"></path>
<path fill="#9CCD00" fill-opacity="1.0"  filling="0" d="M155.4185791015625 114.53663635253906 C156.42758178710938 116.01522064208984 157.2358856201172 117.56354522705078 157.8546905517578 119.15080261230469 C158.47348022460938 120.73805236816406 158.9027862548828 122.36422729492188 159.1537628173828 123.99850463867188 C159.4047393798828 125.63278198242188 159.47740173339844 127.27516174316406 159.38294982910156 128.89480590820312 C159.2884979248047 130.51446533203125 159.02691650390625 132.11138916015625 158.6094207763672 133.65476989746094 C158.19190979003906 135.19815063476562 157.6184844970703 136.68798828125 156.9003143310547 138.0934600830078 C156.18215942382812 139.49893188476562 155.31924438476562 140.82000732421875 154.32281494140625 142.02590942382812 C153.32635498046875 143.2318115234375 152.19638061523438 144.322509765625 150.94403076171875 145.26719665527344 C149.79811096191406 146.13162231445312 148.54971313476562 146.873779296875 147.20742797851562 147.4700469970703 C145.86514282226562 148.0663299560547 144.42897033691406 148.51673889160156 142.90748596191406 148.79766845703125 C141.385986328125 149.07861328125 139.77920532226562 149.1900634765625 138.09567260742188 149.1084747314453 C136.44703674316406 149.028564453125 134.92970275878906 148.8497314453125 133.5025177001953 148.5601043701172 C132.07533264160156 148.27047729492188 130.73831176757812 147.8700714111328 129.4503173828125 147.34701538085938 C128.16232299804688 146.82394409179688 126.92333984375 146.17823791503906 125.6922378540039 145.39801025390625 C124.46114349365234 144.61778259277344 123.23792266845703 143.70303344726562 121.9814453125 142.64190673828125 C120.42752838134766 141.3292236328125 119.15687561035156 139.96035766601562 118.1434555053711 138.55572509765625 C117.13004302978516 137.15109252929688 116.37386322021484 135.71067810058594 115.8488998413086 134.25491333007812 C115.32393646240234 132.7991485595703 115.03018188476562 131.32801818847656 114.94161224365234 129.8619384765625 C114.85304260253906 128.39585876464844 114.96965789794922 126.93482971191406 115.26543426513672 125.499267578125 C115.56121063232422 124.06370544433594 116.03614044189453 122.65360260009766 116.6642074584961 121.28937530517578 C117.29226684570312 119.9251480102539 118.0734634399414 118.60679626464844 118.98175811767578 117.35472869873047 C119.89005279541016 116.1026611328125 120.92546081542969 114.91688537597656 122.06193542480469 113.81780242919922 C123.19841766357422 112.71871948242188 124.43597412109375 111.70633697509766 125.74858093261719 110.80106353759766 C127.06118774414062 109.89579010009766 128.4488525390625 109.09762573242188 129.88552856445312 108.4269790649414 C131.32220458984375 107.75633239746094 132.8079071044922 107.21321105957031 134.31661987304688 106.81802368164062 C135.8253173828125 106.42283630371094 137.35702514648438 106.17558288574219 138.88568115234375 106.09667205810547 C140.4143524169922 106.01776123046875 141.9399871826172 106.10719299316406 143.4365692138672 106.38538360595703 C144.9331512451172 106.66357421875 146.4006805419922 107.13052368164062 147.81312561035156 107.806640625 C149.22557067871094 108.48275756835938 150.5829315185547 109.36803436279297 151.8591766357422 110.48289489746094 C153.13543701171875 111.59776306152344 154.33056640625 112.94219970703125 155.4185791015625 114.53663635253906"></path>
<path fill="#5AA612" fill-opacity="1.0"  filling="0" d="M119.7420654296875 156.052490234375 C118.8419189453125 156.44705200195312 117.92120361328125 156.77056884765625 116.98900604248047 157.0097198486328 C116.05680847167969 157.24887084960938 115.11312866210938 157.40367126464844 114.16705322265625 157.46078491210938 C112.5615463256836 157.5576171875 110.91168212890625 157.5154266357422 109.25080871582031 157.3436737060547 C107.58992767333984 157.1719207763672 105.91803741455078 156.87057495117188 104.26847839355469 156.44912719726562 C102.6189193725586 156.02767944335938 100.99168395996094 155.48609924316406 99.42012786865234 154.83383178710938 C97.84857177734375 154.18157958984375 96.33268737792969 153.41864013671875 94.90583038330078 152.5544891357422 C93.47896575927734 151.69033813476562 92.14112091064453 150.72494506835938 90.92564392089844 149.66778564453125 C89.71015930175781 148.61062622070312 88.6170425415039 147.46168518066406 87.67963409423828 146.2304229736328 C86.74222564697266 144.99916076660156 85.96051788330078 143.68556213378906 85.36787414550781 142.29908752441406 C84.77522277832031 140.91261291503906 84.37162780761719 139.4532470703125 84.19042205810547 137.9304656982422 C84.00921630859375 136.40768432617188 84.0504150390625 134.8214569091797 84.34735107421875 133.18125915527344 C84.644287109375 131.54104614257812 85.19696044921875 129.84686279296875 86.03872680664062 128.108154296875 C86.68301391601562 126.77747344970703 87.4582290649414 125.43767547607422 88.34607696533203 124.12084197998047 C89.23392486572266 122.80400848388672 90.23439025878906 121.5101547241211 91.32916259765625 120.27135467529297 C92.42393493652344 119.03255462646484 93.6130142211914 117.84881591796875 94.87808227539062 116.7522201538086 C96.14315032958984 115.65563201904297 97.48420715332031 114.64618682861328 98.8829345703125 113.75598907470703 C100.28166198730469 112.86579132080078 101.7380599975586 112.09483337402344 103.23381805419922 111.4751968383789 C104.72957611083984 110.8555679321289 106.26469421386719 110.38726806640625 107.82084655761719 110.10238647460938 C109.37699890136719 109.8175048828125 110.95419311523438 109.71604919433594 112.53410339355469 109.8301010131836 C114.11402130126953 109.94415283203125 115.6966552734375 110.27371215820312 117.26370239257812 110.85086822509766 C118.72535705566406 111.38921356201172 120.1143798828125 112.12635040283203 121.41779327392578 113.02690887451172 C122.7212142944336 113.92745971679688 123.93902587890625 114.99142456054688 125.05827331542969 116.18342590332031 C126.17752075195312 117.37542724609375 127.19818878173828 118.69546508789062 128.10733032226562 120.10816192626953 C129.01646423339844 121.52085876464844 129.81405639648438 123.02621459960938 130.48712158203125 124.58885192871094 C131.1602020263672 126.1514892578125 131.70877075195312 127.77141571044922 132.11984252929688 129.41323852539062 C132.5309295654297 131.05506896972656 132.80453491210938 132.7187957763672 132.9276885986328 134.36904907226562 C133.05084228515625 136.01930236816406 133.02354431152344 137.65609741210938 132.83282470703125 139.2440185546875 C132.64212036132812 140.8319549560547 132.28797912597656 142.37103271484375 131.7574462890625 143.82589721679688 C131.22691345214844 145.28074645996094 130.51998901367188 146.6513671875 129.62371826171875 147.90240478515625 C128.8294677734375 149.01087951660156 127.90541076660156 150.0936737060547 126.88011169433594 151.1088409423828 C125.85481262207031 152.1240234375 124.72828674316406 153.07154846191406 123.52908325195312 153.90948486328125 C122.32988739013672 154.74740600585938 121.05802917480469 155.47573852539062 119.7420654296875 156.052490234375"></path>
<path fill="#9CCD00" fill-opacity="1.0"  filling="0" d="M109.35360717773438 128.4547119140625 C109.45208740234375 126.91099548339844 109.42761993408203 125.37584686279297 109.28630828857422 123.86097717285156 C109.1449966430664 122.34609985351562 108.8868408203125 120.85149383544922 108.51795196533203 119.38885498046875 C108.14906311035156 117.92621612548828 107.66944885253906 116.49553680419922 107.08519744873047 115.10852813720703 C106.5009536743164 113.72151184082031 105.81208038330078 112.37815856933594 105.02468872070312 111.09015655517578 C104.2373046875 109.80215454101562 103.35139465332031 108.56951141357422 102.37307739257812 107.40391540527344 C101.39476013183594 106.23831939697266 100.32403564453125 105.13977813720703 99.16700744628906 104.11997985839844 C98.00997924804688 103.10018157958984 96.76665496826172 102.15912628173828 95.44313049316406 101.30851745605469 C94.11961364746094 100.45790100097656 92.71589660644531 99.69772338867188 91.23809814453125 99.03968811035156 C90.04251098632812 98.50730895996094 88.73526763916016 98.00780487060547 87.34928131103516 97.55986022949219 C85.96329498291016 97.11190795898438 84.4985580444336 96.71551513671875 82.98797607421875 96.38936614990234 C81.4773941040039 96.06321716308594 79.92095947265625 95.80731201171875 78.35157775878906 95.64033508300781 C76.78219604492188 95.47335815429688 75.19987487792969 95.39531707763672 73.63749694824219 95.42489624023438 C72.07512664794922 95.45447540283203 70.53269958496094 95.59166717529297 69.04313659667969 95.85517120361328 C67.55357360839844 96.1186752319336 66.11685943603516 96.50848388671875 64.76589965820312 97.04328155517578 C63.414939880371094 97.57807922363281 62.14973068237305 98.25787353515625 61.003177642822266 99.10134887695312 C59.856624603271484 99.94482421875 58.82872772216797 100.95197296142578 57.9523811340332 102.14149475097656 C57.0760383605957 103.33100891113281 56.35124969482422 104.70289611816406 55.8109130859375 106.27584075927734 C55.34388732910156 107.63530731201172 54.917808532714844 109.06040954589844 54.548160552978516 110.52916717529297 C54.17851257324219 111.9979248046875 53.865291595458984 113.51034545898438 53.62398910522461 115.04444885253906 C53.382686614990234 116.57855224609375 53.21329879760742 118.13433837890625 53.131317138671875 119.68983459472656 C53.04933166503906 121.24532318115234 53.054752349853516 122.80052185058594 53.163055419921875 124.33345031738281 C53.2713623046875 125.86637878417969 53.4825553894043 127.37703704833984 53.81212615966797 128.84344482421875 C54.141693115234375 130.3098602294922 54.589637756347656 131.73202514648438 55.17144012451172 133.0879669189453 C55.75324249267578 134.44390869140625 56.46890640258789 135.73362731933594 57.33391189575195 136.93515014648438 C58.19892120361328 138.1366729736328 59.21327590942383 139.25 60.39246368408203 140.25314331054688 C61.57164764404297 141.25628662109375 62.91566467285156 142.14926147460938 64.44000244140625 142.91006469726562 C65.5926742553711 143.4853973388672 66.84915161132812 144.0782012939453 68.18524932861328 144.66355895996094 C69.52134704589844 145.2489013671875 70.93706512451172 145.8267822265625 72.40823364257812 146.37225341796875 C73.87939453125 146.917724609375 75.406005859375 147.4307861328125 76.96388244628906 147.88650512695312 C78.52175903320312 148.3422088623047 80.11089324951172 148.74057006835938 81.70712280273438 149.05662536621094 C83.30335235595703 149.3726806640625 84.90666198730469 149.60643005371094 86.49288177490234 149.73292541503906 C88.0791015625 149.85943603515625 89.64823913574219 149.87869262695312 91.17609405517578 149.76576232910156 C92.7039566040039 149.65283203125 94.1905517578125 149.40769958496094 95.6116943359375 149.00543212890625 C97.0328369140625 148.60316467285156 98.38853454589844 148.04376220703125 99.65460205078125 147.3022918701172 C100.92066955566406 146.56080627441406 102.09710693359375 145.63723754882812 103.15974426269531 144.5066375732422 C104.22238159179688 143.37603759765625 105.17120361328125 142.03842163085938 105.9820556640625 140.46881103515625 C106.65792083740234 139.16021728515625 107.22937774658203 137.83523559570312 107.70042419433594 136.50149536132812 C108.17147064208984 135.16773986816406 108.54209899902344 133.82522583007812 108.8163070678711 132.48155212402344 C109.09050750732422 131.13787841796875 109.26828002929688 129.79306030273438 109.35360717773438 128.4547119140625"></path>
<path fill="#000000" fill-opacity="1.0"  filling="0" d="M94.66558837890625 115.02751159667969 C93.20220947265625 114.7545394897461 92.155517578125 115.75870513916016 91.5379638671875 116.99742889404297 C90.79229736328125 118.49182891845703 90.92703247070312 120.04063415527344 91.74176025390625 121.47999572753906 C92.33599853515625 122.52960205078125 93.87548828125 123.0102310180664 94.91619873046875 122.31232452392578 C96.25921630859375 121.4115219116211 96.98910522460938 120.24095153808594 97.10528564453125 118.62174987792969 C97.16705322265625 117.76094818115234 96.78594970703125 117.02047729492188 96.66436767578125 116.20702362060547 C96.5072021484375 115.15552520751953 95.30307006835938 114.42304229736328 94.32098388671875 114.42304229736328 C92.9993896484375 114.42304229736328 91.88702392578125 115.52831268310547 91.89093017578125 116.85311889648438 C91.892822265625 117.48576354980469 92.08221435546875 118.01534271240234 92.2579345703125 118.60286712646484 C92.28802490234375 118.70912170410156 92.31329345703125 118.81663513183594 92.333740234375 118.92510986328125 C92.17922973632812 118.1951904296875 92.223388671875 119.20510864257812 92.3363037109375 118.51167297363281 C92.56381225585938 118.0979232788086 92.20452880859375 118.58847045898438 92.10467529296875 118.66847229003906 C93.31939697265625 118.82495880126953 94.53375244140625 118.98143768310547 95.74847412109375 119.13792419433594 C95.6358642578125 118.9823989868164 95.53726196289062 118.8182373046875 95.45245361328125 118.64607238769531 C95.48382568359375 118.44607543945312 95.55780029296875 118.25216674804688 95.62594604492188 118.06206512451172 C95.98046875 117.07583618164062 96.02276611328125 115.28063201904297 94.66558837890625 115.02751159667969"></path>
<path fill="#000000" fill-opacity="1.0"  filling="0" d="M62.33184814453125 104.81568145751953 C61.957794189453125 105.5647964477539 61.2435302734375 105.98719787597656 60.7420654296875 106.63807678222656 C60.02496337890625 107.56927490234375 60.18817138671875 108.74816131591797 60.611846923828125 109.76607513427734 C61.260467529296875 111.32383728027344 63.43138122558594 111.13694763183594 63.57344055175781 109.3651123046875 C63.62016296386719 109.18719482421875 63.67327880859375 109.01663208007812 63.725128173828125 108.8470230102539 C63.827850341796875 108.51007080078125 63.951385498046875 108.17951202392578 64.06143188476562 107.84479522705078 C64.15937805175781 107.54655456542969 64.26559448242188 107.25118255615234 64.37374877929688 106.95679473876953 C64.40704345703125 106.86622619628906 64.4412841796875 106.77632141113281 64.47586059570312 106.6864013671875 C64.64289855957031 106.24927520751953 64.591064453125 106.79647827148438 64.15742492675781 107.16545104980469 C63.274871826171875 106.6518325805664 62.39231872558594 106.13792419433594 61.509765625 105.62430572509766 C61.36993408203125 106.06175231933594 61.41441345214844 106.58750915527344 61.67106628417969 106.97343444824219 C61.60223388671875 106.71903991699219 61.533447265625 106.46464538574219 61.46466064453125 106.2102279663086 C61.477783203125 106.683837890625 61.637420654296875 106.96991729736328 61.83390808105469 107.381103515625 C62.015655517578125 107.76190948486328 62.595855712890625 108.00800323486328 62.99391174316406 107.85311889648438 C63.3990478515625 107.69534301757812 63.731842041015625 107.60831451416016 64.04609680175781 107.27935028076172 C63.82366943359375 107.40896606445312 63.601287841796875 107.5385513305664 63.378875732421875 107.66815948486328 C63.98846435546875 107.50846862792969 64.37954711914062 107.04544830322266 64.56512451171875 106.46656036376953 C65.08450317382812 104.84351348876953 63.04449462890625 103.96671295166016 61.91778564453125 104.92544555664062 C61.457275390625 105.3171157836914 61.2445068359375 106.30526733398438 61.0540771484375 106.86175537109375 C60.78594970703125 107.64575958251953 60.54754638671875 108.5315170288086 60.55810546875 109.36544799804688 C61.494720458984375 109.1116714477539 62.43138122558594 108.85823822021484 63.368011474609375 108.60446166992188 C63.20222473144531 108.29151916503906 63.12384033203125 108.01248168945312 63.109771728515625 107.81951141357422 C63.12640380859375 108.04383850097656 63.13092041015625 107.73438262939453 63.156494140625 107.65599060058594 C63.084808349609375 107.87327575683594 63.272979736328125 107.47615051269531 63.272308349609375 107.47679138183594 C63.63648986816406 106.84960174560547 64.02560424804688 106.33023071289062 64.20735168457031 105.60639953613281 C64.48289489746094 104.5081558227539 62.86625671386719 103.74591827392578 62.33184814453125 104.81568145751953"></path>
<path fill="#000000" fill-opacity="1.0"  filling="0" d="M63.856964111328125 124.0412826538086 C63.20896530151367 125.47733306884766 63.082420349121094 126.95309448242188 63.34588623046875 128.36187744140625 C63.609352111816406 129.77066040039062 64.26282501220703 131.11245727539062 65.17485809326172 132.2805633544922 C66.08689880371094 133.44866943359375 67.25749206542969 134.44308471679688 68.55519104003906 135.15711975097656 C69.8299789428711 135.8585662841797 71.38923645019531 136.27061462402344 72.97734832763672 136.34498596191406 C74.56546020507812 136.4193572998047 76.18241882324219 136.15603637695312 77.5726318359375 135.50674438476562 C78.96282958984375 134.85745239257812 80.12628173828125 133.82217407226562 80.80734252929688 132.35263061523438 C81.00320434570312 131.92991638183594 81.117431640625 131.35711669921875 80.80734252929688 130.94366455078125 C79.65313720703125 129.40545654296875 78.13763427734375 131.00445556640625 76.99298095703125 131.73727416992188 C76.156494140625 132.27279663085938 75.32328796386719 132.6600799560547 74.45144653320312 132.86068725585938 C73.57960510253906 133.061279296875 72.66912841796875 133.0751953125 71.6781005859375 132.86399841308594 C70.27265167236328 132.56468200683594 69.1448974609375 131.9215850830078 68.23617553710938 131.05674743652344 C67.32744598388672 130.19190979003906 66.63774108886719 129.10531616210938 66.10839080810547 127.91902160644531 C65.57904052734375 126.73272705078125 65.21005249023438 125.44671630859375 64.9427490234375 124.18304443359375 C64.84127807617188 123.70430755615234 64.06816101074219 123.57343292236328 63.856964111328125 124.0412826538086"></path>
<path fill="#FFE500" fill-opacity="1.0"  filling="0" d="M76.52862548828125 98.6627197265625 C76.36894226074219 98.0592041015625 76.68734741210938 97.051513671875 76.6163330078125 96.37568664550781 C76.48672485351562 95.14495849609375 76.156494140625 93.80287170410156 75.70529174804688 92.65216064453125 C75.32482147216797 91.68207550048828 74.90729522705078 90.3040771484375 74.28164672851562 89.11866760253906 C73.656005859375 87.93327331542969 72.8222427368164 86.94046783447266 71.60929870605469 86.74078369140625 C70.02145385742188 86.47935485839844 68.69122314453125 87.13726806640625 68.15266418457031 88.70335388183594 C67.79682159423828 89.73839569091797 68.11793518066406 90.85079956054688 68.64612579345703 91.92236328125 C69.17431640625 92.99392700195312 69.90959167480469 94.02464294433594 70.38206481933594 94.89631652832031 C70.891845703125 95.83647155761719 71.55107116699219 96.69758605957031 72.14657592773438 97.58622741699219 C72.66368103027344 98.35807800292969 73.80734252929688 98.88319396972656 74.22560119628906 99.63359069824219 C74.93023681640625 100.89823913574219 76.89091491699219 100.0339126586914 76.52862548828125 98.6627197265625"></path>
<path fill="#FFE500" fill-opacity="1.0"  filling="0" d="M93.1689453125 106.53984069824219 C94.19168090820312 106.63023376464844 95.22288513183594 106.23591613769531 96.19072723388672 105.67611694335938 C97.1585693359375 105.11631774902344 98.06304931640625 104.39103698730469 98.83233642578125 103.81951141357422 C99.6771240234375 103.19198608398438 100.94703674316406 102.32534790039062 101.82064056396484 101.29959106445312 C102.69424438476562 100.27383422851562 103.17153930664062 99.08895874023438 102.43109130859375 97.824951171875 C101.64451599121094 96.48223114013672 100.39962768554688 96.48774719238281 99.16346740722656 96.98774719238281 C97.92729949951172 97.48774719238281 96.69985961914062 98.48223114013672 95.94818115234375 99.117431640625 C95.15937805175781 99.78399658203125 94.13945007324219 100.5335922241211 93.26448059082031 101.3875961303711 C92.38951873779297 102.24159240722656 91.65951538085938 103.19999694824219 91.4505615234375 104.28414916992188 C91.21856689453125 105.48896026611328 91.958740234375 106.43263244628906 93.1689453125 106.53984069824219"></path>
<path fill="#5AA612" fill-opacity="1.0"  filling="0" d="M187.69024658203125 139.95327758789062 C188.0457763671875 141.202392578125 188.43569946289062 142.40985107421875 188.7467041015625 143.63299560546875 C189.05770874023438 144.85617065429688 189.289794921875 146.09503173828125 189.32965087890625 147.4070281982422 C189.37106323242188 148.768798828125 188.94712829589844 150.12384033203125 188.5875244140625 151.474365234375 C188.22792053222656 152.8248748779297 187.93264770507812 154.17086791992188 188.23138427734375 155.51454162597656 C188.35873413085938 156.0867156982422 189.02658081054688 156.66079711914062 189.637451171875 156.5849609375 C190.9608612060547 156.4205780029297 191.9496612548828 155.77365112304688 192.6808624267578 154.86175537109375 C193.4120635986328 153.94985961914062 193.8856658935547 152.77301025390625 194.17868041992188 151.54879760742188 C194.47169494628906 150.3245849609375 194.58413696289062 149.05300903320312 194.59298706054688 147.95167541503906 C194.60267639160156 146.75296020507812 194.44256591796875 145.4797821044922 194.10092163085938 144.25047302246094 C193.75927734375 143.0211639404297 193.236083984375 141.83572387695312 192.5196533203125 140.8124542236328 C191.80322265625 139.7891845703125 190.89352416992188 138.9281005859375 189.77886962890625 138.34750366210938 C188.70144653320312 137.78591918945312 187.33441162109375 138.70335388183594 187.69024658203125 139.95327758789062"></path>
<path fill="#5AA612" fill-opacity="1.0"  filling="0" d="M141.48544311523438 143.7475128173828 C141.16769409179688 145.05279541015625 141.560302734375 146.551025390625 141.8876953125 147.82623291015625 C142.28546142578125 149.37664794921875 141.89599609375 151.18431091308594 141.51458740234375 152.69664001464844 C141.24620056152344 153.7604217529297 140.6989288330078 154.8641815185547 140.11807250976562 155.9877471923828 C139.53720092773438 157.11131286621094 138.92276000976562 158.25469970703125 138.52003479003906 159.3977508544922 C138.1173095703125 160.54080200195312 137.92630004882812 161.6835174560547 138.19232177734375 162.80575561523438 C138.42529296875 163.7881622314453 139.38818359375 164.11007690429688 140.27362060546875 163.98751831054688 C141.39617919921875 163.8324737548828 142.3571319580078 163.1004638671875 143.1650390625 162.1811065673828 C143.97296142578125 161.26174926757812 144.62783813476562 160.155029296875 145.13824462890625 159.25054931640625 C145.7205047607422 158.21871948242188 146.2209014892578 157.09054565429688 146.61001586914062 155.92623901367188 C146.99911499023438 154.7619171142578 147.27694702148438 153.56143188476562 147.4140625 152.38494873046875 C147.5377960205078 151.3231964111328 147.47860717773438 149.86904907226562 147.17581176757812 148.43167114257812 C146.87301635742188 146.9943084716797 146.32664489746094 145.57373046875 145.47601318359375 144.5791015625 C144.6253662109375 143.58447265625 143.47048950195312 143.01580810546875 141.95068359375 143.28225708007812 C141.73345947265625 143.3203125 141.5360107421875 143.5401611328125 141.48544311523438 143.7475128173828"></path>
<path fill="#9CCD00" fill-opacity="1.0"  filling="0" d="M115.79486083984375 150.56350708007812 C115.33773803710938 151.81390380859375 115.13175201416016 153.14013671875 114.93260192871094 154.47418212890625 C114.73345947265625 155.8082275390625 114.54115295410156 157.1500701904297 114.11138916015625 158.43167114257812 C113.6461181640625 159.81919860839844 112.92544555664062 161.1014404296875 112.3404541015625 162.43743896484375 C111.77984619140625 163.71713256835938 110.80865478515625 165.37535095214844 111.38113403320312 166.76608276367188 C111.64450073242188 167.40576171875 112.05120849609375 167.74623107910156 112.7523193359375 167.8102264404297 C113.59310913085938 167.88687133789062 114.36286926269531 167.4951171875 115.03483581542969 166.9292755126953 C115.70680236816406 166.36343383789062 116.28097534179688 165.62351989746094 116.7305908203125 165.00384521484375 C117.29312133789062 164.2283172607422 117.75814819335938 163.3885498046875 118.15018463134766 162.5141143798828 C118.54222106933594 161.63967895507812 118.86126708984375 160.73056030273438 119.1318359375 159.81631469726562 C119.4503402709961 158.7399444580078 119.68653106689453 157.52926635742188 119.74878692626953 156.31201171875 C119.81104278564453 155.09475708007812 119.6993637084961 153.87091064453125 119.32211303710938 152.7681884765625 C118.94486999511719 151.6654510498047 118.30206298828125 150.683837890625 117.30206298828125 149.95101928710938 C116.72705078125 149.52896118164062 116.0009765625 150.0 115.79486083984375 150.56350708007812"></path>
<path fill="#9CCD00" fill-opacity="1.0"  filling="0" d="M164.77093505859375 143.61663818359375 C164.9324951171875 144.64718627929688 165.1607208251953 145.6575164794922 165.34519958496094 146.67251586914062 C165.5296630859375 147.68751525878906 165.67039489746094 148.7071990966797 165.65695190429688 149.7564697265625 C165.6419219970703 150.9361572265625 165.23455810546875 152.0635986328125 164.847412109375 153.18736267089844 C164.4602508544922 154.31112670898438 164.09329223632812 155.4311981201172 164.1590576171875 156.59616088867188 C164.1900634765625 157.145263671875 164.59423828125 157.60321044921875 165.16705322265625 157.60415649414062 C166.95266723632812 157.60751342773438 168.2421875 156.5072021484375 169.10006713867188 155.03895568847656 C169.9579315185547 153.57070922851562 170.3841552734375 151.73455810546875 170.44317626953125 150.2662353515625 C170.50799560546875 148.65870666503906 170.1679229736328 147.00062561035156 169.42764282226562 145.5872344970703 C168.6873779296875 144.173828125 167.54690551757812 143.005126953125 166.01092529296875 142.37632751464844 C165.21630859375 142.05117797851562 164.6678466796875 142.95904541015625 164.77093505859375 143.61663818359375"></path></svg>