<svg xmlns="http://www.w3.org/2000/svg" viewBox="0.0 0.0 256.0 256.0" height="256.0px" width="256.0px"><path fill="#0586A3" fill-opacity="1.0"  filling="0" d="M63.57341003417969 185.23583984375 C63.6385383605957 185.83303833007812 62.880672454833984 187.35890197753906 61.87566375732422 188.79022216796875 C60.87065887451172 190.2215576171875 59.61851119995117 191.55833435058594 58.69507598876953 191.77737426757812 C57.99281311035156 191.94418334960938 56.88151550292969 191.5219268798828 55.667152404785156 190.87257385253906 C54.452789306640625 190.22323608398438 53.13536071777344 189.3468017578125 52.020835876464844 188.605224609375 C51.31919860839844 188.13827514648438 50.697425842285156 187.72476196289062 50.232933044433594 187.45504760742188 C49.747867584228516 187.1736602783203 48.67005920410156 186.5342254638672 47.34711456298828 185.66644287109375 C46.024169921875 184.7986602783203 44.456085205078125 183.70252990722656 42.990474700927734 182.50775146484375 C41.52486038208008 181.31297302246094 40.16171646118164 180.01954650878906 39.24864959716797 178.75717163085938 C38.3355827331543 177.49478149414062 37.872589111328125 176.26345825195312 38.20728302001953 175.19285583496094 C38.87667465209961 173.05166625976562 40.026832580566406 172.31008911132812 41.232208251953125 172.2108612060547 C42.437583923339844 172.11163330078125 43.698177337646484 172.65476989746094 44.58843994140625 173.0830078125 C45.181949615478516 173.36849975585938 46.308692932128906 173.97129821777344 47.74288558959961 174.6721954345703 C49.17707824707031 175.3730926513672 50.91871643066406 176.17208862304688 52.74203109741211 176.8499755859375 C54.565345764160156 177.52786254882812 56.47032928466797 178.08462524414062 58.231201171875 178.3011016845703 L58.39707946777344 178.32138061523438 C60.104496002197266 178.5308837890625 61.270015716552734 178.6739044189453 62.058109283447266 179.003173828125 C62.84620666503906 179.33245849609375 63.256874084472656 179.8479766845703 63.4546012878418 180.80250549316406 C63.65232467651367 181.7570343017578 63.63710021972656 183.15057373046875 63.57341003417969 185.23583984375"></path>
<path fill="#FBC9BE" fill-opacity="1.0"  filling="0" d="M111.61579895019531 88.94462585449219 C113.4698486328125 89.88997650146484 114.64096069335938 91.21550750732422 115.2481918334961 92.60091400146484 C115.85542297363281 93.98631286621094 115.89877319335938 95.43158721923828 115.49729919433594 96.61642456054688 C115.0958251953125 97.80126190185547 114.24952697753906 98.72566223144531 113.07746124267578 99.0693130493164 C112.49142456054688 99.24114227294922 111.48892974853516 99.37255859375 110.20233154296875 99.46824645996094 C108.91573333740234 99.5639419555664 107.34503173828125 99.62391662597656 105.6225814819336 99.65286254882812 C103.90013122558594 99.68180847167969 102.02593994140625 99.67972564697266 100.13235473632812 99.65130615234375 C98.23877716064453 99.62288665771484 96.3258056640625 99.5681381225586 94.52580261230469 99.49174499511719 C92.72579956054688 99.41535949707031 91.03877258300781 99.31732177734375 89.59707641601562 99.20234680175781 C88.1553726196289 99.08737182617188 86.95899963378906 98.9554443359375 86.14030456542969 98.81126403808594 C85.15788269042969 98.63825225830078 83.96773529052734 98.37354278564453 82.6414566040039 98.04341888427734 C81.31517028808594 97.71330261230469 79.85275268554688 97.3177719116211 78.32575988769531 96.88311004638672 C76.79877471923828 96.44844818115234 75.20721435546875 95.97466278076172 73.62267303466797 95.48802185058594 C72.03813171386719 95.00138854980469 70.46058654785156 94.50189971923828 68.96163940429688 94.0158462524414 C67.46267700195312 93.52978515625 66.04231262207031 93.05716705322266 64.7720947265625 92.62425994873047 C63.03416442871094 92.031982421875 61.9434700012207 91.27251434326172 61.4979133605957 90.5667724609375 C61.05236053466797 89.86103820800781 61.251949310302734 89.20902252197266 62.09458923339844 88.8316421508789 C62.937225341796875 88.45426177978516 64.42291259765625 88.35151672363281 66.549560546875 88.74432373046875 C67.55809020996094 88.93049621582031 68.54435729980469 89.1169662475586 69.50505065917969 89.30081939697266 C70.46573638916016 89.48468017578125 71.4008560180664 89.66592407226562 72.30709838867188 89.84163665771484 C74.5355224609375 90.27314758300781 76.58905029296875 90.67080688476562 78.41815948486328 90.99122619628906 C80.24727630615234 91.3116455078125 81.85197448730469 91.5548324584961 83.18274688720703 91.67742156982422 C84.51351928710938 91.80000305175781 85.57035827636719 91.80198669433594 86.30374908447266 91.6399917602539 C86.7698745727539 91.53707885742188 87.7022476196289 91.39547729492188 88.94607543945312 91.23062896728516 C90.18991088867188 91.06578063964844 91.74520874023438 90.87767791748047 93.45718383789062 90.68177795410156 C95.1691665649414 90.48587036132812 97.03782653808594 90.28216552734375 98.90839385986328 90.08609771728516 C100.77896118164062 89.89002990722656 102.65142822265625 89.70159149169922 104.37102508544922 89.53623962402344 C106.09061431884766 89.37088775634766 107.6573257446289 89.2286148071289 108.9163818359375 89.12487030029297 C110.1754379272461 89.0211181640625 111.12683868408203 88.95588684082031 111.61579895019531 88.94462585449219"></path>
<path fill="#F7573F" fill-opacity="1.0"  filling="0" d="M141.72447204589844 73.81195068359375 C143.18858337402344 73.68993377685547 144.59344482421875 74.07685852050781 145.8184356689453 74.81376647949219 C147.04342651367188 75.55067443847656 148.0885467529297 76.6375732421875 148.8331756591797 77.9155044555664 C149.5778045654297 79.19342803955078 150.0219268798828 80.66238403320312 150.04495239257812 82.16341400146484 C150.06797790527344 83.66444396972656 149.66989135742188 85.19754028320312 148.73008728027344 86.60375213623047 C147.790283203125 88.00996398925781 146.30874633789062 89.28929138183594 144.16485595703125 90.28278350830078 C142.7269287109375 92.09111785888672 141.23997497558594 93.58353424072266 139.73037719726562 94.79645538330078 C138.2207794189453 96.00938415527344 136.68853759765625 96.94281768798828 135.16004943847656 97.63318634033203 C133.6315460205078 98.32355499267578 132.10679626464844 98.77086639404297 130.61216735839844 99.01152801513672 C129.11753845214844 99.252197265625 127.65303039550781 99.28622436523438 126.24504089355469 99.15003967285156 C124.83704376220703 99.01385498046875 123.48556518554688 98.70745849609375 122.21697235107422 98.26727294921875 C120.9483871459961 97.82708740234375 119.7626953125 97.25311279296875 118.686279296875 96.58177947998047 C117.60986328125 95.91044616699219 116.64273071289062 95.14175415039062 115.81126403808594 94.31212615966797 C114.97978973388672 93.48249816894531 114.28398132324219 92.59193420410156 113.75022888183594 91.6768569946289 C111.20550537109375 92.40885162353516 109.13138580322266 92.45414733886719 107.47279357910156 92.03304290771484 C105.81420135498047 91.6119384765625 104.57113647460938 90.72443389892578 103.68851470947266 89.59083557128906 C102.80590057373047 88.45723724365234 102.28372955322266 87.07754516601562 102.06692504882812 85.67206573486328 C101.8501205444336 84.26658630371094 101.93868255615234 82.83531188964844 102.27752685546875 81.59854888916016 C102.61637878417969 80.3617935180664 103.20550537109375 79.31954956054688 103.98985290527344 78.69212341308594 C103.00942993164062 76.33912658691406 102.82791137695312 74.38652038574219 103.1724853515625 72.8056869506836 C103.51705932617188 71.224853515625 104.38772583007812 70.01579284667969 105.51165008544922 69.14987182617188 C106.63558197021484 68.28395080566406 108.01277923583984 67.76117706298828 109.37042236328125 67.55291748046875 C110.72806549072266 67.34465789794922 112.06614685058594 67.45091247558594 113.11186218261719 67.84304809570312 C113.14944458007812 65.73555755615234 113.53267669677734 63.97565841674805 114.17247772216797 62.54157638549805 C114.8122787475586 61.10749435424805 115.70864868164062 59.99923324584961 116.77250671386719 59.195003509521484 C117.83636474609375 58.390777587890625 119.06770324707031 57.890586853027344 120.37744903564453 57.67265319824219 C121.68719482421875 57.45471954345703 123.07534790039062 57.51904296875 124.45281982421875 57.84384536743164 C125.83029174804688 58.16864776611328 127.19708251953125 58.75392150878906 128.46412658691406 59.57789993286133 C129.7311553955078 60.40187454223633 130.8984375 61.46454620361328 131.87686157226562 62.744140625 C132.7308807373047 62.064369201660156 133.80799865722656 61.67046356201172 134.95065307617188 61.56101989746094 C136.0933074951172 61.451576232910156 137.30149841308594 61.6265983581543 138.4176788330078 62.084678649902344 C139.53384399414062 62.542755126953125 140.55799865722656 63.28388977050781 141.3325653076172 64.30667877197266 C142.1071319580078 65.3294677734375 142.63211059570312 66.63389587402344 142.7499542236328 68.21858215332031 C142.8677978515625 69.80326080322266 142.5784912109375 71.66818237304688 141.72447204589844 73.81195068359375"></path>
<path fill="#059DBF" fill-opacity="1.0"  filling="0" d="M64.63816833496094 184.02609252929688 C64.70329284667969 184.623291015625 63.94542694091797 186.14898681640625 62.94042205810547 187.58023071289062 C61.9354133605957 189.011474609375 60.683265686035156 190.3482666015625 59.75982666015625 190.56761169433594 C59.05756378173828 190.7344207763672 57.94641876220703 190.31216430664062 56.73221206665039 189.66282653808594 C55.51800537109375 189.0134735107422 54.20073318481445 188.13702392578125 53.086212158203125 187.39544677734375 C52.38395690917969 186.92788696289062 51.762168884277344 186.514404296875 51.297691345214844 186.24468994140625 C50.8126220703125 185.96328735351562 49.73481369018555 185.3238525390625 48.411865234375 184.45606994628906 C47.08891677856445 183.58828735351562 45.520835876464844 182.49215698242188 44.05522155761719 181.29737854003906 C42.58960723876953 180.10260009765625 41.226463317871094 178.80917358398438 40.31340026855469 177.5467987060547 C39.400333404541016 176.284423828125 38.937347412109375 175.05307006835938 39.27204132080078 173.98248291015625 C39.84619903564453 172.14573669433594 41.1925048828125 171.81948852539062 42.68342208862305 172.11349487304688 C44.174339294433594 172.40748596191406 45.809871673583984 173.32171630859375 46.962486267089844 173.9658966064453 C47.34465026855469 174.17971801757812 47.67396545410156 174.36402893066406 47.927093505859375 174.48568725585938 C48.52060317993164 174.77117919921875 49.394622802734375 175.08363342285156 50.491851806640625 175.3974151611328 C51.589080810546875 175.711181640625 52.90951919555664 176.02627563476562 54.39586639404297 176.31704711914062 C55.88220977783203 176.60781860351562 57.53446960449219 176.874267578125 59.29533386230469 177.09072875976562 L59.46123504638672 177.11102294921875 C61.168853759765625 177.32073974609375 62.33450698852539 177.46388244628906 63.12268829345703 177.79324340820312 C63.91087341308594 178.12261962890625 64.32159423828125 178.63818359375 64.51934051513672 179.59274291992188 C64.71708679199219 180.5472869873047 64.70185852050781 181.94082641601562 64.63816833496094 184.02609252929688"></path>
<path fill="#FBC9BE" fill-opacity="1.0"  filling="0" d="M64.63754272460938 184.02609252929688 C62.99258804321289 184.76254272460938 61.22529983520508 184.6088104248047 59.6032600402832 183.9811248779297 C57.981224060058594 183.35342407226562 56.504432678222656 182.2517852783203 55.44047546386719 181.09243774414062 C54.37651824951172 179.93309020996094 53.72539520263672 178.71603393554688 53.75468444824219 177.85751342773438 C53.807518005371094 176.31414794921875 54.847694396972656 176.46035766601562 56.10414123535156 176.63668823242188 C56.929893493652344 176.75282287597656 57.849029541015625 176.8818359375 58.642234802246094 176.5525360107422 L60.92084503173828 174.106201171875 L63.1994514465332 171.6598663330078 L65.47805786132812 169.21353149414062 L68.07696533203125 171.96112060546875 L70.67587280273438 174.70870971679688 C69.97545623779297 175.7370147705078 69.23755645751953 176.68618774414062 68.50949096679688 177.6376953125 C67.78142547607422 178.58920288085938 67.06319427490234 179.5430145263672 66.402099609375 180.58059692382812 C65.74100494384766 181.61819458007812 65.13705444335938 182.73953247070312 64.63754272460938 184.02609252929688"></path>
<path fill="#244191" fill-opacity="1.0"  filling="0" d="M65.48296356201172 182.16567993164062 C64.43910217285156 181.59735107421875 63.229034423828125 180.74349975585938 62.06136703491211 179.74102783203125 C60.893699645996094 178.73855590820312 59.76842498779297 177.58749389648438 58.894142150878906 176.4247283935547 C58.87816619873047 176.39340209960938 58.865867614746094 176.36083984375 58.85050964355469 176.32949829101562 L62.164283752441406 172.77182006835938 L65.47805786132812 169.21414184570312 L68.07696533203125 171.96173095703125 L70.67587280273438 174.70933532714844 C69.80496215820312 175.98788452148438 68.87614440917969 177.14419555664062 67.9803466796875 178.33474731445312 C67.08454895019531 179.52529907226562 66.2217788696289 180.75009155273438 65.48296356201172 182.16567993164062"></path>
<path fill="#0586A3" fill-opacity="1.0"  filling="0" d="M177.1292724609375 186.41671752929688 C177.0653839111328 184.33143615722656 177.0500946044922 182.9379119873047 177.247802734375 181.98336791992188 C177.44552612304688 181.02880859375 177.85626220703125 180.51324462890625 178.64442443847656 180.18386840820312 C179.43258666992188 179.85450744628906 180.59817504882812 179.71136474609375 182.3055877685547 179.50164794921875 L182.47146606445312 179.48138427734375 C184.2323455810547 179.26490783691406 186.1373291015625 178.70811462402344 187.96063232421875 178.0302276611328 C189.783935546875 177.3523406982422 191.5255889892578 176.5533447265625 192.95977783203125 175.85244750976562 C194.3939666748047 175.1515655517578 195.52072143554688 174.54876708984375 196.11422729492188 174.26327514648438 C197.00418090820312 173.8350372314453 198.26461791992188 173.29190063476562 199.4699249267578 173.39112854003906 C200.67523193359375 173.4903564453125 201.82537841796875 174.23193359375 202.4947509765625 176.37310791015625 C202.82945251464844 177.44369506835938 202.366455078125 178.67503356933594 201.45339965820312 179.9374237060547 C200.5403289794922 181.19979858398438 199.17718505859375 182.49322509765625 197.71157836914062 183.68800354003906 C196.2459716796875 184.88278198242188 194.67788696289062 185.97891235351562 193.3549346923828 186.84671020507812 C192.031982421875 187.7144775390625 190.95416259765625 188.35391235351562 190.46910095214844 188.63531494140625 C190.0052490234375 188.9044189453125 189.3853302001953 189.31729125976562 188.6848907470703 189.78302001953125 C187.57037353515625 190.52490234375 186.25218200683594 191.40211486816406 185.0369873046875 192.05215454101562 C183.82177734375 192.70217895507812 182.70956420898438 193.1250457763672 182.0070037841797 192.95823669433594 C181.0838623046875 192.73919677734375 179.8318634033203 191.4024200439453 178.82693481445312 189.97109985351562 C177.82200622558594 188.53977966308594 177.06414794921875 187.013916015625 177.1292724609375 186.41671752929688"></path>
<path fill="#059DBF" fill-opacity="1.0"  filling="0" d="M176.06451416015625 185.20697021484375 C176.00082397460938 183.12168884277344 175.985595703125 181.72816467285156 176.183349609375 180.77362060546875 C176.381103515625 179.81906127929688 176.79180908203125 179.30349731445312 177.5800018310547 178.97412109375 C178.36817932128906 178.64476013183594 179.53384399414062 178.50161743164062 181.241455078125 178.29190063476562 L181.40733337402344 178.27162170410156 C183.16819763183594 178.05514526367188 184.82046508789062 177.7886962890625 186.3068084716797 177.4979248046875 C187.79315185546875 177.2071533203125 189.11358642578125 176.89205932617188 190.2108154296875 176.57827758789062 C191.30804443359375 176.26451110839844 192.1820526123047 175.95205688476562 192.7755584716797 175.66656494140625 C193.02932739257812 175.54490661621094 193.35862731933594 175.360595703125 193.74142456054688 175.1461639404297 C194.8943328857422 174.501953125 196.52955627441406 173.58804321289062 198.0200958251953 173.29428100585938 C199.5106201171875 173.00051879882812 200.85647583007812 173.32691955566406 201.43063354492188 175.16336059570312 C201.76531982421875 176.23394775390625 201.30233764648438 177.4652862548828 200.38926696777344 178.72767639160156 C199.4761962890625 179.99005126953125 198.11305236816406 181.28347778320312 196.64744567871094 182.47825622558594 C195.18182373046875 183.67303466796875 193.61375427246094 184.7691650390625 192.29080200195312 185.636962890625 C190.96786499023438 186.50473022460938 189.89004516601562 187.1441650390625 189.4049835205078 187.42556762695312 C188.93988037109375 187.69528198242188 188.31871032714844 188.1087646484375 187.616455078125 188.57632446289062 C186.50193786621094 189.31790161132812 185.18466186523438 190.19435119628906 183.970458984375 190.84368896484375 C182.75624084472656 191.4930419921875 181.64511108398438 191.91529846191406 180.94285583496094 191.7484893798828 C180.0194091796875 191.52944946289062 178.7672576904297 190.1926727294922 177.7622528076172 188.7613525390625 C176.7572479248047 187.3300323486328 175.9993896484375 185.80416870117188 176.06451416015625 185.20697021484375"></path>
<path fill="#FBC9BE" fill-opacity="1.0"  filling="0" d="M176.06451416015625 185.20697021484375 C175.56500244140625 183.92041015625 174.96104431152344 182.799072265625 174.29995727539062 181.761474609375 C173.63885498046875 180.72389221191406 172.92062377929688 179.7700653076172 172.19256591796875 178.81857299804688 C171.46449279785156 177.8670654296875 170.72659301757812 176.91787719726562 170.02618408203125 175.88958740234375 L172.62509155273438 173.14199829101562 L175.2239990234375 170.39439392089844 L177.5026092529297 172.84072875976562 L179.78121948242188 175.28707885742188 L182.05982971191406 177.7333984375 C182.85299682617188 178.06271362304688 183.7721710205078 177.93370056152344 184.59791564941406 177.81756591796875 C185.85435485839844 177.64125061035156 186.89454650878906 177.49502563476562 186.94737243652344 179.03839111328125 C186.97686767578125 179.89671325683594 186.3258056640625 181.1136932373047 185.26185607910156 182.27304077148438 C184.19790649414062 183.43238830566406 182.72103881835938 184.5341033935547 181.09893798828125 185.161865234375 C179.47682189941406 185.78961181640625 177.70947265625 185.94342041015625 176.06451416015625 185.20697021484375"></path>
<path fill="#244191" fill-opacity="1.0"  filling="0" d="M174.0867462158203 182.17489624023438 C173.34762573242188 180.7593231201172 172.48486328125 179.53451538085938 171.58914184570312 178.34396362304688 C170.6934356689453 177.15341186523438 169.7647705078125 175.9971160888672 168.8938446044922 174.71853637695312 L171.85464477539062 171.55377197265625 L174.8154296875 168.3889923095703 C175.037841796875 168.61692810058594 175.8622283935547 169.5012664794922 176.85218811035156 170.59933471679688 C177.84214782714844 171.69740295410156 178.9976806640625 173.00921630859375 179.8823699951172 174.0921173095703 C180.76705932617188 175.17503356933594 181.38092041015625 176.029052734375 181.2875213623047 176.21151733398438 C180.41323852539062 177.374267578125 179.13482666015625 178.58111572265625 177.8140869140625 179.63926696777344 C176.4933624267578 180.69741821289062 175.13031005859375 181.6068878173828 174.0867462158203 182.17489624023438"></path>
<path fill="#3554A6" fill-opacity="1.0"  filling="0" d="M113.24765014648438 137.88034057617188 C113.05657196044922 137.80908203125 112.85135650634766 137.73904418945312 112.63508605957031 137.67022705078125 C112.63723754882812 135.88262939453125 112.73516082763672 134.15028381347656 112.92295837402344 132.46975708007812 C113.11075592041016 130.78924560546875 113.38842010498047 129.16055297851562 113.75003814697266 127.5802993774414 C114.11165618896484 126.00003814697266 114.55723571777344 124.46820068359375 115.08085632324219 122.98138427734375 C115.60447692871094 121.49456024169922 116.20614624023438 120.05274963378906 116.87995147705078 118.65254211425781 C117.55375671386719 117.25233459472656 118.29969024658203 115.89373016357422 119.11185455322266 114.57331848144531 C119.92401123046875 113.25291442871094 120.80239868164062 111.97068786621094 121.74110412597656 110.72325134277344 C123.6985855102539 111.40298461914062 125.6460952758789 112.12688446044922 127.37313079833984 112.80274963378906 C129.10015869140625 113.47860717773438 130.60671997070312 114.10643768310547 131.68228149414062 114.5940170288086 C132.75784301757812 115.08160400390625 133.40240478515625 115.42893981933594 133.40548706054688 115.54383850097656 C133.4349822998047 116.60183715820312 133.43313598632812 117.82510375976562 133.43128967285156 119.05574798583984 C133.429443359375 120.30451965332031 133.4276123046875 121.56111907958984 133.45809936523438 122.66020202636719 C133.48858642578125 123.75928497314453 133.55142211914062 124.70085144042969 133.6789093017578 125.31954956054688 C133.73773193359375 125.60540008544922 134.12986755371094 126.10428619384766 134.77908325195312 126.77088165283203 C135.4282989501953 127.43748474121094 136.33460998535156 128.2718048095703 137.4217987060547 129.228515625 C138.5089874267578 130.18524169921875 139.7770538330078 131.2643585205078 141.14976501464844 132.42054748535156 C142.52249145507812 133.57675170898438 143.9998779296875 134.81002807617188 145.50572204589844 136.07508850097656 C147.01156616210938 137.3401336669922 148.54583740234375 138.63694763183594 150.03236389160156 139.9202117919922 C151.51889038085938 141.20347595214844 152.9576416015625 142.47320556640625 154.27243041992188 143.68405151367188 C155.58721923828125 144.8948974609375 156.77801513671875 146.046875 157.7686309814453 147.0946807861328 C158.75924682617188 148.14247131347656 159.54966735839844 149.08609008789062 160.06369018554688 149.88018798828125 C160.53207397460938 150.60374450683594 161.18804931640625 151.36485290527344 161.97900390625 152.15902709960938 C162.76995849609375 152.95318603515625 163.6959228515625 153.78042602539062 164.70423889160156 154.63624572753906 C165.71255493164062 155.49205017089844 166.80325317382812 156.37644958496094 167.92372131347656 157.28494262695312 C169.21923828125 158.3353271484375 170.55445861816406 159.4178924560547 171.84796142578125 160.5257110595703 C173.14146423339844 161.63352966308594 174.39324951171875 162.76658630371094 175.52191162109375 163.91795349121094 C176.65057373046875 165.06930541992188 177.65611267089844 166.2389678955078 178.45712280273438 167.41995239257812 C179.25814819335938 168.6009521484375 179.85462951660156 169.7932891845703 180.16519165039062 170.99002075195312 C180.47573852539062 172.186767578125 180.5003662109375 173.38787841796875 180.15765380859375 174.58645629882812 C179.38995361328125 175.32833862304688 178.5135040283203 176.20953369140625 177.3345489501953 177.1809844970703 C176.15557861328125 178.15243530273438 174.67410278320312 179.214111328125 172.69635009765625 180.31695556640625 C171.29306030273438 180.37362670898438 170.05984497070312 180.19822692871094 168.92324829101562 179.81143188476562 C167.78665161132812 179.42465209960938 166.74667358398438 178.8264923095703 165.72984313964844 178.03768920898438 C164.7130126953125 177.24887084960938 163.71932983398438 176.2694091796875 162.67535400390625 175.1199951171875 C161.63137817382812 173.9705810546875 160.53707885742188 172.6512451171875 159.3190460205078 171.1826629638672 C158.5375213623047 170.2398681640625 157.70484924316406 169.23577880859375 156.8017578125 168.17579650878906 C155.89866638183594 167.1157989501953 154.92514038085938 165.99990844726562 153.86192321777344 164.83346557617188 C152.62554931640625 163.47727966308594 151.73391723632812 162.2530517578125 151.00474548339844 161.1807403564453 C150.27557373046875 160.10842895507812 149.70884704589844 159.18801879882812 149.12228393554688 158.43951416015625 C148.53570556640625 157.69097900390625 147.92929077148438 157.11434936523438 147.12074279785156 156.72952270507812 C145.29420471191406 155.86045837402344 143.46713256835938 154.94119262695312 141.65916442871094 153.99447631835938 C139.8511962890625 153.04776000976562 138.06236267089844 152.07359313964844 136.3123016357422 151.09471130371094 C134.56224060058594 150.1158447265625 132.85096740722656 149.13226318359375 131.19813537597656 148.16671752929688 C129.54530334472656 147.20118713378906 127.950927734375 146.25369262695312 126.4346694946289 145.3470001220703 C124.91840362548828 144.4403076171875 123.48025512695312 143.5743865966797 122.139892578125 142.7720184326172 C120.79952239990234 141.9696502685547 119.55693817138672 141.23080444335938 118.43180084228516 140.57826232910156 C117.30665588378906 139.9257049560547 116.29896545410156 139.35943603515625 115.42838287353516 138.90220642089844 C114.55780029296875 138.44496154785156 113.8243408203125 138.09677124023438 113.24765014648438 137.88034057617188"></path>
<path fill="#3554A6" fill-opacity="1.0"  filling="0" d="M114.7320327758789 110.74783325195312 L116.30868530273438 115.21871948242188 L117.88533782958984 119.68961334228516 L119.46199035644531 124.16049194335938 L121.03864288330078 128.63137817382812 L122.61529541015625 133.10226440429688 L124.19194793701172 137.57315063476562 C123.43377685546875 137.85838317871094 122.56193542480469 138.25921630859375 121.5875015258789 138.75868225097656 C120.61307525634766 139.25814819335938 119.53605651855469 139.85621643066406 118.36753845214844 140.53594970703125 C117.19902038574219 141.21566772460938 115.93901062011719 141.97703552246094 114.59857940673828 142.8030548095703 C113.25814819335938 143.6290740966797 111.8373031616211 144.51976013183594 110.34713745117188 145.4581298828125 C108.85696411132812 146.396484375 107.29747009277344 147.38253784179688 105.67973327636719 148.39926147460938 C104.06199645996094 149.41600036621094 102.38602447509766 150.46343994140625 100.66289520263672 151.5245819091797 C98.93977355957031 152.5857391357422 97.16949462890625 153.66061401367188 95.36314392089844 154.73220825195312 C93.55680084228516 155.80380249023438 91.71438598632812 156.87213134765625 89.84700012207031 157.92022705078125 C88.6728744506836 158.57948303222656 87.69796752929688 159.9267120361328 86.7815170288086 161.3511199951172 C85.86505889892578 162.77552795410156 85.00704956054688 164.27711486816406 84.06671142578125 165.24510192871094 C83.13988494873047 166.198974609375 82.23456573486328 167.20474243164062 81.34822082519531 168.2265625 C80.46186828613281 169.24838256835938 79.59449768066406 170.2862548828125 78.74354553222656 171.3043212890625 C77.64514923095703 172.61837768554688 76.57432556152344 173.89947509765625 75.52593994140625 175.07052612304688 C74.47755432128906 176.2415771484375 73.45160675048828 177.30259704589844 72.44295501708984 178.1764678955078 C71.4343032836914 179.05032348632812 70.44295501708984 179.737060546875 69.4637680053711 180.1595458984375 C68.48457336425781 180.58203125 67.51754760742188 180.74026489257812 66.55754852294922 180.5571746826172 C65.50262451171875 180.010986328125 64.25431823730469 179.14883422851562 63.04364013671875 178.12246704101562 C61.83296203613281 177.0961151123047 60.659912109375 175.9055633544922 59.755516052246094 174.7025604248047 C59.207679748535156 173.6349334716797 59.08061981201172 172.44349670410156 59.27791213989258 171.17295837402344 C59.47520446777344 169.9024200439453 59.996849060058594 168.55279541015625 60.74641799926758 167.16880798339844 C61.49598693847656 165.78482055664062 62.473480224609375 164.366455078125 63.58247375488281 162.95846557617188 C64.69146728515625 161.5504608154297 65.93195343017578 160.15283203125 67.20751953125 158.81027221679688 C68.48307800292969 157.46771240234375 69.79371643066406 156.18023681640625 71.04299926757812 154.99258422851562 C72.29227447509766 153.804931640625 73.48019409179688 152.71707153320312 74.51033782958984 151.77377319335938 C75.97874450683594 150.42884826660156 77.12644958496094 149.37762451171875 77.67387390136719 148.74969482421875 C78.0813980102539 148.28248596191406 78.8883056640625 147.5233612060547 79.97235870361328 146.55859375 C81.05641174316406 145.5938262939453 82.41761016845703 144.4234161376953 83.93372344970703 143.1336212158203 C85.4498291015625 141.84384155273438 87.120849609375 140.43467712402344 88.82453155517578 138.99241638183594 C90.52821350097656 137.55015563964844 92.26457214355469 136.0747833251953 93.9113540649414 134.65257263183594 C95.55813598632812 133.23037719726562 97.1153564453125 131.86134338378906 98.46076202392578 130.63174438476562 C99.80616760253906 129.4021453857422 100.93976593017578 128.31198120117188 101.73931121826172 127.44752502441406 C102.53886413574219 126.58306884765625 103.00436401367188 125.94432067871094 103.01358032226562 125.61754608154297 C103.04583740234375 124.47383117675781 103.17025756835938 123.05641174316406 103.29812622070312 121.46358489990234 C103.42599487304688 119.8707504272461 103.55731964111328 118.10250854492188 103.6033935546875 116.25715637207031 C103.5564956665039 115.84510040283203 104.14208984375 115.31371307373047 105.15548706054688 114.71562194824219 C106.16888427734375 114.11753845214844 107.6100845336914 113.4527587890625 109.27440643310547 112.77391815185547 C110.93872833251953 112.09507751464844 112.82616424560547 111.40216827392578 114.7320327758789 110.74783325195312"></path>
<path fill="#FBC9BE" fill-opacity="1.0"  filling="0" d="M137.9661865234375 90.78782653808594 C138.45513916015625 90.79908752441406 139.4065399169922 90.86431884765625 140.6656036376953 90.96806335449219 C141.92466735839844 91.07181549072266 143.4913787841797 91.2140884399414 145.21096801757812 91.37944030761719 C146.93055725097656 91.54479217529297 148.8030242919922 91.73323059082031 150.67359924316406 91.9292984008789 C152.54415893554688 92.1253662109375 154.41282653808594 92.3290786743164 156.1248016357422 92.52497863769531 C157.8367919921875 92.72087860107422 159.39208984375 92.90897369384766 160.6359100341797 93.07382202148438 C161.87974548339844 93.23867797851562 162.81211853027344 93.38027954101562 163.2782440185547 93.48318481445312 C163.83758544921875 93.60680389404297 164.76992797851562 93.62152099609375 165.94236755371094 93.55011749267578 C167.11480712890625 93.47871398925781 168.52737426757812 93.3211898803711 170.04714965820312 93.10031127929688 C171.56692504882812 92.87943267822266 173.19393920898438 92.59519958496094 174.7952880859375 92.27039337158203 C176.39663696289062 91.9455795288086 177.97232055664062 91.58018493652344 179.3894805908203 91.19699096679688 C180.806640625 90.81379699707031 182.06524658203125 90.41279602050781 183.03244018554688 90.01675415039062 C185.03395080566406 89.19734954833984 186.46365356445312 89.14662170410156 187.29202270507812 89.53141784667969 C188.12039184570312 89.91621398925781 188.347412109375 90.73652648925781 187.94357299804688 91.65919494628906 C187.5397186279297 92.58186340332031 186.5050048828125 93.60688781738281 184.80987548828125 94.40110778808594 C183.72705078125 94.90847778320312 182.41912841796875 95.42842864990234 180.98013305664062 95.94255828857422 C179.5411376953125 96.4566879272461 177.97109985351562 96.96499633789062 176.36407470703125 97.44906616210938 C174.7570343017578 97.93313598632812 173.11300659179688 98.39298248291016 171.52606201171875 98.8101806640625 C169.93910217285156 99.22738647460938 168.40921020507812 99.60194396972656 167.0304718017578 99.91546630859375 C165.65171813964844 100.22898864746094 164.42410278320312 100.48146057128906 163.44166564941406 100.65447235107422 C162.62298583984375 100.79865264892578 161.42660522460938 100.93058013916016 159.9849090576172 101.0455551147461 C158.543212890625 101.16053009033203 156.85617065429688 101.25855255126953 155.05618286132812 101.33493041992188 C153.2561798095703 101.41130828857422 151.3432159423828 101.4660415649414 149.4496307373047 101.49443054199219 C147.55604553222656 101.52281951904297 145.68185424804688 101.52487182617188 143.95941162109375 101.49588012695312 C142.23696899414062 101.46688842773438 140.666259765625 101.4068603515625 139.37966918945312 101.31110382080078 C138.0930633544922 101.21533966064453 137.090576171875 101.0838394165039 136.50453186035156 100.91191101074219 C135.33245849609375 100.5684585571289 134.48614501953125 99.64419555664062 134.0846710205078 98.4594497680664 C133.68319702148438 97.27470397949219 133.72654724121094 95.8294677734375 134.3337860107422 94.444091796875 C134.94100952148438 93.0587158203125 136.11212158203125 91.73318481445312 137.9661865234375 90.78782653808594"></path>
<path fill="#FFFFFF" fill-opacity="1.0"  filling="0" d="M119.89114379882812 127.36858367919922 C119.87454986572266 127.47733306884766 119.87454986572266 127.47733306884766 119.83523559570312 127.72370910644531 C119.44284057617188 130.2079315185547 119.18124389648438 131.86407470703125 119.15514373779297 133.07029724121094 C119.12904357910156 134.27651977539062 119.33843994140625 135.03282165527344 119.8880386352539 135.71734619140625 C120.43762969970703 136.40188598632812 121.32742309570312 137.0146484375 122.66210174560547 137.9337921142578 C122.96560668945312 138.14268493652344 122.96560668945312 138.14268493652344 122.75670623779297 138.4462127685547 C122.54782104492188 138.74972534179688 122.54782104492188 138.74972534179688 122.24429321289062 138.54083251953125 C120.83301544189453 137.56884765625 119.89216613769531 136.9208526611328 119.30259704589844 136.21217346191406 C118.71302795410156 135.50350952148438 118.4747314453125 134.734130859375 118.46855926513672 133.5194091796875 C118.46239471435547 132.30465698242188 118.6883544921875 130.64456176757812 119.02729797363281 128.15438842773438 C117.99479675292969 129.41973876953125 117.47855377197266 130.05242919921875 117.13533020019531 130.59579467773438 C116.7921142578125 131.13914489746094 116.62193298339844 131.59320068359375 116.28155517578125 132.50128173828125 C115.76730346679688 133.87384033203125 115.51016998291016 134.5601348876953 115.53160095214844 135.25930786132812 C115.55302429199219 135.95849609375 115.85299682617188 136.67059326171875 116.45295715332031 138.09475708007812 C116.59611511230469 138.43453979492188 116.59611511230469 138.43453979492188 116.25635528564453 138.5776824951172 C115.9166030883789 138.72084045410156 115.9166030883789 138.72084045410156 115.77344512939453 138.38107299804688 C115.11665344238281 136.82142639160156 114.78825378417969 136.04159545898438 114.76551818847656 135.2742919921875 C114.74278259277344 134.50698852539062 115.02571105957031 133.752197265625 115.5915756225586 132.24261474609375 C116.00076293945312 131.1505126953125 116.20535278320312 130.60447692871094 116.63789367675781 129.94613647460938 C117.0704345703125 129.28781127929688 117.73091888427734 128.5172119140625 119.05188751220703 126.97598266601562 C119.29210662841797 126.69581604003906 119.29210662841797 126.69581604003906 119.57167053222656 126.9354248046875 C119.94705963134766 127.0066909790039 119.94705963134766 127.0066909790039 119.89114379882812 127.36858367919922"></path>
<path fill="#FB9300" fill-opacity="1.0"  filling="0" d="M136.30422973632812 122.23588562011719 C134.69818115234375 123.46145629882812 133.0300750732422 124.47177124023438 131.3297882080078 125.2889404296875 C129.62950134277344 126.10610961914062 127.89702606201172 126.73014068603516 126.16224670410156 127.18314361572266 C124.4274673461914 127.63614654541016 122.69039154052734 127.91812896728516 120.98088073730469 128.05120849609375 C119.27137756347656 128.1842803955078 117.58944702148438 128.16844177246094 115.96497344970703 128.0258331298828 C114.34049987792969 127.88320922851562 112.77348327636719 127.61380767822266 111.2938003540039 127.23973083496094 C109.81411743164062 126.86565399169922 108.4217758178711 126.38691711425781 107.14664459228516 125.82562255859375 C105.87152099609375 125.26432800292969 104.71360778808594 124.62049102783203 103.70278930664062 123.91621398925781 C102.69197082519531 123.21194458007812 101.8282470703125 122.44723510742188 101.14151000976562 121.64421844482422 C101.7754135131836 120.6722412109375 102.37076568603516 119.19295501708984 102.90061950683594 117.4943618774414 C103.43047332763672 115.79576873779297 103.89482116699219 113.87786102294922 104.2667236328125 112.02862548828125 C104.63862609863281 110.17939758300781 104.91808319091797 108.39884948730469 105.07814025878906 106.97496795654297 C105.23820495605469 105.55108642578125 105.27886962890625 104.48387145996094 105.17318725585938 104.06130981445312 C104.96183776855469 103.21589660644531 103.62797546386719 102.50627136230469 101.9947509765625 101.93795013427734 C100.36152648925781 101.36962890625 98.42892456054688 100.942626953125 97.02010345458984 100.6624526977539 C97.25398254394531 99.36832427978516 97.39488983154297 98.19789123535156 97.44142150878906 97.0310287475586 C97.48796081542969 95.86416625976562 97.44012451171875 94.70088195800781 97.29653930664062 93.4210433959961 C97.1529541015625 92.14120483398438 96.91361236572266 90.74481201171875 96.5771255493164 89.11173248291016 C97.27586364746094 88.97913360595703 98.1198959350586 88.85636138916016 99.08993530273438 88.74472045898438 C100.05998229980469 88.6330795288086 101.15603637695312 88.53256225585938 102.35884094238281 88.44448852539062 C103.5616455078125 88.35641479492188 104.87118530273438 88.28076934814453 106.26820373535156 88.2188720703125 C107.66522216796875 88.15697479248047 109.14970397949219 88.10881805419922 110.70238494873047 88.0757064819336 C112.25506591796875 88.04259490966797 113.87594604492188 88.0245361328125 115.5457534790039 88.0228271484375 C117.21556091308594 88.0211181640625 118.93428802490234 88.03575897216797 120.68267059326172 88.06806182861328 C122.4310531616211 88.1003646850586 124.2090835571289 88.15032196044922 125.99749755859375 88.21924591064453 C127.7859115600586 88.28816986083984 129.58470153808594 88.37605285644531 131.37460327148438 88.48420715332031 C133.1645050048828 88.59236145019531 134.9455108642578 88.72078704833984 136.69834899902344 88.87078094482422 C138.45120239257812 89.02078247070312 140.17587280273438 89.19235229492188 141.85311889648438 89.38680267333984 C143.5303497314453 89.58125305175781 145.16015625 89.798583984375 146.72323608398438 90.04009246826172 C146.10186767578125 91.22793579101562 145.75685119628906 92.64556121826172 145.62753295898438 94.13581848144531 C145.49819946289062 95.62608337402344 145.5845947265625 97.18898010253906 145.82601928710938 98.6673583984375 C146.0674591064453 100.14574432373047 146.46395874023438 101.53961181640625 146.95486450195312 102.69182586669922 C146.70787048339844 102.69182586669922 146.30850219726562 102.6703109741211 145.8102264404297 102.6438980102539 C144.69509887695312 102.58460998535156 143.08505249023438 102.4990463256836 141.58108520507812 102.56647491455078 C140.0771026611328 102.6339111328125 138.67919921875 102.85432434082031 137.98829650878906 103.406982421875 C137.5657501220703 103.74520874023438 137.10659790039062 104.87451171875 136.69122314453125 106.432373046875 C136.2758331298828 107.990234375 135.9042205810547 109.97664642333984 135.65673828125 112.02908325195312 C135.40924072265625 114.08152770996094 135.285888671875 116.19999694824219 135.36700439453125 118.02197265625 C135.44813537597656 119.84394836425781 135.7337646484375 121.36943054199219 136.30422973632812 122.23588562011719"></path>
<path fill="#FFFFFF" fill-opacity="1.0"  filling="0" d="M145.76229858398438 93.0543441772461 C143.837890625 92.94047546386719 142.23422241210938 92.8455810546875 140.83543395996094 92.76445007324219 C139.4366455078125 92.68331909179688 138.24273681640625 92.61595153808594 137.13784790039062 92.55712890625 C136.032958984375 92.49830627441406 135.01710510253906 92.44802856445312 133.97442626953125 92.40107727050781 C132.93173217773438 92.3541259765625 131.86221313476562 92.31050872802734 130.6500244140625 92.26499938964844 C129.4378204345703 92.21949005126953 128.0829315185547 92.17208862304688 126.46951293945312 92.11758422851562 C124.85609436035156 92.06307983398438 122.98413848876953 92.00146484375 120.73779296875 91.92753601074219 C117.67021942138672 91.82653045654297 115.21615600585938 91.74571990966797 113.18611907958984 91.68290710449219 C111.15608215332031 91.6200942993164 109.55005645751953 91.57527923583984 108.17855834960938 91.54624938964844 C106.80706024169922 91.51721954345703 105.67008972167969 91.50398254394531 104.57814025878906 91.50431823730469 C103.48619079589844 91.50465393066406 102.43927764892578 91.5185775756836 101.24789428710938 91.54386901855469 C100.05650329589844 91.56916809082031 98.72065734863281 91.6058349609375 97.05083465576172 91.65166473388672 C96.98939514160156 91.27320098876953 96.92118835449219 90.883056640625 96.84562683105469 90.47815704345703 C98.52920532226562 90.43011474609375 99.87606811523438 90.39167785644531 101.0776596069336 90.3650131225586 C102.27925109863281 90.33834838867188 103.33557891845703 90.32345581054688 104.43807983398438 90.32249450683594 C105.54058074951172 90.321533203125 106.68926239013672 90.33451080322266 108.07557678222656 90.36358642578125 C109.46188354492188 90.39265441894531 111.0858154296875 90.43782806396484 113.13882446289062 90.50125885009766 C115.19183349609375 90.56468963623047 117.67391204833984 90.64637756347656 120.7765121459961 90.74848937988281 C123.04313659667969 90.8231430053711 124.9319839477539 90.8853530883789 126.55990600585938 90.94039154052734 C128.1878204345703 90.99542999267578 129.55482482910156 91.04330444335938 130.77772521972656 91.08928680419922 C132.00062561035156 91.13526916503906 133.07945251464844 91.17935180664062 134.13101196289062 91.22681427001953 C135.18258666992188 91.27427673339844 136.2069091796875 91.32511901855469 137.32083129882812 91.38461303710938 C138.43475341796875 91.44410705566406 139.63827514648438 91.51225280761719 141.0482177734375 91.59432220458984 C142.45816040039062 91.6763916015625 144.07455444335938 91.77239990234375 146.0142059326172 91.8875961303711 C145.91162109375 92.26605987548828 145.82867431640625 92.65559387207031 145.76229858398438 93.0543441772461"></path>
<path fill="#FFFFFF" fill-opacity="1.0"  filling="0" d="M145.6074676513672 96.7554931640625 C143.3663787841797 96.625244140625 141.57351684570312 96.52104187011719 140.0352020263672 96.43425750732422 C138.49688720703125 96.34747314453125 137.213134765625 96.27811431884766 135.99026489257812 96.21753692626953 C134.76739501953125 96.1569595336914 133.60540771484375 96.10517883300781 132.31065368652344 96.05354309082031 C131.01589965820312 96.00191497802734 129.58836364746094 95.950439453125 127.83438873291016 95.89049530029297 C126.08041381835938 95.83055114746094 124.0 95.76213073730469 121.39949035644531 95.67659759521484 C118.28251647949219 95.57398986816406 115.7889404296875 95.49191284179688 113.72711944580078 95.4281997680664 C111.66529846191406 95.36448669433594 110.03524780273438 95.31915283203125 108.64531707763672 95.2900390625 C107.25538635253906 95.26092529296875 106.1055908203125 95.24803924560547 105.00428009033203 95.24922180175781 C103.90296936035156 95.25041198730469 102.85015869140625 95.26567840576172 101.65420532226562 95.29287719726562 C100.458251953125 95.320068359375 99.11915588378906 95.35919189453125 97.44528198242188 95.4081039428711 C97.43236541748047 95.02226257324219 97.40901947021484 94.63150787353516 97.3758544921875 94.23091888427734 C99.061279296875 94.1812744140625 100.40961456298828 94.14155578613281 101.61336517333984 94.11390686035156 C102.8171157836914 94.08625030517578 103.87628173828125 94.07066345214844 104.98336791992188 94.06926727294922 C106.09044647216797 94.06787109375 107.24543762207031 94.0806655883789 108.6408462524414 94.10979461669922 C110.0362548828125 94.138916015625 111.67206573486328 94.18437194824219 113.74079895019531 94.248291015625 C115.80952453613281 94.31221008300781 118.3111572265625 94.39459228515625 121.4382095336914 94.49756622314453 C124.02925872802734 94.58284759521484 126.10209655761719 94.65106964111328 127.84976196289062 94.71082305908203 C129.59742736816406 94.77058410644531 131.01991271972656 94.8218765258789 132.3102569580078 94.87329864501953 C133.60060119628906 94.92472076416016 134.75881958007812 94.97627258300781 135.97792053222656 95.03654479980469 C137.197021484375 95.09681701660156 138.47702026367188 95.16580963134766 140.0109405517578 95.25210571289062 C141.54486083984375 95.33840942382812 143.3327178955078 95.44202423095703 145.56753540039062 95.57154083251953 C145.56814575195312 95.96536254882812 145.5816650390625 96.36104583740234 145.6074676513672 96.7554931640625"></path>
<path fill="#FFFFFF" fill-opacity="1.0"  filling="0" d="M146.34967041015625 100.98502349853516 C144.3090362548828 100.85958099365234 142.6085205078125 100.75505065917969 141.12442016601562 100.66573333740234 C139.64031982421875 100.576416015625 138.37265014648438 100.5023193359375 137.19772338867188 100.437744140625 C136.02279663085938 100.37317657470703 134.94061279296875 100.31813049316406 133.82749938964844 100.26693725585938 C132.71438598632812 100.21573638916016 131.57034301757812 100.16837310791016 130.2716827392578 100.1191635131836 C128.9730224609375 100.06995391845703 127.51976013183594 100.0188980102539 125.78819274902344 99.9603042602539 C124.05663299560547 99.90170288085938 122.0467758178711 99.8355712890625 119.63494873046875 99.75621795654297 C116.79347229003906 99.66258239746094 114.5202865600586 99.58767700195312 112.63605499267578 99.52904510498047 C110.75182342529297 99.47041320800781 109.25653839111328 99.42806243896484 107.97085571289062 99.39954376220703 C106.6851806640625 99.37102508544922 105.60910034179688 99.35633850097656 104.56328582763672 99.35303497314453 C103.51747131347656 99.3497314453125 102.50191497802734 99.3578109741211 101.33726501464844 99.37483215332031 C100.17262268066406 99.391845703125 98.85888671875 99.41780090332031 97.21672058105469 99.45024871826172 C97.27325439453125 99.04843139648438 97.32056427001953 98.65644073486328 97.35741424560547 98.26875305175781 C99.0043716430664 98.23766326904297 100.32193756103516 98.2127914428711 101.4886474609375 98.19660186767578 C102.65534973144531 98.180419921875 103.67119598388672 98.17291259765625 104.71470642089844 98.17656707763672 C105.75821685791016 98.18022155761719 106.82939147949219 98.19502258300781 108.10677337646484 98.22344970703125 C109.38414764404297 98.25187683105469 110.86772155761719 98.29391479492188 112.73602294921875 98.35205078125 C114.60432434082031 98.4101791381836 116.85736083984375 98.48440551757812 119.67364501953125 98.57717895507812 C122.0507583618164 98.65541076660156 124.03168487548828 98.7206039428711 125.7385025024414 98.77835083007812 C127.4453125 98.83609771728516 128.87802124023438 98.88639068603516 130.15867614746094 98.93482971191406 C131.4393310546875 98.98326110839844 132.5679473876953 99.02983856201172 133.66659545898438 99.08014678955078 C134.76524353027344 99.13044738769531 135.8339385986328 99.18447875976562 136.99472045898438 99.24783325195312 C138.15550231933594 99.31118774414062 139.40838623046875 99.38385009765625 140.87545776367188 99.471435546875 C142.34251403808594 99.55900573730469 144.0237579345703 99.6614990234375 146.04124450683594 99.78447723388672 C146.13279724121094 100.19612884521484 146.23599243164062 100.59794616699219 146.34967041015625 100.98502349853516"></path>
<path fill="#FFFFFF" fill-opacity="1.0"  filling="0" d="M137.3560791015625 104.41767120361328 C135.5056610107422 104.43595123291016 134.1178436279297 104.44966125488281 132.9245147705078 104.45486450195312 C131.73117065429688 104.46006774902344 130.73231506347656 104.4567642211914 129.65980529785156 104.4410171508789 C128.58729553222656 104.42527770996094 127.44113159179688 104.39708709716797 125.95318603515625 104.35252380371094 C124.46524047851562 104.3079605102539 122.6355209350586 104.24702453613281 120.19589233398438 104.16576385498047 C118.01846313476562 104.09310913085938 116.38539123535156 104.03862762451172 115.0563735961914 103.99114990234375 C113.72736358642578 103.94367980957031 112.70240783691406 103.90322875976562 111.74121856689453 103.858642578125 C110.780029296875 103.8140640258789 109.88259887695312 103.76535034179688 108.80863952636719 103.70137023925781 C107.73468017578125 103.63738250732422 106.48417663574219 103.55812072753906 104.81684875488281 103.45244598388672 C104.34806060791016 102.94741821289062 103.49220275878906 102.50074005126953 102.47598266601562 102.11305236816406 C104.33531188964844 102.24545288085938 105.72981262207031 102.34475708007812 106.93695831298828 102.42461395263672 C108.14411163330078 102.50447082519531 109.1639175415039 102.56487274169922 110.27387237548828 102.61947631835938 C111.38381958007812 102.67407989501953 112.58391571044922 102.72288513183594 114.15164184570312 102.779541015625 C115.71936798095703 102.8362045288086 117.65472412109375 102.90071105957031 120.2352066040039 102.98673248291016 C122.82198333740234 103.07290649414062 124.76206970214844 103.13753509521484 126.3370361328125 103.18437957763672 C127.91200256347656 103.23123168945312 129.12185668945312 103.26029968261719 130.2481689453125 103.27535247802734 C131.37448120117188 103.2904052734375 132.41725158691406 103.29144287109375 133.65806579589844 103.2822265625 C134.89886474609375 103.27301025390625 136.33770751953125 103.2535400390625 138.2561798095703 103.22757720947266 C138.15786743164062 103.28349304199219 138.0681610107422 103.34308624267578 137.98829650878906 103.406982421875 C137.78309631347656 103.57102966308594 137.5692901611328 103.9218521118164 137.3560791015625 104.41767120361328"></path>
<path fill="#FFFFFF" fill-opacity="1.0"  filling="0" d="M136.18934631347656 108.6355209350586 C134.13401794433594 108.66455078125 132.592529296875 108.68632507324219 131.275146484375 108.69678497314453 C129.957763671875 108.70723724365234 128.86447143554688 108.70637512207031 127.70555114746094 108.69013214111328 C126.54663848876953 108.67388916015625 125.32209777832031 108.64226531982422 123.7422103881836 108.59120178222656 C122.16231536865234 108.54014587402344 120.22706604003906 108.46963500976562 117.64674377441406 108.3756332397461 C115.23993682861328 108.28797912597656 113.6353988647461 108.22954559326172 112.36406707763672 108.1775894165039 C111.09274291992188 108.12564086914062 110.15461730957031 108.0801773071289 109.08065032958984 108.01846313476562 C108.00667572021484 107.95675659179688 106.79685974121094 107.87879943847656 104.98212432861328 107.76185607910156 C105.03618621826172 107.34712219238281 105.082275390625 106.95452117919922 105.11913299560547 106.5895767211914 C106.91912078857422 106.70487976074219 108.11911010742188 106.78174591064453 109.18468475341797 106.84265899658203 C110.25025939941406 106.90357971191406 111.1814193725586 106.94853973388672 112.44373321533203 107.00003051757812 C113.7060546875 107.05152893066406 115.29953002929688 107.10955810546875 117.68975067138672 107.19659423828125 C120.30555725097656 107.29197692871094 122.26741790771484 107.36351776123047 123.8682861328125 107.41520690917969 C125.46915435791016 107.46688842773438 126.70903015136719 107.49872589111328 127.8808822631836 107.51469421386719 C129.052734375 107.53067016601562 130.15655517578125 107.5307846069336 131.48532104492188 107.51903533935547 C132.8140869140625 107.50728607177734 134.3677978515625 107.48367309570312 136.43939208984375 107.45218658447266 C136.35276794433594 107.83126831054688 136.26922607421875 108.22633361816406 136.18934631347656 108.6355209350586"></path>
<path fill="#FFFFFF" fill-opacity="1.0"  filling="0" d="M135.6431427001953 112.14251708984375 C134.03802490234375 112.32176971435547 132.83416748046875 112.45620727539062 131.7839813232422 112.55427551269531 C130.73377990722656 112.65233612060547 129.8372344970703 112.71402740478516 128.84671020507812 112.7477798461914 C127.8561782836914 112.78153991699219 126.77166748046875 112.787353515625 125.34553527832031 112.77367401123047 C123.9194107055664 112.75999450683594 122.15167236328125 112.726806640625 119.794677734375 112.68257141113281 C117.43476867675781 112.63833618164062 115.66484069824219 112.60515594482422 114.2435073852539 112.56654357910156 C112.82217407226562 112.5279312133789 111.74943542480469 112.48388671875 110.78390502929688 112.41792297363281 C109.81837463378906 112.3519515991211 108.9600601196289 112.26405334472656 107.96757507324219 112.13774108886719 C106.97508239746094 112.01142883300781 105.84843444824219 111.84669494628906 104.34622192382812 111.62704467773438 C104.42239379882812 111.23566436767578 104.49429321289062 110.84858703613281 104.5618667602539 110.4682846069336 C106.03919219970703 110.68331909179688 107.14718627929688 110.8446044921875 108.12420654296875 110.96829986572266 C109.10122680664062 111.09199523925781 109.94727325439453 111.1781005859375 110.90071105957031 111.24280548095703 C111.85414123535156 111.30751037597656 112.91496276855469 111.3508071899414 114.32152557373047 111.38887023925781 C115.72808837890625 111.42693328857422 117.48039245605469 111.45976257324219 119.81680297851562 111.5035400390625 C122.21127319335938 111.5482406616211 124.00712585449219 111.5817642211914 125.4541015625 111.59528350830078 C126.90108489990234 111.60880279541016 127.99919128417969 111.60231018066406 128.9981689453125 111.56697845458984 C129.9971466064453 111.53164672851562 130.89700317382812 111.46748352050781 131.9474639892578 111.36564636230469 C132.9979248046875 111.2638168334961 134.19900512695312 111.12431335449219 135.80043029785156 110.93830108642578 C135.743896484375 111.33519744873047 135.69105529785156 111.73762512207031 135.6431427001953 112.14251708984375"></path>
<path fill="#FFFFFF" fill-opacity="1.0"  filling="0" d="M135.93374633789062 121.48262786865234 C133.9856414794922 122.71173095703125 132.52456665039062 123.6335678100586 131.25869750976562 124.31478881835938 C129.99282836914062 124.99601745605469 128.92214965820312 125.43663787841797 127.75487518310547 125.70332336425781 C126.58758544921875 125.97001647949219 125.32369232177734 126.0627670288086 123.67135620117188 126.04826354980469 C122.01902770996094 126.03376007080078 119.97825622558594 125.9119873046875 117.25723266601562 125.7496337890625 C115.07262420654297 125.619384765625 113.61621856689453 125.53255462646484 112.43106079101562 125.3802719116211 C111.24590301513672 125.22799682617188 110.33199310302734 125.01026916503906 109.23237609863281 124.61823272705078 C108.13275909423828 124.2261962890625 106.8474349975586 123.65985107421875 104.91944885253906 122.81034088134766 C103.09283447265625 122.00548553466797 103.09283447265625 122.00548553466797 101.49171447753906 121.05008697509766 C101.66497039794922 120.72753143310547 101.83516693115234 120.36872100830078 102.00166320800781 119.98041534423828 C103.58067321777344 120.93151092529297 103.58067321777344 120.93151092529297 105.39500427246094 121.73084259033203 C107.25827026367188 122.55168151855469 108.50045013427734 123.0988998413086 109.5634994506836 123.47773742675781 C110.62654876708984 123.8565673828125 111.51046752929688 124.0670166015625 112.65721130371094 124.21428680419922 C113.803955078125 124.36156463623047 115.21351623535156 124.44567108154297 117.32787322998047 124.57183074951172 C120.00419616699219 124.73157501220703 122.01144409179688 124.85138702392578 123.63528442382812 124.86427307128906 C125.25912475585938 124.87715911865234 126.49955749511719 124.78311157226562 127.64226531982422 124.5151596069336 C128.78497314453125 124.24720764160156 129.82994079589844 123.80533599853516 131.06288146972656 123.12255859375 C132.29580688476562 122.43978881835938 133.7166748046875 121.51611328125 135.61119079589844 120.2845458984375 C135.69598388671875 120.728759765625 135.80288696289062 121.13180541992188 135.93374633789062 121.48262786865234"></path>
<path fill="#FFFFFF" fill-opacity="1.0"  filling="0" d="M135.41827392578125 118.83210754394531 C133.6036376953125 119.46109771728516 132.24266052246094 119.93284606933594 131.06980895996094 120.28080749511719 C129.89694213867188 120.62876892089844 128.91220092773438 120.85295104980469 127.85001373291016 120.98680877685547 C126.78782653808594 121.12066650390625 125.64820861816406 121.16421508789062 124.16561889648438 121.15090942382812 C122.68301391601562 121.13760375976562 120.85743713378906 121.06744384765625 118.42333984375 120.97390747070312 C116.10520935058594 120.88481903076172 114.36661529541016 120.81800079345703 112.96218872070312 120.72787475585938 C111.5577621459961 120.63774871826172 110.48749542236328 120.5243148803711 109.50602722167969 120.34199523925781 C108.52456665039062 120.15966796875 107.63189697265625 119.90846252441406 106.5826644897461 119.54277801513672 C105.53343200683594 119.17709350585938 104.32762908935547 118.69693756103516 102.71989440917969 118.05673217773438 C102.8409423828125 117.69239044189453 102.95829010009766 117.31452941894531 103.07257080078125 116.9280776977539 C104.63760375976562 117.55706787109375 105.81137084960938 118.02881622314453 106.83444213867188 118.38811492919922 C107.85751342773438 118.7474136352539 108.7298812866211 118.99427032470703 109.69210815429688 119.17347717285156 C110.65433502197266 119.35269165039062 111.7064208984375 119.46426391601562 113.08891296386719 119.55299377441406 C114.4714126586914 119.64173126220703 116.184326171875 119.70762634277344 118.46820068359375 119.79548645019531 C120.90107727050781 119.88887786865234 122.7257308959961 119.95891571044922 124.20597076416016 119.97138214111328 C125.68621063232422 119.98384094238281 126.8220443725586 119.938720703125 127.87728118896484 119.80178833007812 C128.93251037597656 119.66485595703125 129.9071502685547 119.43610382080078 131.0649871826172 119.08130645751953 C132.22280883789062 118.72650146484375 133.56385803222656 118.24565887451172 135.35191345214844 117.60453033447266 C135.3635711669922 118.02909088134766 135.3856964111328 118.43950653076172 135.41827392578125 118.83210754394531"></path>
<path fill="#FFFFFF" fill-opacity="1.0"  filling="0" d="M135.36973571777344 115.53338623046875 C133.61807250976562 115.89680480957031 132.30433654785156 116.16937255859375 131.17483520507812 116.37059783935547 C130.0453338623047 116.57182312011719 129.10008239746094 116.70171356201172 128.0854034423828 116.77977752685547 C127.07072448730469 116.85784912109375 125.98661804199219 116.88409423828125 124.57941436767578 116.87803649902344 C123.17221069335938 116.87197875976562 121.44190979003906 116.8336181640625 119.13483428955078 116.78246307373047 C116.84204864501953 116.73177337646484 115.1224594116211 116.69375610351562 113.7333755493164 116.64022827148438 C112.34429168701172 116.58670043945312 111.28572082519531 116.51765441894531 110.3149642944336 116.40491485595703 C109.34420776367188 116.29217529296875 108.4612808227539 116.13572692871094 107.42347717285156 115.90740203857422 C106.38568115234375 115.6790771484375 105.19300842285156 115.37886047363281 103.602783203125 114.97858428955078 C103.69802856445312 114.59950256347656 103.79019165039062 114.21673583984375 103.8780517578125 113.83273315429688 C105.43417358398438 114.22518157958984 106.60125732421875 114.51951599121094 107.61811828613281 114.743408203125 C108.63497924804688 114.96730041503906 109.50160217285156 115.12074279785156 110.45680236816406 115.23141479492188 C111.41200256347656 115.34208679199219 112.45577239990234 115.40997314453125 113.82691192626953 115.46275329589844 C115.19805145263672 115.51554107666016 116.89656066894531 115.55320739746094 119.16124725341797 115.60343933105469 C121.487060546875 115.65489196777344 123.23141479492188 115.6934814453125 124.64863586425781 115.6990737915039 C126.06585693359375 115.70465850830078 127.15593719482422 115.67723846435547 128.17318725585938 115.59667205810547 C129.19044494628906 115.51611328125 130.13487243652344 115.38240051269531 131.2607879638672 115.17540740966797 C132.38671875 114.96841430664062 133.69412231445312 114.68812561035156 135.43731689453125 114.31442260742188 C135.408447265625 114.72422790527344 135.3856964111328 115.13157653808594 135.36973571777344 115.53338623046875"></path>
<path fill="#FBC9BE" fill-opacity="1.0"  filling="0" d="M120.28620910644531 76.55155181884766 L123.76966094970703 76.93268585205078 L127.25310516357422 77.31381225585938 L130.73654174804688 77.6949462890625 L130.21124267578125 82.39142608642578 L129.6859130859375 87.08790588378906 L129.1605987548828 91.78437805175781 C128.97811889648438 93.41714477539062 128.16650390625 95.17049407958984 127.10374450683594 96.49943542480469 C126.04098510742188 97.82838439941406 124.72709655761719 98.73292541503906 123.54006958007812 98.66810607910156 C122.5932846069336 98.61669921875 121.70089721679688 98.0667495727539 120.94525909423828 97.23660278320312 C120.18961334228516 96.40645599365234 119.57070922851562 95.2961196899414 119.17086791992188 94.12396240234375 C118.77102661132812 92.95179748535156 118.59025573730469 91.71781921386719 118.71089172363281 90.64036560058594 L119.23600006103516 85.944091796875 L119.7611083984375 81.2478256225586 L120.28620910644531 76.55155181884766"></path>
<path fill="#E6B3A8" fill-opacity="1.0"  filling="0" d="M129.5065155029297 88.4383544921875 C129.31910705566406 90.11321258544922 129.29391479492188 90.97827911376953 129.10653686523438 92.65374755859375 C127.35590362548828 93.80738830566406 125.85655975341797 94.33448028564453 124.55810546875 94.37158966064453 C123.25965118408203 94.40870666503906 122.16207885742188 93.95584869384766 121.21499633789062 93.14959716796875 C120.26790618896484 92.34333801269531 119.47129821777344 91.1836929321289 118.77477264404297 89.8072280883789 C118.86878967285156 88.96981048583984 118.96217346191406 88.13238525390625 119.0561752319336 87.29495239257812 C120.1702880859375 87.52842712402344 121.33143615722656 87.65540313720703 122.50826263427734 87.74690246582031 C123.68508911132812 87.8384017944336 124.87759399414062 87.89442443847656 126.0544204711914 87.98599243164062 C127.23124694824219 88.07756042480469 128.39239501953125 88.20468139648438 129.5065155029297 88.4383544921875"></path>
<path fill="#FBC9BE" fill-opacity="1.0"  filling="0" d="M128.58306884765625 66.22962951660156 C130.55712890625 66.47830963134766 132.060302734375 67.0946273803711 133.17918395996094 67.98681640625 C134.2980499267578 68.8790054321289 135.03262329101562 70.04705810546875 135.46949768066406 71.3991928100586 C135.9063720703125 72.75133514404297 136.04556274414062 74.28756713867188 135.97364807128906 75.9161148071289 C135.9017333984375 77.5446548461914 135.61871337890625 79.26551818847656 135.21121215820312 80.98690795898438 C134.81553649902344 82.65869140625 134.2190399169922 84.25409698486328 133.47222900390625 85.69222259521484 C132.7254180908203 87.13035583496094 131.8282928466797 88.41120910644531 130.83139038085938 89.4538803100586 C129.83448791503906 90.49655151367188 128.73780822753906 91.30105590820312 127.59185791015625 91.7864761352539 C126.44591522216797 92.27190399169922 125.25071716308594 92.43824768066406 124.05677795410156 92.20462799072266 C122.81405639648438 91.9615249633789 121.61870574951172 91.2601547241211 120.56446838378906 90.24152374267578 C119.51022338867188 89.22289276123047 118.59709167480469 87.88700866699219 117.91879272460938 86.3748779296875 C117.2405014038086 84.86274719238281 116.79704284667969 83.17437744140625 116.68214416503906 81.4507827758789 C116.57486724853516 79.84228515625 116.65043640136719 78.22599792480469 116.9072265625 76.67784118652344 C117.16401672363281 75.12968444824219 117.60202026367188 73.64966583251953 118.21961975097656 72.31370544433594 C118.83721923828125 70.97774505615234 119.63441467285156 69.78584289550781 120.60957336425781 68.81392669677734 C121.58473205566406 67.84201049804688 122.73784637451172 67.09007263183594 124.06730651855469 66.63404846191406 C125.39676666259766 66.17802429199219 126.90255737304688 66.01791381835938 128.58306884765625 66.22962951660156"></path>
<path fill="#C99387" fill-opacity="1.0"  filling="0" d="M120.829345703125 84.14861297607422 C121.88631439208984 83.90059661865234 123.04357147216797 83.75641632080078 124.21795654296875 83.7107925415039 C125.39234924316406 83.66516876220703 126.58387756347656 83.71810150146484 127.70938873291016 83.86430358886719 C128.83489990234375 84.01051330566406 129.8944091796875 84.24999237060547 130.8047332763672 84.57746887207031 C130.32591247558594 86.55255889892578 129.19650268554688 87.87528991699219 127.85724639892578 88.5237808227539 C126.51799011230469 89.17227172851562 124.96888732910156 89.1465072631836 123.65066528320312 88.42460632324219 C122.33244323730469 87.70271301269531 121.24508666992188 86.28467559814453 120.829345703125 84.14861297607422"></path>
<path fill="#FFFFFF" fill-opacity="1.0"  filling="0" d="M122.1853256225586 84.24629974365234 C123.33639526367188 84.02911376953125 124.60098266601562 83.955078125 125.87179565429688 84.00852966308594 C127.1426010131836 84.06198120117188 128.4196319580078 84.242919921875 129.5955810546875 84.53567504882812 C128.68597412109375 84.7716064453125 127.36592864990234 84.87989807128906 126.00703430175781 84.8388900756836 C124.64813995361328 84.79788208007812 123.25038146972656 84.6075668334961 122.1853256225586 84.24629974365234"></path>
<path fill="#2B363D" fill-opacity="1.0"  filling="0" d="M119.69086456298828 76.98655700683594 C120.4631576538086 76.38996887207031 120.4631576538086 76.38996887207031 121.79088592529297 76.53618621826172 C122.97420501708984 76.66645050048828 122.97420501708984 76.66645050048828 123.75204467773438 77.23722839355469 C123.87061309814453 77.32447052001953 123.87061309814453 77.32447052001953 123.88658142089844 77.42768859863281 C123.9025650024414 77.53030395507812 123.9025650024414 77.53030395507812 123.81532287597656 77.64949035644531 C123.64083099365234 77.88726043701172 123.64083099365234 77.88726043701172 123.40306091308594 77.7127685546875 C122.75302124023438 77.2353744506836 122.75302124023438 77.2353744506836 121.72636413574219 77.1223373413086 C120.63518524169922 77.00191497802734 120.63518524169922 77.00191497802734 120.05089569091797 77.45349884033203 C119.81803894042969 77.6335220336914 119.81803894042969 77.6335220336914 119.63740539550781 77.40003967285156 C119.5477066040039 77.28392791748047 119.5477066040039 77.28392791748047 119.56060791015625 77.18008422851562 C119.57412719726562 77.07686614990234 119.57412719726562 77.07686614990234 119.69086456298828 76.98655700683594"></path>
<path fill="#DEA699" fill-opacity="1.0"  filling="0" d="M125.74085235595703 81.78992462158203 C127.95391845703125 81.1798324584961 127.4470443725586 79.74705505371094 126.77735137939453 77.85531616210938 C126.75646209716797 77.79570770263672 126.73495483398438 77.73551177978516 126.71344757080078 77.67467498779297 C127.49404907226562 78.44636535644531 128.0989227294922 79.4307861328125 128.0846405029297 80.2444839477539 C128.07034301757812 81.05818176269531 127.43690490722656 81.70114135742188 125.74085235595703 81.78992462158203"></path>
<path fill="#F7573F" fill-opacity="1.0"  filling="0" d="M129.6945037841797 74.58670806884766 C129.05247497558594 74.77532196044922 128.76492309570312 73.79843139648438 129.40757751464844 73.60981750488281 C130.03366088867188 73.42549133300781 131.01177978515625 73.4692611694336 131.9341583251953 73.69397735595703 C132.8565216064453 73.91869354248047 133.72314453125 74.32434844970703 134.12619018554688 74.8637924194336 C134.52493286132812 75.39710235595703 134.00209045410156 75.75283813476562 133.6027069091797 75.21891784667969 C133.058349609375 74.4914779663086 130.53993225097656 74.33787536621094 129.6945037841797 74.58670806884766"></path>
<path fill="#F7573F" fill-opacity="1.0"  filling="0" d="M124.23434448242188 73.25161743164062 C124.8475112915039 73.51764678955078 124.4432373046875 74.44969177246094 123.83067321777344 74.18427276611328 C122.93365478515625 73.79658508300781 120.44902038574219 73.58708190917969 119.65829467773438 74.17013549804688 C119.12069702148438 74.56582641601562 118.84298706054688 74.09886932373047 119.37996673583984 73.70381164550781 C119.92002868652344 73.30567932128906 120.82765197753906 73.06038665771484 121.75324249267578 72.98074340820312 C122.6788330078125 72.9011001586914 123.62240600585938 72.98712158203125 124.23434448242188 73.25161743164062"></path>
<path fill="#2B363D" fill-opacity="1.0"  filling="0" d="M133.20826721191406 78.63805389404297 C132.7149200439453 78.08878326416016 132.7149200439453 78.08878326416016 131.6200408935547 78.0107650756836 C130.58969116210938 77.9370346069336 130.58969116210938 77.9370346069336 129.86471557617188 78.28968811035156 C129.59927368164062 78.41810607910156 129.59927368164062 78.41810607910156 129.4702606201172 78.15328979492188 C129.40574645996094 78.02058410644531 129.40574645996094 78.02058410644531 129.4401397705078 77.92227935791016 C129.47393798828125 77.8233642578125 129.47393798828125 77.8233642578125 129.6066436767578 77.75885772705078 C130.4741973876953 77.33736419677734 130.4741973876953 77.33736419677734 131.6618194580078 77.42215728759766 C132.9944610595703 77.51738739013672 132.9944610595703 77.51738739013672 133.64695739746094 78.24361419677734 C133.74525451660156 78.35359191894531 133.74525451660156 78.35359191894531 133.73973083496094 78.45742797851562 C133.73419189453125 78.56187438964844 133.73419189453125 78.56187438964844 133.6248321533203 78.6601791381836 C133.40548706054688 78.8573989868164 133.40548706054688 78.8573989868164 133.20826721191406 78.63805389404297"></path>
<path fill="#F7573F" fill-opacity="1.0"  filling="0" d="M136.03329467773438 65.46470642089844 C135.83453369140625 66.6371841430664 135.32342529296875 67.78287506103516 134.56597900390625 68.87480926513672 C133.80853271484375 69.96675109863281 132.8047637939453 71.00494384765625 131.6206817626953 71.96244049072266 C130.43661499023438 72.91993713378906 129.07223510742188 73.79673767089844 127.59357452392578 74.5658950805664 C126.11492156982422 75.33504486083984 124.52198791503906 75.99655151367188 122.88079833984375 76.52345275878906 C121.23960876464844 77.05035400390625 119.5501708984375 77.44266510009766 117.87850189208984 77.67342376708984 C116.20683288574219 77.9041748046875 114.55293273925781 77.973388671875 112.98284149169922 77.85408782958984 C111.80534362792969 77.76469421386719 111.00104522705078 77.39600372314453 110.53021240234375 76.83274841308594 C110.05937957763672 76.26949310302734 109.9220199584961 75.51167297363281 110.07838439941406 74.6440200805664 C110.23474884033203 73.77635955810547 110.68484497070312 72.79886627197266 111.3889389038086 71.79625701904297 C112.09303283691406 70.79364776611328 113.0511245727539 69.76593017578125 114.22347259521484 68.7978286743164 C115.39582824707031 67.82972717285156 116.78244018554688 66.9212417602539 118.34358215332031 66.15709686279297 C119.90472412109375 65.39295196533203 121.64039611816406 64.77315521240234 123.5108642578125 64.3824234008789 C125.38133239746094 63.99169158935547 127.38658142089844 63.83003234863281 129.48690795898438 63.982173919677734 C131.58721923828125 64.13430786132812 133.7825927734375 64.60025024414062 136.03329467773438 65.46470642089844"></path>
<path fill="#FBC9BE" fill-opacity="1.0"  filling="0" d="M188.26710510253906 88.7357177734375 C188.8477325439453 88.40824890136719 189.37733459472656 88.08384704589844 189.8522491455078 87.79385375976562 C191.23403930664062 86.94842529296875 192.152587890625 86.38626098632812 192.51446533203125 86.8421401977539 C192.74270629882812 87.12998962402344 192.3217010498047 87.95946502685547 191.5064239501953 88.98990631103516 C190.69114685058594 90.02033996582031 189.48162841796875 91.2517318725586 188.1328582763672 92.3434066772461 C186.78408813476562 93.4350814819336 185.2960968017578 94.38703918457031 183.9238739013672 94.85859680175781 C182.55165100097656 95.33016204833984 181.29519653320312 95.32132720947266 180.4095458984375 94.49142456054688 C179.71670532226562 93.84220886230469 179.4830322265625 92.53346252441406 179.5529327392578 91.07201385498047 C179.62283325195312 89.61056518554688 179.99632263183594 87.99639892578125 180.51780700683594 86.736328125 C181.039306640625 85.47625732421875 181.70880126953125 84.57029724121094 182.37071228027344 84.52523803710938 C183.37586975097656 84.45642852783203 182.86346435546875 86.30516052246094 182.04876708984375 88.25157165527344 C182.97958374023438 87.25194549560547 183.8422088623047 86.2560043334961 184.62680053710938 85.34976196289062 C185.65745544433594 84.15966796875 186.55386352539062 83.12455749511719 187.2946014404297 82.44020080566406 C188.0353240966797 81.7558364868164 188.62039184570312 81.4222183227539 189.02833557128906 81.6351089477539 C189.35182189941406 81.80375671386719 189.12664794921875 82.55393981933594 188.62277221679688 83.53413391113281 C188.11888122558594 84.51433563232422 187.33628845214844 85.72454833984375 186.54493713378906 86.81326293945312 C187.0745391845703 86.37212371826172 187.60784912109375 85.88982391357422 188.1264190673828 85.42164611816406 C189.84365844726562 83.87029266357422 191.39501953125 82.46884155273438 192.08314514160156 83.19383239746094 C192.41400146484375 83.54251098632812 192.11647033691406 84.21711730957031 191.51673889160156 85.04171752929688 C190.9169921875 85.86631774902344 190.0150604248047 86.84091186523438 189.1370849609375 87.78954315185547 C188.8397216796875 88.11026000976562 188.54603576660156 88.42790985107422 188.26710510253906 88.7357177734375"></path>
<path fill="#E6B5AA" fill-opacity="1.0"  filling="0" d="M184.5260467529297 93.32774353027344 C184.78591918945312 92.60459899902344 184.52511596679688 91.34722900390625 184.09271240234375 90.18563079833984 C183.66033935546875 89.02403259277344 183.05636596679688 87.95819854736328 182.62997436523438 87.61812591552734 C183.31166076660156 87.83470153808594 184.08535766601562 88.82158660888672 184.53878784179688 89.97457885742188 C184.99221801757812 91.12757873535156 185.12539672851562 92.44669342041016 184.5260467529297 93.32774353027344"></path>
<path fill="#E6B5AA" fill-opacity="1.0"  filling="0" d="M188.71868896484375 91.19025421142578 C188.56631469726562 90.53652954101562 187.78265380859375 89.40895080566406 186.90650939941406 88.40563201904297 C186.03038024902344 87.4023208618164 185.061767578125 86.52326965332031 184.53953552246094 86.36659240722656 C185.25225830078125 86.31344604492188 186.41885375976562 87.08958435058594 187.3463592529297 88.09390258789062 C188.27386474609375 89.09822082519531 188.96231079101562 90.33070373535156 188.71868896484375 91.19025421142578"></path>
<path fill="#FBC9BE" fill-opacity="1.0"  filling="0" d="M57.940589904785156 85.22504425048828 C57.662269592285156 84.91722869873047 57.36858367919922 84.60018920898438 57.07183074951172 84.27947998046875 C56.193851470947266 83.33084869384766 55.29175567626953 82.3561019897461 54.691795349121094 81.5313491821289 C54.09183120727539 80.70658874511719 53.79399871826172 80.03182983398438 54.124542236328125 79.68315887451172 C54.81267547607422 78.95816040039062 56.36402893066406 80.35960388183594 58.08129119873047 81.91095733642578 C58.59983825683594 82.37913513183594 59.13312530517578 82.8614501953125 59.662742614746094 83.30257415771484 C58.87139892578125 82.21385955810547 58.088653564453125 81.00364685058594 57.584617614746094 80.02345275878906 C57.0805778503418 79.04325103759766 56.85524368286133 78.29307556152344 57.17871856689453 78.12442016601562 C57.58638381958008 77.91152954101562 58.171295166015625 78.24515533447266 58.911956787109375 78.92951965332031 C59.65261459350586 79.61388397216797 60.54902267456055 80.64898681640625 61.579681396484375 81.83908081054688 C62.3642578125 82.74532318115234 63.226890563964844 83.74188995361328 64.15830993652344 84.74150848388672 C63.3436279296875 82.79509735107422 62.831207275390625 80.94635772705078 63.83635711669922 81.01516723632812 C64.49827575683594 81.06022644042969 65.16777038574219 81.96619415283203 65.68926239013672 83.22625732421875 C66.21075439453125 84.486328125 66.58424377441406 86.1004867553711 66.65414428710938 87.56194305419922 C66.72405242919922 89.02339172363281 66.49037170410156 90.33213806152344 65.79753112792969 90.98135375976562 C64.91187286376953 91.81124877929688 63.655426025390625 91.82008361816406 62.283203125 91.34851837158203 C60.910980224609375 90.87696075439453 59.42298126220703 89.92500305175781 58.07421875 88.83333587646484 C56.72545623779297 87.74166107177734 55.515933990478516 86.51026916503906 54.70066452026367 85.4798355102539 C53.88539123535156 84.44940185546875 53.464378356933594 83.61991882324219 53.692626953125 83.33207702636719 C54.05450439453125 82.87557220458984 54.97303009033203 83.43775177001953 56.354827880859375 84.28253936767578 C56.829742431640625 84.57316589355469 57.35997772216797 84.8975601196289 57.940589904785156 85.22504425048828"></path>
<path fill="#E6B5AA" fill-opacity="1.0"  filling="0" d="M61.681671142578125 89.81707763671875 C61.08232498168945 88.93601989746094 61.21549606323242 87.61689758300781 61.668846130371094 86.46389770507812 C62.1221923828125 85.31089782714844 62.895721435546875 84.32402038574219 63.57708740234375 84.10745239257812 C63.1510009765625 84.44751739501953 62.54719543457031 85.51335144042969 62.114891052246094 86.6749496459961 C61.68258285522461 87.8365478515625 61.42177200317383 89.09392547607422 61.681671142578125 89.81707763671875"></path>
<path fill="#E6B5AA" fill-opacity="1.0"  filling="0" d="M57.48899841308594 87.67957305908203 C57.24538803100586 86.82002258300781 57.93382263183594 85.58753967285156 58.86133575439453 84.5832290649414 C59.788848876953125 83.57891082763672 60.955440521240234 82.80277252197266 61.66814422607422 82.85591888427734 C61.145912170410156 83.01258850097656 60.177154541015625 83.89163970947266 59.300941467285156 84.89495849609375 C58.42472839355469 85.89826965332031 57.64105987548828 87.02584838867188 57.48899841308594 87.67957305908203"></path>
<path fill="#0586A3" fill-opacity="1.0"  filling="0" d="M40.693153381347656 178.0418243408203 C39.535011291503906 176.6084442138672 38.89418029785156 175.19285583496094 39.27204132080078 173.98248291015625 C39.69444274902344 172.63140869140625 40.53447723388672 172.09765625 41.542476654052734 172.02684020996094 C42.55047607421875 171.95603942871094 43.726436614990234 172.34817504882812 44.82068634033203 172.84890747070312 C44.50457763671875 173.9514617919922 43.97081756591797 174.96615600585938 43.26702117919922 175.8469696044922 C42.563228607177734 176.727783203125 41.68939971923828 177.4747314453125 40.693153381347656 178.0418243408203"></path>
<path fill="#0586A3" fill-opacity="1.0"  filling="0" d="M200.44265747070312 178.65130615234375 C199.556396484375 178.06640625 198.7833251953125 177.33251953125 198.1619415283203 176.48678588867188 C197.54055786132812 175.6410675048828 197.0708465576172 174.68353271484375 196.79129028320312 173.6513214111328 C197.7586669921875 173.2931365966797 198.73617553710938 173.08792114257812 199.56300354003906 173.2638702392578 C200.38983154296875 173.4398193359375 201.06597900390625 173.99691772460938 201.43063354492188 175.16336059570312 C201.7581024169922 176.2127685546875 201.3194122314453 177.41575622558594 200.44265747070312 178.65130615234375"></path>
<path fill="#FB9300" fill-opacity="1.0"  filling="0" d="M107.09688568115234 88.15450286865234 C107.39855194091797 89.50326538085938 107.58433532714844 90.90674591064453 107.65299224853516 92.31598663330078 C107.72164916992188 93.72522735595703 107.67318725585938 95.14022827148438 107.50637817382812 96.51203155517578 C107.33956909179688 97.88383483886719 107.05441284179688 99.21243286132812 106.64967346191406 100.4488754272461 C106.24493408203125 101.68531799316406 105.72062683105469 102.82960510253906 105.07550048828125 103.832763671875 C104.68228912353516 103.3789291381836 103.779052734375 102.90392303466797 102.6515884399414 102.4801025390625 C101.52412414550781 102.0562744140625 100.17241668701172 101.68363189697266 98.88227081298828 101.43450164794922 C97.59211730957031 101.18537902832031 96.363525390625 101.05976867675781 95.48226928710938 101.13001251220703 C95.7796401977539 100.3255615234375 95.99481201171875 99.25917053222656 96.1068344116211 98.02074432373047 C96.21885681152344 96.78231811523438 96.22773742675781 95.37185668945312 96.11250305175781 93.8792724609375 C95.99726867675781 92.38668823242188 95.75792694091797 90.81198120117188 95.37351989746094 89.24506378173828 C95.98546600341797 89.01773071289062 96.97259521484375 88.82829284667969 98.18994903564453 88.67424011230469 C99.40730285644531 88.52018737792969 100.85487365722656 88.4015121459961 102.38768768310547 88.31571960449219 C103.92050170898438 88.22993469238281 105.53855895996094 88.17703247070312 107.09688568115234 88.15450286865234"></path>
<path fill="#FFFFFF" fill-opacity="1.0"  filling="0" d="M104.53053283691406 88.21839904785156 C105.11421203613281 90.19154357910156 105.40604400634766 91.17811584472656 105.55281066894531 92.23326873779297 C105.69957733154297 93.28842163085938 105.7012710571289 94.41216278076172 105.70465850830078 96.65963745117188 C105.70772552490234 98.88099670410156 105.70925903320312 99.99168395996094 105.56802368164062 100.83540344238281 C105.42678833007812 101.67913055419922 105.14277648925781 102.25590515136719 104.57476043701172 103.40943908691406 C104.29460144042969 103.2195816040039 103.94255065917969 103.03035736083984 103.53889465332031 102.84603118896484 C104.03501892089844 101.823974609375 104.2830810546875 101.31295013427734 104.40634155273438 100.53988647460938 C104.52960968017578 99.76681518554688 104.528076171875 98.73170471191406 104.5250015258789 96.66148376464844 C104.52162170410156 94.41738891601562 104.51993560791016 93.29534149169922 104.36849212646484 92.24617767333984 C104.217041015625 91.19700622558594 103.91583251953125 90.2207260131836 103.31341552734375 88.26815795898438 C103.71646118164062 88.2497329711914 104.12257385253906 88.23314666748047 104.53053283691406 88.21839904785156"></path>
<path fill="#FFFFFF" fill-opacity="1.0"  filling="0" d="M101.46775817871094 88.37200164794922 C102.07846069335938 90.383544921875 102.3838119506836 91.38932037353516 102.53733825683594 92.46705627441406 C102.69085693359375 93.54479217529297 102.69255065917969 94.69448852539062 102.69593811035156 96.9938735961914 C102.69839477539062 98.59439086914062 102.69962310791016 99.39464569091797 102.62666320800781 100.0562744140625 C102.55370330810547 100.71791076660156 102.40655517578125 101.24091339111328 102.11225128173828 102.28692626953125 C101.75161743164062 102.1640396118164 101.3749771118164 102.04669952392578 100.98912811279297 101.93733215332031 C101.52059173583984 100.02901458740234 101.52059173583984 100.02901458740234 101.51628112792969 96.99571228027344 C101.51321411132812 94.71076202392578 101.51168060302734 93.56828308105469 101.35478210449219 92.50153350830078 C101.1978759765625 91.43478393554688 100.88560485839844 90.44375610351562 100.26106262207031 88.46170043945312 C100.65245056152344 88.42913818359375 101.05548095703125 88.39903259277344 101.46775817871094 88.37200164794922"></path>
<path fill="#FFFFFF" fill-opacity="1.0"  filling="0" d="M98.26918029785156 88.6644515991211 C98.80801391601562 90.5697021484375 99.07743835449219 91.52233123779297 99.2129135131836 92.5384750366211 C99.348388671875 93.55461120605469 99.34991455078125 94.63426208496094 99.35298156738281 96.79357147216797 C99.35729217529297 99.52151489257812 99.35729217529297 99.52151489257812 98.93028259277344 101.4439697265625 C98.53521728515625 101.3665542602539 98.14569091796875 101.30081176757812 97.76905822753906 101.24858093261719 C98.17701721191406 99.45454406738281 98.17701721191406 99.45454406738281 98.17333984375 96.79542541503906 C98.17027282714844 94.67451477050781 98.16873168945312 93.61405944824219 98.03340911865234 92.61888122558594 C97.89808654785156 91.62371063232422 97.62898254394531 90.69381713867188 97.09075927734375 88.83402252197266 C97.4532699584961 88.77320098876953 97.84770965576172 88.7166748046875 98.26918029785156 88.6644515991211"></path>
<path fill="#FB9300" fill-opacity="1.0"  filling="0" d="M137.6417694091797 88.88871002197266 C139.2576446533203 89.03227233886719 140.98977661132812 89.2073745727539 142.6526641845703 89.41600036621094 C144.3155517578125 89.62461853027344 145.90919494628906 89.86676025390625 147.24807739257812 90.14440155029297 C148.58697509765625 90.42204284667969 149.67111206054688 90.73518371582031 150.31500244140625 91.0857925415039 C149.69671630859375 92.57592010498047 149.20901489257812 94.19690704345703 148.8526153564453 95.78932189941406 C148.4962158203125 97.38172912597656 148.2711181640625 98.94556427001953 148.17803955078125 100.32136535644531 C148.08493041992188 101.69717407226562 148.12384033203125 102.88494873046875 148.29547119140625 103.7252426147461 C147.4351043701172 103.5218734741211 146.08901977539062 103.3931884765625 144.6257781982422 103.35520935058594 C143.1625213623047 103.31723022460938 141.58209228515625 103.36995697021484 140.25306701660156 103.52940368652344 C138.9240264892578 103.68885803222656 137.84637451171875 103.95503234863281 137.38864135742188 104.34394073486328 C136.90371704101562 103.254150390625 136.55128479003906 102.06509399414062 136.32684326171875 100.8140640258789 C136.10240173339844 99.56304168701172 136.00596618652344 98.25005340576172 136.0330352783203 96.91238403320312 C136.06011962890625 95.57472229003906 136.210693359375 94.21238708496094 136.48031616210938 92.86267852783203 C136.7499237060547 91.5129623413086 137.13858032226562 90.17587280273438 137.6417694091797 88.88871002197266"></path>
<path fill="#FFFFFF" fill-opacity="1.0"  filling="0" d="M141.4744110107422 89.27454376220703 C140.59121704101562 91.10299682617188 140.1496124267578 92.01722717285156 139.84317016601562 93.02523040771484 C139.5367431640625 94.0332260131836 139.365478515625 95.13499450683594 139.02296447753906 97.33853912353516 C138.69732666015625 99.43610382080078 138.53451538085938 100.4848861694336 138.54319763183594 101.28137969970703 C138.55186462402344 102.07787322998047 138.73202514648438 102.62207794189453 139.0923614501953 103.71048736572266 C138.6512451171875 103.79895782470703 138.26539611816406 103.9040298461914 137.9563446044922 104.02751922607422 C137.56405639648438 102.79963684082031 137.367919921875 102.18569946289062 137.3555450439453 101.3270034790039 C137.3431854248047 100.46829986572266 137.5146026611328 99.36483764648438 137.85743713378906 97.15792083740234 C138.19566345214844 94.97987365722656 138.36477661132812 93.89085388183594 138.66175842285156 92.88845825195312 C138.958740234375 91.88606262207031 139.38360595703125 90.97029876708984 140.2333221435547 89.1387710571289 C140.64682006835938 89.18238830566406 141.0615234375 89.22724151611328 141.4744110107422 89.27454376220703"></path>
<path fill="#FFFFFF" fill-opacity="1.0"  filling="0" d="M141.7576446533203 103.39837646484375 C141.35459899902344 103.42234802246094 140.96014404296875 103.45306396484375 140.58291625976562 103.49238586425781 C140.42315673828125 102.3846206665039 140.34329223632812 101.83073425292969 140.36801147460938 101.13746643066406 C140.3927459716797 100.4441909790039 140.52207946777344 99.61152648925781 140.78074645996094 97.9461898803711 C141.13864135742188 95.64280700683594 141.31759643554688 94.49111938476562 141.6395263671875 93.43619537353516 C141.96148681640625 92.38127136230469 142.42642211914062 91.42311096191406 143.35630798339844 89.50679016113281 C143.7734832763672 89.56270599365234 144.1845245361328 89.61984252929688 144.5863494873047 89.6800537109375 C143.62664794921875 91.58407592773438 143.1468048095703 92.53609466552734 142.81680297851562 93.5919418334961 C142.48678588867188 94.64778137207031 142.30661010742188 95.80746459960938 141.94627380371094 98.12682342529297 C141.69497680664062 99.74515533447266 141.5693359375 100.5543212890625 141.54576110839844 101.21326446533203 C141.52218627929688 101.87220764160156 141.60067749023438 102.38093566894531 141.7576446533203 103.39837646484375"></path>
<path fill="#FFFFFF" fill-opacity="1.0"  filling="0" d="M145.04652404785156 103.36888885498047 C144.66006469726562 103.35413360595703 144.26255798339844 103.34554290771484 143.86135864257812 103.34369659423828 C143.75567626953125 102.29706573486328 143.7028350830078 101.77375030517578 143.73455810546875 101.13784790039062 C143.76626586914062 100.50193786621094 143.88255310058594 99.75344848632812 144.1151123046875 98.25646209716797 C144.46377563476562 96.01236724853516 144.63812255859375 94.89031982421875 144.94815063476562 93.86019897460938 C145.25819396972656 92.83008575439453 145.70394897460938 91.89189147949219 146.59542846679688 90.01551818847656 C147.0138397216797 90.09415435791016 147.41258239746094 90.17587280273438 147.78614807128906 90.26126861572266 C146.88113403320312 92.11184692382812 146.42861938476562 93.0371322631836 146.1154327392578 94.05911254882812 C145.80224609375 95.08108520507812 145.62835693359375 96.19976043701172 145.28060913085938 98.43710327148438 C144.81919860839844 101.40956115722656 144.81919860839844 101.40956115722656 145.04652404785156 103.36888885498047"></path></svg>