<svg xmlns="http://www.w3.org/2000/svg" viewBox="0.0 0.0 256.0 256.0" height="256.0px" width="256.0px"><path fill="#EC6568" fill-opacity="1.0"  filling="0" d="M145.20994567871094 63.0208740234375 C146.62008666992188 63.49904251098633 147.6791534423828 64.18585205078125 148.45960998535156 65.04891204833984 C149.2400665283203 65.91197967529297 149.74192810058594 66.95130920410156 150.03765869140625 68.13451385498047 C150.33338928222656 69.31771850585938 150.42300415039062 70.64481353759766 150.37896728515625 72.08340454101562 C150.33493041992188 73.5219955444336 150.15724182128906 75.07209014892578 149.91836547851562 76.70130920410156 C149.67950439453125 78.33052825927734 149.3794708251953 80.03887176513672 149.09072875976562 81.79396057128906 C148.80198669433594 83.5490493774414 148.52455139160156 85.35088348388672 148.33090209960938 87.16708374023438 C148.13723754882812 88.98328399658203 148.02735900878906 90.81385040283203 148.07374572753906 92.62640380859375 C148.1201171875 94.43895721435547 148.32273864746094 96.2334976196289 148.7541046142578 97.97764587402344 C149.18545532226562 99.7218017578125 149.8455352783203 101.41555786132812 150.80682373046875 103.02655029296875 C151.76812744140625 104.63753509521484 153.03060913085938 106.16575622558594 154.6667938232422 107.57882690429688 C155.7580108642578 108.52119445800781 157.0626983642578 109.29231262207031 158.53465270996094 109.92304229736328 C160.00660705566406 110.55377197265625 161.64584350585938 111.04411315917969 163.4061737060547 111.4249267578125 C165.16648864746094 111.80574035644531 167.0478973388672 112.07703399658203 169.0041961669922 112.26966094970703 C170.9604949951172 112.46228790283203 172.99169921875 112.57626342773438 175.0515899658203 112.6424331665039 C177.1114959716797 112.70860290527344 179.20010375976562 112.72698211669922 181.27122497558594 112.72842407226562 C183.34234619140625 112.72986602783203 185.39598083496094 112.71437072753906 187.38595581054688 112.71280670166016 C189.37591552734375 112.71124267578125 191.30221557617188 112.7236099243164 193.11863708496094 112.78077697753906 C194.93505859375 112.83793640136719 196.64161682128906 112.93989562988281 198.19212341308594 113.11750793457031 C199.7426300048828 113.29512023925781 201.1370849609375 113.54839324951172 202.3292999267578 113.9081802368164 C203.52151489257812 114.26797485351562 204.511474609375 114.73429107666016 205.2530059814453 115.3379898071289 C205.99453735351562 115.94168853759766 206.4876251220703 116.68276977539062 206.68609619140625 117.59210205078125 C206.99679565429688 119.01595306396484 206.9190673828125 120.31621551513672 206.52328491210938 121.5158920288086 C206.12750244140625 122.71556091308594 205.4136505126953 123.81463623046875 204.45213317871094 124.83611297607422 C203.49061584472656 125.85758972167969 202.2814178466797 126.80146789550781 200.8948974609375 127.69075012207031 C199.50839233398438 128.5800323486328 197.944580078125 129.41470336914062 196.27383422851562 130.21775817871094 C194.60308837890625 131.0208282470703 192.82542419433594 131.7922821044922 191.01119995117188 132.5551300048828 C189.1969757080078 133.31797790527344 187.34619140625 134.07220458984375 185.52923583984375 134.8408203125 C183.7122802734375 135.60943603515625 181.92913818359375 136.39242553710938 180.25018310546875 137.2128143310547 C178.5712432861328 138.03318786621094 176.99649047851562 138.89093017578125 175.5963134765625 139.80905151367188 C174.19613647460938 140.7271728515625 172.9705352783203 141.70567321777344 171.9898681640625 142.7675323486328 C171.00921630859375 143.82940673828125 170.27349853515625 144.97463989257812 169.85311889648438 146.22622680664062 C169.25302124023438 148.01309204101562 168.9775390625 149.81361389160156 168.96121215820312 151.61526489257812 C168.94488525390625 153.4169158935547 169.18771362304688 155.21971130371094 169.62423706054688 157.0111541748047 C170.06076049804688 158.80258178710938 170.69094848632812 160.58265686035156 171.44937133789062 162.3388671875 C172.20777893066406 164.09506225585938 173.0944061279297 165.82740783691406 174.0437774658203 167.5233612060547 C174.99314880371094 169.21932983398438 176.00526428222656 170.87892150878906 177.0146484375 172.48963928222656 C178.02403259277344 174.10035705566406 179.0306854248047 175.66220092773438 179.96914672851562 177.16265869140625 C180.9075927734375 178.66311645507812 181.77784729003906 180.10220336914062 182.51443481445312 181.4674072265625 C183.2510223388672 182.83261108398438 183.8539276123047 184.12393188476562 184.25770568847656 185.32887268066406 C184.66146850585938 186.5338134765625 184.8660888671875 187.65234375 184.8061065673828 188.6719970703125 C184.74612426757812 189.691650390625 184.4215087890625 190.6124267578125 183.76683044433594 191.42178344726562 C183.1149444580078 192.2274627685547 182.35121154785156 192.83970642089844 181.4888916015625 193.27659606933594 C180.62657165527344 193.71348571777344 179.66567993164062 193.9750213623047 178.61952209472656 194.07928466796875 C177.5733642578125 194.1835479736328 176.44192504882812 194.1305389404297 175.238525390625 193.9383544921875 C174.03512573242188 193.7461700439453 172.75975036621094 193.414794921875 171.42568969726562 192.96234130859375 C170.0916290283203 192.50987243652344 168.6988983154297 191.9363250732422 167.26080322265625 191.25975036621094 C165.82269287109375 190.58319091796875 164.33920288085938 189.80360412597656 162.82363891601562 188.93911743164062 C161.30807495117188 188.07461547851562 159.7604217529297 187.1251983642578 158.19400024414062 186.10894775390625 C156.62757873535156 185.0926971435547 155.0423583984375 184.0095977783203 153.45167541503906 182.8777618408203 C151.86097717285156 181.7459259033203 150.26480102539062 180.56533813476562 148.67645263671875 179.35409545898438 C147.0880889892578 178.14285278320312 145.50753784179688 176.90093994140625 143.94810485839844 175.64645385742188 C142.388671875 174.3919677734375 140.85035705566406 173.12490844726562 139.346435546875 171.8633575439453 C137.842529296875 170.601806640625 136.37303161621094 169.3457794189453 134.9512481689453 168.11334228515625 C133.52944946289062 166.8809051513672 132.15536499023438 165.67205810546875 130.84230041503906 164.50491333007812 C130.05308532714844 163.80337524414062 129.13082885742188 163.3832244873047 128.09446716308594 163.20425415039062 C127.05810546875 163.02528381347656 125.90763092041016 163.08749389648438 124.66199493408203 163.3506622314453 C123.41635131835938 163.61383056640625 122.07554626464844 164.0779571533203 120.65850830078125 164.7028350830078 C119.24147033691406 165.3277130126953 117.74819946289062 166.11334228515625 116.1976318359375 167.01950073242188 C114.64706420898438 167.9256591796875 113.0392074584961 168.9523468017578 111.39299774169922 170.05935668945312 C109.74678802490234 171.16636657714844 108.06221771240234 172.35369873046875 106.35823059082031 173.5811309814453 C104.65424346923828 174.80856323242188 102.93084716796875 176.0760955810547 101.20696258544922 177.34352111816406 C99.48307800292969 178.61094665527344 97.75872039794922 179.8782501220703 96.05281829833984 181.10523986816406 C94.34691619873047 182.33221435546875 92.65947723388672 183.5188751220703 91.00943756103516 184.62498474121094 C89.35939025878906 185.73109436035156 87.74674987792969 186.7566680908203 86.19043731689453 187.66148376464844 C84.63412475585938 188.56629943847656 83.13414764404297 189.35035705566406 81.70944213867188 189.97344970703125 C80.28473663330078 190.59652709960938 78.93531036376953 191.0586395263672 77.68009185791016 191.31956481933594 C76.42488098144531 191.58050537109375 75.26387023925781 191.64024353027344 74.21601867675781 191.4585723876953 C73.16815948486328 191.27691650390625 72.23345184326172 190.85385131835938 71.43083190917969 190.149169921875 C70.58346557617188 189.4051513671875 70.04898071289062 188.5078125 69.7772445678711 187.48416137695312 C69.50550842285156 186.46051025390625 69.49652862548828 185.31051635742188 69.70015716552734 184.06118774414062 C69.9037857055664 182.81185913085938 70.32003021240234 181.4631805419922 70.89874267578125 180.04212951660156 C71.47746276855469 178.62107849121094 72.2186508178711 177.12767028808594 73.07217407226562 175.5888671875 C73.92570495605469 174.05006408691406 74.89156341552734 172.4658660888672 75.91963195800781 170.86326599121094 C76.94769287109375 169.2606658935547 78.03795623779297 167.63966369628906 79.1402816772461 166.0272216796875 C80.24260711669922 164.414794921875 81.35699462890625 162.81092834472656 82.43330383300781 161.24261474609375 C83.50961303710938 159.67430114746094 84.5478515625 158.14154052734375 85.49787139892578 156.67132568359375 C86.44789123535156 155.2010955810547 87.30970001220703 153.7934112548828 88.03315734863281 152.47523498535156 C88.7566146850586 151.15704345703125 89.34172058105469 149.92837524414062 89.73834228515625 148.8162078857422 C90.13496398925781 147.70404052734375 90.34309387207031 146.70834350585938 90.31259155273438 145.85614013671875 C90.27054595947266 144.6829071044922 89.92588806152344 143.52056884765625 89.33375549316406 142.3673553466797 C88.74163055419922 141.21414184570312 87.90203094482422 140.070068359375 86.8701171875 138.93338012695312 C85.83819580078125 137.79669189453125 84.61396026611328 136.6674041748047 83.25255584716797 135.54376220703125 C81.89114379882812 134.4201202392578 80.39256286621094 133.3021240234375 78.81195831298828 132.1880340576172 C77.23135375976562 131.07394409179688 75.5687255859375 129.96376037597656 73.87922668457031 128.85572814941406 C72.18972778320312 127.7477035522461 70.47335052490234 126.64183807373047 68.78524780273438 125.53638458251953 C67.0971450805664 124.43093872070312 65.43732452392578 123.3259048461914 63.86091613769531 122.21953582763672 C62.28451156616211 121.11317443847656 60.79153060913086 120.00548553466797 59.4371223449707 118.89472198486328 C58.08271408081055 117.7839584350586 56.86687469482422 116.67012786865234 55.84475326538086 115.55147552490234 C54.822635650634766 114.43282318115234 53.99423599243164 113.30935668945312 53.414703369140625 112.1793212890625 C52.83517074584961 111.04928588867188 52.5045051574707 109.9126968383789 52.47785949707031 108.76780700683594 C52.451210021972656 107.62290954589844 52.72857666015625 106.46971130371094 53.3651123046875 105.30645751953125 C53.88572311401367 104.35498046875 54.573116302490234 103.63092041015625 55.4055290222168 103.09677124023438 C56.23794174194336 102.56261444091797 57.21538162231445 102.21837615966797 58.31608963012695 102.02653503417969 C59.41679763793945 101.8346939086914 60.640769958496094 101.79525756835938 61.96625900268555 101.87071990966797 C63.291748046875 101.94618225097656 64.71875 102.13654327392578 66.22550201416016 102.404296875 C67.73226165771484 102.67205047607422 69.31877899169922 103.01720428466797 70.96329498291016 103.4022445678711 C72.6078109741211 103.78728485107422 74.31033325195312 104.21221160888672 76.04910278320312 104.6395263671875 C77.78787231445312 105.06684112548828 79.5628890991211 105.49654388427734 81.35240173339844 105.89112091064453 C83.14190673828125 106.28569793701172 84.94590759277344 106.6451644897461 86.74264526367188 106.93199920654297 C88.53938293457031 107.21883392333984 90.328857421875 107.43304443359375 92.08931732177734 107.5371322631836 C93.84976959228516 107.6412124633789 95.58120727539062 107.63516998291016 97.26187133789062 107.48149108886719 C98.94253540039062 107.32780456542969 100.57242584228516 107.0264892578125 102.12979125976562 106.5400390625 C103.6871566772461 106.0535888671875 105.1719970703125 105.38199615478516 106.56254577636719 104.48776245117188 C107.7059326171875 103.75249481201172 108.83032989501953 102.81897735595703 109.93901824951172 101.72810363769531 C111.0477066040039 100.63722229003906 112.14069366455078 99.38898468017578 113.22127532958984 98.02426147460938 C114.30184936523438 96.65953826904297 115.3700180053711 95.17832946777344 116.42906951904297 93.62152862548828 C117.48812103271484 92.06472778320312 118.5380630493164 90.43231964111328 119.5821762084961 88.76520538330078 C120.62629699707031 87.09808349609375 121.66458892822266 85.39625549316406 122.70035552978516 83.7005844116211 C123.73612213134766 82.00492095947266 124.76937103271484 80.31541442871094 125.80337524414062 78.67296600341797 C126.83738708496094 77.030517578125 127.8721694946289 75.43511962890625 128.9110107421875 73.92765045166016 C129.94984436035156 72.42018127441406 130.9927520751953 71.00064086914062 132.04299926757812 69.70992279052734 C133.09326171875 68.41920471191406 134.15086364746094 67.25729370117188 135.21913146972656 66.26508331298828 C136.2873992919922 65.27287292480469 137.36630249023438 64.45036315917969 138.4591522216797 63.838436126708984 C139.552001953125 63.226505279541016 140.6588134765625 62.82515335083008 141.7828369140625 62.67526626586914 C142.90687561035156 62.5253791809082 144.0481414794922 62.626953125 145.20994567871094 63.0208740234375"></path>
<path fill="#1A426B" fill-opacity="1.0"  filling="0" d="M120.72650909423828 141.29409790039062 C122.59329986572266 142.3133544921875 123.83782196044922 142.99285888671875 124.85367584228516 143.35848999023438 C125.8695297241211 143.72412109375 126.6567153930664 143.77590942382812 127.60881805419922 143.53968811035156 C128.56092834472656 143.30348205566406 129.67794799804688 142.779296875 131.35348510742188 141.99301147460938 C133.88809204101562 140.80157470703125 133.88809204101562 140.80157470703125 135.27520751953125 139.04571533203125 C136.10052490234375 138.00070190429688 136.10052490234375 138.00070190429688 137.14553833007812 138.82608032226562 C138.19052124023438 139.65142822265625 138.19052124023438 139.65142822265625 137.3651885986328 140.69644165039062 C136.47662353515625 141.8206329345703 136.03233337402344 142.38272094726562 135.42230224609375 142.84597778320312 C134.81228637695312 143.30923461914062 134.03652954101562 143.67364501953125 132.48501586914062 144.4024658203125 C130.40213012695312 145.3804473876953 129.0135498046875 146.03244018554688 127.83651733398438 146.32989501953125 C126.65948486328125 146.62734985351562 125.69402313232422 146.57025146484375 124.45738983154297 146.13006591796875 C123.22074890136719 145.68988037109375 121.71294403076172 144.86660766601562 119.45123291015625 143.6317138671875 C118.28243255615234 142.99407958984375 118.28243255615234 142.99407958984375 118.92008209228516 141.82525634765625 C119.23955535888672 141.24090576171875 119.23955535888672 141.24090576171875 119.69084167480469 141.10775756835938 C120.14212036132812 140.9759521484375 120.14212036132812 140.9759521484375 120.72650909423828 141.29409790039062"></path>
<path fill="#1A426B" fill-opacity="1.0"  filling="0" d="M133.0121612548828 135.96932983398438 C135.10479736328125 136.3500518798828 136.151123046875 136.5404052734375 136.88278198242188 137.20068359375 C137.61444091796875 137.8609619140625 138.0314483642578 138.99114990234375 138.86544799804688 141.25152587890625 C139.32603454589844 142.50018310546875 139.32603454589844 142.50018310546875 138.07736206054688 142.9608154296875 C137.45303344726562 143.19107055664062 137.45303344726562 143.19107055664062 137.02572631835938 142.99407958984375 C136.59841918945312 142.7969970703125 136.59841918945312 142.7969970703125 136.36810302734375 142.17269897460938 C135.79702758789062 140.6251983642578 135.51148986816406 139.8514404296875 135.0324249267578 139.40350341796875 C134.55335998535156 138.95556640625 133.88076782226562 138.8334197998047 132.53558349609375 138.58914184570312 C131.88064575195312 138.46932983398438 131.88064575195312 138.46932983398438 131.61306762695312 138.083251953125 C131.3455047607422 137.69589233398438 131.3455047607422 137.69589233398438 131.46395874023438 137.04095458984375 C131.70225524902344 135.73104858398438 131.70225524902344 135.73104858398438 133.0121612548828 135.96932983398438"></path>
<path fill="#1A426B" fill-opacity="1.0"  filling="0" d="M135.45358276367188 130.55264282226562 C137.21609497070312 129.03907775878906 138.39109802246094 128.03004455566406 139.409912109375 127.45211029052734 C140.4287109375 126.87417602539062 141.2913360595703 126.72734832763672 142.4290771484375 126.93821716308594 C143.56680297851562 127.14908599853516 144.97964477539062 127.7176513671875 147.0989227294922 128.57049560546875 C148.63311767578125 129.18820190429688 149.4002227783203 129.49705505371094 150.0425262451172 129.91871643066406 C150.68484497070312 130.34036254882812 151.2023468017578 130.8748321533203 152.23736572265625 131.94375610351562 C153.16253662109375 132.89956665039062 153.16253662109375 132.89956665039062 152.2053985595703 133.82608032226562 C151.7274932861328 134.28802490234375 151.7274932861328 134.28802490234375 151.25758361816406 134.2813720703125 C150.7863311767578 134.27337646484375 150.7863311767578 134.27337646484375 150.32308959960938 133.79412841796875 C149.4857635498047 132.92884826660156 149.06710815429688 132.4962158203125 148.53994750976562 132.152099609375 C148.01278686523438 131.8079833984375 147.37713623046875 131.55238342285156 146.1058349609375 131.04119873046875 C144.4866485595703 130.3893585205078 143.40719604492188 129.95480346679688 142.5372314453125 129.79428100585938 C141.66726684570312 129.63375854492188 141.00680541992188 129.74725341796875 140.2255859375 130.1915283203125 C139.4443817138672 130.63580322265625 138.54241943359375 131.41085815429688 137.18948364257812 132.57342529296875 C136.1790771484375 133.44000244140625 136.1790771484375 133.44000244140625 135.31112670898438 132.4310302734375 C134.44454956054688 131.42059326171875 134.44454956054688 131.42059326171875 135.45358276367188 130.55264282226562"></path>
<path fill="#E7EFF7" fill-opacity="1.0"  filling="0" d="M121.45335388183594 130.0494384765625 C121.94429779052734 129.04917907714844 121.88604736328125 127.89977264404297 121.43425750732422 126.75836181640625 C120.98246765136719 125.61695098876953 120.13714599609375 124.48353576660156 119.05394744873047 123.51526641845703 C117.97075653076172 122.5469970703125 116.64969635009766 121.74386596679688 115.24642944335938 121.26302337646484 C113.84317016601562 120.78218078613281 112.35769653320312 120.6236343383789 110.94568634033203 120.94451904296875 C109.53367614746094 121.2654037475586 108.19512939453125 122.06571960449219 107.0857162475586 123.50262451171875 C105.9762954711914 124.93952941894531 105.7104263305664 126.41987609863281 106.0300521850586 127.79755401611328 C106.34967803955078 129.17523193359375 107.25479125976562 130.4502410888672 108.48734283447266 131.4764404296875 C109.71989440917969 132.50265502929688 111.27987670898438 133.28005981445312 112.90924072265625 133.6625518798828 C114.5385971069336 134.0450439453125 116.2373275756836 134.0325927734375 117.74736785888672 133.4791259765625 C119.25740051269531 132.92564392089844 120.57875061035156 131.83111572265625 121.45335388183594 130.0494384765625"></path>
<path fill="#1A426B" fill-opacity="1.0"  filling="0" d="M109.0399169921875 129.77658081054688 C109.0399169921875 130.65386962890625 109.24091339111328 131.48583984375 109.5750503540039 132.256591796875 C110.84058380126953 133.05487060546875 112.31732940673828 133.6151580810547 113.81211853027344 133.82760620117188 C115.3069076538086 134.04005432128906 116.81974029541016 133.9046630859375 118.1574478149414 133.31158447265625 C119.49515533447266 132.718505859375 120.65773010253906 131.66775512695312 121.45201110839844 130.0494384765625 C121.97917175292969 128.97518920898438 121.87234497070312 127.72952270507812 121.32488250732422 126.50647735595703 C120.77742767333984 125.28343200683594 119.78933715820312 124.0830078125 118.55398559570312 123.0992431640625 C117.97225952148438 122.97412109375 117.37188720703125 122.88894653320312 116.74755859375 122.88894653320312 C115.32849884033203 122.88894653320312 113.99907684326172 123.23165893554688 112.85720825195312 123.82946014404297 C111.71533203125 124.4272689819336 110.7610092163086 125.2801742553711 110.09215545654297 126.30056762695312 C109.42330169677734 127.32095336914062 109.0399169921875 128.5088348388672 109.0399169921875 129.77658081054688"></path>
<path fill="#E7EFF7" fill-opacity="1.0"  filling="0" d="M116.95123291015625 125.84417724609375 C116.95123291015625 124.57025146484375 116.14054107666016 123.49462890625 115.01167297363281 123.079345703125 C113.51141357421875 123.3895263671875 112.18421173095703 124.08700561523438 111.16184997558594 125.05352783203125 C111.09127807617188 125.306396484375 111.04069519042969 125.56863403320312 111.04069519042969 125.84417724609375 C111.04069519042969 127.47625732421875 112.3639144897461 128.79949951171875 113.99596405029297 128.79949951171875 C115.62801361083984 128.79949951171875 116.95123291015625 127.47625732421875 116.95123291015625 125.84417724609375"></path>
<path fill="#1A426B" fill-opacity="1.0"  filling="0" d="M108.55136108398438 113.9605712890625 C109.44925689697266 112.29257202148438 109.89820861816406 111.45857238769531 110.6426773071289 111.10364532470703 C111.38715362548828 110.74871826171875 112.42715454101562 110.87286376953125 114.50714874267578 111.12115478515625 C116.42607116699219 111.35078430175781 117.38552856445312 111.4655990600586 118.05030059814453 111.89324951171875 C118.7150650024414 112.32089233398438 119.08514404296875 113.06137084960938 119.82528686523438 114.54232788085938 C120.12347412109375 115.13739013671875 120.12347412109375 115.13739013671875 119.97438049316406 115.58331298828125 C119.82528686523438 116.03057861328125 119.82528686523438 116.03057861328125 119.23025512695312 116.32748413085938 C118.04014587402344 116.92385864257812 118.04014587402344 116.92385864257812 117.44511413574219 115.732421875 C116.6051254272461 114.05377197265625 116.6051254272461 114.05377197265625 114.19165802001953 113.764892578125 C111.83145141601562 113.48269653320312 111.83145141601562 113.48269653320312 110.89427185058594 115.22259521484375 C110.26327514648438 116.3953857421875 110.26327514648438 116.3953857421875 109.09181213378906 115.7630615234375 C107.91903686523438 115.132080078125 107.91903686523438 115.132080078125 108.55136108398438 113.9605712890625"></path>
<path fill="#1A426B" fill-opacity="1.0"  filling="0" d="M137.2760009765625 116.8306884765625 C138.23846435546875 115.44955444335938 138.7196807861328 114.75898742675781 139.47030639648438 114.43217468261719 C140.220947265625 114.10536193847656 141.240966796875 114.14230346679688 143.28103637695312 114.2161865234375 C145.2279052734375 114.2867431640625 146.20135498046875 114.322021484375 146.9053955078125 114.64816284179688 C147.60943603515625 114.97430419921875 148.0440673828125 115.59130859375 148.91334533691406 116.8253173828125 C149.29672241210938 117.36981201171875 149.29672241210938 117.36981201171875 149.2155303955078 117.83438110351562 C149.1343231201172 118.29763793945312 149.1343231201172 118.29763793945312 148.59120178222656 118.6810302734375 C147.50225830078125 119.44644165039062 147.50225830078125 119.44644165039062 146.73550415039062 118.35888671875 C145.75840759277344 116.97039794921875 145.75840759277344 116.97039794921875 143.18385314941406 116.87725830078125 C140.55474853515625 116.7813720703125 140.55474853515625 116.7813720703125 139.45916748046875 118.353515625 C139.07843017578125 118.89932250976562 139.07843017578125 118.89932250976562 138.61517333984375 118.98187255859375 C138.15191650390625 119.064453125 138.15191650390625 119.064453125 137.60614013671875 118.6837158203125 C136.51454162597656 117.923583984375 136.51454162597656 117.923583984375 137.2760009765625 116.8306884765625"></path>
<path fill="#F0BBC4" fill-opacity="1.0"  filling="0" d="M175.80224609375 185.98782348632812 C175.80224609375 186.3894500732422 175.6425323486328 186.7750244140625 175.35853576660156 187.05902099609375 C175.0745391845703 187.343017578125 174.68896484375 187.5027313232422 174.28733825683594 187.5027313232422 C173.88571166992188 187.5027313232422 173.50013732910156 187.343017578125 173.2161407470703 187.05902099609375 C172.93214416503906 186.7750244140625 172.77243041992188 186.3894500732422 172.77243041992188 185.98782348632812 C172.77243041992188 185.58619689941406 172.93214416503906 185.20062255859375 173.2161407470703 184.9166259765625 C173.50013732910156 184.63262939453125 173.88571166992188 184.47291564941406 174.28733825683594 184.47291564941406 C174.68896484375 184.47291564941406 175.0745391845703 184.63262939453125 175.35853576660156 184.9166259765625 C175.6425323486328 185.20062255859375 175.80224609375 185.58619689941406 175.80224609375 185.98782348632812"></path>
<path fill="#F0BBC4" fill-opacity="1.0"  filling="0" d="M77.8978042602539 182.07009887695312 C77.8978042602539 181.2327880859375 78.57673645019531 180.55520629882812 79.41405487060547 180.55520629882812 C80.25137329101562 180.55520629882812 80.92896270751953 181.234130859375 80.92896270751953 182.07009887695312 C80.92896270751953 182.90740966796875 80.25003814697266 183.58636474609375 79.41405487060547 183.58636474609375 C78.57673645019531 183.58636474609375 77.8978042602539 182.90740966796875 77.8978042602539 182.07009887695312"></path>
<path fill="#F0BBC4" fill-opacity="1.0"  filling="0" d="M61.42820739746094 108.33490753173828 C61.42927551269531 108.73722839355469 61.2700309753418 109.12384796142578 60.985923767089844 109.40870666503906 C60.70181655883789 109.69356536865234 60.31562042236328 109.85383605957031 59.913299560546875 109.85383605957031 C59.51097869873047 109.85383605957031 59.12478256225586 109.69356536865234 58.84067916870117 109.40869903564453 C58.556575775146484 109.12383270263672 58.397335052490234 108.73721313476562 58.398406982421875 108.33489227294922 C58.3973388671875 107.93257141113281 58.556583404541016 107.54595184326172 58.84069061279297 107.26109313964844 C59.12479782104492 106.97623443603516 59.51099395751953 106.81596374511719 59.91331481933594 106.81596374511719 C60.315635681152344 106.81596374511719 60.70183181762695 106.97623443603516 60.98593521118164 107.26110076904297 C61.27003860473633 107.54596710205078 61.42927932739258 107.93258666992188 61.42820739746094 108.33490753173828"></path>
<path fill="#F0BBC4" fill-opacity="1.0"  filling="0" d="M198.19570922851562 119.29071044921875 C198.19570922851562 118.453369140625 198.87460327148438 117.77444458007812 199.71194458007812 117.77444458007812 C200.54925537109375 117.77444458007812 201.22817993164062 118.453369140625 201.22817993164062 119.29071044921875 C201.22817993164062 120.12799072265625 200.54925537109375 120.80563354492188 199.71194458007812 120.80563354492188 C198.87460327148438 120.80563354492188 198.19570922851562 120.12799072265625 198.19570922851562 119.29071044921875"></path>
<path fill="#F0BBC4" fill-opacity="1.0"  filling="0" d="M139.33004760742188 70.69927978515625 C139.33004760742188 69.86190795898438 140.00894165039062 69.18438720703125 140.8462677001953 69.18438720703125 C141.68359375 69.18438720703125 142.36251831054688 69.86325073242188 142.36251831054688 70.69927978515625 C142.36251831054688 71.53656005859375 141.68359375 72.2154541015625 140.8462677001953 72.2154541015625 C140.00894165039062 72.2154541015625 139.33004760742188 71.53656005859375 139.33004760742188 70.69927978515625"></path>
<path fill="#F0BBC4" fill-opacity="1.0"  filling="0" d="M166.21627807617188 178.28152465820312 C166.21627807617188 177.02621459960938 167.23463439941406 176.00784301757812 168.48997497558594 176.00784301757812 C169.7452850341797 176.00784301757812 170.76365661621094 177.02621459960938 170.76365661621094 178.28152465820312 C170.76365661621094 179.53683471679688 169.7452850341797 180.55520629882812 168.48997497558594 180.55520629882812 C167.23463439941406 180.55520629882812 166.21627807617188 179.53683471679688 166.21627807617188 178.28152465820312"></path>
<path fill="#F0BBC4" fill-opacity="1.0"  filling="0" d="M85.58018493652344 172.3709716796875 C85.58018493652344 171.11566162109375 86.59854888916016 170.09732055664062 87.8538589477539 170.09732055664062 C89.10919189453125 170.09732055664062 90.12755584716797 171.11566162109375 90.12755584716797 172.3709716796875 C90.12755584716797 173.62631225585938 89.10919189453125 174.64468383789062 87.8538589477539 174.64468383789062 C86.59854888916016 174.643310546875 85.58018493652344 173.62631225585938 85.58018493652344 172.3709716796875"></path>
<path fill="#F0BBC4" fill-opacity="1.0"  filling="0" d="M67.71147155761719 114.67413330078125 C67.71147155761719 113.41876220703125 68.72984313964844 112.40045166015625 69.98515319824219 112.40045166015625 C71.24049377441406 112.40045166015625 72.25885009765625 113.41876220703125 72.25885009765625 114.67413330078125 C72.25885009765625 115.929443359375 71.24049377441406 116.94778442382812 69.98515319824219 116.94778442382812 C68.72984313964844 116.94647216796875 67.71147155761719 115.929443359375 67.71147155761719 114.67413330078125"></path>
<path fill="#F0BBC4" fill-opacity="1.0"  filling="0" d="M191.40524291992188 122.30853271484375 C191.40524291992188 122.91132354736328 191.16552734375 123.49003601074219 190.73928833007812 123.91627502441406 C190.31304931640625 124.34251403808594 189.7343292236328 124.58222198486328 189.1315460205078 124.58222198486328 C188.5287628173828 124.58222198486328 187.95004272460938 124.34251403808594 187.5238037109375 123.91627502441406 C187.09756469726562 123.49003601074219 186.85784912109375 122.91132354736328 186.85784912109375 122.30853271484375 C186.85784912109375 121.70574188232422 187.09756469726562 121.12702941894531 187.5238037109375 120.70079040527344 C187.95004272460938 120.27455139160156 188.5287628173828 120.03484344482422 189.1315460205078 120.03484344482422 C189.7343292236328 120.03484344482422 190.31304931640625 120.27455139160156 190.73928833007812 120.70079040527344 C191.16552734375 121.12702941894531 191.40524291992188 121.70574188232422 191.40524291992188 122.30853271484375"></path>
<path fill="#F0BBC4" fill-opacity="1.0"  filling="0" d="M135.19534301757812 80.46624755859375 C135.19534301757812 79.2109375 136.2136993408203 78.19256591796875 137.46900939941406 78.19256591796875 C138.72433471679688 78.19256591796875 139.74270629882812 79.2109375 139.74270629882812 80.46624755859375 C139.74270629882812 81.72161865234375 138.72433471679688 82.73992919921875 137.46900939941406 82.73992919921875 C136.2136993408203 82.73992919921875 135.19534301757812 81.72161865234375 135.19534301757812 80.46624755859375"></path>
<path fill="#F0BBC4" fill-opacity="1.0"  filling="0" d="M156.45591735839844 167.6412353515625 C156.45591735839844 165.96658325195312 157.81375122070312 164.61007690429688 159.487060546875 164.61007690429688 C161.16171264648438 164.61007690429688 162.51820373535156 165.96658325195312 162.51820373535156 167.6412353515625 C162.51820373535156 169.31588745117188 161.16171264648438 170.67236328125 159.487060546875 170.67236328125 C157.81240844726562 170.6737060546875 156.45591735839844 169.31588745117188 156.45591735839844 167.6412353515625"></path>
<path fill="#F0BBC4" fill-opacity="1.0"  filling="0" d="M100.19674682617188 161.60958862304688 C100.19674682617188 162.41319274902344 99.8771743774414 163.1846923828125 99.30894470214844 163.7529296875 C98.74071502685547 164.3211669921875 97.96920776367188 164.64073181152344 97.16560363769531 164.64073181152344 C96.36199951171875 164.64073181152344 95.59049224853516 164.3211669921875 95.02226257324219 163.7529296875 C94.45403289794922 163.1846923828125 94.13446044921875 162.41319274902344 94.13446044921875 161.60958862304688 C94.13446044921875 160.8059844970703 94.45403289794922 160.03448486328125 95.02226257324219 159.46624755859375 C95.59049224853516 158.89801025390625 96.36199951171875 158.5784454345703 97.16560363769531 158.5784454345703 C97.96920776367188 158.5784454345703 98.74071502685547 158.89801025390625 99.30894470214844 159.46624755859375 C99.8771743774414 160.03448486328125 100.19674682617188 160.8059844970703 100.19674682617188 161.60958862304688"></path>
<path fill="#F0BBC4" fill-opacity="1.0"  filling="0" d="M85.47634887695312 119.59686279296875 C85.47634887695312 120.40046691894531 85.15677642822266 121.1719741821289 84.58854675292969 121.74020385742188 C84.02031707763672 122.30843353271484 83.24880981445312 122.62800598144531 82.44520568847656 122.62800598144531 C81.6416015625 122.62800598144531 80.8700942993164 122.30843353271484 80.30186462402344 121.74020385742188 C79.73363494873047 121.1719741821289 79.4140625 120.40046691894531 79.4140625 119.59686279296875 C79.4140625 118.79325866699219 79.73363494873047 118.0217514038086 80.30186462402344 117.45352172851562 C80.8700942993164 116.88529205322266 81.6416015625 116.56571960449219 82.44520568847656 116.56571960449219 C83.24880981445312 116.56571960449219 84.02031707763672 116.88529205322266 84.58854675292969 117.45352172851562 C85.15677642822266 118.0217514038086 85.47634887695312 118.79325866699219 85.47634887695312 119.59686279296875"></path>
<path fill="#F0BBC4" fill-opacity="1.0"  filling="0" d="M180.19122314453125 125.9400634765625 C180.19122314453125 126.74366760253906 179.8716583251953 127.51517486572266 179.3034210205078 128.08340454101562 C178.7351837158203 128.65164184570312 177.96368408203125 128.97120666503906 177.1600799560547 128.97120666503906 C176.35647583007812 128.97120666503906 175.58497619628906 128.65164184570312 175.01673889160156 128.08340454101562 C174.44850158691406 127.51517486572266 174.12893676757812 126.74366760253906 174.12893676757812 125.9400634765625 C174.12893676757812 125.13645935058594 174.44850158691406 124.36495208740234 175.01673889160156 123.79672241210938 C175.58497619628906 123.2284927368164 176.35647583007812 122.90892028808594 177.1600799560547 122.90892028808594 C177.96368408203125 122.90892028808594 178.7351837158203 123.2284927368164 179.3034210205078 123.79672241210938 C179.8716583251953 124.36495208740234 180.19122314453125 125.13645935058594 180.19122314453125 125.9400634765625"></path>
<path fill="#F0BBC4" fill-opacity="1.0"  filling="0" d="M131.40672302246094 91.74819946289062 C131.40672302246094 90.07489013671875 132.76455688476562 88.71701049804688 134.43788146972656 88.71701049804688 C136.11251831054688 88.71701049804688 137.46900939941406 90.07489013671875 137.46900939941406 91.74819946289062 C137.46900939941406 93.42282104492188 136.11251831054688 94.77932739257812 134.43788146972656 94.77932739257812 C132.7632293701172 94.77932739257812 131.40672302246094 93.4215087890625 131.40672302246094 91.74819946289062"></path>
<path fill="#F0BBC4" fill-opacity="1.0"  filling="0" d="M155.0688018798828 155.36627197265625 C155.0688018798828 156.3706817626953 154.66937255859375 157.33499145507812 153.9591522216797 158.0452117919922 C153.24893188476562 158.75543212890625 152.2846221923828 159.1548614501953 151.28021240234375 159.1548614501953 C150.2758026123047 159.1548614501953 149.31149291992188 158.75543212890625 148.6012725830078 158.0452117919922 C147.89105224609375 157.33499145507812 147.4916229248047 156.3706817626953 147.4916229248047 155.36627197265625 C147.4916229248047 154.3618621826172 147.89105224609375 153.39755249023438 148.6012725830078 152.6873321533203 C149.31149291992188 151.97711181640625 150.2758026123047 151.5776824951172 151.28021240234375 151.5776824951172 C152.2846221923828 151.5776824951172 153.24893188476562 151.97711181640625 153.9591522216797 152.6873321533203 C154.66937255859375 153.39755249023438 155.0688018798828 154.3618621826172 155.0688018798828 155.36627197265625"></path>
<path fill="#F0BBC4" fill-opacity="1.0"  filling="0" d="M111.04069519042969 149.3639678955078 C111.04167938232422 150.36903381347656 110.6426773071289 151.33428955078125 109.93233489990234 152.04531860351562 C109.22199249267578 152.75634765625 108.25711059570312 153.15626525878906 107.25204467773438 153.15625 C106.24697875976562 153.15623474121094 105.28211212158203 152.7562713623047 104.57179260253906 152.04522705078125 C103.8614730834961 151.3341827392578 103.4625015258789 150.36891174316406 103.46351623535156 149.3638458251953 C103.46253204345703 148.3586883544922 103.86153411865234 147.3934326171875 104.5718765258789 146.68240356445312 C105.28221893310547 145.97137451171875 106.24710083007812 145.5714569091797 107.25216674804688 145.57147216796875 C108.25723266601562 145.5714874267578 109.22209930419922 145.97145080566406 109.93241882324219 146.6824951171875 C110.64273834228516 147.39353942871094 111.04170989990234 148.3588104248047 111.04069519042969 149.36387634277344"></path>
<path fill="#F0BBC4" fill-opacity="1.0"  filling="0" d="M99.17304992675781 124.56635284423828 C99.17403411865234 125.5714111328125 98.77503204345703 126.53667449951172 98.06468963623047 127.2477035522461 C97.3543472290039 127.95873260498047 96.38946533203125 128.35865783691406 95.3843994140625 128.358642578125 C94.37933349609375 128.35862731933594 93.41446685791016 127.95867919921875 92.70414733886719 127.24762725830078 C91.99382781982422 126.53657531738281 91.59485626220703 125.57129669189453 91.59587097167969 124.56623840332031 C91.59488677978516 123.56109619140625 91.99388885498047 122.59583282470703 92.70423126220703 121.88480377197266 C93.4145736694336 121.17377471923828 94.37945556640625 120.77384185791016 95.384521484375 120.77385711669922 C96.38958740234375 120.77387237548828 97.35445404052734 121.173828125 98.06477355957031 121.88488006591797 C98.77509307861328 122.59593200683594 99.17406463623047 123.56121063232422 99.17304992675781 124.56626892089844"></path>
<path fill="#F0BBC4" fill-opacity="1.0"  filling="0" d="M166.3068084716797 128.37081909179688 C166.3068084716797 129.37522888183594 165.90737915039062 130.33953857421875 165.19715881347656 131.0497589111328 C164.4869384765625 131.75997924804688 163.5226287841797 132.15940856933594 162.51821899414062 132.15940856933594 C161.51380920410156 132.15940856933594 160.54949951171875 131.75997924804688 159.8392791748047 131.0497589111328 C159.12905883789062 130.33953857421875 158.72962951660156 129.37522888183594 158.72962951660156 128.37081909179688 C158.72962951660156 127.36640930175781 159.12905883789062 126.40210723876953 159.8392791748047 125.69187927246094 C160.54949951171875 124.98165130615234 161.51380920410156 124.58222198486328 162.51821899414062 124.58222198486328 C163.5226287841797 124.58222198486328 164.4869384765625 124.98165130615234 165.19715881347656 125.69187927246094 C165.90737915039062 126.40210723876953 166.3068084716797 127.36640930175781 166.3068084716797 128.37081909179688"></path>
<path fill="#F0BBC4" fill-opacity="1.0"  filling="0" d="M135.19532775878906 104.54501342773438 C135.19532775878906 105.54942321777344 134.7958984375 106.51372528076172 134.08567810058594 107.22395324707031 C133.37545776367188 107.9341812133789 132.41114807128906 108.33361053466797 131.40673828125 108.33361053466797 C130.40232849121094 108.33361053466797 129.43801879882812 107.9341812133789 128.72779846191406 107.22395324707031 C128.017578125 106.51372528076172 127.6181411743164 105.54942321777344 127.6181411743164 104.54501342773438 C127.6181411743164 103.54060363769531 128.017578125 102.57630157470703 128.72779846191406 101.86607360839844 C129.43801879882812 101.15584564208984 130.40232849121094 100.75641632080078 131.40673828125 100.75641632080078 C132.41114807128906 100.75641632080078 133.37545776367188 101.15584564208984 134.08567810058594 101.86607360839844 C134.7958984375 102.57630157470703 135.19532775878906 103.54060363769531 135.19532775878906 104.54501342773438"></path>
<path fill="#E7EFF7" fill-opacity="1.0"  filling="0" d="M133.10000610351562 76.33554077148438 C132.72349548339844 75.90933990478516 132.10093688964844 76.07721710205078 131.31808471679688 76.67229461669922 C130.53521728515625 77.26736450195312 129.59205627441406 78.28963470458984 128.57432556152344 79.57219696044922 C127.55660247802734 80.8547592163086 126.46431732177734 82.39762115478516 125.38321685791016 84.03388977050781 C124.30211639404297 85.67015838623047 123.2322006225586 87.39982604980469 122.25921630859375 89.05601501464844 C121.2862319946289 90.71219635009766 120.4101791381836 92.29489135742188 119.716796875 93.63720703125 C119.02342224121094 94.97952270507812 118.51272583007812 96.08146667480469 118.27044677734375 96.776123046875 C117.78589630126953 98.16546630859375 118.14990234375 99.67816162109375 118.9267349243164 100.82589721679688 C119.70356750488281 101.97364044189453 120.89321899414062 102.75643157958984 122.0599365234375 102.68598175048828 C123.2266616821289 102.61552429199219 124.37045288085938 101.69181823730469 125.05557250976562 99.42657470703125 C126.02495574951172 96.22129821777344 126.99039459228516 93.44478607177734 127.90229034423828 91.0396728515625 C128.81417846679688 88.63456726074219 129.6725311279297 86.60086822509766 130.42771911621094 84.8812255859375 C131.18292236328125 83.16158294677734 131.8349609375 81.75599670410156 132.33424377441406 80.60711669921875 C132.83352661132812 79.45823669433594 133.1800537109375 78.5660629272461 133.32421875 77.87325286865234 C133.4683837890625 77.18043518066406 133.41018676757812 76.68698120117188 133.10000610351562 76.33554077148438"></path>
<path fill="#E7EFF7" fill-opacity="1.0"  filling="0" d="M97.16559600830078 144.36788940429688 C98.62193298339844 144.6674041748047 99.39787292480469 145.43948364257812 99.66915130615234 146.50942993164062 C99.9404296875 147.57937622070312 99.70703887939453 148.94717407226562 99.14470672607422 150.43812561035156 C98.5823745727539 151.92906188964844 97.69110107421875 153.5431365966797 96.6466064453125 155.1056365966797 C95.60211181640625 156.6681365966797 94.40440368652344 158.17904663085938 93.22920227050781 159.46365356445312 C92.05400085449219 160.74826049804688 90.90129852294922 161.8065643310547 89.94683837890625 162.46383666992188 C88.99237060546875 163.12112426757812 88.23613739013672 163.37738037109375 87.8538589477539 163.05789184570312 C87.39512634277344 162.67449951171875 87.33570861816406 161.66465759277344 87.56554412841797 160.30072021484375 C87.79537963867188 158.936767578125 88.31448364257812 157.21871948242188 89.01280975341797 155.4189453125 C89.71113586425781 153.61917114257812 90.58868408203125 151.73765563964844 91.53541564941406 150.04676818847656 C92.48214721679688 148.3558807373047 93.498046875 146.85562133789062 94.47309875488281 145.818359375 C95.44813537597656 144.7810821533203 96.38232421875 144.20681762695312 97.16559600830078 144.36788940429688"></path>
<path fill="#E7EFF7" fill-opacity="1.0"  filling="0" d="M136.95785522460938 155.36627197265625 C135.190673828125 156.53005981445312 134.63656616210938 157.9720001220703 134.85183715820312 159.4447021484375 C135.06712341308594 160.9174041748047 136.05178833007812 162.42086791992188 137.3621826171875 163.7077178955078 C138.67257690429688 164.99456787109375 140.3087158203125 166.06480407714844 141.826904296875 166.6710662841797 C143.3450927734375 167.27731323242188 144.745361328125 167.41958618164062 145.58401489257812 166.85049438476562 C146.42266845703125 166.28106689453125 146.70654296875 165.01268005371094 146.55970764160156 163.4968719482422 C146.41285705566406 161.98106384277344 145.8352813720703 160.2178497314453 144.95103454589844 158.6587677001953 C144.0667724609375 157.0996856689453 142.8758544921875 155.74473571777344 141.50230407714844 155.04547119140625 C140.12875366210938 154.34620666503906 138.57260131835938 154.30262756347656 136.95785522460938 155.36627197265625"></path></svg>