<svg xmlns="http://www.w3.org/2000/svg" viewBox="0.0 0.0 256.0 256.0" height="256.0px" width="256.0px"><path fill="#C3996C" fill-opacity="1.0"  filling="0" d="M132.6430206298828 117.44923400878906 L132.97401428222656 122.28675079345703 L133.30502319335938 127.124267578125 L133.63601684570312 131.96177673339844 L133.96702575683594 136.79928588867188 L134.2980194091797 141.63681030273438 L134.6290283203125 146.4743194580078 L134.96002197265625 151.31182861328125 L135.29103088378906 156.14935302734375 L135.6220245361328 160.9868621826172 L135.95303344726562 165.82437133789062 L136.28402709960938 170.66189575195312 L136.61502075195312 175.49940490722656 L136.94602966308594 180.3369140625 L137.2770233154297 185.1744384765625 L137.6080322265625 190.01194763183594 L137.93902587890625 194.84945678710938 L138.27001953125 199.6869659423828 L138.6010284423828 204.52447509765625 L138.93202209472656 209.3619842529297 L139.2630157470703 214.1995086669922 L139.59402465820312 219.03701782226562 C139.7280731201172 220.9988250732422 139.3235626220703 222.51846313476562 138.5067138671875 223.6876678466797 C137.68988037109375 224.85687255859375 136.46067810058594 225.67564392089844 134.94534301757812 226.2357177734375 C133.42999267578125 226.79579162597656 131.62850952148438 227.09716796875 129.6670684814453 227.2315673828125 C128.19570922851562 227.33238220214844 126.7735595703125 227.3296356201172 125.4616928100586 227.17684936523438 C124.14982604980469 227.02406311035156 122.9482421875 226.7212371826172 121.91800689697266 226.22189331054688 C120.88777160644531 225.7225341796875 120.02889251708984 225.02667236328125 119.40243530273438 224.08779907226562 C118.7759780883789 223.14892578125 118.38195037841797 221.96705627441406 118.28141784667969 220.49569702148438 C118.2498779296875 220.02374267578125 118.25325775146484 219.49658203125 118.28141784667969 219.03701782226562 L118.61241912841797 214.1995086669922 L118.94342041015625 209.3619842529297 L119.27442169189453 204.52447509765625 L119.60542297363281 199.6869659423828 L119.9364242553711 194.84945678710938 L120.26742553710938 190.01194763183594 L120.59842681884766 185.1744384765625 L120.92942810058594 180.3369140625 L121.26042938232422 175.49940490722656 L121.5914306640625 170.66189575195312 L121.92243194580078 165.82437133789062 L122.25343322753906 160.9868621826172 L122.58442687988281 156.14935302734375 L122.91543579101562 151.31182861328125 L123.2464370727539 146.4743194580078 L123.57743835449219 141.63681030273438 L123.90843200683594 136.79928588867188 L124.23943328857422 131.96177673339844 L124.57044219970703 127.124267578125 L124.90143585205078 122.28675079345703 L125.23243713378906 117.44923400878906 C125.30227661132812 116.42591094970703 125.78043365478516 115.52789306640625 126.49696350097656 114.90316009521484 C127.21349334716797 114.27842712402344 128.16839599609375 113.92698669433594 129.1917266845703 113.996826171875 C130.12889099121094 114.06103515625 130.9607391357422 114.46794891357422 131.5737762451172 115.08690643310547 C132.18682861328125 115.70585632324219 132.5810546875 116.53685760498047 132.6430206298828 117.44923400878906"></path>
<path fill="#C3996C" fill-opacity="1.0"  filling="0" d="M139.61094665527344 219.03701782226562 L139.2799530029297 214.1995086669922 L138.94894409179688 209.3619842529297 L138.61795043945312 204.52447509765625 L138.2869415283203 199.6869659423828 L137.9559326171875 194.84945678710938 L137.62493896484375 190.01194763183594 L137.2939453125 185.1744384765625 L136.9629364013672 180.3369140625 L136.63192749023438 175.49940490722656 L136.30093383789062 170.66189575195312 L135.96994018554688 165.82437133789062 L135.63893127441406 160.9868621826172 L135.30792236328125 156.14935302734375 L134.9769287109375 151.31182861328125 L134.6459197998047 146.4743194580078 L134.31492614746094 141.63681030273438 L133.98391723632812 136.79928588867188 L133.65292358398438 131.96177673339844 L133.32191467285156 127.124267578125 L132.9909210205078 122.28675079345703 L132.659912109375 117.44923400878906 C132.59852600097656 116.53742218017578 132.20428466796875 115.7064208984375 131.59109497070312 115.08732604980469 C130.9779052734375 114.46823120117188 130.14578247070312 114.06103515625 129.2086181640625 113.996826171875 C128.5699462890625 113.952880859375 127.9662094116211 114.08917236328125 127.42215728759766 114.33699035644531 C128.77157592773438 114.9024658203125 129.70199584960938 116.23947143554688 129.73239135742188 117.77139282226562 L129.8383331298828 122.76182556152344 L129.9442596435547 127.75225830078125 L130.05020141601562 132.74270629882812 L130.15614318847656 137.73312377929688 L130.26206970214844 142.72357177734375 L130.36801147460938 147.71401977539062 L130.4739532470703 152.70443725585938 L130.5798797607422 157.69488525390625 L130.68582153320312 162.685302734375 L130.791748046875 167.67575073242188 L130.89768981933594 172.6661834716797 L131.00363159179688 177.6566162109375 L131.10955810546875 182.6470489501953 L131.2154998779297 187.63748168945312 L131.32144165039062 192.6279296875 L131.4273681640625 197.61834716796875 L131.53330993652344 202.60879516601562 L131.6392364501953 207.59921264648438 L131.74517822265625 212.58966064453125 L131.85110473632812 217.580078125 L131.95704650878906 222.57052612304688 C131.99758911132812 224.50006103515625 131.56504821777344 225.99139404296875 130.7709503173828 227.13694763183594 C132.54916381835938 226.94921875 134.16604614257812 226.5996551513672 135.51760864257812 226.01268005371094 C136.86917114257812 225.42568969726562 137.95538330078125 224.60128784179688 138.67227172851562 223.46388244628906 C139.38916015625 222.32647705078125 139.73672485351562 220.87603759765625 139.61094665527344 219.03701782226562"></path>
<path fill="#A87C50" fill-opacity="1.0"  filling="0" d="M133.41233825683594 128.7019805908203 C130.61550903320312 129.17282104492188 128.74229431152344 129.31700134277344 128.74229431152344 129.31700134277344 C128.48773193359375 129.33724975585938 128.27371215820312 129.54002380371094 128.25119018554688 129.80247497558594 C128.22528076171875 130.09646606445312 128.4426727294922 130.35440063476562 128.73667907714844 130.3803253173828 C128.73667907714844 130.3803253173828 130.65380859375 130.55491638183594 133.53964233398438 130.55941772460938 L133.41233825683594 128.7019805908203"></path>
<path fill="#A87C50" fill-opacity="1.0"  filling="0" d="M134.83612060546875 149.5133514404297 L134.69418334960938 147.436279296875 C134.3157196044922 147.5083465576172 133.9485321044922 147.5770721435547 133.595947265625 147.6423797607422 C130.69435119628906 148.13912963867188 128.74342346191406 148.28782653808594 128.74342346191406 148.28782653808594 C128.48886108398438 148.30809020996094 128.27484130859375 148.51084899902344 128.2523193359375 148.77330017089844 C128.22640991210938 149.06729125976562 128.4438018798828 149.3263702392578 128.73779296875 149.3511505126953 C128.73779296875 149.3511505126953 129.24044799804688 149.39761352539062 130.11961364746094 149.443359375 C130.99876403808594 149.48912048339844 132.25442504882812 149.5341796875 133.76040649414062 149.53135681152344 C134.10397338867188 149.52685546875 134.46554565429688 149.5200958251953 134.83612060546875 149.5133514404297"></path>
<path fill="#A87C50" fill-opacity="1.0"  filling="0" d="M138.48341369628906 211.33694458007812 C136.72059631347656 211.79763793945312 135.0399932861328 212.1164093017578 133.595947265625 212.38223266601562 C130.69435119628906 212.87899780273438 128.74342346191406 213.02764892578125 128.74342346191406 213.02764892578125 C128.48886108398438 213.04794311523438 128.27484130859375 213.25070190429688 128.2523193359375 213.5131378173828 C128.22640991210938 213.80712890625 128.4438018798828 214.06622314453125 128.73779296875 214.09097290039062 C128.73779296875 214.09097290039062 129.24044799804688 214.137451171875 130.11961364746094 214.18321228027344 C130.99876403808594 214.22897338867188 132.25442504882812 214.27403259277344 133.76040649414062 214.27120971679688 C134.51397705078125 214.26051330566406 135.33230590820312 214.24671936035156 136.19891357421875 214.2148895263672 C137.06553649902344 214.18307495117188 137.98045349121094 214.1332244873047 138.92718505859375 214.05043029785156 C139.03421020507812 214.04368591308594 139.1446075439453 214.03018188476562 139.25161743164062 214.02227783203125 L139.057861328125 211.18600463867188 C138.86524963378906 211.2366943359375 138.67263793945312 211.2918701171875 138.48341369628906 211.33694458007812"></path>
<path fill="#A87C50" fill-opacity="1.0"  filling="0" d="M132.88970947265625 183.3380126953125 C132.88970947265625 183.3380126953125 130.9387664794922 183.1893310546875 128.03604125976562 182.6925811767578 C126.59086608886719 182.42562866210938 124.91140747070312 182.10797119140625 123.1485824584961 181.6461639404297 C122.40292358398438 181.46929931640625 121.64485168457031 181.25079345703125 120.88114166259766 181.02325439453125 L120.66600799560547 184.16366577148438 C121.35649871826172 184.24365234375 122.04022216796875 184.3168487548828 122.70478820800781 184.36077880859375 C123.65097045898438 184.44357299804688 124.56588745117188 184.493408203125 125.43265533447266 184.52523803710938 C126.29942321777344 184.5570526123047 127.11803436279297 184.57086181640625 127.87159729003906 184.58155822753906 C129.37759399414062 184.58380126953125 130.63323974609375 184.53875732421875 131.51239013671875 184.49313354492188 C132.39154052734375 184.447509765625 132.89419555664062 184.40133666992188 132.89419555664062 184.40133666992188 C133.18820190429688 184.37542724609375 133.4044647216797 184.11636352539062 133.3796844482422 183.82350158691406 C133.35716247558594 183.56105041503906 133.14427185058594 183.35940551757812 132.88970947265625 183.3380126953125"></path>
<path fill="#009344" fill-opacity="1.0"  filling="0" d="M98.63362121582031 82.30105590820312 C97.34989929199219 82.55524444580078 96.07844543457031 83.05862426757812 94.87390899658203 83.70154571533203 C93.66937255859375 84.34446716308594 92.53174591064453 85.12693786621094 91.51569366455078 85.93932342529297 C90.4996337890625 86.751708984375 89.60514831542969 87.593994140625 88.88688659667969 88.3565673828125 C87.32090759277344 87.92403411865234 85.76428985595703 87.55049133300781 84.22691345214844 87.23040771484375 C82.68953704833984 86.91031646728516 81.17139434814453 86.6436767578125 79.68236541748047 86.4249496459961 C78.19332885742188 86.20621490478516 76.73341369628906 86.03538513183594 75.3124771118164 85.90692901611328 C73.89154052734375 85.7784652709961 72.50958251953125 85.69236755371094 71.1764907836914 85.64308166503906 C71.5087890625 84.83939361572266 71.85205841064453 84.03683471679688 72.20645141601562 83.2358169555664 C72.56083679199219 82.43480682373047 72.92635345458984 81.63534545898438 73.30313110351562 80.83786010742188 C72.22065734863281 81.32389831542969 71.1812744140625 82.0670394897461 70.24044799804688 82.91071319580078 C69.29962921142578 83.75439453125 68.45736694335938 84.69860076904297 67.76913452148438 85.58677673339844 C65.3845443725586 85.606201171875 63.213199615478516 85.72039031982422 61.29793167114258 85.87979125976562 C59.38266372680664 86.03919219970703 57.723480224609375 86.24381256103516 56.36320877075195 86.44409942626953 C55.0029411315918 86.64439392089844 53.94158935546875 86.84034729003906 53.22199630737305 86.98243713378906 C52.502403259277344 87.12451934814453 52.12456512451172 87.21273040771484 52.131324768066406 87.19752502441406 C52.40625 86.76429748535156 52.80118942260742 86.25457763671875 53.31051254272461 85.68984985351562 C53.81983184814453 85.12512969970703 54.44353485107422 84.50540924072266 55.17599105834961 83.8521728515625 C55.908447265625 83.19893646240234 56.749656677246094 82.5121841430664 57.69398880004883 81.81340789794922 C58.63832092285156 81.11463165283203 59.68577575683594 80.40382385253906 60.830726623535156 79.70248413085938 C61.975677490234375 79.00113677978516 63.21812057495117 78.30925750732422 64.55242919921875 77.64832305908203 C65.88673400878906 76.98738861083984 67.31291198730469 76.3573989868164 68.8253173828125 75.77984619140625 C70.33772277832031 75.2022933959961 71.93637084960938 74.67716979980469 73.61561584472656 74.2259750366211 C75.29486846923828 73.7747802734375 77.05471801757812 73.39749908447266 78.8895492553711 73.11563110351562 C80.72438049316406 72.8337631225586 82.63418579101562 72.64730834960938 84.61334228515625 72.57774353027344 C86.59249877929688 72.5081787109375 88.6409912109375 72.5555191040039 90.75321197509766 72.74124145507812 C92.86542510986328 72.92695617675781 95.0413589477539 73.25106048583984 97.27538299560547 73.73503875732422 C99.5093994140625 74.21900939941406 101.801513671875 74.86285400390625 104.14608001708984 75.68806457519531 C106.49064636230469 76.51325988769531 108.88768005371094 77.51982116699219 111.33152770996094 78.72923278808594 C114.2492446899414 80.50556945800781 116.74727630615234 82.33899688720703 118.88134002685547 84.1994857788086 C121.0154037475586 86.05997467041016 122.78550720214844 87.947509765625 124.24737548828125 89.83206176757812 C125.70924377441406 91.71661376953125 126.86286163330078 93.59818267822266 127.76397705078125 95.44671630859375 C128.6650848388672 97.29525756835938 129.3136749267578 99.11076354980469 129.76547241210938 100.86319732666016 C130.21726989746094 102.61563110351562 130.47227478027344 104.30500030517578 130.58621215820312 105.90125274658203 C130.7001495361328 107.49750518798828 130.6730194091797 109.00064086914062 130.56053161621094 110.38062286376953 C130.44805908203125 111.76060485839844 130.25022888183594 113.01742553710938 130.02276611328125 114.12105560302734 C129.79531860351562 115.22467803955078 129.53823852539062 116.17510986328125 129.30726623535156 116.94229125976562 C129.0762939453125 117.70948028564453 128.8714141845703 118.29342651367188 128.74835205078125 118.66409301757812 C128.6252899169922 119.03475189208984 128.58404541015625 119.19213104248047 128.68035888671875 119.10618591308594 C128.07847595214844 117.89680480957031 127.42015838623047 116.70451354980469 126.70936584472656 115.5330581665039 C125.99857330322266 114.36161041259766 125.23531341552734 113.21099853515625 124.42355346679688 112.08499908447266 C123.6117935180664 110.95899200439453 122.75153350830078 109.85758972167969 121.84675598144531 108.78455352783203 C120.94197845458984 107.71151733398438 119.99266815185547 106.66683959960938 119.00281524658203 105.65428924560547 C118.0129623413086 104.64173889160156 116.98255920410156 103.66130828857422 115.91557312011719 102.71675872802734 C114.84858703613281 101.772216796875 113.74502563476562 100.86355590820312 112.6088638305664 99.99453735351562 C113.2283935546875 99.31982421875 113.86058044433594 98.65159606933594 114.50516510009766 97.9902572631836 C115.14974975585938 97.32891845703125 115.80671691894531 96.67447662353516 116.47579956054688 96.02734375 C115.42036437988281 96.04312896728516 114.29846954345703 96.32896423339844 113.22444915771484 96.74925231933594 C112.15042877197266 97.16954040527344 111.12428283691406 97.72429656982422 110.26033782958984 98.27792358398438 C108.9711685180664 97.37764739990234 107.6487045288086 96.52629852294922 106.30078887939453 95.72444152832031 C104.95287322998047 94.9225845336914 103.57950592041016 94.17021942138672 102.18854522705078 93.46791076660156 C100.79757690429688 92.76559448242188 99.3890151977539 92.11334228515625 97.970703125 91.51170349121094 C96.55238342285156 90.91006469726562 95.12432861328125 90.35904693603516 93.69436645507812 89.85920715332031 C94.45299530029297 88.5796127319336 95.24400329589844 87.30931091308594 96.0672607421875 86.04928588867188 C96.89051818847656 84.78926086425781 97.74601745605469 83.53952026367188 98.63362121582031 82.30105590820312"></path>
<path fill="#39B44A" fill-opacity="1.0"  filling="0" d="M111.33152770996094 78.73036193847656 C114.2492446899414 80.50669860839844 116.74727630615234 82.34012603759766 118.88134002685547 84.20061492919922 C121.0154037475586 86.06110382080078 122.78550720214844 87.94863891601562 124.24737548828125 89.83319091796875 C125.70924377441406 91.71774291992188 126.86286163330078 93.59931182861328 127.76397705078125 95.44784545898438 C128.6650848388672 97.29637908935547 129.3136749267578 99.11188507080078 129.76547241210938 100.86431884765625 C130.21726989746094 102.61675262451172 130.47227478027344 104.30611419677734 130.58621215820312 105.9023666381836 C130.7001495361328 107.49861907958984 130.6730194091797 109.00175476074219 130.56053161621094 110.38172912597656 C130.44805908203125 111.76171112060547 130.25022888183594 113.0185317993164 130.02276611328125 114.12215423583984 C129.79531860351562 115.22578430175781 129.53823852539062 116.17620849609375 129.30726623535156 116.94339752197266 C129.0762939453125 117.71058654785156 128.8714141845703 118.2945327758789 128.74835205078125 118.66519927978516 C128.6252899169922 119.03585815429688 128.58404541015625 119.1932373046875 128.68035888671875 119.1072998046875 C128.93812561035156 117.34942626953125 129.0435333251953 115.63516998291016 129.00938415527344 113.96757507324219 C128.97523498535156 112.29998016357422 128.80154418945312 110.67903900146484 128.50111389160156 109.1077880859375 C128.20068359375 107.53653717041016 127.77354431152344 106.01498413085938 127.23249053955078 104.54615020751953 C126.69143676757812 103.07731628417969 126.0364761352539 101.66120910644531 125.28044128417969 100.30086517333984 C124.52439880371094 98.94052124023438 123.66728210449219 97.63593292236328 122.7219009399414 96.39013671875 C121.77651977539062 95.14434051513672 120.74287414550781 93.95734405517578 119.63379669189453 92.83216857910156 C118.52471923828125 91.70699310302734 117.34020233154297 90.6436538696289 116.09306335449219 89.64517211914062 C114.84593200683594 88.64669036865234 113.53617858886719 87.71307373046875 112.17664337158203 86.84734344482422 C110.81710052490234 85.98162078857422 109.40776062011719 85.18379211425781 107.96145629882812 84.45689392089844 C106.51515197753906 83.72999572753906 105.03186798095703 83.07403564453125 103.5244369506836 82.49202728271484 C102.01700592041016 81.91002655029297 100.48542785644531 81.40199279785156 98.94252014160156 80.97095489501953 C97.39961242675781 80.5399169921875 95.84537506103516 80.18588256835938 94.29263305664062 79.91187286376953 C92.73989868164062 79.63787078857422 91.18864440917969 79.44389343261719 89.65171813964844 79.33299255371094 C87.09422302246094 78.98394775390625 84.57455444335938 78.85424041748047 82.1251220703125 78.8933334350586 C79.67568969726562 78.93242645263672 77.29649353027344 79.14033508300781 75.01995086669922 79.46652221679688 C72.743408203125 79.79270935058594 70.56951904296875 80.23719024658203 68.53069305419922 80.74942779541016 C66.49186706542969 81.26166534423828 64.5881118774414 81.84165954589844 62.851837158203125 82.43890380859375 C61.115562438964844 83.03614044189453 59.54676818847656 83.65061950683594 58.1778678894043 84.2318115234375 C56.8089714050293 84.81300354003906 55.63996887207031 85.36091613769531 54.703277587890625 85.82501220703125 C53.76658630371094 86.28911590576172 53.06221008300781 86.6694107055664 52.622554779052734 86.9153823852539 C52.18290328979492 87.16134643554688 52.007972717285156 87.27297973632812 52.13018798828125 87.19976806640625 C52.40511703491211 86.76644897460938 52.80005645751953 86.25665283203125 53.30937957763672 85.69185638427734 C53.818702697753906 85.12705993652344 54.44240951538086 84.50727081298828 55.174869537353516 83.85397338867188 C55.90732955932617 83.20067596435547 56.74854278564453 82.51387023925781 57.69287872314453 81.8150405883789 C58.6372184753418 81.1162109375 59.6846809387207 80.40536499023438 60.82963943481445 79.7039794921875 C61.9745979309082 79.00259399414062 63.2170524597168 78.31067657470703 64.55137634277344 77.64970397949219 C65.88569641113281 76.98873901367188 67.31188201904297 76.35871887207031 68.82431030273438 75.78113555908203 C70.33673858642578 75.20355987548828 71.9354019165039 74.67841339111328 73.61466979980469 74.22720336914062 C75.2939453125 73.77598571777344 77.05382537841797 73.39869689941406 78.88868713378906 73.11681365966797 C80.72354888916016 72.8349380493164 82.63339233398438 72.64846801757812 84.61258697509766 72.57890319824219 C86.59178161621094 72.50933837890625 88.64032745361328 72.5566635131836 90.75259399414062 72.74237823486328 C92.86486053466797 72.92809295654297 95.04084777832031 73.252197265625 97.27493286132812 73.73616790771484 C99.50901794433594 74.22013854980469 101.80119323730469 74.86398315429688 104.14583587646484 75.68919372558594 C106.490478515625 76.51438903808594 108.88758850097656 77.52095031738281 111.33152770996094 78.73036193847656"></path>
<path fill="#009344" fill-opacity="1.0"  filling="0" d="M101.06326293945312 109.46531677246094 C100.35137176513672 110.17945861816406 99.81184387207031 111.19096374511719 99.41195678710938 112.27682495117188 C98.18756103515625 112.28864288330078 96.97415161132812 112.33341979980469 95.7745361328125 112.40859985351562 C94.5749282836914 112.48379516601562 93.38911437988281 112.58939361572266 92.21990966796875 112.72286987304688 C91.9963150024414 111.56887817382812 91.76934814453125 110.4151611328125 91.53927612304688 109.2618637084961 C91.3092041015625 108.10856628417969 91.07604217529297 106.95569610595703 90.84005737304688 105.80339050292969 C90.33486938476562 106.70620727539062 90.0127182006836 107.88723754882812 89.8160171508789 109.1617660522461 C89.61932373046875 110.43628692626953 89.54808044433594 111.8042984008789 89.5447006225586 113.08106994628906 C88.14495849609375 113.29508209228516 86.77388000488281 113.54814147949219 85.43476104736328 113.83486938476562 C84.09564208984375 114.12159729003906 82.78846740722656 114.44200134277344 81.51655578613281 114.79068756103516 C80.24464416503906 115.13937377929688 79.00798034667969 115.51634216308594 77.80987548828125 115.91621398925781 C77.51700592041016 115.02916717529297 77.22301483154297 114.14268493652344 76.92803955078125 113.2564926147461 C76.633056640625 112.37030029296875 76.33709716796875 111.48439025878906 76.04029846191406 110.59848022460938 C75.53397369384766 111.44327545166016 75.2591323852539 112.51054382324219 75.12945556640625 113.6189193725586 C74.9997787475586 114.727294921875 75.01527404785156 115.87678527832031 75.08960723876953 116.88603210449219 C73.79011535644531 117.37902069091797 72.54331970214844 117.89566802978516 71.35121154785156 118.42716217041016 C70.15910339355469 118.95865631103516 69.02169799804688 119.5050048828125 67.94097900390625 120.05740356445312 C66.86026000976562 120.60979461669922 65.83624267578125 121.16824340820312 64.87091064453125 121.72393798828125 C64.48905944824219 120.97826385498047 64.10664367675781 120.23286437988281 63.723384857177734 119.48774719238281 C63.340126037597656 118.74263000488281 62.956024169921875 117.99779510498047 62.57079315185547 117.25323486328125 C62.23230743408203 118.09410095214844 62.11798095703125 119.09294128417969 62.138397216796875 120.11837768554688 C62.158817291259766 121.14382934570312 62.31398391723633 122.19587707519531 62.514488220214844 123.14317321777344 C60.36643981933594 124.50800323486328 58.575836181640625 125.79173278808594 57.142303466796875 126.89530944824219 C55.708770751953125 127.99889373779297 54.63230514526367 128.92233276367188 53.91253662109375 129.56658935546875 C53.19276428222656 130.21084594726562 52.829689025878906 130.575927734375 52.82293701171875 130.5627899169922 C52.71285629272461 130.114990234375 52.61851119995117 129.522216796875 52.5626106262207 128.80923461914062 C52.506710052490234 128.09625244140625 52.4892578125 127.2630386352539 52.53296661376953 126.33438110351562 C52.57667541503906 125.40572357177734 52.681549072265625 124.38162231445312 52.870296478271484 123.28682708740234 C53.059043884277344 122.19203186035156 53.33167266845703 121.02655792236328 53.71089172363281 119.8151626586914 C54.090110778808594 118.60376739501953 54.575923919677734 117.34644317626953 55.1910400390625 116.0679702758789 C55.80615997314453 114.78949737548828 56.55058670043945 113.48986053466797 57.44703674316406 112.19384002685547 C58.34348678588867 110.89781951904297 59.3919563293457 109.60540008544922 60.61516571044922 108.34136199951172 C61.838375091552734 107.07731628417969 63.23632049560547 105.8416519165039 64.83171844482422 104.65911865234375 C66.42711639404297 103.4765853881836 68.219970703125 102.34719848632812 70.23299407958984 101.29570770263672 C72.24601745605469 100.24421691894531 74.47920227050781 99.2706298828125 76.95527648925781 98.39971160888672 C79.43135070800781 97.52879333496094 82.15029907226562 96.76054382324219 85.13485717773438 96.11972045898438 C88.23419952392578 95.72537994384766 91.1338119506836 95.59646606445312 93.84367370605469 95.68717193603516 C96.55353546142578 95.77787780761719 99.07364654541016 96.08819580078125 101.41397857666016 96.57231140136719 C103.75431060791016 97.05642700195312 105.91486358642578 97.71434783935547 107.90560913085938 98.50025177001953 C109.8963623046875 99.2861557006836 111.7173080444336 100.20004272460938 113.37842559814453 101.19609832763672 C115.03954315185547 102.19215393066406 116.54083251953125 103.2703857421875 117.89226531982422 104.38496398925781 C119.24369812011719 105.49954986572266 120.44527435302734 106.65048217773438 121.50697326660156 107.79195404052734 C122.56867218017578 108.93343353271484 123.49048614501953 110.06544494628906 124.28239440917969 111.14218139648438 C125.07430267333984 112.21891784667969 125.7363052368164 113.24038696289062 126.27837371826172 114.16075897216797 C126.82044219970703 115.08113098144531 127.2425765991211 115.9004135131836 127.55475616455078 116.57278442382812 C127.86692810058594 117.24516296386719 128.06915283203125 117.7706298828125 128.17138671875 118.1033706665039 C128.27362060546875 118.43611907958984 128.27587890625 118.57614135742188 128.1881103515625 118.47763061523438 C126.75907897949219 117.79597473144531 125.30561828613281 117.17311096191406 123.83426666259766 116.6077651977539 C122.36290740966797 116.04242706298828 120.87366485595703 115.53460693359375 119.3730697631836 115.08304595947266 C117.87247467041016 114.63148498535156 116.36053466796875 114.2361831665039 114.84378814697266 113.8958740234375 C113.32704162597656 113.55555725097656 111.80549621582031 113.27023315429688 110.28568267822266 113.03863525390625 C108.76587677001953 112.80703735351562 107.24781799316406 112.62915802001953 105.738037109375 112.50373840332031 C104.22826385498047 112.37831115722656 102.72677612304688 112.30534362792969 101.2401123046875 112.2835693359375 C101.18153381347656 111.34414672851562 101.12297058105469 110.40473937988281 101.06326293945312 109.46531677246094"></path>
<path fill="#39B44A" fill-opacity="1.0"  filling="0" d="M85.13371276855469 96.11860656738281 C88.2330551147461 95.7242660522461 91.1326675415039 95.59535217285156 93.842529296875 95.68605041503906 C96.5523910522461 95.7767562866211 99.07250213623047 96.08707427978516 101.41283416748047 96.5711898803711 C103.75316619873047 97.05530548095703 105.9137191772461 97.71322631835938 107.90447235107422 98.4991226196289 C109.89522552490234 99.28502655029297 111.71617126464844 100.19891357421875 113.37728881835938 101.1949691772461 C115.03840637207031 102.19102478027344 116.5396957397461 103.26924896240234 117.89112091064453 104.38382720947266 C119.2425537109375 105.49840545654297 120.44412994384766 106.64934539794922 121.50582885742188 107.79081726074219 C122.5675277709961 108.93228912353516 123.48934173583984 110.0643081665039 124.28125 111.14104461669922 C125.07315826416016 112.21778106689453 125.73516082763672 113.23924255371094 126.27723693847656 114.15961456298828 C126.81930541992188 115.07998657226562 127.24144744873047 115.8992691040039 127.55361938476562 116.57164764404297 C127.86579895019531 117.2440185546875 128.06802368164062 117.76949310302734 128.17025756835938 118.10224151611328 C128.27249145507812 118.43499755859375 128.27474975585938 118.57502746582031 128.18698120117188 118.47651672363281 C128.10137939453125 118.62689208984375 127.90638732910156 118.4112777709961 127.56431579589844 117.92804718017578 C127.22224426269531 117.44480895996094 126.73309326171875 116.6939468383789 126.05917358398438 115.7738265991211 C125.38525390625 114.85369873046875 124.52655792236328 113.76431274414062 123.44540405273438 112.6040267944336 C122.36424255371094 111.44374084472656 121.06062316894531 110.21255493164062 119.4968490600586 109.00882720947266 C117.93307495117188 107.80509948730469 116.10913848876953 106.62883758544922 113.98735046386719 105.57839965820312 C111.86557006835938 104.5279541015625 109.44593811035156 103.60334014892578 106.69076538085938 102.90290832519531 C105.6156997680664 102.58904266357422 104.47899627685547 102.31636047363281 103.29070281982422 102.09091186523438 C102.10240173339844 101.86546325683594 100.86250305175781 101.68724822998047 99.58103942871094 101.56233215332031 C98.29957580566406 101.43741607666016 96.97653198242188 101.36579895019531 95.62196350097656 101.3535385131836 C94.26738739013672 101.34127807617188 92.88127136230469 101.38837432861328 91.47364807128906 101.50088500976562 C90.06602478027344 101.61339569091797 88.63689422607422 101.79132843017578 87.1962890625 102.04074096679688 C85.75567626953125 102.29014587402344 84.3035888671875 102.61103820800781 82.85005950927734 103.00946044921875 C81.39652252197266 103.40788269042969 79.94154357910156 103.88385009765625 78.4951400756836 104.44340515136719 C77.04874420166016 105.00296783447266 75.61092376708984 105.6461181640625 74.19172668457031 106.37893676757812 C72.77252197265625 107.11175537109375 71.37193298339844 107.9342269897461 69.99999237060547 108.8524169921875 C68.6280517578125 109.7706069946289 67.28474426269531 110.7845230102539 65.98011779785156 111.90020751953125 C64.67549133300781 113.01589965820312 63.409542083740234 114.23336029052734 62.19229507446289 115.55867004394531 C60.97504806518555 116.88397216796875 59.8065071105957 118.3171157836914 58.69670104980469 119.86415100097656 C57.58689880371094 121.41119384765625 56.53582763671875 123.07213592529297 55.55352020263672 124.85303497314453 C54.57121658325195 126.63392639160156 53.657676696777344 128.5347900390625 52.82293701171875 130.56166076660156 C52.71275329589844 130.11376953125 52.61831283569336 129.52088928222656 52.56232833862305 128.8078155517578 C52.506343841552734 128.09474182128906 52.48881530761719 127.26145935058594 52.53245544433594 126.3327407836914 C52.57609558105469 125.40402221679688 52.680908203125 124.3798599243164 52.86960220336914 123.28501892089844 C53.05829620361328 122.190185546875 53.330875396728516 121.02466583251953 53.710052490234375 119.81324005126953 C54.089229583740234 118.60181427001953 54.575008392333984 117.344482421875 55.19009780883789 116.06599426269531 C55.8051872253418 114.78751373291016 56.54958724975586 113.48788452148438 57.446014404296875 112.1918716430664 C58.34244155883789 110.89585876464844 59.390899658203125 109.60346221923828 60.61409378051758 108.3394546508789 C61.8372917175293 107.075439453125 63.2352294921875 105.83981323242188 64.83061981201172 104.6573257446289 C66.42601013183594 103.47484588623047 68.21885681152344 102.34550476074219 70.23188018798828 101.29408264160156 C72.2448959350586 100.24266052246094 74.47808074951172 99.26914978027344 76.95414733886719 98.3983154296875 C79.43021392822266 97.52748107910156 82.149169921875 96.75932312011719 85.13371276855469 96.11860656738281"></path>
<path fill="#009344" fill-opacity="1.0"  filling="0" d="M78.00924682617188 134.87014770507812 C78.31056213378906 136.12271118164062 79.22716522216797 137.33892822265625 80.3469467163086 138.44815063476562 C81.46672058105469 139.557373046875 82.78968048095703 140.55958557128906 83.90370178222656 141.38409423828125 C83.06565856933594 142.37701416015625 82.28111267089844 143.36911010742188 81.54683685302734 144.35513305664062 C80.81256103515625 145.34115600585938 80.12855529785156 146.32113647460938 79.4915771484375 147.2898406982422 C78.60848236083984 146.98233032226562 77.71356201171875 146.68946838378906 76.807373046875 146.4116668701172 C75.90118408203125 146.1338653564453 74.98373413085938 145.87112426757812 74.05557250976562 145.62388610839844 C74.31689453125 146.40673828125 74.913330078125 147.1586151123047 75.63774108886719 147.84825134277344 C76.36216735839844 148.53790283203125 77.21456909179688 149.16529846191406 77.98783874511719 149.69921875 C77.2969741821289 150.86767578125 76.67357635498047 152.01284790039062 76.11071014404297 153.1279754638672 C75.54784393310547 154.24310302734375 75.04551696777344 155.32821655273438 74.59679412841797 156.3765106201172 C74.1480712890625 157.4248046875 73.75296020507812 158.43630981445312 73.40452575683594 159.40426635742188 C71.85233306884766 159.02691650390625 70.26750183105469 158.7002716064453 68.65336608886719 158.42654418945312 C69.00029754638672 159.10406494140625 69.60826873779297 159.72866821289062 70.31958770751953 160.29312133789062 C71.0309066772461 160.85760498046875 71.8455810546875 161.3619384765625 72.60590362548828 161.7989959716797 C71.93794250488281 164.01800537109375 71.49351501464844 165.9385223388672 71.19577026367188 167.5128936767578 C70.89802551269531 169.08726501464844 70.74696350097656 170.31549072265625 70.66574096679688 171.1499481201172 C70.58451843261719 171.98440551757812 70.57313537597656 172.42507934570312 70.55473327636719 172.42431640625 C70.21368408203125 172.08677673339844 69.70447540283203 171.65858459472656 69.0931625366211 171.12799072265625 C68.48184204101562 170.59738159179688 67.76841735839844 169.96437072753906 67.01891326904297 169.2171630859375 C66.2694091796875 168.46995544433594 65.48383331298828 167.60853576660156 64.72823333740234 166.62115478515625 C63.972625732421875 165.63377380371094 63.246986389160156 164.5204315185547 62.61735534667969 163.2693328857422 C61.98772430419922 162.0182342529297 61.4541015625 160.62939453125 61.0825309753418 159.0910186767578 C60.71095657348633 157.55264282226562 60.501434326171875 155.86474609375 60.519996643066406 154.0155487060547 C60.5385627746582 152.16635131835938 60.785213470458984 150.1558380126953 61.32599639892578 147.97225952148438 C61.86677932739258 145.78866577148438 62.701690673828125 143.4320068359375 63.89677429199219 140.89048767089844 C65.09185791015625 138.34896850585938 66.64710998535156 135.62258911132812 68.62857055664062 132.69956970214844 C69.71880340576172 131.25865173339844 70.89537811279297 129.91493225097656 72.14277648925781 128.66407775878906 C73.39018249511719 127.41322326660156 74.70840454101562 126.2552490234375 76.08194732666016 125.18583679199219 C77.45549011230469 124.11641693115234 78.88433837890625 123.13555908203125 80.35298156738281 122.23895263671875 C81.82162475585938 121.34233856201172 83.33007049560547 120.52996826171875 84.86279296875 119.79752349853516 C86.39551544189453 119.06507873535156 87.95250701904297 118.41256713867188 89.51827239990234 117.83566284179688 C91.08403015136719 117.25875854492188 92.65855407714844 116.75747680664062 94.226318359375 116.32748413085938 C95.79408264160156 115.89749145507812 97.3551025390625 115.5387954711914 98.89384460449219 115.24707794189453 C100.43258666992188 114.95536804199219 101.94905853271484 114.73062896728516 103.42774963378906 114.56855773925781 C104.90643310546875 114.406494140625 106.34733581542969 114.30708312988281 107.73493957519531 114.26603698730469 C110.29164123535156 114.1423568725586 112.67559814453125 114.20777893066406 114.85326385498047 114.3891372680664 C117.03092956542969 114.57049560546875 119.00230407714844 114.86779022216797 120.73383331298828 115.20787048339844 C122.46536254882812 115.54794311523438 123.95704650878906 115.93079376220703 125.17534637451172 116.28325653076172 C126.39364624023438 116.6357192993164 127.33854675292969 116.95779418945312 127.97651672363281 117.17633056640625 C128.61447143554688 117.39485931396484 128.94549560546875 117.50984191894531 128.93603515625 117.44810485839844 C127.23468780517578 117.67306518554688 125.56722259521484 117.95140075683594 123.93521118164062 118.27842712402344 C122.3031997680664 118.60545349121094 120.70663452148438 118.98117065429688 119.1470947265625 119.4009017944336 C117.5875473022461 119.82062530517578 116.06502532958984 120.28435516357422 114.5810775756836 120.78739929199219 C113.09712982177734 121.29045104980469 111.65177154541016 121.83281707763672 110.2465591430664 122.4098129272461 C108.84134674072266 122.98680877685547 107.47628021240234 123.59844207763672 106.15293884277344 124.24002075195312 C104.82958984375 124.88159942626953 103.54795837402344 125.5531234741211 102.30960845947266 126.24990844726562 C101.0712661743164 126.94668579101562 99.87620544433594 127.66873168945312 98.72599029541016 128.41134643554688 C97.84514617919922 127.89039611816406 96.94993591308594 127.38211059570312 96.0406494140625 126.88677978515625 C95.13136291503906 126.39144134521484 94.20799255371094 125.9090576171875 93.27082824707031 125.43991088867188 C93.29222106933594 126.23628234863281 93.66422271728516 127.07968139648438 94.19503784179688 127.89857482910156 C94.72586059570312 128.71746826171875 95.41549682617188 129.51187133789062 96.07218933105469 130.21023559570312 C94.9206314086914 131.03025817871094 93.8172607421875 131.8695526123047 92.76136779785156 132.72323608398438 C91.70547485351562 133.57691955566406 90.69705200195312 134.44500732421875 89.73539733886719 135.3225860595703 C88.77374267578125 136.20018005371094 87.85885620117188 137.0872802734375 86.99002075195312 137.97901916503906 C85.55612182617188 137.38653564453125 84.08954620361328 136.82952880859375 82.5921401977539 136.31053161621094 C81.09473419189453 135.79153442382812 79.56649017333984 135.31057739257812 78.00924682617188 134.87014770507812"></path>
<path fill="#39B44A" fill-opacity="1.0"  filling="0" d="M68.62971496582031 132.70071411132812 C69.7199478149414 131.25979614257812 70.89651489257812 129.91607666015625 72.1439208984375 128.66522216796875 C73.39131927490234 127.41436767578125 74.70954895019531 126.25639343261719 76.08308410644531 125.18697357177734 C77.45661926269531 124.1175537109375 78.8854751586914 123.1366958618164 80.35411834716797 122.24008178710938 C81.82276153564453 121.34346771240234 83.3311996459961 120.53109741210938 84.8639144897461 119.79865264892578 C86.3966293334961 119.06620788574219 87.95362854003906 118.41368865966797 89.5193862915039 117.8367919921875 C91.08514404296875 117.2598876953125 92.65966796875 116.75859832763672 94.22743225097656 116.32860565185547 C95.79519653320312 115.89861297607422 97.35621643066406 115.5399169921875 98.89495849609375 115.24819946289062 C100.43370056152344 114.95648193359375 101.9501724243164 114.73175048828125 103.42886352539062 114.56968688964844 C104.90754699707031 114.4076156616211 106.34844970703125 114.30821228027344 107.73605346679688 114.26716613769531 C110.29275512695312 114.14348602294922 112.67671203613281 114.20890808105469 114.85437774658203 114.39026641845703 C117.03204345703125 114.57162475585938 119.00341796875 114.86892700195312 120.73494720458984 115.20899963378906 C122.46647644042969 115.549072265625 123.95816040039062 115.93192291259766 125.17646026611328 116.28438568115234 C126.39476013183594 116.6368408203125 127.33966064453125 116.95892333984375 127.97763061523438 117.17744445800781 C128.6156005859375 117.39598083496094 128.94662475585938 117.51095581054688 128.93716430664062 117.44923400878906 C126.18311309814453 117.17769622802734 123.54315948486328 117.02117919921875 121.01317596435547 116.96963500976562 C118.48319244384766 116.91809844970703 116.06319427490234 116.9715347290039 113.7490463256836 117.11991882324219 C111.43490600585938 117.26830291748047 109.22661590576172 117.51162719726562 107.12007904052734 117.83985900878906 C105.01354217529297 118.1680908203125 103.00874328613281 118.58122253417969 101.10157775878906 119.06922912597656 C99.19441223144531 119.5572280883789 97.38487243652344 120.12010192871094 95.66885375976562 120.74779510498047 C93.95282745361328 121.37549591064453 92.33031463623047 122.0680160522461 90.79720306396484 122.81533813476562 C89.26409149169922 123.56265258789062 87.82037353515625 124.36476135253906 86.4619369506836 125.21162414550781 C85.10350036621094 126.05848693847656 83.8303451538086 126.95010375976562 82.63835144042969 127.87643432617188 C81.44636535644531 128.80276489257812 80.33554077148438 129.76380920410156 79.30176544189453 130.74952697753906 C78.26799011230469 131.73526000976562 77.31126403808594 132.7456512451172 76.42747497558594 133.77069091796875 C75.54368591308594 134.7957305908203 74.73282623291016 135.83541870117188 73.99079132080078 136.87969970703125 C73.24874877929688 137.92398071289062 72.57553100585938 138.97286987304688 71.9670181274414 140.01632690429688 C71.3584976196289 141.0597686767578 70.81468200683594 142.0977783203125 70.33145904541016 143.12033081054688 C69.84823608398438 144.1428680419922 69.42559051513672 145.14993286132812 69.05941772460938 146.13148498535156 C68.69325256347656 147.113037109375 68.383544921875 148.069091796875 68.12620544433594 148.9895782470703 C67.29920196533203 152.04550170898438 66.9434814453125 154.78152465820312 66.89495849609375 157.21035766601562 C66.846435546875 159.6392059326172 67.1051025390625 161.7608642578125 67.50686645507812 163.5880584716797 C67.90863037109375 165.41525268554688 68.4534912109375 166.94798278808594 68.97735595703125 168.19895935058594 C69.501220703125 169.44992065429688 70.00409698486328 170.4191436767578 70.3218765258789 171.11932373046875 C70.63965606689453 171.8195037841797 70.7723388671875 172.25064086914062 70.55584716796875 172.4254608154297 C70.21467590332031 172.08778381347656 69.70536041259766 171.65951538085938 69.09394836425781 171.1288299560547 C68.48253631591797 170.59815979003906 67.7690200805664 169.965087890625 67.01945495605469 169.21783447265625 C66.26988220214844 168.47059631347656 65.4842529296875 167.60916137695312 64.72860717773438 166.62179565429688 C63.97296142578125 165.63441467285156 63.24729537963867 164.52108764648438 62.61764907836914 163.27000427246094 C61.988006591796875 162.01893615722656 61.454383850097656 160.63011169433594 61.08282470703125 159.09178161621094 C60.711265563964844 157.55345153808594 60.50177001953125 155.86558532714844 60.52037811279297 154.0164337158203 C60.53898620605469 152.1672821044922 60.78569793701172 150.1568145751953 61.3265495300293 147.9732666015625 C61.86740493774414 145.7897186279297 62.7024040222168 143.43309020996094 63.8975830078125 140.89158630371094 C65.09276580810547 138.35009765625 66.64813232421875 135.62371826171875 68.62971496582031 132.70071411132812"></path>
<path fill="#009344" fill-opacity="1.0"  filling="0" d="M171.48919677734375 126.62265014648438 C171.5364990234375 127.89547729492188 171.03326416015625 129.23504638671875 170.31631469726562 130.50054931640625 C169.599365234375 131.7660675048828 168.66867065429688 132.95751953125 167.86105346679688 133.93411254882812 C169.10121154785156 135.00250244140625 170.26449584960938 136.08665466308594 171.35401916503906 137.17645263671875 C172.4435272216797 138.2662353515625 173.45925903320312 139.36166381835938 174.404296875 140.45257568359375 C175.206298828125 139.9794921875 176.02012634277344 139.51766967773438 176.84521484375 139.06739807128906 C177.67030334472656 138.61712646484375 178.50665283203125 138.1783905029297 179.35369873046875 137.75148010253906 C179.26077270507812 138.63626098632812 178.80091857910156 139.54527282714844 178.20477294921875 140.3936004638672 C177.608642578125 141.24191284179688 176.87619018554688 142.029541015625 176.23809814453125 142.6715850830078 C176.9910888671875 143.62789916992188 177.6916961669922 144.5760498046875 178.3428955078125 145.5098419189453 C178.9940948486328 146.44363403320312 179.59588623046875 147.36306762695312 180.15121459960938 148.26193237304688 C180.97686767578125 147.86656188964844 181.81321716308594 147.48358154296875 182.6599884033203 147.11312866210938 C183.5067596435547 146.74267578125 184.36395263671875 146.384765625 185.23126220703125 146.03952026367188 C185.02682495117188 146.92037963867188 184.50613403320312 147.79164123535156 183.8502960205078 148.60842895507812 C183.19444274902344 149.4252166748047 182.40341186523438 150.1875 181.65830993652344 150.85040283203125 C182.1759033203125 151.7943115234375 182.64222717285156 152.70726013183594 183.0629425048828 153.583740234375 C183.48365783691406 154.46022033691406 183.85874938964844 155.30023193359375 184.19384765625 156.09829711914062 C185.60635375976562 155.55535888671875 187.04591369628906 155.04962158203125 188.5113525390625 154.5821533203125 C188.2550811767578 155.30303955078125 187.7332763671875 155.99803161621094 187.10755920410156 156.63656616210938 C186.48184204101562 157.27508544921875 185.75222778320312 157.85716247558594 185.080322265625 158.3522186279297 C185.87217712402344 160.53799438476562 186.3641357421875 162.27743530273438 186.66107177734375 163.4701385498047 C186.95802307128906 164.66285705566406 187.05996704101562 165.30885314941406 187.07177734375 165.30772399902344 C187.3820343017578 164.9615478515625 187.82325744628906 164.49319458007812 188.33416748046875 163.9025421142578 C188.84507751464844 163.31187438964844 189.4257049560547 162.59889221191406 190.01475524902344 161.76344299316406 C190.60382080078125 160.92799377441406 191.20132446289062 159.97006225585938 191.7460174560547 158.88951110839844 C192.29071044921875 157.8089599609375 192.7825927734375 156.60577392578125 193.160400390625 155.2798309326172 C193.5382080078125 153.95387268066406 193.8019561767578 152.50514221191406 193.890380859375 150.93348693847656 C193.9788055419922 149.36181640625 193.8919219970703 147.66722106933594 193.56845092773438 145.84954833984375 C193.24497985839844 144.03187561035156 192.6849365234375 142.0911102294922 191.82705688476562 140.02711486816406 C190.96917724609375 137.96310424804688 189.81346130371094 135.77587890625 188.2986602783203 133.4652557373047 C186.78387451171875 131.15463256835938 184.90997314453125 128.72061157226562 182.61575317382812 126.16307067871094 C181.3894805908203 124.92865753173828 180.11065673828125 123.79810333251953 178.7914581298828 122.76461029052734 C177.47225952148438 121.73111724853516 176.11270141601562 120.79468536376953 174.72496032714844 119.94853973388672 C173.33721923828125 119.10238647460938 171.92127990722656 118.34651947021484 170.48934936523438 117.67414093017578 C169.0574188232422 117.00176239013672 167.60948181152344 116.41287994384766 166.15773010253906 115.90069580078125 C164.7059783935547 115.38851928710938 163.2504119873047 114.95304107666016 161.80320739746094 114.58749389648438 C160.3560028076172 114.22193908691406 158.91717529296875 113.92630767822266 157.49888610839844 113.69380950927734 C156.08059692382812 113.46131134033203 154.682861328125 113.29194641113281 153.31784057617188 113.1789321899414 C151.95281982421875 113.06591796875 150.62054443359375 113.00924682617188 149.33319091796875 113.00214385986328 C148.0458221435547 112.99504089355469 146.80337524414062 113.03749084472656 145.61801147460938 113.12272644042969 C142.87635803222656 113.28465270996094 140.42376708984375 113.66305541992188 138.28640747070312 114.1357421875 C136.1490478515625 114.60842895507812 134.32691955566406 115.1753921508789 132.84620666503906 115.71444702148438 C131.365478515625 116.25349426269531 130.22616577148438 116.76463317871094 129.4544219970703 117.12566375732422 C128.68267822265625 117.4866943359375 128.27850341796875 117.69761657714844 128.26809692382812 117.63623046875 C130.1083526611328 117.78407287597656 131.91400146484375 118.00106048583984 133.682373046875 118.28076171875 C135.45074462890625 118.56046295166016 137.18182373046875 118.90287780761719 138.87294006347656 119.30157470703125 C140.56405639648438 119.70026397705078 142.21519470214844 120.15523529052734 143.8236846923828 120.66004180908203 C145.4321746826172 121.16484832763672 146.9980010986328 121.71949768066406 148.51849365234375 122.31754302978516 C150.0389862060547 122.91558837890625 151.51414489746094 123.55703735351562 152.9412841796875 124.2354507446289 C154.36842346191406 124.91386413574219 155.74754333496094 125.6292495727539 157.07595825195312 126.37515258789062 C158.4043731689453 127.12106323242188 159.6820831298828 127.89749145507812 160.90640258789062 128.69801330566406 C162.13070678710938 129.49855041503906 163.3016357421875 130.32315063476562 164.41650390625 131.16542053222656 C165.54122924804688 130.36398315429688 166.6935272216797 129.58395385742188 167.87258911132812 128.82644653320312 C169.05165100097656 128.06895446777344 170.25747680664062 127.33397674560547 171.48919677734375 126.62265014648438"></path>
<path fill="#39B44A" fill-opacity="1.0"  filling="0" d="M182.61575317382812 126.16307067871094 C181.3894805908203 124.92865753173828 180.11065673828125 123.79810333251953 178.7914581298828 122.76461029052734 C177.47225952148438 121.73111724853516 176.11270141601562 120.79468536376953 174.72496032714844 119.94853973388672 C173.33721923828125 119.10238647460938 171.92127990722656 118.34651947021484 170.48934936523438 117.67414093017578 C169.0574188232422 117.00176239013672 167.60948181152344 116.41287994384766 166.15773010253906 115.90069580078125 C164.7059783935547 115.38851928710938 163.2504119873047 114.95304107666016 161.80320739746094 114.58749389648438 C160.3560028076172 114.22193908691406 158.91717529296875 113.92630767822266 157.49888610839844 113.69380950927734 C156.08059692382812 113.46131134033203 154.682861328125 113.29194641113281 153.31784057617188 113.1789321899414 C151.95281982421875 113.06591796875 150.62054443359375 113.00924682617188 149.33319091796875 113.00214385986328 C148.0458221435547 112.99504089355469 146.80337524414062 113.03749084472656 145.61801147460938 113.12272644042969 C142.87635803222656 113.28465270996094 140.42376708984375 113.66305541992188 138.28640747070312 114.1357421875 C136.1490478515625 114.60842895507812 134.32691955566406 115.1753921508789 132.84620666503906 115.71444702148438 C131.365478515625 116.25349426269531 130.22616577148438 116.76463317871094 129.4544219970703 117.12566375732422 C128.68267822265625 117.4866943359375 128.27850341796875 117.69761657714844 128.26809692382812 117.63623046875 C130.69041442871094 117.17601776123047 133.03111267089844 116.84062194824219 135.29156494140625 116.61923217773438 C137.55201721191406 116.39784240722656 139.73223876953125 116.29046630859375 141.83360290527344 116.28629302978516 C143.93496704101562 116.28211975097656 145.95750427246094 116.38114166259766 147.90257263183594 116.57256317138672 C149.84764099121094 116.76398468017578 151.71527099609375 117.04779815673828 153.50682067871094 117.41320037841797 C155.2983856201172 117.77860260009766 157.0138702392578 118.2255859375 158.6547088623047 118.74334716796875 C160.2955322265625 119.2611083984375 161.8616943359375 119.84965515136719 163.3545684814453 120.4981689453125 C164.84744262695312 121.14668273925781 166.26705932617188 121.85516357421875 167.61477661132812 122.61280822753906 C168.96249389648438 123.37045288085938 170.2383270263672 124.17726135253906 171.44366455078125 125.02242279052734 C172.6490020751953 125.86758422851562 173.78384399414062 126.7510986328125 174.84959411621094 127.66215515136719 C175.91534423828125 128.57321166992188 176.9119873046875 129.51182556152344 177.84091186523438 130.46717834472656 C178.7698516845703 131.42251586914062 179.63107299804688 132.3946075439453 180.4259796142578 133.37261962890625 C181.22088623046875 134.3506317138672 181.94947814941406 135.33457946777344 182.61314392089844 136.31365966796875 C183.2768096923828 137.292724609375 183.87554931640625 138.26690673828125 184.41075134277344 139.2254180908203 C184.94595336914062 140.18392944335938 185.41763305664062 141.12673950195312 185.8271484375 142.04307556152344 C187.0974884033203 144.83023071289062 187.88064575195312 147.40963745117188 188.3264617919922 149.75759887695312 C188.77227783203125 152.10556030273438 188.88072204589844 154.2220916748047 188.80166625976562 156.08348083496094 C188.7226104736328 157.9448699951172 188.45603942871094 159.55113220214844 188.15179443359375 160.87855529785156 C187.84754943847656 162.20599365234375 187.50563049316406 163.2545928955078 187.27587890625 164.0006866455078 C187.04611206054688 164.7467803955078 186.92852783203125 165.1903533935547 187.0729217529297 165.30772399902344 C187.3831787109375 164.9615478515625 187.82440185546875 164.49317932128906 188.33531188964844 163.90249633789062 C188.84622192382812 163.3118133544922 189.4268341064453 162.5988006591797 190.01588439941406 161.7633056640625 C190.6049346923828 160.9278106689453 191.20242309570312 159.9698486328125 191.74710083007812 158.88925170898438 C192.29177856445312 157.80865478515625 192.7836456298828 156.60543823242188 193.1614227294922 155.27944946289062 C193.53921508789062 153.95346069335938 193.8029327392578 152.50469970703125 193.8913116455078 150.93301391601562 C193.97970581054688 149.361328125 193.89276123046875 147.66671752929688 193.56922912597656 145.8490447998047 C193.24569702148438 144.0313720703125 192.6855926513672 142.0906219482422 191.82763671875 140.0266571044922 C190.9696807861328 137.9626922607422 189.8138885498047 135.7755126953125 188.2989959716797 133.4649658203125 C186.78408813476562 131.1544189453125 184.91009521484375 128.72048950195312 182.61575317382812 126.16307067871094"></path>
<path fill="#009344" fill-opacity="1.0"  filling="0" d="M151.5834503173828 82.74259948730469 C152.77630615234375 82.77976989746094 154.0606689453125 83.08558654785156 155.29351806640625 83.52249145507812 C156.5263671875 83.95938873291016 157.70767211914062 84.52737426757812 158.6944122314453 85.08888244628906 C160.30718994140625 84.32788848876953 161.93099975585938 83.64641571044922 163.55015563964844 83.03803253173828 C165.1693115234375 82.42964935302734 166.78378295898438 81.89436340332031 168.37789916992188 81.42572021484375 C169.9720001220703 80.95708465576172 171.5457305908203 80.55510711669922 173.08338928222656 80.21334838867188 C174.62103271484375 79.87158966064453 176.12261962890625 79.59004974365234 177.5723876953125 79.3623046875 C179.02218627929688 79.13455200195312 180.420166015625 78.96058654785156 181.75067138671875 78.833984375 C181.19422912597656 78.06635284423828 180.62286376953125 77.30378723144531 180.036865234375 76.54641723632812 C179.45086669921875 75.7890625 178.8502197265625 75.03690338134766 178.23519897460938 74.29010009765625 C179.4815673828125 74.67081451416016 180.7572021484375 75.33003997802734 181.94906616210938 76.10035705566406 C183.1409454345703 76.87068176269531 184.24903869628906 77.75209045410156 185.16030883789062 78.57717895507812 C187.3842010498047 78.46829223632812 189.33323669433594 78.46153259277344 190.9429931640625 78.49971008300781 C192.552734375 78.53788757324219 193.8231964111328 78.62098693847656 194.6898956298828 78.69182586669922 C195.5565948486328 78.76266479492188 196.01953125 78.82124328613281 196.0142822265625 78.81034851074219 C195.6223907470703 78.37954711914062 195.09030151367188 77.89855194091797 194.43002319335938 77.3868179321289 C193.76974487304688 76.87508392333984 192.9812774658203 76.3326187133789 192.0765838623047 75.77886962890625 C191.17189025878906 75.22511291503906 190.15098571777344 74.66007232666016 189.02584838867188 74.10319519042969 C187.9007110595703 73.54631805419922 186.6713409423828 72.99760437011719 185.3497314453125 72.47650909423828 C184.02810668945312 71.95541381835938 182.61424255371094 71.46192932128906 181.1201171875 71.01551055908203 C179.6259765625 70.569091796875 178.0515899658203 70.16974639892578 176.40890502929688 69.8369140625 C174.76622009277344 69.50408172607422 173.0552520751953 69.23776245117188 171.28799438476562 69.05741119384766 C169.52072143554688 68.87705993652344 167.69715881347656 68.78267669677734 165.8292694091797 68.79370880126953 C163.9613800048828 68.80474090576172 162.04917907714844 68.92119598388672 160.10464477539062 69.16252136230469 C158.1601104736328 69.40383911132812 156.1832275390625 69.77003479003906 154.18600463867188 70.2805404663086 C152.18878173828125 70.79105377197266 150.17120361328125 71.44587707519531 148.145263671875 72.26448059082031 C146.11932373046875 73.08308410644531 144.0850067138672 74.0654525756836 142.05430603027344 75.23104095458984 C140.0236053466797 76.39663696289062 137.99652099609375 77.74545288085938 135.9850311279297 79.29693603515625 C133.4508819580078 81.63922119140625 131.4088897705078 83.94554901123047 129.77903747558594 86.19444274902344 C128.14918518066406 88.44334411621094 126.93146514892578 90.63481903076172 126.04588317871094 92.74740600585938 C125.16029357910156 94.85999298095703 124.6068344116211 96.89369201660156 124.30548858642578 98.82704162597656 C124.00414276123047 100.76039123535156 123.95491027832031 102.5933837890625 124.07777404785156 104.3045654296875 C124.20064544677734 106.0157470703125 124.49561309814453 107.60511016845703 124.8826675415039 109.05120086669922 C125.26972961425781 110.4972915649414 125.74887084960938 111.80010223388672 126.2400894165039 112.93817138671875 C126.73130798339844 114.07624053955078 127.23460388183594 115.049560546875 127.66996002197266 115.83668518066406 C128.10531616210938 116.62380981445312 128.47274780273438 117.22472381591797 128.6922149658203 117.61796569824219 C128.91168212890625 118.01121520996094 128.98321533203125 118.19679260253906 128.82676696777344 118.15324401855469 C129.25283813476562 116.62246704101562 129.77154541015625 115.10083770751953 130.37765502929688 113.59770202636719 C130.9837646484375 112.09457397460938 131.67727661132812 110.60993957519531 132.45294189453125 109.15315246582031 C133.22860717773438 107.69636535644531 134.08642578125 106.26742553710938 135.0211639404297 104.87567138671875 C135.95590209960938 103.48391723632812 136.96755981445312 102.12936401367188 138.05087280273438 100.82133483886719 C137.279296875 100.29642486572266 136.49221801757812 99.78390502929688 135.68978881835938 99.28421020507812 C134.88735961914062 98.78450012207031 134.06959533691406 98.29761505126953 133.23663330078125 97.82395935058594 C134.31741333007812 97.60600280761719 135.49984741210938 97.58460998535156 136.6890411376953 97.6999282836914 C137.87823486328125 97.81524658203125 139.07418823242188 98.0672836303711 140.18202209472656 98.39619445800781 C141.31011962890625 97.18418884277344 142.49903869628906 96.02166748046875 143.73817443847656 94.91214752197266 C144.97732543945312 93.80261993408203 146.26670837402344 92.74609375 147.59571838378906 91.74605560302734 C148.9247283935547 90.74601745605469 150.29336547851562 89.80248260498047 151.69105529785156 88.9189453125 C153.0887451171875 88.03540802001953 154.51547241210938 87.21186828613281 155.96063232421875 86.45182800292969 C155.26226806640625 85.81542205810547 154.54812622070312 85.18773651123047 153.81849670410156 84.56934356689453 C153.0888671875 83.95094299316406 152.34375 83.34184265136719 151.5834503173828 82.74259948730469"></path>
<path fill="#39B44A" fill-opacity="1.0"  filling="0" d="M135.9850311279297 79.29582214355469 C133.4508819580078 81.63810729980469 131.4088897705078 83.9444351196289 129.77903747558594 86.1933364868164 C128.14918518066406 88.4422378540039 126.93146514892578 90.63371276855469 126.04588317871094 92.74629974365234 C125.16029357910156 94.85888671875 124.6068344116211 96.89258575439453 124.30548858642578 98.82593536376953 C124.00414276123047 100.75927734375 123.95491027832031 102.59227752685547 124.07777404785156 104.30345153808594 C124.20064544677734 106.01463317871094 124.49561309814453 107.60399627685547 124.8826675415039 109.05007934570312 C125.26972961425781 110.49617004394531 125.74887084960938 111.7989730834961 126.2400894165039 112.93704223632812 C126.73130798339844 114.07511138916016 127.23460388183594 115.04843139648438 127.66996002197266 115.8355484008789 C128.10531616210938 116.62266540527344 128.47274780273438 117.22358703613281 128.6922149658203 117.61682891845703 C128.91168212890625 118.01007080078125 128.98321533203125 118.19564819335938 128.82676696777344 118.152099609375 C128.94081115722656 118.22433471679688 128.8894805908203 118.01742553710938 128.75498962402344 117.56427001953125 C128.62049865722656 117.11111450195312 128.40284729003906 116.4117202758789 128.18426513671875 115.49895477294922 C127.96569061279297 114.58619689941406 127.7461929321289 113.46007537841797 127.60800170898438 112.15348052978516 C127.46981048583984 110.84688568115234 127.41293334960938 109.35981750488281 127.51958465576172 107.72517395019531 C127.6262435913086 106.09052276611328 127.89643859863281 104.30828857421875 128.4123992919922 102.4113540649414 C128.92837524414062 100.51441955566406 129.6901092529297 98.50279235839844 130.77984619140625 96.40934753417969 C131.86959838867188 94.31591033935547 133.28733825683594 92.14066314697266 135.11532592773438 89.91648864746094 C136.94329833984375 87.69232177734375 139.1815185546875 85.41921997070312 141.9121856689453 83.13009643554688 C143.5403289794922 81.9192123413086 145.17796325683594 80.83631134033203 146.8161163330078 79.87016296386719 C148.4542694091797 78.90401458740234 150.09295654296875 78.05462646484375 151.72320556640625 77.3107681274414 C153.35345458984375 76.56690979003906 154.97528076171875 75.9285888671875 156.57972717285156 75.38458251953125 C158.18417358398438 74.840576171875 159.77120971679688 74.39087677001953 161.33192443847656 74.02426147460938 C162.8926239013672 73.65765380859375 164.42698669433594 73.37413787841797 165.92605590820312 73.16248321533203 C167.42510986328125 72.9508285522461 168.8888702392578 72.81104278564453 170.30836486816406 72.73190307617188 C171.7278594970703 72.65276336669922 173.1031036376953 72.63426971435547 174.42514038085938 72.66519927978516 C175.74716186523438 72.69612121582031 177.01597595214844 72.77647399902344 178.2226104736328 72.89501953125 C179.42926025390625 73.0135726928711 180.57373046875 73.17031860351562 181.64706420898438 73.35404968261719 C184.14710998535156 73.78715515136719 186.28704833984375 74.35682678222656 188.09271240234375 74.96468353271484 C189.8983612060547 75.5725326538086 191.36972045898438 76.21855926513672 192.53257751464844 76.80435943603516 C193.69544982910156 77.3901596069336 194.54983520507812 77.91573333740234 195.1215057373047 78.28266906738281 C195.6931915283203 78.64961242675781 195.982177734375 78.85792541503906 196.0142822265625 78.8092041015625 C195.62246704101562 78.37840270996094 195.0904541015625 77.89741516113281 194.43023681640625 77.38569641113281 C193.77001953125 76.87397766113281 192.98159790039062 76.33152770996094 192.07693481445312 75.77779388427734 C191.1722869873047 75.22406005859375 190.1514129638672 74.65904235839844 189.0262908935547 74.1021957397461 C187.9011688232422 73.54534912109375 186.67181396484375 72.99665832519531 185.35020446777344 72.47559356689453 C184.02859497070312 71.95452117919922 182.61471557617188 71.46107482910156 181.12057495117188 71.01468658447266 C179.62643432617188 70.56829833984375 178.05203247070312 70.16897583007812 176.40933227539062 69.83616638183594 C174.76663208007812 69.50335693359375 173.05564880371094 69.237060546875 171.28836059570312 69.05672454833984 C169.5210723876953 68.87638854980469 167.69747924804688 68.78202056884766 165.82957458496094 68.7930679321289 C163.961669921875 68.80411529541016 162.0494384765625 68.92057037353516 160.10487365722656 69.1618881225586 C158.16030883789062 69.40320587158203 156.18341064453125 69.7693862915039 154.1861572265625 70.27987670898438 C152.18890380859375 70.79036712646484 150.1713104248047 71.4451675415039 148.1453399658203 72.26373291015625 C146.119384765625 73.08229064941406 144.08505249023438 74.06461334228516 142.05433654785156 75.23014831542969 C140.02362060546875 76.39567565917969 137.99652099609375 77.74441528320312 135.9850311279297 79.29582214355469"></path>
<path fill="#009344" fill-opacity="1.0"  filling="0" d="M148.04653930664062 103.3602294921875 C148.91387939453125 103.90935516357422 149.68601989746094 104.68882751464844 150.36439514160156 105.58487701416016 C151.0427703857422 106.48092651367188 151.6273651123047 107.49356079101562 152.11959838867188 108.50900268554688 C153.3616485595703 108.25106048583984 154.60105895996094 108.02978515625 155.83456420898438 107.84351348876953 C157.06805419921875 107.65724182128906 158.29562377929688 107.50596618652344 159.5139617919922 107.38802337646484 C160.73231506347656 107.27008056640625 161.94143676757812 107.18547058105469 163.1380615234375 107.13253784179688 C163.1380615234375 105.78761291503906 163.14141845703125 104.44383239746094 163.14593505859375 103.09890747070312 C164.2081298828125 104.029296875 164.96395874023438 105.55445861816406 165.48208618164062 107.06721496582031 C167.21035766601562 107.04731750488281 168.90646362304688 107.09199523925781 170.5629425048828 107.19241333007812 C172.21942138671875 107.29283142089844 173.83627319335938 107.448974609375 175.40602111816406 107.65202331542969 C176.97576904296875 107.85506439208984 178.4984130859375 108.10499572753906 179.9664764404297 108.39299011230469 C180.30044555664062 106.86671447753906 180.63978576660156 105.34156799316406 180.98446655273438 103.81755828857422 C181.32913208007812 102.29354095458984 181.67916870117188 100.7706527709961 182.0345458984375 99.24888610839844 C182.75318908691406 100.13573455810547 183.26644897460938 101.23834991455078 183.6291961669922 102.42206573486328 C183.991943359375 103.60578918457031 184.20416259765625 104.87060546875 184.32070922851562 106.08186340332031 C184.43728637695312 107.29312133789062 184.45819091796875 108.45082092285156 184.43829345703125 109.42027282714844 C185.7877197265625 109.77621459960938 187.0770721435547 110.158935546875 188.3036346435547 110.55826568603516 C189.5301971435547 110.95759582519531 190.6939697265625 111.37352752685547 191.79225158691406 111.79589080810547 C192.89051818847656 112.21824645996094 193.92330932617188 112.64703369140625 194.88787841796875 113.07206726074219 C195.1852569580078 112.2644271850586 195.48374938964844 111.45735168457031 195.7830810546875 110.65071105957031 C196.08242797851562 109.84407043457031 196.3826141357422 109.03784942626953 196.68338012695312 108.23191833496094 C197.13336181640625 109.0508041381836 197.36343383789062 110.06878662109375 197.4559326171875 111.1243667602539 C197.54843139648438 112.17994689941406 197.50338745117188 113.27312469482422 197.40313720703125 114.24240112304688 C199.80801391601562 115.43074035644531 201.64376831054688 116.49180603027344 202.87942504882812 117.25311279296875 C204.11508178710938 118.01441955566406 204.7506561279297 118.47595977783203 204.75515747070312 118.46525573730469 C204.79222106933594 118.00547790527344 204.79039001464844 117.40502166748047 204.73121643066406 116.69197845458984 C204.6720428466797 115.97893524169922 204.55551147460938 115.15330505371094 204.3632049560547 114.2431869506836 C204.1708984375 113.33306121826172 203.90280151367188 112.33844757080078 203.5404815673828 111.28742980957031 C203.17816162109375 110.23641204833984 202.72161865234375 109.12899017333984 202.15240478515625 107.99325561523438 C201.58319091796875 106.8575210571289 200.90130615234375 105.6934814453125 200.08831787109375 104.52922058105469 C199.27532958984375 103.36495971679688 198.33123779296875 102.20048522949219 197.23757934570312 101.06388854980469 C196.14393615722656 99.92728424072266 194.90072631835938 98.81855773925781 193.48953247070312 97.76580047607422 C192.07833862304688 96.71304321289062 190.49916076660156 95.71624755859375 188.73353576660156 94.80351257324219 C186.96792602539062 93.89077758789062 185.015869140625 93.06210327148438 182.85894775390625 92.34558868408203 C180.7020263671875 91.62906646728516 178.34022521972656 91.02469635009766 175.75511169433594 90.5605697631836 C173.16998291015625 90.09644317626953 170.36154174804688 89.77256774902344 167.3113555908203 89.61701965332031 C164.18763732910156 89.72310638427734 161.30369567871094 90.05923461914062 158.64231872558594 90.58179473876953 C155.98094177246094 91.10435485839844 153.54212951660156 91.8133316040039 151.30870056152344 92.66511535644531 C149.0752716064453 93.51689910888672 147.04721069335938 94.51148223876953 145.2073211669922 95.6052474975586 C143.367431640625 96.69901275634766 141.71572875976562 97.89195251464844 140.23501586914062 99.14044952392578 C138.75428771972656 100.38894653320312 137.44454956054688 101.69300842285156 136.28860473632812 103.00899505615234 C135.13265991210938 104.32498931884766 134.1304931640625 105.65290832519531 133.26490783691406 106.94915008544922 C132.3993377685547 108.2453842163086 131.67034912109375 109.50993347167969 131.06076049804688 110.69917297363281 C130.451171875 111.88841247558594 129.9609832763672 113.00233459472656 129.572998046875 113.99732971191406 C129.1850128173828 114.99232482910156 128.8992156982422 115.8683853149414 128.69842529296875 116.5818862915039 C128.49765014648438 117.29539489746094 128.38186645507812 117.84634399414062 128.33389282226562 118.19110870361328 C128.28591918945312 118.53588104248047 128.30575561523438 118.67446899414062 128.376220703125 118.56326293945312 C129.6292266845703 117.697509765625 130.91354370117188 116.88086700439453 132.22314453125 116.11360931396484 C133.53273010253906 115.34635162353516 134.86758422851562 114.62847137451172 136.22166442871094 113.96025085449219 C137.57574462890625 113.29202270507812 138.9490509033203 112.67345428466797 140.33551025390625 112.10479736328125 C141.72198486328125 111.53614807128906 143.1216278076172 111.01741790771484 144.52841186523438 110.54888153076172 C145.9351806640625 110.0803451538086 147.3490753173828 109.66200256347656 148.76405334472656 109.29411315917969 C148.64013671875 108.30625915527344 148.51821899414062 107.31784057617188 148.39854431152344 106.328857421875 C148.27886962890625 105.33987426757812 148.16143798828125 104.35033416748047 148.04653930664062 103.3602294921875"></path>
<path fill="#39B44A" fill-opacity="1.0"  filling="0" d="M167.33050537109375 89.61814880371094 C164.20648193359375 89.71983337402344 161.32176208496094 90.05197143554688 158.65921020507812 90.57090759277344 C155.99667358398438 91.08984375 153.5563201904297 91.79557800292969 151.321044921875 92.64443969726562 C149.0857696533203 93.4933090209961 147.0555877685547 94.48531341552734 145.21339416503906 95.57679748535156 C143.37118530273438 96.66828155517578 141.71697998046875 97.85923767089844 140.233642578125 99.10601043701172 C138.75030517578125 100.352783203125 137.43785095214844 101.65538024902344 136.27915954589844 102.97013092041016 C135.1204833984375 104.28488159179688 134.11558532714844 105.61178588867188 133.2473602294922 106.90719604492188 C132.37913513183594 108.20259857177734 131.6475830078125 109.46650695800781 131.0355987548828 110.6552505493164 C130.42361450195312 111.843994140625 129.93121337890625 112.95757293701172 129.54127502441406 113.95233154296875 C129.15133666992188 114.94709014892578 128.86387634277344 115.82302856445312 128.66177368164062 116.53648376464844 C128.45968627929688 117.24993896484375 128.34295654296875 117.80091857910156 128.29449462890625 118.14575958251953 C128.24603271484375 118.49059295654297 128.26583862304688 118.62928771972656 128.3367919921875 118.5181884765625 C128.21678161621094 118.52545928955078 128.27029418945312 118.32711029052734 128.485107421875 117.9616928100586 C128.69992065429688 117.59628295898438 129.07606506347656 117.06380462646484 129.60130310058594 116.40281677246094 C130.1265411376953 115.74182891845703 130.80087280273438 114.95233154296875 131.6121063232422 114.07288360595703 C132.42333984375 113.19343566894531 133.3714599609375 112.22402954101562 134.44427490234375 111.2032241821289 C135.51708984375 110.18241882324219 136.71458435058594 109.11021423339844 138.02455139160156 108.02516174316406 C139.3345184326172 106.94010925292969 140.75697326660156 105.84221649169922 142.27967834472656 104.77003479003906 C143.80238342285156 103.6978530883789 145.4253692626953 102.65137481689453 147.1363983154297 101.6691665649414 C148.84742736816406 100.68695831298828 150.64651489257812 99.76901245117188 152.52145385742188 98.95388793945312 C154.39639282226562 98.13876342773438 156.34718322753906 97.42645263671875 158.36160278320312 96.85552215576172 C160.3760223388672 96.28459167480469 162.45408630371094 95.85503387451172 164.5835723876953 95.60540771484375 C166.7130584716797 95.35577392578125 168.89398193359375 95.28607177734375 171.11410522460938 95.43486022949219 C174.49893188476562 95.7605209350586 177.50527954101562 96.28327941894531 180.1800079345703 96.95703887939453 C182.854736328125 97.63079833984375 185.19786071777344 98.45555877685547 187.2562713623047 99.38520050048828 C189.31468200683594 100.3148422241211 191.08837890625 101.34937286376953 192.624267578125 102.44267272949219 C194.16014099121094 103.53598022460938 195.4582061767578 104.68805694580078 196.56533813476562 105.8528060913086 C197.67247009277344 107.0175552368164 198.58868408203125 108.1949691772461 199.36085510253906 109.33894348144531 C200.13302612304688 110.48291015625 200.7611846923828 111.59344482421875 201.2921905517578 112.62442016601562 C201.8231964111328 113.6553955078125 202.25706481933594 114.60681915283203 202.64068603515625 115.43257904052734 C203.02430725097656 116.25833892822266 203.35768127441406 116.95843505859375 203.6876983642578 117.48675537109375 C204.01773071289062 118.01508331298828 204.34439086914062 118.37162780761719 204.714599609375 118.51029968261719 C204.75218200683594 118.05072784423828 204.751220703125 117.45047760009766 204.69320678710938 116.73760986328125 C204.63519287109375 116.02473449707031 204.5201416015625 115.19923400878906 204.3295440673828 114.28916931152344 C204.13893127441406 113.37909698486328 203.87277221679688 112.38446044921875 203.51254272460938 111.33329772949219 C203.15231323242188 110.28214263916016 202.69801330566406 109.17446899414062 202.1311492919922 108.038330078125 C201.5642852783203 106.90219116210938 200.8848419189453 105.73759460449219 200.07432556152344 104.57259368896484 C199.26380920410156 103.40758514404297 198.32220458984375 102.24217224121094 197.23101806640625 101.10440826416016 C196.13983154296875 99.96663665771484 194.8990478515625 98.85651397705078 193.49017333984375 97.80209350585938 C192.081298828125 96.74767303466797 190.50433349609375 95.74895477294922 188.74075317382812 94.833984375 C186.9771728515625 93.91902160644531 185.02699279785156 93.08780670166016 182.8717041015625 92.368408203125 C180.71640014648438 91.64900970458984 178.3560028076172 91.04141998291016 175.77197265625 90.57369232177734 C173.1879425048828 90.10595703125 170.38027954101562 89.77809143066406 167.33050537109375 89.61814880371094"></path></svg>