<svg xmlns="http://www.w3.org/2000/svg" viewBox="0.0 0.0 256.0 256.0" height="256.0px" width="256.0px"><path fill="#3FCEBA" fill-opacity="1.0"  filling="0" d="M66.6661376953125 120.16397094726562 C68.15859985351562 118.69657897949219 66.6876220703125 117.76653289794922 64.82228088378906 117.56556701660156 C62.956932067871094 117.36460876464844 60.69721984863281 117.89273071289062 60.612213134765625 119.3416748046875 C60.52671813964844 120.7880859375 61.03923797607422 121.97695922851562 62.073612213134766 122.31257629394531 C63.10798645019531 122.64820098876953 64.66421508789062 122.13056945800781 66.6661376953125 120.16397094726562"></path>
<path fill="#3FCEBA" fill-opacity="1.0"  filling="0" d="M170.63079833984375 141.29730224609375 C170.62542724609375 142.7662353515625 170.37844848632812 144.16482543945312 169.9364013671875 145.43612670898438 C169.49435424804688 146.7074432373047 168.8572235107422 147.85147094726562 168.07156372070312 148.811279296875 C167.28590393066406 149.77108764648438 166.35169982910156 150.54666137695312 165.3154754638672 151.08108520507812 C164.27923583984375 151.61549377441406 163.1409912109375 151.9087371826172 161.947265625 151.90386962890625 L157.35792541503906 151.88658142089844 L152.76858520507812 151.86927795410156 L148.1792449951172 151.85198974609375 L143.58990478515625 151.83470153808594 L139.00054931640625 151.81741333007812 L134.41122436523438 151.80010986328125 L129.82186889648438 151.78282165527344 L125.23252868652344 151.76551818847656 L120.6431884765625 151.74822998046875 C119.449462890625 151.74362182617188 118.31352996826172 151.4414825439453 117.28145599365234 150.8990478515625 C116.24938201904297 150.3566131591797 115.32115936279297 149.5738983154297 114.54285430908203 148.60813903808594 C113.76455688476562 147.6423797607422 113.13616943359375 146.4935760498047 112.70377349853516 145.218994140625 C112.27137756347656 143.94439697265625 112.03495788574219 142.54400634765625 112.04058837890625 141.0750732421875 L112.04776000976562 139.30255126953125 C112.0528793334961 137.8336181640625 112.2996597290039 136.43515014648438 112.7415771484375 135.1640167236328 C113.1834945678711 133.8928680419922 113.82054901123047 132.74905395507812 114.60621643066406 131.78944396972656 C115.39187622070312 130.829833984375 116.32614135742188 130.0543975830078 117.36249542236328 129.52003479003906 C118.39884948730469 128.98565673828125 119.53727722167969 128.69235229492188 120.73126220703125 128.69696044921875 L125.32038116455078 128.71426391601562 L129.90948486328125 128.73155212402344 L134.4986114501953 128.74884033203125 L139.08773803710938 128.76614379882812 L143.67684936523438 128.78343200683594 L148.26596069335938 128.80072021484375 L152.85507202148438 128.81800842285156 L157.44418334960938 128.83531188964844 L162.03329467773438 128.85260009765625 C163.2275390625 128.8574676513672 164.36398315429688 129.15968322753906 165.3965301513672 129.70205688476562 C166.42909240722656 130.2444305419922 167.35777282714844 131.02696228027344 168.13645935058594 131.99246215820312 C168.91514587402344 132.95797729492188 169.54385375976562 134.1064453125 169.97647094726562 135.38072204589844 C170.4091033935547 136.65499877929688 170.64564514160156 138.05506896972656 170.6400146484375 139.52374267578125 L170.63079833984375 141.29730224609375"></path>
<path fill="#3FCEBA" fill-opacity="1.0"  filling="0" d="M112.6611328125 139.207275390625 C111.1114730834961 139.70904541015625 109.5520248413086 139.84649658203125 108.1172103881836 139.67015075683594 C106.6823959350586 139.49380493164062 105.37220764160156 139.00364685058594 104.32105255126953 138.2501983642578 C103.2698974609375 137.49676513671875 102.477783203125 136.48004150390625 102.0791015625 135.25054931640625 L100.69746398925781 130.98252868652344 L99.31583404541016 126.71450805664062 L97.9342041015625 122.44648742675781 L96.55256652832031 118.178466796875 C96.15457916259766 116.94794464111328 96.2003173828125 115.65963745117188 96.6104965209961 114.43302917480469 C97.02066802978516 113.2064208984375 97.79527282714844 112.0415267944336 98.85499572753906 111.0578384399414 C99.91472625732422 110.07415008544922 101.25958251953125 109.27166748046875 102.81025695800781 108.7698974609375 L104.67904663085938 108.16473388671875 C106.22904205322266 107.66263580322266 107.78882598876953 107.52474212646484 109.2240219116211 107.70063781738281 C110.65921020507812 107.87654113769531 111.96981811523438 108.3662338256836 113.02146911621094 109.11933135986328 C114.07311248779297 109.87242126464844 114.86579895019531 110.888916015625 115.26516723632812 112.118408203125 L116.64653778076172 116.38720703125 L118.02790832519531 120.656005859375 L119.4092788696289 124.9248046875 L120.7906494140625 129.193603515625 C121.18863677978516 130.42376708984375 121.14266967773438 131.71160888671875 120.73223876953125 132.93775939941406 C120.32180786132812 134.16390991210938 119.54691314697266 135.32833862304688 118.4870376586914 136.3116912841797 C117.42716979980469 137.2950439453125 116.08232116699219 138.0972900390625 114.531982421875 138.59906005859375 L112.6611328125 139.207275390625"></path>
<path fill="#3FCEBA" fill-opacity="1.0"  filling="0" d="M189.356689453125 167.12255859375 C189.95675659179688 168.596435546875 190.12094116210938 170.13937377929688 189.9093475341797 171.6083221435547 C189.69775390625 173.0772705078125 189.1103973388672 174.47222900390625 188.20738220214844 175.65013122558594 C187.3043670654297 176.8280487060547 186.085693359375 177.78890991210938 184.61148071289062 178.3896484375 L181.94189453125 179.47610473632812 C180.4690399169922 180.076171875 178.92620849609375 180.240234375 177.45706176757812 180.02850341796875 C175.98793029785156 179.8167724609375 174.5924835205078 179.22921752929688 173.41439819335938 178.3260498046875 C172.23629760742188 177.42286682128906 171.27557373046875 176.20407104492188 170.67584228515625 174.7298583984375 L169.04579162597656 170.72653198242188 L167.415771484375 166.72320556640625 L165.78573608398438 162.71987915039062 L164.15570068359375 158.716552734375 L162.52565002441406 154.71322631835938 L160.8956298828125 150.70989990234375 C160.29454040527344 149.23670959472656 160.1300048828125 147.69387817382812 160.34164428710938 146.22488403320312 C160.5532684326172 144.75588989257812 161.14105224609375 143.36074829101562 162.0445556640625 142.18292236328125 C162.94805908203125 141.00509643554688 164.16729736328125 140.04458618164062 165.641845703125 139.44488525390625 L168.31146240234375 138.35635375976562 C169.7843017578125 137.75628662109375 171.3267822265625 137.59222412109375 172.79551696777344 137.8040008544922 C174.26426696777344 138.01577758789062 175.6593017578125 138.6033935546875 176.8372344970703 139.50672912597656 C178.0151824951172 140.41004943847656 178.97604370117188 141.62905883789062 179.57644653320312 143.1036376953125 L181.20648193359375 147.10678100585938 L182.83653259277344 151.10995483398438 L184.46656799316406 155.11309814453125 L186.09661865234375 159.1162567138672 L187.72665405273438 163.11940002441406 L189.356689453125 167.12255859375"></path>
<path fill="#3FCEBA" fill-opacity="1.0"  filling="0" d="M92.87744140625 166.75494384765625 C92.26679229736328 168.2257537841797 92.09123229980469 169.76812744140625 92.29182434082031 171.23886108398438 C92.49241638183594 172.7095947265625 93.06915283203125 174.10867309570312 93.96310424804688 175.29290771484375 C94.8570556640625 176.47714233398438 96.06822204589844 177.446533203125 97.53765869140625 178.057861328125 L100.19903564453125 179.16583251953125 C101.66814422607422 179.77716064453125 103.20983123779297 179.95294189453125 104.68041229248047 179.7523956298828 C106.15098571777344 179.55184936523438 107.55045318603516 178.97494506835938 108.735107421875 178.08091735839844 C109.91976165771484 177.1868896484375 110.88960266113281 175.97573852539062 111.50094604492188 174.50665283203125 L113.16136169433594 170.51577758789062 L114.82178497314453 166.52490234375 L116.48219299316406 162.53402709960938 L118.14261627197266 158.54315185546875 L119.80302429199219 154.55227661132812 L121.46343994140625 150.5614013671875 C122.07511138916016 149.0916290283203 122.25090026855469 147.54959106445312 122.05011749267578 146.07887268066406 C121.84933471679688 144.60813903808594 121.27198791503906 143.20870971679688 120.37738800048828 142.02413940429688 C119.4827880859375 140.8395538330078 118.27093505859375 139.86984252929688 116.8011474609375 139.25851440429688 L114.14181518554688 138.15359497070312 C112.67203521728516 137.54124450683594 111.130126953125 137.364990234375 109.65950775146484 137.5654296875 C108.18888854980469 137.765869140625 106.78958129882812 138.34298706054688 105.60499572753906 139.23736572265625 C104.42042541503906 140.13174438476562 103.45057678222656 141.34335327148438 102.83891296386719 142.81280517578125 L101.17866516113281 146.80316162109375 L99.5184326171875 150.79351806640625 L97.8581771850586 154.78387451171875 L96.19793701171875 158.77423095703125 L94.53768920898438 162.76458740234375 L92.87744140625 166.75494384765625"></path>
<path fill="#3FCEBA" fill-opacity="1.0"  filling="0" d="M160.99188232421875 125.4703369140625 C160.38021850585938 126.9407958984375 160.20408630371094 128.48316955566406 160.4044189453125 129.95408630371094 C160.604736328125 131.42501831054688 161.18150329589844 132.82447814941406 162.0756378173828 134.00912475585938 C162.96978759765625 135.19378662109375 164.1812744140625 136.16360473632812 165.65106201171875 136.7752685546875 L168.31243896484375 137.88226318359375 C169.7812042236328 138.4932403564453 171.3226776123047 138.66891479492188 172.7931365966797 138.46824645996094 C174.26361083984375 138.267578125 175.66307067871094 137.69058227539062 176.84783935546875 136.79620361328125 C178.03260803222656 135.90184020996094 179.002685546875 134.69009399414062 179.61434936523438 133.219970703125 L181.27493286132812 129.2296142578125 L182.93551635742188 125.2392578125 L184.59609985351562 121.2489013671875 L186.25668334960938 117.258544921875 L187.91726684570312 113.2681884765625 L189.57785034179688 109.27783203125 C190.18919372558594 107.80804443359375 190.36474609375 106.2660140991211 190.1638641357422 104.79532623291016 C189.96298217773438 103.32463073730469 189.3856201171875 101.92528533935547 188.49114990234375 100.74085998535156 C187.59664916992188 99.55644226074219 186.38504028320312 98.58694458007812 184.91558837890625 97.9759521484375 L182.25830078125 96.86798095703125 C180.787841796875 96.25698852539062 179.245361328125 96.08154296875 177.77432250976562 96.28235626220703 C176.30328369140625 96.48316955566406 174.90371704101562 97.06025695800781 173.71905517578125 97.95431518554688 C172.53440856933594 98.848388671875 171.564697265625 100.05943298339844 170.953369140625 101.5281982421875 L169.29312133789062 105.5185546875 L167.63287353515625 109.50891876220703 L165.97262573242188 113.499267578125 L164.3123779296875 117.48963165283203 L162.65213012695312 121.47998046875 L160.99188232421875 125.4703369140625"></path>
<path fill="#3FCEBA" fill-opacity="1.0"  filling="0" d="M95.79379272460938 102.01356506347656 C95.68901062011719 103.60179901123047 96.0198745727539 105.11800384521484 96.68403625488281 106.44537353515625 C97.34819030761719 107.77274322509766 98.34564208984375 108.9112777709961 99.57402038574219 109.74417114257812 C100.80240631103516 110.57705688476562 102.26171875 111.10430908203125 103.849609375 111.2091064453125 L106.72604370117188 111.39956665039062 C108.3135757446289 111.5040054321289 109.82966613769531 111.17291259765625 111.15714263916016 110.50852966308594 C112.48462677001953 109.84414672851562 113.62350463867188 108.84646606445312 114.45661926269531 107.61774444580078 C115.28974151611328 106.38902282714844 115.81709289550781 104.92926025390625 115.92153930664062 103.3406982421875 L116.20535278320312 99.02777862548828 L116.48918151855469 94.71485900878906 L116.77299499511719 90.40193176269531 L117.05682373046875 86.0890121459961 L117.34062957763672 81.77608489990234 L117.62445068359375 77.46316528320312 C117.73026275634766 75.87561798095703 117.39974212646484 74.35964965820312 116.73554229736328 73.03231811523438 C116.07134246826172 71.70498657226562 115.07347106933594 70.5663070678711 113.84459686279297 69.73334503173828 C112.61572265625 68.90038299560547 111.15583801269531 68.37313842773438 109.567626953125 68.26869201660156 L106.6932373046875 68.0792236328125 C105.10604858398438 67.9740982055664 103.59008026123047 68.30508422851562 102.26263427734375 68.96958923339844 C100.93518829345703 69.63409423828125 99.79627227783203 70.63211059570312 98.96318817138672 71.8610610961914 C98.1301040649414 73.09001159667969 97.60285949707031 74.54989624023438 97.49874877929688 76.13812255859375 L97.21458435058594 80.45069885253906 L96.93043518066406 84.76327514648438 L96.64627075195312 89.07584381103516 L96.36211395263672 93.388427734375 L96.07794952392578 97.70098876953125 L95.79379272460938 102.01356506347656"></path>
<path fill="#3FCEBA" fill-opacity="1.0"  filling="0" d="M71.59463500976562 107.18988037109375 C70.05487823486328 107.59265899658203 68.72084045410156 108.38558197021484 67.67108917236328 109.43487548828125 C66.621337890625 110.48417663574219 65.85588073730469 111.78984832763672 65.45329284667969 113.2181396484375 C65.05071258544922 114.64643096923828 65.01100158691406 116.19734191894531 65.41275024414062 117.73712158203125 L66.14080810546875 120.52545166015625 C66.5418701171875 122.06554412841797 67.33422088623047 123.40015411376953 68.38351440429688 124.45047760009766 C69.43281555175781 125.50079345703125 70.73905944824219 126.26683044433594 72.16792297363281 126.66975402832031 C73.5967788696289 127.07267761230469 75.14825439453125 127.11250305175781 76.68800354003906 126.71041870117188 L80.98532104492188 125.68621826171875 L85.28263854980469 124.66200256347656 L89.5799560546875 123.63780212402344 L93.87727355957031 122.61359405517578 L98.17459106445312 121.58938598632812 C99.71469116210938 121.18762969970703 101.04896545410156 120.39505004882812 102.09879302978516 119.34571838378906 C103.14862060546875 118.29638671875 103.91400909423828 116.99028778076172 104.31632995605469 115.56150817871094 C104.71864318847656 114.13272857666016 104.75790405273438 112.58125305175781 104.35546875 111.04116821289062 L103.62741088867188 108.2528076171875 C103.22566223144531 106.71270751953125 102.43319702148438 105.37843322753906 101.38404846191406 104.32852172851562 C100.33489990234375 103.27861785888672 99.02906799316406 102.5130844116211 97.6005859375 102.11045837402344 C96.17210388183594 101.70783996582031 94.6209716796875 101.66813659667969 93.08122253417969 102.06988525390625 L88.78390502929688 103.09388732910156 L84.48658752441406 104.11788940429688 L80.18927001953125 105.14189147949219 L75.89195251464844 106.16588592529297 L71.59463500976562 107.18988037109375"></path>
<path fill="#3FCEBA" fill-opacity="1.0"  filling="0" d="M182.83892822265625 97.15878295898438 C183.22462463378906 96.00985717773438 183.84243774414062 94.3628158569336 184.5384521484375 92.68572998046875 C185.23446655273438 91.00865173339844 186.00868225097656 89.3015365600586 186.7071990966797 88.03246307373047 C187.40573120117188 86.76338195800781 188.02853393554688 85.93235778808594 188.4217529296875 86.0074462890625 C189.01107788085938 86.12263488769531 189.57760620117188 86.35482025146484 189.72877502441406 86.9955825805664 C189.87994384765625 87.6363525390625 189.61575317382812 88.6856918334961 188.54364013671875 90.43519592285156 C187.47048950195312 92.18419647216797 186.658203125 94.16769409179688 185.95010375976562 95.77332305908203 C185.24200439453125 97.37895202636719 184.63809204101562 98.60672760009766 183.981689453125 98.84428405761719 C182.6668701171875 99.32453918457031 182.83892822265625 97.15878295898438 182.83892822265625 97.15878295898438"></path>
<path fill="#FFFFFF" fill-opacity="1.0"  filling="0" d="M100.29019165039062 77.56044006347656 L100.37826538085938 75.67730712890625 C100.4263916015625 74.65435791015625 100.4263916015625 74.65435791015625 101.4493408203125 74.70248413085938 C102.47232055664062 74.75059509277344 102.47232055664062 74.75059509277344 102.4241943359375 75.7735595703125 L102.33612060546875 77.65672302246094 C102.28800964355469 78.6796875 102.28800964355469 78.6796875 101.26504516601562 78.63156127929688 C100.2420654296875 78.58343505859375 100.2420654296875 78.58343505859375 100.29019165039062 77.56044006347656"></path>
<path fill="#FFFFFF" fill-opacity="1.0"  filling="0" d="M99.43922424316406 98.37222290039062 L99.65042877197266 93.8681640625 L99.86162567138672 89.36409759521484 L100.07283020019531 84.86003112792969 L100.28402709960938 80.35597229003906 C100.3321533203125 79.3330078125 100.3321533203125 79.3330078125 101.35513305664062 79.38113403320312 C102.37812805175781 79.42926025390625 102.37812805175781 79.42926025390625 102.32997131347656 80.45222473144531 L102.11878204345703 84.95628356933594 L101.90758514404297 89.4603500366211 L101.69639587402344 93.96441650390625 L101.48519897460938 98.46847534179688 C101.43707275390625 99.49148559570312 101.43707275390625 99.49148559570312 100.41409301757812 99.44332885742188 C99.39109802246094 99.39520263671875 99.39109802246094 99.39520263671875 99.43922424316406 98.37222290039062"></path>
<path fill="#FFFFFF" fill-opacity="1.0"  filling="0" d="M102.80715942382812 149.8896484375 L103.50553894042969 148.13760375976562 C103.88441467285156 147.18634033203125 103.88441467285156 147.18634033203125 104.83572387695312 147.565185546875 C105.78700256347656 147.944091796875 105.78700256347656 147.944091796875 105.40814208984375 148.8953857421875 L104.70974731445312 150.6474609375 C104.33087158203125 151.59872436523438 104.33087158203125 151.59872436523438 103.37960815429688 151.2198486328125 C102.42828369140625 150.84097290039062 102.42828369140625 150.84097290039062 102.80715942382812 149.8896484375"></path>
<path fill="#FFFFFF" fill-opacity="1.0"  filling="0" d="M95.22854614257812 169.2904052734375 L96.89511108398438 165.10044860839844 L98.5616683959961 160.91049194335938 L100.22823333740234 156.7205352783203 L101.89479064941406 152.53057861328125 C102.27262878417969 151.57925415039062 102.27262878417969 151.57925415039062 103.2249755859375 151.95816040039062 C104.17625427246094 152.33599853515625 104.17625427246094 152.33599853515625 103.79737854003906 153.288330078125 L102.13082122802734 157.47828674316406 L100.4642562866211 161.66824340820312 L98.79769897460938 165.8582000732422 L97.13113403320312 170.04815673828125 C96.7532958984375 170.99945068359375 96.7532958984375 170.99945068359375 95.80096435546875 170.62054443359375 C94.84967041015625 170.24267578125 94.84967041015625 170.24267578125 95.22854614257812 169.2904052734375"></path>
<path fill="#FFFFFF" fill-opacity="1.0"  filling="0" d="M124.74945068359375 133.86920166015625 L122.86224365234375 133.87432861328125 C121.83822631835938 133.87738037109375 121.83822631835938 133.87738037109375 121.83514404296875 132.8533935546875 C121.83206176757812 131.82937622070312 121.83206176757812 131.82937622070312 122.8560791015625 131.82632446289062 L124.7432861328125 131.82119750976562 C125.76727294921875 131.818115234375 125.76727294921875 131.818115234375 125.7703857421875 132.84213256835938 C125.7734375 133.86614990234375 125.7734375 133.86614990234375 124.74945068359375 133.86920166015625"></path>
<path fill="#FFFFFF" fill-opacity="1.0"  filling="0" d="M158.1943359375 133.75653076171875 L153.8144073486328 133.75433349609375 L149.4344482421875 133.75216674804688 L145.05450439453125 133.74996948242188 L140.674560546875 133.74777221679688 L136.29461669921875 133.74559020996094 L131.9146728515625 133.74339294433594 L127.53472900390625 133.7412109375 C126.5107421875 133.7412109375 126.5107421875 133.7412109375 126.5107421875 132.71719360351562 C126.5107421875 131.69317626953125 126.5107421875 131.69317626953125 127.53472900390625 131.69317626953125 L131.91481018066406 131.69537353515625 L136.29489135742188 131.69757080078125 L140.67498779296875 131.69976806640625 L145.05506896972656 131.70196533203125 L149.43515014648438 131.70416259765625 L153.8152313232422 131.70635986328125 L158.1953125 131.70855712890625 C159.21929931640625 131.70855712890625 159.21929931640625 131.70855712890625 159.21929931640625 132.7325439453125 C159.21832275390625 133.75653076171875 159.21832275390625 133.75653076171875 158.1943359375 133.75653076171875"></path>
<path fill="#FFFFFF" fill-opacity="1.0"  filling="0" d="M173.95574951171875 103.31915283203125 L174.71041870117188 101.59169006347656 C175.1199951171875 100.65269470214844 175.1199951171875 100.65269470214844 176.0579833984375 101.06329345703125 C176.99700927734375 101.47291564941406 176.99700927734375 101.47291564941406 176.58636474609375 102.410888671875 L175.83169555664062 104.13838195800781 C175.422119140625 105.07737731933594 175.422119140625 105.07737731933594 174.48410034179688 104.666748046875 C173.54510498046875 104.25717163085938 173.54510498046875 104.25717163085938 173.95574951171875 103.31915283203125"></path>
<path fill="#FFFFFF" fill-opacity="1.0"  filling="0" d="M165.71356201171875 122.44439697265625 L167.52296447753906 118.31409454345703 L169.33236694335938 114.18379211425781 L171.1417694091797 110.0534896850586 L172.951171875 105.92318725585938 C173.36178588867188 104.9852294921875 173.36178588867188 104.9852294921875 174.2998046875 105.39584350585938 C175.23776245117188 105.80647277832031 175.23776245117188 105.80647277832031 174.8271484375 106.74444580078125 L173.01773071289062 110.874755859375 L171.2083282470703 115.00506591796875 L169.39892578125 119.1353759765625 L167.58950805664062 123.26568603515625 C167.17889404296875 124.20367431640625 167.17889404296875 124.20367431640625 166.24090576171875 123.79302978515625 C165.30291748046875 123.38241577148438 165.30291748046875 123.38241577148438 165.71356201171875 122.44439697265625"></path>
<path fill="#6bf0de" fill-opacity="1.0"  filling="0" d="M105.89350891113281 138.932861328125 C104.95757293701172 139.256103515625 105.254638671875 139.12469482421875 106.23540496826172 138.97616577148438 C107.21617126464844 138.82765197753906 108.88062286376953 138.6620330810547 110.679443359375 138.91685485839844 C112.478271484375 139.17169189453125 114.41146850585938 139.84695434570312 115.92971801757812 141.3802490234375 C115.64556884765625 141.34695434570312 114.86707305908203 140.0641326904297 114.4058837890625 138.3924560546875 C113.9447021484375 136.72076416015625 113.80082702636719 134.6602325439453 114.78591918945312 133.07150268554688 C114.7558822631836 132.9916229248047 114.45687866210938 133.3741455078125 113.83853912353516 134.00038146972656 C113.22019958496094 134.62661743164062 112.28251647949219 135.49655151367188 110.97514343261719 136.3915252685547 C109.66775512695312 137.2864990234375 107.99067687988281 138.20651245117188 105.89350891113281 138.932861328125"></path>
<path fill="#6bf0de" fill-opacity="1.0"  filling="0" d="M173.77960205078125 138.10546875 C175.21115112304688 138.10342407226562 173.93063354492188 137.9603271484375 172.0067901611328 137.41146850585938 C170.08294677734375 136.86260986328125 167.51577758789062 135.90798950195312 166.3740234375 134.28289794921875 C166.33563232421875 134.36480712890625 166.7900390625 135.32301330566406 167.07278442382812 136.7877197265625 C167.3555450439453 138.25242614746094 167.46664428710938 140.2236328125 166.74163818359375 142.33154296875 C166.74163818359375 142.33154296875 167.47891235351562 141.2760467529297 168.72731018066406 140.22003173828125 C169.97569274902344 139.16403198242188 171.7351837158203 138.10751342773438 173.77960205078125 138.10546875"></path>
<path fill="#6bf0de" fill-opacity="1.0"  filling="0" d="M112.91610717773438 109.072021484375 C114.66203308105469 109.1221923828125 113.46395111083984 109.01748657226562 111.64839172363281 108.7792739868164 C109.83283996582031 108.54106140136719 107.39981079101562 108.16934204101562 106.67584228515625 107.68548583984375 C106.72091674804688 107.8052978515625 108.3316650390625 108.84979248046875 108.23028564453125 110.79742431640625 C108.20826721191406 110.73701477050781 108.69082641601562 110.28697204589844 109.5233383178711 109.86137390136719 C110.35585021972656 109.43578338623047 111.53831481933594 109.03463745117188 112.91610717773438 109.072021484375"></path></svg>