<svg xmlns="http://www.w3.org/2000/svg" viewBox="0.0 0.0 256.0 256.0" height="256.0px" width="256.0px"><path fill="#0d1e36" fill-opacity="1.0"  filling="0" d="M137.8000030517578 181.10000610351562 C139.10000610351562 180.35000610351562 140.25 179.5 140.0500030517578 178.14999389648438 L138.25 173.86248779296875 L136.45001220703125 169.57498168945312 L134.64999389648438 165.28750610351562 L132.85000610351562 161.0 L131.0500030517578 156.71249389648438 L129.25 152.4250030517578 L127.44999694824219 148.13751220703125 L125.6500015258789 143.85000610351562 C125.47500610351562 142.85000610351562 124.97500610351562 142.1125030517578 124.3125 141.74374389648438 C123.6500015258789 141.375 122.82499694824219 141.375 122.0 141.85000610351562 C121.1500015258789 142.3000030517578 120.4625015258789 143.125 120.0374984741211 144.08749389648438 C119.61250305175781 145.04998779296875 119.44999694824219 146.14999389648438 119.6500015258789 147.14999389648438 L121.75 151.28123474121094 L123.85000610351562 155.41249084472656 L125.94999694824219 159.5437469482422 L128.0500030517578 163.67498779296875 L130.14999389648438 167.80624389648438 L132.25 171.9375 L134.34999084472656 176.06875610351562 L136.4499969482422 180.1999969482422 L137.8000030517578 181.10000610351562"></path>
<path fill="#0d1e36" fill-opacity="1.0"  filling="0" d="M144.75 131.25 C144.96249389648438 129.9499969482422 145.03125 128.63125610351562 144.95547485351562 127.3203125 C144.8796844482422 126.0093765258789 144.6593780517578 124.70625305175781 144.2937469482422 123.4375 C143.92813110351562 122.16874694824219 143.4171905517578 120.93437194824219 142.76016235351562 119.76094055175781 C142.10311889648438 118.5875015258789 141.3000030517578 117.4749984741211 140.35000610351562 116.44999694824219 C139.25833129882812 115.26666259765625 138.0416717529297 114.26943969726562 136.73934936523438 113.45948791503906 C135.43704223632812 112.6495361328125 134.049072265625 112.02684783935547 132.6148223876953 111.59259033203125 C131.18055725097656 111.15833282470703 129.6999969482422 110.9124984741211 128.21250915527344 110.85624694824219 C126.72500610351562 110.79999542236328 125.23056030273438 110.93333435058594 123.76851654052734 111.25740814208984 C122.30647277832031 111.58148193359375 120.87684631347656 112.09629821777344 119.51897430419922 112.80300903320312 C118.16110229492188 113.50971984863281 116.875 114.40833282470703 115.69999694824219 115.5 C114.5999984741211 116.5 112.8499984741211 116.4000015258789 111.80000305175781 115.30000305175781 C110.80000305175781 114.19999694824219 110.8499984741211 112.5 111.94999694824219 111.44999694824219 C113.11249542236328 110.375 114.35624694824219 109.44296264648438 115.6595687866211 108.65312194824219 C116.962890625 107.86328125 118.3257827758789 107.21562194824219 119.7265625 106.7093734741211 C121.1273422241211 106.203125 122.5660171508789 105.8382797241211 124.0208969116211 105.61405944824219 C125.47578430175781 105.38983917236328 126.9468765258789 105.30624389648438 128.41250610351562 105.36249542236328 C129.8781280517578 105.41874694824219 131.33828735351562 105.61483764648438 132.7712860107422 105.94999694824219 C134.2042999267578 106.28514862060547 135.6101531982422 106.75936889648438 136.96719360351562 107.37187194824219 C138.32421875 107.984375 139.63241577148438 108.73515319824219 140.8701171875 109.62342834472656 C142.10781860351562 110.51171112060547 143.27499389648438 111.53749084472656 144.35000610351562 112.69999694824219 C145.5500030517578 113.98749542236328 146.57186889648438 115.37812042236328 147.4171905517578 116.84062194824219 C148.2624969482422 118.3031234741211 148.93125915527344 119.8375015258789 149.4250030517578 121.4124984741211 C149.91876220703125 122.98750305175781 150.2375030517578 124.6031265258789 150.3828125 126.2281265258789 C150.52813720703125 127.85313415527344 150.5 129.4875030517578 150.3000030517578 131.10000610351562 C149.375 131.125 148.4499969482422 131.14999389648438 147.52499389648438 131.1750030517578 C146.60000610351562 131.1999969482422 145.6750030517578 131.22500610351562 144.75 131.25"></path>
<path fill="#edb47b" fill-opacity="1.0"  filling="0" d="M152.6999969482422 134.10000610351562 C152.625 132.82501220703125 152.0500030517578 131.6875 151.1750030517578 130.8874969482422 C150.3000030517578 130.08749389648438 149.125 129.625 147.85000610351562 129.6999969482422 C146.5500030517578 129.77499389648438 145.41250610351562 130.35000610351562 144.61874389648438 131.22500610351562 C143.8249969482422 132.10000610351562 143.375 133.27499389648438 143.4499969482422 134.5500030517578 L143.5 135.89999389648438 C143.5749969482422 137.17498779296875 144.125 137.64999389648438 144.97499084472656 137.78750610351562 C145.8249969482422 137.9250030517578 146.97500610351562 137.72500610351562 148.25 137.64999389648438 L148.25 138.10000610351562 C149.52499389648438 138.02499389648438 150.6875 138.0 151.5124969482422 137.6687469482422 C152.33749389648438 137.33749389648438 152.8249969482422 136.6999969482422 152.75 135.39999389648438 L152.6999969482422 134.10000610351562"></path>
<path fill="#ffc489" fill-opacity="1.0"  filling="0" d="M152.6999969482422 133.8000030517578 C152.64999389648438 133.1999969482422 152.10000610351562 132.6999969482422 151.4499969482422 132.6999969482422 C150.85000610351562 132.75 150.35000610351562 133.3000030517578 150.35000610351562 133.9499969482422 L150.5500030517578 137.85000610351562 C150.60000610351562 138.5 151.14999389648438 139.0 151.8000030517578 138.9499969482422 C152.4499969482422 138.9499969482422 152.9499969482422 138.39999389648438 152.89999389648438 137.75 L152.6999969482422 133.8000030517578"></path>
<path fill="#edb47b" fill-opacity="1.0"  filling="0" d="M148.5 133.0 C148.4499969482422 131.4499969482422 147.0 129.8000030517578 145.4499969482422 130.35000610351562 C144.35000610351562 130.72500610351562 143.53750610351562 131.5500030517578 143.0187530517578 132.59375 C142.5 133.6374969482422 142.27499389648438 134.89999389648438 142.35000610351562 136.14999389648438 C142.39999389648438 137.6999969482422 144.14999389648438 136.0500030517578 145.75 136.0 C147.35000610351562 135.89999389648438 148.60000610351562 134.5500030517578 148.5 133.0"></path>
<path fill="#ffc489" fill-opacity="1.0"  filling="0" d="M145.75 134.1999969482422 C145.6999969482422 133.5500030517578 145.14999389648438 133.0500030517578 144.5 133.10000610351562 C143.85000610351562 133.10000610351562 143.39999389648438 133.64999389648438 143.39999389648438 134.3000030517578 L143.60000610351562 138.25 C143.64999389648438 138.85000610351562 144.1999969482422 139.35000610351562 144.85000610351562 139.35000610351562 C145.5 139.3000030517578 145.9499969482422 138.75 145.9499969482422 138.10000610351562 L145.75 134.1999969482422"></path>
<path fill="#ffc489" fill-opacity="1.0"  filling="0" d="M150.35000610351562 133.9499969482422 C150.35000610351562 133.3000030517578 149.8000030517578 132.8000030517578 149.14999389648438 132.85000610351562 C148.5 132.89999389648438 148.0 133.39999389648438 148.0500030517578 134.0500030517578 L148.25 138.0 C148.3000030517578 138.64999389648438 148.85000610351562 139.10000610351562 149.5 139.10000610351562 C150.10000610351562 139.0500030517578 150.60000610351562 138.5 150.5500030517578 137.85000610351562 L150.35000610351562 133.9499969482422"></path>
<path fill="#ffc489" fill-opacity="1.0"  filling="0" d="M148.0500030517578 134.0500030517578 C148.0 133.39999389648438 147.4499969482422 132.9499969482422 146.85000610351562 132.9499969482422 C146.1999969482422 133.0 145.6999969482422 133.5500030517578 145.75 134.1999969482422 L145.9499969482422 138.10000610351562 C145.9499969482422 138.75 146.5 139.25 147.14999389648438 139.1999969482422 C147.8000030517578 139.14999389648438 148.3000030517578 138.64999389648438 148.25 138.0 L148.0500030517578 134.0500030517578"></path>
<path fill="#ffc489" fill-opacity="1.0"  filling="0" d="M148.14999389648438 135.85000610351562 C148.10000610351562 135.3000030517578 147.64999389648438 134.85000610351562 147.10000610351562 134.89999389648438 L143.3000030517578 135.10000610351562 C142.75 135.14999389648438 142.3000030517578 135.60000610351562 142.35000610351562 136.14999389648438 C142.35000610351562 136.6999969482422 142.85000610351562 137.14999389648438 143.39999389648438 137.10000610351562 L147.1999969482422 136.89999389648438 C147.75 136.89999389648438 148.14999389648438 136.39999389648438 148.14999389648438 135.85000610351562"></path>
<path fill="#214c85" fill-opacity="1.0"  filling="0" d="M118.69999694824219 146.0500030517578 C118.9000015258789 147.5833282470703 119.39444732666016 149.022216796875 120.09074401855469 150.25926208496094 C120.78704071044922 151.4962921142578 121.68518829345703 152.53147888183594 122.69259643554688 153.2574005126953 C123.69999694824219 153.9833221435547 124.81666564941406 154.39999389648438 125.94999694824219 154.39999389648438 L129.9499969482422 154.39999389648438 L133.9499969482422 154.39999389648438 C135.0833282470703 154.39999389648438 136.08889770507812 153.9833221435547 136.90370178222656 153.2574005126953 C137.71852111816406 152.53147888183594 138.34259033203125 151.4962921142578 138.7129669189453 150.25926208496094 C139.08334350585938 149.022216796875 139.20001220703125 147.58334350585938 139.0 146.0500030517578 L138.87142944335938 141.2357177734375 L138.74285888671875 136.4214324951172 L138.61428833007812 131.60714721679688 L138.4857177734375 126.79286193847656 L138.35714721679688 121.97857666015625 L138.22857666015625 117.16429138183594 L138.10000610351562 112.3499984741211 C137.90000915527344 110.81666564941406 137.3222198486328 109.54444122314453 136.47036743164062 108.52963256835938 C135.61851501464844 107.51481628417969 134.49258422851562 106.75740814208984 133.1962890625 106.25370788574219 C131.89999389648438 105.75 130.43331909179688 105.5 128.89999389648438 105.5 L125.31666564941406 105.5 L121.73333740234375 105.5 L118.1500015258789 105.5 C116.61666870117188 105.5 115.2388916015625 105.91666412353516 114.10556030273438 106.64259338378906 C112.97222900390625 107.36851501464844 112.08333587646484 108.40370178222656 111.52777862548828 109.64073944091797 C110.97222137451172 110.87777709960938 110.75 112.31666564941406 110.94999694824219 113.8499984741211 L112.05714416503906 118.45000457763672 L113.16429138183594 123.05000305175781 L114.27143096923828 127.6500015258789 L115.37857055664062 132.25 L116.4857177734375 136.85000610351562 L117.59285736083984 141.4499969482422 L118.69999694824219 146.0500030517578"></path>
<path fill="#0d1e36" fill-opacity="1.0"  filling="0" d="M117.6500015258789 141.6999969482422 L118.69999694824219 146.0500030517578 C118.9000015258789 147.5833282470703 119.39444732666016 149.022216796875 120.09074401855469 150.25926208496094 C120.78704071044922 151.4962921142578 121.68518829345703 152.53147888183594 122.69259643554688 153.2574005126953 C123.69999694824219 153.9833221435547 124.81666564941406 154.39999389648438 125.94999694824219 154.39999389648438 L129.9499969482422 154.39999389648438 L133.9499969482422 154.39999389648438 C135.0833282470703 154.39999389648438 136.08889770507812 153.9833221435547 136.90370178222656 153.2574005126953 C137.71852111816406 152.53147888183594 138.34259033203125 151.4962921142578 138.7129669189453 150.25926208496094 C139.08334350585938 149.022216796875 139.20001220703125 147.58334350585938 139.0 146.0500030517578 L138.89999389648438 141.6999969482422 L134.64999389648438 141.6999969482422 L130.39999389648438 141.70001220703125 L126.1500015258789 141.70001220703125 L121.9000015258789 141.6999969482422 L117.6500015258789 141.6999969482422"></path>
<path fill="#edb47b" fill-opacity="1.0"  filling="0" d="M118.05000305175781 107.25 C118.4000015258789 108.19999694824219 119.0875015258789 108.9000015258789 119.91875457763672 109.2750015258789 C120.75 109.6500015258789 121.72500610351562 109.69999694824219 122.6500015258789 109.3499984741211 C123.57499694824219 109.02499389648438 124.2750015258789 108.33749389648438 124.65625 107.5 C125.0374984741211 106.6624984741211 125.0999984741211 105.67500305175781 124.75 104.75 L123.55000305175781 101.51667022705078 L122.35000610351562 98.28334045410156 L121.1500015258789 95.05000305175781 C120.80000305175781 94.125 120.0999984741211 93.42500305175781 119.2562484741211 93.04374694824219 C118.4124984741211 92.6624984741211 117.42500305175781 92.5999984741211 116.5 92.94999694824219 C115.57499694824219 93.30000305175781 114.875 94.0 114.4937515258789 94.84375 C114.11250305175781 95.6875 114.05000305175781 96.67500305175781 114.4000015258789 97.5999984741211 L115.61666870117188 100.81666564941406 L116.83334350585938 104.03333282470703 L118.05000305175781 107.25"></path>
<path fill="#ffc489" fill-opacity="1.0"  filling="0" d="M94.94999694824219 88.6500015258789 C94.94999694824219 90.3499984741211 95.22599792480469 91.98600006103516 95.735595703125 93.5156021118164 C96.24519348144531 95.04520416259766 96.98839569091797 96.46839904785156 97.92279815673828 97.74280548095703 C98.8572006225586 99.01720428466797 99.98279571533203 100.14280700683594 101.2572021484375 101.07720184326172 C102.53160095214844 102.0115966796875 103.95480346679688 102.75479888916016 105.4843978881836 103.264404296875 C107.01399993896484 103.77400207519531 108.64999389648438 104.05000305175781 110.3499984741211 104.05000305175781 C112.05999755859375 104.05000305175781 113.7040023803711 103.77400207519531 115.23999786376953 103.264404296875 C116.7760009765625 102.75480651855469 118.2040023803711 102.01160430908203 119.48200225830078 101.07720184326172 C120.76000213623047 100.1427993774414 121.88800048828125 99.01720428466797 122.82400512695312 97.7427978515625 C123.76000213623047 96.46839904785156 124.50399780273438 95.04519653320312 125.01399993896484 93.5156021118164 C125.52400207519531 91.98600006103516 125.80000305175781 90.35000610351562 125.80000305175781 88.6500015258789 L125.80000305175781 84.70000457763672 L125.80000305175781 80.75000762939453 L125.80000305175781 76.80000305175781 C125.80000305175781 75.09000396728516 125.52400207519531 73.44599914550781 125.01399993896484 71.91000366210938 C124.50399780273438 70.3740005493164 123.76000213623047 68.94599914550781 122.8239974975586 67.66799926757812 C121.88800048828125 66.38999938964844 120.76000213623047 65.26200103759766 119.48200225830078 64.32599639892578 C118.2040023803711 63.38999938964844 116.7760009765625 62.64599609375 115.24000549316406 62.1359977722168 C113.7040023803711 61.625999450683594 112.05999755859375 61.349998474121094 110.3499984741211 61.349998474121094 C108.6500015258789 61.349998474121094 107.01399993896484 61.625999450683594 105.4843978881836 62.1359977722168 C103.95479583740234 62.645999908447266 102.53160095214844 63.38999938964844 101.25719451904297 64.32599639892578 C99.98279571533203 65.26200103759766 98.85719299316406 66.38999938964844 97.92279815673828 67.66799926757812 C96.9884033203125 68.94599914550781 96.24520111083984 70.3740005493164 95.735595703125 71.90999603271484 C95.22599792480469 73.44599914550781 94.94999694824219 75.08999633789062 94.94999694824219 76.80000305175781 L94.94999694824219 80.75000762939453 L94.94999694824219 84.70000457763672 L94.94999694824219 88.6500015258789"></path>
<path fill="#523416" fill-opacity="1.0"  filling="0" d="M111.25 82.4000015258789 C111.25 83.25 111.94999694824219 83.94999694824219 112.80000305175781 83.94999694824219 C113.6500015258789 83.94999694824219 114.3499984741211 83.25 114.3499984741211 82.4000015258789 L114.3499984741211 80.4000015258789 C114.3499984741211 79.55000305175781 113.6500015258789 78.8499984741211 112.80000305175781 78.8499984741211 C111.94999694824219 78.8499984741211 111.25 79.55000305175781 111.25 80.4000015258789 L111.25 82.4000015258789"></path>
<path fill="#523416" fill-opacity="1.0"  filling="0" d="M97.8499984741211 82.4000015258789 C97.8499984741211 83.25 98.55000305175781 83.94999694824219 99.4000015258789 83.94999694824219 C100.25 83.94999694824219 100.94999694824219 83.25 100.94999694824219 82.4000015258789 L100.94999694824219 80.4000015258789 C100.94999694824219 79.55000305175781 100.25 78.8499984741211 99.4000015258789 78.8499984741211 C98.55000305175781 78.8499984741211 97.8499984741211 79.55000305175781 97.8499984741211 80.4000015258789 L97.8499984741211 82.4000015258789"></path>
<path fill="#ed997b" fill-opacity="1.0"  filling="0" d="M103.4000015258789 90.0 C103.4000015258789 90.8499984741211 104.0999984741211 91.55000305175781 104.94999694824219 91.55000305175781 C105.80000305175781 91.55000305175781 106.44999694824219 90.8499984741211 106.44999694824219 90.0 L106.44999694824219 87.80000305175781 C106.44999694824219 86.94999694824219 105.80000305175781 86.30000305175781 104.94999694824219 86.30000305175781 C104.0999984741211 86.30000305175781 103.4000015258789 86.94999694824219 103.4000015258789 87.80000305175781 L103.4000015258789 90.0"></path>
<path fill="#523416" fill-opacity="1.0"  filling="0" d="M108.6500015258789 99.6500015258789 C109.44999694824219 99.75 109.44999694824219 99.75 110.19999694824219 99.5 C112.0 98.9000015258789 112.0 98.9000015258789 112.4000015258789 97.1500015258789 C112.25 97.0999984741211 112.25 97.0999984741211 112.19999694824219 96.94999694824219 C112.0999984741211 96.6500015258789 112.0999984741211 96.6500015258789 112.4000015258789 96.5999984741211 C112.44999694824219 96.55000305175781 112.44999694824219 96.55000305175781 112.55000305175781 96.55000305175781 C112.6500015258789 96.5 112.6500015258789 96.5 112.69999694824219 96.5 C112.75 96.5 112.75 96.5 112.80000305175781 96.5 C113.05000305175781 96.55000305175781 113.05000305175781 96.55000305175781 113.05000305175781 96.80000305175781 C112.69999694824219 99.25 112.69999694824219 99.25 110.3499984741211 100.05000305175781 C109.5 100.30000305175781 109.5 100.30000305175781 108.5999984741211 100.19999694824219 C108.44999694824219 100.1500015258789 108.44999694824219 100.1500015258789 108.4000015258789 100.0999984741211 C108.3499984741211 100.0 108.3499984741211 100.0 108.3499984741211 99.9000015258789 C108.4000015258789 99.5999984741211 108.4000015258789 99.5999984741211 108.6500015258789 99.6500015258789"></path>
<path fill="#c25620" fill-opacity="1.0"  filling="0" d="M121.69999694824219 83.8499984741211 C121.69999694824219 84.5 122.19999694824219 85.0 122.8499984741211 85.0 C123.44999694824219 85.0 123.94999694824219 84.5 123.94999694824219 83.8499984741211 L123.94999694824219 79.17500305175781 L123.94999694824219 74.5 C123.94999694824219 73.8499984741211 123.44999694824219 73.3499984741211 122.8499984741211 73.3499984741211 C122.19999694824219 73.3499984741211 121.69999694824219 73.8499984741211 121.69999694824219 74.5 L121.69999694824219 79.17500305175781 L121.69999694824219 83.8499984741211"></path>
<path fill="#c25620" fill-opacity="1.0"  filling="0" d="M127.44999694824219 83.5 C127.44999694824219 83.5 126.3499984741211 83.61250305175781 125.2125015258789 83.125 C124.07499694824219 82.63749694824219 122.9000015258789 81.55000305175781 122.75 79.1500015258789 C122.68000030517578 78.18000030517578 122.26000213623047 77.18600463867188 121.55840301513672 76.24760437011719 C120.85680389404297 75.3092041015625 119.87360382080078 74.42640686035156 118.67720031738281 73.67880249023438 C117.48079681396484 72.93120574951172 116.07119750976562 72.31880187988281 114.51679992675781 71.92120361328125 C112.96240234375 71.52360534667969 111.26319885253906 71.3407974243164 109.48760223388672 71.45240020751953 C107.71199798583984 71.56399536132812 105.86000061035156 71.97000122070312 104.0 72.75 C102.1500015258789 73.52999877929688 100.41999816894531 73.97799682617188 98.84439849853516 74.12640380859375 C97.268798828125 74.2748031616211 95.84759521484375 74.12360382080078 94.61519622802734 73.7052001953125 C93.38279724121094 73.28679656982422 92.33919525146484 72.6011962890625 91.518798828125 71.68079376220703 C90.69839477539062 70.76039123535156 90.1011962890625 69.60519409179688 89.7615966796875 68.24759674072266 C89.4219970703125 66.88999938964844 89.33999633789062 65.33000183105469 89.55000305175781 63.599998474121094 C89.55000305175781 63.599998474121094 90.0875015258789 64.32499694824219 91.17500305175781 64.6500015258789 C92.26249694824219 64.9749984741211 93.89999389648438 64.9000015258789 96.0999984741211 63.30000305175781 C96.7699966430664 62.820003509521484 97.68799591064453 62.18800354003906 98.80919647216797 61.52880096435547 C99.9303970336914 60.869598388671875 101.25479888916016 60.18320083618164 102.73759460449219 59.594398498535156 C104.22039794921875 59.00559997558594 105.8615951538086 58.514400482177734 107.61639404296875 58.245601654052734 C109.37120056152344 57.97679901123047 111.23959350585938 57.93040084838867 113.17679595947266 58.231201171875 C115.11399841308594 58.53200149536133 117.1199951171875 59.18000030517578 119.1500015258789 60.30000305175781 C120.81666564941406 61.22500228881836 122.20694732666016 62.2319450378418 123.35856628417969 63.310184478759766 C124.51018524169922 64.388427734375 125.42314910888672 65.5379638671875 126.13518524169922 66.7481460571289 C126.84722137451172 67.95832824707031 127.35833740234375 69.22916412353516 127.70625305175781 70.55000305175781 C128.05416870117188 71.87083435058594 128.2388916015625 73.24166870117188 128.2981414794922 74.65185546875 C128.35739135742188 76.06204223632812 128.29119873046875 77.51158142089844 128.13726806640625 78.98982238769531 C127.98332214355469 80.46806335449219 127.74166107177734 81.97500610351562 127.44999694824219 83.5"></path>
<path fill="#ffc489" fill-opacity="1.0"  filling="0" d="M123.94999694824219 85.19999694824219 C123.94999694824219 86.6500015258789 125.1500015258789 87.80000305175781 126.55000305175781 87.80000305175781 C128.0 87.80000305175781 129.14999389648438 86.6500015258789 129.14999389648438 85.19999694824219 L129.14999389648438 81.75 C129.14999389648438 80.30000305175781 128.0 79.1500015258789 126.55000305175781 79.1500015258789 C125.1500015258789 79.1500015258789 123.94999694824219 80.30000305175781 123.94999694824219 81.75 L123.94999694824219 85.19999694824219"></path>
<path fill="#214c85" fill-opacity="1.0"  filling="0" d="M141.9499969482422 181.1999969482422 C142.0 182.1999969482422 141.6374969482422 183.1125030517578 141.0124969482422 183.78750610351562 C140.3874969482422 184.46249389648438 139.5 184.89999389648438 138.5 184.9499969482422 L134.6999969482422 185.17498779296875 L130.89999389648438 185.39999389648438 C129.89999389648438 185.42498779296875 128.98748779296875 185.0625 128.3125 184.44374084472656 C127.63749694824219 183.8249969482422 127.19999694824219 182.9499969482422 127.1500015258789 181.9499969482422 C127.125 180.9499969482422 127.48750305175781 180.03750610351562 128.1062469482422 179.3625030517578 C128.72500610351562 178.6875 129.60000610351562 178.25 130.60000610351562 178.1999969482422 L134.39999389648438 177.97500610351562 L138.1999969482422 177.75 C139.1999969482422 177.72500610351562 140.125 178.10000610351562 140.80624389648438 178.72500610351562 C141.48748779296875 179.35000610351562 141.92498779296875 180.22500610351562 141.9499969482422 181.1999969482422"></path>
<path fill="#07101c" fill-opacity="1.0"  filling="0" d="M165.75 180.3000030517578 L160.94166564941406 180.7166748046875 L156.13333129882812 181.13333129882812 L151.3249969482422 181.5500030517578 L146.51666259765625 181.9666748046875 L141.7083282470703 182.38333129882812 L136.89999389648438 182.8000030517578 L132.0916748046875 183.2166748046875 L127.28334045410156 183.6333465576172 L122.47500610351562 184.0500030517578 L117.66666412353516 184.4666748046875 L112.85833740234375 184.88333129882812 L108.05000305175781 185.3000030517578 C106.625 185.4250030517578 105.23750305175781 184.72500610351562 104.05000305175781 183.6999969482422 C102.86250305175781 182.6750030517578 101.875 181.3249969482422 101.25 180.14999389648438 C101.05000305175781 180.85000610351562 101.0 181.5500030517578 101.0999984741211 182.3000030517578 C101.19999694824219 183.56666564941406 101.63888549804688 184.727783203125 102.32221984863281 185.6999969482422 C103.00555419921875 186.67221069335938 103.93333435058594 187.45555114746094 105.0111083984375 187.96665954589844 C106.0888900756836 188.477783203125 107.31666564941406 188.7166748046875 108.5999984741211 188.60000610351562 L113.38750457763672 188.18751525878906 L118.17500305175781 187.77500915527344 L122.96249389648438 187.36251831054688 L127.75 186.95001220703125 L132.53750610351562 186.53750610351562 L137.3249969482422 186.125 L142.11248779296875 185.71249389648438 L146.90000915527344 185.3000030517578 L151.6875 184.88748168945312 L156.47500610351562 184.47499084472656 L161.26251220703125 184.0625 L166.0500030517578 183.64999389648438 L165.75 180.3000030517578"></path>
<path fill="#0d1e36" fill-opacity="1.0"  filling="0" d="M189.9499969482422 179.4499969482422 L185.046142578125 180.1846160888672 L180.14231872558594 180.91921997070312 L175.23846435546875 181.6538543701172 L170.33460998535156 182.38845825195312 L165.43077087402344 183.12307739257812 L160.52691650390625 183.85769653320312 L155.62307739257812 184.59231567382812 L150.71923828125 185.32693481445312 L145.8153839111328 186.06155395507812 L140.91152954101562 186.796142578125 L136.0076904296875 187.53077697753906 L131.1038360595703 188.265380859375 L126.19999694824219 189.0 C124.625 189.25 123.0374984741211 188.5749969482422 121.64375305175781 187.52499389648438 C120.25 186.47500610351562 119.05000305175781 185.0500030517578 118.25 183.8000030517578 C118.0999984741211 184.5500030517578 118.0999984741211 185.35000610351562 118.25 186.1999969482422 C118.44999694824219 187.59999084472656 119.02222442626953 188.8555450439453 119.85185241699219 189.88333129882812 C120.68148040771484 190.91110229492188 121.76851654052734 191.7111053466797 122.9981460571289 192.1999969482422 C124.227783203125 192.6888885498047 125.60000610351562 192.86666870117188 127.0 192.64999389648438 L131.88461303710938 191.91921997070312 L136.76922607421875 191.18846130371094 L141.65383911132812 190.4576873779297 L146.53846740722656 189.7269287109375 L151.42308044433594 188.99615478515625 L156.30770874023438 188.265380859375 L161.1923065185547 187.53460693359375 L166.07693481445312 186.80384826660156 L170.96153259277344 186.0730743408203 L175.84616088867188 185.34230041503906 L180.73077392578125 184.6115264892578 L185.61538696289062 183.88076782226562 L190.5 183.14999389648438 L189.9499969482422 179.4499969482422"></path>
<path fill="#0d1e36" fill-opacity="1.0"  filling="0" d="M160.9499969482422 181.35000610351562 C162.4499969482422 180.5500030517578 163.64999389648438 179.60000610351562 163.0 178.35000610351562 L159.9562530517578 174.4562530517578 L156.91250610351562 170.56251525878906 L153.86874389648438 166.6687469482422 L150.8249969482422 162.77499389648438 L147.78125 158.88125610351562 L144.73748779296875 154.98748779296875 L141.69374084472656 151.09375 L138.64999389648438 147.1999969482422 C138.14999389648438 146.27499389648438 137.3125 145.6374969482422 136.3625030517578 145.3625030517578 C135.41250610351562 145.08749389648438 134.35000610351562 145.17498779296875 133.39999389648438 145.6999969482422 C132.4499969482422 146.1999969482422 131.8000030517578 147.03750610351562 131.5187530517578 147.9812469482422 C131.2375030517578 148.9250030517578 131.32501220703125 149.97500610351562 131.85000610351562 150.89999389648438 L134.87222290039062 154.20555114746094 L137.89443969726562 157.5111083984375 L140.91668701171875 160.81666564941406 L143.93890380859375 164.12222290039062 L146.96112060546875 167.4277801513672 L149.98333740234375 170.73333740234375 L153.00555419921875 174.03887939453125 L156.02777099609375 177.3444366455078 L159.0500030517578 180.64999389648438 L160.9499969482422 181.35000610351562"></path>
<path fill="#214c85" fill-opacity="1.0"  filling="0" d="M165.35000610351562 181.35000610351562 C165.39999389648438 182.35000610351562 165.03750610351562 183.26251220703125 164.4187469482422 183.9375 C163.79998779296875 184.6125030517578 162.92498779296875 185.0500030517578 161.9499969482422 185.10000610351562 L158.125 185.3000030517578 L154.3000030517578 185.5 C153.32501220703125 185.5500030517578 152.41250610351562 185.1875 151.7375030517578 184.5625 C151.0625 183.9375 150.625 183.0500030517578 150.60000610351562 182.0500030517578 C150.5500030517578 181.07501220703125 150.91250610351562 180.16250610351562 151.53750610351562 179.4875030517578 C152.16250610351562 178.8125 153.0500030517578 178.375 154.0500030517578 178.35000610351562 L157.85000610351562 178.125 L161.64999389648438 177.89999389648438 C162.625 177.85000610351562 163.53750610351562 178.21249389648438 164.21250915527344 178.83750915527344 C164.88751220703125 179.46250915527344 165.32501220703125 180.35000610351562 165.35000610351562 181.35000610351562"></path>
<path fill="#214c85" fill-opacity="1.0"  filling="0" d="M134.25 108.19999694824219 C135.91429138183594 107.88571166992188 137.55918884277344 107.78265380859375 139.15830993652344 107.87346649169922 C140.75743103027344 107.96428680419922 142.310791015625 108.24897766113281 143.79197692871094 108.710205078125 C145.27317810058594 109.17143249511719 146.6822052001953 109.8091812133789 147.99270629882812 110.60612487792969 C149.30320739746094 111.40306091308594 150.51515197753906 112.35918426513672 151.60218811035156 113.45714569091797 C152.689208984375 114.55509948730469 153.65130615234375 115.7948989868164 154.46209716796875 117.1591796875 C155.27288818359375 118.52346801757812 155.932373046875 120.01223754882812 156.4141387939453 121.608154296875 C156.8959197998047 123.2040786743164 157.20001220703125 124.90713500976562 157.3000030517578 126.69999694824219 C157.375 128.1875 157.3156280517578 129.66561889648438 157.1320343017578 131.1203155517578 C156.9484405517578 132.5749969482422 156.640625 134.00625610351562 156.21875 135.39999389648438 C155.796875 136.7937469482422 155.2609405517578 138.14999389648438 154.62109375 139.45468139648438 C153.9812469482422 140.75936889648438 153.23748779296875 142.0124969482422 152.39999389648438 143.1999969482422 C151.64999389648438 142.79998779296875 150.92498779296875 142.3874969482422 150.2062530517578 141.96875 C149.4875030517578 141.5500030517578 148.77499389648438 141.125 148.0500030517578 140.6999969482422 C148.9666748046875 139.46665954589844 149.75 138.13333129882812 150.37777709960938 136.72962951660156 C151.00555419921875 135.325927734375 151.477783203125 133.8518524169922 151.77223205566406 132.3370361328125 C152.06668090820312 130.8222198486328 152.183349609375 129.26666259765625 152.10000610351562 127.69999694824219 C152.00833129882812 126.10832977294922 151.71389770507812 124.60694122314453 151.24444580078125 123.2182846069336 C150.77499389648438 121.82962799072266 150.13055419921875 120.55370330810547 149.33888244628906 119.4129638671875 C148.54721069335938 118.27222442626953 147.60833740234375 117.26667022705078 146.5500030517578 116.41874694824219 C145.49166870117188 115.57083129882812 144.3138885498047 114.88055419921875 143.04444885253906 114.37036895751953 C141.77499389648438 113.86018371582031 140.4138946533203 113.53009033203125 138.9888916015625 113.40254974365234 C137.5638885498047 113.2750015258789 136.07501220703125 113.35000610351562 134.5500030517578 113.6500015258789 C133.14999389648438 113.9000015258789 131.89999389648438 112.9000015258789 131.85000610351562 111.4000015258789 C131.75 109.9000015258789 132.85000610351562 108.44999694824219 134.25 108.19999694824219"></path>
<path fill="#ffc489" fill-opacity="1.0"  filling="0" d="M143.6999969482422 143.25 L144.6999969482422 141.85000610351562 C143.9499969482422 141.60000610351562 143.4499969482422 141.3000030517578 143.9499969482422 140.60000610351562 C144.72500610351562 139.47500610351562 145.75 138.53750610351562 146.8874969482422 137.98126220703125 C148.02499389648438 137.4250030517578 149.27499389648438 137.25 150.5 137.64999389648438 C150.60000610351562 137.6999969482422 150.75 137.75 150.89999389648438 137.85000610351562 C151.60000610351562 137.9499969482422 152.3000030517578 138.1999969482422 152.9499969482422 138.64999389648438 C154.0 139.375 154.6875 140.4375 154.96875 141.60000610351562 C155.25 142.7624969482422 155.125 144.02499389648438 154.5500030517578 145.14999389648438 C154.5 145.1999969482422 154.4499969482422 145.3000030517578 154.39999389648438 145.39999389648438 L154.25 145.60000610351562 L153.4499969482422 146.8000030517578 L152.0 148.89999389648438 C151.64999389648438 149.4499969482422 150.85000610351562 149.60000610351562 150.3000030517578 149.1999969482422 C149.6999969482422 148.85000610351562 149.5500030517578 148.10000610351562 149.89999389648438 147.5 C149.5 148.0500030517578 148.75 148.1999969482422 148.1999969482422 147.8000030517578 C147.64999389648438 147.4499969482422 147.5 146.6999969482422 147.8000030517578 146.14999389648438 L147.85000610351562 146.0500030517578 C147.5 146.64999389648438 146.6999969482422 146.8000030517578 146.10000610351562 146.39999389648438 C145.5500030517578 146.0 145.39999389648438 145.1999969482422 145.8000030517578 144.64999389648438 C145.39999389648438 145.1999969482422 144.60000610351562 145.35000610351562 144.0500030517578 145.0 C143.5 144.60000610351562 143.35000610351562 143.8000030517578 143.6999969482422 143.25"></path>
</svg>