<svg xmlns="http://www.w3.org/2000/svg" viewBox="0 0 512 512" height="512px" width="512px"><path fill="#0d1e36" fill-opacity="1.0"  filling="0" d="M 275.6 362.2 C 278.2 360.7 280.5 359 280.1 356.3 L 251.3 287.7 C 250.6 283.7 247.3 281.8 244 283.7 L 244 283.7 C 240.6 285.5 238.5 290.3 239.3 294.3 L 272.9 360.4 L 275.6 362.2 Z"></path>
<path fill="#0d1e36" fill-opacity="1.0"  filling="0" d="M 289.5 262.5 C 291.2 252.1 288.3 241.1 280.7 232.9 C 267.6 218.7 245.5 217.9 231.4 231 C 229.2 233 225.7 232.8 223.6 230.6 C 221.6 228.4 221.7 225 223.9 222.9 C 242.5 205.7 271.5 206.8 288.7 225.4 C 298.3 235.7 302.2 249.3 300.6 262.2 C 296.9 262.3 293.2 262.4 289.5 262.5 Z"></path>
<path fill="#edb47b" fill-opacity="1.0"  filling="0" d="M 305.4 268.2 C 305.1 263.1 300.8 259.1 295.7 259.4 L 295.7 259.4 C 290.5 259.7 286.6 264 286.9 269.1 L 287 271.8 C 287.3 276.9 291.4 275.6 296.5 275.3 L 296.5 276.2 C 301.6 275.9 305.8 276 305.5 270.8 L 305.4 268.2 Z"></path>
<path fill="#ffc489" fill-opacity="1.0"  filling="0" d="M 305.4 267.6 C 305.3 266.4 304.2 265.4 302.9 265.4 L 302.9 265.4 C 301.7 265.5 300.7 266.6 300.7 267.9 L 301.1 275.7 C 301.2 277 302.3 278 303.6 277.9 L 303.6 277.9 C 304.9 277.9 305.9 276.8 305.8 275.5 L 305.4 267.6 Z"></path>
<path fill="#edb47b" fill-opacity="1.0"  filling="0" d="M 297 266 C 296.9 262.9 294 259.6 290.9 260.7 C 286.5 262.2 284.4 267.3 284.7 272.3 C 284.8 275.4 288.3 272.1 291.5 272 C 294.7 271.8 297.2 269.1 297 266 Z"></path>
<path fill="#ffc489" fill-opacity="1.0"  filling="0" d="M 291.5 268.4 C 291.4 267.1 290.3 266.1 289 266.2 L 289 266.2 C 287.7 266.2 286.8 267.3 286.8 268.6 L 287.2 276.5 C 287.3 277.7 288.4 278.7 289.7 278.7 L 289.7 278.7 C 291 278.6 291.9 277.5 291.9 276.2 L 291.5 268.4 Z"></path>
<path fill="#ffc489" fill-opacity="1.0"  filling="0" d="M 300.7 267.9 C 300.7 266.6 299.6 265.6 298.3 265.7 L 298.3 265.7 C 297 265.8 296 266.8 296.1 268.1 L 296.5 276 C 296.6 277.3 297.7 278.2 299 278.2 L 299 278.2 C 300.2 278.1 301.2 277 301.1 275.7 L 300.7 267.9 Z"></path>
<path fill="#ffc489" fill-opacity="1.0"  filling="0" d="M 296.1 268.1 C 296 266.8 294.9 265.9 293.7 265.9 L 293.7 265.9 C 292.4 266 291.4 267.1 291.5 268.4 L 291.9 276.2 C 291.9 277.5 293 278.5 294.3 278.4 L 294.3 278.4 C 295.6 278.3 296.6 277.3 296.5 276 L 296.1 268.1 Z"></path>
<path fill="#ffc489" fill-opacity="1.0"  filling="0" d="M 296.3 271.7 C 296.2 270.6 295.3 269.7 294.2 269.8 L 286.6 270.2 C 285.5 270.3 284.6 271.2 284.7 272.3 L 284.7 272.3 C 284.7 273.4 285.7 274.3 286.8 274.2 L 294.4 273.8 C 295.5 273.8 296.3 272.8 296.3 271.7 L 296.3 271.7 Z"></path>
<path fill="#214c85" fill-opacity="1.0"  filling="0" d="M 237.4 292.1 C 238.6 301.3 245.1 308.8 251.9 308.8 L 267.9 308.8 C 274.7 308.8 279.2 301.3 278 292.1 L 276.2 224.7 C 275 215.5 267 211 257.8 211 L 236.3 211 C 227.1 211 220.7 218.5 221.9 227.7 L 237.4 292.1 Z"></path>
<path fill="#0d1e36" fill-opacity="1.0"  filling="0" d="M 235.3 283.4 L 237.4 292.1 C 238.6 301.3 245.1 308.8 251.9 308.8 L 267.9 308.8 C 274.7 308.8 279.2 301.3 278 292.1 L 277.8 283.4 L 235.3 283.4 Z"></path>
<path fill="#edb47b" fill-opacity="1.0"  filling="0" d="M 236.1 214.5 C 237.5 218.3 241.6 220.1 245.3 218.7 L 245.3 218.7 C 249 217.4 250.9 213.2 249.5 209.5 L 242.3 190.1 C 240.9 186.4 236.7 184.5 233 185.9 L 233 185.9 C 229.3 187.3 227.4 191.5 228.8 195.2 L 236.1 214.5 Z"></path>
<path fill="#ffc489" fill-opacity="1.0"  filling="0" d="M 189.9 177.3 C 189.9 194.3 203.7 208.1 220.7 208.1 L 220.7 208.1 C 237.8 208.1 251.6 194.3 251.6 177.3 L 251.6 153.6 C 251.6 136.5 237.8 122.7 220.7 122.7 L 220.7 122.7 C 203.7 122.7 189.9 136.5 189.9 153.6 L 189.9 177.3 Z"></path>
<path fill="#523416" fill-opacity="1.0"  filling="0" d="M 222.5 164.8 C 222.5 166.5 223.9 167.9 225.6 167.9 L 225.6 167.9 C 227.3 167.9 228.7 166.5 228.7 164.8 L 228.7 160.8 C 228.7 159.1 227.3 157.7 225.6 157.7 L 225.6 157.7 C 223.9 157.7 222.5 159.1 222.5 160.8 L 222.5 164.8 Z"></path>
<path fill="#523416" fill-opacity="1.0"  filling="0" d="M 195.7 164.8 C 195.7 166.5 197.1 167.9 198.8 167.9 L 198.8 167.9 C 200.5 167.9 201.9 166.5 201.9 164.8 L 201.9 160.8 C 201.9 159.1 200.5 157.7 198.8 157.7 L 198.8 157.7 C 197.1 157.7 195.7 159.1 195.7 160.8 L 195.7 164.8 Z"></path>
<path fill="#ed997b" fill-opacity="1.0"  filling="0" d="M 206.8 180 C 206.8 181.7 208.2 183.1 209.9 183.1 L 209.9 183.1 C 211.6 183.1 212.9 181.7 212.9 180 L 212.9 175.6 C 212.9 173.9 211.6 172.6 209.9 172.6 L 209.9 172.6 C 208.2 172.6 206.8 173.9 206.8 175.6 L 206.8 180 Z"></path>
<path fill="#523416" fill-opacity="1.0"  filling="0" d="M 217.3 199.3 C 218.9 199.5 218.9 199.5 220.4 199 C 224 197.8 224 197.8 224.8 194.3 C 224.5 194.2 224.5 194.2 224.4 193.9 C 224.2 193.3 224.2 193.3 224.8 193.2 C 224.9 193.1 224.9 193.1 225.1 193.1 C 225.3 193 225.3 193 225.4 193 C 225.5 193 225.5 193 225.6 193 C 226.1 193.1 226.1 193.1 226.1 193.6 C 225.4 198.5 225.4 198.5 220.7 200.1 C 219 200.6 219 200.6 217.2 200.4 C 216.9 200.3 216.9 200.3 216.8 200.2 C 216.7 200 216.7 200 216.7 199.8 C 216.8 199.2 216.8 199.2 217.3 199.3 Z"></path>
<path fill="#c25620" fill-opacity="1.0"  filling="0" d="M 243.4 167.7 C 243.4 169 244.4 170 245.7 170 L 245.7 170 C 246.9 170 247.9 169 247.9 167.7 L 247.9 149 C 247.9 147.7 246.9 146.7 245.7 146.7 L 245.7 146.7 C 244.4 146.7 243.4 147.7 243.4 149 L 243.4 167.7 Z"></path>
<path fill="#c25620" fill-opacity="1.0"  filling="0" d="M 254.9 167 C 254.9 167 246.1 167.9 245.5 158.3 C 244.8 148.6 226.6 137.7 208 145.5 C 189.5 153.3 177 144.5 179.1 127.2 C 179.1 127.2 183.4 133 192.2 126.6 C 198.9 121.8 218 109.4 238.3 120.6 C 258.3 131.7 258.4 148.7 254.9 167 Z"></path>
<path fill="#ffc489" fill-opacity="1.0"  filling="0" d="M 247.9 170.4 C 247.9 173.3 250.3 175.6 253.1 175.6 L 253.1 175.6 C 256 175.6 258.3 173.3 258.3 170.4 L 258.3 163.5 C 258.3 160.6 256 158.3 253.1 158.3 L 253.1 158.3 C 250.3 158.3 247.9 160.6 247.9 163.5 L 247.9 170.4 Z"></path>
<path fill="#214c85" fill-opacity="1.0"  filling="0" d="M 283.9 362.4 C 284.1 366.4 281 369.7 277 369.9 L 261.8 370.8 C 257.8 370.9 254.5 367.9 254.3 363.9 L 254.3 363.9 C 254.2 359.9 257.2 356.6 261.2 356.4 L 276.4 355.5 C 280.4 355.4 283.8 358.5 283.9 362.4 L 283.9 362.4 Z"></path>
<path fill="#07101c" fill-opacity="1.0"  filling="0" d="M 331.5 360.6 L 216.1 370.6 C 210.4 371.1 205 365 202.5 360.3 C 202.1 361.7 202 363.1 202.2 364.6 C 202.8 372.2 209.5 377.9 217.2 377.2 L 332.1 367.3 L 331.5 360.6 Z"></path>
<path fill="#0d1e36" fill-opacity="1.0"  filling="0" d="M 379.9 358.9 L 252.4 378 C 246.1 379 239.7 372.6 236.5 367.6 C 236.2 369.1 236.2 370.7 236.5 372.4 C 237.7 380.8 245.6 386.6 254 385.3 L 381 366.3 L 379.9 358.9 Z"></path>
<path fill="#0d1e36" fill-opacity="1.0"  filling="0" d="M 321.9 362.7 C 324.9 361.1 327.3 359.2 326 356.7 L 277.3 294.4 C 275.3 290.7 270.6 289.3 266.8 291.4 L 266.8 291.4 C 263 293.4 261.6 298.1 263.7 301.8 L 318.1 361.3 L 321.9 362.7 Z"></path>
<path fill="#214c85" fill-opacity="1.0"  filling="0" d="M 330.7 362.7 C 330.9 366.7 327.8 370 323.9 370.2 L 308.6 371 C 304.7 371.2 301.3 368.1 301.2 364.1 L 301.2 364.1 C 301 360.2 304.1 356.8 308.1 356.7 L 323.3 355.8 C 327.2 355.6 330.6 358.7 330.7 362.7 L 330.7 362.7 Z"></path>
<path fill="#214c85" fill-opacity="1.0"  filling="0" d="M 268.5 216.4 C 291.8 212 313.2 228.3 314.6 253.4 C 315.2 265.3 311.5 276.9 304.8 286.4 C 301.8 284.8 299 283.1 296.1 281.4 C 301.6 274 304.7 264.8 304.2 255.4 C 303.1 236.3 287.4 223.7 269.1 227.3 C 266.3 227.8 263.8 225.8 263.7 222.8 C 263.5 219.8 265.7 216.9 268.5 216.4 Z"></path>
<path fill="#ffc489" fill-opacity="1.0"  filling="0" d="M 287.4 286.5 L 289.4 283.7 C 287.9 283.2 286.9 282.6 287.9 281.2 C 291 276.7 296.1 273.7 301 275.3 C 301.2 275.4 301.5 275.5 301.8 275.7 C 303.2 275.9 304.6 276.4 305.9 277.3 C 310.1 280.2 311.4 285.8 309.1 290.3 C 309 290.4 308.9 290.6 308.8 290.8 L 308.5 291.2 C 308.5 291.2 308.5 291.2 308.5 291.2 L 306.9 293.6 C 306.9 293.6 306.9 293.6 306.9 293.6 L 304 297.8 C 303.3 298.9 301.7 299.2 300.6 298.4 C 299.4 297.7 299.1 296.2 299.8 295 C 299.8 295 299.8 295 299.8 295 C 299 296.1 297.5 296.4 296.4 295.6 C 295.3 294.9 295 293.4 295.6 292.3 C 295.6 292.3 295.6 292.3 295.6 292.3 L 295.7 292.1 C 295.7 292.1 295.7 292.1 295.7 292.1 C 295 293.3 293.4 293.6 292.2 292.8 C 291.1 292 290.8 290.4 291.6 289.3 C 290.8 290.4 289.2 290.7 288.1 290 C 287 289.2 286.7 287.6 287.4 286.5 Z"></path>
</svg>