<svg xmlns="http://www.w3.org/2000/svg" viewBox="0.0 0.0 256.0 256.0" height="256.0px" width="256.0px"><path fill="#f289aa" fill-opacity="1.0"  filling="0" d="M122.69999694824219 92.5999984741211 C123.24545288085938 91.3045425415039 123.74297332763672 89.96073913574219 124.1919174194336 88.57685852050781 C124.640869140625 87.19297790527344 125.04124450683594 85.76900482177734 125.39240264892578 84.31322479248047 C125.74356842041016 82.85743713378906 126.04552459716797 81.36983489990234 126.29762268066406 79.85868072509766 C126.54972839355469 78.34752655029297 126.75198364257812 76.81281280517578 126.90374755859375 75.26280975341797 C127.05551147460938 73.71280670166016 127.15679168701172 72.14752197265625 127.20693969726562 70.57521057128906 C127.25708770751953 69.00289916992188 127.25611114501953 67.42355346679688 127.203369140625 65.845458984375 C127.15062713623047 64.2673568725586 127.0461196899414 62.69049835205078 126.88920593261719 61.12314224243164 C126.73229217529297 59.5557861328125 126.5229721069336 57.9979362487793 126.26061248779297 56.457855224609375 C125.99825286865234 54.91777038574219 125.68285369873047 53.39545822143555 125.31377410888672 51.899173736572266 C124.94468688964844 50.40289306640625 124.52192687988281 48.932647705078125 124.04484558105469 47.49669647216797 C123.56776428222656 46.06074523925781 123.03636169433594 44.659095764160156 122.44999694824219 43.30000305175781 C123.75999450683594 43.08000183105469 125.01399993896484 43.37800216674805 126.1864013671875 44.03919982910156 C127.35879516601562 44.700401306152344 128.44960021972656 45.72480010986328 129.43319702148438 46.95759963989258 C130.4167938232422 48.190399169921875 131.29319763183594 49.63159942626953 132.0367889404297 51.126399993896484 C132.7803955078125 52.62120056152344 133.3911895751953 54.16960144042969 133.84359741210938 55.61680221557617 C134.29598999023438 57.064002990722656 134.58999633789062 58.410003662109375 134.6999969482422 59.5 C135.60000610351562 58.32500076293945 136.0749969482422 56.912498474121094 136.43124389648438 55.474998474121094 C136.78750610351562 54.037498474121094 137.02499389648438 52.57500076293945 137.4499969482422 51.30000305175781 C138.64999389648438 52.1583366394043 139.63333129882812 53.17222213745117 140.4449005126953 54.30046463012695 C141.2564697265625 55.42870330810547 141.8962860107422 56.671295166015625 142.4092559814453 57.987037658691406 C142.92221069335938 59.30278015136719 143.30833435058594 60.69166564941406 143.6125030517578 62.11249923706055 C143.9166717529297 63.53333282470703 144.13888549804688 64.98611450195312 144.32408142089844 66.42962646484375 C144.50926208496094 67.8731460571289 144.65740966796875 69.30740356445312 144.8134307861328 70.69120788574219 C144.96945190429688 72.07500457763672 145.13333129882812 73.40834045410156 145.35000610351562 74.6500015258789 C146.27499389648438 73.60000610351562 147.1750030517578 72.0250015258789 147.8874969482422 70.48124694824219 C148.60000610351562 68.9375 149.125 67.42500305175781 149.3000030517578 66.5 C149.88333129882812 68.125 150.40798950195312 69.74687194824219 150.86956787109375 71.36195373535156 C151.33114624023438 72.9770278930664 151.72964477539062 74.5853042602539 152.06065368652344 76.18310546875 C152.3916778564453 77.7809066772461 152.65521240234375 79.36823272705078 152.8468780517578 80.94140625 C153.03854370117188 82.51457977294922 153.15834045410156 84.0736083984375 153.2018585205078 85.61481475830078 C153.24537658691406 87.15602111816406 153.21263122558594 88.67939758300781 153.0991973876953 90.18128204345703 C152.98577880859375 91.68315887451172 152.7916717529297 93.16354370117188 152.51251220703125 94.6187515258789 C152.23333740234375 96.07395935058594 151.86911010742188 97.50399780273438 151.4154052734375 98.90518188476562 C150.96170043945312 100.30636596679688 150.4185333251953 101.67870330810547 149.781494140625 103.01852416992188 C149.1444549560547 104.35833740234375 148.41355895996094 105.66563415527344 147.5843963623047 106.93672180175781 C146.75523376464844 108.20781707763672 145.82778930664062 109.44271087646484 144.79769897460938 110.63773345947266 C143.76760864257812 111.832763671875 142.63485717773438 112.9879150390625 141.39503479003906 114.09951782226562 C140.15521240234375 115.21112060546875 138.808349609375 116.2791748046875 137.35000610351562 117.30000305175781 L134.90834045410156 113.18333435058594 L132.4666748046875 109.0666732788086 L130.02499389648438 104.94999694824219 L127.58334350585938 100.83333587646484 L125.14166259765625 96.71666717529297 L122.69999694824219 92.5999984741211"></path>
<path fill="#f289aa" fill-opacity="1.0"  filling="0" d="M174.5 131.75 C176.3000030517578 132.08999633789062 177.9759979248047 132.42599487304688 179.57559204101562 132.74639892578125 C181.17520141601562 133.06680297851562 182.69839477539062 133.37159729003906 184.1927947998047 133.64920043945312 C185.68719482421875 133.9268035888672 187.15280151367188 134.1772003173828 188.63719177246094 134.3887939453125 C190.12158203125 134.60040283203125 191.62478637695312 134.773193359375 193.19439697265625 134.89559936523438 C194.7639923095703 135.01800537109375 196.39999389648438 135.08999633789062 198.14999389648438 135.10000610351562 C199.3000030517578 135.11666870117188 200.40554809570312 135.15554809570312 201.49815368652344 135.174072265625 C202.5907440185547 135.19259643554688 203.67037963867188 135.19073486328125 204.76852416992188 135.12591552734375 C205.86666870117188 135.06109619140625 206.98333740234375 134.93331909179688 208.14999389648438 134.6999969482422 C209.17498779296875 134.5 210.7624969482422 133.83749389648438 212.3000030517578 133.24374389648438 C213.83749389648438 132.64999389648438 215.3249969482422 132.125 216.14999389648438 132.1999969482422 C218.12998962402344 132.34999084472656 218.87998962402344 132.83999633789062 218.80279541015625 133.54039001464844 C218.72560119628906 134.24078369140625 217.82119750976562 135.15159606933594 216.49240112304688 136.1431884765625 C215.16360473632812 137.13479614257812 213.410400390625 138.2071990966797 211.63560485839844 139.2307891845703 C209.86080932617188 140.25439453125 208.06439208984375 141.22918701171875 206.64920043945312 142.0255889892578 C205.23399353027344 142.82199096679688 204.1999969482422 143.44000244140625 203.9499969482422 143.75 C205.4166717529297 144.26666259765625 206.82777404785156 144.75 208.22962951660156 145.20370483398438 C209.63148498535156 145.65740966796875 211.02407836914062 146.08148193359375 212.45370483398438 146.47962951660156 C213.88333129882812 146.87777709960938 215.35000610351562 147.25 216.89999389648438 147.60000610351562 C215.73748779296875 148.5625 214.4187469482422 149.55313110351562 213.00155639648438 150.4734344482422 C211.58436584472656 151.3937530517578 210.06874084472656 152.24374389648438 208.5124969482422 152.9250030517578 C206.95623779296875 153.60626220703125 205.359375 154.11875915527344 203.77967834472656 154.36407470703125 C202.1999969482422 154.609375 200.6374969482422 154.58749389648438 199.14999389648438 154.1999969482422 C199.5333251953125 155.06666564941406 200.67222595214844 156.35000610351562 201.9351806640625 157.7648162841797 C203.19815063476562 159.17962646484375 204.58517456054688 160.72592163085938 205.46481323242188 162.11851501464844 C206.34445190429688 163.5111083984375 206.7166748046875 164.75 205.9499969482422 165.5500030517578 C205.21665954589844 166.31666564941406 203.70555114746094 166.2666778564453 201.9518585205078 165.8185272216797 C200.19815063476562 165.37037658691406 198.2018585205078 164.52407836914062 196.49815368652344 163.69815063476562 C194.79444885253906 162.87222290039062 193.38333129882812 162.06666564941406 192.8000030517578 161.6999969482422 C193.11666870117188 163.38333129882812 193.51666259765625 165.0333251953125 193.8592529296875 166.66851806640625 C194.20184326171875 168.3037109375 194.48703002929688 169.924072265625 194.57408142089844 171.5481414794922 C194.66111755371094 173.17221069335938 194.5500030517578 174.79998779296875 194.10000610351562 176.4499969482422 C192.8800048828125 176.8300018310547 191.65000915527344 176.77000427246094 190.4340057373047 176.3979949951172 C189.21800231933594 176.0260009765625 188.01600646972656 175.3419952392578 186.8520050048828 174.4739990234375 C185.68800354003906 173.6060028076172 184.56199645996094 172.5540008544922 183.49798583984375 171.4459991455078 C182.43399047851562 170.33799743652344 181.43199157714844 169.1739959716797 180.5159912109375 168.08200073242188 C179.59999084472656 166.989990234375 178.76998901367188 165.97000122070312 178.0500030517578 165.14999389648438 C177.08999633789062 164.0399932861328 175.97999572753906 162.99400329589844 174.78880310058594 162.00599670410156 C173.59759521484375 161.01800537109375 172.3251953125 160.08799743652344 171.0404052734375 159.20999145507812 C169.75559997558594 158.33200073242188 168.45840454101562 157.50599670410156 167.2176055908203 156.7259979248047 C165.976806640625 155.9459991455078 164.7924041748047 155.21200561523438 163.7332000732422 154.51800537109375 C162.6739959716797 153.82400512695312 161.739990234375 153.17001342773438 161.0 152.5500030517578 L163.70001220703125 148.38999938964844 L166.40000915527344 144.23001098632812 L169.10000610351562 140.07000732421875 L171.8000030517578 135.91000366210938 L174.5 131.75"></path>
<path fill="#ffcc5a" fill-opacity="1.0"  filling="0" d="M88.0999984741211 101.3499984741211 C86.4124984741211 101.73750305175781 84.87187194824219 102.09687805175781 83.41093444824219 102.41874694824219 C81.94999694824219 102.7406234741211 80.5687484741211 103.0250015258789 79.19999694824219 103.26249694824219 C77.83124542236328 103.5 76.47499084472656 103.69062805175781 75.06405639648438 103.82500457763672 C73.65312194824219 103.95938110351562 72.1875 104.03750610351562 70.5999984741211 104.05000305175781 C71.4000015258789 105.36250305175781 72.3968734741211 106.33125305175781 73.49609375 107.11250305175781 C74.5953140258789 107.89375305175781 75.796875 108.48750305175781 77.0062484741211 109.05000305175781 C78.21562194824219 109.61250305175781 79.43281555175781 110.14375305175781 80.56327819824219 110.80000305175781 C81.6937484741211 111.45625305175781 82.73750305175781 112.23750305175781 83.5999984741211 113.30000305175781 C82.51666259765625 114.1500015258789 81.14443969726562 114.94444274902344 79.63888549804688 115.61111450195312 C78.13333129882812 116.27777862548828 76.49444580078125 116.81666564941406 74.87777709960938 117.15555572509766 C73.2611083984375 117.49444580078125 71.66667175292969 117.63333129882812 70.25 117.5 C70.5999984741211 117.5 71.25 117.25 71.5 117.0999984741211 C72.4000015258789 118.0374984741211 73.3968734741211 118.87812042236328 74.46171569824219 119.62421417236328 C75.52655792236328 120.37030792236328 76.65937042236328 121.0218734741211 77.83125305175781 121.58125305175781 C79.00312805175781 122.140625 80.21406555175781 122.60781860351562 81.4351577758789 122.98515319824219 C82.65625 123.36250305175781 83.88749694824219 123.64999389648438 85.0999984741211 123.8499984741211 L85.70000457763672 119.35000610351562 L86.30000305175781 114.85000610351562 L86.9000015258789 110.35000610351562 L87.5 105.85000610351562 L88.0999984741211 101.3499984741211"></path>
<path fill="#f6abbc" fill-opacity="1.0"  filling="0" d="M98.8499984741211 152.39999389648438 C97.58124542236328 151.19374084472656 96.37890625 150.0 95.2422866821289 148.80702209472656 C94.10566711425781 147.6140594482422 93.0347671508789 146.421875 92.0289077758789 145.21875 C91.0230484008789 144.015625 90.08222961425781 142.8015594482422 89.20576477050781 141.56484985351562 C88.32929992675781 140.328125 87.5171890258789 139.06875610351562 86.76875305175781 137.77499389648438 C86.02031707763672 136.4812469482422 85.3355484008789 135.1531219482422 84.71377563476562 133.77890014648438 C84.09199523925781 132.40467834472656 83.53321075439453 130.98435974121094 83.0367202758789 129.50624084472656 C82.54023742675781 128.02810668945312 82.1060562133789 126.49217987060547 81.7334976196289 124.88671112060547 C81.3609390258789 123.28124237060547 81.05000305175781 121.60624694824219 80.80000305175781 119.8499984741211 C80.5250015258789 117.875 80.3948974609375 115.98316192626953 80.39862060546875 114.17475891113281 C80.40233612060547 112.3663558959961 80.53987121582031 110.64139556884766 80.8001480102539 109.0001449584961 C81.0604248046875 107.35889434814453 81.44344329833984 105.80134582519531 81.93811798095703 104.32778930664062 C82.43280029296875 102.8542251586914 83.03913879394531 101.46465301513672 83.74606323242188 100.15933227539062 C84.45298767089844 98.85401153564453 85.260498046875 97.63294982910156 86.15750885009766 96.49641418457031 C87.05451965332031 95.35987854003906 88.0410385131836 94.30787658691406 89.1059799194336 93.3406753540039 C90.1709213256836 92.37347412109375 91.31428527832031 91.49107360839844 92.5250015258789 90.6937484741211 C93.7357177734375 89.89642333984375 95.01377868652344 89.1841812133789 96.34810638427734 88.55728912353516 C97.68243408203125 87.93038940429688 99.07303619384766 87.38884735107422 100.50881958007812 86.93292236328125 C101.94461059570312 86.47699737548828 103.42558288574219 86.10670471191406 104.940673828125 85.82229614257812 C106.45576477050781 85.53789520263672 108.00495910644531 85.33939361572266 109.57718658447266 85.22705841064453 C111.14942169189453 85.1147232055664 112.74468231201172 85.08855438232422 114.35189819335938 85.1488265991211 C115.95911407470703 85.2091064453125 117.57828521728516 85.35582733154297 119.19832611083984 85.58926391601562 C120.81837463378906 85.82270050048828 122.43928527832031 86.14285278320312 124.05000305175781 86.55000305175781 C125.64583587646484 86.95833587646484 127.15729522705078 87.50868225097656 128.5987548828125 88.17697143554688 C130.04022216796875 88.84526062011719 131.41168212890625 89.63148498535156 132.7275390625 90.5115737915039 C134.04339599609375 91.39167022705078 135.3036346435547 92.3656234741211 136.52264404296875 93.40937805175781 C137.7416534423828 94.453125 138.91943359375 95.56666564941406 140.0703582763672 96.7259292602539 C141.22128295898438 97.88518524169922 142.34535217285156 99.09016418457031 143.4569549560547 100.31678771972656 C144.5685577392578 101.54340362548828 145.66769409179688 102.79167175292969 146.76873779296875 104.0374984741211 C147.86978149414062 105.28333282470703 148.9727325439453 106.5267333984375 150.0919647216797 107.7436294555664 C151.21121215820312 108.96052551269531 152.34674072265625 110.15092468261719 153.512939453125 111.29074096679688 C154.67913818359375 112.43055725097656 155.8760223388672 113.51979064941406 157.11795043945312 114.53437042236328 C158.35987854003906 115.5489501953125 159.6468505859375 116.48888397216797 160.99327087402344 117.33008575439453 C162.33969116210938 118.17129516601562 163.7455291748047 118.91377258300781 165.22518920898438 119.533447265625 C166.70484924316406 120.15312194824219 168.25833129882812 120.64999389648438 169.89999389648438 121.0 C171.028564453125 122.65714263916016 171.92041015625 124.27346801757812 172.59329223632812 125.85189819335938 C173.26617431640625 127.4303207397461 173.72012329101562 128.97084045410156 173.97288513183594 130.47637939453125 C174.2256622314453 131.98191833496094 174.2772674560547 133.45248413085938 174.14547729492188 134.89096069335938 C174.01370239257812 136.32945251464844 173.69854736328125 137.73587036132812 173.21778869628906 139.11312866210938 C172.73703002929688 140.49038696289062 172.09066772460938 141.83848571777344 171.2965087890625 143.1603546142578 C170.50233459472656 144.4822235107422 169.5603485107422 145.77784729003906 168.48834228515625 147.05015563964844 C167.41632080078125 148.32244873046875 166.21429443359375 149.57144165039062 164.89999389648438 150.8000030517578 C163.72000122070312 151.90333557128906 162.48777770996094 152.94622802734375 161.20993041992188 153.92652893066406 C159.93209838867188 154.90682983398438 158.608642578125 155.82452392578125 157.24618530273438 156.677490234375 C155.88372802734375 157.53045654296875 154.4822540283203 158.3186798095703 153.04840087890625 159.04000854492188 C151.61453247070312 159.76133728027344 150.1482696533203 160.41578674316406 148.6562042236328 161.00119018554688 C147.1641387939453 161.5865936279297 145.6462860107422 162.10296630859375 144.1092529296875 162.54815673828125 C142.5722198486328 162.99334716796875 141.0159912109375 163.36734008789062 139.4471893310547 163.6680145263672 C137.87838745117188 163.96868896484375 136.29701232910156 164.19601440429688 134.70965576171875 164.34786987304688 C133.122314453125 164.49972534179688 131.52899169921875 164.5760955810547 129.93630981445312 164.5748291015625 C128.3436279296875 164.5735626220703 126.7515869140625 164.4946746826172 125.16678619384766 164.3360137939453 C123.58198547363281 164.17735290527344 122.00443267822266 163.93890380859375 120.44072723388672 163.6185302734375 C118.87702178955078 163.29815673828125 117.3271713256836 162.89585876464844 115.79778289794922 162.4095001220703 C114.26838684082031 161.92312622070312 112.75946044921875 161.35269165039062 111.277587890625 160.69601440429688 C109.79572296142578 160.0393524169922 108.34092712402344 159.2964630126953 106.9197998046875 158.46519470214844 C105.49867248535156 157.63394165039062 104.11122131347656 156.71429443359375 102.76405334472656 155.7041473388672 C101.41688537597656 154.69400024414062 100.11000061035156 153.59332275390625 98.8499984741211 152.39999389648438"></path>
<path fill="#ffffff" fill-opacity="1.0"  filling="0" d="M103.44999694824219 116.25 C103.44999694824219 116.25 102.32499694824219 116.0 100.69999694824219 115.3687515258789 C99.07499694824219 114.73750305175781 96.94999694824219 113.7249984741211 94.94999694824219 112.19999694824219 C94.38749694824219 111.77499389648438 94.25 110.79374694824219 94.45703125 109.60468292236328 C94.6640625 108.41561889648438 95.21562194824219 107.01874542236328 96.03125 105.76249694824219 C96.84687805175781 104.5062484741211 97.92655944824219 103.390625 99.1898422241211 102.7640609741211 C100.453125 102.13749694824219 101.89999389648438 102.0 103.44999694824219 102.69999694824219 C105.04999542236328 103.42499542236328 106.046875 104.5625 106.59296417236328 105.87890625 C107.1390609741211 107.1953125 107.234375 108.69062805175781 107.03125 110.1312484741211 C106.828125 111.57186889648438 106.3265609741211 112.95780944824219 105.67890930175781 114.05546569824219 C105.03125 115.15312194824219 104.23750305175781 115.96249389648438 103.44999694824219 116.25"></path>
<path fill="#341812" fill-opacity="1.0"  filling="0" d="M96.5999984741211 109.6500015258789 C97.23332977294922 107.88333129882812 98.30000305175781 106.98332977294922 99.42962646484375 106.75 C100.55925750732422 106.51666259765625 101.7518539428711 106.94999694824219 102.63703918457031 107.8499984741211 C103.52222442626953 108.75 104.10000610351562 110.11666870117188 104.0 111.75 C102.94999694824219 110.6500015258789 102.6500015258789 109.25 101.19999694824219 108.6500015258789 C99.69999694824219 108.0 98.19999694824219 108.5 96.80000305175781 109.0 L96.5999984741211 109.6500015258789"></path>
<path fill="#f289aa" fill-opacity="1.0"  filling="0" d="M145.75 112.0 C144.6125030517578 112.82499694824219 143.4093780517578 113.51250457763672 142.15625 114.07109832763672 C140.9031219482422 114.62969207763672 139.60000610351562 115.05937957763672 138.2624969482422 115.3687515258789 C136.9250030517578 115.67813110351562 135.55313110351562 115.8671875 134.16250610351562 115.94453430175781 C132.77188110351562 116.0218734741211 131.36248779296875 115.98750305175781 129.9499969482422 115.8499984741211 C128.5 115.7249984741211 127.0875015258789 115.4000015258789 125.6812515258789 115.05000305175781 C124.2750015258789 114.69999694824219 122.875 114.32499694824219 121.44999694824219 114.0999984741211 C119.8499984741211 113.80000305175781 119.75 114.3499984741211 118.69999694824219 115.4000015258789 C118.1500015258789 115.9000015258789 116.69999694824219 116.30000305175781 116.4000015258789 116.8499984741211 C115.75 117.94999694824219 117.19999694824219 120.0 117.75 120.80000305175781 C116.4000015258789 120.9000015258789 115.88749694824219 121.875 115.84375 123.07499694824219 C115.80000305175781 124.27499389648438 116.2249984741211 125.69999694824219 116.75 126.69999694824219 C115.07499694824219 126.625 114.8125 127.625 115.0625 128.88125610351562 C115.3125 130.1374969482422 116.07499694824219 131.64999389648438 116.44999694824219 132.60000610351562 C115.125 132.72500610351562 114.82499694824219 133.25 115.0250015258789 133.9499969482422 C115.2249984741211 134.64999389648438 115.92500305175781 135.52499389648438 116.5999984741211 136.35000610351562 C116.0999984741211 136.4499969482422 115.4000015258789 136.60000610351562 115.1500015258789 137.10000610351562 C114.25 138.64999389648438 115.3125 139.9250030517578 116.8125 140.875 C118.3125 141.8249969482422 120.25 142.4499969482422 121.0999984741211 142.6999969482422 C122.69999694824219 143.17498779296875 124.32499694824219 143.52499389648438 125.95625305175781 143.77499389648438 C127.5875015258789 144.02499389648438 129.22500610351562 144.1750030517578 130.85000610351562 144.25 C132.29000854492188 144.3000030517578 133.7259979248047 144.28599548339844 135.1551971435547 144.21200561523438 C136.5843963623047 144.13800048828125 138.0067901611328 144.00399780273438 139.4196014404297 143.81399536132812 C140.8323974609375 143.62399291992188 142.235595703125 143.37799072265625 143.6263885498047 143.07998657226562 C145.01718139648438 142.781982421875 146.39559936523438 142.43199157714844 147.7587890625 142.03399658203125 C149.1219940185547 141.635986328125 150.47000122070312 141.19000244140625 151.8000030517578 140.6999969482422 C153.17222595214844 140.20555114746094 154.55308532714844 139.65493774414062 155.92893981933594 139.04739379882812 C157.30479431152344 138.43984985351562 158.67564392089844 137.77537536621094 160.02784729003906 137.05322265625 C161.38003540039062 136.33106994628906 162.7135772705078 135.55123901367188 164.0148162841797 134.7129669189453 C165.3160400390625 133.87469482421875 166.58497619628906 132.9779815673828 167.80795288085938 132.0220947265625 C169.0309295654297 131.06619262695312 170.20794677734375 130.0511016845703 171.32537841796875 128.97607421875 C172.4427947998047 127.90103912353516 173.5006103515625 126.76605224609375 174.4851837158203 125.57037353515625 C175.46975708007812 124.37469482421875 176.38107299804688 123.11831665039062 177.2054901123047 121.80048370361328 C178.0299072265625 120.48265075683594 178.76742553710938 119.10336303710938 179.40438842773438 117.66187286376953 C180.04136657714844 116.22037506103516 180.57778930664062 114.7166748046875 181.0 113.1500015258789 C179.8333282470703 113.71666717529297 178.5611114501953 114.33333587646484 177.28518676757812 114.99444580078125 C176.00926208496094 115.65555572509766 174.72962951660156 116.36111450195312 173.54815673828125 117.10555267333984 C172.36666870117188 117.8499984741211 171.2833251953125 118.63333129882812 170.39999389648438 119.44999694824219 C171.22000122070312 119.14999389648438 171.94400024414062 118.25599670410156 172.5592041015625 116.98279571533203 C173.17440795898438 115.7095947265625 173.68080139160156 114.05719757080078 174.0655975341797 112.24039459228516 C174.4503936767578 110.42359924316406 174.71359252929688 108.44239807128906 174.84239196777344 106.5115966796875 C174.97119140625 104.58079528808594 174.96560668945312 102.70040130615234 174.81280517578125 101.08519744873047 C174.66000366210938 99.47000122070312 174.3599853515625 98.1199951171875 173.89999389648438 97.25 C173.75 99.08333587646484 173.16665649414062 100.4111099243164 172.38148498535156 101.51666259765625 C171.59629821777344 102.62222290039062 170.6092529296875 103.50555419921875 169.65185546875 104.44999694824219 C168.69444274902344 105.39443969726562 167.76666259765625 106.39999389648438 167.10000610351562 107.75 C167.35000610351562 106.2125015258789 167.4562530517578 104.61250305175781 167.41015625 103.0 C167.3640594482422 101.38749694824219 167.16563415527344 99.76249694824219 166.80625915527344 98.17499542236328 C166.44686889648438 96.58749389648438 165.9265594482422 95.0374984741211 165.23670959472656 93.57499694824219 C164.546875 92.11250305175781 163.6875 90.73750305175781 162.64999389648438 89.5 C161.68333435058594 90.71666717529297 160.80694580078125 91.98333740234375 159.97801208496094 93.27777862548828 C159.14907836914062 94.57221984863281 158.3675994873047 95.89444732666016 157.5907440185547 97.22222137451172 C156.8138885498047 98.55000305175781 156.0416717529297 99.88333129882812 155.2312469482422 101.19999694824219 C154.42083740234375 102.51666259765625 153.5722198486328 103.81666564941406 152.64259338378906 105.07777404785156 C151.71295166015625 106.33888244628906 150.70230102539062 107.56111145019531 149.56781005859375 108.72222137451172 C148.43331909179688 109.88333129882812 147.17498779296875 110.98333740234375 145.75 112.0"></path></svg>