<svg xmlns="http://www.w3.org/2000/svg" viewBox="0 0 512 512" height="512px" width="512px"><path fill="#f289aa" fill-opacity="1.0"  filling="0" d="M 245.4 185.2 C 257.4 156.7 257.8 116.5 244.9 86.6 C 258 84.4 268.3 108.1 269.4 119 C 273 114.3 273.2 107.7 274.9 102.6 C 289.3 112.9 288.1 134.4 290.7 149.3 C 294.4 145.1 297.9 136.7 298.6 133 C 312.6 172 309.7 210.1 274.7 234.6 L 245.4 185.2 Z"></path>
<path fill="#f289aa" fill-opacity="1.0"  filling="0" d="M 349 263.5 C 367 266.9 378.8 270.1 396.3 270.2 C 403.2 270.3 409.3 270.8 416.3 269.4 C 420.4 268.6 429 264.1 432.3 264.4 C 452.1 265.9 410.4 284.4 407.9 287.5 C 416.7 290.6 424.5 293.1 433.8 295.2 C 424.5 302.9 410.2 311.5 398.3 308.4 C 400.6 313.6 416.5 326.3 411.9 331.1 C 407.5 335.7 389.1 325.6 385.6 323.4 C 387.5 333.5 390.9 343 388.2 352.9 C 376 356.7 363.3 338.5 356.1 330.3 C 346.5 319.2 329.4 311.3 322 305.1 L 349 263.5 Z"></path>
<path fill="#ffcc5a" fill-opacity="1.0"  filling="0" d="M 176.2 202.7 C 162.7 205.8 153.9 208 141.2 208.1 C 147.6 218.6 160.3 218.1 167.2 226.6 C 160.7 231.7 149 235.8 140.5 235 C 141.2 235 142.5 234.5 143 234.2 C 150.2 241.7 160.5 246.1 170.2 247.7 L 176.2 202.7 Z"></path>
<path fill="#f6abbc" fill-opacity="1.0"  filling="0" d="M 197.7 304.8 C 177.4 285.5 165.6 267.8 161.6 239.7 C 153.9 184.4 203 161.7 248.1 173.1 C 286.4 182.9 300.4 233.6 339.8 242 C 355.6 265.2 348.2 284.4 329.8 301.6 C 294.4 334.7 235.5 340.6 197.7 304.8 Z"></path>
<path fill="#ffffff" fill-opacity="1.0"  filling="0" d="M 206.9 232.5 C 206.9 232.5 197.9 230.5 189.9 224.4 C 185.4 221 194.5 199.8 206.9 205.4 C 219.7 211.2 213.2 230.2 206.9 232.5 Z"></path>
<path fill="#341812" fill-opacity="1.0"  filling="0" d="M 193.2 219.3 C 197 208.7 208.6 213.7 208 223.5 C 205.9 221.3 205.3 218.5 202.4 217.3 C 199.4 216 196.4 217 193.6 218 L 193.2 219.3 Z"></path>
<path fill="#f289aa" fill-opacity="1.0"  filling="0" d="M 291.5 224 C 282.4 230.6 271.2 232.8 259.9 231.7 C 254.1 231.2 248.6 229.1 242.9 228.2 C 239.7 227.6 239.5 228.7 237.4 230.8 C 236.3 231.8 233.4 232.6 232.8 233.7 C 231.5 235.9 234.4 240 235.5 241.6 C 230.1 242 231.4 249.4 233.5 253.4 C 226.8 253.1 231.4 261.4 232.9 265.2 C 227.6 265.7 230.5 269.4 233.2 272.7 C 232.2 272.9 230.8 273.2 230.3 274.2 C 226.7 280.4 238.8 284.4 242.2 285.4 C 248.6 287.3 255.2 288.2 261.7 288.5 C 276.1 289 290.3 286.3 303.6 281.4 C 328.3 272.5 354.4 254.5 362 226.3 C 355 229.7 346.1 234 340.8 238.9 C 349 235.9 352.4 203.2 347.8 194.5 C 346.9 205.5 338.2 207.4 334.2 215.5 C 336.2 203.2 333.6 188.9 325.3 179 C 313.7 193.6 308.6 211.8 291.5 224 Z"></path>
</svg>