<svg xmlns="http://www.w3.org/2000/svg" viewBox="0.0 0.0 256.0 256.0" height="256.0px" width="256.0px"><path fill="#53291B" fill-opacity="1.0"  filling="0" d="M138.60658264160156 216.0251007080078 C139.9001007080078 216.34500122070312 141.1900634765625 216.67889404296875 142.47622680664062 217.0267333984375 C143.76239013671875 217.37457275390625 145.04476928710938 217.73635864257812 146.32308959960938 218.112060546875 C147.6013946533203 218.48776245117188 148.87567138671875 218.87734985351562 150.1456298828125 219.28082275390625 C150.80303955078125 219.48971557617188 151.46905517578125 219.70721435546875 152.03860473632812 220.09613037109375 C152.91842651367188 220.69700622558594 153.49473571777344 221.66590881347656 153.81851196289062 222.680908203125 C154.14230346679688 223.69650268554688 154.237548828125 224.7680206298828 154.31741333007812 225.80081176757812 C152.77711486816406 225.78140258789062 151.23681640625 225.76199340820312 149.69732666015625 225.74166870117188 C148.1578369140625 225.7213592529297 146.61917114257812 225.70013427734375 145.08213806152344 225.6771240234375 C143.54510498046875 225.65411376953125 142.0096893310547 225.62930297851562 140.4767303466797 225.60179138183594 C138.94378662109375 225.57427978515625 137.41326904296875 225.5440673828125 135.88601684570312 225.51026916503906 C134.3587646484375 225.47645568847656 132.83477783203125 225.43905639648438 131.31488037109375 225.39715576171875 C131.361572265625 224.0513153076172 131.40811157226562 222.70547485351562 131.45465087890625 221.35955810546875 C131.50120544433594 220.01364135742188 131.54774475097656 218.6676483154297 131.5944366455078 217.32150268554688 C131.6011962890625 217.12672424316406 131.61041259765625 216.9227294921875 131.711181640625 216.75624084472656 C131.81500244140625 216.58419799804688 131.99993896484375 216.47976684570312 132.18057250976562 216.39129638671875 C133.08465576171875 215.9495391845703 134.0684814453125 215.70408630371094 135.13760375976562 215.64602661132812 C136.2067413330078 215.58795166015625 137.3612060546875 215.71728515625 138.60658264160156 216.0251007080078"></path>
<path fill="#2F1207" fill-opacity="1.0"  filling="0" d="M146.59255981445312 218.19146728515625 C146.958740234375 218.29962158203125 147.32492065429688 218.40896606445312 147.68988037109375 218.51956176757812 C147.346435546875 219.12229919433594 147.03062438964844 219.74038696289062 146.74432373046875 220.37258911132812 C146.5704345703125 220.75723266601562 146.39964294433594 221.15780639648438 146.09613037109375 221.4508819580078 C146.04635620117188 221.498779296875 145.98983764648438 221.54550170898438 145.921630859375 221.5565643310547 C145.79383850097656 221.57806396484375 145.6795654296875 221.4693145751953 145.6181182861328 221.35440063476562 C145.400634765625 220.94891357421875 145.55545043945312 220.45062255859375 145.7293243408203 220.02484130859375 C145.98431396484375 219.39938354492188 146.27244567871094 218.78684997558594 146.59255981445312 218.19146728515625"></path>
<path fill="#2F1207" fill-opacity="1.0"  filling="0" d="M144.00717163085938 217.44805908203125 C144.4083709716797 217.55987548828125 144.808349609375 217.6735382080078 145.20892333984375 217.7884521484375 C144.68853759765625 218.58837890625 144.180419921875 219.3963165283203 143.68399047851562 220.21163940429688 C143.68399047851562 220.21163940429688 143.41610717773438 220.42359924316406 143.4769287109375 220.4445037841797 C143.34915161132812 220.532958984375 143.2176513671875 220.623291015625 143.06590270996094 220.65707397460938 C142.9141387939453 220.69088745117188 142.736572265625 220.65399169921875 142.64566040039062 220.52865600585938 C142.57130432128906 220.42544555664062 142.57192993164062 220.29519653320312 142.57254028320312 220.15695190429688 C142.57315063476562 220.08567810058594 142.57376098632812 220.01193237304688 142.56393432617188 219.9388427734375 C142.98971557617188 219.1640625 143.41610717773438 218.38931274414062 143.8848876953125 217.63975524902344 C143.92483520507812 217.5758514404297 143.9653778076172 217.5113525390625 144.00717163085938 217.44805908203125"></path>
<path fill="#2F1207" fill-opacity="1.0"  filling="0" d="M154.1582794189453 224.22735595703125 C154.2332305908203 224.75387573242188 154.27748107910156 225.28228759765625 154.31741333007812 225.80081176757812 C152.77711486816406 225.78140258789062 151.23681640625 225.76199340820312 149.69732666015625 225.74166870117188 C148.1578369140625 225.7213592529297 146.61917114257812 225.70013427734375 145.08213806152344 225.6771240234375 C143.54510498046875 225.65411376953125 142.0096893310547 225.62930297851562 140.4767303466797 225.60179138183594 C138.94378662109375 225.57427978515625 137.41326904296875 225.5440673828125 135.88601684570312 225.51026916503906 C134.3587646484375 225.47645568847656 132.83477783203125 225.43905639648438 131.31488037109375 225.39715576171875 L131.36895751953125 223.83352661132812 C132.88824462890625 223.8555145263672 134.40756225585938 223.8783721923828 135.9268798828125 223.90208435058594 C137.44619750976562 223.92579650878906 138.9655303955078 223.9503631591797 140.48486328125 223.97576904296875 C142.0041961669922 224.00119018554688 143.5235137939453 224.02745056152344 145.04281616210938 224.0545654296875 C146.56211853027344 224.08168029785156 148.08140563964844 224.10963439941406 149.60064697265625 224.13844299316406 C151.11990356445312 224.167236328125 152.6391143798828 224.19686889648438 154.1582794189453 224.22735595703125"></path>
<path fill="#53291B" fill-opacity="1.0"  filling="0" d="M101.9447250366211 216.0251007080078 C100.65120697021484 216.34500122070312 99.36123657226562 216.67889404296875 98.07506561279297 217.0267333984375 C96.78889465332031 217.37457275390625 95.50653076171875 217.73635864257812 94.22821807861328 218.112060546875 C92.94990539550781 218.48776245117188 91.67564392089844 218.87734985351562 90.40567779541016 219.28082275390625 C89.7482681274414 219.48971557617188 89.08226013183594 219.70721435546875 88.51270294189453 220.09613037109375 C87.63288116455078 220.69700622558594 87.05657958984375 221.66590881347656 86.73340606689453 222.680908203125 C86.40961456298828 223.69650268554688 86.31438446044922 224.7680206298828 86.23451232910156 225.80081176757812 C87.77481079101562 225.78140258789062 89.31511688232422 225.76199340820312 90.85459899902344 225.74166870117188 C92.39408874511719 225.7213592529297 93.93275451660156 225.70013427734375 95.46979522705078 225.6771240234375 C97.00682830810547 225.65411376953125 98.542236328125 225.62930297851562 100.07518768310547 225.60179138183594 C101.60814666748047 225.57427978515625 103.13865661621094 225.5440673828125 104.66590118408203 225.51026916503906 C106.19314575195312 225.47645568847656 107.71713256835938 225.43905639648438 109.23703002929688 225.39715576171875 C109.19033813476562 224.0513153076172 109.14364624023438 222.70547485351562 109.09703063964844 221.35955810546875 C109.0504150390625 220.01364135742188 109.00387573242188 218.6676483154297 108.95748901367188 217.32150268554688 C108.95072174072266 217.12672424316406 108.94151306152344 216.9227294921875 108.84074401855469 216.75624084472656 C108.73690795898438 216.58419799804688 108.5519790649414 216.47976684570312 108.371337890625 216.39129638671875 C107.46694946289062 215.9495391845703 106.48298645019531 215.70408630371094 105.41378021240234 215.64602661132812 C104.34457397460938 215.58795166015625 103.19010925292969 215.71728515625 101.9447250366211 216.0251007080078"></path>
<path fill="#2F1207" fill-opacity="1.0"  filling="0" d="M95.34237670898438 217.7884521484375 C95.74297332763672 217.6735382080078 96.1429443359375 217.55987548828125 96.54414367675781 217.44805908203125 C96.58592224121094 217.5113525390625 96.62647247314453 217.5758514404297 96.66641235351562 217.63975524902344 C97.13520050048828 218.38931274414062 97.56159210205078 219.1640625 97.98736572265625 219.9388427734375 C97.9775390625 220.01132202148438 97.97815704345703 220.08445739746094 97.97876739501953 220.15573120117188 C97.97937774658203 220.2945556640625 97.9806137084961 220.42481994628906 97.90564727783203 220.52865600585938 C97.8147201538086 220.65399169921875 97.63716125488281 220.69088745117188 97.48541259765625 220.65707397460938 C97.3336410522461 220.623291015625 97.2021713256836 220.532958984375 97.07437133789062 220.4445037841797 C97.13520050048828 220.42359924316406 96.86731719970703 220.21163940429688 96.86731719970703 220.21163940429688 C96.37088012695312 219.3963165283203 95.86277770996094 218.58837890625 95.34237670898438 217.7884521484375"></path>
<path fill="#2F1207" fill-opacity="1.0"  filling="0" d="M92.86143493652344 218.51956176757812 C93.22638702392578 218.40896606445312 93.59257507324219 218.29962158203125 93.95875549316406 218.19146728515625 C94.27884674072266 218.78684997558594 94.56700897216797 219.39938354492188 94.82197570800781 220.02484130859375 C94.99586486816406 220.45062255859375 95.15067291259766 220.94891357421875 94.93318939208984 221.35440063476562 C94.87174987792969 221.4693145751953 94.7574691772461 221.57806396484375 94.62967681884766 221.5565643310547 C94.56147766113281 221.54550170898438 94.50495147705078 221.498779296875 94.45518493652344 221.4508819580078 C94.15166473388672 221.15780639648438 93.98148345947266 220.75723266601562 93.80699157714844 220.37258911132812 C93.52068328857422 219.74038696289062 93.20487976074219 219.12229919433594 92.86143493652344 218.51956176757812"></path>
<path fill="#2F1207" fill-opacity="1.0"  filling="0" d="M109.18296813964844 223.83352661132812 L109.23703002929688 225.39715576171875 C107.71712493896484 225.43905639648438 106.19314575195312 225.47645568847656 104.66590118408203 225.51026916503906 C103.13865661621094 225.5440673828125 101.60814666748047 225.57427978515625 100.0751953125 225.60179138183594 C98.542236328125 225.62930297851562 97.00682830810547 225.65411376953125 95.46979522705078 225.6771240234375 C93.93275451660156 225.70013427734375 92.39408874511719 225.7213592529297 90.85459899902344 225.74166870117188 C89.31511688232422 225.76197814941406 87.77481079101562 225.78140258789062 86.23451232910156 225.80081176757812 C86.27444458007812 225.28228759765625 86.31868743896484 224.75387573242188 86.39364624023438 224.22735595703125 C87.91281127929688 224.19676208496094 89.43199920654297 224.16705322265625 90.95121765136719 224.13821411132812 C92.47042846679688 224.109375 93.98966979980469 224.08140563964844 95.5089340209961 224.05430603027344 C97.0281982421875 224.02720642089844 98.5474853515625 224.0009765625 100.0667953491211 223.97560119628906 C101.58610534667969 223.95022583007812 103.10543823242188 223.92568969726562 104.62480163574219 223.9020233154297 C106.1441650390625 223.87835693359375 107.66355895996094 223.85552978515625 109.18296813964844 223.83352661132812"></path>
<path fill="#2E3E47" fill-opacity="1.0"  filling="0" d="M112.55049896240234 132.0728759765625 C112.13577270507812 133.6761474609375 111.72105407714844 135.27938842773438 111.3071517944336 136.8828125 C110.89324951171875 138.48623657226562 110.48015594482422 140.08985900878906 110.0687026977539 141.69390869140625 C109.65724182128906 143.29794311523438 109.24742126464844 144.9024200439453 108.84004211425781 146.50753784179688 C108.43267059326172 148.1126708984375 108.02774047851562 149.71844482421875 107.6260757446289 151.32508850097656 C107.22449493408203 152.93179321289062 106.82621002197266 154.53932189941406 106.43114471435547 156.14759826660156 C106.03607940673828 157.75587463378906 105.64422607421875 159.36488342285156 105.25550842285156 160.9745635986328 C104.86679077148438 162.58424377441406 104.481201171875 164.194580078125 104.09867095947266 165.80548095703125 C103.71614074707031 167.41639709472656 103.33666229248047 169.02789306640625 102.96015167236328 170.63987731933594 C102.5836410522461 172.25186157226562 102.2101058959961 173.86434936523438 101.8394546508789 175.4772491455078 C101.46880340576172 177.09014892578125 101.10104370117188 178.70346069335938 100.73609161376953 180.31710815429688 C100.37113952636719 181.93075561523438 100.00899505615234 183.5447235107422 99.64957427978516 185.15895080566406 C99.29015350341797 186.77317810058594 98.93346405029297 188.3876495361328 98.57941436767578 190.00230407714844 C98.2253646850586 191.616943359375 97.87396240234375 193.2317657470703 97.52511596679688 194.84666442871094 C97.17626953125 196.46156311035156 96.82999420166016 198.07655334472656 96.48619079589844 199.6915283203125 C96.14239501953125 201.3065185546875 95.80107116699219 202.9215087890625 95.462158203125 204.5364227294922 C95.12323760986328 206.15133666992188 94.7867202758789 207.7661590576172 94.4525146484375 209.38082885742188 C94.11831665039062 210.99549865722656 93.78643798828125 212.61001586914062 93.456787109375 214.22427368164062 C94.81660461425781 214.73806762695312 96.19486236572266 215.20303344726562 97.58686828613281 215.61355590820312 C98.9788818359375 216.02407836914062 100.3846435546875 216.38018798828125 101.79949188232422 216.67628479003906 C103.21434020996094 216.97238159179688 104.63827514648438 217.20849609375 106.06661224365234 217.3790283203125 C107.49494934082031 217.549560546875 108.92768859863281 217.65451049804688 110.36015319824219 217.68829345703125 C110.83277893066406 215.61407470703125 111.19857788085938 213.9119110107422 111.5101547241211 212.4239501953125 C111.82173156738281 210.9359893798828 112.07908630371094 209.66221618652344 112.33483123779297 208.4447784423828 C112.590576171875 207.22735595703125 112.84471130371094 206.06625366210938 113.14984130859375 204.80361938476562 C113.45496368408203 203.54098510742188 113.81108856201172 202.1768341064453 114.27081298828125 200.55328369140625 C114.67861938476562 199.11312866210938 115.02437591552734 197.65835571289062 115.3345718383789 196.19508361816406 C115.64476776123047 194.73182678222656 115.91940307617188 193.2600860595703 116.18498229980469 191.78602600097656 C116.45055389404297 190.31195068359375 116.70706176757812 188.8355712890625 116.98101043701172 187.36302185058594 C117.25495910644531 185.89047241210938 117.54634094238281 184.4217529296875 117.88164520263672 182.9630126953125 C118.24188995361328 181.39601135253906 118.60212707519531 179.8290252685547 118.962158203125 178.2626190185547 C119.32219696044922 176.6962127685547 119.6820297241211 175.13038635253906 120.04147338867188 173.56570434570312 C120.40091705322266 172.0010223388672 120.75997161865234 170.43748474121094 121.11843872070312 168.87567138671875 C121.4769058227539 167.31385803222656 121.83479309082031 165.75376892089844 122.19190216064453 164.19595336914062 C122.54901123046875 162.63815307617188 122.90534210205078 161.0826416015625 123.26071166992188 159.5299835205078 C123.61607360839844 157.97732543945312 123.97047424316406 156.4275360107422 124.3237075805664 154.8811798095703 C124.67694091796875 153.33482360839844 125.02901458740234 151.79188537597656 125.37973022460938 150.25296020507812 C125.73045349121094 148.7140350341797 126.07981872558594 147.17910766601562 126.42764282226562 145.6487579345703 C126.77546691894531 144.118408203125 127.12174987792969 142.59262084960938 127.4662857055664 141.07199096679688 C127.66500091552734 142.6796112060547 127.83924102783203 144.2894744873047 127.99249267578125 145.90115356445312 C128.145751953125 147.51284790039062 128.27801513671875 149.12637329101562 128.39279174804688 150.74134826660156 C128.507568359375 152.3563232421875 128.6048583984375 153.9727325439453 128.68812561035156 155.59019470214844 C128.7714080810547 157.20765686035156 128.84068298339844 158.826171875 128.8994598388672 160.44534301757812 C128.95822143554688 162.06451416015625 129.00648498535156 163.68434143066406 129.04771423339844 165.30442810058594 C129.08895874023438 166.92453002929688 129.1231689453125 168.5448760986328 129.1538543701172 170.16510009765625 C129.18453979492188 171.78530883789062 129.21170043945312 173.4053955078125 129.23883056640625 175.02496337890625 C129.26559448242188 176.62103271484375 129.29234313964844 178.21710205078125 129.31886291503906 179.81309509277344 C129.34536743164062 181.40908813476562 129.37164306640625 183.00502014160156 129.39744567871094 184.60079956054688 C129.42323303222656 186.19659423828125 129.4485626220703 187.792236328125 129.47317504882812 189.3876953125 C129.49778747558594 190.983154296875 129.52169799804688 192.57839965820312 129.54466247558594 194.1733856201172 C129.567626953125 195.76837158203125 129.5896453857422 197.36309814453125 129.61048889160156 198.95748901367188 C129.63133239746094 200.5518798828125 129.65101623535156 202.14596557617188 129.66928100585938 203.73963928222656 C129.6875457763672 205.33331298828125 129.70440673828125 206.92660522460938 129.71961975097656 208.51943969726562 C129.73483276367188 210.11227416992188 129.7484130859375 211.7046356201172 129.76010131835938 213.29649353027344 C129.7718048095703 214.8883514404297 129.7816162109375 216.47967529296875 129.78933715820312 218.0704345703125 C131.15744018554688 218.11221313476562 132.527099609375 218.10281372070312 133.89285278320312 218.04212951660156 C135.2586212158203 217.9814453125 136.62049865722656 217.86949157714844 137.97305297851562 217.7061767578125 C139.32562255859375 217.54286193847656 140.6688690185547 217.32818603515625 141.9973907470703 217.06207275390625 C143.32589721679688 216.79595947265625 144.63967895507812 216.4783935546875 145.9333038330078 216.10928344726562 C145.92588806152344 214.4933319091797 145.91635131835938 212.8773956298828 145.90467834472656 211.261474609375 C145.89300537109375 209.6455535888672 145.8791961669922 208.02964782714844 145.86326599121094 206.4137725830078 C145.8473358154297 204.7978973388672 145.82925415039062 203.18203735351562 145.80906677246094 201.5662078857422 C145.7888641357422 199.95037841796875 145.76654052734375 198.33457946777344 145.74208068847656 196.71881103515625 C145.71762084960938 195.10304260253906 145.69102478027344 193.48731994628906 145.6623077392578 191.87161254882812 C145.6335906982422 190.25592041015625 145.60272216796875 188.6402587890625 145.5697479248047 187.024658203125 C145.53675842285156 185.40904235839844 145.50164794921875 183.79348754882812 145.4644012451172 182.17796325683594 C145.42715454101562 180.56243896484375 145.3877716064453 178.9469757080078 145.3462677001953 177.33157348632812 C145.30474853515625 175.71615600585938 145.2611083984375 174.10079956054688 145.21534729003906 172.48550415039062 C145.16957092285156 170.87020874023438 145.12167358398438 169.25497436523438 145.07162475585938 167.63980102539062 C145.02159118652344 166.02462768554688 144.96942138671875 164.40953063964844 144.91513061523438 162.79449462890625 C144.86082458496094 161.17945861816406 144.8043975830078 159.5644989013672 144.74583435058594 157.94961547851562 C144.68727111816406 156.33473205566406 144.6265869140625 154.7199249267578 144.5637664794922 153.10520935058594 C144.50094604492188 151.490478515625 144.4359893798828 149.87583923339844 144.368896484375 148.26129150390625 C144.30181884765625 146.646728515625 144.2325897216797 145.0322723388672 144.16123962402344 143.41790771484375 C144.0898895263672 141.80352783203125 144.01641845703125 140.18923950195312 143.9407958984375 138.57505798339844 C143.87936401367188 137.26516723632812 143.81178283691406 135.93560791015625 143.61917114257812 134.63722229003906 C143.4265594482422 133.33883666992188 143.10891723632812 132.07164001464844 142.54734802246094 130.88645935058594 C141.96197509765625 129.65182495117188 141.1584930419922 128.5917205810547 140.19854736328125 127.6806411743164 C139.2386016845703 126.76956176757812 138.12217712402344 126.00751495361328 136.91091918945312 125.36900329589844 C135.69967651367188 124.73048400878906 134.39358520507812 124.21549987792969 133.0543212890625 123.79855346679688 C131.71505737304688 123.38160705566406 130.34259033203125 123.06269836425781 128.99859619140625 122.81632232666016 C127.45337677001953 122.5330810546875 125.8673095703125 122.3089828491211 124.29551696777344 122.28148651123047 C122.7237319946289 122.25399780273438 121.16622924804688 122.42311096191406 119.67815399169922 122.92630004882812 C118.68610382080078 123.26155853271484 117.72176361083984 123.77758026123047 116.82412719726562 124.52062225341797 C115.92648315429688 125.26365661621094 115.09554290771484 126.23370361328125 114.37027740478516 127.47699737548828 C113.64501953125 128.7202911376953 113.02542877197266 130.23684692382812 112.55049896240234 132.0728759765625"></path>
<path fill="#12191C" fill-opacity="1.0"  filling="0" d="M125.01850891113281 131.26678466796875 C125.00684356689453 132.42922973632812 125.03202819824219 133.5265350341797 125.22311401367188 134.61465454101562 C125.26181030273438 134.8837432861328 125.31957244873047 135.16392517089844 125.3810043334961 135.41705322265625 C125.43446350097656 135.66896057128906 125.52969360351562 135.81455993652344 125.71586608886719 135.946044921875 C126.10108184814453 136.19979858398438 126.76832580566406 136.205322265625 127.26844787597656 136.52235412597656 C126.69337463378906 136.44187927246094 126.1502456665039 136.62619018554688 125.49344635009766 136.3712158203125 C125.15921783447266 136.2495574951172 124.9085464477539 135.8833770751953 124.82313537597656 135.5829315185547 C124.7315902709961 135.28680419921875 124.67076110839844 135.0084686279297 124.61731719970703 134.71478271484375 C124.43052673339844 133.55357360839844 124.52945709228516 132.32907104492188 125.01850891113281 131.26678466796875"></path>
<path fill="#12191C" fill-opacity="1.0"  filling="0" d="M127.90066528320312 131.41116333007812 C128.07945251464844 132.89187622070312 128.07025146484375 134.3639678955078 128.01678466796875 135.8348388671875 C127.94427490234375 137.30450439453125 127.82632446289062 138.77227783203125 127.51911926269531 140.2321014404297 C127.33910369873047 138.7513885498047 127.34832763671875 137.27867126464844 127.40300750732422 135.8084259033203 C127.47734832763672 134.33815002441406 127.59469604492188 132.870361328125 127.90066528320312 131.41116333007812"></path>
<path fill="#9E2D2D" fill-opacity="1.0"  filling="0" d="M123.22261810302734 76.13543701171875 L127.25123596191406 76.54544830322266 L131.2798614501953 76.95545959472656 L135.3084716796875 77.36546325683594 L135.98924255371094 79.61538696289062 L132.30284118652344 79.82151794433594 L128.61643981933594 80.02764892578125 L124.94232177734375 79.47592163085938 L121.2682113647461 78.92418670654297 L123.22261810302734 76.13543701171875"></path>
<path fill="#FFFFFF" fill-opacity="1.0"  filling="0" d="M125.00377655029297 79.45442199707031 C124.00230407714844 78.58320617675781 122.31515502929688 79.30880737304688 121.70321655273438 80.48661804199219 C121.09127044677734 81.66442108154297 121.20616912841797 83.06770324707031 121.23564910888672 84.39480590820312 C121.26606750488281 85.75846862792969 121.19003295898438 87.11936950683594 121.06968688964844 88.47834014892578 C120.9493408203125 89.83731842041016 120.78468322753906 91.19437408447266 120.6378402709961 92.55035400390625 C120.46688079833984 94.12959289550781 120.31993865966797 95.71056365966797 120.19346618652344 97.29261779785156 C120.06700134277344 98.87467193603516 119.96101379394531 100.45781707763672 119.8719711303711 102.04141235351562 C119.78292846679688 103.625 119.71084594726562 105.20904541015625 119.65216827392578 106.79289245605469 C119.59349822998047 108.37673950195312 119.5482406616211 109.96040344238281 119.51287841796875 111.54322814941406 C119.47750854492188 113.12606048583984 119.45203399658203 114.70806121826172 119.43291473388672 116.28858947753906 C119.4137954711914 117.8691177368164 119.40103149414062 119.44817352294922 119.3910903930664 121.0251235961914 C119.38115692138672 122.6020736694336 119.37405395507812 124.17691040039062 119.36624145507812 125.74900817871094 C119.35842895507812 127.32109832763672 119.34991455078125 128.89044189453125 119.337158203125 130.45639038085938 C120.46785736083984 130.6654815673828 121.60887145996094 130.78187561035156 122.7552261352539 130.83641052246094 C123.90158081054688 130.89093017578125 125.05328369140625 130.88357543945312 126.20537567138672 130.84518432617188 C127.35746765136719 130.80679321289062 128.5099334716797 130.73736572265625 129.6578369140625 130.667724609375 C130.7742156982422 130.60015869140625 131.8911895751953 130.53195190429688 133.36451721191406 130.39492797851562 C133.26622009277344 129.15179443359375 133.27761840820312 127.90901184082031 133.35263061523438 126.66683197021484 C133.42764282226562 125.42465209960938 133.5662384033203 124.18309020996094 133.72235107421875 122.9424057006836 C133.87844848632812 121.70172882080078 134.05206298828125 120.4619369506836 134.19705200195312 119.22330474853516 C134.3842315673828 117.62443542480469 134.5239715576172 116.02119445800781 134.6320343017578 114.41535949707031 C134.7401123046875 112.80952453613281 134.81649780273438 111.20108795166016 134.87698364257812 109.59184265136719 C134.9374542236328 107.98258972167969 134.98202514648438 106.37252044677734 135.02647399902344 104.7634048461914 C135.0616455078125 103.49513244628906 135.09678649902344 102.22685241699219 135.13134765625 100.95856475830078 C135.16592407226562 99.69026947021484 135.19992065429688 98.42195129394531 135.2328338623047 97.15360260009766 C135.2657470703125 95.88525390625 135.2975616455078 94.61685943603516 135.3277587890625 93.3484115600586 C135.35794067382812 92.07996368408203 135.38650512695312 90.81146240234375 135.41293334960938 89.54287719726562 C135.44210815429688 88.14634704589844 135.4485626220703 86.68760681152344 135.23098754882812 85.30412292480469 C135.01341247558594 83.920654296875 134.57180786132812 82.61244201660156 133.70489501953125 81.51696014404297 C133.15377807617188 80.82084655761719 132.45965576171875 80.25959777832031 131.6872100830078 79.82176208496094 C130.91476440429688 79.38392639160156 130.06396484375 79.06950378417969 129.1995086669922 78.8670654296875 C127.469970703125 78.46278381347656 125.6734619140625 78.46891784667969 125.00377655029297 79.45442199707031"></path>
<path fill="#2E3E47" fill-opacity="1.0"  filling="0" d="M121.68170928955078 52.743370056152344 C121.01509094238281 53.10157775878906 120.30054473876953 53.36945343017578 119.65357208251953 53.762657165527344 C119.00660705566406 54.1558837890625 118.41371154785156 54.70454406738281 118.17224884033203 55.422157287597656 C117.93079376220703 56.13978576660156 118.13355255126953 57.039878845214844 118.7792739868164 57.43555450439453 C118.91814422607422 57.520957946777344 119.08956146240234 57.6014404296875 119.12458038330078 57.76118469238281 C119.16265869140625 57.93444061279297 119.01644134521484 58.087432861328125 118.89110565185547 58.2127685546875 C118.27824401855469 58.827781677246094 117.91328430175781 59.631107330322266 117.76936340332031 60.48688888549805 C117.62543487548828 61.34266662597656 117.70254516601562 62.25090408325195 117.97380065917969 63.07573699951172 C118.24475860595703 63.90057373046875 118.68067932128906 64.6518325805664 119.21497344970703 65.33650970458984 C119.749267578125 66.02117919921875 120.38194274902344 66.63926696777344 121.04641723632812 67.19774627685547 C122.3753662109375 68.31473541259766 123.85606384277344 69.24063873291016 125.0652084350586 70.13397216796875 C125.70233917236328 70.56651306152344 126.47586822509766 70.73915100097656 127.22852325439453 70.9031982421875 C128.31385803222656 71.1397476196289 129.42315673828125 71.37598419189453 130.5302276611328 71.48419189453125 C131.63729858398438 71.5924072265625 132.74212646484375 71.57258605957031 133.8185577392578 71.29703521728516 C134.39608764648438 71.14895629882812 134.95582580566406 70.92901611328125 135.54257202148438 70.82026672363281 C136.26019287109375 70.68693542480469 136.99685668945312 70.72380065917969 137.72552490234375 70.68508911132812 C138.6422119140625 70.63593292236328 139.56259155273438 70.4620590209961 140.3932647705078 70.07130432128906 C141.4097900390625 69.59361267089844 142.24305725097656 68.77461242675781 142.7913360595703 67.79595184326172 C143.33961486816406 66.8172836303711 143.60287475585938 65.678955078125 143.47938537597656 64.56259155273438 C143.44375610351562 64.2381820678711 143.37863159179688 63.905799865722656 143.459716796875 63.589996337890625 C143.68890380859375 62.690513610839844 144.91464233398438 62.404815673828125 145.29310607910156 61.55693817138672 C145.62118530273438 60.821510314941406 145.18804931640625 59.979774475097656 144.7112579345703 59.33158874511719 C144.23388671875 58.68278503417969 143.66925048828125 57.99280548095703 143.7159423828125 57.189178466796875 C143.73867797851562 56.78919982910156 143.91561889648438 56.41442108154297 143.99180603027344 56.020591735839844 C144.1976318359375 54.95337677001953 143.6243896484375 53.85298156738281 142.79434204101562 53.151954650878906 C141.96429443359375 52.45030975341797 140.9124298095703 52.076133728027344 139.8753204345703 51.751121520996094 C139.03973388671875 51.48939514160156 138.08187866210938 51.14533233642578 137.79617309570312 50.317726135253906 C137.6954345703125 50.02649688720703 137.696044921875 49.71070098876953 137.6204833984375 49.41209411621094 C137.43368530273438 48.6729736328125 136.7891845703125 48.11265563964844 136.07217407226562 47.853981018066406 C135.35519409179688 47.595314025878906 134.57119750976562 47.59716796875 133.81179809570312 47.66291046142578 C132.7384490966797 47.755680084228516 131.67584228515625 47.97117614746094 130.6501007080078 48.301185607910156 C129.62435913085938 48.631195068359375 128.63548278808594 49.075714111328125 127.70958709716797 49.62652587890625 C127.03374481201172 48.61705780029297 125.72445678710938 48.075782775878906 124.53313446044922 48.314178466796875 C123.34181213378906 48.55255889892578 122.3415756225586 49.555870056152344 122.10626220703125 50.74781036376953 C121.94221496582031 51.57908630371094 122.01163482666016 52.566436767578125 121.68170928955078 52.743370056152344"></path>
<path fill="#12181B" fill-opacity="1.0"  filling="0" d="M123.3356704711914 58.086814880371094 C123.19497680664062 57.606353759765625 123.2109603881836 57.088417053222656 123.33136749267578 56.60303497314453 C123.45179748535156 56.11705017089844 123.6729736328125 55.661170959472656 123.9347152709961 55.234771728515625 C123.79893493652344 56.11090850830078 123.33997344970703 56.94464111328125 123.3356704711914 58.086814880371094"></path>
<path fill="#12181B" fill-opacity="1.0"  filling="0" d="M139.83908081054688 61.63251495361328 C140.13461303710938 60.264251708984375 140.31338500976562 58.87017059326172 140.37176513671875 57.47118377685547 C140.42337036132812 58.14887237548828 140.4755859375 58.829620361328125 140.42828369140625 59.50792694091797 C140.3822021484375 60.18560791015625 140.2322998046875 60.866363525390625 139.83908081054688 61.63251495361328"></path>
<path fill="#995049" fill-opacity="1.0"  filling="0" d="M125.2476806640625 72.71998596191406 C125.24890899658203 73.62252807617188 125.15430450439453 74.52569580078125 124.96629333496094 75.40860748291016 C124.85324096679688 75.94004821777344 124.6910400390625 76.49116516113281 124.3033447265625 76.87271118164062 C123.79155731201172 77.37590026855469 123.0088119506836 77.46806335449219 122.29119110107422 77.45639038085938 C121.88814544677734 77.44963836669922 121.39846801757812 77.46376037597656 121.20063781738281 77.81582641601562 C121.08082580566406 78.02901458740234 121.12075805664062 78.29319763183594 121.17237091064453 78.53282165527344 C121.34992980957031 79.3536605834961 121.64500427246094 80.16927337646484 122.07308197021484 80.89196014404297 C122.50116729736328 81.61465454101562 123.06227111816406 82.24441528320312 123.77190399169922 82.69354248046875 C124.44896697998047 83.12239074707031 125.2237319946289 83.36568450927734 125.99049377441406 83.59732055664062 C126.5035171508789 83.75276184082031 127.01961517333984 83.90513610839844 127.55107116699219 83.97640228271484 C128.46343994140625 84.09867095947266 129.3887481689453 83.9782485961914 130.30172729492188 83.85843658447266 C130.7600860595703 83.79823303222656 131.22027587890625 83.7374038696289 131.6638641357422 83.6071548461914 C132.80050659179688 83.27413940429688 133.7786407470703 82.48771667480469 134.44216918945312 81.50714111328125 C135.10635375976562 80.52654266357422 136.54220581054688 79.53982543945312 136.6650848388672 78.36201477050781 C136.06788635253906 78.2938232421875 134.93370056152344 78.22501373291016 134.3365020751953 78.15681457519531 C133.97708129882812 78.11563873291016 133.2238311767578 77.87664794921875 132.9927978515625 77.59832763671875 C132.88836669921875 77.47297668457031 132.65182495117188 77.31568908691406 132.60696411132812 77.15902709960938 C132.32679748535156 76.17107391357422 132.5098876953125 75.11860656738281 132.48777770996094 74.09193420410156 C132.48593139648438 74.00898742675781 132.48223876953125 73.92359161376953 132.44906616210938 73.847412109375 C132.40420532226562 73.74665832519531 132.3126678466797 73.67536926269531 132.22357177734375 73.61024475097656 C131.2884521484375 72.92948913574219 130.19345092773438 72.47990417480469 129.0077362060547 72.31401824951172 C127.822021484375 72.14813232421875 126.54560852050781 72.26594543457031 125.2476806640625 72.71998596191406"></path>
<path fill="#B3685C" fill-opacity="1.0"  filling="0" d="M139.8378448486328 62.359344482421875 C139.8378448486328 62.359344482421875 140.75881958007812 62.17994689941406 141.2270050048828 62.670249938964844 C141.57168579101562 63.0308837890625 141.74679565429688 63.52240753173828 141.83279418945312 64.01331329345703 C141.9931640625 64.92263793945312 141.84939575195312 65.9351577758789 141.23007202148438 66.62022399902344 C140.6107635498047 67.30526733398438 139.4489288330078 67.52031707763672 138.74359130859375 66.92434692382812 C138.50704956054688 68.2016830444336 138.0929412841797 69.45751953125 137.53199768066406 70.643310546875 C137.07241821289062 71.61529541015625 136.50718688964844 72.54978942871094 135.7508544921875 73.31472778320312 C134.91587829589844 74.15911865234375 133.87139892578125 74.73440551757812 132.74169921875 75.05059051513672 C131.61199951171875 75.36677551269531 130.39707946777344 75.42387390136719 129.2212371826172 75.23188781738281 C128.04537963867188 75.03990173339844 126.90861511230469 74.59883117675781 125.93519592285156 73.91868591308594 C124.96178436279297 73.2385482788086 124.15514373779297 72.3631591796875 123.5256118774414 71.36698913574219 C122.89608001708984 70.37081909179688 122.44364929199219 69.25386047363281 122.17866516113281 68.09056854248047 C121.9136734008789 66.92728424072266 121.83612060546875 65.71766662597656 121.95634460449219 64.53617095947266 C121.28357696533203 64.73831176757812 120.4142074584961 64.43295288085938 119.91592407226562 63.80687713623047 C119.3224105834961 63.060386657714844 119.29291534423828 62.00115966796875 119.51225280761719 61.07341766357422 C119.67999267578125 60.3619384765625 120.0062484741211 59.64616394042969 120.60958099365234 59.23390197753906 C121.21292114257812 58.82164001464844 122.14067077636719 58.829620361328125 122.59163665771484 59.34449005126953 C122.89637756347656 59.052032470703125 123.12309265136719 58.679100036621094 123.34734344482422 58.26191711425781 C124.13623046875 58.246559143066406 124.85508728027344 57.82262420654297 125.50143432617188 57.37042236328125 C126.72777557373047 56.512725830078125 127.84905242919922 55.504486083984375 128.89230346679688 54.303955078125 C129.39364624023438 55.698646545410156 130.22247314453125 56.974754333496094 131.2927703857422 57.99957275390625 C131.70196533203125 58.39155578613281 132.16152954101562 58.75590515136719 132.70404052734375 58.91932678222656 C133.24655151367188 59.082763671875 133.88983154296875 59.01026153564453 134.29718017578125 58.615814208984375 C134.87164306640625 58.059776306152344 134.79116821289062 57.133262634277344 134.6695098876953 56.33024597167969 C135.1690216064453 57.56519317626953 135.678955078125 58.81794738769531 136.50103759765625 59.866111755371094 C137.20205688476562 60.76006317138672 139.84829711914062 61.84325408935547 139.84829711914062 61.84325408935547 L139.8378448486328 62.359344482421875"></path>
<path fill="#8F3E37" fill-opacity="1.0"  filling="0" d="M122.23957824707031 60.27899932861328 C122.11793518066406 59.986534118652344 121.73884582519531 59.894378662109375 121.42550659179688 59.939231872558594 C120.83199310302734 60.024017333984375 120.28824615478516 60.525360107421875 120.27043151855469 61.124412536621094 C120.29316711425781 61.21165466308594 120.38225555419922 61.1575927734375 120.4129638671875 61.102294921875 C120.5604248046875 60.83502960205078 120.77055358886719 60.561012268066406 121.07221221923828 60.514915466308594 C121.33456420898438 60.47437286376953 121.58771514892578 60.618133544921875 121.85066223144531 60.65193176269531 C121.93053436279297 60.662376403808594 122.01410675048828 60.66175842285156 122.08721160888672 60.62797546386719 C122.15909576416016 60.59479522705078 122.33296203613281 60.504478454589844 122.23957824707031 60.27899932861328"></path>
<path fill="#8F3E37" fill-opacity="1.0"  filling="0" d="M139.61849975585938 63.678466796875 C139.74014282226562 63.386009216308594 140.11923217773438 63.293853759765625 140.4325714111328 63.338706970214844 C141.02609252929688 63.423500061035156 141.56983947753906 63.924842834472656 141.58827209472656 64.52388763427734 C141.56553649902344 64.61112976074219 141.4764404296875 64.55644989013672 141.4457244873047 64.50115203857422 C141.29827880859375 64.23388671875 141.088134765625 63.960479736328125 140.78646850585938 63.913780212402344 C140.52474975585938 63.87322998046875 140.27099609375 64.01701354980469 140.00802612304688 64.05079650878906 C139.92816162109375 64.06124114990234 139.8446044921875 64.06063079833984 139.771484375 64.0268325805664 C139.698974609375 63.99427795410156 139.52511596679688 63.903961181640625 139.61849975585938 63.678466796875"></path>
<path fill="#2E3E47" fill-opacity="1.0"  filling="0" d="M124.55402374267578 60.88294982910156 C125.56226348876953 60.29680633544922 126.81502532958984 60.44487762451172 127.97501373291016 60.55976867675781 C128.2545623779297 60.587425231933594 128.56729125976562 60.60216522216797 128.78170776367188 60.420921325683594 C129.04098510742188 60.200965881347656 129.02500915527344 59.76842498779297 128.8216552734375 59.495635986328125 C128.6182861328125 59.22283935546875 128.28221130371094 59.082763671875 127.95166015625 59.00288391113281 C126.5766372680664 58.669883728027344 125.02649688720703 59.248023986816406 124.20443725585938 60.39942169189453 C124.10614013671875 60.53704071044922 124.01396942138672 60.70661926269531 124.0643539428711 60.86820983886719 C124.11534118652344 61.02978515625 124.32177734375 61.01750183105469 124.55402374267578 60.88294982910156"></path>
<path fill="#2E3E47" fill-opacity="1.0"  filling="0" d="M136.35787963867188 62.829978942871094 C135.55670166015625 61.98333740234375 134.31317138671875 61.77075958251953 133.16790771484375 61.552650451660156 C132.89205932617188 61.50041961669922 132.58731079101562 61.42607116699219 132.43310546875 61.191368103027344 C132.24630737304688 60.90691375732422 132.38394165039062 60.497108459472656 132.6561279296875 60.292510986328125 C132.9282989501953 60.088531494140625 133.29017639160156 60.04920959472656 133.62994384765625 60.06580352783203 C135.04306030273438 60.135223388671875 136.36648559570312 61.128089904785156 136.82913208007812 62.46503448486328 C136.88442993164062 62.624778747558594 136.92495727539062 62.81340026855469 136.83096313476562 62.95470428466797 C136.73696899414062 63.09479522705078 136.54220581054688 63.024749755859375 136.35787963867188 62.829978942871094"></path>
<path fill="#8F3E37" fill-opacity="1.0"  filling="0" d="M130.64520263671875 61.60487365722656 C130.0823974609375 62.524009704589844 129.79055786132812 62.936279296875 129.30947875976562 63.691368103027344 C128.93777465820312 64.2744369506836 128.5623779296875 64.8667221069336 128.3583984375 65.5271987915039 C128.1544189453125 66.18829345703125 128.14027404785156 66.93724822998047 128.47512817382812 67.54242706298828 C128.8099822998047 68.14762115478516 129.28244018554688 68.41181182861328 130.212646484375 68.36388397216797 C130.47622680664062 68.3503646850586 130.94256591796875 68.19062805175781 130.96591186523438 68.32763671875 C131.0193634033203 68.6422119140625 129.73464965820312 68.77062225341797 129.08399963378906 68.56787109375 C128.91812133789062 68.5162582397461 128.6803436279297 68.383544921875 128.54148864746094 68.27970886230469 C128.36761474609375 68.14945983886719 128.2471923828125 67.9608383178711 128.14764404296875 67.7679214477539 C127.89205932617188 67.27332305908203 127.74767303466797 66.71483612060547 127.78023529052734 66.15879821777344 C127.83554077148438 65.22676086425781 128.36822509765625 64.400390625 128.8843231201172 63.62255859375 C129.37460327148438 62.883445739746094 129.86489868164062 62.144927978515625 130.35519409179688 61.40580749511719 C130.41049194335938 61.32225036621094 130.469482421875 61.23561096191406 130.5561065673828 61.18462371826172 C130.64273071289062 61.13362121582031 130.76622009277344 61.12994384765625 130.8344268798828 61.20366668701172 C130.90322875976562 61.27677917480469 130.70294189453125 61.51025390625 130.64520263671875 61.60487365722656"></path>
<path fill="#2E3E47" fill-opacity="1.0"  filling="0" d="M127.1142349243164 69.24186706542969 C127.88777160644531 70.17329406738281 129.18045043945312 70.64207458496094 130.3711700439453 70.42396545410156 C130.6494903564453 70.37297058105469 130.92657470703125 70.28511810302734 131.1575927734375 70.11984252929688 C131.29705810546875 70.02030944824219 131.416259765625 69.89496612548828 131.53915405273438 69.77516174316406 C131.5833740234375 69.73153686523438 131.63497924804688 69.68669128417969 131.69642639160156 69.68484497070312 C131.7984161376953 69.68238830566406 131.86538696289062 69.80772399902344 131.8414306640625 69.90725708007812 C131.81747436523438 70.00679016113281 131.73513793945312 70.07991027832031 131.65403747558594 70.14257049560547 C131.04762268066406 70.61074829101562 130.27224731445312 70.8472900390625 129.5067138671875 70.82087707519531 C128.7411651611328 70.79507446289062 127.9909896850586 70.51060485839844 127.38518524169922 70.04119873046875 C127.18305206298828 69.884521484375 126.99504089355469 69.70635223388672 126.85189056396484 69.49375915527344 C126.7879867553711 69.39852905273438 126.7326889038086 69.27503967285156 126.78553009033203 69.17304992675781 C126.83837127685547 69.07106018066406 127.00917053222656 69.11529541015625 127.1142349243164 69.24186706542969"></path>
<path fill="#2E3E47" fill-opacity="1.0"  filling="0" d="M126.77816009521484 62.39192199707031 C126.62823486328125 62.26227569580078 126.37511444091797 62.348297119140625 126.2694320678711 62.516029357910156 C126.18465423583984 62.65057373046875 126.1698989868164 62.81708526611328 126.16436767578125 62.97560119628906 C126.1588363647461 63.13841247558594 126.16314697265625 63.30982971191406 126.24547576904297 63.449920654296875 C126.32781219482422 63.589996337890625 126.51396179199219 63.682151794433594 126.65896606445312 63.608428955078125 C126.75911712646484 63.55743408203125 126.81195068359375 63.44622802734375 126.84635925292969 63.339317321777344 C126.93052673339844 63.07696533203125 127.10746765136719 62.67576599121094 126.77816009521484 62.39192199707031"></path>
<path fill="#2E3E47" fill-opacity="1.0"  filling="0" d="M133.71902465820312 63.848663330078125 C133.6219482421875 63.74113464355469 133.43333435058594 63.77247619628906 133.3307342529297 63.875083923339844 C133.22750854492188 63.977684020996094 133.1881866455078 64.12574768066406 133.15255737304688 64.26644897460938 C133.08804321289062 64.52204132080078 133.0339813232422 64.826171875 133.21031188964844 65.02216339111328 C133.2496337890625 65.06640625 133.30245971679688 65.10203552246094 133.36083984375 65.1075668334961 C133.45114135742188 65.11555480957031 133.53164672851562 65.05165100097656 133.59185791015625 64.98406982421875 C133.8302459716797 64.71987915039062 134.07232666015625 64.24002838134766 133.71902465820312 63.848663330078125"></path>
<path fill="#A6564E" fill-opacity="1.0"  filling="0" d="M138.20599365234375 68.97889709472656 C138.01368713378906 69.54537200927734 137.7882080078125 70.10140991210938 137.53199768066406 70.643310546875 C137.07241821289062 71.61529541015625 136.50718688964844 72.54978942871094 135.7508544921875 73.31472778320312 C134.92816162109375 74.14723205566406 133.90151977539062 74.718017578125 132.79067993164062 75.0368881225586 C132.65919494628906 74.86485290527344 132.55227661132812 74.67315673828125 132.46136474609375 74.47654724121094 C131.918212890625 73.30059051513672 131.93235778808594 71.8813247680664 132.49884033203125 70.71641540527344 C133.0653076171875 69.55152893066406 134.17306518554688 68.6643295288086 135.43382263183594 68.36573028564453 C136.12564086914062 68.2016830444336 136.87643432617188 68.2133560180664 137.52401733398438 68.50765228271484 C137.77590942382812 68.62193298339844 138.00938415527344 68.78290557861328 138.20599365234375 68.97889709472656"></path>
<path fill="#A6564E" fill-opacity="1.0"  filling="0" d="M124.49933624267578 72.65055084228516 C123.58726501464844 71.64540100097656 122.90544128417969 70.4334945678711 122.46967315673828 69.1297378540039 C122.0339126586914 67.82597351074219 121.84422302246094 66.43036651611328 121.91641235351562 65.05780029296875 C122.45277404785156 65.03936767578125 122.99652862548828 65.17330169677734 123.48681640625 65.400634765625 C124.66278076171875 65.94438171386719 125.57146453857422 67.0349349975586 125.89403533935547 68.28954315185547 C126.21720886230469 69.54414367675781 125.9480972290039 70.93760681152344 125.18134307861328 71.98147583007812 C124.9920883178711 72.24014282226562 124.76905822753906 72.48037719726562 124.49933624267578 72.65055084228516"></path>
<path fill="#B3685C" fill-opacity="1.0"  filling="0" d="M149.83352661132812 137.2319793701172 C149.3972930908203 138.76861572265625 149.63998413085938 140.4182586669922 149.35919189453125 141.99050903320312 C149.11959838867188 143.3286895751953 148.51010131835938 144.56668090820312 148.03025817871094 145.8385009765625 C147.55039978027344 147.11032104492188 147.19406127929688 148.4945526123047 147.4895782470703 149.8216552734375 C147.56884765625 150.17739868164062 147.8109130859375 150.598876953125 148.17034912109375 150.5368194580078 C148.36203002929688 150.503662109375 148.49964904785156 150.33837890625 148.61270141601562 150.1798553466797 C149.20437622070312 149.35165405273438 149.63385009765625 148.40855407714844 149.84518432617188 147.5735626220703 C149.90908813476562 148.2076416015625 149.9729766845703 148.84783935546875 149.89373779296875 149.48004150390625 C149.81385803222656 150.11227416992188 149.5767059326172 150.7445068359375 149.11834716796875 151.18685913085938 C148.83267211914062 151.4621124267578 148.46156311035156 151.66793823242188 148.27908325195312 152.01998901367188 C148.08432006835938 152.39537048339844 148.16970825195312 152.8955078125 148.4775390625 153.1855010986328 C148.78533935546875 153.47547912597656 149.28976440429688 153.53077697753906 149.7198486328125 153.34584045410156 C149.4286346435547 153.41220092773438 149.2799530029297 153.81524658203125 149.4581298828125 154.05487060546875 C149.5521240234375 154.1814422607422 149.70571899414062 154.250244140625 149.8587188720703 154.29141235351562 C150.25070190429688 154.396484375 150.681396484375 154.3497772216797 151.0703125 154.04196166992188 C151.07644653320312 154.41983032226562 151.4911651611328 154.69200134277344 151.8677978515625 154.6668243408203 C152.2450408935547 154.64163208007812 152.572509765625 154.40078735351562 152.7568359375 154.20541381835938 C153.3755340576172 154.54270935058594 154.15274047851562 154.22198486328125 154.701416015625 153.77963256835938 C155.5535888671875 153.09271240234375 156.15200805664062 152.12013244628906 156.4788818359375 151.07565307617188 C156.80572509765625 150.0311737060547 156.870849609375 148.91665649414062 156.73507690429688 147.99197387695312 C156.48255920410156 146.62278747558594 156.29592895507812 145.241455078125 156.17596435546875 143.85446166992188 C156.05599975585938 142.4674530029297 156.00271606445312 141.07476806640625 156.016845703125 139.68284606933594 C156.02667236328125 138.68995666503906 156.00271606445312 137.54226684570312 155.22364807128906 136.92662048339844 C154.9268798828125 136.6919403076172 154.55703735351562 136.57273864746094 154.1951446533203 136.46090698242188 C153.43881225585938 136.22682189941406 152.6634521484375 136.0025634765625 151.87208557128906 136.02468872070312 C151.08074951171875 136.0461883544922 150.1001739501953 136.29135131835938 149.83352661132812 137.2319793701172"></path>
<path fill="#8F3E37" fill-opacity="1.0"  filling="0" d="M149.7008056640625 147.6221160888672 C149.68789672851562 146.7926788330078 149.71493530273438 145.96261596679688 149.78375244140625 145.13563537597656 C150.00433349609375 145.97305297851562 149.94349670410156 146.88111877441406 149.7008056640625 147.6221160888672"></path>
<path fill="#8F3E37" fill-opacity="1.0"  filling="0" d="M149.31004333496094 153.3636932373047 C150.18988037109375 152.86048889160156 150.86448669433594 152.0384063720703 151.28411865234375 151.11558532714844 C151.70375061035156 150.1927490234375 151.8788604736328 149.1722412109375 151.89913940429688 148.15908813476562 C152.12522888183594 149.19618225097656 151.99313354492188 150.3076629638672 151.52926635742188 151.26181030273438 C151.0653839111328 152.21722412109375 150.2734375 153.0079345703125 149.31004333496094 153.3636932373047"></path>
<path fill="#8F3E37" fill-opacity="1.0"  filling="0" d="M151.09609985351562 153.97683715820312 C151.83554077148438 153.3433837890625 152.43011474609375 152.54696655273438 152.8433074951172 151.66554260253906 C153.25650024414062 150.78411865234375 153.48828125 149.81765747070312 153.50210571289062 148.84414672851562 C153.6185302734375 149.87664794921875 153.42929077148438 150.93218994140625 153.00482177734375 151.84341430664062 C152.58035278320312 152.75465393066406 151.92062377929688 153.52157592773438 151.09609985351562 153.97683715820312"></path>
<path fill="#8F3E37" fill-opacity="1.0"  filling="0" d="M152.79000854492188 154.1138458251953 C153.5325164794922 153.4874725341797 154.13893127441406 152.7050323486328 154.57408142089844 151.83673095703125 C155.0092315673828 150.96844482421875 155.27310180664062 150.0142822265625 155.33055114746094 149.04444885253906 C155.47064208984375 150.33529663085938 155.10568237304688 151.6746826171875 154.33030700683594 152.7167205810547 C153.942626953125 153.2377166748047 153.4615478515625 153.68133544921875 152.79000854492188 154.1138458251953"></path>
<path fill="#DB6A5D" fill-opacity="1.0"  filling="0" d="M136.20059204101562 78.43759155273438 C135.40289306640625 79.79972076416016 134.69061279296875 81.21167755126953 134.06776428222656 82.66209411621094 C133.44491577148438 84.11251068115234 132.91152954101562 85.60137939453125 132.47164916992188 87.1173324584961 C132.03175354003906 88.63328552246094 131.68536376953125 90.17631530761719 131.43653869628906 91.73505401611328 C131.2548828125 92.87353515625 131.12490844726562 94.01815795898438 131.03038024902344 95.16642761230469 C130.93585205078125 96.314697265625 130.87677001953125 97.46660614013672 130.83692932128906 98.6196517944336 C130.79708862304688 99.77269744873047 130.77645874023438 100.9268798828125 130.75885009765625 102.07970428466797 C130.7338409423828 103.71585083007812 130.7145233154297 105.3520736694336 130.70082092285156 106.98834991455078 C130.68711853027344 108.62462615966797 130.67901611328125 110.26094818115234 130.67642211914062 111.89730834960938 C130.673828125 113.53366088867188 130.67674255371094 115.1700439453125 130.68505859375 116.80643463134766 C130.69337463378906 118.44282531738281 130.70709228515625 120.07921600341797 130.72610473632812 121.7155990600586 C130.74513244628906 123.35197448730469 130.7694549560547 124.98833465576172 130.79898071289062 126.62464904785156 C130.82852172851562 128.26097106933594 130.86325073242188 129.89724731445312 130.903076171875 131.53346252441406 C130.9429168701172 133.169677734375 130.98785400390625 134.80581665039062 131.0377960205078 136.44187927246094 C132.59324645996094 136.42568969726562 134.14877319335938 136.40957641601562 135.7053680419922 136.3846893310547 C137.261962890625 136.35980224609375 138.8196258544922 136.32611083984375 140.37936401367188 136.27479553222656 C141.9390869140625 136.22348022460938 143.50088500976562 136.154541015625 145.06576538085938 136.05909729003906 C144.9436492919922 134.436767578125 144.8353271484375 132.81341552734375 144.74044799804688 131.190185546875 C144.64556884765625 129.56695556640625 144.56414794921875 127.94383239746094 144.49583435058594 126.32201385498047 C144.42752075195312 124.70018768310547 144.372314453125 123.07965087890625 144.32989501953125 121.46155548095703 C144.2874755859375 119.84346008300781 144.25784301757812 118.22781372070312 144.24063110351562 116.61578369140625 C144.1992645263672 115.00052642822266 144.1578826904297 113.3852767944336 144.11488342285156 111.7706069946289 C144.07186889648438 110.15594482421875 144.0272216796875 108.5418701171875 143.97930908203125 106.92898559570312 C143.93138122558594 105.31609344482422 143.88018798828125 103.70438385009766 143.82406616210938 102.09445190429688 C144.0951385498047 103.5816650390625 144.36624145507812 105.06915283203125 144.63330078125 106.55740356445312 C144.90036010742188 108.045654296875 145.16339111328125 109.53466033935547 145.41831970214844 111.0249252319336 C145.67324829101562 112.51519012451172 145.9200897216797 114.00670623779297 146.15476989746094 115.49996948242188 C146.38946533203125 116.99322509765625 146.6119842529297 118.48823547363281 146.81829833984375 119.98548126220703 C147.02459716796875 121.48272705078125 147.21469116210938 122.98220825195312 147.384521484375 124.48441314697266 C147.5643310546875 126.07550811767578 147.72134399414062 127.66899108886719 147.86033630371094 129.26385498046875 C147.99932861328125 130.85873413085938 148.12030029296875 132.45498657226562 148.22802734375 134.0516357421875 C148.33575439453125 135.64828491210938 148.43023681640625 137.24530029296875 148.51625061035156 138.8417205810547 C150.04241943359375 138.97503662109375 151.5738067626953 139.0496826171875 153.0963592529297 139.0864715576172 C154.61892700195312 139.12326049804688 156.13265991210938 139.1221923828125 157.62350463867188 139.10406494140625 C157.60330200195312 137.59912109375 157.57017517089844 136.0943603515625 157.52415466308594 134.5899658203125 C157.47813415527344 133.08558654785156 157.41921997070312 131.5815887451172 157.347412109375 130.0782012939453 C157.27561950683594 128.57481384277344 157.19094848632812 127.0720443725586 157.09341430664062 125.57009887695312 C156.99588012695312 124.06816101074219 156.885498046875 122.56704711914062 156.76226806640625 121.0669937133789 C156.6390380859375 119.56694030761719 156.50299072265625 118.06793212890625 156.35411071777344 116.57020568847656 C156.20523071289062 115.07247924804688 156.04354858398438 113.5760269165039 155.86904907226562 112.08106994628906 C155.69456481933594 110.58611297607422 155.5072784423828 109.09265899658203 155.30722045898438 107.60091400146484 C155.10714721679688 106.10917663574219 154.89431762695312 104.61914825439453 154.66873168945312 103.13106536865234 C154.44313049316406 101.64298248291016 154.20477294921875 100.15684509277344 153.9536895751953 98.67285919189453 C153.67782592773438 97.04347229003906 153.3845977783203 95.40931701660156 153.00082397460938 93.80136108398438 C152.61705017089844 92.19339752197266 152.14273071289062 90.61161804199219 151.5046844482422 89.08698272705078 C150.8663330078125 87.56265258789062 150.0494842529297 86.09101867675781 149.04278564453125 84.77996826171875 C148.0360870361328 83.46891784667969 146.83953857421875 82.31845092773438 145.44178771972656 81.43647766113281 C144.17611694335938 80.63775634765625 142.79034423828125 80.08264923095703 141.25872802734375 79.62991333007812 C139.7270965576172 79.17717742919922 138.04962158203125 78.82681274414062 136.20059204101562 78.43759155273438"></path>
<path fill="#C14944" fill-opacity="1.0"  filling="0" d="M143.90701293945312 102.784423828125 C143.82591247558594 101.65699768066406 143.7584686279297 100.52861022949219 143.70469665527344 99.39959716796875 C143.6509246826172 98.27058410644531 143.61082458496094 97.14093017578125 143.5844268798828 96.01095581054688 C143.5580291748047 94.88098907470703 143.5453338623047 93.75070190429688 143.54635620117188 92.62040710449219 C143.7171630859375 93.73677062988281 143.84434509277344 94.85975646972656 143.92794799804688 95.98706817626953 C144.0115509033203 97.1143798828125 144.05157470703125 98.24600982666016 144.04808044433594 99.37966918945312 C144.04457092285156 100.5133285522461 143.99752807617188 101.64901733398438 143.90701293945312 102.784423828125"></path>
<path fill="#CB534C" fill-opacity="1.0"  filling="0" d="M135.3084716796875 77.36546325683594 C134.79197692871094 78.49022674560547 134.2737579345703 79.62030792236328 133.7889404296875 80.76270294189453 C133.30410766601562 81.90510559082031 132.8526611328125 83.059814453125 132.4696807861328 84.23381805419922 C132.0867156982422 85.40782165527344 131.772216796875 86.60111999511719 131.56126403808594 87.82070922851562 C131.3240966796875 89.19328308105469 131.22027587890625 90.60086059570312 131.44882202148438 91.9654541015625 C131.6558837890625 91.14246368408203 131.98304748535156 90.36094665527344 132.37525939941406 89.60807037353516 C132.76748657226562 88.85519409179688 133.22474670410156 88.13097381591797 133.69198608398438 87.42257690429688 C134.35780334472656 86.41373443603516 135.05064392089844 85.42277526855469 135.77117919921875 84.45356750488281 C136.49171447753906 83.48435974121094 137.2399444580078 82.53691101074219 138.0165252685547 81.6150894165039 C138.7930908203125 80.6932601928711 139.5980224609375 79.79705810546875 140.43197631835938 78.93034362792969 C139.31222534179688 78.2041244506836 138.0623779296875 77.82119750976562 137.07696533203125 77.61567687988281 C136.09153747558594 77.41015625 135.37054443359375 77.38204956054688 135.3084716796875 77.36546325683594"></path>
<path fill="#B3685C" fill-opacity="1.0"  filling="0" d="M90.7005844116211 63.830230712890625 C90.77717590332031 62.483463287353516 90.79963684082031 61.13369369506836 90.76661682128906 59.79216384887695 C90.73359680175781 58.45063018798828 90.64510345458984 57.117340087890625 90.49978637695312 55.803524017333984 C90.35447692871094 54.489707946777344 90.15233612060547 53.19537353515625 89.89203643798828 51.9317626953125 C89.807861328125 50.557350158691406 89.31510925292969 49.246826171875 88.94892120361328 47.91973114013672 C88.79472351074219 47.361839294433594 88.66200256347656 46.786163330078125 88.71177673339844 46.2098388671875 C88.74556732177734 45.82093048095703 88.9206771850586 45.381019592285156 89.29790496826172 45.28211212158203 C89.57562255859375 45.20960235595703 89.87298583984375 45.35584259033203 90.06037902832031 45.573341369628906 C90.24777221679688 45.79082489013672 90.34668731689453 46.06792449951172 90.44192504882812 46.3388671875 C90.9721450805664 47.843544006347656 91.50238037109375 49.34758758544922 92.17760467529297 50.73858642578125 C92.06916809082031 49.7730598449707 91.96072387695312 48.80353927612305 91.90142822265625 47.83355712890625 C91.8421401977539 46.86357116699219 91.83200073242188 45.893123626708984 91.920166015625 44.925743103027344 C91.95396423339844 44.55772399902344 92.0086441040039 44.17250061035156 92.22982025146484 43.87696075439453 C92.45162963867188 43.581451416015625 92.89276885986328 43.418617248535156 93.20304107666016 43.618934631347656 C93.46231842041016 43.786651611328125 93.53665924072266 44.12641906738281 93.58580017089844 44.43115997314453 C93.75537872314453 45.480552673339844 93.88839721679688 46.536094665527344 93.99122619628906 47.6209716796875 C94.09406280517578 48.705848693847656 94.16671752929688 49.820064544677734 94.21556854248047 50.98680877685547 C94.38821411132812 49.982261657714844 94.58435821533203 48.981712341308594 94.80377960205078 47.98630905151367 C95.023193359375 46.99090576171875 95.26588439941406 46.000648498535156 95.53160858154297 45.016685485839844 C95.6096420288086 44.72792053222656 95.69380950927734 44.43115997314453 95.8799819946289 44.19645690917969 C96.06614685058594 43.962371826171875 96.38133239746094 43.804473876953125 96.66763305664062 43.8917236328125 C97.02767181396484 44.00169372558594 97.18312072753906 44.424400329589844 97.22980499267578 44.79734802246094 C97.2949447631836 45.31221008300781 97.25254821777344 45.833831787109375 97.20707702636719 46.35054016113281 C97.0645523071289 47.954139709472656 96.88636016845703 49.55463409423828 96.62401580810547 51.26636505126953 C96.90049743652344 50.26704406738281 97.21353149414062 49.27770233154297 97.5622787475586 48.30111312866211 C97.91102600097656 47.32452392578125 98.29548645019531 46.360679626464844 98.71481323242188 45.412353515625 C98.91265869140625 44.965065002441406 99.2591781616211 44.44098663330078 99.74085998535156 44.525169372558594 C100.03639221191406 44.57677459716797 100.24591064453125 44.86370849609375 100.30304718017578 45.158607482910156 C100.36017608642578 45.453529357910156 100.29751586914062 45.75641632080078 100.23484802246094 46.05010986328125 C99.93624877929688 47.448482513427734 99.63749694824219 48.84685516357422 99.33436584472656 50.26066970825195 C99.03123474121094 51.67448043823242 98.7237319946289 53.103729248046875 98.40762329101562 54.56385040283203 C99.00604248046875 53.669891357421875 99.68986511230469 52.83307647705078 100.44681549072266 52.068153381347656 C100.73127746582031 51.78062438964844 101.04278564453125 51.493064880371094 101.43292236328125 51.38555908203125 C101.82307434082031 51.277427673339844 102.30905151367188 51.410743713378906 102.47433471679688 51.779998779296875 C102.62854766845703 52.123443603515625 102.4638900756836 52.51850128173828 102.29553985595703 52.855201721191406 C101.82982635498047 53.78786087036133 101.3218765258789 54.69932556152344 100.77383422851562 55.58597946166992 C100.22578430175781 56.472633361816406 99.63764953613281 57.3344841003418 99.0115737915039 58.16791534423828 C98.552001953125 58.77924346923828 98.06661987304688 59.385650634765625 97.77172088623047 60.090980529785156 C97.4626693725586 60.83073425292969 97.37787628173828 61.64295959472656 97.32996368408203 62.44352722167969 C97.30845642089844 62.801109313964844 97.28142547607422 63.19001770019531 97.04364776611328 63.45790100097656 C96.92445373535156 63.59184265136719 96.76348114013672 63.68092346191406 96.6031265258789 63.76080322265625 C95.77828979492188 64.17244720458984 94.87220764160156 64.41590118408203 93.88755798339844 64.44339752197266 C92.90290069580078 64.47089385986328 91.83968353271484 64.28242492675781 90.7005844116211 63.830230712890625"></path>
<path fill="#DB6A5D" fill-opacity="1.0"  filling="0" d="M89.5154037475586 61.440826416015625 C90.9257583618164 61.501346588134766 92.33780670166016 61.520851135253906 93.74916076660156 61.49942398071289 C95.16051483154297 61.477996826171875 96.57118225097656 61.41563415527344 97.97876739501953 61.312416076660156 C98.1102523803711 61.302581787109375 98.2964096069336 61.34375 98.1655502319336 61.68535614013672 C98.18963623046875 63.09307098388672 98.23500061035156 64.50041961669922 98.30291748046875 65.90760040283203 C98.3708267211914 67.31478118896484 98.46128845214844 68.7218017578125 98.57555389404297 70.12886810302734 C98.6898193359375 71.53593444824219 98.82789611816406 72.94303894042969 98.99104309082031 74.35040283203125 C99.15419006347656 75.75776672363281 99.34241485595703 77.16537475585938 99.55697631835938 78.57344055175781 C99.77153015136719 79.98150634765625 100.0124282836914 81.39002990722656 100.28092193603516 82.7992172241211 C101.67696380615234 82.47063446044922 103.07453155517578 82.05142211914062 104.4725341796875 81.5936050415039 C105.87054443359375 81.13579559326172 107.26898956298828 80.63938903808594 108.66680145263672 80.15643310546875 C110.06461334228516 79.67347717285156 111.46178436279297 79.20396423339844 112.85723114013672 78.79994201660156 C114.252685546875 78.39591979980469 115.64640808105469 78.0573959350586 117.03733825683594 77.83639526367188 C118.42826843261719 77.61540222167969 119.81639099121094 77.51193237304688 121.20063781738281 77.57804870605469 C121.57858276367188 79.15863800048828 121.87364196777344 80.75656127929688 122.10074615478516 82.36776733398438 C122.32785034179688 83.97897338867188 122.48699951171875 85.60346221923828 122.59310913085938 87.23717498779297 C122.69921875 88.87088775634766 122.75228881835938 90.5138168334961 122.76725006103516 92.16190338134766 C122.78221130371094 93.80998992919922 122.75906372070312 95.46324157714844 122.71272277832031 97.11758422851562 C122.6663818359375 98.77192687988281 122.59684753417969 100.42737579345703 122.51905059814453 102.0798568725586 C122.44125366210938 103.73233795166016 122.35519409179688 105.38185119628906 122.27578735351562 107.02434539794922 C122.19638061523438 108.66683959960938 122.12362670898438 110.30230712890625 122.07246398925781 111.92669677734375 C122.02306365966797 113.49329376220703 121.98725891113281 115.06013488769531 121.95968627929688 116.62980651855469 C121.93211364746094 118.19947814941406 121.91277313232422 119.77197265625 121.89630126953125 121.3498764038086 C121.87983703613281 122.92778015136719 121.86624908447266 124.5110855102539 121.85017395019531 126.10237884521484 C121.8341064453125 127.69367980957031 121.8155517578125 129.29295349121094 121.78915405273438 130.90281677246094 C121.76275634765625 132.51266479492188 121.72853088378906 134.13308715820312 121.68109893798828 135.7666473388672 C120.08692932128906 135.8536834716797 118.49044799804688 135.8992156982422 116.90153503417969 135.9149169921875 C115.31262969970703 135.9306182861328 113.7313003540039 135.91648864746094 112.16744995117188 135.8842010498047 C110.60359954833984 135.85191345214844 109.05722045898438 135.80145263671875 107.53822326660156 135.74452209472656 C107.69253540039062 134.20350646972656 107.84683990478516 132.66250610351562 107.99989318847656 131.1233673095703 C108.1529541015625 129.584228515625 108.30477142333984 128.04693603515625 108.45413208007812 126.51335144042969 C108.60348510742188 124.97976684570312 108.75038146972656 123.44987487792969 108.89358520507812 121.92552185058594 C109.03678894042969 120.40116882324219 109.17630767822266 118.88235473632812 109.31092071533203 117.37091827392578 C109.44552612304688 115.85948181152344 109.57522583007812 114.35542297363281 109.69879913330078 112.86058807373047 C109.8223648071289 111.36575317382812 109.93980407714844 109.880126953125 110.04988098144531 108.40557098388672 C110.27029418945312 106.98692321777344 110.47996520996094 105.56661987304688 110.67965698242188 104.14482879638672 C110.87934875488281 102.72303771972656 111.06906127929688 101.29975891113281 111.24958038330078 99.87516021728516 C111.43009948730469 98.4505615234375 111.60142517089844 97.02462768554688 111.76432800292969 95.59754180908203 C111.92723083496094 94.17044830322266 112.08171081542969 92.74220275878906 112.22856140136719 91.31295013427734 C110.87303924560547 91.67452239990234 109.50576782226562 91.99213409423828 108.12964630126953 92.26536560058594 C106.75353240966797 92.53860473632812 105.36857604980469 92.76746368408203 103.97769165039062 92.9515609741211 C102.58680725097656 93.13565063476562 101.18998718261719 93.27496337890625 99.7901382446289 93.36910247802734 C98.39029693603516 93.46324157714844 96.9874267578125 93.51219940185547 95.5844497680664 93.51557922363281 C94.20389556884766 93.5186538696289 92.72380828857422 93.44554138183594 91.6424560546875 92.44590759277344 C90.35037994384766 92.02627563476562 89.4041976928711 90.86629486083984 88.918212890625 89.59754943847656 C88.43221282958984 88.32881164550781 88.3406753540039 86.9482650756836 88.27555084228516 85.59104919433594 C88.20169830322266 84.0364990234375 88.15645599365234 82.4805908203125 88.14143371582031 80.91748809814453 C88.12641143798828 79.35438537597656 88.14161682128906 77.78408813476562 88.18865966796875 76.20074462890625 C88.23570251464844 74.6174087524414 88.31458282470703 73.02102661132812 88.42692565917969 71.40576934814453 C88.53926086425781 69.7905044555664 88.68505859375 68.15635681152344 88.86593627929688 66.49748229980469 C89.04681396484375 64.83860778808594 89.26275634765625 63.15500259399414 89.5154037475586 61.440826416015625"></path>
<path fill="#C14944" fill-opacity="1.0"  filling="0" d="M112.00920867919922 91.17102813720703 C112.04792022705078 90.34957885742188 112.23899841308594 89.5354995727539 112.56954193115234 88.7822494506836 C112.56462860107422 89.60001373291016 112.41349029541016 90.41654968261719 112.00920867919922 91.17102813720703"></path>
<path fill="#CB534C" fill-opacity="1.0"  filling="0" d="M117.49887084960938 77.27207946777344 C118.08470153808594 78.43943786621094 118.65363311767578 79.61540222167969 119.2054443359375 80.79942321777344 C119.75724792480469 81.98344421386719 120.29193115234375 83.175537109375 120.80926513671875 84.37515258789062 C121.22828674316406 85.3468246459961 121.63777923583984 86.33109283447266 121.98084259033203 87.34124755859375 C122.32390594482422 88.35139465332031 122.60054016113281 89.38743591308594 122.75382995605469 90.46263122558594 C122.92688751220703 88.87789154052734 123.05973052978516 87.28871154785156 123.15225982666016 85.69713592529297 C123.24478149414062 84.1055679321289 123.29698181152344 82.51161193847656 123.30874633789062 80.91731262207031 C123.32051086425781 79.32301330566406 123.29183959960938 77.7283706665039 123.22261810302734 76.13543701171875 C122.24757385253906 76.0466537475586 121.26146697998047 76.08551025390625 120.29670715332031 76.26921844482422 C119.33193969726562 76.45292663574219 118.3885269165039 76.78147888183594 117.49887084960938 77.27207946777344"></path></svg>