<svg xmlns="http://www.w3.org/2000/svg" viewBox="0.0 0.0 256.0 256.0" height="256.0px" width="256.0px"><path fill="#911A1D" fill-opacity="1.0"  filling="0" d="M140.4058837890625 141.6885223388672 C142.03268432617188 142.09225463867188 143.2373046875 143.02659606933594 144.1302032470703 144.2813720703125 C145.02310180664062 145.53616333007812 145.60426330566406 147.11138916015625 145.984130859375 148.79693603515625 C146.36398315429688 150.4824676513672 146.5425567626953 152.27830505371094 146.63026428222656 153.9742889404297 C146.71795654296875 155.67027282714844 146.7147979736328 157.2664031982422 146.731201171875 158.5525360107422 C146.74737548828125 159.80657958984375 146.7384796142578 161.06044006347656 146.72019958496094 162.31423950195312 C146.701904296875 163.56805419921875 146.67420959472656 164.82179260253906 146.6527862548828 166.0756072998047 C146.63134765625 167.3294219970703 146.61618041992188 168.58328247070312 146.62295532226562 169.83734130859375 C146.6304168701172 171.27093505859375 146.64361572265625 172.72280883789062 146.761962890625 174.16140747070312 C146.8802947998047 175.60000610351562 147.103759765625 177.02532958984375 147.53173828125 178.40585327148438 C147.910400390625 179.627197265625 148.392822265625 180.7841796875 148.98731994628906 181.8620147705078 C149.58181762695312 182.9398651123047 150.28836059570312 183.93858337402344 151.11526489257812 184.84339904785156 C151.94216918945312 185.74819946289062 152.88943481445312 186.55911254882812 153.96533203125 187.26132202148438 C154.92176818847656 187.885498046875 155.9244384765625 188.41842651367188 156.93646240234375 188.9312744140625 C157.948486328125 189.44412231445312 158.96987915039062 189.93690490722656 159.96377563476562 190.48080444335938 C160.95767211914062 191.0247039794922 161.924072265625 191.61972045898438 162.82611083984375 192.33705139160156 C164.07252502441406 193.3281707763672 165.01832580566406 194.51690673828125 165.74610900878906 195.8285369873047 C166.47390747070312 197.14016723632812 166.9836883544922 198.57467651367188 167.3581085205078 200.05731201171875 C167.73251342773438 201.5399627685547 167.9715576171875 203.0707550048828 168.15786743164062 204.57493591308594 C168.34222412109375 206.06382751464844 168.45196533203125 207.5576934814453 168.52589416503906 209.05392456054688 C168.59982299804688 210.55015563964844 168.63795471191406 212.04876708984375 168.67906188964844 213.54713439941406 C168.72018432617188 215.04550170898438 168.7642822265625 216.54364013671875 168.85015869140625 218.0389404296875 C168.8671875 218.32159423828125 168.887451171875 218.60426330566406 168.91094970703125 218.88638305664062 C169.00802612304688 220.15200805664062 170.95306396484375 219.8762664794922 170.85650634765625 218.621337890625 C170.75047302246094 217.24205017089844 170.69979858398438 215.81820678710938 170.66549682617188 214.3697967529297 C170.6311798095703 212.92138671875 170.6132049560547 211.44837951660156 170.57254028320312 209.9707794189453 C170.53189086914062 208.4931640625 170.46853637695312 207.0109405517578 170.34347534179688 205.5440673828125 C170.21841430664062 204.0771942138672 170.03163146972656 202.6256866455078 169.7440948486328 201.20950317382812 C169.45655822753906 199.79330444335938 169.06826782226562 198.41244506835938 168.5402069091797 197.0868682861328 C168.0121307373047 195.76129150390625 167.3442840576172 194.4910125732422 166.49761962890625 193.29598999023438 C165.81919860839844 192.33848571777344 164.99525451660156 191.5156707763672 164.08445739746094 190.7883758544922 C163.17364501953125 190.06109619140625 162.17599487304688 189.4293212890625 161.1501922607422 188.8539276123047 C160.12437438964844 188.2785186767578 159.07040405273438 187.75946044921875 158.04693603515625 187.25759887695312 C156.84071350097656 186.6663055419922 155.73255920410156 186.0362091064453 154.72994995117188 185.3185577392578 C153.7273406982422 184.6009063720703 152.8302764892578 183.79571533203125 152.0462188720703 182.854248046875 C151.26214599609375 181.9127655029297 150.59109497070312 180.83502197265625 150.04052734375 179.572265625 C149.4053192138672 178.11546325683594 149.05026245117188 176.60653686523438 148.8483428955078 175.0699920654297 C148.64642333984375 173.53346252441406 148.59762573242188 171.96932983398438 148.574951171875 170.40213012695312 C148.55645751953125 169.13563537597656 148.564208984375 167.8690948486328 148.58212280273438 166.60250854492188 C148.60003662109375 165.33590698242188 148.62811279296875 164.0692901611328 148.65023803710938 162.80264282226562 C148.67236328125 161.53599548339844 148.68853759765625 160.2693328857422 148.68267822265625 159.00267028808594 C148.67587280273438 157.56427001953125 148.6760711669922 155.99310302734375 148.60501098632812 154.38148498535156 C148.53396606445312 152.76986694335938 148.39166259765625 151.1177978515625 148.09986877441406 149.51759338378906 C147.80807495117188 147.91738891601562 147.36676025390625 146.3690643310547 146.69772338867188 144.9649200439453 C146.02867126464844 143.56076049804688 145.13186645507812 142.30079650878906 143.9290771484375 141.27732849121094 C142.99041748046875 140.4789276123047 141.82989501953125 140.03306579589844 140.650634765625 139.74024963378906 C139.4202880859375 139.43521118164062 139.19415283203125 141.38772583007812 140.4058837890625 141.6885223388672"></path>
<path fill="#F5D30C" fill-opacity="1.0"  filling="0" d="M117.14346313476562 39.601593017578125 C115.67041015625 38.9295654296875 114.03359985351562 38.680511474609375 112.37921142578125 38.777069091796875 C111.0353775024414 38.85546875 109.67952728271484 39.16794204711914 108.3889389038086 39.685630798339844 C107.09835052490234 40.20331573486328 105.87303161621094 40.92621994018555 104.7902603149414 41.825477600097656 C103.7074966430664 42.72473907470703 102.76728820800781 43.80035400390625 102.04693603515625 45.023468017578125 C101.48480224609375 46.400543212890625 101.10775756835938 47.984527587890625 100.90402221679688 49.628265380859375 C100.70025634765625 51.271453857421875 100.67041015625 52.974945068359375 100.79681396484375 54.594146728515625 C100.88052368164062 55.673583984375 101.03414916992188 56.716278076171875 101.251708984375 57.680511474609375 C101.65286254882812 59.21224594116211 102.14474487304688 60.72014617919922 102.72449493408203 62.188236236572266 C103.30424499511719 63.65632629394531 103.97186279296875 65.0846176147461 104.7244873046875 66.4571304321289 C105.47711181640625 67.82964324951172 106.31474304199219 69.1463851928711 107.23452758789062 70.3913803100586 C108.15430450439453 71.63638305664062 109.15623474121094 72.80963897705078 110.2374496459961 73.89518737792969 C111.31866455078125 74.98074340820312 112.47917175292969 75.97858428955078 113.71610260009766 76.87274932861328 C114.95303344726562 77.76691436767578 116.26638793945312 78.55740356445312 117.6533203125 79.22825622558594 L120.11199951171875 79.05439758300781 L123.0333251953125 78.8479995727539 L125.95465087890625 78.6416015625 C126.15412902832031 77.35665893554688 126.34056854248047 76.01165771484375 126.50382232666016 74.62328338623047 C126.66707611083984 73.23490905761719 126.80713653564453 71.80315399169922 126.91387176513672 70.3447265625 C127.02059936523438 68.88629150390625 127.09400177001953 67.40117645263672 127.12391662597656 65.90606689453125 C127.15382385253906 64.41096496582031 127.1402587890625 62.90586853027344 127.07305908203125 61.407470703125 C127.005859375 59.90934753417969 126.88320922851562 58.41973876953125 126.6859130859375 56.9610595703125 C126.45849609375 55.658447265625 126.19743347167969 54.30574417114258 125.87387084960938 52.950439453125 C125.55030822753906 51.59513854980469 125.16423034667969 50.23723602294922 124.6867904663086 48.92422866821289 C124.20934295654297 47.61122131347656 123.64053344726562 46.34310531616211 122.95147705078125 45.16737747192383 C122.2624282836914 43.99164962768555 121.4531478881836 42.90830993652344 120.49476623535156 41.964847564697266 C119.53638458251953 41.021385192871094 118.42890930175781 40.217803955078125 117.14346313476562 39.601593017578125"></path>
<path fill="#F3BB18" fill-opacity="1.0"  filling="0" d="M117.14346313476562 39.601593017578125 C115.67041015625 38.9295654296875 114.03359985351562 38.680511474609375 112.37921142578125 38.777069091796875 C113.84779357910156 39.09674835205078 115.10597229003906 39.84923553466797 116.1916275024414 40.902984619140625 C117.27728271484375 41.95673370361328 118.1904067993164 43.31174850463867 118.96890258789062 44.83647155761719 C119.74739837646484 46.3611946105957 120.3912582397461 48.05562973022461 120.9383773803711 49.78822708129883 C121.48548889160156 51.52082061767578 121.93586730957031 53.29158020019531 122.32737731933594 54.96894836425781 C122.71888732910156 56.64631652832031 123.05154418945312 58.23030090332031 123.36322021484375 59.58934020996094 C123.59146118164062 61.228790283203125 123.72747802734375 62.86186218261719 123.74771118164062 64.47358703613281 C123.7681655883789 66.08567810058594 123.67282104492188 67.67738342285156 123.44734191894531 69.23331451416016 C123.22186279296875 70.78924560546875 122.86624908447266 72.30940246582031 122.36615753173828 73.77839660644531 C121.86607360839844 75.24739074707031 121.22151184082031 76.66523742675781 120.41815185546875 78.01652526855469 C120.29598999023438 78.35359191894531 120.20053100585938 78.70346069335938 120.1109619140625 79.05439758300781 L123.03228759765625 78.8479995727539 L125.95361328125 78.6416015625 C126.153076171875 77.35665893554688 126.33950805664062 76.01165771484375 126.50275421142578 74.62328338623047 C126.66600036621094 73.23490905761719 126.80606842041016 71.80315399169922 126.91279602050781 70.3447265625 C127.01953125 68.88629150390625 127.09293365478516 67.40117645263672 127.12285614013672 65.90606689453125 C127.15277099609375 64.41096496582031 127.13921356201172 62.90586853027344 127.072021484375 61.407470703125 C127.00479125976562 59.90934753417969 126.88214111328125 58.41973876953125 126.684814453125 56.9610595703125 C126.4576187133789 55.658447265625 126.19673156738281 54.30574417114258 125.87330627441406 52.950439453125 C125.54988098144531 51.59513854980469 125.16390991210938 50.23723602294922 124.6865463256836 48.92422866821289 C124.20918273925781 47.61122131347656 123.64041900634766 46.34310531616211 122.95140838623047 45.16737747192383 C122.26239013671875 43.99164962768555 121.453125 42.90830993652344 120.49475860595703 41.964847564697266 C119.53638458251953 41.021385192871094 118.42890930175781 40.217803955078125 117.14346313476562 39.601593017578125"></path>
<path fill="#FDE75A" fill-opacity="1.0"  filling="0" d="M108.3946533203125 43.750946044921875 C106.64691925048828 43.54667282104492 105.40052795410156 44.180442810058594 104.51709747314453 45.25400161743164 C103.6336669921875 46.32755661010742 103.11318969726562 47.84089660644531 102.81731414794922 49.39575958251953 C102.52143859863281 50.95062255859375 102.45014953613281 52.54700469970703 102.465087890625 53.786651611328125 C102.47457122802734 54.57523727416992 102.80996704101562 55.92245864868164 103.37164306640625 57.50891876220703 C103.93331146240234 59.09537887573242 104.72125244140625 60.92107391357422 105.63582611083984 62.66660690307617 C106.55039978027344 64.41213989257812 107.59160614013672 66.0775146484375 108.65979766845703 67.34332275390625 C109.72799682617188 68.609130859375 110.82318115234375 69.47537994384766 111.84571838378906 69.62266540527344 C112.86825561523438 69.76995849609375 113.81814575195312 69.19828796386719 114.59573364257812 67.5882568359375 C115.20125579833984 66.33438873291016 115.50454711914062 64.94476318359375 115.61389923095703 63.50217819213867 C115.72325134277344 62.059593200683594 115.63866424560547 60.564048767089844 115.46842956542969 59.098350524902344 C115.2981948852539 57.632652282714844 115.04231262207031 56.196800231933594 114.80908203125 54.87359619140625 C114.60570526123047 53.72017288208008 114.31443786621094 52.15708923339844 113.85340118408203 50.566532135009766 C113.3923568725586 48.975975036621094 112.76153564453125 47.35793685913086 111.87904357910156 46.09461212158203 C110.99655151367188 44.83128356933594 109.86238098144531 43.92266845703125 108.3946533203125 43.750946044921875"></path>
<path fill="#F5D30C" fill-opacity="1.0"  filling="0" d="M96.71572875976562 73.30879211425781 C96.01934051513672 72.20039367675781 95.30611419677734 71.10906219482422 94.56019592285156 70.04856872558594 C93.81427764892578 68.98807525634766 93.03565979003906 67.95842742919922 92.20848846435547 66.97339630126953 C91.38131713867188 65.98835754394531 90.50559997558594 65.04794311523438 89.56547546386719 64.16592407226562 C88.62535095214844 63.283897399902344 87.62081146240234 62.46026611328125 86.5360107421875 61.70880126953125 C85.19253540039062 60.77839660644531 83.72480773925781 60.262794494628906 82.32321166992188 60.22605895996094 C80.92161560058594 60.189327239990234 79.58615112304688 60.63146209716797 78.5072021484375 61.61653137207031 C77.88104248046875 62.18824768066406 77.34078979492188 62.9407958984375 76.92532348632812 63.89012145996094 C76.26275634765625 65.40354919433594 75.86122131347656 66.94927215576172 75.692626953125 68.50038146972656 C75.52403259277344 70.0514907836914 75.58838653564453 71.60799407958984 75.85759735107422 73.14298248291016 C76.12680053710938 74.677978515625 76.60087585449219 76.19145202636719 77.251708984375 77.65652465820312 C77.83433532714844 78.96820831298828 78.47785949707031 80.2645492553711 79.18083190917969 81.53282165527344 C79.88380432128906 82.80109405517578 80.6462173461914 84.04129791259766 81.46662139892578 85.24069213867188 C82.28702545166016 86.44009399414062 83.16541290283203 87.59868621826172 84.10033416748047 88.70375061035156 C85.03524780273438 89.80880737304688 86.02670288085938 90.86033630371094 87.0732192993164 91.84559631347656 C88.11973571777344 92.83086395263672 89.22132873535156 93.74986267089844 90.37652587890625 94.58985900878906 C91.33358764648438 95.2858657836914 92.33425903320312 95.98240661621094 93.35326385498047 96.63253784179688 C94.37226867675781 97.28266906738281 95.40960693359375 97.88640594482422 96.44000244140625 98.39680480957031 C97.65496826171875 98.9984130859375 99.25335693359375 99.14720153808594 100.57919311523438 99.48854064941406 C101.2528076171875 99.66184997558594 101.85760498046875 99.88426208496094 102.30291748046875 100.24267578125 L103.50265502929688 96.83627319335938 L104.702392578125 93.42987060546875 C104.59647369384766 92.1193618774414 104.35220336914062 90.74901580810547 104.00141906738281 89.35102844238281 C103.650634765625 87.95303344726562 103.19332122802734 86.52740478515625 102.66131591796875 85.10631561279297 C102.12931060791016 83.68523406982422 101.5226058959961 82.26870727539062 100.87303161621094 80.88892364501953 C100.22345733642578 79.50914001464844 99.53101348876953 78.16610717773438 98.82752227783203 76.89202117919922 C98.1240234375 75.61793518066406 97.40948486328125 74.41279602050781 96.71572875976562 73.30879211425781"></path>
<path fill="#FDE75A" fill-opacity="1.0"  filling="0" d="M80.0704345703125 66.03041076660156 C78.4560317993164 66.03556060791016 77.51950073242188 66.79080963134766 77.02774047851562 67.92815399169922 C76.53598022460938 69.06549072265625 76.48899841308594 70.58492279052734 76.65371704101562 72.11841583251953 C76.81843566894531 73.65190124511719 77.19483947753906 75.199462890625 77.54986572265625 76.39306640625 C77.77557373046875 77.15231323242188 78.44580078125 78.4124755859375 79.38369750976562 79.87711334228516 C80.32159423828125 81.34175109863281 81.52715301513672 83.01087188720703 82.82351684570312 84.58805084228516 C84.11988067626953 86.16522216796875 85.5070571899414 87.65045166015625 86.80818176269531 88.74729919433594 C88.10930633544922 89.84415435791016 89.32437896728516 90.5526351928711 90.27655029296875 90.5763168334961 C91.22871398925781 90.59999084472656 91.91798400878906 89.93887329101562 92.16748046875 88.29652404785156 C92.36178588867188 87.01741027832031 92.24919128417969 85.64241790771484 91.9490966796875 84.23882293701172 C91.64900207519531 82.8352279663086 91.16142272949219 81.40303039550781 90.60575103759766 80.00950622558594 C90.05007934570312 78.6159896850586 89.42631530761719 77.26113891601562 88.8538818359375 76.01225280761719 C88.35467529296875 74.92372131347656 87.66424560546875 73.45030212402344 86.81489562988281 71.97002410888672 C85.9655532836914 70.48974609375 84.9572982788086 69.00261688232422 83.82244873046875 67.88666534423828 C82.68760681152344 66.77072143554688 81.42616271972656 66.02595520019531 80.0704345703125 66.03041076660156"></path>
<path fill="#F3BB18" fill-opacity="1.0"  filling="0" d="M96.71572875976562 73.30879211425781 C96.01934051513672 72.20039367675781 95.30611419677734 71.10906219482422 94.56019592285156 70.04856872558594 C93.81427764892578 68.98807525634766 93.03565979003906 67.95842742919922 92.20848846435547 66.97339630126953 C91.38131713867188 65.98835754394531 90.50559997558594 65.04794311523438 89.56547546386719 64.16592407226562 C88.62535095214844 63.283897399902344 87.62081146240234 62.46026611328125 86.5360107421875 61.70880126953125 C85.19253540039062 60.77839660644531 83.72480773925781 60.262794494628906 82.32321166992188 60.22605895996094 C80.92161560058594 60.189327239990234 79.58615112304688 60.63146209716797 78.5072021484375 61.61653137207031 C80.14120483398438 61.28146743774414 81.6390380859375 61.40456771850586 83.01496124267578 61.862327575683594 C84.39088439941406 62.32008743286133 85.6448974609375 63.11250305175781 86.791259765625 64.1160659790039 C87.9376220703125 65.11962890625 88.9763412475586 66.3343505859375 89.92166900634766 67.63670349121094 C90.86698913574219 68.9390640258789 91.71892547607422 70.32906341552734 92.49172973632812 71.68319702148438 C93.23235321044922 72.98106384277344 94.03754425048828 74.27642822265625 94.8539047241211 75.57838439941406 C95.67027282714844 76.88034057617188 96.49781799316406 78.18888092041016 97.28315734863281 79.51310729980469 C98.06849670410156 80.83733367919922 98.81163787841797 82.17724609375 99.45919036865234 83.54193878173828 C100.10674285888672 84.90662384033203 100.6587142944336 86.29608917236328 101.06171417236328 87.71942901611328 C101.4647216796875 89.14276123046875 101.71875 90.5999755859375 101.77043914794922 92.10015106201172 C101.82212829589844 93.60032653808594 101.67146301269531 95.14346313476562 101.26507568359375 96.73866271972656 C101.02774047851562 97.66932678222656 100.83465576171875 98.58720397949219 100.57919311523438 99.48854064941406 C101.2528076171875 99.66184997558594 101.85760498046875 99.88426208496094 102.30291748046875 100.24267578125 L103.50265502929688 96.83627319335938 L104.702392578125 93.42987060546875 C104.59647369384766 92.1193618774414 104.35220336914062 90.74901580810547 104.00141906738281 89.35102844238281 C103.650634765625 87.95303344726562 103.19332122802734 86.52740478515625 102.66131591796875 85.10631561279297 C102.12931060791016 83.68523406982422 101.5226058959961 82.26870727539062 100.87303161621094 80.88892364501953 C100.22345733642578 79.50914001464844 99.53101348876953 78.16610717773438 98.82752227783203 76.89202117919922 C98.1240234375 75.61793518066406 97.40948486328125 74.41279602050781 96.71572875976562 73.30879211425781"></path>
<path fill="#F3BB18" fill-opacity="1.0"  filling="0" d="M141.488525390625 140.03358459472656 L137.86880493164062 141.86346435546875 C137.4893341064453 142.6493377685547 137.3929443359375 143.6156005859375 137.460205078125 144.5782012939453 C137.5274658203125 145.54080200195312 137.75840759277344 146.49972534179688 138.03359985351562 147.27093505859375 C139.245361328125 147.35040283203125 141.18988037109375 146.31732177734375 142.3583984375 145.92852783203125 C144.02557373046875 145.3733367919922 145.07891845703125 144.384521484375 146.46615600585938 143.4906768798828 C145.5568084716797 143.02667236328125 144.63919067382812 142.39920043945312 143.7855224609375 141.76931762695312 C142.93185424804688 141.1394500732422 142.14212036132812 140.50718688964844 141.488525390625 140.03358459472656"></path>
<path fill="#F79D2B" fill-opacity="1.0"  filling="0" d="M137.12799072265625 142.63839721679688 C137.03518676757812 142.5829315185547 136.94189453125 142.53118896484375 136.84906005859375 142.4762725830078 L137.12799072265625 142.63839721679688"></path>
<path fill="#F5D30C" fill-opacity="1.0"  filling="0" d="M142.04214477539062 83.73118591308594 C141.26614379882812 82.74610900878906 140.41494750976562 81.85760498046875 139.5013427734375 81.06721496582031 C138.40492248535156 80.11883544921875 137.2174835205078 79.31195831298828 135.97047424316406 78.65512084960938 C134.7234649658203 77.99828338623047 133.4168701171875 77.49148559570312 132.08212280273438 77.14326477050781 C130.74737548828125 76.79503631591797 129.3844757080078 76.60538482666016 128.0248565673828 76.58283996582031 C126.66523742675781 76.56028747558594 125.30889129638672 76.70484924316406 123.98725128173828 77.02503967285156 C122.66561126708984 77.34523010253906 121.37867736816406 77.841064453125 120.15786743164062 78.52105712890625 C119.88052368164062 78.64427185058594 119.60641479492188 78.77867126464844 119.332275390625 78.91145324707031 C118.8106689453125 79.16374206542969 118.29171752929688 79.4261474609375 117.77972412109375 79.7093505859375 C116.6080322265625 80.35731506347656 115.46133422851562 81.07839965820312 114.33547973632812 81.83892822265625 C113.27867126464844 82.5783920288086 112.22093963623047 83.3382568359375 111.17668151855469 84.12446594238281 C110.13241577148438 84.91065979003906 109.10162353515625 85.72319793701172 108.09869384765625 86.5679931640625 C107.09600830078125 87.41278076171875 106.1226806640625 88.29119873046875 105.20266723632812 89.21437072753906 C104.21039581298828 90.04251098632812 103.30299377441406 90.9752426147461 102.48641967773438 91.99307250976562 C101.66984558105469 93.01090240478516 100.944091796875 94.11381530761719 100.31512451171875 95.28231811523438 C99.6861572265625 96.45082092285156 99.15397644042969 97.68490600585938 98.72454071044922 98.96507263183594 C98.29509735107422 100.24523162841797 97.96839904785156 101.57147216796875 97.75039672851562 102.92427062988281 C97.53228759765625 104.27679443359375 97.42453002929688 105.65599060058594 97.46774291992188 107.03999328613281 C97.5333251953125 108.47413635253906 97.73492431640625 109.84854125976562 98.05548095703125 111.16691589355469 C98.37603759765625 112.48587036132812 98.81494140625 113.74932861328125 99.35467529296875 114.96212768554688 C100.05027770996094 116.10786437988281 100.79647827148438 117.21146392822266 101.58768463134766 118.27590942382812 C102.37889099121094 119.34036254882812 103.2151107788086 120.36566162109375 104.09074401855469 121.35479736328125 C104.96636962890625 122.34393310546875 105.88142395019531 123.2968978881836 106.83029174804688 124.21668243408203 C107.77916717529297 125.13645935058594 108.7618637084961 126.02305603027344 109.77279663085938 126.87945556640625 C110.783447265625 127.73599243164062 111.823486328125 128.56158447265625 112.88906860351562 129.3589324951172 C114.03453826904297 130.1956024169922 115.20323944091797 130.97315979003906 116.38960266113281 131.70681762695312 C117.57597351074219 132.44046020507812 118.7800064086914 133.1302032470703 119.99613952636719 133.79119873046875 C121.21227264404297 134.4521942138672 122.44050598144531 135.08445739746094 123.67527770996094 135.7031707763672 C124.91004180908203 136.32188415527344 126.1513442993164 136.92706298828125 127.39361572265625 137.5338592529297 C128.45245361328125 138.05101013183594 129.51194763183594 138.56947326660156 130.5686798095703 139.0985870361328 C131.6254119873047 139.627685546875 132.67938232421875 140.16744995117188 133.7271728515625 140.72718811035156 C134.7749481201172 141.28692626953125 135.81655883789062 141.86666870117188 136.84854125976562 142.47572326660156 C138.5621337890625 142.50611877441406 139.8569793701172 141.97885131835938 140.86866760253906 141.09178161621094 C141.88035583496094 140.2047119140625 142.60890197753906 138.95782470703125 143.18992614746094 137.5489959716797 C143.77096557617188 136.14016723632812 144.2044677734375 134.5693817138672 144.6260986328125 133.0345001220703 C145.04771423339844 131.4996337890625 145.4574432373047 130.00067138671875 145.99090576171875 128.73545837402344 C146.31253051757812 127.56640625 146.60107421875 126.37918090820312 146.85760498046875 125.17973327636719 C147.21832275390625 123.73161315917969 147.5457305908203 122.24258422851562 147.83096313476562 120.72306823730469 C148.1162109375 119.20354461669922 148.35928344726562 117.65352630615234 148.5513153076172 116.08342742919922 C148.7433624267578 114.5133285522461 148.88436889648438 112.92314910888672 148.96548461914062 111.32329559326172 C149.04660034179688 109.72344970703125 149.06781005859375 108.11392974853516 149.02027893066406 106.50515747070312 C148.9727325439453 104.8963851928711 148.85643005371094 103.28836059570312 148.66250610351562 101.69149017333984 C148.4685821533203 100.09461975097656 148.19703674316406 98.5089111328125 147.83900451660156 96.94477844238281 C147.48097229003906 95.3806381225586 147.03643798828125 93.83807373046875 146.49656677246094 92.32749938964844 C145.95669555664062 90.81692504882812 145.3214569091797 89.33833312988281 144.58200073242188 87.90214538574219 C143.84255981445312 86.46595764160156 142.9989013671875 85.07215881347656 142.04214477539062 83.73118591308594"></path>
<path fill="#F3BB18" fill-opacity="1.0"  filling="0" d="M142.04214477539062 83.73118591308594 C141.26614379882812 82.74610900878906 140.41546630859375 81.85760498046875 139.5013427734375 81.06721496582031 C138.40492248535156 80.11883544921875 137.2174835205078 79.31195831298828 135.97047424316406 78.65512084960938 C134.7234649658203 77.99828338623047 133.4168701171875 77.49148559570312 132.08212280273438 77.14326477050781 C130.74737548828125 76.79503631591797 129.3844757080078 76.60538482666016 128.0248565673828 76.58283996582031 C126.66523742675781 76.56028747558594 125.30889129638672 76.70484924316406 123.98725128173828 77.02503967285156 C122.66561126708984 77.34523010253906 121.37867736816406 77.841064453125 120.15786743164062 78.52105712890625 C119.88052368164062 78.64427185058594 119.60641479492188 78.77867126464844 119.332275390625 78.91093444824219 C119.48480224609375 78.90184020996094 119.638916015625 78.89012145996094 119.7908935546875 78.88319396972656 C121.29322052001953 78.81553649902344 122.71257019042969 79.02064514160156 124.05062866210938 79.45069885253906 C125.38868713378906 79.88075256347656 126.64546203613281 80.5357437133789 127.82263946533203 81.36786651611328 C128.99981689453125 82.19998931884766 130.097412109375 83.20924377441406 131.1171112060547 84.34780883789062 C132.13681030273438 85.48637390136719 133.07861328125 86.7542495727539 133.94422912597656 88.10362243652344 C134.80982971191406 89.45299530029297 135.5992431640625 90.88385772705078 136.3141632080078 92.3484115600586 C137.02908325195312 93.81295776367188 137.66949462890625 95.31118774414062 138.23709106445312 96.79527282714844 C138.80470275878906 98.27936553955078 139.29949951171875 99.74931335449219 139.72320556640625 101.15731811523438 C140.1696014404297 102.64051818847656 140.56971740722656 104.13201904296875 140.92066955566406 105.63137817382812 C141.27162170410156 107.1307373046875 141.5734100341797 108.63795471191406 141.82315063476562 110.15260314941406 C142.0728759765625 111.66725158691406 142.27056884765625 113.18931579589844 142.413330078125 114.7183837890625 C142.52932739257812 115.9599838256836 142.64813232421875 117.2171859741211 142.72366333007812 118.4701919555664 C142.79920959472656 119.72319030761719 142.83148193359375 120.97200012207031 142.7744140625 122.19680786132812 C142.70611572265625 123.66879272460938 142.96533203125 125.23625183105469 142.65386962890625 126.65599060058594 C142.36322021484375 127.98239135742188 142.04107666015625 129.1903839111328 141.84161376953125 130.58932495117188 C141.6526336669922 131.91502380371094 141.1081085205078 133.15591430664062 140.3371124267578 134.243896484375 C139.56610107421875 135.33187866210938 138.56863403320312 136.26695251464844 137.47378540039062 136.9810028076172 C136.37892150878906 137.69505310058594 135.18667602539062 138.18807983398438 134.02615356445312 138.39198303222656 C132.442138671875 138.67037963867188 130.9002685546875 138.76959228515625 129.23626708984375 138.2277374267578 C128.6112060546875 138.0240020751953 128.00534057617188 137.7706756591797 127.3941650390625 137.5338592529297 C128.4530029296875 138.0511932373047 129.5124969482422 138.56971740722656 130.56922912597656 139.09881591796875 C131.62594604492188 139.6279296875 132.67991638183594 140.16763305664062 133.72769165039062 140.72731018066406 C134.77548217773438 141.2869873046875 135.81707763671875 141.86666870117188 136.84906005859375 142.47572326660156 C138.56265258789062 142.50625610351562 139.85748291015625 141.9790496826172 140.86917114257812 141.09201049804688 C141.880859375 140.2049560546875 142.6094207763672 138.95806884765625 143.19046020507812 137.5491943359375 C143.771484375 136.14031982421875 144.20501708984375 134.56948852539062 144.6266326904297 133.03457641601562 C145.0482635498047 131.49966430664062 145.45799255371094 130.00067138671875 145.991455078125 128.73545837402344 C146.31304931640625 127.56640625 146.60159301757812 126.37918090820312 146.85812377929688 125.17973327636719 C147.21878051757812 123.73161315917969 147.54612731933594 122.24258422851562 147.83132934570312 120.72306823730469 C148.11651611328125 119.20354461669922 148.35955810546875 117.65352630615234 148.5515594482422 116.08342742919922 C148.74356079101562 114.5133285522461 148.88455200195312 112.92314910888672 148.96563720703125 111.32329559326172 C149.04672241210938 109.72344970703125 149.0679168701172 108.11392974853516 149.02035522460938 106.50515747070312 C148.97279357910156 104.8963851928711 148.85647583007812 103.28836059570312 148.6625518798828 101.69149017333984 C148.46861267089844 100.09461975097656 148.19705200195312 98.5089111328125 147.83901977539062 96.94477844238281 C147.48097229003906 95.3806381225586 147.0364532470703 93.83807373046875 146.49656677246094 92.32749938964844 C145.95669555664062 90.81692504882812 145.3214569091797 89.33833312988281 144.58200073242188 87.90214538574219 C143.84255981445312 86.46595764160156 142.9989013671875 85.07215881347656 142.04214477539062 83.73118591308594"></path>
<path fill="#FDE75A" fill-opacity="1.0"  filling="0" d="M114.81011962890625 126.7093505859375 C115.98313903808594 127.84257507324219 117.30888366699219 128.88449096679688 118.70818328857422 129.75717163085938 C120.10748291015625 130.62985229492188 121.58033752441406 131.33331298828125 123.0475845336914 131.7895965576172 C124.51483154296875 132.2458953857422 125.9764633178711 132.4550323486328 127.35330963134766 132.33908081054688 C128.73016357421875 132.22312927246094 130.02224731445312 131.78208923339844 131.15037536621094 130.93804931640625 C132.27850341796875 130.093994140625 133.24267578125 128.84693908691406 133.9637451171875 127.11894226074219 C134.53506469726562 125.75882720947266 134.93348693847656 124.38873291015625 135.1937255859375 123.00955200195312 C135.45396423339844 121.63037109375 135.57603454589844 120.24209594726562 135.59461975097656 118.84564208984375 C135.6132049560547 117.44918060302734 135.5283203125 116.04452514648438 135.37464904785156 114.63258361816406 C135.22097778320312 113.22063446044922 134.99855041503906 111.8013916015625 134.7420654296875 110.3757553100586 C134.48556518554688 108.95011901855469 134.19500732421875 107.51808166503906 133.90509033203125 106.08053588867188 C133.656005859375 105.14239501953125 133.37762451171875 104.21173095703125 133.0709228515625 103.29280090332031 C132.7642822265625 102.37332153320312 132.4293212890625 101.46507263183594 132.066162109375 100.57119750976562 C131.5406951904297 99.27679443359375 130.99420166015625 97.95783233642578 130.3898162841797 96.67021179199219 C129.78543090820312 95.38258361816406 129.1231689453125 94.12630462646484 128.3661651611328 92.95726776123047 C127.60916137695312 91.78823852539062 126.75743103027344 90.70645141601562 125.77410888671875 89.767822265625 C124.79080200195312 88.8292007446289 123.6759033203125 88.03373718261719 122.392578125 87.43733215332031 C120.88534545898438 86.737060546875 119.38720703125 86.33198547363281 117.91134643554688 86.19978332519531 C116.43547821044922 86.06758117675781 114.98188781738281 86.20824432373047 113.56375122070312 86.59944152832031 C112.61865234375 86.86026000976562 111.68853759765625 87.23251342773438 110.777587890625 87.7109375 C109.49545288085938 88.63279724121094 108.29159545898438 89.70346069335938 107.20187377929688 90.90159606933594 C106.11214447021484 92.09972381591797 105.13655090332031 93.42532348632812 104.31094360351562 94.8570556640625 C103.76055908203125 95.81172180175781 103.27627563476562 96.81332397460938 102.86932373046875 97.85598754882812 C102.30328369140625 99.13883209228516 101.90607452392578 100.4552230834961 101.66301727294922 101.78742980957031 C101.41996002197266 103.11964416503906 101.3310546875 104.4676742553711 101.38162231445312 105.81380462646484 C101.43218994140625 107.15994262695312 101.62223815917969 108.50418090820312 101.93707275390625 109.82879638671875 C102.25228881835938 111.1546630859375 102.69281005859375 112.46080017089844 103.245361328125 113.73385620117188 C103.87309265136719 115.16679382324219 104.60762023925781 116.50382232666016 105.42776489257812 117.74732208251953 C106.2479019165039 118.9908218383789 107.15365600585938 120.14078521728516 108.12381744384766 121.19959259033203 C109.09397888183594 122.25839233398438 110.1285629272461 123.22602844238281 111.20637512207031 124.1048583984375 C112.2841796875 124.98369598388672 113.40521240234375 125.77373504638672 114.54827880859375 126.47734069824219 C114.63519287109375 126.55572509765625 114.72265625 126.63307189941406 114.81011962890625 126.7093505859375"></path>
<path fill="#FCB813" fill-opacity="1.0"  filling="0" d="M142.67999267578125 139.7967987060547 C141.64239501953125 140.22239685058594 140.5774688720703 140.57252502441406 139.5258026123047 140.95359802246094 C138.47415161132812 141.33465576171875 137.4357452392578 141.7466583251953 136.45120239257812 142.29598999023438 C135.84109497070312 142.63626098632812 136.32907104492188 143.6074676513672 136.94134521484375 143.26559448242188 C137.92535400390625 142.71652221679688 138.96388244628906 142.30438232421875 140.0157470703125 141.92318725585938 C141.06759643554688 141.5419921875 142.13278198242188 141.19174194335938 143.17010498046875 140.7664031982422 C143.81866455078125 140.50025939941406 143.32373046875 139.5327911376953 142.67999267578125 139.7967987060547"></path>
<path fill="#911A1D" fill-opacity="1.0"  filling="0" d="M136.73281860351562 143.98292541503906 C137.8674774169922 143.4789276123047 138.955078125 142.87852478027344 140.04266357421875 142.27806091308594 C141.13026428222656 141.67759704589844 142.21786499023438 141.07705688476562 143.3525390625 140.5727996826172 C144.50830078125 140.05918884277344 143.73760986328125 138.25387573242188 142.58026123046875 138.7679901123047 C141.44532775878906 139.27198791503906 140.3577423095703 139.8723907470703 139.2702178955078 140.4728546142578 C138.18270874023438 141.0733184814453 137.09524536132812 141.67385864257812 135.9605712890625 142.17813110351562 C134.8048095703125 142.6917266845703 135.57546997070312 144.4970703125 136.73281860351562 143.98292541503906"></path></svg>