<svg xmlns="http://www.w3.org/2000/svg" viewBox="0.0 0.0 256.0 256.0" height="256.0px" width="256.0px"><path fill="#E5AA8C" fill-opacity="1.0"  filling="0" d="M135.5567626953125 105.04598999023438 C135.36837768554688 104.22930908203125 135.10281372070312 103.42059326171875 134.66085815429688 102.70840454101562 C134.08245849609375 101.77723693847656 133.28323364257812 100.95555114746094 132.35462951660156 100.36033630371094 C131.42604064941406 99.76512145996094 130.36807250976562 99.39637756347656 129.27215576171875 99.37109375 C128.16159057617188 99.34546661376953 127.05154418945312 99.60205078125 126.05264282226562 100.08735656738281 C125.05374145507812 100.5726547241211 124.16600036621094 101.28667449951172 123.50007629394531 102.17591857910156 C123.23249816894531 102.53335571289062 122.99754333496094 102.91740417480469 122.69203186035156 103.24221801757812 C122.06037139892578 103.91314697265625 121.1312026977539 104.29318237304688 120.21067810058594 104.25592041015625 C120.05891418457031 104.24992370605469 119.89651489257812 104.23529052734375 119.76538848876953 104.3125 C119.63426208496094 104.38905334472656 119.5597152709961 104.57406616210938 119.62760162353516 104.70985412597656 C119.7973403930664 105.05000305175781 119.96640014648438 105.39077758789062 120.1361312866211 105.7315673828125 C120.22198486328125 105.90328979492188 120.31517791748047 105.97183227539062 120.21400451660156 106.18882751464844 C120.1474380493164 106.33193969726562 119.99568176269531 106.41313171386719 119.84925079345703 106.47036743164062 C119.70215606689453 106.52761840820312 119.54507446289062 106.57353210449219 119.42992401123047 106.68138122558594 C119.24755096435547 106.8524169921875 119.27484130859375 107.09671020507812 119.1503677368164 107.28506469726562 C119.05586242675781 107.4288330078125 118.83621215820312 107.3922119140625 118.70108795166016 107.55197143554688 C118.49209594726562 107.79824829101562 118.56464385986328 108.16964721679688 118.48077392578125 108.4818115234375 C118.3975830078125 108.79132080078125 118.21587371826172 109.07818603515625 117.96560668945312 109.27388000488281 C117.6840591430664 109.49418640136719 117.48104095458984 109.78573608398438 117.32530212402344 110.10853576660156 C116.51659393310547 111.78384399414062 120.38638305664062 113.42655944824219 120.38638305664062 113.42655944824219 C120.38638305664062 113.42655944824219 119.55772399902344 116.36917114257812 118.94537353515625 117.22312927246094 C118.70841979980469 117.55393981933594 118.36563110351562 117.69970703125 118.0341567993164 117.75761413574219 C118.18791198730469 118.86817169189453 118.8380355834961 119.84510803222656 119.67852783203125 120.66561889648438 C120.51901245117188 121.48613739013672 121.54985809326172 122.15023803710938 122.46505737304688 122.6351318359375 C123.92605590820312 123.40922546386719 125.47889709472656 123.85452270507812 127.07366943359375 124.02825927734375 C126.62373352050781 123.36996459960938 126.34484100341797 122.59452819824219 126.0872573852539 121.83175659179688 C126.03001403808594 121.66134643554688 125.97144317626953 121.48696899414062 125.97144317626953 121.30659484863281 C125.97144317626953 121.11558532714844 126.03799438476562 120.93121337890625 126.11121368408203 120.75546264648438 C126.45266723632812 119.93547058105469 127.03840637207031 119.08280944824219 127.6993408203125 118.48977661132812 C128.91871643066406 117.39488220214844 130.56076049804688 116.90965270996094 131.9239044189453 116.00044250488281 C132.77554321289062 115.43301391601562 133.50669860839844 114.70152282714844 134.09890747070312 113.86701965332031 C134.69113159179688 113.03253173828125 135.1444091796875 112.09503173828125 135.44027709960938 111.1156005859375 C135.7361297607422 110.13616943359375 135.88006591796875 109.11746978759766 135.89263916015625 108.09427642822266 C135.9051971435547 107.07108306884766 135.78639221191406 106.04339599609375 135.5567626953125 105.04598999023438"></path>
<path fill="#473D38" fill-opacity="1.0"  filling="0" d="M127.95359802246094 118.25613403320312 C127.15754699707031 118.13034057617188 126.57780456542969 117.3642578125 126.44734954833984 116.56887817382812 C126.31688690185547 115.77413940429688 126.54985809326172 114.96342468261719 126.85868072509766 114.21928405761719 C127.00179290771484 113.8731689453125 127.18482971191406 113.509765625 127.51763153076172 113.33802795410156 C127.76457214355469 113.21023559570312 128.0547637939453 113.21023559570312 128.33099365234375 113.17828369140625 C129.1949462890625 113.07843017578125 130.06422424316406 112.57125854492188 130.35043334960938 111.74990844726562 C130.63595581054688 110.92854309082031 130.10415649414062 109.85293579101562 129.237548828125 109.78106689453125 C128.70504760742188 109.73646545410156 128.0028533935547 109.97541809082031 127.7446060180664 109.50752258300781 C127.5196304321289 109.10015869140625 127.93496704101562 108.65155029296875 128.27041625976562 108.33006286621094 C128.93235778808594 107.69640350341797 129.41891479492188 106.89019775390625 129.69656372070312 106.01742553710938 C129.9741973876953 105.14466094970703 130.0429229736328 104.20533752441406 129.86920166015625 103.30545043945312 C129.6954803466797 102.40589904785156 129.2135772705078 101.75011444091797 128.5625457763672 101.23385620117188 C127.9114990234375 100.71759033203125 127.09130859375 100.34085845947266 126.24101257324219 99.99940490722656 C127.42511749267578 99.31739044189453 128.5968017578125 99.10084533691406 129.7176971435547 99.212890625 C130.83859252929688 99.32493591308594 131.90869140625 99.76556396484375 132.88966369628906 100.39788818359375 C133.87063598632812 101.03020477294922 134.762451171875 101.85421752929688 135.52679443359375 102.7330322265625 C136.4652862548828 103.8117446899414 136.9686279296875 105.07978820800781 137.13177490234375 106.38325500488281 C137.294921875 107.68672180175781 137.1178741455078 109.0256118774414 136.69558715820312 110.24602508544922 C136.27330017089844 111.46643829345703 135.60577392578125 112.56837463378906 134.78797912597656 113.39793395996094 C135.436279296875 113.2142333984375 136.30221557617188 113.59895324707031 136.7261962890625 114.12210083007812 C137.15084838867188 114.64527893066406 137.33523559570312 115.32218933105469 137.44107055664062 115.98777770996094 C137.5475616455078 116.66004943847656 137.58084106445312 117.37091064453125 137.31924438476562 117.99923706054688 C137.1501922607422 118.40524291992188 136.86465454101562 118.75534057617188 136.53451538085938 119.04621887207031 C135.58404541015625 119.88421630859375 134.22555541992188 120.23696899414062 132.9868621826172 119.9674072265625 C131.74818420410156 119.69784545898438 130.65992736816406 118.81193542480469 130.1440887451172 117.65377807617188 C130.07485961914062 118.18559265136719 129.62425231933594 118.47113037109375 129.1024169921875 118.59628295898438 C128.78627014160156 118.67214965820312 128.12533569335938 118.53372192382812 127.95359802246094 118.25613403320312"></path>
<path fill="#C98867" fill-opacity="1.0"  filling="0" d="M120.3065185546875 113.13369750976562 C121.38146209716797 113.72340393066406 121.38146209716797 113.72340393066406 122.57755279541016 114.01028442382812 C122.73928833007812 114.04890441894531 122.73928833007812 114.04890441894531 122.70068359375 114.21064758300781 C122.68138122558594 114.29183959960938 122.68138122558594 114.29183959960938 122.63145446777344 114.32247924804688 C122.58087158203125 114.35308837890625 122.58087158203125 114.35308837890625 122.5003433227539 114.33378601074219 C121.26032257080078 114.03691101074219 121.26032257080078 114.03691101074219 120.14677429199219 113.42521667480469 C120.00101470947266 113.3453369140625 120.00101470947266 113.3453369140625 120.08087921142578 113.19960021972656 C120.12081909179688 113.12635803222656 120.12081909179688 113.12635803222656 120.1773910522461 113.10972595214844 C120.23397064208984 113.09376525878906 120.23397064208984 113.09376525878906 120.3065185546875 113.13369750976562"></path>
<path fill="#473D38" fill-opacity="1.0"  filling="0" d="M123.99195098876953 105.18110656738281 C123.66846466064453 105.55052185058594 123.20720672607422 105.67498779296875 122.96160125732422 105.46000671386719 C122.71533203125 105.24433898925781 122.77789306640625 104.77044677734375 123.10137939453125 104.40168762207031 C123.42485809326172 104.03228759765625 123.88612365722656 103.90780639648438 124.13172149658203 104.12281799316406 C124.37733459472656 104.33779907226562 124.31476593017578 104.81170654296875 123.99195098876953 105.18110656738281"></path>
<path fill="#473D38" fill-opacity="1.0"  filling="0" d="M123.67312622070312 103.1610107421875 C124.56170654296875 103.54505920410156 125.25791931152344 104.34712219238281 125.51417541503906 105.28094482421875 C125.52815246582031 105.33087158203125 125.63796997070312 105.31422424316406 125.68523406982422 105.29159545898438 C125.73182678222656 105.26896667480469 125.75912475585938 105.21905517578125 125.77775573730469 105.17047119140625 C125.93816375732422 104.76577758789062 125.7684326171875 104.30784606933594 125.55876159667969 103.92645263671875 C125.34911346435547 103.54505920410156 125.09551239013672 103.18363952636719 124.77403259277344 102.89010620117188 C124.65023040771484 102.7769775390625 124.51045227050781 102.67178344726562 124.34605407714844 102.63919067382812 C124.00792694091797 102.5726318359375 123.78960418701172 102.8375244140625 123.67312622070312 103.1610107421875"></path>
<path fill="#C98867" fill-opacity="1.0"  filling="0" d="M119.17832946777344 107.25178527832031 C119.75672912597656 107.81224060058594 119.75672912597656 107.81224060058594 120.24262237548828 108.05384826660156 C120.89224243164062 108.37666320800781 120.89224243164062 108.37666320800781 121.48197174072266 108.25752258300781 C121.5638427734375 108.24085998535156 121.5638427734375 108.24085998535156 121.61309051513672 108.27348327636719 C121.66168212890625 108.30610656738281 121.66168212890625 108.30610656738281 121.6783218383789 108.38729858398438 C121.71160888671875 108.55035400390625 121.71160888671875 108.55035400390625 121.54853057861328 108.58366394042969 C120.84632110595703 108.72608947753906 120.84632110595703 108.72608947753906 120.09486389160156 108.35203552246094 C119.5623779296875 108.08712768554688 119.5623779296875 108.08712768554688 118.94670104980469 107.49140930175781 C118.82689666748047 107.37559509277344 118.82689666748047 107.37559509277344 118.94270324707031 107.25578308105469 C119.0006103515625 107.19589233398438 119.0006103515625 107.19589233398438 119.05985260009766 107.19522094726562 C119.11842346191406 107.19387817382812 119.11842346191406 107.19387817382812 119.17832946777344 107.25178527832031"></path>
<path fill="#C98867" fill-opacity="1.0"  filling="0" d="M127.87039947509766 110.31820678710938 C128.5013885498047 109.86294555664062 128.5013885498047 109.86294555664062 129.25283813476562 110.2303466796875 C129.4838104248047 110.34349060058594 129.4838104248047 110.34349060058594 129.6156005859375 110.51123046875 C129.77467346191406 110.7142333984375 129.77467346191406 110.7142333984375 129.80929565429688 111.01974487304688 C129.94839477539062 112.25975036621094 129.94839477539062 112.25975036621094 128.64248657226562 112.68109130859375 C127.66206359863281 112.99723815917969 127.66206359863281 112.99723815917969 126.61906433105469 112.35493469238281 C126.54785919189453 112.31101989746094 126.54785919189453 112.31101989746094 126.53453826904297 112.2537841796875 C126.52123260498047 112.196533203125 126.52123260498047 112.196533203125 126.56449127197266 112.1259765625 C126.65169525146484 111.98422241210938 126.65169525146484 111.98422241210938 126.79345703125 112.07139587402344 C127.70599365234375 112.63383483886719 127.70599365234375 112.63383483886719 128.53997802734375 112.3642578125 C129.587646484375 112.02613830566406 129.587646484375 112.02613830566406 129.47915649414062 111.05703735351562 C129.4552001953125 110.8453369140625 129.4552001953125 110.8453369140625 129.35336303710938 110.71624755859375 C129.26950073242188 110.60908508300781 129.26950073242188 110.60908508300781 129.10641479492188 110.52986145019531 C128.53399658203125 110.2496337890625 128.53399658203125 110.2496337890625 128.06475830078125 110.58843994140625 C127.9302978515625 110.68560791015625 127.9302978515625 110.68560791015625 127.83245849609375 110.55050659179688 C127.78387451171875 110.4832763671875 127.78387451171875 110.4832763671875 127.7931900024414 110.42538452148438 C127.80250549316406 110.36679077148438 127.80250549316406 110.36679077148438 127.87039947509766 110.31820678710938"></path>
<path fill="#E1CDE8" fill-opacity="1.0"  filling="0" d="M102.7706298828125 147.91062927246094 C102.7706298828125 147.91062927246094 102.60089874267578 149.29124450683594 102.51603698730469 150.8187255859375 C102.43116760253906 152.34619140625 102.43116760253906 154.0205078125 102.7706298828125 154.60791015625 C102.7706298828125 154.60791015625 102.17311096191406 154.415283203125 101.15324401855469 154.1188201904297 C100.13337707519531 153.82235717773438 98.69116973876953 153.42205810546875 97.00180053710938 153.00669860839844 C95.31243133544922 152.59133911132812 93.37590789794922 152.1609344482422 91.36739349365234 151.80426025390625 C89.35888671875 151.44757080078125 87.27839660644531 151.1646270751953 85.30110931396484 151.04420471191406 C83.32381439208984 150.9237823486328 81.44972229003906 150.96588134765625 79.85401916503906 151.25927734375 C77.859375 151.6260223388672 76.42704772949219 152.38912963867188 75.40850067138672 153.3699493408203 C74.38995361328125 154.3507537841797 73.78519439697266 155.5492706298828 73.4457015991211 156.78683471679688 C73.106201171875 158.02438354492188 73.03196716308594 159.3009796142578 73.07447814941406 160.43795776367188 C73.11698150634766 161.57493591308594 73.27622985839844 162.57229614257812 73.4036865234375 163.25137329101562 C73.4885482788086 163.70408630371094 73.7148666381836 164.7462158203125 74.03314208984375 166.168701171875 C74.35140991210938 167.5911865234375 74.76162719726562 169.39404296875 75.21428680419922 171.3682098388672 C75.66694641113281 173.34237670898438 76.16204071044922 175.4878692626953 76.65006256103516 177.5956268310547 C77.1380844116211 179.70338439941406 77.6190414428711 181.77342224121094 78.04341125488281 183.59669494628906 C78.46778106689453 185.41995239257812 78.8355712890625 186.9964599609375 79.0972671508789 188.11712646484375 C79.35896301269531 189.23780822753906 79.51456451416016 189.9026641845703 79.51456451416016 189.9026641845703 L83.24923706054688 189.9026641845703 L86.98391723632812 189.9026641845703 C86.98391723632812 189.9026641845703 86.96505737304688 189.03501892089844 86.9524917602539 187.68954467773438 C86.9399185180664 186.3440704345703 86.93363189697266 184.52076721191406 86.95877838134766 182.60946655273438 C86.98392486572266 180.69815063476562 87.04049682617188 178.6988525390625 87.15364837646484 177.0013427734375 C87.26679992675781 175.30384826660156 87.07821655273438 173.15365600585938 86.77648162841797 171.04119873046875 C86.47474670410156 168.92872619628906 86.05985260009766 166.85397338867188 85.72039031982422 165.30734252929688 C85.38093566894531 163.76071166992188 85.11691284179688 162.7421875 85.11691284179688 162.7421875 C85.11691284179688 162.7421875 85.64654541015625 163.00698852539062 86.5455551147461 163.440185546875 C87.44456481933594 163.87338256835938 88.71296691894531 164.47496032714844 90.19049072265625 165.14852905273438 C91.66801452636719 165.8220977783203 93.35467529296875 166.56764221191406 95.09021759033203 167.2887725830078 C96.82575988769531 168.0098876953125 98.61017608642578 168.70657348632812 100.2832260131836 169.2824249267578 C101.95628356933594 169.85826110839844 103.51795959472656 170.31326293945312 104.80802917480469 170.551025390625 C106.95813751220703 170.9470672607422 108.93859100341797 171.11679077148438 110.62358856201172 171.16708374023438 C112.30859375 171.21737670898438 113.6981430053711 171.14822387695312 114.66644287109375 171.06649780273438 C115.6347427368164 170.98477172851562 116.18179321289062 170.89047241210938 116.18179321289062 170.89047241210938 C116.18179321289062 170.89047241210938 116.54167175292969 171.1620635986328 117.20166778564453 171.63735961914062 C117.86166381835938 172.11264038085938 118.82178497314453 172.79164123535156 120.02227020263672 173.60643005371094 C121.2227554321289 174.42123413085938 122.66361236572266 175.37184143066406 124.28507995605469 176.39036560058594 C125.90654754638672 177.4088897705078 127.70862579345703 178.49533081054688 129.63156127929688 179.58180236816406 C131.55450439453125 180.66827392578125 133.59829711914062 181.75477600097656 135.70318603515625 182.77340698242188 C138.3343048095703 184.04653930664062 140.6577911376953 185.05442810058594 142.69749450683594 185.8395233154297 C144.73719787597656 186.62461853027344 146.49310302734375 187.18690490722656 147.9890899658203 187.56883239746094 C149.4850616455078 187.95077514648438 150.72109985351562 188.15234375 151.72105407714844 188.21600341796875 C152.7209930419922 188.27964782714844 153.48486328125 188.20538330078125 154.03646850585938 188.03565979003906 C154.3516845703125 187.9386749267578 155.24197387695312 187.90750122070312 156.53662109375 187.92530822753906 C157.83126831054688 187.943115234375 159.5302734375 188.00991821289062 161.46286010742188 188.10888671875 C163.3954620361328 188.20785522460938 165.56166076660156 188.3389892578125 167.7907257080078 188.48545837402344 C170.019775390625 188.63192749023438 172.3116912841797 188.7937469482422 174.4957275390625 188.95407104492188 C176.67974853515625 189.11439514160156 178.75588989257812 189.2732391357422 180.55340576171875 189.4137725830078 C182.35092163085938 189.55430603027344 183.86978149414062 189.67652893066406 184.9392852783203 189.76361083984375 C186.0087890625 189.8507080078125 186.62890625 189.9026641845703 186.62890625 189.9026641845703 L187.22296142578125 186.33804321289062 L187.81700134277344 182.77340698242188 C187.81700134277344 182.77340698242188 187.0531005859375 182.4339141845703 185.8409423828125 181.92466735839844 C184.6287841796875 181.41542053222656 182.96835327148438 180.73643493652344 181.17530822753906 180.0574493408203 C179.38226318359375 179.37844848632812 177.45660400390625 178.699462890625 175.7139434814453 178.19021606445312 C173.97129821777344 177.68096923828125 172.41168212890625 177.3414764404297 171.3507080078125 177.3414764404297 C169.93609619140625 177.3414764404297 168.1253662109375 177.4169158935547 166.26434326171875 177.52377319335938 C164.4033203125 177.63064575195312 162.4920196533203 177.76893615722656 160.87625122070312 177.8946533203125 C159.26046752929688 178.02037048339844 157.94021606445312 178.13351440429688 157.26129150390625 178.19009399414062 C156.75193786621094 178.23252868652344 155.85009765625 177.77239990234375 154.71487426757812 177.0336151123047 C153.57965087890625 176.29483032226562 152.2110595703125 175.27740478515625 150.76820373535156 174.2052459716797 C149.32534790039062 173.13308715820312 147.80824279785156 172.00619506835938 146.37599182128906 171.04852294921875 C144.94375610351562 170.09083557128906 143.59637451171875 169.30233764648438 142.4929656982422 168.906982421875 C141.0217742919922 168.3798370361328 139.34312438964844 167.6700897216797 137.75880432128906 166.95803833007812 C136.17446899414062 166.24600219726562 134.68446350097656 165.5316619873047 133.59054565429688 164.99533081054688 C132.49661254882812 164.45901489257812 131.79876708984375 164.10069274902344 131.79876708984375 164.10069274902344 C131.79876708984375 164.10069274902344 131.84120178222656 163.67637634277344 131.3955841064453 162.6579132080078 C130.94996643066406 161.63946533203125 130.01629638671875 160.02688598632812 128.0640869140625 157.6503448486328 C126.76261901855469 156.0659942626953 125.40457153320312 154.8400421142578 124.17227935791016 153.90957641601562 C122.93997955322266 152.9791259765625 121.83342742919922 152.3441619873047 121.03495788574219 151.9418182373047 C120.23648071289062 151.5394744873047 119.74607849121094 151.3697509765625 119.74607849121094 151.3697509765625 L118.98230743408203 148.823486328125 L118.21853637695312 146.27723693847656 L114.35655975341797 146.6855926513672 L110.49458312988281 147.09393310546875 L106.63260650634766 147.5022735595703 L102.7706298828125 147.91062927246094"></path>
<path fill="#E1CDE8" fill-opacity="1.0"  filling="0" d="M101.5645523071289 140.45191955566406 L105.88546752929688 141.0386505126953 L110.20637512207031 141.6253662109375 L114.52727508544922 142.21209716796875 L118.84819030761719 142.798828125 C118.84819030761719 142.798828125 119.09712219238281 142.09942626953125 119.49227142333984 141.04835510253906 C119.88742065429688 139.99728393554688 120.42877197265625 138.59451293945312 121.01361083984375 137.18777465820312 C121.59844970703125 135.78103637695312 122.22677612304688 134.37033081054688 122.79586791992188 133.30337524414062 C123.36495208740234 132.23641967773438 124.08956909179688 131.06739807128906 124.8067398071289 129.9038848876953 C125.52391052246094 128.7403564453125 126.23363494873047 127.58233642578125 126.77294921875 126.53736877441406 C127.312255859375 125.49240112304688 127.68114471435547 124.56048583984375 127.71664428710938 123.84918212890625 C127.75214385986328 123.13788604736328 126.90897369384766 122.19673156738281 125.72946166992188 121.2500991821289 C124.54994201660156 120.303466796875 123.0340805053711 119.35136413574219 121.72417449951172 118.61817169189453 C120.41427612304688 117.88497924804688 119.31034088134766 117.37068176269531 118.9546890258789 117.2996826171875 C117.88773345947266 117.08602905273438 116.82210540771484 118.04647827148438 115.27457427978516 119.11346435546875 C114.75873565673828 119.46910858154297 113.60873413085938 120.00254821777344 112.2730484008789 120.65848541259766 C110.93736267089844 121.31442260742188 109.41600036621094 122.09284973144531 108.1574478149414 122.93848419189453 C106.89889526367188 123.78411865234375 105.90315246582031 124.69694519042969 105.61872100830078 125.62168884277344 C105.19207763671875 127.00879669189453 105.00537109375 127.94230651855469 104.93864440917969 128.70242309570312 C104.87191772460938 129.46253967285156 104.9251708984375 130.04925537109375 104.9784164428711 130.74281311035156 C105.013916015625 131.20518493652344 104.64643096923828 132.43809509277344 104.14067077636719 133.87648010253906 C103.63491821289062 135.3148651123047 102.99088287353516 136.95872497558594 102.47329711914062 138.24298095703125 C101.95570373535156 139.52725219726562 101.5645523071289 140.45191955566406 101.5645523071289 140.45191955566406"></path>
<path fill="#E5AA8C" fill-opacity="1.0"  filling="0" d="M137.01174926757812 92.05213928222656 C136.58843994140625 92.26446533203125 136.2270050048828 92.58195495605469 135.96142578125 92.97401428222656 C135.5630645751953 93.56185150146484 134.89271545410156 94.55057525634766 134.0467529296875 95.79647827148438 C133.2008056640625 97.04237365722656 132.1792449951172 98.54544067382812 131.07846069335938 100.16194915771484 C129.97769165039062 101.77845764160156 128.7976837158203 103.50840759277344 127.63485717773438 105.20807647705078 C126.47203063964844 106.9077377319336 125.32636260986328 108.57711791992188 124.29425048828125 110.0724868774414 C123.26213836669922 111.56785583496094 122.34358215332031 112.88921356201172 121.63495635986328 113.89282989501953 C120.92633819580078 114.89645385742188 120.42765808105469 115.58233642578125 120.23529815673828 115.80674743652344 C119.80842590332031 116.30461883544922 118.84819030761719 117.12256622314453 117.80105590820312 118.14204406738281 C116.75392150878906 119.1615219116211 115.61988067626953 120.38253021240234 114.84542083740234 121.68651580810547 C114.07095336914062 122.99049377441406 113.65606689453125 124.37745666503906 114.0472183227539 125.72885131835938 C114.43836975097656 127.08023834228516 115.42937469482422 128.11155700683594 116.67842864990234 128.80697631835938 C117.927490234375 129.50241088867188 119.43460845947266 129.86195373535156 120.85797882080078 129.86981201171875 C122.28135681152344 129.87767028808594 123.62098693847656 129.53384399414062 124.53507232666016 128.82254028320312 C125.90621185302734 127.75558471679688 126.77881622314453 126.15531921386719 127.42860412597656 124.58168029785156 C128.07839965820312 123.00804138183594 128.50537109375 121.46102142333984 128.9852752685547 120.50056457519531 C129.17710876464844 120.11650848388672 129.6591796875 119.13069915771484 130.3145751953125 117.7872543334961 C130.969970703125 116.44380187988281 131.7986602783203 114.74271392822266 132.68370056152344 112.9281005859375 C133.56875610351562 111.11348724365234 134.51016235351562 109.18535614013672 135.39097595214844 107.38780975341797 C136.27178955078125 105.59026336669922 137.09202575683594 103.92330932617188 137.73471069335938 102.63105773925781 C138.37741088867188 101.33880615234375 138.84255981445312 100.4212646484375 139.01321411132812 100.12254333496094 C139.18386840820312 99.82382202148438 140.04164123535156 99.11115264892578 141.3048553466797 98.16206359863281 C142.5680694580078 97.21297454833984 144.23672485351562 96.02745819091797 146.02914428710938 94.78305053710938 C147.82156372070312 93.53864288330078 149.73776245117188 92.23534393310547 151.4960479736328 91.0506820678711 C153.25433349609375 89.86602020263672 154.854736328125 88.79999542236328 156.0155487060547 88.03013610839844 C157.17636108398438 87.26026916503906 157.89761352539062 86.78657531738281 157.89761352539062 86.78657531738281 L161.41842651367188 86.45777130126953 L164.93922424316406 86.12896728515625 L168.46002197265625 85.80015563964844 C168.46002197265625 85.80015563964844 168.61643981933594 84.08624267578125 164.40518188476562 85.50663757324219 C164.40518188476562 85.50663757324219 166.11227416992188 85.13323974609375 167.92604064941406 84.6664810180664 C169.73980712890625 84.1997299194336 171.6602325439453 83.6396255493164 172.08688354492188 83.26622009277344 C172.94017028808594 82.51943969726562 172.62001037597656 80.67037963867188 171.44656372070312 80.42144775390625 C170.27310180664062 80.17251586914062 168.24569702148438 79.74586486816406 168.24569702148438 79.74586486816406 C168.24569702148438 79.74586486816406 169.20614624023438 78.785400390625 168.35220336914062 78.785400390625 C167.49888610839844 78.785400390625 166.96507263183594 78.57174682617188 164.1915283203125 79.21205139160156 C162.80441284179688 79.53221130371094 161.63079833984375 79.63887786865234 160.49720764160156 79.89222717285156 C159.3636016845703 80.14556884765625 158.27001953125 80.54559326171875 157.04298400878906 81.45246887207031 C156.6075439453125 81.77421569824219 155.67544555664062 82.32579040527344 154.43666076660156 83.01547241210938 C153.19789123535156 83.70515441894531 151.65245056152344 84.532958984375 149.9903564453125 85.40716552734375 C148.32826232910156 86.28137969970703 146.54949951171875 87.20199584960938 144.84408569335938 88.07732391357422 C143.138671875 88.95265197753906 141.506591796875 89.7826919555664 140.13787841796875 90.4757308959961 C138.76914978027344 91.16876220703125 137.6637725830078 91.72480773925781 137.01174926757812 92.05213928222656"></path>
<path fill="#E5AA8C" fill-opacity="1.0"  filling="0" d="M79.51456451416016 189.90200805664062 C79.51456451416016 189.90200805664062 80.1861572265625 191.78631591796875 79.51456451416016 192.48519897460938 C79.17877197265625 192.8349609375 78.01929473876953 193.8712921142578 76.71713256835938 194.90139770507812 C75.41496276855469 195.93148803710938 73.9701156616211 196.95535278320312 73.06356811523438 197.28018188476562 C71.25112915039062 197.9298095703125 69.90263366699219 198.728515625 68.55412292480469 198.82833862304688 C67.20561218261719 198.92822265625 66.05679321289062 200.02713012695312 66.7064208984375 200.72665405273438 C67.03123474121094 201.07643127441406 67.69300842285156 201.21371459960938 68.56078338623047 201.2323455810547 C69.42855834960938 201.2509765625 70.50233459472656 201.15097045898438 71.65115356445312 201.02615356445312 C72.79998016357422 200.9013671875 74.54618072509766 200.4644012451172 76.15235900878906 200.0711212158203 C77.75853729248047 199.67784118652344 79.22469329833984 199.3282470703125 79.81342315673828 199.37815856933594 C80.40213775634766 199.42807006835938 81.0086669921875 199.7901611328125 81.8238525390625 200.10232543945312 C82.63905334472656 200.41448974609375 83.66291046142578 200.67674255371094 85.08629608154297 200.5269775390625 C86.50968170166016 200.37722778320312 87.3962631225586 199.86520385742188 87.88323211669922 199.2595977783203 C88.37020874023438 198.6539764404297 88.45756530761719 197.95477294921875 88.28251647949219 197.4306182861328 C87.93306732177734 196.38162231445312 86.68441009521484 194.23440551757812 86.73431396484375 193.28524780273438 C86.78424072265625 192.33609008789062 86.98391723632812 189.9026641845703 86.98391723632812 189.9026641845703 L83.24923706054688 189.9026641845703 L79.51456451416016 189.9026641845703"></path>
<path fill="#E5AA8C" fill-opacity="1.0"  filling="0" d="M186.62823486328125 189.90200805664062 C186.62823486328125 189.90200805664062 188.13980102539062 190.81988525390625 188.61172485351562 191.64654541015625 C188.84768676757812 192.05987548828125 189.17233276367188 194.05235290527344 189.43798828125 195.94149780273438 C189.70364379882812 197.83062744140625 189.91030883789062 199.61643981933594 189.91030883789062 199.61643981933594 C189.91030883789062 199.61643981933594 189.0869598388672 200.2660675048828 187.81634521484375 200.44313049316406 C186.5457000732422 200.6201629638672 185.36492919921875 200.38388061523438 185.6597900390625 201.44683837890625 C185.95465087890625 202.50979614257812 187.90286254882812 202.155029296875 188.9658203125 202.27352905273438 C190.0281219482422 202.3919677734375 190.32363891601562 203.159423828125 191.03184509277344 202.98171997070312 C191.7400360107422 202.80465698242188 192.38967895507812 202.80465698242188 193.51119995117188 202.21426391601562 C194.63275146484375 201.62387084960938 196.22686767578125 200.7386474609375 195.99057006835938 198.37710571289062 C195.87242126464844 197.19631958007812 195.69537353515625 196.13368225097656 195.5625762939453 195.24078369140625 C195.42979431152344 194.34788513183594 195.34127807617188 193.6247100830078 195.40017700195312 193.1228485107422 C195.45907592773438 192.62100219726562 195.9755859375 191.69114685058594 196.4773712158203 190.73184204101562 C196.97915649414062 189.77255249023438 197.46620178222656 188.78378295898438 197.46620178222656 188.16412353515625 C197.46620178222656 186.9247589111328 197.58401489257812 185.50770568847656 196.46246337890625 185.0943603515625 C195.3409423828125 184.6810302734375 194.69131469726562 184.14990234375 192.97940063476562 184.6810302734375 C192.12344360351562 184.94659423828125 190.77874755859375 184.79135131835938 189.6480712890625 184.5697021484375 C188.5173797607422 184.3480682373047 187.60067749023438 184.06002807617188 187.60067749023438 184.06002807617188 L187.1144561767578 186.98101806640625 L186.62823486328125 189.90200805664062"></path>
<path fill="#E5AA8C" fill-opacity="1.0"  filling="0" d="M102.06842041015625 140.52047729492188 C102.06842041015625 140.52047729492188 101.55457305908203 142.34088134765625 102.06842041015625 144.24185180664062 C102.58226013183594 146.14346313476562 102.7706298828125 147.91062927246094 102.7706298828125 147.91062927246094 L106.63243865966797 147.501953125 L110.49424743652344 147.09326171875 L114.35606384277344 146.68458557128906 L118.2178726196289 146.27590942382812 L118.84819030761719 142.79949951171875 L114.65324401855469 142.229736328125 L110.45830535888672 141.6599884033203 L106.26336669921875 141.09024047851562 L102.06842041015625 140.52047729492188"></path>
<path fill="#C98867" fill-opacity="1.0"  filling="0" d="M120.43631744384766 115.02200317382812 L122.78907775878906 111.68002319335938 L125.141845703125 108.33804321289062 L127.49461364746094 104.99606323242188 L129.8473663330078 101.65408325195312 L132.20013427734375 98.31210327148438 C132.248046875 98.24423217773438 132.248046875 98.24423217773438 132.3059539794922 98.23423767089844 C132.36386108398438 98.22427368164062 132.36386108398438 98.22427368164062 132.4317626953125 98.27218627929688 C132.56753540039062 98.36735534667969 132.56753540039062 98.36735534667969 132.47169494628906 98.50379943847656 L130.51705932617188 101.28047180175781 L128.56240844726562 104.05713653564453 L126.60775756835938 106.83380126953125 L124.6411361694336 109.6270980834961 L122.67451477050781 112.42039489746094 L120.70787811279297 115.21368408203125 C120.65995788574219 115.28158569335938 120.65995788574219 115.28158569335938 120.60205078125 115.29158020019531 C120.54413604736328 115.30154418945312 120.54413604736328 115.30154418945312 120.47624969482422 115.25363159179688 C120.34046173095703 115.158447265625 120.34046173095703 115.158447265625 120.43631744384766 115.02200317382812"></path>
<path fill="#C98867" fill-opacity="1.0"  filling="0" d="M139.529052734375 99.79042053222656 C138.17405700683594 102.21337127685547 137.15780639648438 104.03058624267578 136.36083984375 105.47888946533203 C135.56387329101562 106.92719268798828 134.9862060546875 108.006591796875 134.5083465576172 108.95390319824219 C134.03048706054688 109.9012222290039 133.65245056152344 110.71646118164062 133.2547607421875 111.63644409179688 C132.85707092285156 112.55642700195312 132.4397430419922 113.58116149902344 131.88330078125 114.94747924804688 C131.820068359375 115.10186767578125 131.820068359375 115.10186767578125 131.66632080078125 115.039306640625 C131.589111328125 115.00735473632812 131.589111328125 115.00735473632812 131.56646728515625 114.95346069335938 C131.54318237304688 114.89888000488281 131.54318237304688 114.89888000488281 131.574462890625 114.82231140136719 C132.133056640625 113.45117950439453 132.55201721191406 112.4228286743164 132.95106506347656 111.4998550415039 C133.35012817382812 110.5768814086914 133.7292938232422 109.75927734375 134.20831298828125 108.80963134765625 C134.68734741210938 107.8599853515625 135.2662353515625 106.77830505371094 136.06472778320312 105.32716369628906 C136.8632354736328 103.87603759765625 137.88134765625 102.05545043945312 139.2388458251953 99.62800598144531 C139.32005310058594 99.48291015625 139.32005310058594 99.48291015625 139.46514892578125 99.56411743164062 C139.53770446777344 99.60472106933594 139.53770446777344 99.60472106933594 139.55368041992188 99.66128540039062 C139.56964111328125 99.71786499023438 139.56964111328125 99.71786499023438 139.529052734375 99.79042053222656"></path>
<path fill="#C98867" fill-opacity="1.0"  filling="0" d="M121.29293060302734 118.21821594238281 C121.72025299072266 120.14712524414062 121.72025299072266 120.14712524414062 120.33514404296875 121.87901306152344 C119.22158813476562 123.27079772949219 119.22158813476562 123.27079772949219 117.17753601074219 124.00559997558594 C117.02045440673828 124.06219482421875 117.02045440673828 124.06219482421875 116.96453857421875 123.90576171875 C116.93592071533203 123.82723999023438 116.93592071533203 123.82723999023438 116.96121215820312 123.77397155761719 C116.98651123046875 123.72073364257812 116.98651123046875 123.72073364257812 117.06438446044922 123.69276428222656 C119.02058410644531 122.9892578125 119.02058410644531 122.9892578125 120.0755615234375 121.67134094238281 C121.36083221435547 120.06326293945312 121.36083221435547 120.06326293945312 120.96813201904297 118.29011535644531 C120.95014953613281 118.20890808105469 120.95014953613281 118.20890808105469 120.98143768310547 118.15896606445312 C121.01338958740234 118.10972595214844 121.01338958740234 118.10972595214844 121.09458923339844 118.09175109863281 C121.25699615478516 118.05580139160156 121.25699615478516 118.05580139160156 121.29293060302734 118.21821594238281"></path>
<path fill="#C6AED1" fill-opacity="1.0"  filling="0" d="M83.73912048339844 157.73822021484375 C84.50921630859375 159.56173706054688 85.02262115478516 160.7774200439453 85.3957748413086 161.8058319091797 C85.76892852783203 162.834228515625 86.00183868408203 163.67535400390625 86.2109603881836 164.74974060058594 C86.42008209228516 165.8241424560547 86.60540771484375 167.1318359375 86.88340759277344 169.09335327148438 C86.91869354248047 169.3409423828125 86.91869354248047 169.3409423828125 86.6717529296875 169.3755645751953 C86.5479507446289 169.39352416992188 86.5479507446289 169.39352416992188 86.47740173339844 169.3402862548828 C86.40684509277344 169.2870330810547 86.40684509277344 169.2870330810547 86.38954162597656 169.16390991210938 C86.11442565917969 167.2236785888672 85.93102264404297 165.93020629882812 85.7241439819336 164.8674774169922 C85.51726531982422 163.8047637939453 85.28691864013672 162.97280883789062 84.91793060302734 161.95565795898438 C84.54894256591797 160.93849182128906 84.04130554199219 159.73611450195312 83.27986145019531 157.93255615234375 C83.23126220703125 157.81741333007812 83.23126220703125 157.81741333007812 83.26388549804688 157.73556518554688 C83.29715728759766 157.6536865234375 83.29715728759766 157.6536865234375 83.41230773925781 157.60574340820312 C83.64260864257812 157.50860595703125 83.64260864257812 157.50860595703125 83.73912048339844 157.73822021484375"></path>
<path fill="#C6AED1" fill-opacity="1.0"  filling="0" d="M113.0667953491211 165.74871826171875 C113.88114929199219 167.22335815429688 114.288330078125 167.96067810058594 114.62471008300781 168.4919891357422 C114.9610824584961 169.02330017089844 115.22665405273438 169.34860229492188 115.75780487060547 169.9992218017578 C116.65003967285156 171.0908203125 117.09616088867188 171.63661193847656 117.58404541015625 172.0042724609375 C118.07192993164062 172.37193298339844 118.6015853881836 172.56146240234375 119.660888671875 172.94053649902344 C119.77870178222656 172.98245239257812 119.77870178222656 172.98245239257812 119.81663513183594 173.06231689453125 C119.85391235351562 173.14218139648438 119.85391235351562 173.14218139648438 119.81198120117188 173.25933837890625 C119.72811126708984 173.49429321289062 119.72811126708984 173.49429321289062 119.49315643310547 173.41043090820312 C118.3682861328125 173.00807189941406 117.80585479736328 172.806884765625 117.29067993164062 172.419921875 C116.7755126953125 172.032958984375 116.3075942993164 171.46022033691406 115.37176513671875 170.31472778320312 C114.82597351074219 169.64712524414062 114.55307006835938 169.31333923339844 114.21037292480469 168.772705078125 C113.86766815185547 168.23207092285156 113.45516204833984 167.48458862304688 112.6301498413086 165.98965454101562 C112.5090103149414 165.77134704589844 112.5090103149414 165.77134704589844 112.72799682617188 165.65087890625 C112.837158203125 165.59030151367188 112.837158203125 165.59030151367188 112.92169189453125 165.61492919921875 C113.00688934326172 165.63955688476562 113.00688934326172 165.63955688476562 113.0667953491211 165.74871826171875"></path>
<path fill="#C6AED1" fill-opacity="1.0"  filling="0" d="M106.76688385009766 157.07461547851562 C105.63836669921875 156.33480834960938 105.07410430908203 155.9648895263672 104.47872161865234 155.6557159423828 C103.88334655761719 155.34654235839844 103.25685119628906 155.09811401367188 102.00385284423828 154.60122680664062 C101.88736724853516 154.55531311035156 101.88736724853516 154.55531311035156 101.85276794433594 154.47409057617188 C101.81748962402344 154.39291381835938 101.81748962402344 154.39291381835938 101.86341094970703 154.277099609375 C101.9559326171875 154.0447998046875 101.9559326171875 154.0447998046875 102.18756103515625 154.13665771484375 C103.46451568603516 154.64317321777344 104.10299682617188 154.89642333984375 104.70968627929688 155.21142578125 C105.31637573242188 155.52642822265625 105.89128875732422 155.90316772460938 107.04110717773438 156.65663146972656 C107.24944305419922 156.79373168945312 107.24944305419922 156.79373168945312 107.11299896240234 157.00271606445312 C107.04444122314453 157.1065673828125 107.04444122314453 157.1065673828125 106.9579086303711 157.12454223632812 C106.87137603759766 157.1425018310547 106.87137603759766 157.1425018310547 106.76688385009766 157.07461547851562"></path>
<path fill="#C6AED1" fill-opacity="1.0"  filling="0" d="M105.29524230957031 130.73216247558594 C105.32919311523438 131.9408721923828 105.32919311523438 131.9408721923828 106.63310241699219 132.5006561279297 C107.62484741210938 132.927978515625 107.62484741210938 132.927978515625 109.0665283203125 132.64244079589844 C109.31147766113281 132.59384155273438 109.31147766113281 132.59384155273438 109.36006927490234 132.83880615234375 C109.38402557373047 132.9612579345703 109.38402557373047 132.9612579345703 109.33477783203125 133.0344696044922 C109.28619384765625 133.10769653320312 109.28619384765625 133.10769653320312 109.16370391845703 133.13232421875 C107.56959533691406 133.4477996826172 107.56959533691406 133.4477996826172 106.43608093261719 132.95989990234375 C104.83931732177734 132.273681640625 104.83931732177734 132.273681640625 104.79605102539062 130.74681091308594 C104.79271697998047 130.6216583251953 104.79271697998047 130.6216583251953 104.8532943725586 130.5577850341797 C104.91386413574219 130.4932098388672 104.91386413574219 130.4932098388672 105.03831481933594 130.4898681640625 C105.28791809082031 130.48324584960938 105.28791809082031 130.48324584960938 105.29524230957031 130.73216247558594"></path></svg>