<svg xmlns="http://www.w3.org/2000/svg" viewBox="0.0 0.0 256.0 256.0" height="256.0px" width="256.0px"><path fill="#FCAC9F" fill-opacity="1.0"  filling="0" d="M125.47328186035156 87.58027648925781 C124.26905822753906 87.4312744140625 123.12703704833984 87.09490966796875 122.08102416992188 86.47975158691406 C121.15443420410156 85.93485260009766 120.22918701171875 85.38726806640625 119.30499267578125 84.83776092529297 C118.38079833984375 84.28825378417969 117.45765686035156 83.73683166503906 116.53529357910156 83.18424987792969 C116.17894744873047 82.97074890136719 115.82719421386719 82.73727416992188 115.51538848876953 82.46540832519531 C115.29804992675781 82.27647399902344 115.38790893554688 81.98771667480469 115.58604431152344 81.85023498535156 C115.87557983398438 81.64979553222656 116.20429992675781 81.47238159179688 116.54220581054688 81.37944030761719 C117.52063751220703 81.11065673828125 118.51136016845703 80.88331604003906 119.4997787475586 80.64985656738281 C119.96442413330078 80.5400390625 120.4505615234375 80.50009155273438 120.89752960205078 80.34341430664062 C122.07717895507812 79.93099975585938 122.96806335449219 79.19680786132812 123.45267486572266 77.994873046875 C123.7475814819336 77.2645263671875 123.92959594726562 76.52262878417969 124.03173065185547 75.74617004394531 C124.17304992675781 74.6751937866211 124.24620819091797 73.60172271728516 124.29017639160156 72.52671813964844 C124.33414459228516 71.45170593261719 124.34892272949219 70.37516784667969 124.37349700927734 69.29804992675781 C124.39884185791016 68.19212341308594 124.43724060058594 67.08619689941406 124.48735809326172 65.9808578491211 C124.53746795654297 64.8755111694336 124.59928894042969 63.77074432373047 124.6714859008789 62.66712951660156 C124.77823638916016 61.035125732421875 125.27897644042969 59.52294921875 126.14297485351562 58.10444641113281 C126.98431396484375 56.722434997558594 128.06239318847656 55.834625244140625 129.3228759765625 55.37401580810547 C130.58335876464844 54.91340637207031 132.0262451171875 54.87999725341797 133.59718322753906 55.206787109375 C134.66622924804688 55.42911911010742 135.53079223632812 55.87187194824219 136.21038818359375 56.51603317260742 C136.8899688720703 57.160194396972656 137.3845672607422 58.005760192871094 137.7136688232422 59.033721923828125 C138.0070343017578 59.94917297363281 138.22515869140625 60.87615966796875 138.3572540283203 61.826171875 C138.43096923828125 62.359161376953125 138.48013305664062 62.89677429199219 138.57382202148438 63.42668151855469 C138.81727600097656 64.79603576660156 139.18899536132812 66.10931396484375 140.2204132080078 67.13612365722656 C140.3855438232422 67.30047607421875 140.48768615722656 67.56697082519531 140.28878784179688 67.77587890625 C140.18356323242188 67.88645935058594 139.99002075195312 67.92715454101562 139.82875061035156 67.96632385253906 C139.7166290283203 67.99322509765625 139.5906524658203 67.96632385253906 139.47161865234375 67.95864868164062 C139.351806640625 67.95175170898438 139.23199462890625 67.94636535644531 139.11373901367188 67.92793273925781 C138.64601135253906 67.85343933105469 138.47552490234375 68.1368408203125 138.39334106445312 68.52391052246094 C138.15757751464844 69.63519287109375 137.92947387695312 70.74803161621094 137.68678283691406 71.85856628417969 C137.6099853515625 72.20878601074219 137.51705932617188 72.55743408203125 137.4003143310547 72.8961181640625 C137.04551696777344 73.92909240722656 136.47410583496094 74.71014404296875 135.23915100097656 74.70245361328125 C135.0632781982422 74.70170593261719 134.8851318359375 74.75927734375 134.71002197265625 74.79693603515625 C134.0410919189453 74.94056701660156 133.87290954589844 75.11103820800781 133.86521911621094 75.73159790039062 C133.85906982421875 76.20928955078125 133.9043731689453 76.687744140625 133.9120635986328 77.16619873046875 C133.93124389648438 78.35890197753906 134.44967651367188 79.2275390625 135.55865478515625 79.71060180664062 C136.679931640625 80.19903564453125 137.75820922851562 80.78347778320312 138.853759765625 81.32952880859375 C139.94932556152344 81.87557220458984 141.06216430664062 82.38322448730469 142.2525634765625 82.71807861328125 C142.42381286621094 82.76644897460938 142.5996856689453 82.82868957519531 142.74713134765625 82.92390441894531 C142.82394409179688 82.97306823730469 142.88998413085938 83.11668395996094 142.87770080566406 83.20576477050781 C142.86387634277344 83.30868530273438 142.777099609375 83.45458984375 142.68800354003906 83.486083984375 C141.7902069091797 83.80865478515625 140.86936950683594 84.07206726074219 139.98541259765625 84.42840576171875 C138.7650604248047 84.92071533203125 137.58157348632812 85.50056457519531 136.3650665283203 86.0028076171875 C135.20001220703125 86.48383331298828 134.01890563964844 86.85862731933594 132.82275390625 87.1314926147461 C131.62661743164062 87.40435791015625 130.41542053222656 87.5753173828125 129.19017028808594 87.64866638183594 C127.96493530273438 87.72203063964844 126.72563171386719 87.69778442382812 125.47328186035156 87.58027648925781"></path>
<path fill="#F27300" fill-opacity="1.0"  filling="0" d="M116.05913543701172 74.84530639648438 C114.74854278564453 74.7700424194336 113.438720703125 74.68498992919922 112.12985229492188 74.58812713623047 C110.82099151611328 74.49127197265625 109.51309204101562 74.38259887695312 108.20634460449219 74.26010131835938 C107.84231567382812 74.22630310058594 107.47750091552734 74.2032470703125 107.11346435546875 74.16871643066406 C106.88153076171875 74.14642333984375 106.87154388427734 74.13105773925781 106.92378234863281 73.87687683105469 C107.16915893554688 72.68032836914062 107.61017608642578 71.66656494140625 108.25021362304688 70.8391342163086 C108.89024353027344 70.01170349121094 109.72927856445312 69.37061309814453 110.77069091796875 68.91940307617188 C111.2276382446289 68.72128295898438 111.70457458496094 68.598388671875 112.17843627929688 68.46554565429688 C112.80357360839844 68.29042053222656 113.4149169921875 68.07002258300781 114.02316284179688 67.82963562011719 C114.77888488769531 67.53086853027344 115.18745422363281 66.93414306640625 115.41094207763672 66.12312316894531 C115.59295654296875 65.46112060546875 115.67129516601562 64.78297424316406 115.74502563476562 64.10328674316406 C115.87635803222656 62.89677429199219 116.10366821289062 61.713287353515625 116.52146911621094 60.57969665527344 C116.81639099121094 59.7786865234375 117.19731140136719 59.02604675292969 117.72415161132812 58.37939453125 C118.68800354003906 57.19590759277344 119.87840270996094 56.621437072753906 121.32300567626953 56.779640197753906 C121.57720947265625 56.80729675292969 121.8260498046875 56.86796569824219 122.06873321533203 56.947845458984375 C122.7115478515625 57.161346435546875 123.2959976196289 57.00928497314453 123.83052825927734 56.57689666748047 C124.07321166992188 56.38029479980469 124.30131530761719 56.161407470703125 124.5263442993164 55.94099426269531 C124.8857650756836 55.58924102783203 125.25670623779297 55.255165100097656 125.6476058959961 54.945655822753906 C126.8172836303711 54.017921447753906 128.1228790283203 53.510284423828125 129.53599548339844 53.30829620361328 C130.17343139648438 53.216896057128906 130.80165100097656 53.034881591796875 131.44525146484375 53.001861572265625 C132.77774047851562 52.93273162841797 134.10560607910156 52.95116424560547 135.39891052246094 53.33978271484375 C136.14309692382812 53.563262939453125 136.75442504882812 54.03327941894531 137.26744079589844 54.651512145996094 C137.91946411132812 55.437950134277344 138.0646514892578 56.35955047607422 137.75743103027344 57.37178039550781 C137.54315185546875 58.07679748535156 137.19757080078125 58.70271301269531 136.75059509277344 59.26719665527344 C135.9718475341797 60.24870300292969 135.00721740722656 60.94682312011719 133.97581481933594 61.54893493652344 C132.890625 62.1817626953125 131.7662811279297 62.71783447265625 130.6465301513672 63.266937255859375 C130.392333984375 63.39134216308594 130.14427185058594 63.53343200683594 129.8931121826172 63.66477966308594 C128.61056518554688 64.33677673339844 127.87097930908203 65.46572875976562 127.54688262939453 66.96409606933594 C127.35871887207031 67.83500671386719 127.22508239746094 68.71511840820312 127.06610870361328 69.59140014648438 C126.90406036376953 70.48421478271484 126.69900512695312 71.36128234863281 126.43942260742188 72.21875762939453 C126.17984008789062 73.07623291015625 125.86572265625 73.91412353515625 125.48556518554688 74.72859191894531 C125.46022033691406 74.78309631347656 125.4287338256836 74.83531188964844 125.40799713134766 74.89137268066406 C125.33197021484375 75.10260009765625 125.20063781738281 75.16787719726562 124.99327850341797 75.16018676757812 C123.44345092773438 75.10490417480469 121.89362335205078 75.04728698730469 120.3430404663086 75.02195739746094 C118.91226196289062 75.00044250488281 117.48607635498047 74.93130493164062 116.05913543701172 74.84530639648438"></path>
<path fill="#000000" fill-opacity="1.0"  filling="0" d="M133.03115844726562 66.44877624511719 C131.6111297607422 66.27366638183594 130.52671813964844 65.34976196289062 130.30784606933594 64.16474914550781 C130.0582275390625 62.81690979003906 130.79705810546875 61.332366943359375 132.0227813720703 60.71795654296875 C133.21240234375 60.121978759765625 134.6869659423828 60.41075134277344 135.61166381835938 61.44293212890625 C135.8481903076172 61.707122802734375 136.0133056640625 62.033538818359375 136.24066162109375 62.307708740234375 C136.4702606201172 62.58497619628906 136.97023010253906 62.553466796875 137.169921875 62.260101318359375 C137.26976013183594 62.1134033203125 137.33119201660156 61.941375732421875 137.4095458984375 61.78009033203125 C137.93177795410156 60.694915771484375 138.9109649658203 60.50213623046875 139.96774291992188 60.49830627441406 C140.5330047607422 60.496002197265625 141.00685119628906 60.7640380859375 141.38699340820312 61.16877746582031 C142.2594451904297 62.09651184082031 142.24871826171875 64.03878784179688 141.3624267578125 64.95578002929688 C140.4070281982422 65.94497680664062 138.92941284179688 66.10238647460938 137.9141082763672 64.90202331542969 C137.56544494628906 64.4903564453125 137.55543518066406 63.61943054199219 136.73216247558594 63.76690673828125 C136.07553100585938 63.8843994140625 136.20147705078125 64.63168334960938 135.90040588378906 65.05256652832031 C135.1761932373047 66.06478881835938 134.22003173828125 66.53936767578125 133.03115844726562 66.44877624511719"></path>
<path fill="#F29481" fill-opacity="1.0"  filling="0" d="M167.31854248046875 80.95169067382812 C167.541259765625 81.06074523925781 167.767822265625 81.11833190917969 167.9928436279297 80.96551513671875 C168.3391876220703 80.73048400878906 168.67404174804688 80.47933959960938 169.0265655517578 80.25433349609375 C169.32379150390625 80.06465148925781 169.63865661621094 79.84500122070312 170.00653076171875 80.07537841796875 C170.24691772460938 80.2266845703125 170.12557983398438 80.69900512695312 169.70932006835938 81.16595458984375 C169.39134216308594 81.52229309082031 169.04653930664062 81.85484313964844 168.706298828125 82.19122314453125 C168.36837768554688 82.52456665039062 168.02125549316406 82.84866333007812 167.67872619628906 83.17658996582031 C167.94137573242188 83.60513305664062 168.20709228515625 83.33016967773438 168.44366455078125 83.26106262207031 C168.72933959960938 83.17733764648438 168.99813842773438 83.02604675292969 169.2869110107422 82.96305847167969 C169.43896484375 82.9300537109375 169.65863037109375 82.97152709960938 169.77691650390625 83.06675720214844 C169.99656677246094 83.24493408203125 169.92666625976562 83.48915100097656 169.78765869140625 83.70419311523438 C169.72312927246094 83.80403137207031 169.66322326660156 83.91693115234375 169.57337951660156 83.99066162109375 C168.60491943359375 84.78323364257812 167.7169189453125 85.67564392089844 166.7848663330078 86.51353454589844 C165.85279846191406 87.35142517089844 164.87667846679688 88.1347885131836 163.73196411132812 88.70925903320312 C163.62521362304688 88.76300048828125 163.5284423828125 88.83827209472656 163.41937255859375 88.8851318359375 C161.88571166992188 89.54484558105469 161.22828674316406 90.76287841796875 161.00709533691406 92.37338256835938 C160.8892059326172 93.23085021972656 160.7377166748047 94.08448028564453 160.57049560546875 94.93561553955078 C160.40325927734375 95.78675079345703 160.22027587890625 96.63539123535156 160.03941345214844 97.48287963867188 C159.7652587890625 98.76852416992188 159.41734313964844 100.03878784179688 159.09246826171875 101.31291198730469 C158.82675170898438 102.35585021972656 158.55833435058594 103.39802551269531 158.2899169921875 104.44010925292969 C158.02149963378906 105.48218536376953 157.75308227539062 106.524169921875 157.4873504638672 107.56672668457031 C157.1893768310547 108.73562622070312 156.6771240234375 109.81388854980469 156.11109924316406 110.86834716796875 C155.8561248779297 111.34220886230469 155.552001953125 111.78611755371094 155.11500549316406 112.12403869628906 C154.181884765625 112.845947265625 153.17196655273438 113.04331970214844 152.09521484375 112.51109313964844 C151.29190063476562 112.11404418945312 150.51699829101562 111.66322326660156 149.85496520996094 111.03962707519531 C149.2413330078125 110.46170806884766 148.68089294433594 109.83943176269531 148.15423583984375 109.18990325927734 C147.62759399414062 108.54036712646484 147.1347198486328 107.86357116699219 146.65625 107.17660522460938 C146.08180236816406 106.35096740722656 146.17166137695312 105.91629028320312 146.97036743164062 105.37100219726562 C148.15538024902344 104.56230163574219 149.35577392578125 103.77432250976562 150.56768798828125 103.00633239746094 C151.2903594970703 102.5478515625 151.3387451171875 102.57624816894531 152.11134338378906 103.19525146484375 C152.4976806640625 103.50479125976562 152.7457275390625 103.47712707519531 152.8885955810547 103.04551696777344 C153.22573852539062 102.02406311035156 153.57516479492188 101.00262451171875 153.82862854003906 99.95968627929688 C154.15310668945312 98.62335968017578 154.46414184570312 97.28377532958984 154.7719268798828 95.94332885742188 C155.07969665527344 94.6028823852539 155.38421630859375 93.2615737915039 155.6956329345703 91.92179870605469 C155.9813232421875 90.69223022460938 156.3284454345703 89.4918441772461 156.77725219726562 88.32937622070312 C157.22604370117188 87.16691589355469 157.77651977539062 86.04236602783203 158.4688720703125 84.9644775390625 C159.10015869140625 83.98181915283203 159.65599060058594 82.9574966430664 160.1137237548828 81.88911437988281 C160.57144165039062 80.82072448730469 160.93106079101562 79.70828247070312 161.169921875 78.54937744140625 C161.24134826660156 78.2030029296875 161.3688507080078 77.85816955566406 161.53240966796875 77.54484558105469 C161.59693908691406 77.42041015625 161.83346557617188 77.32135009765625 161.98785400390625 77.32672119140625 C162.1422119140625 77.33209228515625 162.38259887695312 77.44961547851562 162.4271240234375 77.57402038574219 C162.56536865234375 77.96263122558594 162.67442321777344 78.374267578125 162.71128845214844 78.78437805175781 C162.76966857910156 79.43719482421875 162.76043701171875 80.09690856933594 162.78195190429688 80.75430297851562 C162.74278259277344 80.82418823242188 162.43865966796875 80.830322265625 162.73048400878906 80.97856140136719 C162.7343292236328 80.89256286621094 162.73817443847656 80.80577087402344 162.74278259277344 80.71975708007812 C163.0223388671875 80.86796569824219 163.1843719482422 80.68902587890625 163.31109619140625 80.4901123046875 C163.88710021972656 79.58616638183594 164.44775390625 78.67225646972656 165.02297973632812 77.768310546875 C165.43771362304688 77.1170654296875 165.7986602783203 76.42356872558594 166.39231872558594 75.90437316894531 C166.57740783691406 75.74232482910156 166.8377685546875 75.61407470703125 167.03128051757812 75.7630615234375 C167.19566345214844 75.88980102539062 167.3077850341797 76.15475463867188 167.33465576171875 76.37210083007812 C167.38687133789062 76.79141235351562 167.2532501220703 77.19462585449219 167.08506774902344 77.58322143554688 C166.85081481933594 78.1239013671875 166.63194274902344 78.67225646972656 166.397705078125 79.23902893066406 C166.8730926513672 79.3565673828125 167.0290069580078 78.9932861328125 167.26478576660156 78.79206848144531 C167.71559143066406 78.40652465820312 168.1456756591797 77.99565124511719 168.60415649414062 77.61930847167969 C168.7285919189453 77.51718139648438 168.94363403320312 77.43577575683594 169.07725524902344 77.62164306640625 C169.17324829101562 77.7552490234375 169.26004028320312 77.93344116210938 169.2577362060547 78.09011840820312 C169.25465393066406 78.25677490234375 169.16632080078125 78.437255859375 169.07186889648438 78.58316040039062 C168.5281219482422 79.42951965332031 168.07347106933594 80.3426513671875 167.28318786621094 81.00312805175781"></path>
<path fill="#F29481" fill-opacity="1.0"  filling="0" d="M75.60089111328125 130.88626098632812 C75.13241577148438 130.68275451660156 74.845947265625 131.11512756347656 74.46271514892578 131.2126922607422 C74.23846435546875 131.26951599121094 73.9896240234375 131.39083862304688 73.85368347167969 131.0967254638672 C73.74079895019531 130.85247802734375 73.88057708740234 130.65048217773438 74.05030822753906 130.47537231445312 C74.75148010253906 129.75039672851562 75.54176330566406 129.1321563720703 76.36429595947266 128.55230712890625 C76.53170013427734 128.39718627929688 76.70220184326172 128.24740600585938 76.86962127685547 128.10302734375 C76.57318115234375 128.2074737548828 76.37580871582031 128.31808471679688 76.400390625 128.6260528564453 C76.19840240478516 128.45094299316406 75.98335266113281 128.434814453125 75.74681854248047 128.55615234375 C75.3228759765625 128.7727508544922 74.90354919433594 129.00619506835938 74.46271514892578 129.1820831298828 C74.3321533203125 129.2342987060547 74.0948486328125 129.16519165039062 73.97503662109375 129.06765747070312 C73.70469665527344 128.84799194335938 73.91973114013672 128.60836791992188 74.076416015625 128.4739990234375 C74.71500396728516 127.92526245117188 75.36665344238281 127.39822387695312 76.07474517822266 126.97216796875 C76.78284454345703 126.5461196899414 77.54739379882812 126.22106170654297 78.41177368164062 126.0762939453125 C78.48780822753906 126.063232421875 78.5615234375 125.91578674316406 78.59840393066406 125.81747436523438 C78.64985656738281 125.67999267578125 78.57151794433594 125.59628295898438 78.41944885253906 125.56866455078125 C77.83346557617188 125.46340942382812 77.24517822265625 125.36512756347656 76.66381072998047 125.2384033203125 C76.49945068359375 125.20230102539062 76.30514526367188 125.0855712890625 76.36582946777344 124.87127685546875 C76.40882873535156 124.71922302246094 76.51481628417969 124.51956176757812 76.64460754394531 124.46656799316406 C77.91181182861328 123.94357299804688 79.26502227783203 123.79531860351562 80.47386169433594 124.41665649414062 C82.09663391113281 125.25070190429688 83.45062255859375 124.90278625488281 84.82073211669922 123.94662475585938 C85.73158264160156 123.31071472167969 86.61170959472656 122.63929748535156 87.4504623413086 121.9210205078125 C88.28921508789062 121.2027587890625 89.08659362792969 120.43763732910156 89.83193969726562 119.61433410644531 C90.75506591796875 118.59518432617188 91.65670013427734 117.55303955078125 92.49996948242188 116.46784973144531 C93.41926574707031 115.28511810302734 94.37561798095703 114.13618469238281 95.36825561523438 113.01970672607422 C96.36089324951172 111.90322875976562 97.38982391357422 110.81919860839844 98.45427703857422 109.76626586914062 C99.04946899414062 109.17760467529297 99.6412124633789 108.5856704711914 100.20012664794922 107.96464538574219 C100.759033203125 107.34361267089844 101.28511810302734 106.69349670410156 101.74899291992188 105.98846435546875 C101.97708129882812 105.64134216308594 102.27737426757812 105.33953857421875 102.55999755859375 105.03079223632812 C103.14060974121094 104.39794921875 103.26656341552734 104.36801147460938 103.87557983398438 104.898681640625 C104.50611114501953 105.44819641113281 105.129150390625 106.00653076171875 105.751708984375 106.56553649902344 C106.374267578125 107.12454223632812 106.99635314941406 107.68421936035156 107.62496185302734 108.23640441894531 C108.01203155517578 108.57666015625 108.0296859741211 108.95832824707031 107.81388854980469 109.35922241210938 C107.17337799072266 110.54617309570312 106.52499389648438 111.73292541503906 105.77033996582031 112.83961486816406 C105.01568603515625 113.94630432128906 104.15475463867188 114.97293090820312 103.08914947509766 115.83963012695312 C102.06847381591797 116.6695785522461 101.05164337158203 117.50481414794922 100.02448272705078 118.32662963867188 C98.99732971191406 119.14844512939453 97.95984649658203 119.95683288574219 96.89787292480469 120.73308563232422 C95.83590698242188 121.50933074951172 94.74944305419922 122.25343322753906 93.62432861328125 122.94668579101562 C92.70809936523438 123.51078033447266 91.80703735351562 124.09983825683594 90.910400390625 124.69599914550781 C90.01376342773438 125.29216003417969 89.12153625488281 125.89543151855469 88.22297668457031 126.48794555664062 C87.56863403320312 126.9195556640625 86.9834213256836 127.42491149902344 86.53106689453125 128.0738525390625 C85.75614929199219 129.18592834472656 84.70169067382812 129.957763671875 83.47981262207031 130.50303649902344 C82.43840026855469 130.96768188476562 81.44306945800781 131.50453186035156 80.49996948242188 132.14810180664062 C80.21119689941406 132.34547424316406 79.86559295654297 132.4775848388672 79.52845001220703 132.57818603515625 C79.388671875 132.61965942382812 79.1805419921875 132.52980041503906 79.03922271728516 132.44223022460938 C78.86029052734375 132.3316650390625 78.90790557861328 132.12506103515625 78.95935821533203 131.9561004638672 C79.18899536132812 131.20037841796875 79.9231948852539 130.76187133789062 80.23884582519531 130.01766967773438 C79.08222961425781 130.11212158203125 79.0146484375 130.121337890625 78.27046203613281 130.62057495117188 C77.77433776855469 130.953857421875 77.31431579589844 131.3424530029297 76.8097152709961 131.66195678710938 C76.51404571533203 131.84860229492188 76.16998291015625 131.9691619873047 75.8343734741211 132.0774383544922 C75.52640533447266 132.17727661132812 75.30598449707031 131.89697265625 75.39967346191406 131.52601623535156 C75.45651245117188 131.30099487304688 75.51795196533203 131.0775146484375 75.5778579711914 130.85325622558594 C75.77906799316406 130.82177734375 75.97950744628906 130.78952026367188 76.17843627929688 130.75802612304688 C75.9395751953125 130.70196533203125 75.72531127929688 130.54220581054688 75.60089111328125 130.88626098632812"></path>
<path fill="#000000" fill-opacity="1.0"  filling="0" d="M88.25753021240234 119.61282348632812 C88.41497802734375 118.648193359375 88.92877197265625 118.2027587890625 89.64454650878906 118.2188720703125 C90.35801696777344 118.23500061035156 90.77273559570312 118.91543579101562 90.29428100585938 119.4361572265625 C89.80735778808594 119.96607971191406 89.80120849609375 120.47373962402344 89.92793273925781 121.0804443359375 C90.13683319091797 122.08038330078125 90.39948272705078 123.06034851074219 90.92787170410156 123.94662475585938 C91.27193450927734 124.52337646484375 91.53305053710938 124.53262329101562 91.93626403808594 123.99578857421875 C92.04300689697266 123.85369873046875 92.12442016601562 123.6885986328125 92.24421691894531 123.5595703125 C92.4669418334961 123.31838989257812 92.75494384765625 123.227783203125 93.04908752441406 123.3936767578125 C93.33016967773438 123.5518798828125 93.45843505859375 123.83987426757812 93.41696166992188 124.15553283691406 C93.338623046875 124.7591552734375 93.13433837890625 125.31597900390625 92.67660522460938 125.74835205078125 C92.15206146240234 126.24447631835938 91.49542236328125 126.3397216796875 90.87103271484375 125.96415710449219 C90.56845092773438 125.78213500976562 90.2528076171875 125.56941223144531 90.04083251953125 125.29522705078125 C89.36883544921875 124.42623901367188 88.94278717041016 123.48197937011719 88.67485046386719 122.51679992675781 C88.40691375732422 121.55162048339844 88.29708862304688 120.56551361083984 88.25753021240234 119.61282348632812"></path>
<path fill="#000000" fill-opacity="1.0"  filling="0" d="M86.4089584350586 121.11500549316406 C86.52262115478516 121.16262817382812 86.75225830078125 121.23481750488281 86.95654296875 121.35002136230469 C87.2483901977539 121.51435852050781 87.31749725341797 122.04428100585938 87.08096313476562 122.29388427734375 C86.96268463134766 122.41830444335938 86.81446838378906 122.56037902832031 86.65779113769531 122.59341430664062 C86.10406494140625 122.70938110351562 86.06029510498047 123.10568237304688 86.08562469482422 123.54498291015625 C86.1347885131836 124.39669799804688 86.42201232910156 125.18081665039062 86.84133911132812 125.91194152832031 C87.01567077636719 126.216064453125 87.22457885742188 126.53556823730469 87.49951171875 126.737548828125 C87.86201477050781 127.0040283203125 88.1377182006836 126.56552124023438 88.46565246582031 126.48257446289062 C88.98098754882812 126.35122680664062 89.444091796875 126.77978515625 89.34271240234375 127.28359985351562 C89.14688110351562 128.25509643554688 88.21836853027344 128.80577087402344 87.31903839111328 128.47015380859375 C86.74227905273438 128.25509643554688 86.2929916381836 127.86648559570312 85.9420166015625 127.36653137207031 C85.02426147460938 126.06015014648438 84.53349304199219 124.60940551757812 84.51199340820312 123.01042175292969 C84.5081558227539 122.71707153320312 84.55270385742188 122.411376953125 84.63795471191406 122.13031005859375 C84.87295532226562 121.35537719726562 85.465087890625 121.00210571289062 86.4089584350586 121.11500549316406"></path>
<path fill="#5E6BEA" fill-opacity="1.0"  filling="0" d="M114.05850219726562 100.27993774414062 C113.66451263427734 100.62783813476562 113.48249816894531 101.13241577148438 113.22137451171875 101.58554077148438 C112.57933044433594 102.70106506347656 111.92498779296875 103.8083267211914 111.22303771972656 104.88371276855469 C110.52108764648438 105.9591064453125 109.77152252197266 107.00262451171875 108.93901062011719 107.99066162109375 C108.70783996582031 108.26484680175781 108.47129821777344 108.53593444824219 108.22168731689453 108.793212890625 C108.04045104980469 108.98062133789062 107.80773162841797 109.03361511230469 107.57657623291016 108.8907470703125 C107.22099304199219 108.671875 106.84697723388672 108.46835327148438 106.53132629394531 108.19879150390625 C105.39545440673828 107.22724914550781 104.26649475097656 106.24653625488281 103.16517639160156 105.23663330078125 C102.56690979003906 104.68746948242188 102.54694366455078 104.55001831054688 102.95320892333984 103.84652709960938 C103.67436218261719 102.59698486328125 104.30355072021484 101.30693054199219 104.86774444580078 99.98933410644531 C105.43193817138672 98.67173767089844 105.93113708496094 97.32658386230469 106.39232635498047 95.96684265136719 C106.74752807617188 94.91968536376953 107.07545471191406 93.86349487304688 107.41203308105469 92.80979919433594 C107.74861145019531 91.756103515625 108.09382629394531 90.70490264892578 108.48358154296875 89.667724609375 C109.04652404785156 88.16934967041016 109.79532623291016 86.81613159179688 110.7129898071289 85.5875244140625 C111.63066101074219 84.35891723632812 112.7171859741211 83.25491333007812 113.95558166503906 82.25497436523438 C114.75737762451172 81.60755920410156 115.5130844116211 81.42706298828125 116.41395568847656 81.93856811523438 C116.98457336425781 82.26266479492188 117.56057739257812 82.57522583007812 118.12965393066406 82.90164184570312 C119.37382507324219 83.61433410644531 120.58341979980469 84.39616394042969 121.8636703491211 85.03590393066406 C123.26168823242188 85.73452758789062 124.67292785644531 86.20915222167969 126.0950698852539 86.47271728515625 C127.5172119140625 86.73628234863281 128.9502410888672 86.7887954711914 130.391845703125 86.6431884765625 C131.83343505859375 86.49758911132812 133.28359985351562 86.15386962890625 134.73997497558594 85.62496948242188 C135.35284423828125 85.40223693847656 135.9196319580078 85.04740905761719 136.50100708007812 84.74176025390625 C137.2724609375 84.33548736572266 138.05908203125 83.97490692138672 138.8679656982422 83.67394256591797 C139.67686462402344 83.37298583984375 140.50802612304688 83.13163757324219 141.36859130859375 82.96383666992188 C142.83543395996094 82.67814636230469 144.0780792236328 83.01913452148438 145.14944458007812 84.0712890625 C145.97274780273438 84.8800048828125 146.63783264160156 85.79315185546875 147.09402465820312 86.84608459472656 C147.462646484375 87.69702911376953 147.813232421875 88.55430603027344 148.12428283691406 89.42597961425781 C148.43531799316406 90.29766082763672 148.70681762695312 91.1837387084961 148.91725158691406 92.09228515625 C149.17861938476562 93.22022247314453 149.4527130126953 94.34415435791016 149.7613067626953 95.456787109375 C150.0699005126953 96.56942749023438 150.41299438476562 97.67076110839844 150.81239318847656 98.75353240966797 C151.21177673339844 99.83629608154297 151.66744995117188 100.90048217773438 152.2012176513672 101.93881225585938 C152.55140686035156 102.62002563476562 152.4969024658203 102.84890747070312 151.89556884765625 103.33119201660156 C151.074951171875 103.9889907836914 150.21728515625 104.58842468261719 149.32449340820312 105.1302490234375 C148.4316864013672 105.67207336425781 147.50375366210938 106.15630340576172 146.5426025390625 106.58369445800781 C146.04415893554688 106.80487060546875 145.770751953125 106.70195007324219 145.50888061523438 106.2158203125 C144.99777221679688 105.26541137695312 144.51988220214844 104.30061340332031 144.09259033203125 103.31421661376953 C143.665283203125 102.32781982421875 143.28857421875 101.31981658935547 142.97984313964844 100.28300476074219 C142.8800048828125 99.94737243652344 142.86846923828125 99.57490539550781 142.57508850097656 99.32608032226562 C142.2886505126953 99.22164916992188 142.27328491210938 99.47122192382812 142.24256896972656 99.61331176757812 C141.9041290283203 101.13907623291016 141.4871063232422 102.63795471191406 141.0152130126953 104.11800384521484 C140.54331970214844 105.59805297851562 140.0165557861328 107.05928039550781 139.45864868164062 108.50971984863281 C138.90074157714844 109.96015930175781 138.31167602539062 111.39982604980469 137.71519470214844 112.83676147460938 C137.2113800048828 114.05172729492188 136.6492156982422 115.23902893066406 136.31820678710938 116.52236938476562 C136.11622619628906 117.30648803710938 135.85357666015625 117.46856689453125 135.0179901123047 117.42401123046875 C133.54727172851562 117.34644317626953 132.0944061279297 117.1557846069336 130.6518096923828 116.90263366699219 C129.20921325683594 116.64947509765625 127.77690124511719 116.33382415771484 126.3472671508789 116.00627136230469 C125.32698059082031 115.77242279052734 124.30745697021484 115.53338623046875 123.29014587402344 115.28560638427734 C122.2728271484375 115.03783416748047 121.25772857666016 114.78132629394531 120.24627685546875 114.51254272460938 C118.74559020996094 114.11392211914062 117.26182556152344 113.64544677734375 115.78572082519531 113.16162109375 C115.05690002441406 112.92198181152344 114.94706726074219 112.68696594238281 115.09683227539062 111.95045471191406 C115.31187438964844 110.89755249023438 115.62445068359375 109.86918640136719 115.64517974853516 108.7747802734375 C115.6632308959961 107.81132507324219 115.62214660644531 106.8563232421875 115.51837158203125 105.90870666503906 C115.41459655761719 104.96109008789062 115.24812316894531 104.02086639404297 115.01541900634766 103.08697509765625 C114.82726287841797 102.33280944824219 114.65522766113281 101.57478332519531 114.4762954711914 100.81829833984375 C114.42253112792969 100.58253479003906 114.37644958496094 100.34521484375 114.05850219726562 100.27993774414062"></path>
<path fill="#000000" fill-opacity="1.0"  filling="0" d="M140.19046020507812 85.68331909179688 C139.71429443359375 85.43296813964844 139.45010375976562 85.647216796875 139.2058868408203 86.08038330078125 C138.5550079345703 87.23277282714844 138.10360717773438 87.85408782958984 137.50601196289062 88.07479095458984 C136.90841674804688 88.29550170898438 136.16461181640625 88.11559295654297 134.9289093017578 87.66554260253906 C134.60940551757812 87.54957580566406 134.360595703125 87.59027099609375 134.16090393066406 87.88365173339844 C133.9589080810547 88.1793212890625 133.75921630859375 88.47962951660156 133.5265350341797 88.75071716308594 C132.4759063720703 89.9764404296875 131.2609405517578 90.17228698730469 129.84243774414062 89.45344543457031 C129.2602996826172 89.15853881835938 128.9338836669922 88.32830810546875 128.23960876464844 88.44891357421875 C127.69280242919922 88.54335021972656 127.22969055175781 89.05099487304688 126.69823455810547 89.31367492675781 C125.23289489746094 90.03941345214844 123.69151306152344 89.67694091796875 122.693115234375 88.39205932617188 C122.51110076904297 88.1578369140625 122.36518096923828 87.89208984375 122.23233032226562 87.62635803222656 C122.02803039550781 87.21780395507812 121.74464416503906 87.20703125 121.34757995605469 87.33836364746094 C120.8983154296875 87.48735046386719 120.42598724365234 87.601806640625 119.95519256591797 87.64865112304688 C118.42303466796875 87.79994201660156 117.41618347167969 87.1993408203125 116.81561279296875 85.82003784179688 C116.74418640136719 85.65643310546875 116.68275451660156 85.48365783691406 116.6512680053711 85.30931091308594 C116.54297637939453 84.69874572753906 116.21810913085938 84.39077758789062 115.56914520263672 84.35469055175781 C114.6529312133789 84.30400085449219 113.82733154296875 83.9576416015625 113.10540771484375 83.38699340820312 C112.51404571533203 82.92005920410156 112.08243560791016 82.35404968261719 112.25831604003906 81.54534912109375 C112.42495727539062 80.77581787109375 112.95795440673828 80.32344055175781 113.6806411743164 80.06846618652344 C114.78579711914062 79.67909240722656 116.07526397705078 79.93484497070312 116.73957824707031 80.89483642578125 C117.52102661132812 82.02342224121094 118.51654052734375 82.82156372070312 119.61103820800781 83.46054077148438 C120.70553588867188 84.0995101928711 121.89900970458984 84.57931518554688 123.07636260986328 85.07122802734375 C124.19801330566406 85.53971099853516 125.35519409179688 85.82963562011719 126.53359985351562 85.94522094726562 C127.71199035644531 86.06080627441406 128.91160583496094 86.0020523071289 130.11813354492188 85.773193359375 C131.25682067871094 85.55712890625 132.38595581054688 85.31153869628906 133.49998474121094 85.01924133300781 C134.614013671875 84.72694396972656 135.7129364013672 84.387939453125 136.7912139892578 83.98505401611328 C137.86947631835938 83.58216857910156 138.92709350585938 83.11540222167969 139.95852661132812 82.56756591796875 C140.64280700683594 82.20428466796875 141.33937072753906 81.86405944824219 142.10202026367188 81.66976928710938 C142.65805053710938 81.5284423828125 143.16110229492188 81.50465393066406 143.59193420410156 81.95468139648438 C144.06655883789062 82.4508056640625 144.06887817382812 83.02374267578125 143.85690307617188 83.62278747558594 C143.28318786621094 85.246337890625 141.91845703125 86.01124572753906 140.19046020507812 85.68331909179688"></path>
<path fill="#C15BAE" fill-opacity="1.0"  filling="0" d="M124.2536849975586 141.61062622070312 C125.72312927246094 141.75680541992188 127.19274139404297 141.8917236328125 128.66334533691406 141.9914093017578 C130.1339569091797 142.09109497070312 131.60556030273438 142.15557861328125 133.0789794921875 142.16090393066406 C134.5524139404297 142.1662139892578 136.02764892578125 142.11236572265625 137.50555419921875 141.97540283203125 C139.30418395996094 141.80877685546875 139.56837463378906 142.14132690429688 138.9962158203125 143.8462677001953 C138.53260803222656 145.2268829345703 138.0913543701172 146.6139678955078 137.66656494140625 148.0059356689453 C137.2417755126953 149.39788818359375 136.8334503173828 150.79470825195312 136.4357147216797 152.1947784423828 C136.0379638671875 153.5948486328125 135.65081787109375 154.99813842773438 135.26834106445312 156.403076171875 C135.02374267578125 157.30087280273438 134.82290649414062 158.20614624023438 134.642822265625 159.11537170410156 C134.4627227783203 160.0245819091797 134.30337524414062 160.93772888183594 134.14170837402344 161.85125732421875 C133.93614196777344 163.01222229003906 133.71340942382812 164.1678924560547 133.45570373535156 165.31394958496094 C133.197998046875 166.45999145507812 132.90530395507812 167.596435546875 132.55978393554688 168.7189483642578 C132.21426391601562 169.84144592285156 131.81593322753906 170.95001220703125 131.34693908691406 172.04031372070312 C130.91993713378906 173.03334045410156 130.4766082763672 174.01869201660156 129.97943115234375 174.9724578857422 C129.48223876953125 175.92620849609375 128.9311981201172 176.848388671875 128.2887725830078 177.71505737304688 C127.35737609863281 178.9713134765625 126.4787826538086 180.25743103027344 125.64210510253906 181.5673828125 C124.80542755126953 182.87733459472656 124.01067352294922 184.2111358642578 123.24694061279297 185.56277465820312 C122.48321533203125 186.91439819335938 121.75051879882812 188.28387451171875 121.03797149658203 189.66514587402344 C120.32542419433594 191.0464324951172 119.63302612304688 192.4395294189453 118.94989013671875 193.83843994140625 C118.37273406982422 195.02041625976562 117.77311706542969 196.19143676757812 117.19058990478516 197.3708038330078 C116.60806274414062 198.5501708984375 116.0426254272461 199.73788452148438 115.53382873535156 200.9532470703125 C115.12063598632812 201.9393310546875 114.84032440185547 202.10675048828125 113.89106750488281 201.79800415039062 C113.09388732910156 201.53919982910156 112.27346801757812 201.36410522460938 111.45919799804688 201.1687469482422 C110.64492797851562 200.973388671875 109.8367919921875 200.75778198242188 109.0641860961914 200.41793823242188 C108.68096160888672 200.249755859375 108.28390502929688 200.11148071289062 107.90835571289062 199.9287109375 C107.09196472167969 199.53240966796875 106.97062683105469 199.27362060546875 107.1994857788086 198.35736083984375 C107.38764190673828 197.60321044921875 107.6103744506836 196.85748291015625 107.81542205810547 196.10711669921875 C108.15718078613281 194.85682678222656 108.4981689453125 193.60635375976562 108.8486328125 192.35873413085938 C109.1990966796875 191.11111450195312 109.55903625488281 189.86631774902344 109.93868255615234 188.6273956298828 C110.31832885742188 187.38845825195312 110.71769714355469 186.1553955078125 111.14700317382812 184.93118286132812 C111.55442810058594 183.76959228515625 112.02272033691406 182.6373748779297 112.54150390625 181.52886962890625 C113.06028747558594 180.4203643798828 113.62956237792969 179.3355712890625 114.23897552490234 178.26882934570312 C114.89178466796875 177.1267852783203 115.56300354003906 175.99322509765625 116.18354797363281 174.83355712890625 C116.79052734375 173.69871520996094 117.32650756835938 172.5404815673828 117.79647064208984 171.35960388183594 C118.26643371582031 170.17874145507812 118.67037200927734 168.9752197265625 119.01326751708984 167.7498016357422 C119.35617065429688 166.52438354492188 119.63802337646484 165.27706909179688 119.86381530761719 164.00860595703125 C120.10938262939453 162.62831115722656 120.29605102539062 161.246337890625 120.43276977539062 159.86276245117188 C120.5694808959961 158.47918701171875 120.65624237060547 157.09402465820312 120.70198822021484 155.7073516845703 C120.74772644042969 154.3206787109375 120.75245666503906 152.9324951171875 120.72511291503906 151.5428924560547 C120.69776153564453 150.1532745361328 120.63833618164062 148.76223754882812 120.55577850341797 147.369873046875 C120.46360778808594 145.8177490234375 120.36300659179688 144.2648468017578 120.32077026367188 142.71038818359375 C120.28620147705078 141.43014526367188 120.64332580566406 141.13369750976562 121.94432830810547 141.27731323242188 C122.71615600585938 141.36331176757812 123.4841537475586 141.49774169921875 124.2536849975586 141.61062622070312"></path>
<path fill="#D86FC2" fill-opacity="1.0"  filling="0" d="M109.43898010253906 128.96859741210938 C109.75040435791016 127.22598266601562 110.08179473876953 125.75314331054688 110.45907592773438 124.42537689208984 C110.83634948730469 123.09760284423828 111.259521484375 121.9148941040039 111.75450134277344 120.75253295898438 C112.29325103759766 119.48686218261719 112.87808227539062 118.24058532714844 113.43363189697266 116.98191833496094 C113.98918151855469 115.7232666015625 114.51545715332031 114.45222473144531 114.93708801269531 113.13703918457031 C115.15673065185547 112.4527587890625 115.4493408203125 112.28456115722656 116.17280578613281 112.43890380859375 C117.109375 112.63858795166016 118.04499816894531 112.84403228759766 118.9788818359375 113.0571517944336 C119.91277313232422 113.27027893066406 120.84493255615234 113.49107360839844 121.77459716796875 113.72146606445312 C122.93734741210938 114.00997924804688 124.10334014892578 114.28262329101562 125.27192687988281 114.54289245605469 C126.44050598144531 114.80316162109375 127.61167907714844 115.05105590820312 128.7847900390625 115.29007720947266 C129.95790100097656 115.52909851074219 131.1329345703125 115.75924682617188 132.3092498779297 115.9840087890625 C133.13177490234375 116.14144897460938 133.95584106445312 116.30810546875 134.76223754882812 116.5323486328125 C135.4073486328125 116.71206665039062 135.6392822265625 117.09527587890625 135.55096435546875 117.74502563476562 C135.47877502441406 118.27725219726562 135.33287048339844 118.79946899414062 135.23379516601562 119.32940673828125 C134.9246826171875 120.9729232788086 135.00570678710938 122.259521484375 135.54925537109375 123.2952651977539 C136.09280395507812 124.33100891113281 137.098876953125 125.11591339111328 138.63987731933594 125.75604248046875 C139.522705078125 126.12275695800781 140.42221069335938 126.4483871459961 141.33470153808594 126.73696899414062 C142.24717712402344 127.02554321289062 143.172607421875 127.27706909179688 144.1072540283203 127.49557495117188 C145.24351501464844 127.76091003417969 146.37957763671875 128.02816772460938 147.513916015625 128.3024444580078 C148.64825439453125 128.57672119140625 149.78086853027344 128.8579864501953 150.9102020263672 129.15133666992188 C152.21580505371094 129.4904327392578 153.4956817626953 129.9072723388672 154.7598114013672 130.36865234375 C156.02394104003906 130.83001708984375 157.27232360839844 131.3359375 158.5149383544922 131.85317993164062 C159.84588623046875 132.40768432617188 161.03628540039062 133.2171630859375 162.15988159179688 134.12416076660156 C162.97280883789062 134.780029296875 163.6720733642578 135.51309204101562 164.25498962402344 136.32908630371094 C164.837890625 137.1450958251953 165.30445861816406 138.04403686523438 165.6519775390625 139.0316925048828 C166.11045837402344 140.33419799804688 166.45912170410156 141.66363525390625 166.7340850830078 143.01300048828125 C167.0655517578125 144.64085388183594 167.43846130371094 146.25440979003906 167.85214233398438 147.85397338867188 C168.2658233642578 149.45352172851562 168.72027587890625 151.03907775878906 169.21482849121094 152.61090087890625 C169.70938110351562 154.18272399902344 170.24403381347656 155.7407989501953 170.81813049316406 157.28543090820312 C171.3922119140625 158.83006286621094 172.0057373046875 160.36123657226562 172.65802001953125 161.87924194335938 C173.310302734375 163.39724731445312 174.0013427734375 164.90206909179688 174.73048400878906 166.39398193359375 C175.3871307373047 167.73721313476562 175.9639129638672 169.12115478515625 176.53761291503906 170.50277709960938 C176.9523162841797 171.50119018554688 176.89010620117188 171.6670684814453 175.90245056152344 172.2008514404297 C174.95553588867188 172.71231079101562 173.9793701171875 173.17080688476562 173.00558471679688 173.63162231445312 C172.14157104492188 174.04098510742188 171.2637481689453 174.42190551757812 170.3912811279297 174.81358337402344 C169.93972778320312 175.01632690429688 169.58489990234375 174.92031860351562 169.33990478515625 174.47259521484375 C169.28306579589844 174.36891174316406 169.1962890625 174.28134155273438 169.12716674804688 174.18380737304688 C168.23263549804688 172.9100799560547 167.32223510742188 171.64749145507812 166.40835571289062 170.38731384277344 C165.49449157714844 169.12713623046875 164.57716369628906 167.86936950683594 163.66880798339844 166.60528564453125 C162.76046752929688 165.34120178222656 161.861083984375 164.07080078125 160.9831085205078 162.78536987304688 C160.1051483154297 161.49993896484375 159.2485809326172 160.199462890625 158.4258575439453 158.875244140625 C157.697021484375 157.7021484375 157.03404235839844 156.49600219726562 156.41273498535156 155.26864624023438 C155.7914276123047 154.04129028320312 155.2117919921875 152.79270935058594 154.6496124267578 151.53472900390625 C154.0144500732422 150.11392211914062 153.3624267578125 148.70388793945312 152.64512634277344 147.3199462890625 C152.05567932128906 146.18292236328125 151.2849884033203 145.32870483398438 150.35609436035156 144.70777893066406 C149.4272003173828 144.08685302734375 148.340087890625 143.69918823242188 147.11782836914062 143.4952850341797 C145.80953979492188 143.27679443359375 144.497802734375 143.17984008789062 143.1840362548828 143.1558380126953 C141.87026977539062 143.1318359375 140.55450439453125 143.18080139160156 139.23814392089844 143.254150390625 C137.89453125 143.32864379882812 136.5564727783203 143.4739990234375 135.21717834472656 143.605224609375 C133.8778839111328 143.73646545410156 132.537353515625 143.85357666015625 131.18873596191406 143.8716278076172 C129.88902282714844 143.8890380859375 128.59109497070312 143.8817901611328 127.29585266113281 143.83847045898438 C126.0006103515625 143.79513549804688 124.70803833007812 143.71575927734375 123.41902160644531 143.58888244628906 C122.1300048828125 143.46202087402344 120.84454345703125 143.28768920898438 119.56351470947266 143.05445861816406 C118.56511688232422 142.87322998046875 117.57516479492188 142.6136474609375 116.6028823852539 142.321044921875 C115.4127426147461 141.962646484375 114.37295532226562 141.45712280273438 113.4805908203125 140.80984497070312 C112.58822631835938 140.16256713867188 111.84329223632812 139.37350463867188 111.24285888671875 138.4480438232422 C110.64242553710938 137.52256774902344 110.18649291992188 136.460693359375 109.87212371826172 135.26773071289062 C109.55532836914062 134.06387329101562 109.3786849975586 132.85177612304688 109.31542205810547 131.75929260253906 C109.25215911865234 130.66680908203125 109.3022689819336 129.69395446777344 109.43898010253906 128.96859741210938"></path>
<path fill="#000000" fill-opacity="1.0"  filling="0" d="M108.58036041259766 207.36447143554688 C107.9521255493164 207.79531860351562 107.80543518066406 208.54107666015625 107.40685272216797 209.1177978515625 C106.88230895996094 209.87664794921875 106.63116455078125 210.01715087890625 105.76793670654297 209.8021240234375 C105.18962097167969 209.65850830078125 104.6136245727539 209.48031616210938 104.06451416015625 209.25146484375 C102.88409423828125 208.7607421875 102.6798095703125 208.3743896484375 102.98931121826172 207.18017578125 C103.21434020996094 206.3131103515625 103.48543548583984 205.45523071289062 103.78035736083984 204.60891723632812 C104.2419204711914 203.2818145751953 104.6948471069336 201.9520263671875 105.12041473388672 200.61358642578125 C105.54598236083984 199.275146484375 105.94419860839844 197.9280548095703 106.29632568359375 196.56637573242188 C106.35545349121094 196.3367919921875 106.42457580566406 196.1048583984375 106.52826690673828 195.89288330078125 C106.66649627685547 195.60870361328125 106.90841674804688 195.41595458984375 107.23481750488281 195.42596435546875 C107.5911636352539 195.43670654296875 107.9498291015625 195.48043823242188 108.30155944824219 195.544189453125 C109.62828063964844 195.7830352783203 110.9354248046875 196.09906005859375 112.23391723632812 196.44879150390625 C113.53241729736328 196.79852294921875 114.82227325439453 197.1819610595703 116.11444091796875 197.55560302734375 C116.34329223632812 197.62164306640625 116.55834197998047 197.7337646484375 116.7802963256836 197.82208251953125 C117.22418975830078 197.99871826171875 117.42002868652344 198.34588623046875 117.42156219482422 198.80282592773438 C117.42310333251953 199.16070556640625 117.3939208984375 199.51934814453125 117.37010955810547 199.87799072265625 C117.338623046875 200.355712890625 117.29560852050781 200.83187866210938 117.26412200927734 201.3095703125 C117.18194580078125 202.53607177734375 117.32441711425781 203.68423461914062 117.69229125976562 204.75558471679688 C118.06016540527344 205.82693481445312 118.6534423828125 206.82150268554688 119.472900390625 207.74081420898438 C120.553466796875 208.95272827148438 121.71699523925781 210.05938720703125 123.15392303466797 210.84661865234375 C123.31059265136719 210.9326171875 123.46955871582031 211.01708984375 123.61933135986328 211.11538696289062 C124.32282257080078 211.57696533203125 124.41497802734375 211.8726806640625 124.07245635986328 212.593017578125 C123.94418334960938 212.86260986328125 123.80671691894531 213.1298828125 123.65081787109375 213.38406372070312 C122.97957611083984 214.47616577148438 122.67699432373047 214.63055419921875 121.44972229003906 214.3033447265625 C120.31385040283203 214.00025939941406 119.18207550048828 213.6829833984375 118.0542221069336 213.3525848388672 C116.92637634277344 213.02218627929688 115.80244445800781 212.67861938476562 114.68228149414062 212.32296752929688 C113.5621109008789 211.96728515625 112.44569396972656 211.59951782226562 111.33287048339844 211.22064208984375 C110.99494171142578 211.10540771484375 110.68159484863281 210.91879272460938 110.34905242919922 210.78668212890625 C109.47660827636719 210.4403076171875 109.06342315673828 209.78521728515625 108.95513153076172 208.87054443359375 C108.89138793945312 208.36212158203125 109.10489654541016 207.77154541015625 108.58036041259766 207.36447143554688"></path>
<path fill="#000000" fill-opacity="1.0"  filling="0" d="M175.20053100585938 181.552001953125 C174.93630981445312 182.26699829101562 175.2481231689453 182.96054077148438 175.2558135986328 183.66094970703125 C175.26657104492188 184.58328247070312 175.14215087890625 184.84288024902344 174.3134765625 185.16619873046875 C173.75820922851562 185.38278198242188 173.18528747558594 185.57017517089844 172.6046905517578 185.70152282714844 C171.35743713378906 185.9833526611328 170.96728515625 185.78598022460938 170.53030395507812 184.6324462890625 C170.21234130859375 183.79457092285156 169.93893432617188 182.938232421875 169.6901092529297 182.0773162841797 C169.29959106445312 180.7271728515625 168.9008026123047 179.38011169433594 168.47474670410156 178.04196166992188 C168.0487060546875 176.7038116455078 167.59539794921875 175.37460327148438 167.09580993652344 174.06016540527344 C167.01132202148438 173.8382110595703 166.93377685546875 173.60934448242188 166.8953399658203 173.3766632080078 C166.84469604492188 173.06484985351562 166.929931640625 172.76763916015625 167.20179748535156 172.58712768554688 C167.49899291992188 172.3897705078125 167.8169708251953 172.21849060058594 168.14028930664062 172.06719970703125 C169.36102294921875 171.49542236328125 170.61038208007812 170.99795532226562 171.8721923828125 170.5330352783203 C173.13401794433594 170.06809997558594 174.4083251953125 169.63571166992188 175.67897033691406 169.19412231445312 C175.9040069580078 169.11578369140625 176.1436309814453 169.08352661132812 176.37631225585938 169.02743530273438 C176.84097290039062 168.91531372070312 177.20115661621094 169.08506774902344 177.4661102294922 169.456787109375 C177.6742401123047 169.74862670898438 177.85780334472656 170.05810546875 178.04519653320312 170.36378479003906 C178.29556274414062 170.7716064453125 178.5359344482422 171.185546875 178.78555297851562 171.59335327148438 C179.42721557617188 172.64166259765625 180.20692443847656 173.4964599609375 181.12620544433594 174.1582794189453 C182.04550170898438 174.82009887695312 183.1043701171875 175.28897094726562 184.30438232421875 175.56544494628906 C185.88722229003906 175.93023681640625 187.47622680664062 176.16065979003906 189.10362243652344 175.97247314453125 C189.28179931640625 175.95175170898438 189.45997619628906 175.92947387695312 189.638916015625 175.92330932617188 C190.47987365722656 175.89337158203125 190.72564697265625 176.08154296875 190.86309814453125 176.8671875 C190.91456604003906 177.16134643554688 190.95681762695312 177.45855712890625 190.9759979248047 177.75656127929688 C191.05972290039062 179.03604125976562 190.9022674560547 179.33631896972656 189.7103271484375 179.7786865234375 C188.60824584960938 180.18777465820312 187.50131225585938 180.58287048339844 186.38992309570312 180.96493530273438 C185.27854919433594 181.3470001220703 184.16273498535156 181.71603393554688 183.04290771484375 182.07301330566406 C181.92306518554688 182.42999267578125 180.79922485351562 182.77493286132812 179.67181396484375 183.1087646484375 C179.32928466796875 183.21011352539062 178.9660186767578 183.23854064941406 178.61810302734375 183.322998046875 C177.7057342529297 183.54498291015625 176.98995971679688 183.24853515625 176.37326049804688 182.56500244140625 C176.03146362304688 182.18637084960938 175.8640594482422 181.58041381835938 175.20053100585938 181.552001953125"></path></svg>