<svg xmlns="http://www.w3.org/2000/svg" viewBox="0.0 0.0 256.0 256.0" height="256.0px" width="256.0px"><path fill="#FF7887" fill-opacity="1.0"  filling="0" d="M217.90338134765625 142.93472290039062 C216.47872924804688 144.6317901611328 215.1045379638672 146.00967407226562 213.75906372070312 147.0865478515625 C212.41357421875 148.16342163085938 211.0968017578125 148.93927001953125 209.78697204589844 149.4322967529297 C208.47715759277344 149.92530822753906 207.17430114746094 150.13548278808594 205.8566436767578 150.08096313476562 C204.53900146484375 150.02645874023438 203.20655822753906 149.707275390625 201.8375701904297 149.14158630371094 C200.46859741210938 148.57589721679688 199.06307983398438 147.76370239257812 197.59927368164062 146.72317504882812 C196.13546752929688 145.68264770507812 194.61337280273438 144.41375732421875 193.01123046875 142.93472290039062 C191.63961791992188 141.6686248779297 190.3910675048828 140.55052185058594 189.2056121826172 139.5697479248047 C188.02015686035156 138.58897399902344 186.8977813720703 137.74549865722656 185.77853393554688 137.02865600585938 C184.65927124023438 136.3118133544922 183.5431365966797 135.72158813476562 182.37014770507812 135.24728393554688 C181.1971435546875 134.77297973632812 179.96728515625 134.41461181640625 178.62060546875 134.1614532470703 C177.27392578125 133.90830993652344 175.81040954589844 133.76039123535156 174.1700897216797 133.70700073242188 C172.52976989746094 133.65362548828125 170.712646484375 133.69476318359375 168.65875244140625 133.8197479248047 C166.60484313964844 133.94473266601562 164.31417846679688 134.153564453125 161.72674560546875 134.43553161621094 C161.8809814453125 135.82177734375 162.0269775390625 137.24664306640625 162.2227783203125 138.65414428710938 C162.4185791015625 140.0616455078125 162.66416931152344 141.45176696777344 163.01760864257812 142.7684783935547 C163.3710479736328 144.085205078125 163.8323211669922 145.32852172851562 164.45948791503906 146.44241333007812 C165.08663940429688 147.5563201904297 165.87966918945312 148.54080200195312 166.89663696289062 149.33984375 C167.57461547851562 149.87466430664062 168.505859375 150.4982452392578 169.58822631835938 151.20379638671875 C170.67059326171875 151.9093475341797 171.90408325195312 152.6968536376953 173.1865692138672 153.55958557128906 C174.46905517578125 154.42230224609375 175.800537109375 155.36021423339844 177.07888793945312 156.36656188964844 C178.35723876953125 157.37290954589844 179.5824432373047 158.4476776123047 180.65237426757812 159.5841064453125 C181.72232055664062 160.72052001953125 182.63697814941406 161.91860961914062 183.29425048828125 163.17156982421875 C183.95150756835938 164.42453002929688 184.35137939453125 165.73236083984375 184.39169311523438 167.08831787109375 C184.44007873535156 168.71315002441406 184.51953125 170.40371704101562 184.6716766357422 172.04978942871094 C184.82382202148438 173.6958465576172 185.04864501953125 175.29739379882812 185.3877716064453 176.74417114257812 C185.7268829345703 178.19094848632812 186.1802978515625 179.4829559326172 186.78958129882812 180.50994873046875 C187.3988800048828 181.5369415283203 188.16407775878906 182.29891967773438 189.12677001953125 182.68560791015625 C190.08946228027344 183.07229614257812 191.24966430664062 183.08370971679688 192.64895629882812 182.60960388183594 C194.38720703125 182.0207977294922 195.90512084960938 181.18919372558594 197.26638793945312 180.31585693359375 C198.6276397705078 179.44252014160156 199.83224487304688 178.52743530273438 200.94384765625 177.77166748046875 C202.05545043945312 177.01589965820312 203.07403564453125 176.41946411132812 204.0633087158203 176.18341064453125 C205.0525665283203 175.94735717773438 206.0124969482422 176.07168579101562 207.00674438476562 176.7574462890625 C208.28622436523438 177.63987731933594 208.93287658691406 178.74339294433594 209.1042938232422 179.95114135742188 C209.2757110595703 181.1588897705078 208.9718780517578 182.4708709716797 208.3504180908203 183.77023315429688 C207.7289581298828 185.06959533691406 206.7898406982422 186.35633850097656 205.69068908691406 187.5136260986328 C204.59152221679688 188.6708984375 203.3323211669922 189.69873046875 202.07064819335938 190.480224609375 C200.80899047851562 191.26173400878906 199.54486083984375 191.79693603515625 198.43588256835938 191.96896362304688 C197.6437530517578 192.0918426513672 196.66580200195312 192.25918579101562 195.56805419921875 192.39700317382812 C194.47030639648438 192.53482055664062 193.2527618408203 192.6431121826172 191.98141479492188 192.6479034423828 C190.71006774902344 192.65269470214844 189.3849334716797 192.55398559570312 188.07200622558594 192.2777862548828 C186.7590789794922 192.0015869140625 185.45835876464844 191.5478973388672 184.23587036132812 190.8427276611328 C183.0133819580078 190.1375732421875 181.86911010742188 189.1809539794922 180.86907958984375 187.89886474609375 C179.86904907226562 186.61679077148438 179.0132293701172 185.00926208496094 178.36766052246094 183.00230407714844 C177.7220916748047 180.99533081054688 177.28677368164062 178.58892822265625 177.127685546875 175.70912170410156 C177.033935546875 174.47711181640625 176.6480255126953 173.2762451171875 176.0526580810547 172.1331024169922 C175.45730590820312 170.98995971679688 174.6525115966797 169.90455627441406 173.7209930419922 168.9035186767578 C172.7894744873047 167.9024658203125 171.73123168945312 166.9857940673828 170.6289825439453 166.1800994873047 C169.52674865722656 165.3743896484375 168.3804931640625 164.6796875 167.27297973632812 164.12255859375 C166.53250122070312 163.75328063964844 165.58010864257812 163.1136016845703 164.507568359375 162.26113891601562 C163.43502807617188 161.40867614746094 162.2423553466797 160.34344482421875 161.0213165283203 159.12306213378906 C159.80026245117188 157.90267944335938 158.55084228515625 156.52713012695312 157.3648223876953 155.0540771484375 C156.1787872314453 153.5810089111328 155.05615234375 152.01040649414062 154.08868408203125 150.39990234375 C153.1212158203125 148.78939819335938 152.3089141845703 147.13900756835938 151.74354553222656 145.50631713867188 C151.1781768798828 143.87362670898438 150.8597412109375 142.2586669921875 150.8800048828125 140.7190399169922 C150.54400634765625 141.15199279785156 150.40704345703125 142.07672119140625 150.36375427246094 143.32241821289062 C150.32044982910156 144.568115234375 150.37081909179688 146.13479614257812 150.40945434570312 147.85166931152344 C150.44808959960938 149.56854248046875 150.4750213623047 151.43563842773438 150.3848419189453 153.28213500976562 C150.294677734375 155.12864685058594 150.08740234375 156.95455932617188 149.65765380859375 158.58912658691406 C149.311279296875 159.8942108154297 148.6153106689453 161.29811096191406 147.72247314453125 162.75540161132812 C146.8296356201172 164.21267700195312 145.7399139404297 165.7233428955078 144.60604858398438 167.24195861816406 C143.47218322753906 168.76055908203125 142.29415893554688 170.28712463378906 141.2246856689453 171.77618408203125 C140.1552276611328 173.2652587890625 139.1943359375 174.7168426513672 138.49472045898438 176.08551025390625 C137.79510498046875 177.45416259765625 137.35678100585938 178.73989868164062 137.33245849609375 179.89727783203125 C137.3020782470703 181.343994140625 137.19456481933594 183.11463928222656 136.9752960205078 184.94528198242188 C136.7560272216797 186.7759246826172 136.42498779296875 188.66656494140625 135.94754028320312 190.353271484375 C135.4700927734375 192.0399932861328 134.84625244140625 193.52279663085938 134.04135131835938 194.53775024414062 C133.23648071289062 195.55270385742188 132.25054931640625 196.09982299804688 131.0489501953125 195.91519165039062 C129.84735107421875 195.72767639160156 129.00064086914062 194.86358642578125 128.43917846679688 193.61126708984375 C127.87772369384766 192.35894775390625 127.60152435302734 190.7183837890625 127.54096221923828 188.9779052734375 C127.48040771484375 187.2374267578125 127.63548278808594 185.39703369140625 127.93658447265625 183.74502563476562 C128.23768615722656 182.09303283691406 128.68479919433594 180.6294403076172 129.20831298828125 179.64256286621094 C129.5573272705078 178.9867706298828 130.095703125 178.09120178222656 130.74221801757812 177.00303649902344 C131.3887481689453 175.9148712158203 132.14340209960938 174.6341094970703 132.92498779296875 173.20794677734375 C133.70657348632812 171.7817840576172 134.51507568359375 170.21023559570312 135.26925659179688 168.54046630859375 C136.02345275878906 166.87071228027344 136.72332763671875 165.1027374267578 137.2876739501953 163.2837677001953 C137.85202026367188 161.46478271484375 138.28082275390625 159.5948028564453 138.49285888671875 157.72100830078125 C138.70489501953125 155.84719848632812 138.70016479492188 153.96957397460938 138.3974609375 152.13534545898438 C137.9465789794922 149.3839874267578 137.44418334960938 147.08438110351562 136.94419860839844 145.18263244628906 C136.44422912597656 143.28086853027344 135.94667053222656 141.77694702148438 135.50547790527344 140.61695861816406 C135.06427001953125 139.4569549560547 134.679443359375 138.640869140625 134.4049072265625 138.1147918701172 C134.13037109375 137.58871459960938 133.96612548828125 137.35263061523438 133.96612548828125 137.35263061523438 C133.96612548828125 137.35263061523438 133.77914428710938 137.90821838378906 133.4452362060547 138.85472106933594 C133.11134338378906 139.8012237548828 132.63052368164062 141.13864135742188 132.0428924560547 142.7022705078125 C131.4552459716797 144.2659149169922 130.76077270507812 146.0557861328125 129.99954223632812 147.90719604492188 C129.23831176757812 149.75860595703125 128.4103240966797 151.67156982421875 127.5556640625 153.48138427734375 C126.70100402832031 155.29119873046875 125.81965637207031 156.99789428710938 124.95171356201172 158.436767578125 C124.08377075195312 159.8756561279297 123.22923278808594 161.04672241210938 122.42816162109375 161.7852783203125 C121.74153137207031 162.4183349609375 120.97212219238281 163.08424377441406 120.11054229736328 163.75746154785156 C119.24896240234375 164.43067932128906 118.29521942138672 165.1112060546875 117.23992156982422 165.7734832763672 C116.18462371826172 166.43576049804688 115.02777099609375 167.0797882080078 113.75997924804688 167.68002319335938 C112.4921875 168.28024291992188 111.11345672607422 168.836669921875 109.6144027709961 169.32373046875 C108.11534881591797 169.810791015625 106.4959716796875 170.22850036621094 104.74688720703125 170.55130004882812 C102.997802734375 170.87408447265625 101.11901092529297 171.1019744873047 99.10111999511719 171.20938110351562 C97.08323669433594 171.31678771972656 94.92625427246094 171.30374145507812 92.62078857421875 171.1446533203125 C91.72799682617188 171.29888916015625 90.60360717773438 171.59921264648438 89.35582733154297 172.07852172851562 C88.1080551147461 172.55784606933594 86.73689270019531 173.21615600585938 85.35057830810547 174.08639526367188 C83.96426391601562 174.95663452148438 82.56278228759766 176.03878784179688 81.25435638427734 177.3657989501953 C79.94593811035156 178.6927947998047 78.73057556152344 180.26463317871094 77.71649169921875 182.11422729492188 C76.90560913085938 183.58558654785156 76.07521057128906 184.59774780273438 75.25457763671875 185.25758361816406 C74.4339370727539 185.9174346923828 73.62306213378906 186.22494506835938 72.85122680664062 186.2870330810547 C71.84321594238281 186.36831665039062 70.75617218017578 186.0259246826172 69.82432556152344 185.43536376953125 C68.89248657226562 184.8448028564453 68.1158447265625 184.00607299804688 67.7286376953125 183.0947265625 C67.34002685546875 182.17977905273438 67.29850006103516 181.0841522216797 67.54792785644531 179.87823486328125 C67.79735565185547 178.6723175048828 68.33773040771484 177.35610961914062 69.11292266845703 176.00003051757812 C69.88811492919922 174.64395141601562 70.89811706542969 173.24798583984375 72.08679962158203 171.8825225830078 C73.27548217773438 170.51707458496094 74.64283752441406 169.18214416503906 76.13273620605469 167.9481201171875 C77.62263488769531 166.71409606933594 79.23507690429688 165.58099365234375 80.91390991210938 164.61920166015625 C82.7549819946289 163.56427001953125 84.50460052490234 162.81362915039062 86.18002319335938 162.26438903808594 C87.8554458618164 161.71514892578125 89.4566650390625 161.36732482910156 91.00093841552734 161.11802673339844 C92.54521179199219 160.8687286376953 94.03253936767578 160.7179718017578 95.48017120361328 160.56288146972656 C96.92780303955078 160.4077911376953 98.33573150634766 160.24835205078125 99.7212142944336 159.98171997070312 C101.10670471191406 159.71507263183594 102.46974182128906 159.34121704101562 103.82758331298828 158.7572784423828 C105.1854248046875 158.17333984375 106.53807067871094 157.37930297851562 107.90277099609375 156.27232360839844 C109.10211944580078 155.2995147705078 110.1314697265625 154.23056030273438 111.01657104492188 153.1134490966797 C111.90166473388672 151.99635314941406 112.64250946044922 150.83111572265625 113.26482391357422 149.66575622558594 C113.88714599609375 148.50039672851562 114.39093780517578 147.3349151611328 114.80195617675781 146.21734619140625 C115.21296691894531 145.09976196289062 115.53119659423828 144.03009033203125 115.78237915039062 143.0563201904297 C114.98014068603516 143.579833984375 114.02438354492188 144.16543579101562 112.91108703613281 144.7204132080078 C111.79779052734375 145.275390625 110.52694702148438 145.79974365234375 109.09455108642578 146.20079040527344 C107.66215515136719 146.60183715820312 106.06819915771484 146.87954711914062 104.30867004394531 146.94125366210938 C102.54914093017578 147.00296020507812 100.62403106689453 146.8486328125 98.52932739257812 146.38560485839844 C96.85379791259766 146.01747131347656 95.21308135986328 145.65374755859375 93.61980438232422 145.3625946044922 C92.02652740478516 145.07144165039062 90.48068237304688 144.8528594970703 88.99488830566406 144.77500915527344 C87.50909423828125 144.69715881347656 86.0833511352539 144.7600555419922 84.73026275634766 145.0318603515625 C83.37718200683594 145.30364990234375 82.09676361083984 145.78436279296875 80.90162658691406 146.54214477539062 C79.70648193359375 147.2999267578125 78.59661865234375 148.33477783203125 77.58465576171875 149.71487426757812 C76.7432632446289 150.86495971679688 75.85408782958984 152.09713745117188 74.90278625488281 153.34693908691406 C73.95148468017578 154.59674072265625 72.93805694580078 155.8641815185547 71.84815979003906 157.08477783203125 C70.75826263427734 158.3053741455078 69.59190368652344 159.47914123535156 68.33473205566406 160.54159545898438 C67.07756042480469 161.6040496826172 65.72957611083984 162.55519104003906 64.27644348144531 163.33056640625 C62.82331085205078 164.10594177246094 61.26502990722656 164.70553588867188 59.587257385253906 165.0648956298828 C57.90948486328125 165.42425537109375 56.112220764160156 165.54336547851562 54.181121826171875 165.35775756835938 C52.251953125 165.174072265625 50.462730407714844 164.57945251464844 48.823246002197266 163.6954345703125 C47.18376159667969 162.81141662597656 45.69401931762695 161.63803100585938 44.36381149291992 160.2968292236328 C43.033607482910156 158.95562744140625 41.862937927246094 157.4466094970703 40.861602783203125 155.891357421875 C39.860267639160156 154.3361053466797 39.02826690673828 152.734619140625 38.37539291381836 151.2084503173828 C37.7225227355957 149.68228149414062 37.248779296875 148.23146057128906 36.963966369628906 146.9775390625 C36.67914962768555 145.72360229492188 36.58325958251953 144.66656494140625 36.68609619140625 143.92800903320312 C36.89175033569336 142.44703674316406 37.49434280395508 141.22691345214844 38.34809875488281 140.39553833007812 C39.20185852050781 139.56414794921875 40.30678176879883 139.1215057373047 41.517093658447266 139.1955108642578 C42.7274055480957 139.26951599121094 44.04310607910156 139.86016845703125 45.31842041015625 141.09535217285156 C46.0810432434082 141.8339080810547 46.67613983154297 142.92263793945312 47.223026275634766 144.17117309570312 C47.76991271972656 145.41970825195312 48.26858901977539 146.8280487060547 48.838375091552734 148.20587158203125 C49.40815734863281 149.5836944580078 50.049049377441406 150.9309844970703 50.88036346435547 152.0574188232422 C51.71167755126953 153.18385314941406 52.73341369628906 154.08941650390625 54.06489181518555 154.58377075195312 C55.396366119384766 155.078125 57.03758239746094 155.16127014160156 59.10784912109375 154.6428680419922 C60.41754150390625 154.31494140625 61.438926696777344 153.7163543701172 62.29127502441406 152.91384887695312 C63.143619537353516 152.11134338378906 63.82692337036133 151.1049041748047 64.46044921875 149.9612579345703 C65.09397888183594 148.81759643554688 65.677734375 147.53672790527344 66.33097076416016 146.1853485107422 C66.98420715332031 144.833984375 67.70693969726562 143.412109375 68.61842346191406 141.98643493652344 C69.5299072265625 140.56077575683594 70.63014221191406 139.13131713867188 72.03839111328125 137.76480102539062 C72.2147216796875 137.59359741210938 72.75480651855469 137.0800018310547 73.60282897949219 136.40126037597656 C74.45085144042969 135.72251892089844 75.6068115234375 134.87863159179688 77.01488494873047 134.046875 C78.42295837402344 133.21511840820312 80.08316040039062 132.39547729492188 81.93965911865234 131.76522827148438 C83.79615783691406 131.1349639892578 85.84895324707031 130.694091796875 88.042236328125 130.61984252929688 C90.36639404296875 130.54144287109375 92.36279296875 130.89120483398438 94.14077758789062 131.41909790039062 C95.91876220703125 131.94699096679688 97.47832489013672 132.6530303955078 98.9288101196289 133.28720092773438 C100.37928771972656 133.92135620117188 101.72069549560547 134.483642578125 103.0623550415039 134.72401428222656 C104.40401458740234 134.96438598632812 105.74593353271484 134.88287353515625 107.19744873046875 134.22943115234375 C108.36822509765625 133.70249938964844 109.37630462646484 132.90875244140625 110.21276092529297 131.96401977539062 C111.04922485351562 131.019287109375 111.71406555175781 129.92356872558594 112.19837188720703 128.79266357421875 C112.68267822265625 127.66175842285156 112.9864501953125 126.49568176269531 113.10076904296875 125.41023254394531 C113.2313461303711 124.16703033447266 113.17279815673828 122.96703338623047 112.92962646484375 121.79215240478516 C112.68645477294922 120.61727142333984 112.25865936279297 119.46751403808594 111.65074157714844 118.32479858398438 C111.04283142089844 117.18208312988281 110.25479125976562 116.04640197753906 109.2911376953125 114.89967346191406 C108.32747650146484 113.75296020507812 107.18820190429688 112.59519958496094 105.8778076171875 111.40831756591797 C104.61871337890625 110.2675552368164 103.41535186767578 109.09255981445312 102.2749252319336 107.88638305664062 C101.1344985961914 106.6801986694336 100.05699920654297 105.44283294677734 99.04962921142578 104.17731475830078 C98.0422592163086 102.91179656982422 97.10501098632812 101.61812591552734 96.24508666992188 100.29934692382812 C95.38516235351562 98.9805679321289 94.60255432128906 97.63667297363281 93.90447235107422 96.27071380615234 C93.20638275146484 94.90475463867188 92.59281158447266 93.5167236328125 92.07095336914062 92.10965728759766 C91.5490951538086 90.70259094238281 91.11894989013672 89.27650451660156 90.7877197265625 87.83441925048828 C90.45648193359375 86.392333984375 90.22415161132812 84.93424987792969 90.09793090820312 83.46322631835938 C89.97171020507812 81.99219512939453 89.95158386230469 80.50820922851562 90.04476165771484 79.01431274414062 C90.137939453125 77.52041625976562 90.34442138671875 76.0166015625 90.67138671875 74.50592041015625 C90.88320922851562 73.51904296875 91.14656829833984 72.52639770507812 91.46592712402344 71.53071594238281 C91.78529357910156 70.5350341796875 92.16065979003906 69.53630828857422 92.59649658203125 68.53727722167969 C93.04833984375 67.48383331298828 93.56218719482422 66.42911529541016 94.14065551757812 65.37397003173828 C94.7191162109375 64.3188247680664 95.36219787597656 63.26325225830078 96.07250213623047 62.208106994628906 C96.78280639648438 61.15296173095703 97.56034851074219 60.098243713378906 98.40771484375 59.0447998046875 C99.35435485839844 57.86663818359375 100.41651916503906 56.76211166381836 101.57735443115234 55.732757568359375 C102.7381820678711 54.703399658203125 103.99767303466797 53.74921417236328 105.33893585205078 52.87173080444336 C106.68020629882812 51.99424743652344 108.1032485961914 51.19346618652344 109.59120178222656 50.47092056274414 C111.07915496826172 49.748374938964844 112.63200378417969 49.104068756103516 114.2328872680664 48.53953552246094 C115.8337631225586 47.974998474121094 117.482666015625 47.490234375 119.1627197265625 47.08677673339844 C120.8427734375 46.683319091796875 122.55397033691406 46.36116409301758 124.2794418334961 46.121849060058594 C126.00491333007812 45.88253402709961 127.7446517944336 45.72605895996094 129.48178100585938 45.653961181640625 C131.2189178466797 45.58185958862305 132.95343017578125 45.59413146972656 134.66847229003906 45.69231414794922 C136.38351440429688 45.79049301147461 138.07907104492188 45.97458267211914 139.73826599121094 46.24610900878906 C141.3974609375 46.51763916015625 143.02029418945312 46.876609802246094 144.58987426757812 47.324554443359375 C146.1594696044922 47.77250289916992 147.67581176757812 48.30942153930664 149.12205505371094 48.93685531616211 C150.5682830810547 49.56428527832031 151.94439697265625 50.2822265625 153.2335205078125 51.09221267700195 C154.52264404296875 51.902198791503906 155.72476196289062 52.80422592163086 156.82301330566406 53.79983139038086 C157.9212646484375 54.79543685913086 158.9156494140625 55.884620666503906 159.78929138183594 57.06892013549805 C160.6629180908203 58.25321578979492 161.41580200195312 59.532623291015625 162.03103637695312 60.90867614746094 C162.6462860107422 62.28472900390625 163.1239013671875 63.75743103027344 163.447021484375 65.32830810546875 C163.9651641845703 67.84172058105469 164.3206024169922 70.13333129882812 164.54029846191406 72.23826599121094 C164.760009765625 74.34320068359375 164.84397888183594 76.26145935058594 164.8192138671875 78.02816009521484 C164.79444885253906 79.79486083984375 164.66094970703125 81.4100112915039 164.44569396972656 82.90872192382812 C164.23043823242188 84.40744018554688 163.9334259033203 85.78971862792969 163.58163452148438 87.09069061279297 C163.2298583984375 88.39166259765625 162.82330322265625 89.61132049560547 162.3889617919922 90.78479766845703 C161.95462036132812 91.95826721191406 161.4925079345703 93.08555603027344 161.0295867919922 94.20176696777344 C160.56668090820312 95.31798553466797 160.10296630859375 96.42313385009766 159.66543579101562 97.55233764648438 C159.22792053222656 98.6815414428711 158.81658935546875 99.83480834960938 158.45843505859375 101.0472412109375 C158.10028076171875 102.25967407226562 157.79530334472656 103.53129577636719 157.57049560546875 104.89720153808594 C157.34567260742188 106.26312255859375 157.20101928710938 107.72332763671875 157.16351318359375 109.3129653930664 C157.11158752441406 111.58222198486328 157.2783203125 113.50209045410156 157.640380859375 115.12897491455078 C158.00242614746094 116.75586700439453 158.55978393554688 118.08977508544922 159.28907775878906 119.18711853027344 C160.01837158203125 120.28446197509766 160.9196014404297 121.1452407836914 161.96942138671875 121.82585144042969 C163.01922607421875 122.5064697265625 164.21762084960938 123.00692749023438 165.54122924804688 123.38363647460938 C166.8648223876953 123.76034545898438 168.3136444091797 124.0133056640625 169.8643035888672 124.19892883300781 C171.4149627685547 124.38455200195312 173.06747436523438 124.5028305053711 174.79844665527344 124.61017608642578 C176.52943420410156 124.717529296875 178.33889770507812 124.81394958496094 180.2034912109375 124.95584106445312 C182.06973266601562 125.09590911865234 183.69952392578125 125.58635711669922 185.15916442871094 126.31752014160156 C186.6188201904297 127.04867553710938 187.9083251953125 128.02053833007812 189.0940399169922 129.12342834472656 C190.2797393798828 130.22633361816406 191.36163330078125 131.46026611328125 192.40603637695312 132.71554565429688 C193.450439453125 133.97084045410156 194.45736694335938 135.24749755859375 195.4931182861328 136.4358367919922 C196.5288848876953 137.62417602539062 197.59347534179688 138.7241973876953 198.75323486328125 139.62623596191406 C199.91299438476562 140.52828979492188 201.1679229736328 141.23233032226562 202.58433532714844 141.6287384033203 C204.00074768066406 142.02513122558594 205.57864379882812 142.11386108398438 207.38436889648438 141.7852783203125 C209.9146728515625 141.3252410888672 211.7946319580078 140.3794708251953 213.138427734375 139.15272521972656 C214.4822235107422 137.92596435546875 215.2898406982422 136.41822814941406 215.67547607421875 134.83425903320312 C216.0611114501953 133.2502899169922 216.02474975585938 131.59007263183594 215.6805877685547 130.05838012695312 C215.33642578125 128.52667236328125 214.68443298339844 127.12348937988281 213.83880615234375 126.0535659790039 C212.99319458007812 124.983642578125 211.95391845703125 124.24697875976562 210.835205078125 124.0483169555664 C209.23904418945312 123.76544952392578 207.69662475585938 123.9228744506836 206.61376953125 124.20703125 C204.76609802246094 124.69087219238281 203.70401000976562 125.51904296875 202.79713439941406 126.22672271728516 C201.8902587890625 126.93440246582031 201.13858032226562 127.52159881591797 199.91171264648438 127.52351379394531 C198.88131713867188 127.52543640136719 197.8864288330078 127.11359405517578 197.04226684570312 126.48287963867188 C196.19808959960938 125.85215759277344 195.50465393066406 125.0025634765625 195.0771484375 124.12896728515625 C194.4806365966797 122.90975952148438 194.36351013183594 121.56511688232422 194.57102966308594 120.32127380371094 C194.778564453125 119.07743072509766 195.31072998046875 117.93438720703125 196.0128173828125 117.11839294433594 C196.78945922851562 116.2153549194336 197.85153198242188 115.62239074707031 199.0813751220703 115.28181457519531 C200.31121826171875 114.94123077392578 201.7088165283203 114.85303497314453 203.156494140625 114.95951080322266 C204.6041717529297 115.06599426269531 206.1019287109375 115.36714935302734 207.53208923339844 115.80529022216797 C208.96224975585938 116.24343872070312 210.32479858398438 116.81855773925781 211.5020751953125 117.47296142578125 C212.4580535888672 118.00470733642578 213.4579620361328 118.68211364746094 214.443115234375 119.48442840576172 C215.4282684326172 120.2867431640625 216.39866638183594 121.21397399902344 217.2956085205078 122.245361328125 C218.1925506591797 123.27674865722656 219.0160369873047 124.41230010986328 219.70736694335938 125.63126373291016 C220.39869689941406 126.85022735595703 220.9578857421875 128.15260314941406 221.32620239257812 129.5176544189453 C221.6945343017578 130.8826904296875 221.87200927734375 132.31039428710938 221.79994201660156 133.78001403808594 C221.72787475585938 135.2496337890625 221.40625 136.76116943359375 220.77639770507812 138.29388427734375 C220.1465301513672 139.82656860351562 219.20843505859375 141.38043212890625 217.90338134765625 142.93472290039062"></path>
<path fill="#FB627E" fill-opacity="1.0"  filling="0" d="M135.51361083984375 52.05854797363281 C135.51361083984375 52.990386962890625 134.05313110351562 53.74560546875 132.25091552734375 53.74560546875 C130.44863891601562 53.74560546875 128.9881591796875 52.990386962890625 128.9881591796875 52.05854797363281 C128.9881591796875 51.126708984375 130.44863891601562 50.37152099609375 132.25091552734375 50.37152099609375 C134.05313110351562 50.37022399902344 135.51361083984375 51.126708984375 135.51361083984375 52.05854797363281"></path>
<path fill="#FB627E" fill-opacity="1.0"  filling="0" d="M142.60098266601562 58.82719421386719 C142.60098266601562 59.76927185058594 141.83682250976562 60.53343200683594 140.89471435546875 60.53343200683594 C139.95266723632812 60.53343200683594 139.1884765625 59.76927185058594 139.1884765625 58.82719421386719 C139.1884765625 57.88511657714844 139.95266723632812 57.120941162109375 140.89471435546875 57.120941162109375 C141.83682250976562 57.120941162109375 142.60098266601562 57.88511657714844 142.60098266601562 58.82719421386719"></path>
<path fill="#FB627E" fill-opacity="1.0"  filling="0" d="M96.37249755859375 71.61183166503906 C96.37249755859375 72.46559143066406 95.90017700195312 73.24031066894531 95.13729858398438 73.80158996582031 C94.3744125366211 74.36286926269531 93.32096862792969 74.71070861816406 92.15872192382812 74.71070861816406 C91.62625122070312 74.71070861816406 91.129638671875 74.63774108886719 90.67007446289062 74.504638671875 C90.88191223144531 73.51775360107422 91.14527130126953 72.52511596679688 91.46463012695312 71.52943420410156 C91.78399658203125 70.53375244140625 92.15936279296875 69.5350341796875 92.59521484375 68.53599548339844 C93.6544189453125 68.6153564453125 94.59873962402344 68.98495483398438 95.27825927734375 69.53439331054688 C95.95777893066406 70.08383178710938 96.37249755859375 70.8131103515625 96.37249755859375 71.61183166503906"></path>
<path fill="#FB627E" fill-opacity="1.0"  filling="0" d="M97.37600708007812 82.41503143310547 C97.37600708007812 83.99967956542969 96.26751708984375 85.28350830078125 94.90048217773438 85.28350830078125 C93.533447265625 85.28350830078125 92.42498779296875 83.99967956542969 92.42498779296875 82.41503143310547 C92.42498779296875 80.83038330078125 93.533447265625 79.54655456542969 94.90048217773438 79.54655456542969 C96.26751708984375 79.54655456542969 97.37600708007812 80.83038330078125 97.37600708007812 82.41503143310547"></path>
<path fill="#FB627E" fill-opacity="1.0"  filling="0" d="M103.11297607421875 92.25823974609375 C103.11297607421875 93.00446319580078 102.20672607421875 93.60862731933594 101.0880126953125 93.60862731933594 C99.96929931640625 93.60862731933594 99.06304931640625 93.00446319580078 99.06304931640625 92.25823974609375 C99.06304931640625 91.5119857788086 99.96929931640625 90.90782165527344 101.0880126953125 90.90782165527344 C102.20672607421875 90.90911865234375 103.11297607421875 91.51327514648438 103.11297607421875 92.25823974609375"></path>
<path fill="#231F20" fill-opacity="1.0"  filling="0" d="M134.57534790039062 75.75904083251953 C134.57534790039062 76.80480194091797 133.72802734375 77.65216827392578 132.68096923828125 77.65216827392578 C131.63519287109375 77.65216827392578 130.787841796875 76.80480194091797 130.787841796875 75.75904083251953 C130.787841796875 74.71327209472656 131.63519287109375 73.86592102050781 132.68096923828125 73.86592102050781 C133.72802734375 73.86463928222656 134.57534790039062 74.71327209472656 134.57534790039062 75.75904083251953"></path>
<path fill="#231F20" fill-opacity="1.0"  filling="0" d="M117.580810546875 77.65216827392578 C117.580810546875 78.69792175292969 116.73345947265625 79.54655456542969 115.68768310546875 79.54655456542969 C114.64190673828125 79.54655456542969 113.79327392578125 78.6991958618164 113.79327392578125 77.65216827392578 C113.79327392578125 76.60639953613281 114.640625 75.75904083251953 115.68768310546875 75.75904083251953 C116.73345947265625 75.75904083251953 117.580810546875 76.60639953613281 117.580810546875 77.65216827392578"></path>
<path fill="#F7487D" fill-opacity="1.0"  filling="0" d="M118.48321533203125 97.01472473144531 C119.63970947265625 97.15360260009766 120.72034454345703 97.24959564208984 121.74657440185547 97.2980728149414 C122.7728042602539 97.3465576171875 123.74462890625 97.34751892089844 124.68350219726562 97.29632568359375 C125.62110900878906 97.24127197265625 126.51071166992188 97.12383270263672 127.36975860595703 96.94559478759766 C128.2288055419922 96.7673568725586 129.0572967529297 96.5283203125 129.8726806640625 96.23007202148438 C130.6873779296875 95.92991638183594 131.4771270751953 95.57727813720703 132.24928283691406 95.1587142944336 C133.0214385986328 94.74015808105469 133.7760009765625 94.25567626953125 134.52032470703125 93.69183349609375 C135.27169799804688 93.12991333007812 136.01058959960938 92.50335693359375 136.75970458984375 91.8028793334961 C137.5088348388672 91.1023941040039 138.2681884765625 90.32798767089844 139.06048583984375 89.47038269042969 C139.2301025390625 90.64543151855469 139.1353759765625 91.83039093017578 138.8312225341797 92.97599792480469 C138.5270538330078 94.12159729003906 138.01344299316406 95.22783660888672 137.34527587890625 96.24544525146484 C136.67648315429688 97.26687622070312 135.81504821777344 98.1884765625 134.82562255859375 98.96031188964844 C133.836181640625 99.7321548461914 132.71875 100.35423278808594 131.5379638671875 100.7766342163086 C130.35650634765625 101.21440124511719 129.10113525390625 101.45600128173828 127.84849548339844 101.5025634765625 C126.59585571289062 101.54911804199219 125.34593200683594 101.400634765625 124.17535400390625 101.05823516845703 C123.01313781738281 100.70559692382812 121.90914916992188 100.19487762451172 120.93618774414062 99.5222396850586 C119.9632339477539 98.84959411621094 119.12130737304688 98.0150375366211 118.48321533203125 97.01472473144531"></path>
<path fill="#FFFFFF" fill-opacity="1.0"  filling="0" d="M104.099853515625 57.20799255371094 C103.40481567382812 58.43871307373047 102.71873474121094 59.64159393310547 102.0513687133789 60.8363151550293 C101.38400268554688 62.031036376953125 100.7353515625 63.21759796142578 100.11517333984375 64.41567993164062 L98.24639892578125 67.98429870605469 C97.61407470703125 69.16960144042969 97.0457763671875 70.39454650878906 96.5977783203125 71.664306640625 C96.147216796875 72.93278503417969 95.7645263671875 74.22943115234375 95.50338745117188 75.55167388916016 C95.22308349609375 76.87007141113281 95.01568603515625 78.2127914428711 94.95037841796875 79.56831359863281 C94.84095764160156 80.92510986328125 94.86912536621094 82.28990936279297 95.00352478027344 83.65231323242188 C95.13793182373047 85.01470947265625 95.37857055664062 86.37471008300781 95.694091796875 87.72190856933594 C95.710693359375 87.79102325439453 95.66973876953125 87.85758972167969 95.60321044921875 87.87296295166016 C95.5430908203125 87.88702392578125 95.48159790039062 87.853759765625 95.4598388671875 87.79615020751953 C94.9747314453125 86.48927307128906 94.51779174804688 85.15296173095703 94.2579345703125 83.76544952392578 C94.08892822265625 83.07807922363281 94.0159912109375 82.3753433227539 93.89694213867188 81.67647552490234 C93.83682250976562 80.97248077392578 93.73565673828125 80.26591491699219 93.7254638671875 79.55552673339844 C93.66464233398438 78.13407897949219 93.72608184814453 76.70527648925781 93.89728546142578 75.28702545166016 C94.06848907470703 73.86878204345703 94.34945678710938 72.46109771728516 94.72769165039062 71.08189392089844 C95.10015869140625 69.70079040527344 95.5174560546875 68.32479858398438 96.03713989257812 66.98591613769531 C96.55810546875 65.64701843261719 97.2198486328125 64.36575317382812 98.00701904296875 63.17022705078125 C98.79550170898438 61.97471618652344 99.68255615234375 60.84831237792969 100.66046142578125 59.80766296386719 C101.6461181640625 58.77471923828125 102.703369140625 57.80702209472656 103.92962646484375 57.035186767578125 C103.98846435546875 56.99809265136719 104.0653076171875 57.0159912109375 104.10238647460938 57.07487487792969 C104.12799072265625 57.11582946777344 104.12799072265625 57.164459228515625 104.10626220703125 57.20286560058594"></path></svg>