<svg xmlns="http://www.w3.org/2000/svg" viewBox="0.0 0.0 256.0 256.0" height="256.0px" width="256.0px"><path fill="#FFF9F5" fill-opacity="1.0"  filling="0" d="M137.74462890625 118.74783325195312 C139.5531768798828 119.29374694824219 141.2913360595703 119.70098114013672 142.9711456298828 119.99105072021484 C144.6509552001953 120.28112030029297 146.27239990234375 120.45401763916016 147.84750366210938 120.53125 C149.422607421875 120.60848236083984 150.9513702392578 120.59004974365234 152.44580078125 120.49745178222656 C153.9402313232422 120.40485382080078 155.4003448486328 120.23809051513672 156.838134765625 120.0186767578125 C158.27593994140625 119.79925537109375 159.69142150878906 119.52717590332031 161.09661865234375 119.22393798828125 C162.50181579589844 118.92070007324219 163.89671325683594 118.5863037109375 165.2933349609375 118.24226379394531 C166.68995666503906 117.8982162475586 168.0883026123047 117.54451751708984 169.50038146972656 117.20266723632812 C170.91246032714844 116.8608169555664 172.33828735351562 116.53082275390625 173.78985595703125 116.23417663574219 C175.24142456054688 115.93753051757812 176.71876525878906 115.67424011230469 178.23385620117188 115.46580505371094 C179.74896240234375 115.25736999511719 181.3018341064453 115.10379028320312 182.90447998046875 115.02656555175781 C184.50714111328125 114.94934844970703 186.1595916748047 114.948486328125 187.87384033203125 115.04549407958984 C189.5880889892578 115.14249420166016 191.36415100097656 115.33736419677734 193.21401977539062 115.65159606933594 C195.06390380859375 115.96582794189453 196.9875946044922 116.39942932128906 198.9971160888672 116.9738998413086 C201.00665283203125 117.54837036132812 203.10202026367188 118.26370239257812 205.29522705078125 119.14141845703125 C207.95932006835938 120.209228515625 210.44024658203125 121.34429931640625 212.74801635742188 122.5224838256836 C215.05577087402344 123.70066833496094 217.19036865234375 124.92198181152344 219.16177368164062 126.16228485107422 C221.1331787109375 127.402587890625 222.94142150878906 128.66189575195312 224.59646606445312 129.9160614013672 C226.2515106201172 131.17022705078125 227.75335693359375 132.4192657470703 229.1120147705078 133.63902282714844 C230.47067260742188 134.85879516601562 231.68614196777344 136.04930114746094 232.76840209960938 137.18641662597656 C233.8506622314453 138.3235321044922 234.79971313476562 139.40725708007812 235.62554931640625 140.41346740722656 C236.45138549804688 141.419677734375 237.15402221679688 142.34837341308594 237.74342346191406 143.1754150390625 C238.33282470703125 144.00245666503906 238.80902099609375 144.72784423828125 239.1819610595703 145.3274688720703 C239.55491638183594 145.92709350585938 239.82464599609375 146.4009246826172 240.00112915039062 146.724853515625 C240.1776123046875 147.04879760742188 240.2608642578125 147.2228240966797 240.2608642578125 147.2228240966797 C238.4517364501953 146.22328186035156 236.64584350585938 145.32778930664062 234.84661865234375 144.52890014648438 C233.04739379882812 143.73001098632812 231.25485229492188 143.02772521972656 229.4724578857422 142.4145965576172 C227.69004821777344 141.8014678955078 225.91778564453125 141.27748107910156 224.1591033935547 140.835205078125 C222.40042114257812 140.39292907714844 220.6553497314453 140.0323486328125 218.92730712890625 139.7460174560547 C217.1992645263672 139.45968627929688 215.48828125 139.2476043701172 213.7978057861328 139.10232543945312 C212.10733032226562 138.95704650878906 210.43734741210938 138.87855529785156 208.7913360595703 138.8594207763672 C207.14532470703125 138.8402862548828 205.5232696533203 138.8804931640625 203.9286346435547 138.9726104736328 C202.33399963378906 139.06472778320312 200.76678466796875 139.20872497558594 199.23043823242188 139.39718627929688 C197.694091796875 139.58563232421875 196.18862915039062 139.81854248046875 194.71749877929688 140.08843994140625 C193.24636840820312 140.35833740234375 191.8095703125 140.66522216796875 190.41055297851562 141.0016632080078 C189.01153564453125 141.33810424804688 187.65032958984375 141.70407104492188 186.33035278320312 142.09214782714844 C185.0103759765625 142.480224609375 183.7316436767578 142.890380859375 182.4976043701172 143.31520080566406 C181.26358032226562 143.74002075195312 180.07424926757812 144.17947387695312 178.93307495117188 144.62611389160156 C177.79190063476562 145.07275390625 176.69888305664062 145.52658081054688 175.657470703125 145.98016357421875 C172.92408752441406 147.1686248779297 170.3185577392578 148.0630645751953 167.86012268066406 148.7232208251953 C165.4016876220703 149.38339233398438 163.09034729003906 149.8092803955078 160.94537353515625 150.06065368652344 C158.80039978027344 150.31202697753906 156.82177734375 150.38888549804688 155.02877807617188 150.35096740722656 C153.23577880859375 150.31304931640625 151.6283721923828 150.16036987304688 150.22586059570312 149.95266723632812 C148.82333374023438 149.74497985839844 147.62567138671875 149.48226928710938 146.6521453857422 149.2242889404297 C145.67861938476562 148.96632385253906 144.92921447753906 148.7130889892578 144.42320251464844 148.52435302734375 C143.91717529296875 148.3356170654297 143.654541015625 148.21136474609375 143.654541015625 148.21136474609375 C143.0565948486328 149.55410766601562 142.34381103515625 150.8379669189453 141.52731323242188 152.0491943359375 C140.7108154296875 153.2604217529297 139.79058837890625 154.3990020751953 138.77777099609375 155.451171875 C137.76495361328125 156.50335693359375 136.6595458984375 157.46913146972656 135.47267150878906 158.33474731445312 C134.28578186035156 159.2003631591797 133.01742553710938 159.96580505371094 131.67872619628906 160.61732482910156 C130.34002685546875 161.26885986328125 128.93096923828125 161.80645751953125 127.46268463134766 162.21636962890625 C125.9944076538086 162.6262969970703 124.46690368652344 162.90853881835938 122.89129638671875 163.04931640625 C121.38826751708984 163.18392944335938 119.90437316894531 163.18348693847656 118.45146942138672 163.0580596923828 C116.99857330322266 162.93263244628906 115.57666778564453 162.68223571777344 114.19763946533203 162.31695556640625 C112.81861114501953 161.95166015625 111.48246002197266 161.47149658203125 110.20104217529297 160.8865203857422 C108.91963195800781 160.30154418945312 107.69296264648438 159.61178588867188 106.53290557861328 158.82730102539062 C105.37284851074219 158.04281616210938 104.27940368652344 157.16363525390625 103.26445007324219 156.1998291015625 C102.24949645996094 155.23602294921875 101.31303405761719 154.18759155273438 100.4669189453125 153.0646209716797 C99.53117370605469 154.18365478515625 98.50965118408203 155.23060607910156 97.41158294677734 156.19515991210938 C96.31350708007812 157.1597137451172 95.13888549804688 158.04188537597656 93.89693450927734 158.83135986328125 C92.65498352050781 159.62083435058594 91.34571838378906 160.31761169433594 89.97834777832031 160.91139221191406 C88.6109848022461 161.50518798828125 87.1855239868164 161.9959716796875 85.71119689941406 162.3734588623047 C84.23687744140625 162.75094604492188 82.71368408203125 163.01512145996094 81.15084838867188 163.15570068359375 C79.55113220214844 163.30007934570312 77.9706039428711 163.30923461914062 76.42047119140625 163.19261169433594 C74.8703384399414 163.07598876953125 73.35059356689453 162.83360290527344 71.87244415283203 162.47486877441406 C70.394287109375 162.1161346435547 68.95772552490234 161.6410675048828 67.57393646240234 161.05909729003906 C66.19015502929688 160.4771270751953 64.8591537475586 159.78826904296875 63.59213638305664 159.001953125 C62.32511901855469 158.21563720703125 61.1220817565918 157.33187866210938 59.994224548339844 156.360107421875 C58.866363525390625 155.38833618164062 57.813682556152344 154.32855224609375 56.84737777709961 153.190185546875 C55.88106918334961 152.05181884765625 55.001136779785156 150.83489990234375 54.21877670288086 149.548828125 C53.43641662597656 148.2627716064453 52.751625061035156 146.90757751464844 52.175601959228516 145.49270629882812 C51.599578857421875 144.07781982421875 51.13232421875 142.60324096679688 50.7850341796875 141.07843017578125 C49.564849853515625 141.5973358154297 48.226837158203125 141.94561767578125 46.84307861328125 142.06539916992188 C45.38276290893555 142.1971435546875 43.95738983154297 142.0883331298828 42.60612487792969 141.771484375 C41.254859924316406 141.4546356201172 39.977699279785156 140.9297637939453 38.81381607055664 140.2294158935547 C37.64992904663086 139.52906799316406 36.59931945800781 138.6532440185547 35.70114517211914 137.63450622558594 C34.80297088623047 136.61575317382812 34.0572395324707 135.4541015625 33.50311279296875 134.1820526123047 C32.94898223876953 132.91001892089844 32.586463928222656 131.52761840820312 32.4547119140625 130.0673828125 C32.30921936035156 128.38885498046875 32.4822998046875 126.75533294677734 32.92475128173828 125.22756958007812 C33.36720657348633 123.6998062133789 34.07903289794922 122.27778625488281 35.01103210449219 121.02226257324219 C35.943031311035156 119.76673889160156 37.0952033996582 118.67770385742188 38.41835021972656 117.81590270996094 C39.741493225097656 116.95409393310547 41.23561096191406 116.31951904296875 42.85150146484375 115.972900390625 C42.900726318359375 115.94294738769531 42.925994873046875 115.94059753417969 42.97760009765625 115.93626403808594 C42.5855712890625 114.98907470703125 42.26837158203125 114.00961303710938 42.02569580078125 112.99783325195312 C41.952392578125 112.74604797363281 41.902374267578125 112.46632385253906 41.854278564453125 112.21218872070312 C41.6182861328125 111.27763366699219 41.484710693359375 110.33360290527344 41.400390625 109.35964965820312 C41.25353240966797 107.73933410644531 41.274497985839844 106.14239501953125 41.448997497558594 104.58605194091797 C41.623497009277344 103.02970886230469 41.95153045654297 101.51396942138672 42.4188117980957 100.05604553222656 C42.88609313964844 98.59812927246094 43.492618560791016 97.19802856445312 44.224098205566406 95.87298583984375 C44.9555778503418 94.54793548583984 45.812015533447266 93.29794311523438 46.77912139892578 92.14021301269531 C47.74622344970703 90.98248291015625 48.823997497558594 89.91703033447266 49.998146057128906 88.96107482910156 C51.17229461669922 88.00511932373047 52.44281768798828 87.15866088867188 53.795433044433594 86.43892669677734 C55.148048400878906 85.71919250488281 56.58274841308594 85.12617492675781 58.08525085449219 84.6771011352539 C59.58774948120117 84.22802734375 61.158050537109375 83.92289733886719 62.7818603515625 83.77894592285156 C64.33815002441406 83.63760375976562 65.87092590332031 83.65321350097656 67.36608123779297 83.81207275390625 C68.86124420166016 83.97093963623047 70.31878662109375 84.2730484008789 71.72462463378906 84.70469665527344 C73.13046264648438 85.1363525390625 74.48458862304688 85.69754028320312 75.77290344238281 86.37454986572266 C77.06121826171875 87.05156707763672 78.28372955322266 87.84440612792969 79.42633056640625 88.73936462402344 C80.07476806640625 87.28378295898438 80.87246704101562 85.90615844726562 81.80142211914062 84.62744903564453 C82.73037719726562 83.34873962402344 83.79058837890625 82.16896057128906 84.96405029296875 81.10907745361328 C86.13750457763672 80.0491943359375 87.42420959472656 79.10920715332031 88.80615997314453 78.31009674072266 C90.1881103515625 77.510986328125 91.66529846191406 76.8527603149414 93.21971893310547 76.35638427734375 C94.77413940429688 75.8600082397461 96.40579223632812 75.52548217773438 98.0966796875 75.37379455566406 C99.69586944580078 75.22779083251953 101.27024841308594 75.25150299072266 102.80241394042969 75.4300308227539 C104.33458709716797 75.60855865478516 105.82454681396484 75.94189453125 107.2549057006836 76.41514587402344 C108.68526458740234 76.88839721679688 110.05601501464844 77.50155639648438 111.3497543334961 78.2397232055664 C112.64349365234375 78.97789001464844 113.86023712158203 79.841064453125 114.9825668334961 80.81434631347656 C116.10489654541016 81.78762817382812 117.13282012939453 82.87100982666016 118.04893493652344 84.04959106445312 C118.96504974365234 85.22817993164062 119.76936340332031 86.50196075439453 120.44446563720703 87.85604858398438 C121.11956787109375 89.21013641357422 121.66546630859375 90.64451599121094 122.06475830078125 92.14430236816406 C124.18694305419922 91.4366226196289 126.21003723144531 90.97781372070312 128.1262969970703 90.74030303955078 C130.0425567626953 90.50279235839844 131.8520050048828 90.48658752441406 133.546875 90.66412353515625 C135.24176025390625 90.84166717529297 136.8220672607422 91.21295166015625 138.2801055908203 91.75042724609375 C139.73812866210938 92.28790283203125 141.07388305664062 92.99156188964844 142.27960205078125 93.83385467529297 C143.48532104492188 94.6761474609375 144.56100463867188 95.65706634521484 145.49896240234375 96.74906158447266 C146.43690490722656 97.84104919433594 147.23709106445312 99.04411315917969 147.8917999267578 100.33069610595703 C148.5465087890625 101.61727142333984 149.05572509765625 102.98736572265625 149.4117431640625 104.41340637207031 C149.8004150390625 105.9934310913086 149.8519744873047 107.57523345947266 149.61236572265625 109.08382415771484 C149.3727569580078 110.59241485595703 148.8419952392578 112.02779388427734 148.06600952148438 113.31498718261719 C147.2900390625 114.6021728515625 146.26882934570312 115.74117279052734 145.04837036132812 116.65699768066406 C143.82791137695312 117.57282257080078 142.40818786621094 118.26547241210938 140.83514404296875 118.65995788574219 C139.7978515625 118.90582275390625 138.7430419921875 118.94560241699219 137.74462890625 118.74783325195312"></path>
<path fill="#E30F00" fill-opacity="1.0"  filling="0" d="M100.4669189453125 154.2281036376953 C100.18093872070312 154.2281036376953 99.8929443359375 154.1221160888672 99.66909790039062 153.91014099121094 C99.201416015625 153.46966552734375 99.18017578125 152.73406982421875 99.62225341796875 152.267578125 C100.49285125732422 151.3460235595703 101.22615814208984 150.32977294921875 101.81275177001953 149.2434844970703 C102.39935302734375 148.15719604492188 102.8392333984375 147.00088500976562 103.12299346923828 145.79920959472656 C103.40675354003906 144.5975341796875 103.53437805175781 143.35049438476562 103.4964599609375 142.08273315429688 C103.45913696289062 140.82115173339844 103.2589340209961 139.5901336669922 102.90664672851562 138.4136505126953 C102.55436706542969 137.2371826171875 102.05000305175781 136.115234375 101.40436553955078 135.07183837890625 C100.75872802734375 134.0284423828125 99.97181701660156 133.0635986328125 99.054443359375 132.20126342773438 C97.90634155273438 131.11671447753906 96.53720092773438 130.40966796875 95.10205841064453 130.07579040527344 C93.66691589355469 129.74191284179688 92.165771484375 129.78121948242188 90.75365447998047 130.18936157226562 C89.3415298461914 130.59751892089844 88.0184326171875 131.37452697753906 86.93939208984375 132.5160675048828 C85.98951721191406 133.5213623046875 85.53643798828125 134.8188934326172 85.5718002319336 136.1025848388672 C85.60716247558594 137.3862762451172 86.13096618652344 138.6561279296875 87.13485717773438 139.60606384277344 C87.60137939453125 140.04812622070312 87.62063598632812 140.7841033935547 87.18017578125 141.25021362304688 C86.73971557617188 141.71670532226562 86.00531005859375 141.7379913330078 85.53598022460938 141.29591369628906 C84.55652618408203 140.36883544921875 83.88924407958984 139.2336883544922 83.53784942626953 138.0232391357422 C83.18644714355469 136.8127899169922 83.15094757080078 135.52703857421875 83.43506622314453 134.29876708984375 C83.71917724609375 133.0705108642578 84.32292175292969 131.89971923828125 85.25 130.919189453125 C86.27832794189453 129.83067321777344 87.4813461303711 129.0026397705078 88.77582550048828 128.43739318847656 C90.07030487060547 127.87213897705078 91.45624542236328 127.56967163085938 92.85043334960938 127.53229522705078 C94.24461364746094 127.49491882324219 95.64704132080078 127.72262573242188 96.97447967529297 128.2177276611328 C98.30191802978516 128.7128143310547 99.55437469482422 129.47531127929688 100.64862060546875 130.50747680664062 C101.71701049804688 131.51217651367188 102.63331604003906 132.6360321044922 103.38510131835938 133.8511505126953 C104.13688659667969 135.06626892089844 104.72415161132812 136.37265014648438 105.13446807861328 137.7423858642578 C105.54478454589844 139.11212158203125 105.77815246582031 140.54522705078125 105.8221435546875 142.01377868652344 C105.8655014038086 143.48890686035156 105.71644592285156 144.94000244140625 105.38590240478516 146.33827209472656 C105.05535888671875 147.73654174804688 104.54331970214844 149.0819854736328 103.86071014404297 150.34580993652344 C103.17809295654297 151.60964965820312 102.32490539550781 152.79185485839844 101.31204223632812 153.86366271972656 C101.08282470703125 154.1051788330078 100.77548217773438 154.2281036376953 100.4669189453125 154.2281036376953"></path>
<path fill="#E30F00" fill-opacity="1.0"  filling="0" d="M60.84735107421875 129.56976318359375 C59.174110412597656 129.56976318359375 57.526546478271484 129.36215209960938 55.937374114990234 128.9659881591797 C54.348201751708984 128.56982421875 52.817420959472656 127.98509216308594 51.377742767333984 127.23084259033203 C49.93806457519531 126.47660064697266 48.5894889831543 125.5528335571289 47.36473083496094 124.47859954833984 C46.13997268676758 123.40436553955078 45.039031982421875 122.17965698242188 44.0946159362793 120.82353210449219 C43.150203704833984 119.46739959716797 42.36231994628906 117.97984313964844 41.763671875 116.37989807128906 C41.347198486328125 115.30191040039062 41.047393798828125 114.22236633300781 40.87799072265625 113.18534851074219 C40.834228515625 113.06439208984375 40.77947998046875 112.78269958496094 40.72943115234375 112.51911926269531 C40.608062744140625 111.88754272460938 41.013916015625 111.2354736328125 41.6455078125 111.11569213867188 C42.279815673828125 110.9915771484375 42.877899169921875 111.365478515625 42.996124267578125 111.99391174316406 C43.05084228515625 112.27836608886719 43.08831787109375 112.48561096191406 43.143035888671875 112.67514038085938 C43.31719970703125 113.68968200683594 43.574493408203125 114.61282348632812 43.936187744140625 115.55328369140625 C44.53333282470703 117.1490478515625 45.34181594848633 118.61817169189453 46.320777893066406 119.93692779541016 C47.299739837646484 121.25568389892578 48.44917678833008 122.42407989501953 49.72822952270508 123.41838836669922 C51.00728225708008 124.4126968383789 52.415950775146484 125.23291778564453 53.91337203979492 125.85533905029297 C55.41079330444336 126.47776794433594 56.99696350097656 126.90238189697266 58.63102722167969 127.10548400878906 C60.26508712768555 127.30857849121094 61.94703674316406 127.29015350341797 63.636016845703125 127.0264892578125 C65.12995910644531 126.79216003417969 66.50656127929688 126.26356506347656 67.71643829345703 125.50870513916016 C68.92630767822266 124.75385284423828 69.96944427490234 123.77273559570312 70.79645538330078 122.63336944580078 C71.62345886230469 121.49400329589844 72.23432922363281 120.19638061523438 72.57967376708984 118.80852508544922 C72.92501831054688 117.42066192626953 73.00482940673828 115.94255065917969 72.76971435546875 114.44221496582031 C72.63201904296875 113.58074188232422 72.330322265625 112.77156066894531 71.88653564453125 112.0498046875 C71.44275665283203 111.32804870605469 70.85688781738281 110.69371032714844 70.15084838867188 110.18191528320312 C69.4451904296875 109.66932678222656 68.66053771972656 109.30931091308594 67.83673095703125 109.11246490478516 C67.01293182373047 108.91561126708984 66.14997863769531 108.88191986083984 65.2877197265625 109.02197265625 C64.30819702148438 109.17327880859375 63.44970703125 109.70045471191406 62.863800048828125 110.50263977050781 C62.277984619140625 111.30638122558594 62.03875732421875 112.28744506835938 62.190093994140625 113.26260375976562 C62.28857421875 113.89851379394531 61.853973388671875 114.49186706542969 61.219696044921875 114.59036254882812 C60.588104248046875 114.69357299804688 59.992034912109375 114.2542724609375 59.891876220703125 113.61994934082031 C59.64678955078125 112.0301513671875 60.0345458984375 110.4376220703125 60.98480224609375 109.13389587402344 C61.937103271484375 107.82579040527344 63.336181640625 106.97200012207031 64.92440795898438 106.72537231445312 C66.093994140625 106.53921508789062 67.26319122314453 106.58580780029297 68.37939453125 106.85224914550781 C69.49560546875 107.11869049072266 70.55882263183594 107.60498046875 71.51644897460938 108.2982177734375 C72.47402954101562 108.99243927001953 73.26811218261719 109.85273742675781 73.86955261230469 110.83167266845703 C74.47098541259766 111.81060791015625 74.87977600097656 112.90819549560547 75.0667724609375 114.07699584960938 C75.29449462890625 115.53163146972656 75.27796936035156 116.96888732910156 75.04786682128906 118.34661102294922 C74.81775665283203 119.72433471679688 74.37406158447266 121.04252624511719 73.74744415283203 122.259033203125 C73.12081909179688 123.47554779052734 72.31127166748047 124.59037780761719 71.34944915771484 125.56138610839844 C70.38763427734375 126.53239440917969 69.27354431152344 127.35956573486328 68.037841796875 128.00076293945312 C66.80213928222656 128.6419677734375 65.44482421875 129.09719848632812 63.996551513671875 129.3242950439453 C62.94305419921875 129.4893798828125 61.88909912109375 129.56976318359375 60.84735107421875 129.56976318359375"></path>
<path fill="#E30F00" fill-opacity="1.0"  filling="0" d="M78.6016845703125 164.43382263183594 C76.94615173339844 164.43382263183594 75.31255340576172 164.29408264160156 73.71434783935547 164.0244140625 C72.11614227294922 163.75474548339844 70.55332946777344 163.35511779785156 69.03937530517578 162.83535766601562 C67.52542114257812 162.3155975341797 66.06033325195312 161.67568969726562 64.6575698852539 160.9254150390625 C63.25480651855469 160.17515563964844 61.91436767578125 159.3145294189453 60.649723052978516 158.3533477783203 C59.38507843017578 157.3921661376953 58.196224212646484 156.33042907714844 57.09663009643555 155.17791748046875 C55.99703598022461 154.02540588378906 54.98670196533203 152.78211975097656 54.0790901184082 151.45785522460938 C53.171478271484375 150.13360595703125 52.36659240722656 148.72836303710938 51.677894592285156 147.251953125 C50.989200592041016 145.77554321289062 50.41669464111328 144.22793579101562 49.973846435546875 142.61895751953125 C48.98681640625 142.9325714111328 47.971160888671875 143.13510131835938 46.942779541015625 143.2245330810547 C45.67146682739258 143.34312438964844 44.40589904785156 143.2919921875 43.174156188964844 143.07986450195312 C41.942413330078125 142.86773681640625 40.74449920654297 142.49459838867188 39.608497619628906 141.96920776367188 C38.47249984741211 141.4438018798828 37.398414611816406 140.76611328125 36.414337158203125 139.9449005126953 C35.42974853515625 139.12432861328125 34.57149887084961 138.19174194335938 33.85192108154297 137.17071533203125 C33.13234329223633 136.14968872070312 32.55143737792969 135.0402374267578 32.12152862548828 133.86595153808594 C31.69162368774414 132.691650390625 31.4127197265625 131.45254516601562 31.297149658203125 130.17218017578125 C31.149192810058594 128.46705627441406 31.306859970092773 126.79730987548828 31.72709846496582 125.22125244140625 C32.1473388671875 123.64519500732422 32.83014678955078 122.16281127929688 33.732479095458984 120.83240509033203 C34.63481140136719 119.50199890136719 35.75666046142578 118.32357025146484 37.05497741699219 117.35540771484375 C38.353294372558594 116.38723754882812 39.82807922363281 115.62934112548828 41.436279296875 115.13999938964844 C41.229034423828125 114.52967834472656 41.0469970703125 113.90440368652344 40.89453125 113.27008056640625 C40.811370849609375 112.98561096191406 40.7266845703125 112.66766357421875 40.696319580078125 112.31343078613281 C40.49658203125 111.58651733398438 40.34332275390625 110.62083435058594 40.2420654296875 109.46089172363281 C40.092933654785156 107.81674194335938 40.10637664794922 106.18251037597656 40.27663803100586 104.5767593383789 C40.4468994140625 102.97100067138672 40.77397918701172 101.39372253417969 41.25212097167969 99.86345672607422 C41.730262756347656 98.33319091796875 42.359466552734375 96.8499526977539 43.133975982666016 95.43228149414062 C43.908485412597656 94.01461029052734 44.82830047607422 92.66250610351562 45.887664794921875 91.39451599121094 C46.94701385498047 90.12614440917969 48.11427688598633 88.98013305664062 49.37226104736328 87.96544647216797 C50.630245208740234 86.95075988769531 51.97895431518555 86.06739044189453 53.401187896728516 85.32431030273438 C54.82342529296875 84.58123779296875 56.31918716430664 83.97843933105469 57.87128829956055 83.52490234375 C59.42339324951172 83.07136535644531 61.031829833984375 82.76707458496094 62.679412841796875 82.62100219726562 C64.12332916259766 82.4915771484375 65.56517028808594 82.49036407470703 66.99060821533203 82.61347198486328 C68.4160385131836 82.73657989501953 69.82506561279297 82.98399353027344 71.20333862304688 83.35181427001953 C72.58161163330078 83.71963500976562 73.92913818359375 84.20785522460938 75.23158264160156 84.81257629394531 C76.53402709960938 85.41728973388672 77.7913818359375 86.13849639892578 78.98931884765625 86.9722900390625 C79.73603057861328 85.534912109375 80.61972045898438 84.19135284423828 81.6206283569336 82.95574951171875 C82.62153625488281 81.72014617919922 83.73966217041016 80.59249877929688 84.95523834228516 79.58695220947266 C86.17080688476562 78.58140563964844 87.48382568359375 77.69795227050781 88.87452697753906 76.95073699951172 C90.26522064208984 76.20352172851562 91.73359680175781 75.5925521850586 93.25988006591797 75.1319580078125 C94.78616333007812 74.67135620117188 96.370361328125 74.36114501953125 97.99270629882812 74.21543884277344 C99.59598541259766 74.07315063476562 101.17903900146484 74.09090423583984 102.7248306274414 74.25682067871094 C104.27062225341797 74.42274475097656 105.77914428710938 74.73683166503906 107.23338317871094 75.18721008300781 C108.6876220703125 75.63758850097656 110.08756256103516 76.22425842285156 111.41618347167969 76.93534851074219 C112.74480438232422 77.64643859863281 114.0020980834961 78.48193359375 115.17103576660156 79.42997741699219 C116.33997344970703 80.37801361083984 117.4205551147461 81.43859100341797 118.395751953125 82.5998306274414 C119.37094116210938 83.76107025146484 120.24075317382812 85.0229721069336 120.9881362915039 86.3736572265625 C121.73552703857422 87.72434997558594 122.36048889160156 89.163818359375 122.84600830078125 90.68020629882812 C124.57843017578125 90.16505432128906 126.27420043945312 89.80322265625 127.92362213134766 89.59428405761719 C129.5730438232422 89.38534545898438 131.1761016845703 89.32929992675781 132.72311401367188 89.42572784423828 C134.27011108398438 89.52215576171875 135.7610626220703 89.77107238769531 137.18624877929688 90.17203521728516 C138.61143493652344 90.57300567626953 139.97085571289062 91.12603759765625 141.25482177734375 91.83070373535156 C142.41612243652344 92.4684829711914 143.49317932128906 93.21977996826172 144.4765167236328 94.07208251953125 C145.45985412597656 94.92438507080078 146.3494873046875 95.87767791748047 147.13589477539062 96.9194564819336 C147.9223175048828 97.96123504638672 148.60552978515625 99.09149169921875 149.1760711669922 100.29769897460938 C149.74661254882812 101.50391387939453 150.2044677734375 102.78607940673828 150.5401611328125 104.13168334960938 C150.87985229492188 105.51272583007812 150.9825439453125 106.89842987060547 150.87428283691406 108.24553680419922 C150.76602172851562 109.59264373779297 150.4468231201172 110.9011459350586 149.9427490234375 112.12779235839844 C149.4386749267578 113.35443878173828 148.74974060058594 114.49921417236328 147.90199279785156 115.51886749267578 C147.05422973632812 116.53852081298828 146.0476837158203 117.43304443359375 144.9084014892578 118.1591796875 C143.76910400390625 118.88531494140625 142.49710083007812 119.44305419921875 141.118408203125 119.78913879394531 C139.867919921875 120.08267211914062 138.66265869140625 120.11616516113281 137.5169677734375 119.88764953613281 C136.88690185546875 119.76356506347656 136.47836303710938 119.15206909179688 136.60409545898438 118.52047729492188 C136.72970581054688 117.89048767089844 137.34716796875 117.49412536621094 137.9708251953125 117.60758972167969 C138.78558349609375 117.76951599121094 139.66064453125 117.74508666992188 140.56884765625 117.52880859375 C141.97866821289062 117.17529296875 143.2527313232422 116.55001831054688 144.3490447998047 115.72248840332031 C145.4453582763672 114.89495849609375 146.36390686035156 113.86517333984375 147.06271362304688 112.70262908935547 C147.76150512695312 111.54008483886719 148.24057006835938 110.24479675292969 148.45787048339844 108.8862533569336 C148.6751708984375 107.5277099609375 148.63072204589844 106.10592651367188 148.28253173828125 104.69038391113281 C147.8878936767578 103.10979461669922 147.3033447265625 101.62897491455078 146.54859924316406 100.2742691040039 C145.79385375976562 98.9195556640625 144.8689422607422 97.69094848632812 143.7935791015625 96.61479187011719 C142.71820068359375 95.53863525390625 141.49240112304688 94.61492919921875 140.1358642578125 93.87001037597656 C138.92697143554688 93.20613098144531 137.6377410888672 92.69486999511719 136.27847290039062 92.3365478515625 C134.91920471191406 91.97822570800781 133.48989868164062 91.77284240722656 132.00086975097656 91.72071075439453 C130.5118408203125 91.6685791015625 128.96311950683594 91.76969909667969 127.364990234375 92.0243911743164 C125.7668685913086 92.2790756225586 124.11935424804688 92.68733215332031 122.43276977539062 93.24946594238281 C122.1297607421875 93.34916687011719 121.79522705078125 93.32197570800781 121.51394653320312 93.16909790039062 C121.23068237304688 93.01622009277344 121.02337646484375 92.75422668457031 120.94180297851562 92.4453125 C120.55467987060547 90.99146270751953 120.02770233154297 89.60871124267578 119.37821197509766 88.30919647216797 C118.72872924804688 87.00968933105469 117.95673370361328 85.79341888427734 117.07957458496094 84.67253875732422 C116.2024154663086 83.5516586303711 115.2200927734375 82.52616882324219 114.14994812011719 81.60820770263672 C113.07980346679688 80.69025421142578 111.92184448242188 79.87982940673828 110.69341278076172 79.18909454345703 C109.46498107910156 78.49835205078125 108.16607666015625 77.92729187011719 106.81404113769531 77.4880599975586 C105.46200561523438 77.048828125 104.05684661865234 76.74142456054688 102.61590576171875 76.57799530029297 C101.17495727539062 76.41456604003906 99.69822692871094 76.39511108398438 98.20306396484375 76.53176879882812 C96.65245056152344 76.67076873779297 95.14047241210938 76.97636413574219 93.68832397460938 77.4333724975586 C92.23617553710938 77.890380859375 90.8438491821289 78.49879455566406 89.53253173828125 79.2434310913086 C88.2212142944336 79.98806762695312 86.99089813232422 80.86892700195312 85.8627700805664 81.87081146240234 C84.7346420288086 82.87269592285156 83.70870208740234 83.99561309814453 82.8061294555664 85.224365234375 C81.903564453125 86.453125 81.12435913085938 87.7877197265625 80.48971557617188 89.21296691894531 C80.34274291992188 89.54116821289062 80.05511474609375 89.78228759765625 79.70681762695312 89.86819458007812 C79.35696411132812 89.95603942871094 78.990966796875 89.87725830078125 78.709228515625 89.65620422363281 C77.57492065429688 88.76675415039062 76.37303924560547 87.9952163696289 75.11972045898438 87.34617614746094 C73.86640167236328 86.6971435546875 72.5616455078125 86.17061614990234 71.22158813476562 85.77120208740234 C69.88153076171875 85.37178802490234 68.50616455078125 85.0994873046875 67.11163330078125 84.95890808105469 C65.71710968017578 84.81832122802734 64.30341339111328 84.80946350097656 62.886688232421875 84.93692016601562 C61.39353942871094 85.06939697265625 59.936065673828125 85.34514617919922 58.52975845336914 85.75606536865234 C57.12344741821289 86.16698455810547 55.76830291748047 86.71307373046875 54.47980499267578 87.38624572753906 C53.191307067871094 88.05941772460938 51.969459533691406 88.85966491699219 50.829742431640625 89.77890014648438 C49.690025329589844 90.69812774658203 48.6324462890625 91.73634338378906 47.6724853515625 92.88543701171875 C46.712989807128906 94.03413391113281 45.87982177734375 95.25891876220703 45.17823791503906 96.5431137084961 C44.47665023803711 97.82730865478516 43.90664291381836 99.17091369628906 43.47346496582031 100.55724334716797 C43.040287017822266 101.94357299804688 42.74393844604492 103.37262725830078 42.58966827392578 104.82772064208984 C42.435401916503906 106.2828140258789 42.42321014404297 107.76394653320312 42.558349609375 109.25444030761719 C42.647796630859375 110.29145812988281 42.782562255859375 111.14091491699219 42.9822998046875 111.92811584472656 C43.029205322265625 112.30833435058594 43.08673095703125 112.48051452636719 43.136749267578125 112.65505981445312 C43.38494873046875 113.67982482910156 43.687957763671875 114.61123657226562 44.0523681640625 115.49064636230469 C44.193450927734375 115.83262634277344 44.1646728515625 116.22190856933594 43.972412109375 116.53828430175781 C43.807342529296875 116.8089599609375 43.54217529296875 116.99966430664062 43.2364501953125 117.06939697265625 C43.191131591796875 117.0843505859375 43.144256591796875 117.09815979003906 43.09576416015625 117.10879516601562 C41.61286163330078 117.4267578125 40.245941162109375 118.01068115234375 39.03790283203125 118.80239868164062 C37.829864501953125 119.5941162109375 36.78071212768555 120.59361267089844 35.933345794677734 121.74270629882812 C35.08598327636719 122.89179992675781 34.440406799316406 124.19049072265625 34.03952407836914 125.58058166503906 C33.638641357421875 126.9706802368164 33.482452392578125 128.45217895507812 33.613861083984375 129.96690368652344 C33.759033203125 131.57559204101562 34.21240997314453 133.10736083984375 34.938934326171875 134.4949188232422 C35.66545867919922 135.88247680664062 36.665130615234375 137.1258544921875 37.90289306640625 138.15773010253906 C39.14044189453125 139.19020080566406 40.544647216796875 139.94863891601562 42.041786193847656 140.41342163085938 C43.53892517089844 140.87818908691406 45.128997802734375 141.04928588867188 46.73828125 140.90704345703125 C47.970672607421875 140.80105590820312 49.178741455078125 140.49807739257812 50.329559326171875 140.0079345703125 C50.6502685546875 139.87319946289062 51.009246826171875 139.88697814941406 51.313385009765625 140.0426025390625 C51.6207275390625 140.19981384277344 51.841766357421875 140.48468017578125 51.918914794921875 140.81918334960938 C52.297401428222656 142.48135375976562 52.82390213012695 144.07794189453125 53.482059478759766 145.5969696044922 C54.14021682739258 147.11599731445312 54.930030822753906 148.55746459960938 55.83514404296875 149.909423828125 C56.740257263183594 151.26138305664062 57.76066970825195 152.5238494873047 58.880027770996094 153.6848602294922 C59.99938201904297 154.8458709716797 61.217681884765625 155.90541076660156 62.5185661315918 156.85154724121094 C63.81945037841797 157.7976837158203 65.20291900634766 158.6304168701172 66.65262603759766 159.3377685546875 C68.10232543945312 160.04513549804688 69.61825561523438 160.62713623046875 71.18405151367188 161.0718231201172 C72.7498550415039 161.51651000976562 74.36553192138672 161.82388305664062 76.01471710205078 161.98199462890625 C77.66390991210938 162.14010620117188 79.34661865234375 162.14892578125 81.04647827148438 161.99655151367188 C82.50172424316406 161.86573791503906 83.92912292480469 161.62362670898438 85.31896209716797 161.27525329589844 C86.70880889892578 160.9268798828125 88.06110382080078 160.47222900390625 89.36616516113281 159.9163818359375 C90.67121887207031 159.36053466796875 91.92903900146484 158.7034912109375 93.12992858886719 157.95028686523438 C94.33081817626953 157.19708251953125 95.47477722167969 156.34771728515625 96.55210876464844 155.40725708007812 C97.62944030761719 154.466796875 98.64015197753906 153.4352264404297 99.57455444335938 152.31761169433594 C99.80184936523438 152.04653930664062 100.10919189453125 151.90904235839844 100.49490356445312 151.90115356445312 C100.8507080078125 151.91021728515625 101.18045043945312 152.08120727539062 101.39401245117188 152.36448669433594 C102.40565490722656 153.70652770996094 103.53496551513672 154.92233276367188 104.7611083984375 156.00282287597656 C105.98725128173828 157.08331298828125 107.31021881103516 158.02847290039062 108.70915985107422 158.8292236328125 C110.10810089111328 159.6299591064453 111.58302307128906 160.28627014160156 113.11307525634766 160.7890625 C114.64312744140625 161.29183959960938 116.22830200195312 161.64108276367188 117.84774780273438 161.8277130126953 C119.46720123291016 162.0143280029297 121.12092590332031 162.03831481933594 122.7880859375 161.89056396484375 C124.23340606689453 161.7613983154297 125.6486587524414 161.50311279296875 127.02011108398438 161.12550354003906 C128.39157104492188 160.74789428710938 129.71922302246094 160.2509765625 130.98936462402344 159.64453125 C132.25949096679688 159.0380859375 133.4720916748047 158.32212829589844 134.6134490966797 157.50645446777344 C135.75479125976562 156.69078063964844 136.8248748779297 155.775390625 137.80996704101562 154.7700958251953 C138.79507446289062 153.76480102539062 139.69517517089844 152.66958618164062 140.49656677246094 151.4942626953125 C141.29794311523438 150.31893920898438 142.0006103515625 149.06350708007812 142.5908203125 147.73777770996094 C143.11865234375 146.57955932617188 143.5489501953125 145.39476013183594 143.88108825683594 144.18692016601562 C144.21322631835938 142.97909545898438 144.4471893310547 141.7482147216797 144.5823516845703 140.49781799316406 C144.717529296875 139.2474365234375 144.75390625 137.9775390625 144.69085693359375 136.691650390625 C144.658935546875 136.04983520507812 145.1541748046875 135.50494384765625 145.79443359375 135.4730224609375 C146.4346923828125 135.44859313964844 146.98114013671875 135.93637084960938 147.0130615234375 136.5766143798828 C147.08123779296875 137.96795654296875 147.0382080078125 139.36094665527344 146.88723754882812 140.73886108398438 C146.7362518310547 142.1167755126953 146.47731018066406 143.47959899902344 146.1136474609375 144.81057739257812 C145.74996948242188 146.14157104492188 145.28158569335938 147.44070434570312 144.71173095703125 148.69125366210938 C144.06478881835938 150.14418029785156 143.29449462890625 151.52015686035156 142.41587829589844 152.8083953857422 C141.53726196289062 154.0966339111328 140.5503387451172 155.29714965820312 139.47015380859375 156.399169921875 C138.38995361328125 157.50119018554688 137.21649169921875 158.5047149658203 135.96481323242188 159.3989715576172 C134.71311950683594 160.29322814941406 133.38320922851562 161.07823181152344 131.9901123046875 161.74319458007812 C130.59701538085938 162.40817260742188 129.1407470703125 162.95309448242188 127.63633728027344 163.36724853515625 C126.13192749023438 163.7813720703125 124.57938385009766 164.06472778320312 122.99374389648438 164.2064971923828 C121.54889678955078 164.33592224121094 120.1132583618164 164.34735107421875 118.69813537597656 164.24578857421875 C117.28301239013672 164.14422607421875 115.88839721679688 163.9296875 114.52559661865234 163.607177734375 C113.16279602050781 163.28466796875 111.83179473876953 162.85418701171875 110.54389953613281 162.32077026367188 C109.2560043334961 161.78733825683594 108.01121520996094 161.15097045898438 106.82081604003906 160.4166717529297 C105.63042449951172 159.682373046875 104.49443054199219 158.85012817382812 103.42412567138672 157.92498779296875 C102.35382080078125 156.99984741210938 101.34921264648438 155.98178100585938 100.42160034179688 154.87583923339844 C99.42266082763672 155.96255493164062 98.3533706665039 156.96534729003906 97.22248077392578 157.879638671875 C96.09159088134766 158.7939453125 94.89909362792969 159.6197509765625 93.65374755859375 160.35250854492188 C92.40840148925781 161.0852813720703 91.11019897460938 161.72500610351562 89.76789855957031 162.26715087890625 C88.42559814453125 162.80929565429688 87.0391845703125 163.2538299560547 85.61742401123047 163.5962371826172 C84.19566345214844 163.9386444091797 82.73854064941406 164.17889404296875 81.25482177734375 164.31246948242188 C80.36563110351562 164.39442443847656 79.4814453125 164.43382263183594 78.6016845703125 164.43382263183594"></path>
<path fill="#E30F00" fill-opacity="1.0"  filling="0" d="M137.5882568359375 119.8726806640625 C137.51416015625 119.8726806640625 137.43817138671875 119.86518859863281 137.3624267578125 119.851806640625 C135.7350311279297 119.53070068359375 134.26641845703125 118.74723815917969 133.1049346923828 117.64187622070312 C131.94345092773438 116.53651428222656 131.08908081054688 115.10926055908203 130.690185546875 113.50057983398438 C130.29733276367188 111.9312744140625 130.57962036132812 110.34729766845703 131.35284423828125 109.05665588378906 C132.12606811523438 107.7660140991211 133.3902130126953 106.76870727539062 134.9610595703125 106.37274169921875 C135.58639526367188 106.21830749511719 136.21786499023438 106.59378051757812 136.37350463867188 107.21589660644531 C136.529541015625 107.839599609375 136.15255737304688 108.47119140625 135.5303955078125 108.62838745117188 C134.5802764892578 108.86753845214844 133.81532287597656 109.470458984375 133.34735107421875 110.25071716308594 C132.87936401367188 111.0309829711914 132.70835876464844 111.98859405517578 132.94613647460938 112.9371337890625 C133.2375030517578 114.11125183105469 133.86050415039062 115.15249633789062 134.70721435546875 115.95851135253906 C135.5539093017578 116.76453399658203 136.62429809570312 117.33533477783203 137.8104248046875 117.56857299804688 C138.4404296875 117.69268798828125 138.8505859375 118.30458068847656 138.72808837890625 118.93417358398438 C138.618896484375 119.48814392089844 138.131591796875 119.8726806640625 137.5882568359375 119.8726806640625"></path>
<path fill="#E30F00" fill-opacity="1.0"  filling="0" d="M155.869384765625 151.54537963867188 C153.2899932861328 151.54537963867188 151.05348205566406 151.3086700439453 149.20596313476562 150.98739624023438 C147.3584442138672 150.6661376953125 145.89991760253906 150.2602996826172 144.8765106201172 149.9220428466797 C143.85308837890625 149.5837860107422 143.26480102539062 149.3131103515625 143.15771484375 149.26214599609375 C142.57781982421875 148.98793029785156 142.3311767578125 148.2976531982422 142.603759765625 147.7161102294922 C142.8760986328125 147.13771057128906 143.56829833984375 146.8910675048828 144.14947509765625 147.15899658203125 C144.16720581054688 147.1674346923828 144.4385986328125 147.29052734375 144.94436645507812 147.47207641601562 C145.45013427734375 147.65362548828125 146.19029235839844 147.8936309814453 147.14553833007812 148.13587951660156 C148.10076904296875 148.3781280517578 149.27110290527344 148.6226348876953 150.63720703125 148.81320190429688 C152.00332641601562 149.00375366210938 153.56521606445312 149.140380859375 155.30361938476562 149.16683959960938 C157.04202270507812 149.19329833984375 158.95692443847656 149.109619140625 161.02902221679688 148.85958862304688 C163.10113525390625 148.60955810546875 165.33042907714844 148.19317626953125 167.69764709472656 147.5542449951172 C170.0648651123047 146.91531372070312 172.56997680664062 146.0538330078125 175.1937255859375 144.91360473632812 C176.37347412109375 144.39967346191406 177.59779357910156 143.89402770996094 178.8636016845703 143.403564453125 C180.12940979003906 142.91310119628906 181.4367218017578 142.4378204345703 182.782470703125 141.9846649169922 C184.1282196044922 141.53150939941406 185.51242065429688 141.1004638671875 186.93199157714844 140.69845581054688 C188.3515625 140.29644775390625 189.8065185546875 139.92349243164062 191.29380798339844 139.58648681640625 C192.7810821533203 139.24949645996094 194.30068969726562 138.94845581054688 195.84954833984375 138.6903076171875 C197.39840698242188 138.43215942382812 198.97654724121094 138.2169189453125 200.58087158203125 138.0514678955078 C202.18521118164062 137.8860321044922 203.8157501220703 137.77040100097656 205.4694366455078 137.71151733398438 C207.1231231689453 137.6526336669922 208.79995727539062 137.65048217773438 210.4968719482422 137.7119903564453 C212.19378662109375 137.77349853515625 213.91078186035156 137.898681640625 215.6448211669922 138.0944366455078 C217.37884521484375 138.29019165039062 219.12989807128906 138.55654907226562 220.89492797851562 138.90040588378906 C222.65994262695312 139.2442626953125 224.43893432617188 139.66563415527344 226.2288360595703 140.17144775390625 C228.01873779296875 140.67724609375 229.8195343017578 141.2675018310547 231.62818908691406 141.9490966796875 C233.4368438720703 142.63070678710938 235.25335693359375 143.4036865234375 237.07464599609375 144.27493286132812 C236.64418029785156 143.65994262695312 236.14329528808594 142.97747802734375 235.56723022460938 142.23980712890625 C234.9911651611328 141.50213623046875 234.33990478515625 140.70925903320312 233.6086883544922 139.87344360351562 C232.87747192382812 139.03762817382812 232.06629943847656 138.1588897705078 231.17039489746094 137.24949645996094 C230.2744903564453 136.34010314941406 229.29385375976562 135.40005493164062 228.22369384765625 134.44161987304688 C227.15354919433594 133.48318481445312 225.993896484375 132.50637817382812 224.73995971679688 131.52346801757812 C223.48602294921875 130.54055786132812 222.13780212402344 129.55152893066406 220.69053649902344 128.5686798095703 C219.24327087402344 127.58582305908203 217.6969451904297 126.60913848876953 216.0467987060547 125.65089416503906 C214.3966522216797 124.69265747070312 212.64266967773438 123.75286102294922 210.7801055908203 122.84378814697266 C208.9175262451172 121.93470764160156 206.94635009765625 121.05635070800781 204.86181640625 120.22099304199219 C202.81509399414062 119.40172576904297 200.85470581054688 118.72711181640625 198.9705810546875 118.17889404296875 C197.08645629882812 117.63067626953125 195.27859497070312 117.2088394165039 193.53689575195312 116.89513397216797 C191.79519653320312 116.5814208984375 190.1196746826172 116.37583923339844 188.50022888183594 116.26010131835938 C186.8807830810547 116.14436340332031 185.31741333007812 116.11848449707031 183.80001831054688 116.16419219970703 C182.2826385498047 116.20989227294922 180.81124877929688 116.32717895507812 179.37574768066406 116.49778747558594 C177.94024658203125 116.66838836669922 176.5406494140625 116.8923110961914 175.16685485839844 117.15127563476562 C173.79306030273438 117.41024780273438 172.44508361816406 117.70426177978516 171.11282348632812 118.01505279541016 C169.78054809570312 118.32585144042969 168.4639892578125 118.65342712402344 167.153076171875 118.97950744628906 C165.8960418701172 119.29251098632812 164.6328887939453 119.60701751708984 163.3565216064453 119.90579986572266 C162.0801544189453 120.20458221435547 160.79055786132812 120.48764038085938 159.4806365966797 120.73775482177734 C158.1707305908203 120.98786926269531 156.8404998779297 121.20503234863281 155.48287963867188 121.37202453613281 C154.125244140625 121.53901672363281 152.74020385742188 121.65583801269531 151.32064819335938 121.70526123046875 C149.90110778808594 121.75468444824219 148.44705200195312 121.73670196533203 146.951416015625 121.63410186767578 C145.45578002929688 121.53150177001953 143.9185333251953 121.34427642822266 142.3325958251953 121.0551986694336 C140.7466583251953 120.76612091064453 139.11203002929688 120.37519836425781 137.421630859375 119.86518859863281 C137.31878662109375 119.84431457519531 137.223388671875 119.81675720214844 137.1552734375 119.78955078125 C136.55868530273438 119.55157470703125 136.26800537109375 118.87509155273438 136.50711059570312 118.278564453125 C136.73568725585938 117.70767211914062 137.368408203125 117.41572570800781 137.9361572265625 117.60166931152344 C137.984619140625 117.60917663574219 138.0330810546875 117.61979675292969 138.0799560546875 117.63516235351562 C139.9512481689453 118.20035552978516 141.7439422607422 118.61322784423828 143.473388671875 118.89862823486328 C145.2028350830078 119.18402099609375 146.86903381347656 119.34193420410156 148.48733520507812 119.3971939086914 C150.10565185546875 119.45245361328125 151.67605590820312 119.40506744384766 153.2139434814453 119.27986145019531 C154.7518310546875 119.15465545654297 156.25718688964844 118.95162200927734 157.745361328125 118.69561004638672 C159.23355102539062 118.43959045410156 160.7045440673828 118.13058471679688 162.17373657226562 117.79341888427734 C163.64291381835938 117.45626068115234 165.11029052734375 117.0909423828125 166.5911865234375 116.7222900390625 C167.94752502441406 116.38482666015625 169.30963134765625 116.04597473144531 170.68821716308594 115.72468566894531 C172.06680297851562 115.40339660644531 173.46185302734375 115.09967803955078 174.88404846191406 114.83248138427734 C176.30625915527344 114.5652847290039 177.755615234375 114.33460235595703 179.2428436279297 114.15940856933594 C180.7300567626953 113.98420715332031 182.255126953125 113.86448669433594 183.8287353515625 113.81920623779297 C185.40234375 113.77392578125 187.0244903564453 113.80307006835938 188.70587158203125 113.92561340332031 C190.3872528076172 114.04815673828125 192.12786865234375 114.26408386230469 193.9384002685547 114.59236907958984 C195.74893188476562 114.920654296875 197.62939453125 115.36128234863281 199.59048461914062 115.93321228027344 C201.5515594482422 116.50514221191406 203.59326171875 117.2083740234375 205.72625732421875 118.06187438964844 C208.4017791748047 119.13421630859375 210.89454650878906 120.27140808105469 213.21469116210938 121.45048522949219 C215.5348358154297 122.62956237792969 217.68238830566406 123.85051727294922 219.66744995117188 125.09039306640625 C221.65252685546875 126.33026885986328 223.47512817382812 127.58906555175781 225.14541625976562 128.84381103515625 C226.81570434570312 130.0985565185547 228.33364868164062 131.34925842285156 229.70944213867188 132.5729522705078 C231.08522033691406 133.79664611816406 232.31881713867188 134.99331665039062 233.42037963867188 136.1400146484375 C234.52194213867188 137.28671264648438 235.49147033691406 138.38343811035156 236.33912658691406 139.4072265625 C237.186767578125 140.43099975585938 237.9125213623047 141.38185119628906 238.52651977539062 142.23678588867188 C239.14053344726562 143.0917205810547 239.64279174804688 143.85073852539062 240.04344177246094 144.4908905029297 C240.444091796875 145.13104248046875 240.7431640625 145.65234375 240.9507598876953 146.0317840576172 C241.15835571289062 146.41122436523438 241.27450561523438 146.64883422851562 241.309326171875 146.72164916992188 C241.5272216796875 147.17752075195312 241.4259033203125 147.722412109375 241.05828857421875 148.0691375732422 C240.69189453125 148.4170379638672 240.13909912109375 148.48873901367188 239.6986083984375 148.24012756347656 C237.9723358154297 147.2865447998047 236.2482452392578 146.42828369140625 234.52908325195312 145.65907287597656 C232.8099365234375 144.88987731933594 231.09573364257812 144.20973205566406 229.3892822265625 143.6123809814453 C227.68283081054688 143.01502990722656 225.98411560058594 142.50047302246094 224.29592895507812 142.06243896484375 C222.6077423095703 141.62440490722656 220.93008422851562 141.2628936767578 219.26576232910156 140.97164916992188 C217.60142517089844 140.68040466308594 215.95042419433594 140.45941162109375 214.31552124023438 140.3024139404297 C212.6806182861328 140.14541625976562 211.06182861328125 140.0524139404297 209.46194458007812 140.0171356201172 C207.862060546875 139.9818572998047 206.28106689453125 140.00430297851562 204.72177124023438 140.07821655273438 C203.1624755859375 140.15213012695312 201.6248779296875 140.27749633789062 200.1117401123047 140.44805908203125 C198.59861755371094 140.61862182617188 197.10997009277344 140.83438110351562 195.6486053466797 141.0890655517578 C194.18722534179688 141.34375 192.7531280517578 141.63735961914062 191.34909057617188 141.963623046875 C189.94503784179688 142.28988647460938 188.57106018066406 142.64881896972656 187.22991943359375 143.03414916992188 C185.88877868652344 143.4194793701172 184.58050537109375 143.83119201660156 183.30784606933594 144.26304626464844 C182.0352020263672 144.69488525390625 180.79818725585938 145.14686584472656 179.599609375 145.61270141601562 C178.40103149414062 146.0785369873047 177.24087524414062 146.5582275390625 176.1219482421875 147.04551696777344 C174.5283203125 147.7383270263672 172.97776794433594 148.33399963378906 171.47364807128906 148.84368896484375 C169.96954345703125 149.35337829589844 168.51187133789062 149.77708435058594 167.10401916503906 150.1259307861328 C165.6961669921875 150.4747772216797 164.33811950683594 150.748779296875 163.03326416015625 150.95907592773438 C161.72842407226562 151.16937255859375 160.47674560546875 151.31594848632812 159.28164672851562 151.40994262695312 C158.0865478515625 151.5039520263672 156.947998046875 151.54537963867188 155.869384765625 151.54537963867188"></path></svg>