<svg xmlns="http://www.w3.org/2000/svg" viewBox="0.0 0.0 256.0 256.0" height="256.0px" width="256.0px"><path fill="#FEE8D7" fill-opacity="1.0"  filling="0" d="M181.833984375 182.91403198242188 C180.6549530029297 182.4169921875 179.58380126953125 181.6423797607422 178.5610809326172 180.7710723876953 C177.53836059570312 179.89976501464844 176.56407165527344 178.93174743652344 175.5787811279297 178.04788208007812 C174.59349060058594 177.1640167236328 173.59718322753906 176.3643035888672 172.53042602539062 175.82957458496094 C171.46368408203125 175.29486083984375 170.32647705078125 175.025146484375 169.0593719482422 175.20126342773438 C167.6126708984375 175.40032958984375 166.46852111816406 176.1273193359375 165.56607055664062 177.16912841796875 C164.66360473632812 178.2109375 164.0028533935547 179.56756591796875 163.52291870117188 181.02590942382812 C163.04298400878906 182.48422241210938 162.743896484375 184.04425048828125 162.56475830078125 185.4928741455078 C162.3856201171875 186.94149780273438 162.13157653808594 188.50015258789062 161.71505737304688 189.97434997558594 C161.29855346679688 191.44854736328125 160.7195587158203 192.83827209472656 159.89053344726562 193.9490203857422 C159.06149291992188 195.0597686767578 157.982421875 195.8915252685547 156.56576538085938 196.24978637695312 C155.0456085205078 196.6359100341797 153.62356567382812 196.359375 152.32066345214844 195.66563415527344 C151.01776123046875 194.97189331054688 149.83401489257812 193.86093139648438 148.7904510498047 192.5782012939453 C147.74688720703125 191.2954559326172 146.84347534179688 189.84091186523438 146.10128784179688 188.46002197265625 C145.3612823486328 187.07720947265625 144.47390747070312 185.61611938476562 143.4491729736328 184.3192596435547 C142.4244384765625 183.02239990234375 141.26235961914062 181.88978576660156 139.9729461669922 181.16392517089844 C138.6835174560547 180.43804931640625 137.26675415039062 180.11892700195312 135.73268127441406 180.44906616210938 C134.26876831054688 180.76690673828125 133.04396057128906 181.5574951171875 131.99542236328125 182.63507080078125 C130.94686889648438 183.712646484375 130.07456970214844 185.07723999023438 129.31568908691406 186.5430908203125 C128.55679321289062 188.00894165039062 127.91131591796875 189.57608032226562 127.31639862060547 191.0587615966797 C126.72147369384766 192.5414276123047 126.17711639404297 193.9396514892578 125.62046813964844 195.06768798828125 C125.08525848388672 196.15203857421875 124.40077209472656 197.22381591796875 123.591796875 198.16407775878906 C122.78282165527344 199.10433959960938 121.849365234375 199.91307067871094 120.81619262695312 200.4713134765625 C119.78303527832031 201.02955627441406 118.65016174316406 201.33731079101562 117.44239044189453 201.2755889892578 C116.21257019042969 201.21292114257812 115.0678939819336 200.78463745117188 114.02772521972656 200.11029052734375 C112.98756408691406 199.43594360351562 112.05191040039062 198.5155487060547 111.2401351928711 197.46865844726562 C110.42835998535156 196.42178344726562 109.74046325683594 195.24839782714844 109.19580841064453 194.06809997558594 C108.65115356445312 192.88780212402344 108.24974060058594 191.7005615234375 108.01094055175781 190.6259765625 C107.82293701171875 189.76950073242188 107.6885986328125 188.90997314453125 107.5990982055664 188.046630859375 C107.50959777832031 187.1833038330078 107.46495056152344 186.31617736816406 107.45634460449219 185.44454956054688 C107.43545532226562 183.81802368164062 107.53683471679688 182.1824951171875 107.69197082519531 180.54757690429688 C107.84710693359375 178.91265869140625 108.0560073852539 177.27835083007812 108.25016021728516 175.654296875 C108.37835693359375 174.57376098632812 108.50062561035156 173.49179077148438 108.6162338256836 172.4084014892578 C108.73184204101562 171.32501220703125 108.8407974243164 170.2401885986328 108.94237518310547 169.1539306640625 C109.0786361694336 167.66749572753906 109.1915283203125 166.1853790283203 109.2813491821289 164.70709228515625 C109.37117767333984 163.2288055419922 109.43793487548828 161.75433349609375 109.48192596435547 160.283203125 C109.52592468261719 158.81207275390625 109.54715728759766 157.34426879882812 109.54592895507812 155.87930297851562 C109.5447006225586 154.41433715820312 109.52101135253906 152.95220947265625 109.47516632080078 151.49240112304688 C109.4293212890625 150.0325927734375 109.361328125 148.57513427734375 109.27146911621094 147.1195068359375 C109.18161010742188 145.6638946533203 109.06990051269531 144.21011352539062 108.9366455078125 142.75765991210938 C107.9339370727539 142.42916870117188 106.94926452636719 141.80821228027344 106.08910369873047 141.19381713867188 C104.90241241455078 140.347412109375 103.71165466308594 139.4971923828125 102.53068542480469 138.63194274902344 C101.34971618652344 137.76670837402344 100.17852783203125 136.88645935058594 99.03096771240234 135.9800262451172 C97.88341522216797 135.07359313964844 96.75949096679688 134.1409912109375 95.67304992675781 133.1710205078125 C94.58660888671875 132.2010498046875 93.53765106201172 131.19374084472656 92.5400161743164 130.13787841796875 C91.54238891601562 129.08203125 90.59608459472656 127.97765350341797 89.71495056152344 126.81356811523438 C89.34547424316406 126.32369232177734 88.97518920898438 125.69700622558594 89.22587585449219 125.13585662841797 C89.42329406738281 124.68202209472656 89.94841003417969 124.49114227294922 90.42601013183594 124.34778594970703 C91.63378143310547 123.9974365234375 92.86084747314453 123.73674774169922 94.09941101074219 123.54487609863281 C95.33798217773438 123.35299682617188 96.58805084228516 123.22993469238281 97.8418197631836 123.15484619140625 C99.09558868408203 123.07975006103516 100.35305786132812 123.05262756347656 101.60643768310547 123.05262756347656 C102.83032989501953 123.05262756347656 104.29915618896484 122.956787109375 105.7909164428711 122.9453125 C105.4566879272461 121.4469985961914 105.10443115234375 119.94868469238281 104.7226791381836 118.44462585449219 C104.3369369506836 116.9179458618164 103.90277099609375 115.35853576660156 103.44593811035156 113.7740707397461 C102.98909759521484 112.18961334228516 102.50958251953125 110.5801010131836 102.03314208984375 108.95321655273438 C101.55670166015625 107.32633972167969 101.08333587646484 105.68209075927734 100.63878631591797 104.02815246582031 C100.1942367553711 102.37421417236328 99.77850341796875 100.71058654785156 99.4173355102539 99.0449447631836 C99.05616760253906 97.37930297851562 98.74957275390625 95.71166229248047 98.52328491210938 94.0496826171875 C98.29700469970703 92.38770294189453 98.15103149414062 90.73139953613281 98.11112213134766 89.08843994140625 C98.07121276855469 87.44548034667969 98.13735961914062 85.81587982177734 98.33531951904297 84.20730590820312 C98.53327941894531 82.59872436523438 98.86305236816406 81.01118469238281 99.35037231445312 79.45234680175781 C99.83804321289062 77.88955688476562 100.46163940429688 76.42693328857422 101.2039794921875 75.06309509277344 C101.9463119506836 73.69925689697266 102.80738830566406 72.4342041015625 103.77000427246094 71.26655578613281 C104.73262023925781 70.09890747070312 105.7967758178711 69.02867126464844 106.94528198242188 68.0544662475586 C108.09378814697266 67.08026123046875 109.32664489746094 66.20207977294922 110.62666320800781 65.4185562133789 C111.92667388916016 64.6350326538086 113.2938461303711 63.9461555480957 114.71098327636719 63.35055923461914 C116.12811279296875 62.75495910644531 117.59521484375 62.25263595581055 119.09507751464844 61.84220504760742 C120.59494018554688 61.43177795410156 122.12757873535156 61.113243103027344 123.67578887939453 60.88522720336914 C125.22400665283203 60.65721130371094 126.78779602050781 60.51971435546875 128.34996032714844 60.47135925292969 C129.91213989257812 60.423004150390625 131.47268676757812 60.46378707885742 133.01443481445312 60.59233474731445 C134.55618286132812 60.72087860107422 136.0791015625 60.93718719482422 137.5660400390625 61.23988342285156 C139.27853393554688 61.588134765625 140.90960693359375 62.05148696899414 142.4635009765625 62.619266510009766 C144.01739501953125 63.18704605102539 145.494140625 63.8592529296875 146.89796447753906 64.62521362304688 C148.30178833007812 65.39117431640625 149.6326904296875 66.25088500976562 150.89495849609375 67.19367218017578 C152.15721130371094 68.13645935058594 153.35081481933594 69.16232299804688 154.48001098632812 70.26058959960938 C155.60922241210938 71.35885620117188 156.6740264892578 72.52952575683594 157.67869567871094 73.76191711425781 C158.68336486816406 74.99430847167969 159.6278839111328 76.2884292602539 160.5165252685547 77.63359832763672 C161.40516662597656 78.97876739501953 162.2379150390625 80.37498474121094 163.01904296875 81.81157684326172 C163.8001708984375 83.2481689453125 164.5296630859375 84.72513580322266 165.2117919921875 86.23180389404297 C165.8939208984375 87.73846435546875 166.5286865234375 89.27483367919922 167.12033081054688 90.8302230834961 C167.66346740722656 92.26273345947266 168.16954040527344 93.70597839355469 168.64889526367188 95.15678405761719 C169.1282501220703 96.60758972167969 169.58087158203125 98.0659408569336 170.01708984375 99.5286636352539 C170.4532928466797 100.99139404296875 170.87307739257812 102.45848083496094 171.28677368164062 103.92676544189453 C172.27581787109375 103.20641326904297 173.28271484375 102.50536346435547 174.31411743164062 101.84365844726562 C175.34552001953125 101.18196105957031 176.4014434814453 100.55960845947266 177.48855590820312 99.99666595458984 C178.57565307617188 99.43372344970703 179.6939697265625 98.93019104003906 180.85012817382812 98.50611877441406 C181.3096923828125 98.33326721191406 181.8528289794922 98.18417358398438 182.28289794921875 98.42829132080078 C182.81375122070312 98.72647857666016 182.88583374023438 99.46131134033203 182.87355041503906 100.0699691772461 C182.85438537597656 101.52880096435547 182.74713134765625 102.97836303710938 182.56961059570312 104.41944122314453 C182.39208984375 105.86052703857422 182.144287109375 107.29313659667969 181.84402465820312 108.71807861328125 C181.54376220703125 110.14301300048828 181.19102478027344 111.5602798461914 180.80361938476562 112.97066497802734 C180.41622924804688 114.38105773925781 179.99417114257812 115.7845687866211 179.5552520751953 117.1820068359375 C179.1163330078125 118.57943725585938 178.6605682373047 119.97079467773438 178.20574951171875 121.35688018798828 C177.97882080078125 122.04910278320312 177.7043914794922 122.77738189697266 177.35787963867188 123.44584655761719 C177.92066955566406 124.90238189697266 178.5005340576172 126.35198211669922 179.0957489013672 127.79519653320312 C179.6909637451172 129.2384033203125 180.30154418945312 130.6752471923828 180.92576599121094 132.1062469482422 C181.54998779296875 133.53724670410156 182.1878662109375 134.96241760253906 182.8376922607422 136.38230895996094 C183.4875030517578 137.8022003173828 184.14926147460938 139.21682739257812 184.8212432861328 140.62672424316406 C185.49322509765625 142.03662109375 186.17544555664062 143.44180297851562 186.86618041992188 144.84280395507812 C187.55691528320312 146.24380493164062 188.25616455078125 147.64065551757812 188.9622344970703 149.03387451171875 C189.6682891845703 150.42710876464844 190.38116455078125 151.81671142578125 191.09913635253906 153.20327758789062 C191.78152465820312 154.51837158203125 192.47129821777344 155.84156799316406 193.12107849121094 157.1818389892578 C193.77084350585938 158.52210998535156 194.38064575195312 159.87945556640625 194.903076171875 161.26287841796875 C195.42550659179688 162.64630126953125 195.860595703125 164.05577087402344 196.16098022460938 165.5002899169922 C196.25599670410156 165.95986938476562 196.33956909179688 166.41943359375 196.40591430664062 166.88475036621094 C196.5888671875 168.1524658203125 196.5697021484375 169.55380249023438 196.3667755126953 170.99050903320312 C196.16384887695312 172.42721557617188 195.77716064453125 173.89930725097656 195.2250518798828 175.30853271484375 C194.67294311523438 176.71774291992188 193.95541381835938 178.06410217285156 193.09080505371094 179.2493438720703 C192.22621154785156 180.43458557128906 191.21453857421875 181.45872497558594 190.07415771484375 182.2235107421875 C188.93377685546875 182.98829650878906 187.66465759277344 183.4937286376953 186.28518676757812 183.6415557861328 C184.90570068359375 183.78939819335938 183.41586303710938 183.57962036132812 181.833984375 182.91403198242188"></path>
<path fill="#FC7836" fill-opacity="1.0"  filling="0" d="M102.14056396484375 47.11769104003906 C103.19405364990234 46.93829345703125 104.23772430419922 46.557373046875 105.30104064941406 46.6622314453125 C106.17021179199219 46.74864959716797 106.94230651855469 47.14862060546875 107.60995483398438 47.71397018432617 C108.27760314941406 48.279319763183594 108.84080505371094 49.010047912597656 109.29218292236328 49.75798034667969 C110.05895233154297 51.028560638427734 110.6182861328125 52.38788604736328 111.03904724121094 53.79976272583008 C111.45980834960938 55.211639404296875 111.74201202392578 56.676063537597656 111.95451354980469 58.15684509277344 C112.16702270507812 59.63762283325195 112.30982971191406 61.13475799560547 112.45182800292969 62.61204528808594 C112.4845962524414 62.95283508300781 112.53703308105469 63.33213806152344 112.80326843261719 63.547576904296875 C113.07687377929688 63.76957702636719 113.47091674804688 63.73516845703125 113.81908416748047 63.681915283203125 C115.42184448242188 63.435340881347656 116.99942016601562 63.02779006958008 118.52200317382812 62.47001647949219 C120.04458618164062 61.91224670410156 121.5121841430664 61.204254150390625 122.8949966430664 60.35679626464844 C122.25643157958984 59.3970947265625 121.65473175048828 58.41282272338867 121.09162902832031 57.40694808959961 C120.52853393554688 56.40107345581055 120.00404357910156 55.37359619140625 119.51988983154297 54.327484130859375 C119.01034545898438 53.226470947265625 118.54053497314453 52.0967903137207 118.01051330566406 51.00397872924805 C117.4804916381836 49.91116714477539 116.8902587890625 48.855224609375 116.1398696899414 47.90168762207031 C115.4454574584961 47.019405364990234 114.61752319335938 46.246803283691406 113.69756317138672 45.60485076904297 C112.77760314941406 44.96289825439453 111.76561737060547 44.451595306396484 110.70311737060547 44.09190368652344 C109.64061737060547 43.73221206665039 108.52759552001953 43.524131774902344 107.40556335449219 43.48863220214844 C106.49215698242188 43.4599609375 105.57137298583984 43.540252685546875 104.6899185180664 43.782745361328125 C103.81991577148438 44.021942138671875 103.00154113769531 44.41596984863281 102.18889617919922 44.80755615234375 C101.93739318847656 44.92878723144531 101.68181610107422 45.0467529296875 101.42704010009766 45.16554260253906 C100.34241485595703 45.670989990234375 100.83393859863281 47.31513977050781 102.01768493652344 47.13737487792969 C102.05781555175781 47.13163757324219 102.09960174560547 47.12507629394531 102.14056396484375 47.11769104003906"></path>
<path fill="#FDC444" fill-opacity="1.0"  filling="0" d="M152.0069122314453 75.0532455444336 C151.5498046875 75.29899597167969 151.08612060546875 75.51690673828125 150.60853576660156 75.71515655517578 C149.7418212890625 76.08379364013672 148.84152221679688 76.37706756591797 147.93466186523438 76.63594055175781 C146.78204345703125 76.95664978027344 145.60546875 77.21080780029297 144.4228515625 77.4427490234375 C143.240234375 77.6746826171875 142.05157470703125 77.8843994140625 140.87478637695312 78.11622619628906 C139.88929748535156 78.310791015625 138.90872192382812 78.52398681640625 137.93325805664062 78.75592041015625 C136.95779418945312 78.98785400390625 135.98745727539062 79.238525390625 135.02243041992188 79.50804138183594 C134.02627563476562 79.78739166259766 133.0309600830078 80.0806655883789 132.04873657226562 80.4083480834961 C130.83120727539062 80.79705810546875 129.62257385253906 81.21566772460938 128.4243621826172 81.66361999511719 C127.22615814208984 82.11156463623047 126.03836822509766 82.58885192871094 124.86251068115234 83.09490966796875 C123.68665313720703 83.60096740722656 122.52272033691406 84.13580322265625 121.37223815917969 84.6988525390625 C120.22174072265625 85.26189422607422 119.0846939086914 85.8531494140625 117.96259307861328 86.47206115722656 C117.04837036132812 86.96359252929688 116.14151763916016 87.48131561279297 115.24776458740234 88.02691650390625 C114.43266296386719 88.5147476196289 113.62615966796875 89.01773834228516 112.82897186279297 89.53526306152344 C112.03178405761719 90.05279541015625 111.24392700195312 90.58486938476562 110.46609497070312 91.13086700439453 C109.66819763183594 91.69038391113281 108.87520599365234 92.2685317993164 108.07361602783203 92.83039855957031 C107.27203369140625 93.39227294921875 106.46183776855469 93.93785858154297 105.6295394897461 94.43224334716797 C104.75627136230469 94.95734405517578 103.86251831054688 95.42837524414062 102.9212646484375 95.81012725830078 C102.55999755859375 95.9534912109375 102.19790649414062 96.08291625976562 101.82353210449219 96.1992416381836 C100.75720977783203 96.53129577636719 99.61050415039062 96.70560455322266 98.47615814208984 96.69495391845703 C97.34180450439453 96.68431091308594 96.21980285644531 96.48870086669922 95.20286560058594 96.08091735839844 C94.1859359741211 95.67314147949219 93.27407836914062 95.05319213867188 92.56001281738281 94.19384765625 C91.57778930664062 93.00682830810547 91.10040283203125 91.55909729003906 90.92222595214844 90.02780151367188 C90.74404907226562 88.49651336669922 90.8650894165039 86.88166809082031 91.0797119140625 85.36041259765625 C91.28083038330078 83.94503784179688 91.5323257446289 82.53606414794922 91.83960723876953 81.14350128173828 C92.14688110351562 79.75093841552734 92.50994110107422 78.37478637695312 92.9341812133789 77.02505493164062 C93.35842895507812 75.67532348632812 93.8438491821289 74.35200500488281 94.39586639404297 73.06511688232422 C94.9478759765625 71.77823638916016 95.56647491455078 70.52777862548828 96.25706481933594 69.32376098632812 C96.68017578125 68.58688354492188 97.12869262695312 67.86885070800781 97.6060791015625 67.17048645019531 C98.0834732055664 66.47211456298828 98.5897445678711 65.79341125488281 99.12837219238281 65.13519287109375 C99.92996215820312 64.14600372314453 100.79974365234375 63.20801544189453 101.74109649658203 62.32809066772461 C102.68245697021484 61.44816589355469 103.69539642333984 60.626304626464844 104.78329467773438 59.86936950683594 C105.82041931152344 59.14601135253906 106.87062072753906 58.464447021484375 107.92084503173828 57.82301330566406 C108.73921966552734 57.324951171875 109.56497192382812 56.854705810546875 110.39728546142578 56.41069030761719 C111.55235290527344 55.794376373291016 112.7165298461914 55.23049545288086 113.89256286621094 54.71995544433594 C115.068603515625 54.20941162109375 116.25650024414062 53.75221252441406 117.45903015136719 53.34925842285156 C118.66155242919922 52.94630813598633 119.87870788574219 52.59760284423828 121.11324310302734 52.30406188964844 C121.98649597167969 52.09269714355469 122.86631774902344 51.914947509765625 123.76006317138672 51.75846862792969 C124.85150909423828 51.56977844238281 125.95661163330078 51.42277526855469 127.0776138305664 51.31746292114258 C128.1986083984375 51.21215057373047 129.33551025390625 51.14852523803711 130.4905548095703 51.1265869140625 C131.64559936523438 51.10464859008789 132.81878662109375 51.12439727783203 134.01235961914062 51.18583679199219 C134.34658813476562 51.19975280761719 134.6873779296875 51.22026062011719 135.02162170410156 51.247283935546875 C135.79904174804688 51.30216979980469 136.57644653320312 51.376708984375 137.36123657226562 51.46519470214844 C138.8523406982422 51.64656448364258 140.3491973876953 51.90382385253906 141.82115173339844 52.24961853027344 C143.29310607910156 52.59541320800781 144.7401885986328 53.02973556518555 146.1317596435547 53.56523895263672 C147.52333068847656 54.100738525390625 148.85940551757812 54.73741149902344 150.10934448242188 55.4879035949707 C151.35928344726562 56.23839569091797 152.5231170654297 57.10270690917969 153.57020568847656 58.09347152709961 C154.61729431152344 59.0842399597168 155.54763793945312 60.20146942138672 156.3306427001953 61.457794189453125 C157.1629638671875 62.79472351074219 157.81094360351562 64.2889404296875 157.94775390625 65.85771179199219 C158.0572509765625 67.14276885986328 157.8134002685547 68.39122772216797 157.31301879882812 69.55191802978516 C156.81263732910156 70.71260070800781 156.05572509765625 71.78551483154297 155.13909912109375 72.71946716308594 C154.22247314453125 73.6534194946289 153.14614868164062 74.44841003417969 152.0069122314453 75.0532455444336"></path>
<path fill="#FCA429" fill-opacity="1.0"  filling="0" d="M105.63035583496094 94.43224334716797 C104.75709533691406 94.95734405517578 103.86334228515625 95.42837524414062 102.92208099365234 95.81012725830078 C102.26276397705078 94.42881774902344 101.65023040771484 93.0261001586914 101.08517456054688 91.60516357421875 C100.52012634277344 90.1842269897461 100.00255584716797 88.74506378173828 99.53317260742188 87.29087829589844 C99.06378173828125 85.8366928100586 98.642578125 84.36747741699219 98.27024841308594 82.88642883300781 C97.89791870117188 81.40538024902344 97.57447052001953 79.91250610351562 97.30060577392578 78.4109878540039 C97.0267333984375 76.90946960449219 96.80243682861328 75.3993148803711 96.62841796875 73.88371276855469 C96.45439910888672 72.36811065673828 96.33065795898438 70.84706115722656 96.25788879394531 69.32376098632812 C96.6810073852539 68.58688354492188 97.1295166015625 67.86885070800781 97.6069107055664 67.17048645019531 C98.08429718017578 66.47211456298828 98.59056091308594 65.79341125488281 99.12918090820312 65.13519287109375 C99.15164947509766 66.57640075683594 99.21517944335938 68.01358032226562 99.31975555419922 69.44563293457031 C99.42432403564453 70.877685546875 99.56993865966797 72.30461120605469 99.75657653808594 73.7253189086914 C99.94320678710938 75.14602661132812 100.17086791992188 76.56050872802734 100.43952178955078 77.9676742553711 C100.70818328857422 79.37483978271484 101.0178451538086 80.77468872070312 101.36849212646484 82.16612243652344 C101.7191390991211 83.55755615234375 102.11076354980469 84.9405746459961 102.5433578491211 86.3140869140625 C102.9759521484375 87.68759155273438 103.44950866699219 89.05158996582031 103.96401977539062 90.40498352050781 C104.47852325439453 91.75837707519531 105.03398132324219 93.10116577148438 105.63035583496094 94.43224334716797"></path>
<path fill="#FCA429" fill-opacity="1.0"  filling="0" d="M117.96259307861328 86.47206115722656 C117.04837036132812 86.96359252929688 116.14151763916016 87.48131561279297 115.24776458740234 88.02691650390625 C114.66285705566406 86.87081909179688 114.11204528808594 85.69849395751953 113.59811401367188 84.50897979736328 C113.08418273925781 83.3194580078125 112.60712432861328 82.11275482177734 112.16972351074219 80.88789367675781 C111.7323226928711 79.66303253173828 111.33457946777344 78.4200210571289 110.97926330566406 77.15790557861328 C110.62394714355469 75.89578247070312 110.31106567382812 74.61456298828125 110.04339599609375 73.31326293945312 C109.78247833251953 72.05989074707031 109.54116821289062 70.79330444335938 109.3205337524414 69.51637268066406 C109.09989929199219 68.23944091796875 108.89993286132812 66.9521713256836 108.7217025756836 65.65742492675781 C108.54347229003906 64.36267852783203 108.3869857788086 63.060455322265625 108.2532958984375 61.75362777709961 C108.11959838867188 60.446800231933594 108.00869750976562 59.1353645324707 107.92166137695312 57.82218933105469 C108.74004364013672 57.32411193847656 109.56578826904297 56.8538818359375 110.3980941772461 56.409881591796875 C110.50541687011719 57.710975646972656 110.62767791748047 59.01079177856445 110.76841735839844 60.30954360961914 C110.90914916992188 61.60829544067383 111.068359375 62.90598678588867 111.24954986572266 64.20283508300781 C111.43074035644531 65.49967956542969 111.63392639160156 66.7956771850586 111.86262512207031 68.09104919433594 C112.09132385253906 69.38642120361328 112.34553527832031 70.68116760253906 112.6287841796875 71.97549438476562 C112.9134521484375 73.28376007080078 113.2463607788086 74.55956268310547 113.62128448486328 75.80846405029297 C113.99620819091797 77.05735778808594 114.41315460205078 78.27935028076172 114.86592102050781 79.47998809814453 C115.31867980957031 80.68063354492188 115.8072509765625 81.85991668701172 116.325439453125 83.0234146118164 C116.84362030029297 84.18690490722656 117.39140319824219 85.33460235595703 117.96259307861328 86.47206115722656"></path>
<path fill="#FCA429" fill-opacity="1.0"  filling="0" d="M135.02243041992188 79.5072250366211 C134.02627563476562 79.78658294677734 133.0309600830078 80.07984924316406 132.04873657226562 80.40753173828125 C131.59408569335938 78.87972259521484 131.12950134277344 77.3533706665039 130.64971923828125 75.83026123046875 C130.16995239257812 74.30715942382812 129.67495727539062 72.78730010986328 129.1595001220703 71.27247619628906 C128.64404296875 69.75765991210938 128.1081085205078 68.24787902832031 127.5464096069336 66.74491882324219 C127.08929443359375 65.52226257324219 126.61774444580078 64.3038558959961 126.12884521484375 63.092041015625 C125.63995361328125 61.880226135253906 125.13371276855469 60.67500305175781 124.60722351074219 59.47871398925781 C124.08073425292969 58.28242492675781 123.53399658203125 57.09507369995117 122.96409606933594 55.91899871826172 C122.39420318603516 54.742919921875 121.80115509033203 53.578121185302734 121.18204498291016 52.42694091796875 C121.16156768798828 52.385955810546875 121.1345443725586 52.345001220703125 121.11405944824219 52.30406188964844 C121.98731231689453 52.09269714355469 122.86714172363281 51.914947509765625 123.7608871459961 51.75846862792969 C124.49516296386719 53.049800872802734 125.18411254882812 54.36470413208008 125.83722686767578 55.697845458984375 C126.49034118652344 57.03098678588867 127.10762786865234 58.382362365722656 127.69857788085938 59.74663162231445 C128.28952026367188 61.11090087890625 128.85414123535156 62.488067626953125 129.40191650390625 63.87278747558594 C129.90673828125 65.14500427246094 130.4068603515625 66.42578125 130.8989715576172 67.71443176269531 C131.39108276367188 69.00308990478516 131.8751678466797 70.29962921142578 132.3479461669922 71.60338592529297 C132.8207244873047 72.90714263916016 133.28219604492188 74.2181167602539 133.72903442382812 75.53564453125 C134.17588806152344 76.85317993164062 134.60812377929688 78.17726135253906 135.02243041992188 79.5072250366211"></path>
<path fill="#FCA429" fill-opacity="1.0"  filling="0" d="M150.60934448242188 75.71515655517578 C149.7426300048828 76.08379364013672 148.8423309326172 76.37706756591797 147.93548583984375 76.63594055175781 C147.40232849121094 75.11714172363281 146.82708740234375 73.6095199584961 146.21078491210938 72.11621856689453 C145.594482421875 70.6229248046875 144.9371337890625 69.14395141601562 144.23973083496094 67.6824722290039 C143.54232788085938 66.22098541259766 142.80490112304688 64.77698516845703 142.02842712402344 63.3536262512207 C141.25196838378906 61.93026351928711 140.4364776611328 60.52754211425781 139.58297729492188 59.148616790771484 C138.72947692871094 57.769691467285156 137.8379669189453 56.41455841064453 136.9094696044922 55.08637619018555 C135.98095703125 53.75819396972656 135.01547241210938 52.45696258544922 134.0139923095703 51.18583679199219 C134.34823608398438 51.19975280761719 134.68902587890625 51.22026062011719 135.02325439453125 51.247283935546875 C135.8006591796875 51.30216979980469 136.57809448242188 51.376708984375 137.36288452148438 51.46519470214844 C138.17471313476562 52.46092987060547 138.9676971435547 53.48411178588867 139.73846435546875 54.53893280029297 C140.50921630859375 55.59375762939453 141.2577667236328 56.68022155761719 141.980712890625 57.802520751953125 C142.8877716064453 59.2076530456543 143.749267578125 60.636695861816406 144.56411743164062 62.088138580322266 C145.37896728515625 63.539581298828125 146.1471710205078 65.013427734375 146.86764526367188 66.5081558227539 C147.588134765625 68.00289154052734 148.2609100341797 69.51851654052734 148.8848876953125 71.05352020263672 C149.50885009765625 72.58851623535156 150.08404541015625 74.14289855957031 150.60934448242188 75.71515655517578"></path>
<path fill="#380B57" fill-opacity="1.0"  filling="0" d="M115.13225555419922 67.89506530761719 C115.06999206542969 66.75309753417969 114.62681579589844 65.68896484375 113.79203796386719 64.89024353027344 C112.92327880859375 64.05916595458984 111.81490325927734 63.68417739868164 110.70919036865234 63.7164306640625 C109.60347747802734 63.748687744140625 108.50042724609375 64.18818664550781 107.6423110961914 64.986083984375 C106.97793579101562 65.60417175292969 106.51201629638672 66.41436004638672 106.281005859375 67.28619384765625 C106.04998779296875 68.15802764892578 106.05387878417969 69.09150695800781 106.3291244506836 69.9561767578125 C106.68793487548828 71.08258056640625 107.42767333984375 71.98533630371094 108.3685302734375 72.53665924072266 C109.30937957763672 73.08798217773438 110.45134735107422 73.2878646850586 111.61461639404297 73.00851440429688 C112.62059020996094 72.76685333251953 113.5 72.14405822753906 114.12699127197266 71.32505798339844 C114.75399017333984 70.50605773925781 115.12857055664062 69.4908676147461 115.1248779296875 68.46441650390625 C115.13389587402344 68.23011779785156 115.14126586914062 68.06546020507812 115.13225555419922 67.89506530761719"></path>
<path fill="#380B57" fill-opacity="1.0"  filling="0" d="M126.39462280273438 58.82569885253906 C125.18384552001953 58.495155334472656 123.98207092285156 58.726783752441406 122.99575805664062 59.330841064453125 C122.00943756103516 59.93490219116211 121.23857116699219 60.91139221191406 120.88959503173828 62.07057189941406 C120.82978820800781 62.26799011230469 120.81668853759766 62.51618957519531 120.79210662841797 62.70051574707031 C120.7699966430664 62.86354064941406 120.71510314941406 63.13140869140625 120.71510314941406 63.33213806152344 C120.71837615966797 64.11691284179688 120.90351867675781 64.77474975585938 121.26396942138672 65.4620361328125 C121.64079284667969 66.17967224121094 122.25684356689453 66.76950073242188 122.97199249267578 67.17007446289062 C123.33162689208984 67.39944458007812 123.72647857666016 67.58375549316406 124.16230010986328 67.69927978515625 C125.31982421875 68.00648498535156 126.71328735351562 67.82870483398438 127.7118911743164 67.14303588867188 C128.97918701171875 66.27305603027344 129.77381896972656 64.99674987792969 129.81640625 63.435333251953125 C129.84426879882812 62.385536193847656 129.49530029296875 61.371368408203125 128.8861083984375 60.55052947998047 C128.27694702148438 59.72969055175781 127.40756225585938 59.10218048095703 126.39462280273438 58.82569885253906"></path>
<path fill="#380B57" fill-opacity="1.0"  filling="0" d="M129.05047607421875 70.6131591796875 C127.99616241455078 71.00965881347656 126.97870635986328 71.48562622070312 125.97354888916016 71.98779296875 C125.66307067871094 71.3955078125 125.32965850830078 70.80813598632812 124.86763000488281 70.34283447265625 C124.48751831054688 69.95863342285156 123.85345458984375 70.25601196289062 123.83380126953125 70.77127075195312 C123.80757904052734 71.47662353515625 124.01811981201172 72.18112182617188 124.28681182861328 72.85041809082031 C123.43321228027344 73.29278564453125 122.57960510253906 73.73597717285156 121.71124267578125 74.14720153808594 C121.29755401611328 73.40582275390625 120.8961410522461 72.53501892089844 120.16624450683594 72.10821533203125 C119.9188461303711 71.96403503417969 119.52481079101562 72.08609008789062 119.46746826171875 72.39247131347656 C119.30608367919922 73.25181579589844 119.71321868896484 74.09149169921875 120.05728912353516 74.87547302246094 C119.14715576171875 75.25476837158203 118.22637176513672 75.60456085205078 117.29985046386719 75.9371566772461 C117.19828033447266 75.7643051147461 117.09668731689453 75.58981323242188 116.99594116210938 75.4186019897461 C116.83126831054688 75.13678741455078 115.99241638183594 73.57949829101562 115.43699645996094 74.37330627441406 C115.00199890136719 74.99508666992188 115.47386932373047 75.80854034423828 115.79827117919922 76.46553802490234 C114.7283935546875 76.83499145507812 113.65524291992188 77.19790649414062 112.586181640625 77.5804672241211 C112.0938491821289 77.75659942626953 112.15364074707031 78.5053482055664 112.71234893798828 78.51518249511719 C113.95997619628906 78.5364761352539 115.24284362792969 78.39228820800781 116.53226470947266 78.1285171508789 C116.83209991455078 78.7904281616211 117.1532211303711 79.4449691772461 117.53169250488281 80.04380798339844 C118.01829528808594 80.81385040283203 119.4404296875 80.32562255859375 119.07917022705078 79.3917236328125 C118.8563461303711 78.81664276123047 118.5819091796875 78.2554931640625 118.29026794433594 77.70172119140625 C119.17337036132812 77.44776916503906 120.0523681640625 77.13729095458984 120.92072296142578 76.7883071899414 C121.12224578857422 77.1847915649414 121.34015655517578 77.57064056396484 121.602294921875 77.91880798339844 C122.19539642333984 78.70441436767578 123.8436279296875 78.28416442871094 123.37914276123047 77.16924285888672 C123.20793151855469 76.75716400146484 122.99903106689453 76.36396789550781 122.7786636352539 75.97647857666016 C123.57820892333984 75.5947265625 124.3597183227539 75.18103790283203 125.11912536621094 74.74604797363281 C125.4214096069336 75.39156341552734 125.77940368652344 76.02973175048828 126.27173614501953 76.45899200439453 C126.96968841552734 77.06765747070312 128.11328125 76.49256134033203 127.86180877685547 75.53328704833984 C127.68977355957031 74.87547302246094 127.29409790039062 74.25944519042969 126.91071319580078 73.65486145019531 C127.8929443359375 73.0167236328125 128.81944274902344 72.34988403320312 129.66978454589844 71.67649841308594 C130.16293334960938 71.28657531738281 129.629638671875 70.395263671875 129.05047607421875 70.6131591796875"></path>
<path fill="#380B57" fill-opacity="1.0"  filling="0" d="M125.69994354248047 101.4781723022461 C124.91761016845703 99.96456146240234 123.73149871826172 99.10704040527344 122.4525375366211 98.80873107910156 C121.173583984375 98.51042175292969 119.80178833007812 98.77132415771484 118.64807891845703 99.49455261230469 C117.49436950683594 100.21778869628906 116.55876159667969 101.40335083007812 116.15216827392578 102.95437622070312 C115.84906005859375 104.111083984375 115.97803497314453 105.42407989501953 116.43102264404297 106.64168548583984 C116.8840103149414 107.85929107666016 117.6610107421875 108.98150634765625 118.65393829345703 109.75665283203125 C119.6468734741211 110.53179931640625 120.85574340820312 110.95986938476562 122.17247009277344 110.7892074584961 C123.57548522949219 110.60707092285156 124.61659240722656 109.86305236816406 125.3206787109375 108.83489227294922 C126.02476501464844 107.80673217773438 126.39183044433594 106.49443817138672 126.44674682617188 105.17574310302734 C126.50166320800781 103.85704040527344 126.24443054199219 102.53193664550781 125.69994354248047 101.4781723022461"></path>
<path fill="#380B57" fill-opacity="1.0"  filling="0" d="M149.80735778808594 93.44181823730469 C149.0250244140625 91.92848205566406 147.8389129638672 91.07106018066406 146.55996704101562 90.77275085449219 C145.281005859375 90.47444152832031 143.90921020507812 90.7352523803711 142.75550842285156 91.45838928222656 C141.60179138183594 92.18153381347656 140.66616821289062 93.36700439453125 140.25958251953125 94.91801452636719 C139.95620727539062 96.0747299194336 140.0850830078125 97.38772583007812 140.53807067871094 98.60533142089844 C140.99105834960938 99.82293701171875 141.7681427001953 100.94515228271484 142.76116943359375 101.72029113769531 C143.75418090820312 102.49543762207031 144.963134765625 102.92351531982422 146.27987670898438 102.75284576416016 C147.68289184570312 102.57098388671875 148.72401428222656 101.8271484375 149.4281005859375 100.79908752441406 C150.1322021484375 99.77102661132812 150.499267578125 98.45872497558594 150.55416870117188 97.13993835449219 C150.60910034179688 95.8211441040039 150.35186767578125 94.49586486816406 149.80735778808594 93.44181823730469"></path>
<path fill="#380B57" fill-opacity="1.0"  filling="0" d="M142.00201416015625 107.0946044921875 C142.03968811035156 107.35675048828125 142.0732879638672 107.62135314941406 142.08966064453125 107.88678741455078 C142.22360229492188 109.30809783935547 142.16134643554688 110.7449722290039 141.9114990234375 112.14805603027344 C141.66163635253906 113.55113220214844 141.22418212890625 114.92042541503906 140.6077423095703 116.2065658569336 C139.86471557617188 117.75568389892578 138.44586181640625 119.19502258300781 136.74766540527344 118.13087463378906 C135.81704711914062 117.54842376708984 134.97491455078125 116.72984313964844 134.20518493652344 115.83885955810547 C133.43544006347656 114.9478759765625 132.73809814453125 113.9844970703125 132.09707641601562 113.11245727539062 C131.56378173828125 112.38418579101562 130.98971557617188 111.43247985839844 130.64114379882812 110.45854949951172 C130.29257202148438 109.48462677001953 130.16949462890625 108.48847961425781 130.5381317138672 107.67133331298828 C130.8453369140625 106.99549865722656 131.42041015625 106.47611999511719 132.0135040283203 106.03047180175781 C132.89947509765625 105.36036682128906 134.3560028076172 104.63742065429688 135.8716278076172 104.18040466308594 C137.3872528076172 103.723388671875 138.9619598388672 103.53231811523438 140.08425903320312 103.92594146728516 C141.3130645751953 104.35437774658203 141.82179260253906 105.8076400756836 142.00201416015625 107.0946044921875"></path>
<path fill="#FF815A" fill-opacity="1.0"  filling="0" d="M142.08885192871094 107.88678741455078 C142.2227783203125 109.30809783935547 142.1605224609375 110.7449722290039 141.91067504882812 112.14805603027344 C141.6608123779297 113.55113220214844 141.22335815429688 114.92042541503906 140.60691833496094 116.2065658569336 C139.86390686035156 117.75568389892578 138.44503784179688 119.19502258300781 136.74685668945312 118.13087463378906 C135.8162384033203 117.54842376708984 134.97409057617188 116.72984313964844 134.20436096191406 115.83885955810547 C133.4346160888672 114.9478759765625 132.73727416992188 113.9844970703125 132.09625244140625 113.11245727539062 C132.9910888671875 112.20696258544922 133.98123168945312 111.3944091796875 135.04318237304688 110.69013977050781 C136.10513305664062 109.98587036132812 137.23892211914062 109.38988494873047 138.4210205078125 108.91754150390625 C139.60311889648438 108.44519805908203 140.83355712890625 108.09649658203125 142.08885192871094 107.88678741455078"></path>
<path fill="#FF815A" fill-opacity="1.0"  filling="0" d="M124.55223846435547 116.4793701171875 C124.56698608398438 115.25302124023438 123.94336700439453 114.31053161621094 123.04347229003906 113.70074462890625 C122.14358520507812 113.09095001220703 120.96742248535156 112.81385803222656 119.87706756591797 112.91830444335938 C118.74629211425781 113.02643585205078 117.5876693725586 113.69290161132812 116.7181625366211 114.57958221435547 C115.8486557006836 115.46626281738281 115.26826477050781 116.57315063476562 115.2939682006836 117.5621337890625 C115.31966400146484 118.5511245727539 115.95144653320312 119.42221069335938 117.50629425048828 119.83727264404297 C118.6347427368164 120.13832092285156 120.38701629638672 120.04985046386719 121.86177825927734 119.51061248779297 C123.3365478515625 118.97137451171875 124.5338134765625 117.98136901855469 124.55223846435547 116.4793701171875"></path>
<path fill="#FF815A" fill-opacity="1.0"  filling="0" d="M158.8390350341797 104.69353485107422 C158.85379028320312 103.46719360351562 158.23016357421875 102.52470397949219 157.3302764892578 101.91490936279297 C156.43038940429688 101.30511474609375 155.25421142578125 101.02802276611328 154.16384887695312 101.1324691772461 C153.0330810546875 101.24087524414062 151.87437438964844 101.90743255615234 151.00477600097656 102.79410552978516 C150.13519287109375 103.6807861328125 149.55470275878906 104.78759002685547 149.5803985595703 105.77648162841797 C149.60610961914062 106.765380859375 150.23797607421875 107.63636779785156 151.7930908203125 108.05142974853516 C152.92112731933594 108.35248565673828 154.67318725585938 108.2640151977539 156.14796447753906 107.72477722167969 C157.6227264404297 107.18553924560547 158.8201904296875 106.19554138183594 158.8390350341797 104.69353485107422"></path>
<path fill="#FFDEC7" fill-opacity="1.0"  filling="0" d="M181.833984375 182.91403198242188 C180.6549530029297 182.4169921875 179.58380126953125 181.6423797607422 178.5610809326172 180.7710723876953 C177.53836059570312 179.89976501464844 176.56407165527344 178.93174743652344 175.5787811279297 178.04788208007812 C174.59349060058594 177.1640167236328 173.59718322753906 176.3643035888672 172.53042602539062 175.82957458496094 C171.46368408203125 175.29486083984375 170.32647705078125 175.025146484375 169.0593719482422 175.20126342773438 C167.6126708984375 175.40032958984375 166.46852111816406 176.1273193359375 165.56607055664062 177.16912841796875 C164.66360473632812 178.2109375 164.0028533935547 179.56756591796875 163.52291870117188 181.02590942382812 C163.04298400878906 182.48422241210938 162.743896484375 184.04425048828125 162.56475830078125 185.4928741455078 C162.3856201171875 186.94149780273438 162.13157653808594 188.50015258789062 161.71505737304688 189.97434997558594 C161.29855346679688 191.44854736328125 160.7195587158203 192.83827209472656 159.89053344726562 193.9490203857422 C159.06149291992188 195.0597686767578 157.982421875 195.8915252685547 156.56576538085938 196.24978637695312 C155.0456085205078 196.6359100341797 153.62356567382812 196.359375 152.32066345214844 195.66563415527344 C151.01776123046875 194.97189331054688 149.83401489257812 193.86093139648438 148.7904510498047 192.5782012939453 C147.74688720703125 191.2954559326172 146.84347534179688 189.84091186523438 146.10128784179688 188.46002197265625 C145.3612823486328 187.07720947265625 144.47390747070312 185.61611938476562 143.4491729736328 184.3192596435547 C142.4244384765625 183.02239990234375 141.26235961914062 181.88978576660156 139.9729461669922 181.16392517089844 C138.6835174560547 180.43804931640625 137.26675415039062 180.11892700195312 135.73268127441406 180.44906616210938 C134.26876831054688 180.76690673828125 133.04396057128906 181.5574951171875 131.99542236328125 182.63507080078125 C130.94686889648438 183.712646484375 130.07456970214844 185.07723999023438 129.31568908691406 186.5430908203125 C128.55679321289062 188.00894165039062 127.91131591796875 189.57608032226562 127.31639862060547 191.0587615966797 C126.72147369384766 192.5414276123047 126.17711639404297 193.9396514892578 125.62046813964844 195.06768798828125 C125.08525848388672 196.15203857421875 124.40077209472656 197.22381591796875 123.591796875 198.16407775878906 C122.78282165527344 199.10433959960938 121.849365234375 199.91307067871094 120.81619262695312 200.4713134765625 C119.78303527832031 201.02955627441406 118.65016174316406 201.33731079101562 117.44239044189453 201.2755889892578 C116.21257019042969 201.21292114257812 115.0678939819336 200.78463745117188 114.02772521972656 200.11029052734375 C112.98756408691406 199.43594360351562 112.05191040039062 198.5155487060547 111.2401351928711 197.46865844726562 C110.42835998535156 196.42178344726562 109.74046325683594 195.24839782714844 109.19580841064453 194.06809997558594 C108.65115356445312 192.88780212402344 108.24974060058594 191.7005615234375 108.01094055175781 190.6259765625 C107.82293701171875 189.76950073242188 107.6885986328125 188.90997314453125 107.5990982055664 188.046630859375 C107.50959777832031 187.1833038330078 107.46495056152344 186.31617736816406 107.45634460449219 185.44454956054688 C108.5577621459961 186.3636932373047 109.90985870361328 186.91891479492188 111.32984161376953 187.13906860351562 C112.74982452392578 187.35922241210938 114.2376937866211 187.2443389892578 115.61066436767578 186.82327270507812 C117.00740051269531 186.39645385742188 118.29232025146484 185.68765258789062 119.44892883300781 184.79522705078125 C120.60553741455078 183.90280151367188 121.63383483886719 182.8267822265625 122.51734924316406 181.6655731201172 C123.28739166259766 180.65467834472656 123.99244689941406 179.54766845703125 124.72205352783203 178.46966552734375 C125.45166015625 177.39166259765625 126.20580291748047 176.34266662597656 127.07403564453125 175.4477996826172 C127.9422607421875 174.55291748046875 128.92457580566406 173.81219482421875 130.11050415039062 173.3507080078125 C131.54519653320312 172.79364013671875 133.01565551757812 172.74258422851562 134.4755096435547 173.02490234375 C135.93536376953125 173.30722045898438 137.38458251953125 173.9229278564453 138.77679443359375 174.69940185546875 C140.16900634765625 175.47589111328125 141.50421142578125 176.41314697265625 142.73602294921875 177.33856201171875 C143.96754455566406 178.26589965820312 145.2906494140625 179.2144317626953 146.6692657470703 180.01148986816406 C148.04788208007812 180.80853271484375 149.48204040527344 181.4541015625 150.9356689453125 181.7754669189453 C152.3892822265625 182.09683227539062 153.86239624023438 182.09402465820312 155.31893920898438 181.59429931640625 C156.67160034179688 181.13111877441406 157.7823944091797 180.3169403076172 158.74966430664062 179.29762268066406 C159.7169189453125 178.2783203125 160.54063415527344 177.05389404296875 161.31912231445312 175.77023315429688 C162.0976104736328 174.486572265625 162.83087158203125 173.1436767578125 163.61721801757812 171.887451171875 C164.403564453125 170.6312255859375 165.24301147460938 169.46163940429688 166.23387145996094 168.5246124267578 C167.22471618652344 167.58758544921875 168.36697387695312 166.88311767578125 169.75897216796875 166.55706787109375 C171.19749450683594 166.21873474121094 172.60159301757812 166.3660125732422 173.9924774169922 166.75717163085938 C175.38336181640625 167.1483154296875 176.76100158691406 167.78335571289062 178.1466064453125 168.4205322265625 C179.53221130371094 169.05772399902344 180.92575073242188 169.69705200195312 182.3484344482422 170.09683227539062 C183.5901336669922 170.44744873046875 184.8787841796875 170.58804321289062 186.16220092773438 170.53857421875 C187.4456024169922 170.48910522460938 188.7237548828125 170.2495574951172 189.94447326660156 169.83990478515625 C191.16519165039062 169.4302520751953 192.3284454345703 168.85049438476562 193.38206481933594 168.1205596923828 C194.43568420410156 167.39064025878906 195.37966918945312 166.51055908203125 196.1617889404297 165.5002899169922 C196.2568359375 165.95986938476562 196.3403778076172 166.41943359375 196.40673828125 166.88475036621094 C196.5895538330078 168.1524658203125 196.57028198242188 169.55380249023438 196.36724853515625 170.99050903320312 C196.1642303466797 172.42721557617188 195.7774658203125 173.89930725097656 195.22528076171875 175.30853271484375 C194.67311096191406 176.71774291992188 193.95553588867188 178.06410217285156 193.09091186523438 179.2493438720703 C192.2262725830078 180.43458557128906 191.21458435058594 181.45872497558594 190.07418823242188 182.2235107421875 C188.93377685546875 182.98829650878906 187.6646728515625 183.4937286376953 186.28518676757812 183.6415557861328 C184.90570068359375 183.78939819335938 183.41586303710938 183.57962036132812 181.833984375 182.91403198242188"></path>
<path fill="#FFDEC7" fill-opacity="1.0"  filling="0" d="M131.95370483398438 154.6737518310547 C131.88816833496094 153.15072631835938 131.8123016357422 151.6205291748047 131.72117614746094 150.08665466308594 C131.6300506591797 148.5527801513672 131.52366638183594 147.01524353027344 131.3970947265625 145.47750854492188 C131.27053833007812 143.9397735595703 131.123779296875 142.40187072753906 130.95191955566406 140.8672637939453 C130.78005981445312 139.33265686035156 130.5830841064453 137.80137634277344 130.3560791015625 136.27688598632812 C130.1290740966797 134.7523956298828 129.8720245361328 133.23471069335938 129.58001708984375 131.72732543945312 C129.2880096435547 130.21994018554688 128.96102905273438 128.7228546142578 128.59417724609375 127.23955535888672 C128.47866821289062 126.77262115478516 127.71353149414062 126.86026763916016 127.74219512939453 127.35506439208984 C127.83162689208984 128.87686157226562 127.92594909667969 130.3957977294922 128.01930236816406 131.9129638671875 C128.11265563964844 133.43011474609375 128.20501708984375 134.9455108642578 128.29055786132812 136.460205078125 C128.37608337402344 137.97491455078125 128.45477294921875 139.48892211914062 128.520751953125 141.00335693359375 C128.58673095703125 142.51779174804688 128.63999938964844 144.03262329101562 128.67469787597656 145.54896545410156 C128.70938110351562 147.0653076171875 128.7255096435547 148.58314514160156 128.71717834472656 150.10357666015625 C128.7088623046875 151.6240234375 128.67608642578125 153.14703369140625 128.61300659179688 154.6737518310547 C128.55006408691406 156.1995086669922 128.46571350097656 157.72283935546875 128.3643035888672 159.24427795410156 C128.2628936767578 160.76573181152344 128.14443969726562 162.28530883789062 128.01329040527344 163.80355834960938 C127.88214111328125 165.32180786132812 127.7383041381836 166.8387451171875 127.58613586425781 168.3549041748047 C127.43396759033203 169.87107849121094 127.27347564697266 171.386474609375 127.10901641845703 172.9016876220703 C126.9445571899414 174.41688537597656 126.77613067626953 175.931884765625 126.60809326171875 177.44723510742188 C126.4400634765625 178.96258544921875 126.27241516113281 180.478271484375 126.10953521728516 181.99488830566406 C125.9837875366211 183.164306640625 126.90190887451172 183.8827362060547 127.90768432617188 184.01934814453125 C128.9134521484375 184.15594482421875 130.0068817138672 183.71070861816406 130.23175048828125 182.55276489257812 C130.5280303955078 181.02659606933594 130.78448486328125 179.49314880371094 131.00430297851562 177.95416259765625 C131.22413635253906 176.41517639160156 131.40733337402344 174.87066650390625 131.55709838867188 173.3223876953125 C131.7068634033203 171.77410888671875 131.82318115234375 170.22203063964844 131.90927124023438 168.66793823242188 C131.99534606933594 167.1138458251953 132.0511932373047 165.5577392578125 132.07998657226562 164.0013427734375 C132.10877990722656 162.4449462890625 132.1105194091797 160.88829040527344 132.08840942382812 159.33309936523438 C132.06629943847656 157.77792358398438 132.02032470703125 156.22421264648438 131.95370483398438 154.6737518310547"></path>
<path fill="#FFDEC7" fill-opacity="1.0"  filling="0" d="M163.3765869140625 142.09083557128906 C162.9022674560547 140.6610565185547 162.41729736328125 139.23501586914062 161.91844177246094 137.8140106201172 C161.41958618164062 136.39300537109375 160.9068145751953 134.97702026367188 160.37692260742188 133.5673828125 C159.84701538085938 132.15774536132812 159.2999725341797 130.75445556640625 158.7325439453125 129.35882568359375 C158.3499755859375 128.41796875 157.9661865234375 127.49576568603516 157.55575561523438 126.58645629882812 C157.1453399658203 125.67713928222656 156.7082977294922 124.78073120117188 156.21923828125 123.89149475097656 C156.46826171875 124.3445053100586 154.70535278320312 121.36343383789062 153.9656219482422 121.03247833251953 C153.99264526367188 120.99725341796875 153.98855590820312 120.93827056884766 153.96725463867188 120.9046859741211 C153.74197387695312 120.55406951904297 153.78866577148438 120.57373046875 153.37088012695312 120.54833221435547 C153.29550170898438 120.54422760009766 153.20867919921875 120.59420776367188 153.17343139648438 120.661376953125 C152.8064422607422 121.37490844726562 153.04483032226562 121.56331634521484 153.24554443359375 122.32926940917969 C153.5199737548828 123.37907409667969 153.77761840820312 124.44096374511719 154.04917907714844 125.50029754638672 C154.32073974609375 126.55963134765625 154.60623168945312 127.61639404296875 154.93637084960938 128.6559600830078 C155.40904235839844 130.14553833007812 155.8750762939453 131.63803100585938 156.33236694335938 133.13340759277344 C156.7896728515625 134.6287841796875 157.23822021484375 136.1270294189453 157.6759490966797 137.62814331054688 C158.11367797851562 139.12924194335938 158.5405731201172 140.63320922851562 158.9545440673828 142.13998413085938 C159.36741638183594 143.6429443359375 159.75192260742188 145.15724182128906 160.1195831298828 146.67840576171875 C160.48724365234375 148.1995849609375 160.83807373046875 149.72763061523438 161.18360900878906 151.25811767578125 C161.52914428710938 152.78858947753906 161.869384765625 154.32150268554688 162.21588134765625 155.8523712158203 C162.56236267089844 157.3832550048828 162.91510009765625 158.912109375 163.28561401367188 160.43447875976562 C163.6561279296875 161.95684814453125 164.04444885253906 163.47274780273438 164.4620819091797 164.97772216796875 C164.8797149658203 166.48269653320312 165.32669067382812 167.97674560546875 165.81451416015625 169.4553985595703 C166.15284729003906 170.4814453125 167.18032836914062 170.9424591064453 168.10418701171875 170.84947204589844 C169.02804565429688 170.75650024414062 169.8482666015625 170.10952758789062 169.77207946777344 168.91964721679688 C169.67527770996094 167.40753173828125 169.51219177246094 165.89263916015625 169.29441833496094 164.3781280517578 C169.07664489746094 162.86361694335938 168.80418395996094 161.34951782226562 168.48863220214844 159.83901977539062 C168.173095703125 158.32852172851562 167.814453125 156.82162475585938 167.42434692382812 155.321533203125 C167.03424072265625 153.82144165039062 166.61264038085938 152.32815551757812 166.17117309570312 150.84486389160156 C165.72970581054688 149.361572265625 165.26834106445312 147.8883056640625 164.7987060546875 146.42822265625 C164.32908630371094 144.96815490722656 163.85116577148438 143.52130126953125 163.3765869140625 142.09083557128906"></path></svg>