<svg xmlns="http://www.w3.org/2000/svg" viewBox="0.0 0.0 256.0 256.0" height="256.0px" width="256.0px"><path fill="#6E9B31" fill-opacity="1.0"  filling="0" d="M108.12411499023438 137.41445922851562 C108.12411499023438 137.41445922851562 108.56792449951172 138.06631469726562 108.92957305908203 139.1605682373047 C109.29122161865234 140.25482177734375 109.57070922851562 141.79144287109375 109.24208068847656 143.56101989746094 C108.91344451904297 145.33058166503906 107.9766845703125 147.33306884765625 105.90582275390625 149.35903930664062 C104.87039184570312 150.37205505371094 103.5744400024414 151.14291381835938 102.10489654541016 151.70457458496094 C100.63536071777344 152.2662353515625 98.99224090576172 152.61871337890625 97.26248168945312 152.7949676513672 C95.53273010253906 152.97122192382812 93.71633911132812 152.97125244140625 91.90025329589844 152.82801818847656 C90.08417510986328 152.68478393554688 88.26840209960938 152.39830017089844 86.5398941040039 152.00152587890625 C84.8113784790039 151.60476684570312 83.17012023925781 151.0977020263672 81.70307159423828 150.51332092285156 C80.23601531982422 149.92893981933594 78.94316864013672 149.26724243164062 77.91146850585938 148.56117248535156 C75.84806823730469 147.1490478515625 74.7326431274414 146.0965576171875 74.37667846679688 145.3099365234375 C74.02072143554688 144.5233154296875 74.42420959472656 144.00259399414062 75.39865112304688 143.65399169921875 C76.37308502197266 143.30538940429688 77.91845703125 143.12890625 79.84625244140625 143.03082275390625 C81.96235656738281 142.923095703125 84.02291870117188 142.54013061523438 85.90559387207031 141.96807861328125 C87.78827667236328 141.3960418701172 89.49308013916016 140.63494873046875 90.89768981933594 139.77099609375 C92.30229187011719 138.90704345703125 93.40670776367188 137.94024658203125 94.08859252929688 136.95680236816406 C94.7704849243164 135.9733428955078 95.02986145019531 134.97323608398438 94.744384765625 134.04269409179688 C94.45892333984375 133.11224365234375 95.15242004394531 132.85775756835938 96.3532485961914 132.9993896484375 C97.55406951904297 133.1410369873047 99.26222229003906 133.67881774902344 101.00605010986328 134.33290100097656 C102.7498779296875 134.9869842529297 104.5293960571289 135.7573699951172 105.87295532226562 136.36424255371094 C107.21651458740234 136.9711151123047 108.12411499023438 137.41445922851562 108.12411499023438 137.41445922851562"></path>
<path fill="#6E9B31" fill-opacity="1.0"  filling="0" d="M153.98651123046875 130.22537231445312 C153.98651123046875 130.22537231445312 154.4898681640625 130.37893676757812 155.2257080078125 130.7692413330078 C155.9615478515625 131.15956115722656 156.9298553466797 131.78662109375 157.8597869873047 132.73361206054688 C158.78970336914062 133.6806182861328 159.68124389648438 134.9475555419922 160.26351928710938 136.61761474609375 C160.84579467773438 138.2876739501953 161.11880493164062 140.36085510253906 160.81167602539062 142.92034912109375 C160.65811157226562 144.2000732421875 160.26780700683594 145.4627227783203 159.68499755859375 146.6939239501953 C159.10218811035156 147.9251251220703 158.32688903808594 149.12486267089844 157.4033660888672 150.2787628173828 C156.47982788085938 151.43264770507812 155.40806579589844 152.54067993164062 154.23231506347656 153.5884552001953 C153.0565643310547 154.63623046875 151.77682495117188 155.62376403808594 150.4373779296875 156.53663635253906 C149.09793090820312 157.44952392578125 147.69874572753906 158.28775024414062 146.2841033935547 159.03692626953125 C144.8694610595703 159.78610229492188 143.43936157226562 160.4462432861328 142.03805541992188 161.0029296875 C140.63674926757812 161.55963134765625 139.26422119140625 162.01287841796875 137.96475219726562 162.34828186035156 C136.665283203125 162.68368530273438 135.43887329101562 162.9012451171875 134.3297576904297 162.98658752441406 C131.37213134765625 163.21414184570312 129.55845642089844 163.0697479248047 128.64471435546875 162.60682678222656 C127.73095703125 162.14390563964844 127.71713256835938 161.36245727539062 128.3592071533203 160.31590270996094 C129.0012969970703 159.26934814453125 130.2992706298828 157.95770263671875 132.00912475585938 156.43435668945312 C133.51068115234375 155.09658813476562 134.8484344482422 153.62232971191406 135.9972686767578 152.09893798828125 C137.14608764648438 150.57554626464844 138.1060028076172 149.00302124023438 138.8518524169922 147.46871948242188 C139.59771728515625 145.93441772460938 140.12953186035156 144.43832397460938 140.42218017578125 143.06784057617188 C140.71484375 141.6973419189453 140.76832580566406 140.45242309570312 140.5575408935547 139.4204559326172 C140.3467559814453 138.38848876953125 139.8717041015625 137.5694580078125 139.10723876953125 137.05075073242188 C138.15176391601562 136.4022979736328 138.60397338867188 135.6514892578125 139.81976318359375 134.89002990722656 C141.03553771972656 134.12857055664062 143.014892578125 133.3564453125 145.11366271972656 132.66539001464844 C147.21243286132812 131.97433471679688 149.43064880371094 131.36431884765625 151.12417602539062 130.9270782470703 C152.81768798828125 130.48983764648438 153.98651123046875 130.22537231445312 153.98651123046875 130.22537231445312"></path>
<path fill="#ADB518" fill-opacity="1.0"  filling="0" d="M153.11569213867188 135.3275604248047 C152.73333740234375 135.54827880859375 152.34042358398438 135.7664794921875 151.93649291992188 135.9818115234375 C151.1046600341797 136.4205322265625 150.2296905517578 136.8433074951172 149.3116455078125 137.2418212890625 C149.01547241210938 137.37362670898438 148.71395874023438 137.500244140625 148.40704345703125 137.62686157226562 C147.3221435546875 138.07098388671875 146.18067932128906 138.48837280273438 144.98802185058594 138.8760986328125 C144.5867919921875 139.00790405273438 144.17771911621094 139.134521484375 143.76303100585938 139.25845336914062 C143.62025451660156 139.3015594482422 143.4749755859375 139.34445190429688 143.3297119140625 139.38487243652344 C142.93118286132812 139.50341796875 142.52479553222656 139.61366271972656 142.11550903320312 139.721435546875 C142.0077362060547 139.75375366210938 141.90016174316406 139.78338623046875 141.7897186279297 139.80763244628906 C141.67926025390625 139.8372802734375 141.57171630859375 139.8642120361328 141.46124267578125 139.89364624023438 C141.24053955078125 139.95022583007812 141.0198211669922 140.00408935546875 140.7962188720703 140.0579833984375 C140.19046020507812 140.20616149902344 139.5739288330078 140.34603881835938 138.94662475585938 140.48074340820312 C138.6343231201172 140.548095703125 138.31932067871094 140.61276245117188 138.00160217285156 140.6745147705078 C137.6812286376953 140.73648071289062 137.36083984375 140.79843139648438 137.0404510498047 140.85751342773438 C136.73353576660156 140.91409301757812 136.4239044189453 140.96795654296875 136.1143035888672 141.0218505859375 C135.74002075195312 141.08380126953125 135.44927978515625 141.12960815429688 135.15582275390625 141.1754150390625 C134.91085815429688 141.213134765625 134.66322326660156 141.25064086914062 134.4155731201172 141.28564453125 C134.1679229736328 141.32337951660156 133.92027282714844 141.3583984375 133.6697235107422 141.39073181152344 C133.54579162597656 141.4095916748047 133.41937255859375 141.42575073242188 133.29275512695312 141.43922424316406 C132.79745483398438 141.50656127929688 132.2992401123047 141.56564331054688 131.79586791992188 141.61952209472656 C131.54551696777344 141.649169921875 131.29248046875 141.67608642578125 131.03944396972656 141.70013427734375 C130.8672332763672 141.71630859375 130.69482421875 141.73245239257812 130.52259826660156 141.74862670898438 C130.03268432617188 141.797119140625 129.53717041015625 141.8400115966797 129.03648376464844 141.8750457763672 C128.7161102294922 141.9019775390625 128.3903350830078 141.9235382080078 128.06724548339844 141.94509887695312 C127.77110290527344 141.96395874023438 127.47496032714844 141.98011779785156 127.17880249023438 141.99627685546875 C126.80184936523438 142.01783752441406 126.41970825195312 142.0366973876953 126.037353515625 142.0501708984375 C125.85433959960938 142.05824279785156 125.66845703125 142.0663299560547 125.48277282714844 142.07171630859375 C125.32133483886719 142.0771026611328 125.15699768066406 142.08248901367188 124.99285888671875 142.08787536621094 C124.82852172851562 142.09326171875 124.66439819335938 142.09864807128906 124.50027465820312 142.10134887695312 C124.19332885742188 142.10943603515625 123.88911437988281 142.11480712890625 123.58757019042969 142.12020874023438 C123.28335571289062 142.12557983398438 122.98452758789062 142.1282958984375 122.68299865722656 142.1309814453125 C121.74336242675781 142.13906860351562 120.82260131835938 142.13636779785156 119.92091369628906 142.12289428710938 C119.67327880859375 142.12020874023438 119.42561340332031 142.11480712890625 119.177978515625 142.10943603515625 C118.36227416992188 142.090576171875 117.56544494628906 142.06362915039062 116.78189086914062 142.02862548828125 C116.3350830078125 142.00706481933594 115.89344787597656 141.98281860351562 115.45742797851562 141.95855712890625 C115.38198852539062 141.95587158203125 115.30654907226562 141.95046997070312 115.23402404785156 141.94509887695312 C114.97560119628906 141.92892456054688 114.71986389160156 141.91275024414062 114.46682739257812 141.89659118652344 C114.27305603027344 141.88311767578125 114.08177185058594 141.86965942382812 113.89070129394531 141.85348510742188 C112.91876220703125 141.78074645996094 111.97665405273438 141.6947479248047 111.05859375 141.59506225585938 C110.29408264160156 141.51174926757812 109.5455322265625 141.420166015625 108.81875610351562 141.31777954101562 C108.66000366210938 141.29623413085938 108.50105285644531 141.27468872070312 108.34231567382812 141.25042724609375 C107.83354187011719 141.1776885986328 107.33285522460938 141.09954833984375 106.84274291992188 141.01895141601562 C106.39324951171875 140.94351196289062 105.94892883300781 140.86538696289062 105.51559448242188 140.78207397460938 C103.26156616210938 140.36074829101562 101.22325134277344 139.8541259765625 99.40523529052734 139.281982421875 C97.58721160888672 138.70985412597656 95.98948669433594 138.0722198486328 94.61665344238281 137.38890075683594 C93.24382019042969 136.70559692382812 92.09586334228516 135.97659301757812 91.1773910522461 135.2217254638672 C90.2589111328125 134.46685791015625 89.56991577148438 133.68612670898438 89.11497497558594 132.89935302734375 C88.80535888671875 132.3636474609375 88.603515625 131.8252410888672 88.51190185546875 131.28953552246094 C88.4876708984375 131.16311645507812 88.47149658203125 131.03379821777344 88.46340942382812 130.90716552734375 C88.4176025390625 130.2933349609375 88.59004211425781 129.46954345703125 88.96141052246094 128.48684692382812 C88.98295593261719 128.43295288085938 89.0045166015625 128.3765869140625 89.02607727050781 128.32000732421875 C89.32311248779297 127.56980895996094 89.73291778564453 126.73164367675781 90.24890899658203 125.82766723632812 C90.76490020751953 124.92369079589844 91.3870849609375 123.95388793945312 92.10887908935547 122.94042205810547 C92.83068084716797 121.92694854736328 93.652099609375 120.86980438232422 94.56657409667969 119.79113006591797 C95.21543884277344 119.02372741699219 95.91259765625 118.24844360351562 96.65304565429688 117.46778869628906 C97.02194213867188 117.08003234863281 97.40159606933594 116.68980407714844 97.79450988769531 116.29937744140625 C98.7410888671875 115.3565673828125 99.75055694580078 114.41505432128906 100.81881713867188 113.48863220214844 C101.88707733154297 112.56221771240234 103.01412963867188 111.6509017944336 104.19588470458984 110.76849365234375 C105.37763977050781 109.8860855102539 106.61408996582031 109.03258514404297 107.90115356445312 108.2218017578125 C109.18821716308594 107.4110107421875 110.52587890625 106.6429443359375 111.91007232666016 105.93138885498047 C113.29425811767578 105.21984100341797 114.72496032714844 104.56480407714844 116.19808959960938 103.9801025390625 C116.62625122070312 103.80769348144531 117.056884765625 103.64353942871094 117.49313354492188 103.48750305175781 C118.10427856445312 103.26409149169922 118.72079467773438 103.05416870117188 119.34541320800781 102.85749816894531 C119.86766052246094 102.69046020507812 120.39527893066406 102.537109375 120.92582702636719 102.39183044433594 C121.41304016113281 102.25733947753906 121.90585327148438 102.13340759277344 122.40115356445312 102.01756286621094 C123.30033874511719 101.80763244628906 124.2103271484375 101.6246337890625 125.13108825683594 101.47377014160156 C125.5751953125 101.40103149414062 126.02490234375 101.33657836914062 126.47442626953125 101.27999877929688 C127.44366455078125 101.1535873413086 128.42347717285156 101.06468963623047 129.41697692871094 101.01349639892578 C130.9472198486328 100.93433380126953 132.43515014648438 100.95057678222656 133.87826538085938 101.05119323730469 C135.32138061523438 101.15180969238281 136.71969604492188 101.33678436279297 138.07073974609375 101.5950698852539 C139.42178344726562 101.85336303710938 140.72555541992188 102.18496704101562 141.97955322265625 102.57884216308594 C143.2335662841797 102.97271728515625 144.43783569335938 103.4288558959961 145.58985900878906 103.93621826171875 C146.7418975830078 104.44357299804688 147.84170532226562 105.00215148925781 148.8867950439453 105.60090637207031 C149.30685424804688 105.8404769897461 149.7159423828125 106.08543395996094 150.11715698242188 106.33848571777344 C150.91937255859375 106.84185791015625 151.68927001953125 107.37239074707031 152.41896057128906 107.91617584228516 C152.489013671875 107.97006225585938 152.56155395507812 108.02394104003906 152.631591796875 108.0776138305664 C153.35049438476562 108.62141418457031 154.0341796875 109.18136596679688 154.67764282226562 109.75748443603516 C154.97647094726562 110.02400207519531 155.26724243164062 110.29051208496094 155.54989624023438 110.56240844726562 C156.22842407226562 111.20857238769531 156.85821533203125 111.86550903320312 157.43453979492188 112.52494812011719 C157.79263305664062 112.9261703491211 158.12649536132812 113.32986450195312 158.4442138671875 113.73107147216797 C159.51034545898438 115.08392333984375 160.3644256591797 116.42863464355469 160.99166870117188 117.69831085205078 C161.61892700195312 118.96797943115234 162.0193634033203 120.16260528564453 162.17820739746094 121.21527099609375 C162.38197326660156 122.56537628173828 162.319091796875 123.88856506347656 162.00973510742188 125.1723861694336 C161.70037841796875 126.45620727539062 161.14456176757812 127.7006607055664 160.36244201660156 128.89329528808594 C159.580322265625 130.08592224121094 158.57192993164062 131.2267303466797 157.35740661621094 132.30325317382812 C156.14288330078125 133.37979125976562 154.72225952148438 134.39202880859375 153.11569213867188 135.3275604248047"></path>
<path fill="#6E9B31" fill-opacity="1.0"  filling="0" d="M95.56257629394531 128.04129028320312 C95.56257629394531 128.04129028320312 95.11894226074219 128.3484344482422 94.3127212524414 128.77500915527344 C93.50650024414062 129.20159912109375 92.33768463134766 129.74761962890625 90.8873291015625 130.22540283203125 C89.43696594238281 130.7031707763672 87.70506286621094 131.11268615722656 85.77265930175781 131.26626586914062 C83.84025573730469 131.41983032226562 81.70735168457031 131.3174591064453 79.45498657226562 130.7714385986328 C77.95344543457031 130.4074249267578 77.07754516601562 130.49462890625 76.71733093261719 130.85800170898438 C76.35711669921875 131.22137451171875 76.51258850097656 131.8609161376953 77.07377624511719 132.60157775878906 C77.63496398925781 133.3422393798828 78.60187530517578 134.1840057373047 79.86454010009766 134.95184326171875 C81.12720489501953 135.7196807861328 82.68563079833984 136.41357421875 84.42984771728516 136.85848999023438 C86.17406463623047 137.30340576171875 88.10408020019531 137.4993133544922 90.10992431640625 137.27117919921875 C92.11576843261719 137.04306030273438 94.19744873046875 136.390869140625 96.2449951171875 135.1396026611328 C100.34015655517578 132.63699340820312 101.62937927246094 131.0140838623047 101.52828216552734 129.96249389648438 C101.42718505859375 128.910888671875 99.93576049804688 128.4305877685547 98.4696044921875 128.21319580078125 C97.00345611572266 127.99578857421875 95.56257629394531 128.04129028320312 95.56257629394531 128.04129028320312"></path>
<path fill="#6E9B31" fill-opacity="1.0"  filling="0" d="M191.51443481445312 121.42437744140625 C191.2331085205078 122.26431274414062 190.85079956054688 123.08880615234375 190.3540802001953 123.88167572021484 C189.85736083984375 124.67454528808594 189.2462158203125 125.43577575683594 188.5072021484375 126.14920043945312 C187.85647583007812 126.77763366699219 187.10679626464844 127.36930847167969 186.24891662597656 127.91339111328125 C185.3910369873047 128.4574737548828 184.4249725341797 128.95394897460938 183.3414764404297 129.39199829101562 C182.2579803466797 129.83004760742188 181.05706787109375 130.20965576171875 179.72947692871094 130.52000427246094 C178.40188598632812 130.83033752441406 176.9476318359375 131.0714111328125 175.3574676513672 131.23236083984375 C173.76730346679688 131.393310546875 172.04122924804688 131.47415161132812 170.17002868652344 131.46401977539062 C168.298828125 131.4539031982422 166.282470703125 131.3528289794922 164.1117401123047 131.14996337890625 C161.94100952148438 130.94711303710938 159.61590576171875 130.6424560546875 157.127197265625 130.22515869140625 L157.33184814453125 125.44790649414062 L157.5364990234375 120.670654296875 C157.5364990234375 120.670654296875 158.3857421875 120.97396087646484 159.68995666503906 121.10027313232422 C160.99417114257812 121.22659301757812 162.7533721923828 121.17591857910156 164.5732879638672 120.46795654296875 C166.39320373535156 119.76000213623047 168.2738494873047 118.39476013183594 169.82095336914062 115.89195251464844 C170.91665649414062 114.11944580078125 171.99998474121094 112.52083587646484 173.08775329589844 111.13351440429688 C174.17550659179688 109.74618530273438 175.26771545410156 108.57013702392578 176.38116455078125 107.64273834228516 C177.49461364746094 106.71533966064453 178.62933349609375 106.03658294677734 179.8021240234375 105.64385223388672 C180.97491455078125 105.25111389160156 182.185791015625 105.14440155029297 183.45155334472656 105.36107635498047 C184.7173309326172 105.57774353027344 186.03799438476562 106.11781311035156 187.43038940429688 107.01863098144531 C188.2279510498047 107.53485870361328 189.00396728515625 108.33106994628906 189.68885803222656 109.32556915283203 C190.37376403808594 110.320068359375 190.96755981445312 111.51286315917969 191.40065002441406 112.82225799560547 C191.83375549316406 114.13165283203125 192.10617065429688 115.55764770507812 192.14833068847656 117.01856994628906 C192.1904754638672 118.47948455810547 192.00238037109375 119.97531127929688 191.51443481445312 121.42437744140625"></path>
<path fill="#FCF3D9" fill-opacity="1.0"  filling="0" d="M187.05694580078125 113.81227111816406 C187.05836486816406 115.10608673095703 186.54483032226562 116.34871673583984 185.63046264648438 117.26408386230469 C184.71609497070312 118.17945098876953 183.47402954101562 118.69432067871094 182.1802215576172 118.69432067871094 C180.88641357421875 118.69432067871094 179.64434814453125 118.17945098876953 178.72998046875 117.26408386230469 C177.81561279296875 116.34871673583984 177.3020782470703 115.10608673095703 177.30349731445312 113.81227111816406 C177.3020782470703 112.51854705810547 177.81561279296875 111.27591705322266 178.72998046875 110.36054992675781 C179.64434814453125 109.44518280029297 180.88641357421875 108.93031311035156 182.1802215576172 108.93031311035156 C183.47402954101562 108.93031311035156 184.71609497070312 109.44518280029297 185.63046264648438 110.36054992675781 C186.54483032226562 111.27591705322266 187.05836486816406 112.51854705810547 187.05694580078125 113.81236267089844"></path>
<path fill="#000000" fill-opacity="1.0"  filling="0" d="M185.10621643066406 113.80940246582031 C185.107666015625 115.42546081542969 183.7989501953125 116.73664855957031 182.1829071044922 116.73809814453125 C180.56687927246094 116.73955535888672 179.25567626953125 115.43084716796875 179.25421142578125 113.81478881835938 C179.25277709960938 112.19876098632812 180.56149291992188 110.88755798339844 182.17752075195312 110.88610076904297 C183.79354858398438 110.88465881347656 185.10476684570312 112.19357299804688 185.10621643066406 113.80940246582031"></path>
<path fill="#FAFAFA" fill-opacity="1.0"  filling="0" d="M183.87252807617188 112.16331481933594 C183.87313842773438 112.74359130859375 183.40313720703125 113.21463012695312 182.82264709472656 113.21505737304688 C182.24237060546875 113.21566772460938 181.77133178710938 112.74565124511719 181.7709197998047 112.16517639160156 C181.77029418945312 111.58491516113281 182.2403106689453 111.11385345458984 182.82080078125 111.11344909667969 C183.40106201171875 111.113037109375 183.8719024658203 111.58305358886719 183.87252807617188 112.16331481933594"></path>
<path fill="#3E5E15" fill-opacity="1.0"  filling="0" d="M185.802734375 108.3634033203125 C185.68170166015625 108.3634033203125 185.55966186523438 108.32278442382812 185.45913696289062 108.23926544189453 C184.54293823242188 107.47828674316406 183.3780517578125 107.05924224853516 182.17897033691406 107.05924224853516 C180.98175048828125 107.05924224853516 179.81790161132812 107.47828674316406 178.90170288085938 108.23926544189453 C178.67250061035156 108.42930603027344 178.333251953125 108.39759063720703 178.14361572265625 108.1692123413086 C177.95359802246094 107.9404296875 177.985107421875 107.60096740722656 178.21368408203125 107.41114807128906 C179.32281494140625 106.48997497558594 180.7310028076172 105.98265075683594 182.17897033691406 105.98265075683594 C183.62881469726562 105.98265075683594 185.03802490234375 106.48997497558594 186.1471710205078 107.41114807128906 C186.37594604492188 107.60118103027344 186.40725708007812 107.94064331054688 186.2172088623047 108.1692123413086 C186.11090087890625 108.29708862304688 185.95733642578125 108.3634033203125 185.802734375 108.3634033203125"></path>
<path fill="#2A3F0A" fill-opacity="1.0"  filling="0" d="M191.51443481445312 121.42437744140625 C191.2331085205078 122.26431274414062 190.85079956054688 123.08880615234375 190.3540802001953 123.88167572021484 C189.85736083984375 124.67454528808594 189.2462158203125 125.43577575683594 188.5072021484375 126.14920043945312 C187.52996826171875 125.99842834472656 186.66375732421875 125.43712615966797 186.0418701171875 124.61939239501953 C185.4199676513672 123.80165100097656 185.04237365722656 122.72748565673828 185.04237365722656 121.55099487304688 C185.04507446289062 120.94523620605469 185.8688507080078 120.6787338256836 186.27545166015625 121.13361358642578 C186.99435424804688 121.93313598632812 187.9687957763672 122.42326354980469 189.0402069091797 122.42326354980469 C189.97442626953125 122.42326354980469 190.833251953125 122.05168914794922 191.51443481445312 121.42437744140625"></path>
<path fill="#DBD843" fill-opacity="1.0"  filling="0" d="M144.98802185058594 138.87588500976562 C144.5867919921875 139.0076904296875 144.17771911621094 139.1343231201172 143.76303100585938 139.25823974609375 C143.62025451660156 139.30136108398438 143.4749755859375 139.34425354003906 143.3297119140625 139.38467407226562 C142.93118286132812 139.50320434570312 142.52479553222656 139.61346435546875 142.11550903320312 139.72122192382812 C142.0077362060547 139.7535400390625 141.90016174316406 139.78318786621094 141.7897186279297 139.80743408203125 C141.67926025390625 139.83706665039062 141.57171630859375 139.864013671875 141.46124267578125 139.8934326171875 C141.24053955078125 139.95001220703125 141.0198211669922 140.00389099121094 140.7962188720703 140.05776977539062 C140.19046020507812 140.20864868164062 139.5739288330078 140.34854125976562 138.94662475585938 140.48052978515625 C138.6343231201172 140.5478973388672 138.31932067871094 140.612548828125 138.00160217285156 140.67430114746094 C137.6812286376953 140.73626708984375 137.36083984375 140.79823303222656 137.0404510498047 140.8572998046875 C136.73353576660156 140.91387939453125 136.4239044189453 140.96774291992188 136.1143035888672 141.02163696289062 C135.74002075195312 141.0836181640625 135.44927978515625 141.12939453125 135.15582275390625 141.17520141601562 C134.91085815429688 141.21292114257812 134.66322326660156 141.25042724609375 134.4155731201172 141.28546142578125 C134.1679229736328 141.32318115234375 133.92027282714844 141.35818481445312 133.6697235107422 141.39051818847656 C133.54579162597656 141.4093780517578 133.41937255859375 141.425537109375 133.29275512695312 141.4390106201172 C132.79745483398438 141.50637817382812 132.2992401123047 141.5654296875 131.79586791992188 141.6193084716797 C131.54551696777344 141.64894104003906 131.29248046875 141.67588806152344 131.03944396972656 141.69993591308594 C130.8672332763672 141.71609497070312 130.69482421875 141.73226928710938 130.52259826660156 141.7484130859375 C130.03268432617188 141.79690551757812 129.53717041015625 141.83981323242188 129.03648376464844 141.8748321533203 C128.7161102294922 141.90179443359375 128.3903350830078 141.92333984375 128.06724548339844 141.94488525390625 C127.77110290527344 141.9637451171875 127.47496032714844 141.9799041748047 127.17880249023438 141.99606323242188 C126.80184936523438 142.01760864257812 126.41970825195312 142.03648376464844 126.037353515625 142.04995727539062 C125.85433959960938 142.05804443359375 125.66845703125 142.0661163330078 125.48277282714844 142.07150268554688 C125.32133483886719 142.07688903808594 125.15699768066406 142.082275390625 124.99285888671875 142.08767700195312 C124.82852172851562 142.09304809570312 124.66439819335938 142.09844970703125 124.50027465820312 142.10113525390625 C124.19332885742188 142.10922241210938 123.88911437988281 142.1146240234375 123.58757019042969 142.1199951171875 C123.28335571289062 142.12539672851562 122.98452758789062 142.12808227539062 122.68299865722656 142.13076782226562 C121.74336242675781 142.13885498046875 120.82260131835938 142.13616943359375 119.92091369628906 142.12269592285156 C119.67327880859375 142.1199951171875 119.42561340332031 142.1146240234375 119.177978515625 142.10922241210938 C118.36227416992188 142.09036254882812 117.56544494628906 142.06341552734375 116.78189086914062 142.0283966064453 C116.3350830078125 142.0068359375 115.89344787597656 141.98260498046875 115.45742797851562 141.95834350585938 C115.38198852539062 141.95565795898438 115.30654907226562 141.9502716064453 115.23402404785156 141.94488525390625 C114.97560119628906 141.9287109375 114.71986389160156 141.91256713867188 114.46682739257812 141.89639282226562 C114.27305603027344 141.8829345703125 114.08177185058594 141.86944580078125 113.89070129394531 141.85328674316406 C112.91876220703125 141.78054809570312 111.97665405273438 141.69454956054688 111.05859375 141.5948486328125 C111.1178207397461 140.2746124267578 111.20698547363281 138.7811279296875 111.34085845947266 137.22109985351562 C111.4747314453125 135.66107177734375 111.65331268310547 134.03451538085938 111.8913803100586 132.4481658935547 C112.12944793701172 130.86181640625 112.42700958251953 129.315673828125 112.798828125 127.91646575927734 C113.170654296875 126.51726531982422 113.61674499511719 125.2650146484375 114.15187072753906 124.26644134521484 C114.68699645996094 123.26786804199219 115.31117248535156 122.52297973632812 116.03915405273438 122.13851165771484 C117.09449005126953 121.5807113647461 118.44844055175781 121.00039672851562 119.96846771240234 120.45686340332031 C121.48849487304688 119.913330078125 123.17459106445312 119.40657043457031 124.89421844482422 118.99589538574219 C126.61384582519531 118.58521270751953 128.36700439453125 118.27061462402344 130.02114868164062 118.11138153076172 C131.67529296875 117.9521484375 133.23043823242188 117.94828033447266 134.5540313720703 118.1590805053711 C135.87762451171875 118.36988830566406 136.96966552734375 118.79534912109375 137.69760131835938 119.49478149414062 C138.28665161132812 120.06070709228516 138.9229736328125 120.90811920166016 139.56585693359375 121.95526885986328 C140.208740234375 123.00241088867188 140.858154296875 124.2492904663086 141.47340393066406 125.61415100097656 C142.08863830566406 126.97900390625 142.66970825195312 128.4618377685547 143.1758575439453 129.98089599609375 C143.6820068359375 131.4999542236328 144.11325073242188 133.05523681640625 144.42884826660156 134.5649871826172 C144.74444580078125 136.07473754882812 144.94442749023438 137.5389404296875 144.98802185058594 138.87588500976562"></path>
<path fill="#DBD843" fill-opacity="1.0"  filling="0" d="M153.11569213867188 135.3275604248047 C152.73333740234375 135.54827880859375 152.34042358398438 135.7664794921875 151.93649291992188 135.9818115234375 C151.1046600341797 136.4205322265625 150.2296905517578 136.8433074951172 149.3116455078125 137.2418212890625 C148.80079650878906 136.21408081054688 148.2154083251953 134.98997497558594 147.6246795654297 133.6575927734375 C147.03395080566406 132.32521057128906 146.43788146972656 130.8845672607422 145.90567016601562 129.42372131347656 C145.3734588623047 127.96287536621094 144.9051055908203 126.48182678222656 144.56979370117188 125.06867980957031 C144.2344970703125 123.65553283691406 144.03224182128906 122.31027221679688 144.03224182128906 121.12098693847656 C144.03224182128906 119.86978149414062 144.44464111328125 118.68168640136719 145.14010620117188 117.57898712158203 C145.8355712890625 116.47628784179688 146.8140869140625 115.45897674560547 147.94630432128906 114.54935455322266 C149.07852172851562 113.63973236083984 150.36444091796875 112.83779907226562 151.6747283935547 112.16584014892578 C152.98501586914062 111.49388122558594 154.31964111328125 110.951904296875 155.54930114746094 110.56218719482422 C156.227783203125 111.2083740234375 156.8575897216797 111.86531066894531 157.43392944335938 112.52474975585938 C157.79202270507812 112.92594909667969 158.12588500976562 113.32965087890625 158.44357299804688 113.73086547851562 C159.50970458984375 115.08370971679688 160.36380004882812 116.42842864990234 160.9910430908203 117.69810485839844 C161.61830139160156 118.9677734375 162.01873779296875 120.16239929199219 162.17758178710938 121.21505737304688 C162.38150024414062 122.56521606445312 162.31874084472656 123.88844299316406 162.0094757080078 125.17229461669922 C161.70021057128906 126.45614624023438 161.14443969726562 127.70062255859375 160.36236572265625 128.8932647705078 C159.58029174804688 130.08590698242188 158.5718994140625 131.22671508789062 157.35739135742188 132.30325317382812 C156.14288330078125 133.37979125976562 154.72225952148438 134.39202880859375 153.11569213867188 135.3275604248047"></path>
<path fill="#DBD843" fill-opacity="1.0"  filling="0" d="M108.34231567382812 141.25021362304688 C107.83354187011719 141.177490234375 107.33285522460938 141.09934997558594 106.84274291992188 141.01873779296875 C106.39324951171875 140.94329833984375 105.94892883300781 140.86517333984375 105.51559448242188 140.7818603515625 C103.26156616210938 140.3605499267578 101.22325134277344 139.85391235351562 99.40523529052734 139.2817840576172 C97.58721160888672 138.70965576171875 95.98948669433594 138.072021484375 94.61665344238281 137.38870239257812 C93.24382019042969 136.70538330078125 92.09586334228516 135.97637939453125 91.1773910522461 135.2215118408203 C90.2589111328125 134.46664428710938 89.56991577148438 133.6859130859375 89.11497497558594 132.89913940429688 C88.80535888671875 132.36343383789062 88.603515625 131.8250274658203 88.51190185546875 131.289306640625 C88.4876708984375 131.16290283203125 88.47149658203125 131.03359985351562 88.46340942382812 130.90696716308594 C88.4176025390625 130.2931365966797 88.59004211425781 129.4693603515625 88.96141052246094 128.48663330078125 C88.98295593261719 128.4327392578125 89.0045166015625 128.3763885498047 89.02607727050781 128.31980895996094 C89.91854858398438 126.97100067138672 90.95504760742188 125.640380859375 92.06925964355469 124.65739440917969 C93.1834716796875 123.6744155883789 94.37540435791016 123.03907775878906 95.5787353515625 123.0808334350586 C97.21646881103516 123.13650512695312 99.03636932373047 123.22416687011719 100.78527069091797 123.38201141357422 C102.5341796875 123.53985595703125 104.21208953857422 123.76789093017578 105.56585693359375 124.10430908203125 C106.91963195800781 124.44071960449219 107.94926452636719 124.88552856445312 108.40159606933594 125.47691345214844 C108.65463256835938 125.80735778808594 108.88176727294922 126.57646942138672 109.05404663085938 127.6397476196289 C109.22633361816406 128.70303344726562 109.3437728881836 130.0604705810547 109.37742614746094 131.56759643554688 C109.41107177734375 133.07470703125 109.36093139648438 134.73147583007812 109.19806671142578 136.39341735839844 C109.03519439697266 138.05535888671875 108.75959014892578 139.7224578857422 108.34231567382812 141.25021362304688"></path>
<path fill="#DBD843" fill-opacity="1.0"  filling="0" d="M119.67886352539062 114.88850402832031 C118.95111083984375 115.76885223388672 117.78841400146484 116.79336547851562 116.43685150146484 117.77101135253906 C115.08529663085938 118.7486572265625 113.54486846923828 119.679443359375 112.0616683959961 120.37232208251953 C110.57846069335938 121.0652084350586 109.15248107910156 121.52018737792969 108.02980041503906 121.54623413085938 C107.07768249511719 121.56868743896484 105.84017181396484 121.38113403320312 104.42137908935547 121.12109375 C103.00259399414062 120.86104583740234 101.40251922607422 120.52850341796875 99.72528076171875 120.26097869873047 C98.04803466796875 119.99344635009766 96.29362487792969 119.79093170166016 94.566162109375 119.79093170166016 C95.21502685546875 119.02352905273438 95.91218566894531 118.24824523925781 96.65264892578125 117.46758270263672 C97.02151489257812 117.079833984375 97.40118408203125 116.68960571289062 97.79409790039062 116.29917907714844 C98.74067687988281 115.35636901855469 99.7501449584961 114.41485595703125 100.81840515136719 113.48843383789062 C101.88666534423828 112.56201934814453 103.01371765136719 111.65070343017578 104.19547271728516 110.76829528808594 C105.37722778320312 109.8858871459961 106.61367797851562 109.03238677978516 107.90074157714844 108.22159576416016 C109.18780517578125 107.41081237792969 110.52546691894531 106.64273834228516 111.90966033935547 105.93118286132812 C113.2938461303711 105.21963500976562 114.72454833984375 104.56460571289062 116.19767761230469 103.97990417480469 C116.62582397460938 103.8074722290039 117.05645751953125 103.64334869384766 117.49270629882812 103.48728942871094 C118.10386657714844 103.2638931274414 118.72038269042969 103.053955078125 119.34500122070312 102.85729217529297 C119.62235260009766 104.2706527709961 119.90597534179688 105.89222717285156 120.10950469970703 107.48827362060547 C120.31303405761719 109.08432006835938 120.43647766113281 110.65485382080078 120.39348602294922 111.96613311767578 C120.35049438476562 113.27741241455078 120.14106750488281 114.3294448852539 119.67886352539062 114.88850402832031"></path>
<path fill="#DBD843" fill-opacity="1.0"  filling="0" d="M152.63116455078125 108.07740783691406 C151.4789276123047 109.00714874267578 150.0939483642578 109.98201751708984 148.72193908691406 110.88249206542969 C147.34994506835938 111.782958984375 145.99090576171875 112.60903930664062 144.89051818847656 113.24118041992188 C143.79013061523438 113.87332916259766 142.94839477539062 114.31155395507812 142.61102294921875 114.43630981445312 C141.9965057373047 114.66447448730469 140.6500701904297 114.890625 138.95150756835938 115.08484649658203 C137.25294494628906 115.27906799316406 135.2022705078125 115.44136047363281 133.1792755126953 115.54181671142578 C131.15628051757812 115.64227294921875 129.1609649658203 115.68090057373047 127.57315063476562 115.6277847290039 C125.98533630371094 115.57466125488281 124.80500793457031 115.4298095703125 124.4119873046875 115.16329956054688 C123.58904266357422 114.60693359375 123.11040496826172 113.53337097167969 122.83160400390625 112.15837860107422 C122.55281066894531 110.78338623046875 122.47383880615234 109.1069564819336 122.45022583007812 107.34486389160156 C122.42660522460938 105.582763671875 122.45834350585938 103.7350082397461 122.40093994140625 102.01734924316406 C123.30015563964844 101.80742645263672 124.21011352539062 101.62443542480469 125.13087463378906 101.47357177734375 C125.57499694824219 101.40082550048828 126.02470397949219 101.33636474609375 126.47419738769531 101.27980041503906 C127.44345092773438 101.15338134765625 128.42327880859375 101.06448364257812 129.4167938232422 101.01329040527344 C130.94703674316406 100.93412017822266 132.43495178222656 100.95037078857422 133.87806701660156 101.05097961425781 C135.32118225097656 101.1515884399414 136.71949768066406 101.33656311035156 138.07054138183594 101.59485626220703 C139.4215850830078 101.8531494140625 140.725341796875 102.18476104736328 141.97935485839844 102.5786361694336 C143.23336791992188 102.9725112915039 144.4376220703125 103.42865753173828 145.58966064453125 103.93601989746094 C146.74169921875 104.4433822631836 147.84149169921875 105.00196838378906 148.8865966796875 105.60071563720703 C149.30665588378906 105.84028625488281 149.7157440185547 106.08523559570312 150.11697387695312 106.33827209472656 C150.91917419433594 106.8416519165039 151.68905639648438 107.37217712402344 152.41876220703125 107.91596984863281 C152.48838806152344 107.96964263916016 152.56112670898438 108.02352905273438 152.63116455078125 108.07740783691406"></path></svg>