<svg xmlns="http://www.w3.org/2000/svg" viewBox="0.0 0.0 256.0 256.0" height="256.0px" width="256.0px"><path fill="#005ED5" fill-opacity="1.0"  filling="0" d="M132.97613525390625 88.48382568359375 C133.0760040283203 88.07046508789062 133.3636474609375 87.05570983886719 133.7796173095703 85.65231323242188 C134.1956024169922 84.24891662597656 134.7399139404297 82.45687103271484 135.3531494140625 80.48893737792969 C135.9663848876953 78.52100372314453 136.64854431152344 76.3771743774414 137.34019470214844 74.27019500732422 C138.03184509277344 72.16322326660156 138.73300170898438 70.09310150146484 139.3842315673828 68.27259063720703 C140.03546142578125 66.45207214355469 140.63674926757812 64.88117218017578 141.12872314453125 63.77261734008789 C141.62066650390625 62.66407012939453 142.0032958984375 62.01787567138672 142.21713256835938 62.046783447265625 C142.53790283203125 62.08943176269531 142.5218505859375 62.95667266845703 142.32537841796875 64.2573471069336 C142.12890625 65.55802917480469 141.7519989013672 67.29215240478516 141.35104370117188 69.06856536865234 C140.95008850097656 70.844970703125 140.5250701904297 72.6636734008789 140.2323760986328 74.13351440429688 C139.93966674804688 75.60336303710938 139.779296875 76.7243423461914 139.9075927734375 77.10531616210938 C140.40789794921875 78.5933837890625 141.46157836914062 75.25741577148438 142.53970336914062 75.90682983398438 C143.00701904296875 76.18923950195312 141.705322265625 77.87515258789062 142.5611572265625 77.96115112304688 C143.41558837890625 78.04722595214844 144.8692626953125 77.27590942382812 145.29794311523438 76.76411437988281 C145.40509033203125 76.63580322265625 146.07907104492188 75.63040161132812 147.04710388183594 74.21051025390625 C148.01513671875 72.79061889648438 149.27723693847656 70.95623779296875 150.5606689453125 69.16996765136719 C151.84410095214844 67.38369750976562 153.14886474609375 65.64555358886719 154.2021942138672 64.41812133789062 C155.25552368164062 63.19068908691406 156.0574493408203 62.473976135253906 156.335205078125 62.7305908203125 C156.61297607421875 62.987571716308594 156.404296875 63.918251037597656 155.93099975585938 65.18441772460938 C155.4577178955078 66.45057678222656 154.71981811523438 68.0522232055664 153.9391326904297 69.65113830566406 C153.158447265625 71.25004577636719 152.3349609375 72.84622955322266 151.6905517578125 74.10145568847656 C151.04611206054688 75.35668182373047 150.58074951171875 76.27096557617188 150.5162353515625 76.50607299804688 C150.2581787109375 77.446533203125 151.45669555664062 77.70455932617188 152.055908203125 77.10531616210938 C152.2556610107422 76.90557098388672 153.1968994140625 76.03091430664062 154.38217163085938 74.97881317138672 C155.56744384765625 73.92671203613281 156.9967498779297 72.69715881347656 158.17262268066406 71.78761291503906 C159.34849548339844 70.8780746459961 160.27093505859375 70.28854370117188 160.4425048828125 70.5164794921875 C160.6990966796875 70.8591079711914 160.01455688476562 72.78407287597656 159.18020629882812 74.73054504394531 C158.34585571289062 76.67701721191406 157.36170959472656 78.64498901367188 157.01907348632812 79.07363891601562 C156.33380126953125 79.92950439453125 157.44625854492188 79.75749206542969 158.3021240234375 79.15969848632812 C159.15802001953125 78.56044006347656 161.6380615234375 78.04722595214844 161.6380615234375 79.67288208007812 C161.6380615234375 80.48503112792969 160.54708862304688 82.0677261352539 159.5204620361328 83.47964477539062 C158.49383544921875 84.89155578613281 157.5315399169922 86.1326904296875 157.78887939453125 86.26171875 C158.04550170898438 86.39004516601562 158.98666381835938 85.91911315917969 160.04556274414062 85.49099731445312 C161.1044464111328 85.0628890991211 162.28106689453125 84.67759704589844 163.00860595703125 84.97720336914062 C163.73617553710938 85.27610778808594 163.9286346435547 86.21727752685547 163.78958129882812 87.21220397949219 C163.6505126953125 88.20713806152344 163.17994689941406 89.25582885742188 162.58145141601562 89.769775390625 C161.3829345703125 90.7947998046875 160.4425048828125 91.90725708007812 161.55352783203125 91.56607055664062 C162.66455078125 91.223388671875 165.57476806640625 90.6241455078125 166.00341796875 92.33587646484375 C166.2177276611328 93.19100952148438 165.61883544921875 94.23933410644531 164.8701171875 95.14878845214844 C164.12142944335938 96.05823516845703 163.22291564941406 96.82881164550781 162.8380126953125 97.12844848632812 C162.0667724609375 97.72622680664062 164.72320556640625 97.04095458984375 166.04788208007812 97.89825439453125 C166.71018981933594 98.32546997070312 166.82737731933594 99.3519287109375 166.62918090820312 100.32498168945312 C166.4309844970703 101.29803466796875 165.9174041748047 102.21768188476562 165.31817626953125 102.4312744140625 C164.12109375 102.85992431640625 161.46893310546875 103.20111083984375 162.58145141601562 103.28860473632812 C163.69244384765625 103.3746337890625 166.9166259765625 104.487060546875 166.71734619140625 105.34149169921875 C166.51663208007812 106.19882202148438 163.09463500976562 107.738525390625 162.8380126953125 108.1671142578125 C162.58145141601562 108.59429931640625 164.377685546875 109.62081909179688 165.23358154296875 110.30609130859375 C166.08944702148438 110.9898681640625 166.688720703125 112.10235595703125 165.83279418945312 112.78619384765625 C164.97552490234375 113.47000122070312 166.688720703125 115.353759765625 166.00341796875 116.294189453125 C165.31817626953125 117.23468017578125 165.74676513671875 117.23468017578125 166.00341796875 118.26113891601562 C166.26144409179688 119.28756713867188 166.17401123046875 120.486083984375 165.57476806640625 120.9146728515625 C164.97552490234375 121.34335327148438 165.14752197265625 122.2838134765625 165.40420532226562 122.9676513671875 C165.66220092773438 123.65432739257812 165.31817626953125 124.25357055664062 164.804931640625 124.6793212890625 C164.29315185546875 125.1065673828125 164.63433837890625 125.705810546875 164.63433837890625 126.98883056640625 C164.63433837890625 128.27334594726562 163.17922973632812 128.4439697265625 163.52325439453125 129.043212890625 C163.864501953125 129.6424560546875 163.95196533203125 130.58291625976562 163.2652587890625 131.61077880859375 C162.58145141601562 132.63726806640625 162.8380126953125 132.72186279296875 162.666015625 133.74969482421875 C162.49542236328125 134.77618408203125 161.89617919921875 135.632080078125 161.296875 135.71661376953125 C160.69906616210938 135.8026123046875 160.9556884765625 135.71661376953125 160.35647583007812 136.8291015625 C159.75723266601562 137.94012451171875 158.90277099609375 137.68353271484375 158.90277099609375 138.454833984375 C158.90277099609375 139.22463989257812 158.216064453125 140.76434326171875 157.53369140625 140.76434326171875 C156.84701538085938 140.76434326171875 156.84701538085938 142.39004516601562 155.64996337890625 142.47607421875 C155.05142211914062 142.5183563232422 153.9697723388672 142.32589721679688 152.85354614257812 142.005126953125 C151.7373046875 141.68435668945312 150.58648681640625 141.23529052734375 149.849609375 140.76434326171875 C149.48153686523438 140.52886962890625 148.9005584716797 139.63035583496094 148.22549438476562 138.36959838867188 C147.55043029785156 137.10882568359375 146.78125 135.48580932617188 146.03677368164062 133.80133056640625 C145.2922821044922 132.11685180664062 144.57247924804688 130.3708953857422 143.99615478515625 128.86427307128906 C143.41981506347656 127.35763549804688 142.98695373535156 126.09033203125 142.81634521484375 125.36312866210938 C142.73068237304688 124.99935913085938 142.5126953125 124.15028381347656 142.19677734375 122.94293212890625 C141.88087463378906 121.7355728149414 141.467041015625 120.16992950439453 140.98971557617188 118.37300872802734 C140.51239013671875 116.57608032226562 139.97158813476562 114.5478744506836 139.40170288085938 112.41539764404297 C138.83181762695312 110.28292083740234 138.2328643798828 108.04617309570312 137.63926696777344 105.83216094970703 C137.04566955566406 103.61814880371094 136.45742797851562 101.42687225341797 135.90895080566406 99.38533782958984 C135.36048889160156 97.34380340576172 134.85179138183594 95.45201110839844 134.41729736328125 93.83697509765625 C133.98281860351562 92.22193908691406 133.62252807617188 90.88365173339844 133.370849609375 89.9491195678711 C133.1191864013672 89.01459503173828 132.97613525390625 88.48382568359375 132.97613525390625 88.48382568359375"></path>
<path fill="#005ED5" fill-opacity="1.0"  filling="0" d="M149.233154296875 149.74725341796875 C149.58871459960938 149.55587768554688 150.74420166015625 149.12364196777344 151.810791015625 148.58102416992188 C152.87738037109375 148.03839111328125 153.85507202148438 147.38539123535156 153.85507202148438 146.75247192382812 C153.85507202148438 145.7252960205078 154.49661254882812 144.2279052734375 155.13816833496094 142.98728942871094 C155.77972412109375 141.74668884277344 156.4212646484375 140.76287841796875 156.4212646484375 140.76287841796875 C156.96888732910156 140.814208984375 158.07435607910156 140.87281799316406 159.50152587890625 140.94192504882812 C160.92869567871094 141.0110321044922 162.67758178710938 141.0906219482422 164.5120086669922 141.1839141845703 C166.346435546875 141.2772216796875 168.2664337158203 141.38421630859375 170.0358428955078 141.5081329345703 C171.80523681640625 141.63204956054688 173.424072265625 141.77288818359375 174.65615844726562 141.933837890625 C175.88824462890625 142.0948028564453 176.73361206054688 142.27587890625 176.95611572265625 142.48031616210938 C178.06857299804688 143.4996337890625 176.87005615234375 143.84225463867188 175.33038330078125 144.35693359375 C174.56057739257812 144.61285400390625 173.02053833007812 144.7200164794922 171.65142822265625 144.83810424804688 C170.2823486328125 144.95619201660156 169.08419799804688 145.085205078125 168.99819946289062 145.38482666015625 C168.96408081054688 145.50439453125 169.6897735595703 145.74717712402344 170.8768310546875 146.07077026367188 C172.0638885498047 146.3943634033203 173.71231079101562 146.7987518310547 175.52365112304688 147.24151611328125 C177.3350067138672 147.68426513671875 179.3092803955078 148.16539001464844 181.14804077148438 148.64244079589844 C182.98678588867188 149.11947631835938 184.69003295898438 149.59246826171875 185.95932006835938 150.01893615722656 C187.22862243652344 150.44540405273438 188.06396484375 150.82537841796875 188.16690063476562 151.11639404296875 C188.67864990234375 152.57144165039062 187.22357177734375 153.34130859375 185.5133056640625 153.4259033203125 C184.65744018554688 153.4696044921875 182.71060180664062 152.9990234375 180.84942626953125 152.5603485107422 C178.98825073242188 152.12167358398438 177.21273803710938 151.7148895263672 176.69952392578125 151.88619995117188 C176.44253540039062 151.97149658203125 177.17510986328125 152.4901885986328 178.457275390625 153.2349395751953 C179.73944091796875 153.9796905517578 181.57122802734375 154.9505157470703 183.51268005371094 155.9400634765625 C185.45413208007812 156.92959594726562 187.5052490234375 157.9378662109375 189.2261199951172 158.7575225830078 C190.9469757080078 159.57717895507812 192.33758544921875 160.20822143554688 192.95797729492188 160.44332885742188 C195.43807983398438 161.3837890625 196.37994384765625 163.01092529296875 195.096923828125 163.35214233398438 C194.4539337158203 163.52273559570312 193.42709350585938 163.45822143554688 192.3789520263672 163.31915283203125 C191.330810546875 163.18008422851562 190.26133728027344 162.96649169921875 189.5330810546875 162.83892822265625 C188.07937622070312 162.582275390625 189.70657348632812 164.2080078125 191.75949096679688 164.89324951171875 C192.272705078125 165.06455993652344 193.3635711669922 165.58880615234375 194.69915771484375 166.29214477539062 C196.03472900390625 166.9954833984375 197.61500549316406 167.8779296875 199.10702514648438 168.76559448242188 C200.5990447998047 169.6532745361328 202.0028076171875 170.5461883544922 202.9853515625 171.2705078125 C203.96791076660156 171.99481201171875 204.5292510986328 172.55050659179688 204.33642578125 172.76376342773438 C203.95152282714844 173.19239807128906 202.091064453125 172.80746459960938 200.20875549316406 172.29405212402344 C198.32644653320312 171.7806396484375 196.42225646972656 171.13873291015625 195.94989013671875 171.05340576171875 C195.76181030273438 171.019287109375 196.28903198242188 171.4232177734375 197.2659454345703 172.09750366210938 C198.2428741455078 172.77178955078125 199.66949462890625 173.7164306640625 201.2802276611328 174.76373291015625 C202.8909454345703 175.81103515625 204.68577575683594 176.96099853515625 206.39907836914062 178.04591369628906 C208.11239624023438 179.13082885742188 209.7441864013672 180.15072631835938 211.02886962890625 180.9378662109375 C212.31356811523438 181.72500610351562 213.25112915039062 182.2794189453125 213.57598876953125 182.43338012695312 C215.203125 183.20318603515625 216.05899047851562 183.97308349609375 215.28912353515625 184.48770141601562 C214.90420532226562 184.74359130859375 216.4442596435547 185.64175415039062 218.19808959960938 186.52951049804688 C219.95193481445312 187.41726684570312 221.9195556640625 188.2946319580078 222.3897705078125 188.50894165039062 C222.86000061035156 188.72325134277344 224.37890625 189.62176513671875 225.63043212890625 190.60577392578125 C226.88197326660156 191.5897674560547 227.8661346435547 192.65924072265625 227.26687622070312 193.2154541015625 C227.0271759033203 193.4376678466797 226.1816864013672 193.30743408203125 224.97068786621094 192.95550537109375 C223.75970458984375 192.6035614013672 222.18319702148438 192.0299072265625 220.48146057128906 191.36524963378906 C218.77972412109375 190.7006072998047 216.95274353027344 189.94496154785156 215.2407989501953 189.2290496826172 C213.52883911132812 188.51312255859375 211.9319305419922 187.83694458007812 210.69032287597656 187.33120727539062 C209.44871520996094 186.82546997070312 208.56240844726562 186.49017333984375 208.27169799804688 186.4560546875 C207.7861785888672 186.39869689941406 206.55007934570312 185.9326171875 205.09556579589844 185.33029174804688 C203.64105224609375 184.72796630859375 201.96807861328125 183.98939514160156 200.60882568359375 183.38706970214844 C199.2495574951172 182.78475952148438 198.2039794921875 182.31866455078125 198.00424194335938 182.26132202148438 C197.85443115234375 182.21865844726562 198.55491638183594 182.72149658203125 199.68458557128906 183.51979064941406 C200.8142547607422 184.31808471679688 202.3731231689453 185.41183471679688 203.94004821777344 186.55101013183594 C205.5069580078125 187.690185546875 207.0819549560547 188.87478637695312 208.243896484375 189.85479736328125 C209.40582275390625 190.8347930908203 210.15472412109375 191.61019897460938 210.06942749023438 191.93096923828125 C209.9833984375 192.25172424316406 209.20225524902344 192.032470703125 208.04823303222656 191.51242065429688 C206.8942108154297 190.9923858642578 205.36729431152344 190.1715545654297 203.78970336914062 189.2891845703125 C202.21212768554688 188.40679931640625 200.5838623046875 187.46287536621094 199.2271728515625 186.69662475585938 C197.87046813964844 185.93035888671875 196.78530883789062 185.34178161621094 196.2939453125 185.17010498046875 C195.3097686767578 184.82818603515625 193.89804077148438 183.8228759765625 192.64651489257812 182.90304565429688 C191.39498901367188 181.98321533203125 190.3036651611328 181.14886474609375 189.9603271484375 181.14886474609375 C189.27651977539062 181.14886474609375 185.9376220703125 178.7532958984375 187.05154418945312 180.03778076171875 C187.42283630371094 180.46548461914062 188.44036865234375 181.34938049316406 189.60354614257812 182.37277221679688 C190.7667236328125 183.39614868164062 192.07554626464844 184.5590057373047 193.0294189453125 185.5446319580078 C193.98329162597656 186.53025817871094 194.58221435546875 187.33865356445312 194.32559204101562 187.653076171875 C194.1331329345703 187.8885498046875 193.27207946777344 187.55174255371094 192.06736755371094 186.90338134765625 C190.86265563964844 186.25502014160156 189.3142852783203 185.2950897216797 187.74717712402344 184.28431701660156 C186.18008422851562 183.27352905273438 184.59426879882812 182.2119140625 183.31463623046875 181.3601531982422 C182.03501892089844 180.50839233398438 181.06161499023438 179.8665008544922 180.71932983398438 179.6951904296875 C180.3623504638672 179.51670837402344 179.697509765625 179.02999877929688 178.8941650390625 178.39581298828125 C178.0908203125 177.76162719726562 177.14894104003906 176.97994995117188 176.23788452148438 176.2115478515625 C176.20492553710938 176.49395751953125 176.05584716796875 176.72186279296875 175.75762939453125 176.87103271484375 C175.244384765625 177.12762451171875 174.08444213867188 176.61422729492188 172.7342529296875 175.80615234375 C171.38406372070312 174.99807739257812 169.84364318847656 173.8953094482422 168.56944274902344 172.9731903076172 C167.2952423095703 172.0510711669922 166.28726196289062 171.30960083007812 166.00198364257812 171.22406005859375 C165.1461181640625 170.9674072265625 164.03366088867188 170.62481689453125 162.75057983398438 170.02694702148438 C162.429443359375 169.87713623046875 161.498779296875 169.02682495117188 160.26466369628906 167.80088806152344 C159.0305633544922 166.57493591308594 157.49302673339844 164.97332763671875 155.9581756591797 163.3209228515625 C154.42332458496094 161.66851806640625 152.8911590576172 159.96531677246094 151.6678009033203 158.53614807128906 C150.44444274902344 157.10699462890625 149.52987670898438 155.95187377929688 149.23025512695312 155.3956298828125 C148.63316345214844 154.28317260742188 148.35577392578125 153.02088928222656 148.36671447753906 151.96182250976562 C148.37765502929688 150.90274047851562 148.6769256591797 150.046875 149.233154296875 149.74725341796875"></path>
<path fill="#005ED5" fill-opacity="1.0"  filling="0" d="M147.395263671875 146.97897338867188 C148.42172241210938 147.6219482421875 149.09515380859375 148.8064727783203 149.3836669921875 149.89422607421875 C149.67218017578125 150.98196411132812 149.57577514648438 151.9729461669922 149.06256103515625 152.22882080078125 C148.03607177734375 152.74346923828125 149.46826171875 154.1971435546875 148.36724853515625 154.53982543945312 C147.26626586914062 154.88241577148438 148.37872314453125 155.56625366210938 147.60888671875 156.423583984375 C146.83905029296875 157.27801513671875 145.29931640625 157.44857788085938 145.21194458007812 158.73309326171875 C145.1273193359375 160.01617431640625 144.57684326171875 160.3572998046875 143.82562255859375 160.61541748046875 C143.072998046875 160.87344360351562 144.271484375 162.07049560546875 143.41558837890625 162.84033203125 C142.55975341796875 163.61019897460938 141.02008056640625 163.69619750976562 140.76202392578125 164.63665771484375 C140.5068359375 165.5784912109375 139.65093994140625 166.17633056640625 138.79513549804688 166.43438720703125 C137.93927001953125 166.69241333007812 137.76861572265625 167.11962890625 137.16943359375 167.803466796875 C136.57015991210938 168.4873046875 135.03045654296875 168.23211669921875 134.60186767578125 168.6593017578125 C134.1732177734375 169.08657836914062 134.60186767578125 169.85638427734375 133.91802978515625 170.02838134765625 C133.2313232421875 170.19900512695312 132.97613525390625 170.9688720703125 131.691650390625 171.56805419921875 C130.4085693359375 172.16732788085938 129.12408447265625 171.99530029296875 128.5262451171875 172.510009765625 C127.927001953125 173.02175903320312 125.0181884765625 172.85113525390625 123.82113647460938 173.1077880859375 C122.6226806640625 173.3643798828125 121.16757202148438 171.4820556640625 120.7418212890625 171.82330322265625 C120.31314086914062 172.1658935546875 120.91238403320312 174.90264892578125 119.2852783203125 174.7320556640625 C117.6595458984375 174.56146240234375 117.31695556640625 173.19235229492188 116.54705810546875 174.21881103515625 C115.77725219726562 175.2452392578125 115.17800903320312 175.9290771484375 113.98095703125 175.9290771484375 C112.78387451171875 175.9290771484375 112.18463134765625 174.64605712890625 111.32733154296875 175.9290771484375 C110.47149658203125 177.21221923828125 109.2744140625 177.1275634765625 107.90533447265625 176.78497314453125 C106.53622436523438 176.44232177734375 105.678955078125 175.2452392578125 104.13925170898438 176.27175903320312 C103.36940002441406 176.7856903076172 102.36408996582031 177.08746337890625 101.43368530273438 177.20143127441406 C100.50328063964844 177.31539916992188 99.64778137207031 177.24156188964844 99.17755126953125 177.0042724609375 C98.23712158203125 176.52975463867188 98.14968872070312 175.2452392578125 96.78057861328125 176.10113525390625 C96.09603881835938 176.52978515625 94.94092559814453 176.85092163085938 93.8607177734375 176.97923278808594 C92.78050231933594 177.1075439453125 91.77519226074219 177.04302978515625 91.3902587890625 176.70037841796875 C90.62042236328125 176.01657104492188 91.049072265625 174.3048095703125 89.33740234375 175.331298828125 C88.48150634765625 175.84524536132812 87.17620849609375 176.59429931640625 85.96733093261719 177.16128540039062 C84.7584457397461 177.728271484375 83.64598083496094 178.11318969726562 83.17575073242188 177.89886474609375 C82.23385620117188 177.47021484375 82.66250610351562 174.1328125 83.17575073242188 173.19235229492188 C83.68896484375 172.25189208984375 83.17575073242188 172.5931396484375 81.806640625 173.27838134765625 C81.12210083007812 173.62030029296875 79.6888656616211 174.0693817138672 78.34129333496094 174.3367462158203 C76.99371337890625 174.60411071777344 75.73179626464844 174.68975830078125 75.389892578125 174.3048095703125 C75.0472412109375 173.919189453125 75.94537353515625 172.95654296875 76.88652038574219 171.99386596679688 C77.82766723632812 171.03121948242188 78.81182861328125 170.06854248046875 78.6412353515625 169.68289184570312 C78.300048828125 168.9130859375 75.3038330078125 169.59832763671875 74.19137573242188 169.68289184570312 C73.07888793945312 169.7689208984375 70.42529296875 169.59832763671875 71.5391845703125 168.9130859375 C72.65167236328125 168.229248046875 75.5618896484375 167.39776611328125 75.3038330078125 167.04217529296875 C75.17550659179688 166.86587524414062 74.19171142578125 166.95477294921875 73.01544952392578 167.04330444335938 C71.83918762207031 167.13182067871094 70.470458984375 167.219970703125 69.572265625 167.04217529296875 C67.77456665039062 166.6895751953125 67.433349609375 166.4315185546875 69.572265625 166.17486572265625 C70.2852554321289 166.0897979736328 71.56849670410156 165.7573699951172 73.06087493896484 165.27584838867188 C74.55325317382812 164.79432678222656 76.25477600097656 164.16371154785156 77.80433654785156 163.48226928710938 C79.3539047241211 162.80084228515625 80.75151062011719 162.06857299804688 81.63604736328125 161.3837890625 C82.52059173583984 160.69947814941406 83.671142578125 159.9294891357422 84.84691619873047 159.1720733642578 C86.02268981933594 158.41465759277344 87.22367858886719 157.66983032226562 88.20909118652344 157.03585815429688 C89.19451141357422 156.40188598632812 89.96435546875 155.8787841796875 90.27783203125 155.5648193359375 C90.5912857055664 155.2513427734375 91.48409271240234 154.5420379638672 92.63866424560547 153.68739318847656 C93.7932357788086 152.832763671875 95.20957946777344 151.83279418945312 96.57012176513672 150.93801879882812 C97.93065643310547 150.04322814941406 99.23539733886719 149.25363159179688 100.166748046875 148.8197021484375 C100.50508880615234 148.66224670410156 101.36859893798828 148.4356689453125 102.58431243896484 148.16697692871094 C103.80003356933594 147.89828491210938 105.36795806884766 147.58749389648438 107.11511993408203 147.26161193847656 C108.8622817993164 146.93572998046875 110.78868865966797 146.59478759765625 112.72135925292969 146.26577758789062 C114.6540298461914 145.936767578125 116.59297943115234 145.6197052001953 118.36522674560547 145.34161376953125 C120.1374740600586 145.0635223388672 121.74302673339844 144.82440185546875 123.00891876220703 144.65127563476562 C124.2748031616211 144.4781494140625 125.20103454589844 144.37103271484375 125.6146240234375 144.35693359375 C126.1117935180664 144.33973693847656 127.28131866455078 144.43429565429688 128.83436584472656 144.5966033935547 C130.38742065429688 144.7589111328125 132.32400512695312 144.9889678955078 134.35528564453125 145.24273681640625 C136.38656616210938 145.49652099609375 138.51254272460938 145.77403259277344 140.44439697265625 146.03125 C142.37625122070312 146.28846740722656 144.11395263671875 146.525390625 145.36871337890625 146.69802856445312 C146.62347412109375 146.8706512451172 147.395263671875 146.97897338867188 147.395263671875 146.97897338867188"></path>
<path fill="#7AE0FF" fill-opacity="1.0"  filling="0" d="M142.21856689453125 146.97897338867188 C144.24276733398438 148.32080078125 145.1273193359375 150.261962890625 143.15899658203125 150.4324951171875 C142.1748046875 150.51852416992188 140.31362915039062 150.04759216308594 138.7200164794922 149.6836395263672 C137.12640380859375 149.3197021484375 135.8003387451172 149.06272888183594 135.8863525390625 149.57669067382812 C136.05694580078125 150.60455322265625 136.05694580078125 151.28692626953125 135.11651611328125 151.3743896484375 C134.17462158203125 151.458984375 135.11651611328125 151.88619995117188 134.17462158203125 152.57144165039062 C133.23419189453125 153.2567138671875 131.86505126953125 151.458984375 131.60845947265625 152.57144165039062 C131.351806640625 153.6839599609375 131.1812744140625 154.02655029296875 130.41143798828125 153.7685546875 C129.64157104492188 153.5133056640625 130.838623046875 155.30963134765625 129.98275756835938 155.48025512695312 C129.12548828125 155.65225219726562 128.61370849609375 155.39419555664062 128.61370849609375 155.99346923828125 C128.61370849609375 156.59271240234375 127.7578125 157.27655029296875 126.98800659179688 156.93389892578125 C126.2181396484375 156.59271240234375 126.90200805664062 158.2183837890625 125.9615478515625 158.2183837890625 C125.0196533203125 158.2183837890625 124.42181396484375 158.38900756835938 123.99319458007812 159.41546630859375 C123.5645751953125 160.44332885742188 122.1954345703125 159.1588134765625 121.42562866210938 158.9036865234375 C120.65576171875 158.6456298828125 121.2550048828125 159.33233642578125 120.7418212890625 160.61395263671875 C120.22711181640625 161.89700317382812 119.884521484375 161.70062255859375 119.3726806640625 161.15731811523438 C118.85800170898438 160.61395263671875 119.28668212890625 161.42681884765625 118.34478759765625 161.57733154296875 C117.40438842773438 161.7264404296875 116.20587158203125 159.8441162109375 115.69268798828125 160.52935791015625 C115.17800903320312 161.21463012695312 115.94781494140625 162.069091796875 114.8353271484375 161.9844970703125 C113.72430419921875 161.8984375 113.29571533203125 160.24551391601562 112.86700439453125 161.15875244140625 C112.4398193359375 162.07049560546875 111.840576171875 161.70208740234375 110.9847412109375 161.15875244140625 C110.12884521484375 160.61541748046875 110.21340942382812 161.65475463867188 108.84579467773438 161.99020385742188 C108.16123962402344 162.15794372558594 107.24158477783203 161.12969970703125 106.34326171875 160.01687622070312 C105.44493103027344 158.90403747558594 104.56793212890625 157.7066192626953 103.96868896484375 157.5360107421875 C103.36944580078125 157.36541748046875 102.68490600585938 156.48841857910156 102.1075210571289 155.5684051513672 C101.53013610839844 154.6483917236328 101.05990600585938 153.68536376953125 100.8892822265625 153.34271240234375 C100.54806518554688 152.65744018554688 100.37750244140625 154.541259765625 99.34954833984375 154.02801513671875 C98.32171630859375 153.51617431640625 97.8858642578125 151.14791870117188 99.8140869140625 150.02105712890625 C100.20059967041016 149.7957000732422 101.09500122070312 149.4339141845703 102.31562805175781 148.9993133544922 C103.5362548828125 148.564697265625 105.08311462402344 148.05726623535156 106.77452850341797 147.5406036376953 C108.4659423828125 147.02394104003906 110.30192565917969 146.49803161621094 112.10079956054688 146.0264892578125 C113.89967346191406 145.55494689941406 115.66145324707031 145.1377716064453 117.20446014404297 144.8385467529297 C118.74746704101562 144.53932189941406 120.07170104980469 144.35806274414062 120.99551391601562 144.35833740234375 C121.9201889038086 144.35806274414062 123.32392120361328 144.46270751953125 124.97808837890625 144.63034057617188 C126.63226318359375 144.7979736328125 128.53688049316406 145.02857971191406 130.4633331298828 145.2801971435547 C132.38978576660156 145.5318145751953 134.33807373046875 145.80442810058594 136.07958984375 146.0561065673828 C137.82110595703125 146.30776977539062 139.35585021972656 146.5384979248047 140.45521545410156 146.706298828125 C141.55458068847656 146.87408447265625 142.21856689453125 146.97897338867188 142.21856689453125 146.97897338867188"></path>
<path fill="#7AE0FF" fill-opacity="1.0"  filling="0" d="M130.323974609375 131.865966796875 C131.5787353515625 132.0043182373047 132.96018981933594 132.25 134.38272094726562 132.56744384765625 C135.8052520751953 132.88487243652344 137.2688751220703 133.27406311035156 138.68795776367188 133.6993865966797 C140.10704040527344 134.12472534179688 141.48159790039062 134.58619689941406 142.72601318359375 135.04824829101562 C143.97042846679688 135.51028442382812 145.08468627929688 135.97288513183594 145.98321533203125 136.40045166015625 C147.78021240234375 137.25558471679688 149.12777709960938 138.3465576171875 150.29347229003906 139.33071899414062 C151.45916748046875 140.3148956298828 152.44297790527344 141.1922607421875 153.512451171875 141.62017822265625 C154.5819091796875 142.04884338378906 155.86532592773438 142.43341064453125 157.0419464111328 142.86062622070312 C158.21856689453125 143.287841796875 159.2884063720703 143.7576904296875 159.93069458007812 144.35693359375 C160.5729522705078 144.95687866210938 162.3240966796875 146.26217651367188 163.888671875 147.54579162597656 C165.45327758789062 148.82940673828125 166.83131408691406 150.09133911132812 166.72738647460938 150.60455322265625 C166.6234588623047 151.11778259277344 165.73678588867188 150.51853942871094 164.68362426757812 149.83363342285156 C163.63046264648438 149.14874267578125 162.41082763671875 148.378173828125 161.6409912109375 148.54876708984375 C160.10125732421875 148.89141845703125 162.83944702148438 150.00531005859375 164.46514892578125 151.202392578125 C164.79029846191406 151.4420928955078 165.67677307128906 152.02745056152344 166.88430786132812 152.82569885253906 C168.09182739257812 153.62393188476562 169.6204071044922 154.63504028320312 171.229736328125 155.72622680664062 C172.8390655517578 156.81741333007812 174.5291290283203 157.98867797851562 176.05966186523438 159.10720825195312 C177.59019470214844 160.2257537841797 178.961181640625 161.29156494140625 179.93234252929688 162.171875 C180.90350341796875 163.0521697998047 181.47482299804688 163.7469482421875 181.406005859375 164.1234130859375 C181.2917938232422 164.75083923339844 179.9988555908203 164.56063842773438 178.25277709960938 163.99330139160156 C176.5067138671875 163.42596435546875 174.30752563476562 162.4814910888672 172.3808135986328 161.60037231445312 C170.4541015625 160.71923828125 168.79989624023438 159.90145874023438 168.14376831054688 159.5875244140625 C166.17544555664062 158.6470947265625 166.77471923828125 159.56170654296875 167.37396240234375 161.15875244140625 C167.97320556640625 162.75433349609375 168.64694213867188 165.50396728515625 166.72738647460938 164.5147705078125 C165.7668914794922 164.02020263671875 164.70925903320312 163.06686401367188 163.78475952148438 162.2371826171875 C162.86026000976562 161.40750122070312 162.06890869140625 160.70144653320312 161.6409912109375 160.70144653320312 C160.78509521484375 160.70144653320312 159.24539184570312 159.50433349609375 158.56158447265625 158.90509033203125 C158.21896362304688 158.60546875 157.1494903564453 157.85641479492188 155.97303771972656 157.0433807373047 C154.7965850830078 156.2303466796875 153.51315307617188 155.3533477783203 152.74261474609375 154.79782104492188 C151.20294189453125 153.68682861328125 150.554931640625 151.28982543945312 149.85107421875 151.3758544921875 C149.49981689453125 151.4181365966797 148.49305725097656 150.46121215820312 147.3787841796875 149.4801025390625 C146.26451110839844 148.49899291992188 145.042724609375 147.49368286132812 144.26141357421875 147.439208984375 C143.7405548095703 147.4028778076172 142.66073608398438 147.09703063964844 141.39317321777344 146.68919372558594 C140.1256103515625 146.2813720703125 138.6702880859375 145.77154541015625 137.39842224121094 145.3272247314453 C136.12655639648438 144.88290405273438 135.03811645507812 144.50411987304688 134.50433349609375 144.35833740234375 C132.98280334472656 143.94212341308594 131.86859130859375 143.21401977539062 131.0179901123047 142.3395233154297 C130.16738891601562 141.46502685546875 129.58041381835938 140.44415283203125 129.11338806152344 139.44239807128906 C128.6463623046875 138.44064331054688 128.29928588867188 137.45797729492188 127.928466796875 136.65994262695312 C127.37222290039062 135.46072387695312 126.91275024414062 134.1453857421875 127.12151336669922 133.18829345703125 C127.33027648925781 132.23117065429688 128.207275390625 131.63229370117188 130.323974609375 131.865966796875"></path>
<path fill="#658C06" fill-opacity="1.0"  filling="0" d="M136.485595703125 143.75909423828125 C137.86830139160156 144.26014709472656 139.67965698242188 144.8679962158203 141.1379852294922 145.610595703125 C142.5963134765625 146.35321044921875 143.70162963867188 147.23056030273438 143.6722412109375 148.2706298828125 C143.6148681640625 150.34796142578125 141.705322265625 148.89425659179688 140.59283447265625 148.63766479492188 C139.4818115234375 148.379638671875 140.0810546875 148.89425659179688 138.19732666015625 148.63766479492188 C137.2554473876953 148.50865173339844 136.33578491210938 148.00759887695312 135.5338592529297 147.5303955078125 C134.73193359375 147.0531768798828 134.0477294921875 146.59979248046875 133.5767822265625 146.56610107421875 C132.63494873046875 146.49871826171875 134.861328125 148.56594848632812 134.09002685546875 149.37164306640625 C133.3201904296875 150.17877197265625 133.83203125 151.033203125 132.20773315429688 151.11920166015625 C130.58203125 151.20523071289062 128.61370849609375 150.4339599609375 127.7578125 151.11920166015625 C126.90200805664062 151.804443359375 125.78948974609375 153.08758544921875 124.59246826171875 152.74639892578125 C123.39395141601562 152.4036865234375 122.33599853515625 152.4036865234375 121.3668212890625 152.231689453125 C120.399169921875 152.06109619140625 120.9969482421875 153.600830078125 119.88592529296875 153.85882568359375 C118.77490234375 154.11544799804688 118.51690673828125 152.51126098632812 117.576416015625 153.1865234375 C116.63592529296875 153.85882568359375 115.09625244140625 150.778076171875 114.32501220703125 150.9500732421875 C113.55517578125 151.12063598632812 114.92425537109375 154.628662109375 113.46771240234375 155.05731201171875 C112.0140380859375 155.48455810546875 111.414794921875 153.3455810546875 110.8155517578125 153.94485473632812 C110.21630859375 154.5440673828125 109.78762817382812 154.3720703125 109.3590087890625 154.0308837890625 C108.93182373046875 153.68963623046875 109.10382080078125 151.12210083007812 108.2479248046875 151.7213134765625 C107.39215087890625 152.320556640625 108.16339111328125 154.37350463867188 107.22149658203125 154.0308837890625 C106.27963256835938 153.68963623046875 105.93701171875 152.94131469726562 105.08258056640625 153.18792724609375 C104.2266845703125 153.431640625 103.97015380859375 151.63531494140625 103.02822875976562 151.97796630859375 C102.0877685546875 152.31915283203125 99.86282348632812 152.06256103515625 100.20401000976562 151.03607177734375 C100.54669189453125 150.0096435546875 101.82977294921875 149.810302734375 104.48187255859375 149.43902587890625 C105.80868530273438 149.25411987304688 107.69136047363281 149.0849609375 109.50969696044922 148.9009246826172 C111.32803344726562 148.71688842773438 113.08203125 148.51797485351562 114.1514892578125 148.2735595703125 C115.22024536132812 148.0283966064453 117.29933166503906 147.59580993652344 119.09832763671875 147.0908203125 C120.89732360839844 146.58584594726562 122.41622924804688 146.00845336914062 122.3646240234375 145.47369384765625 C122.26425170898438 144.40570068359375 120.824951171875 141.71051025390625 122.87786865234375 141.71051025390625 C123.905029296875 141.71051025390625 125.14581298828125 141.85995483398438 126.21546173095703 141.9346923828125 C127.28511047363281 142.00941467285156 128.18362426757812 142.00941467285156 128.5262451171875 141.71051025390625 C128.86886596679688 141.40875244140625 130.12075805664062 141.6531982421875 131.65597534179688 142.10691833496094 C133.19117736816406 142.56065368652344 135.00970458984375 143.2236785888672 136.485595703125 143.75909423828125"></path>
<path fill="#7AE0FF" fill-opacity="1.0"  filling="0" d="M144.26141357421875 130.83950805664062 C145.1975555419922 131.60935974121094 146.39247131347656 132.2469482421875 147.2691192626953 132.49514770507812 C148.14578247070312 132.7433319091797 148.70416259765625 132.60211181640625 148.36724853515625 131.8143310546875 C147.6934814453125 130.24026489257812 148.72564697265625 131.09469604492188 148.4661865234375 129.81304931640625 C148.20669555664062 128.530029296875 149.66180419921875 128.18731689453125 149.233154296875 127.41607666015625 C148.80596923828125 126.646240234375 147.24331665039062 125.79180908203125 148.36724853515625 125.6212158203125 C149.48974609375 125.44915771484375 150.2122802734375 124.50732421875 149.85107421875 124.25213623046875 C149.48974609375 123.99407958984375 151.77349853515625 124.1646728515625 150.97354125976562 123.31024169921875 C150.17498779296875 122.45437622070312 148.76580810546875 121.34335327148438 149.5987548828125 121.17132568359375 C150.431640625 121.00070190429688 151.77349853515625 121.00070190429688 150.97354125976562 119.9742431640625 C150.17498779296875 118.94638061523438 150.72271728515625 119.116943359375 151.22015380859375 118.5177001953125 C151.71612548828125 117.919921875 149.53564453125 116.294189453125 149.5987548828125 116.03762817382812 C149.66180419921875 115.78097534179688 151.88677978515625 115.6964111328125 151.71612548828125 115.09716796875 C151.54559326171875 114.4979248046875 150.0889892578125 113.38690185546875 150.51766967773438 113.04281616210938 C150.94631958007812 112.7001953125 151.54559326171875 112.10235595703125 150.51766967773438 111.41705322265625 C149.48974609375 110.7318115234375 150.17645263671875 110.30609130859375 150.431640625 109.96200561523438 C150.68826293945312 109.619384765625 150.734130859375 109.27676391601562 149.5987548828125 108.50689697265625 C148.46331787109375 107.737060546875 150.72552490234375 107.05181884765625 149.85107421875 106.28195190429688 C148.97796630859375 105.51214599609375 147.52145385742188 105.5966796875 147.99307250976562 104.9974365234375 C148.46331787109375 104.398193359375 148.54931640625 102.94451904296875 147.18026733398438 102.94451904296875 C145.81121826171875 102.94451904296875 144.70010375976562 102.515869140625 145.81121826171875 101.9166259765625 C146.92364501953125 101.3173828125 147.9500732421875 99.34906005859375 146.410400390625 99.26446533203125 C144.8707275390625 99.177001953125 147.2677001953125 96.43881225585938 146.15374755859375 96.355712890625 C145.04132080078125 96.26971435546875 145.897216796875 95.49838256835938 145.468505859375 94.47198486328125 C145.03988647460938 93.4468994140625 144.35751342773438 93.70208740234375 143.6722412109375 93.6175537109375 C142.9884033203125 93.53009033203125 144.70010375976562 90.7918701171875 143.6722412109375 90.45068359375 C142.64431762695312 90.1094970703125 143.24359130859375 89.5948486328125 142.4737548828125 88.568359375 C141.70388793945312 87.54052734375 141.35980224609375 87.9691162109375 140.8035888671875 87.11187744140625 C140.24884033203125 86.2574462890625 139.39437866210938 86.00079345703125 138.87969970703125 86.34197998046875 C138.36788940429688 86.68463134765625 138.28045654296875 84.80230712890625 137.25396728515625 85.65817260742188 C136.22750854492188 86.5140380859375 135.62826538085938 88.0537109375 135.11505126953125 87.4544677734375 C134.60186767578125 86.856689453125 134.0384521484375 85.90048217773438 133.20693969726562 87.61795043945312 C132.7919158935547 88.47738647460938 132.4130859375 90.01956939697266 132.13803100585938 91.44312286376953 C131.8629608154297 92.8666763305664 131.691650390625 94.17160034179688 131.691650390625 94.5565185546875 C131.691650390625 94.94145202636719 130.9217987060547 95.86112213134766 130.14120483398438 97.0802230834961 C129.360595703125 98.29932403564453 128.56924438476562 99.81785583496094 128.5262451171875 101.4005126953125 C128.44024658203125 104.56594848632812 128.0989990234375 105.67837524414062 129.12408447265625 106.0224609375 C129.46670532226562 106.13619232177734 130.39869689941406 106.6588134765625 131.50489807128906 107.38755798339844 C132.61109924316406 108.11630249023438 133.89151000976562 109.05116271972656 134.93096923828125 109.9893798828125 C135.97044372558594 110.92758178710938 136.76895141601562 111.869140625 136.911376953125 112.61126708984375 C137.01853942871094 113.16716003417969 137.15240478515625 114.2579574584961 137.31161499023438 115.6202392578125 C137.47084045410156 116.9825210571289 137.65541076660156 118.61628723144531 137.86399841308594 120.25811767578125 C138.0725860595703 121.89994812011719 138.30519104003906 123.54984283447266 138.56045532226562 124.94438171386719 C138.8157196044922 126.33892059326172 139.09365844726562 127.47810363769531 139.39291381835938 128.0985107421875 C139.9921417236328 129.33999633789062 141.20925903320312 130.02523803710938 142.27658081054688 130.40011596679688 C143.34390258789062 130.77499389648438 144.26141357421875 130.83950805664062 144.26141357421875 130.83950805664062"></path>
<path fill="#658C06" fill-opacity="1.0"  filling="0" d="M129.55413818359375 104.82684326171875 C130.6393585205078 104.03475952148438 132.07260131835938 103.478515625 133.27737426757812 103.26992797851562 C134.48214721679688 103.06134033203125 135.4584197998047 103.20040893554688 135.62969970703125 103.7989501953125 C135.970947265625 104.9974365234375 134.85986328125 105.51068115234375 136.65618896484375 105.51068115234375 C138.45245361328125 105.51068115234375 140.67889404296875 105.1680908203125 140.3348388671875 106.1959228515625 C139.9921875 107.22238159179688 138.28045654296875 107.13638305664062 139.39437866210938 107.64959716796875 C140.5068359375 108.16424560546875 141.61932373046875 108.24884033203125 141.27667236328125 109.19073486328125 C140.93408203125 110.13113403320312 141.27667236328125 109.9605712890625 142.131103515625 110.9010009765625 C142.9884033203125 111.8428955078125 140.3348388671875 111.7568359375 140.76202392578125 112.5267333984375 C141.19061279296875 113.29656982421875 143.97616577148438 113.9832763671875 143.82562255859375 115.00823974609375 C143.6722412109375 116.03472900390625 141.5318603515625 115.8641357421875 141.5318603515625 116.29275512695312 C141.5318603515625 116.72000122070312 144.61407470703125 117.0626220703125 144.69869995117188 118.345703125 C144.78469848632812 119.63018798828125 144.01336669921875 119.71475219726562 144.69869995117188 120.3140869140625 C145.38394165039062 120.91326904296875 146.4964599609375 121.3419189453125 146.23834228515625 122.71099853515625 C145.98175048828125 124.07861328125 144.3560791015625 124.1646728515625 145.1273193359375 125.19113159179688 C145.897216796875 126.21759033203125 146.92364501953125 127.24114990234375 146.6669921875 128.6962890625 C146.40899658203125 130.15283203125 144.74026489257812 130.74346923828125 144.82913208007812 130.95849609375 C144.91802978515625 131.17498779296875 146.92364501953125 133.0616455078125 147.52288818359375 134.0894775390625 C148.12069702148438 135.11737060546875 150.17498779296875 135.9718017578125 150.60226440429688 137.34088134765625 C151.02944946289062 138.7099609375 151.30474853515625 140.27117919921875 150.1693115234375 139.22750854492188 C148.45950317382812 137.65771484375 146.56060791015625 136.5538330078125 144.7345733642578 135.748046875 C142.90853881835938 134.9422607421875 141.15533447265625 134.43455505371094 139.73692321777344 134.05709838867188 C138.31851196289062 133.6796417236328 137.23486328125 133.43243408203125 136.7479248046875 133.14764404296875 C136.01678466796875 132.71969604492188 135.13800048828125 131.43624877929688 134.409912109375 129.992431640625 C133.68182373046875 128.54861450195312 133.1044464111328 126.94442749023438 132.97613525390625 125.87496948242188 C132.8478240966797 124.80549621582031 133.2327423095703 123.80017852783203 133.810302734375 122.83750915527344 C134.3878631591797 121.87483978271484 135.15806579589844 120.95481872558594 135.80032348632812 120.05593872070312 C136.4418487548828 119.15782165527344 136.54901123046875 117.31816864013672 136.39955139160156 115.4892578125 C136.25009155273438 113.66033935546875 135.8440399169922 111.8421630859375 135.45913696289062 110.98699951171875 C135.07420349121094 110.13188171386719 134.90289306640625 109.08392333984375 134.603271484375 108.24974060058594 C134.30364990234375 107.41556549072266 133.87571716308594 106.795166015625 132.97756958007812 106.795166015625 C131.1798095703125 106.795166015625 128.54058837890625 105.56658935546875 129.55413818359375 104.82684326171875"></path>
<path fill="#DD1603" fill-opacity="1.0"  filling="0" d="M129.55413818359375 104.82684326171875 C128.47891235351562 105.50494384765625 128.45025634765625 105.42608642578125 128.4029541015625 108.24884033203125 C128.38719177246094 109.19073486328125 128.24366760253906 110.44593811035156 128.02761840820312 111.78333282470703 C127.81156921386719 113.1207275390625 127.52298736572266 114.54029846191406 127.21710205078125 115.81094360351562 C126.91122436523438 117.08158874511719 126.58802795410156 118.20329284667969 126.30276489257812 118.9449462890625 C125.87409973144531 120.05740356445312 125.44652557373047 121.49063873291016 124.99763488769531 122.81689453125 C124.54873657226562 124.14315795898438 124.07852172851562 125.36244201660156 123.5645751953125 126.0469970703125 C123.05059814453125 126.73080444335938 122.4943618774414 127.41426849365234 121.80999755859375 127.91638946533203 C121.12564086914062 128.41851806640625 120.31315612792969 128.73928833007812 119.28668212890625 128.69772338867188 C118.60237884521484 128.66952514648438 117.49005889892578 128.41307067871094 116.21925354003906 128.07415771484375 C114.94844818115234 127.73524475097656 113.51914978027344 127.31388092041016 112.20087432861328 126.95585632324219 C110.88259887695312 126.59783172607422 109.67533874511719 126.30314636230469 108.8486328125 126.21759033203125 C107.60858154296875 126.08929443359375 106.28250122070312 125.83267974853516 104.92416381835938 125.7471923828125 C103.56582641601562 125.66171264648438 102.17523193359375 125.74736022949219 100.80615234375 126.3035888671875 C98.0694580078125 127.41461181640625 97.42718505859375 128.530029296875 98.47512817382812 129.2998046875 C99.52166748046875 130.0697021484375 98.41058349609375 131.609375 99.09445190429688 133.49169921875 C99.77969360351562 135.37396240234375 100.63555908203125 135.71661376953125 101.32080078125 135.88861083984375 C102.004638671875 136.05926513671875 101.174560546875 134.88656616210938 102.62826538085938 135.22775268554688 C104.08477783203125 135.5689697265625 103.71636962890625 136.65847778320312 105.34063720703125 137.34231567382812 C106.15420532226562 137.68495178222656 107.37348937988281 138.30499267578125 108.51786804199219 138.8929443359375 C109.66223907470703 139.48089599609375 110.73170471191406 140.03677368164062 111.24563598632812 140.2510986328125 C112.2706298828125 140.67974853515625 113.1279296875 140.94781494140625 111.15814208984375 142.48321533203125 C110.17398071289062 143.25021362304688 108.46298217773438 144.40390014648438 106.82688903808594 145.45114135742188 C105.19080352783203 146.49838256835938 103.62962341308594 147.43917846679688 102.94509887695312 147.7803955078125 C101.57598876953125 148.467041015625 98.767578125 149.03189086914062 99.093017578125 149.66412353515625 C99.41986083984375 150.294921875 102.25982666015625 149.92071533203125 103.20025634765625 150.51995849609375 C104.14068603515625 151.11920166015625 104.65679931640625 151.804443359375 106.10906982421875 151.033203125 C107.5655517578125 150.26336669921875 107.2200927734375 150.8612060546875 108.84719848632812 151.033203125 C110.472900390625 151.20382690429688 109.6170654296875 149.4935302734375 110.64495849609375 149.40753173828125 C111.67138671875 149.32003784179688 112.86846923828125 150.60595703125 114.40817260742188 150.26336669921875 C115.94781494140625 149.92071533203125 115.35000610351562 147.28009033203125 116.29193115234375 148.34375 C117.2337646484375 149.40753173828125 119.62933349609375 150.4339599609375 120.65576171875 149.32147216796875 C121.68365478515625 148.21044921875 123.22335815429688 147.78179931640625 123.1358642578125 146.58477783203125 C123.05133056640625 145.3876953125 121.33963012695312 143.33331298828125 123.05133056640625 143.07675170898438 C123.90646362304688 142.94842529296875 125.23219299316406 143.2476806640625 126.49394226074219 143.58975219726562 C127.75569915771484 143.93185424804688 128.95347595214844 144.3167724609375 129.55270385742188 144.35980224609375 C130.75119018554688 144.447265625 132.632080078125 144.447265625 131.86224365234375 143.67596435546875 C131.0924072265625 142.9061279296875 131.43499755859375 142.216552734375 133.7445068359375 141.5771484375 C136.0540771484375 140.93780517578125 138.53707885742188 141.366455078125 136.48269653320312 140.0819091796875 C135.45555114746094 139.44039916992188 134.5570526123047 138.49925231933594 133.81910705566406 137.5794219970703 C133.08116149902344 136.6595916748047 132.50376892089844 135.76107788085938 132.11883544921875 135.204833984375 C131.3489990234375 134.09381103515625 131.51959228515625 133.23651123046875 133.82913208007812 133.57913208007812 C134.98390197753906 133.7504425048828 136.24618530273438 133.67196655273438 137.16619873046875 133.46856689453125 C138.08621215820312 133.2651824951172 138.66395568847656 132.9368896484375 138.44964599609375 132.60858154296875 C138.02239990234375 131.95343017578125 137.33856201171875 131.35418701171875 137.93780517578125 131.01296997070312 C138.53707885742188 130.67037963867188 138.366455078125 129.98507690429688 137.67974853515625 129.72994995117188 C136.99594116210938 129.47329711914062 138.70767211914062 128.10418701171875 137.59521484375 127.67556762695312 C136.48269653320312 127.2469482421875 134.514404296875 126.39251708984375 134.59893798828125 125.62261962890625 C134.68646240234375 124.85137939453125 134.512939453125 124.59475708007812 134.59893798828125 123.99551391601562 C134.68646240234375 123.396240234375 136.39669799804688 123.396240234375 137.59521484375 123.3116455078125 C138.792236328125 123.22564697265625 139.87606811523438 122.1146240234375 140.06243896484375 121.00213623046875 C140.24737548828125 119.88970947265625 140.73193359375 118.86318969726562 140.06243896484375 118.43600463867188 C139.3914794921875 118.00738525390625 140.73193359375 117.23748779296875 140.06243896484375 116.80889892578125 C139.3914794921875 116.3802490234375 140.8165283203125 115.03982543945312 140.06243896484375 114.89642333984375 C139.306884765625 114.75595092773438 139.9061279296875 113.471435546875 138.87826538085938 113.30084228515625 C137.85040283203125 113.1302490234375 139.49615478515625 112.777587890625 139.28826904296875 112.00054931640625 C139.07894897460938 111.22357177734375 138.1929931640625 110.82073974609375 137.93780517578125 110.39208984375 C137.67974853515625 109.96484375 138.70767211914062 109.19647216796875 137.7672119140625 109.02584838867188 C136.82537841796875 108.85238647460938 135.79888916015625 108.1685791015625 135.969482421875 107.65386962890625 C136.14010620117188 107.14208984375 136.48269653320312 106.11419677734375 135.28564453125 105.94363403320312 C134.088623046875 105.77304077148438 134.9429931640625 105.17376708984375 132.97613525390625 105.3443603515625 C131.00927734375 105.51214599609375 130.57919311523438 104.18023681640625 129.55413818359375 104.82684326171875"></path>
<path fill="#FFFFFF" fill-opacity="1.0"  filling="0" d="M102.08920288085938 133.53326416015625 C101.51861572265625 132.942626953125 100.72015380859375 130.924072265625 101.10430908203125 130.5399169921875 C101.489990234375 130.15283203125 102.216796875 130.197265625 103.24325561523438 130.5399169921875 C104.26971435546875 130.88107299804688 104.56939697265625 131.09469604492188 105.3822021484375 131.351318359375 C106.195068359375 131.609375 107.648681640625 132.23583984375 107.73614501953125 132.605712890625 C107.82073974609375 132.97845458984375 107.82073974609375 133.70526123046875 107.73614501953125 134.5596923828125 C107.648681640625 135.41558837890625 108.76406860351562 138.10787963867188 108.63360595703125 138.49639892578125 C108.50311279296875 138.8848876953125 105.98001098632812 137.59750366210938 105.72482299804688 137.1273193359375 C105.46820068359375 136.65707397460938 103.58734130859375 134.26010131835938 103.15869140625 134.04791259765625 C102.73001098632812 133.8328857421875 102.27413940429688 133.726806640625 102.08920288085938 133.53326416015625"></path>
<path fill="#FBB03B" fill-opacity="1.0"  filling="0" d="M99.2650146484375 130.623046875 C99.7366943359375 131.10906982421875 100.9451904296875 131.864501953125 101.0025634765625 132.25018310546875 C101.06134033203125 132.63580322265625 100.96380615234375 134.34613037109375 101.27496337890625 134.90234375 C102.02182006835938 136.23556518554688 101.12728881835938 136.05926513671875 100.56243896484375 135.5904541015625 C99.9990234375 135.12313842773438 98.9969482421875 134.41775512695312 98.8636474609375 132.34194946289062 C98.78762817382812 131.18359375 98.85931396484375 130.207275390625 99.2650146484375 130.623046875"></path>
<path fill="#FFFFFF" fill-opacity="1.0"  filling="0" d="M103.2862548828125 132.14407348632812 C103.2862548828125 132.5096435546875 103.63037109375 132.80645751953125 104.05325317382812 132.80645751953125 C104.47900390625 132.80645751953125 104.8231201171875 132.5096435546875 104.8231201171875 132.14407348632812 C104.8231201171875 131.77706909179688 104.47900390625 131.48031616210938 104.05325317382812 131.48031616210938 C103.63177490234375 131.48031616210938 103.2862548828125 131.77706909179688 103.2862548828125 132.14407348632812"></path>
</svg>