<svg xmlns="http://www.w3.org/2000/svg" viewBox="0.0 0.0 256.0 256.0" height="256.0px" width="256.0px"><path fill="#AA6729" fill-opacity="1.0"  filling="0" d="M173.8355255126953 147.127685546875 C174.55189514160156 148.8590850830078 175.40750122070312 150.51071166992188 176.236572265625 152.01632690429688 C177.0656280517578 153.52194213867188 177.86813354492188 154.8815460205078 178.4783172607422 156.02890014648438 C179.0885009765625 157.17625427246094 179.50634765625 158.11135864257812 179.56607055664062 158.76800537109375 C179.65631103515625 159.7529754638672 180.10398864746094 161.36480712890625 180.64126586914062 162.90943908691406 C181.17855834960938 164.45407104492188 181.80543518066406 165.9315185546875 182.2540740966797 166.647705078125 C182.70144653320312 167.36386108398438 182.8803253173828 168.70689392089844 183.08160400390625 170.1396942138672 C183.2828826904297 171.57247924804688 183.50656127929688 173.0950469970703 184.0435028076172 174.17025756835938 C184.4019012451172 174.8866424560547 184.7203369140625 175.9810333251953 184.9856414794922 177.20806884765625 C185.2509307861328 178.43511962890625 185.46307373046875 179.7947998046875 185.60890197753906 181.041748046875 C185.75473022460938 182.2886962890625 185.834228515625 183.42291259765625 185.834228515625 184.19903564453125 C185.834228515625 184.9751434326172 185.81431579589844 186.2823028564453 185.72808837890625 187.73765563964844 C185.641845703125 189.19302368164062 185.48928833007812 190.79656982421875 185.2239990234375 192.16546630859375 C184.95870971679688 193.53436279296875 184.5806884765625 194.66860961914062 184.0435028076172 195.185302734375 C183.2377471923828 195.9603271484375 181.58111572265625 196.16864013671875 180.2379150390625 196.45184326171875 C178.89471435546875 196.73504638671875 177.86495971679688 197.09312438964844 178.31295776367188 198.16769409179688 C178.61119079589844 198.88450622558594 179.74526977539062 199.32240295410156 181.17129516601562 199.5545196533203 C182.59732055664062 199.78662109375 184.3152618408203 199.81292724609375 185.78123474121094 199.70654296875 C187.24722290039062 199.60015869140625 188.46121215820312 199.36105346679688 188.8793487548828 199.0623779296875 C189.29705810546875 198.76414489746094 189.43629455566406 197.90869140625 189.43629455566406 196.74806213378906 C189.43629455566406 195.58743286132812 189.29705810546875 194.1216583251953 189.15782165527344 192.60276794433594 C189.01858520507812 191.08389282226562 188.8793487548828 189.51190185546875 188.8793487548828 188.13888549804688 C188.8793487548828 187.31507873535156 188.97959899902344 186.16993713378906 189.13714599609375 184.83546447753906 C189.29469299316406 183.50100708007812 189.509521484375 181.97720336914062 189.7386932373047 180.39608764648438 C189.96786499023438 178.81497192382812 190.2113800048828 177.17652893066406 190.42625427246094 175.61277770996094 C190.64114379882812 174.04901123046875 190.82740783691406 172.5599365234375 190.9420928955078 171.27752685546875 C191.05679321289062 169.99513244628906 191.09988403320312 168.91940307617188 191.02845764160156 168.182373046875 C190.90899658203125 166.95443725585938 190.57064819335938 165.87710571289062 190.13943481445312 164.84715270996094 C189.70822143554688 163.8171844482422 189.1841278076172 162.83457946777344 188.69317626953125 161.79608154296875 C188.2022247314453 160.757568359375 187.74441528320312 159.66317749023438 187.4457550048828 158.40963745117188 C187.22207641601562 157.46945190429688 187.0319061279297 156.12632751464844 186.8724822998047 154.56771850585938 C186.7130584716797 153.0091094970703 186.58438110351562 151.2350311279297 186.48365783691406 149.43296813964844 C186.3829345703125 147.63088989257812 186.3101806640625 145.80081176757812 186.26260375976562 144.13021850585938 C186.21502685546875 142.45962524414062 186.192626953125 140.94851684570312 186.192626953125 139.78436279296875 C186.192626953125 138.619873046875 186.18359375 137.10858154296875 186.11378479003906 135.47149658203125 C186.0439910888672 133.83441162109375 185.91342163085938 132.071533203125 185.67037963867188 130.40383911132812 C185.42733764648438 128.7361602783203 185.0718231201172 127.16368103027344 184.55210876464844 125.90740203857422 C184.03237915039062 124.651123046875 183.3484649658203 123.71104431152344 182.44862365722656 123.30816650390625 C181.5484619140625 122.90528106689453 180.48165893554688 123.19624328613281 179.38780212402344 123.90409851074219 C178.2939453125 124.6119613647461 177.1730194091797 125.73672485351562 176.1646270751953 127.0014419555664 C175.15621948242188 128.2661590576172 174.26034545898438 129.6708526611328 173.61656188964844 130.9385528564453 C172.9727783203125 132.2062530517578 172.5811004638672 133.33697509765625 172.5811004638672 134.05377197265625 C172.58152770996094 135.0090789794922 172.72105407714844 136.78016662597656 172.90689086914062 138.717041015625 C173.09274291992188 140.65391540527344 173.32489013671875 142.75657653808594 173.51058959960938 144.37501525878906 C173.6962890625 145.99346923828125 173.8355255126953 147.127685546875 173.8355255126953 147.127685546875"></path>
<path fill="#D7974D" fill-opacity="1.0"  filling="0" d="M178.21694946289062 115.96221923828125 C179.20382690429688 116.20243072509766 180.35939025878906 116.51162719726562 181.50123596191406 116.94318389892578 C182.64309692382812 117.37474060058594 183.77125549316406 117.92866516113281 184.70333862304688 118.65830993652344 C185.63540649414062 119.38796997070312 186.3714141845703 120.29335021972656 186.7289581298828 121.4278564453125 C186.9977569580078 122.27841186523438 187.24575805664062 123.6574478149414 187.48013305664062 125.27216339111328 C187.71450805664062 126.88687896728516 187.93527221679688 128.73727416992188 188.14959716796875 130.5305633544922 C188.36392211914062 132.32383728027344 188.57179260253906 134.05999755859375 188.78042602539062 135.44622802734375 C188.98904418945312 136.8324737548828 189.19839477539062 137.86878967285156 189.41567993164062 138.26239013671875 C190.5979766845703 140.4033966064453 191.0509490966797 141.8815155029297 191.12950134277344 143.0352783203125 C191.2080535888672 144.18902587890625 190.9121856689453 145.01841735839844 190.59678649902344 145.8619842529297 C190.28138732910156 146.70555114746094 189.94644165039062 147.56329345703125 189.94686889648438 148.77374267578125 C189.947509765625 149.50271606445312 190.22654724121094 150.48928833007812 190.18894958496094 151.589599609375 C190.15135192871094 152.68992614746094 189.79710388183594 153.9040069580078 188.5311737060547 155.0880126953125 C187.82974243164062 155.7440185546875 187.97918701171875 154.86048889160156 188.16622924804688 153.69200134277344 C188.353271484375 152.5235137939453 188.57791137695312 151.070068359375 188.02687072753906 150.58624267578125 C187.475830078125 150.1024169921875 186.47967529296875 149.19265747070312 185.7332763671875 148.00112915039062 C184.98687744140625 146.8096160888672 184.490234375 145.33633422851562 184.93824768066406 143.7254638671875 C185.38560485839844 142.11329650878906 185.92288208007812 140.85952758789062 186.3705596923828 139.7737579345703 C186.8182373046875 138.68798828125 187.1763153076172 137.77023315429688 187.26527404785156 136.830078125 C187.3249969482422 136.20330810546875 187.23255920410156 134.57159423828125 187.0185546875 132.61817932128906 C186.8045654296875 130.66476440429688 186.46900939941406 128.38963317871094 186.04254150390625 126.47602844238281 C185.61605834960938 124.56242370605469 185.09866333007812 123.01036071777344 184.5209503173828 122.5030517578125 C183.65438842773438 121.741455078125 182.7510223388672 121.27137756347656 181.9635009765625 120.91329956054688 C181.1759796142578 120.55521392822266 180.50430297851562 120.30912780761719 180.10110473632812 119.99551391601562 C179.29855346679688 119.36831665039062 178.21694946289062 115.96221923828125 178.21694946289062 115.96221923828125"></path>
<path fill="#AA6729" fill-opacity="1.0"  filling="0" d="M105.244140625 141.3958740234375 C105.39901733398438 142.51873779296875 105.57717895507812 144.18832397460938 105.7489013671875 146.09466552734375 C105.92062377929688 148.00099182128906 106.08590698242188 150.14407348632812 106.21502685546875 152.2139129638672 C106.34414672851562 154.28375244140625 106.43711853027344 156.28036499023438 106.46419525146484 157.89373779296875 C106.49127960205078 159.5071258544922 106.45248413085938 160.7373046875 106.31808471679688 161.27426147460938 C106.04927062988281 162.34947204589844 105.68734741210938 163.78244018554688 105.5166244506836 165.25987243652344 C105.34590148925781 166.7373046875 105.36638641357422 168.25921630859375 105.86239624023438 169.5123291015625 C106.19306182861328 170.3477325439453 106.55288696289062 171.50172424316406 106.87904357910156 172.77523803710938 C107.2052001953125 174.04873657226562 107.4977035522461 175.4417724609375 107.69373321533203 176.7552490234375 C107.88976287841797 178.06871032714844 107.98931884765625 179.30264282226562 107.92959594726562 180.2579345703125 C107.86985778808594 181.21324157714844 107.79020690917969 182.58624267578125 107.63096618652344 184.04539489746094 C107.47172546386719 185.50454711914062 107.2328872680664 187.04983520507812 106.85476684570312 188.34970092773438 C106.47664642333984 189.64956665039062 105.95924377441406 190.70401000976562 105.24287414550781 191.18145751953125 C104.16830444335938 191.89825439453125 102.73533630371094 192.39073181152344 101.7502212524414 192.88320922851562 C100.76510620117188 193.3756866455078 100.22782897949219 193.8681640625 100.94464111328125 194.5849609375 C101.42207336425781 195.06239318847656 102.4965591430664 195.20162963867188 103.79661560058594 195.1817169189453 C105.09666442871094 195.16180419921875 106.62228393554688 194.98275756835938 108.00198364257812 194.8236083984375 C109.38168334960938 194.66445922851562 110.61546325683594 194.52523803710938 111.33183288574219 194.5849609375 C112.40638732910156 194.67454528808594 112.76446533203125 193.7791748046875 112.786865234375 192.41357421875 C112.80926513671875 191.0479736328125 112.49598693847656 189.21214294433594 112.22782897949219 187.4207763671875 C112.09342956542969 186.52511596679688 111.97023010253906 185.26016235351562 111.86663055419922 183.8077850341797 C111.76303100585938 182.35540771484375 111.67903137207031 180.71560668945312 111.62303161621094 179.07025146484375 C111.56703186035156 177.42489624023438 111.53903198242188 175.77395629882812 111.54743194580078 174.29934692382812 C111.55583190917969 172.82472229003906 111.60063171386719 171.52639770507812 111.69023132324219 170.58624267578125 C111.77983093261719 169.64608764648438 111.8470230102539 168.33657836914062 111.88902282714844 166.8227996826172 C111.93102264404297 165.30902099609375 111.94781494140625 163.59097290039062 111.93661499023438 161.83377075195312 C111.9254150390625 160.07656860351562 111.88621520996094 158.28021240234375 111.81621551513672 156.6097869873047 C111.7462158203125 154.93936157226562 111.64541625976562 153.3948974609375 111.51101684570312 152.14144897460938 C111.33224487304688 150.47019958496094 110.55229949951172 148.54550170898438 109.59983825683594 146.7799072265625 C108.64737701416016 145.01431274414062 107.52239990234375 143.40782165527344 106.653564453125 142.3729705810547 C105.78472900390625 141.33811950683594 105.17204284667969 140.87490844726562 105.244140625 141.3958740234375"></path>
<path fill="#D7974D" fill-opacity="1.0"  filling="0" d="M64.59005737304688 104.68289184570312 C64.41107940673828 105.3992691040039 64.17733764648438 106.3494873046875 63.95352554321289 107.48213958740234 C63.72970962524414 108.61478424072266 63.51581954956055 109.92985534667969 63.37653732299805 111.37592315673828 C63.23725509643555 112.82199096679688 63.172576904296875 114.39905548095703 63.247188568115234 116.05569458007812 C63.321800231933594 117.71233367919922 63.535701751708984 119.44854736328125 63.95357131958008 121.2129135131836 C64.37144470214844 122.97727966308594 64.9932861328125 124.76978302001953 65.88378143310547 126.53901672363281 C66.77427673339844 128.30825805664062 67.93342590332031 130.05419921875 69.4259033203125 131.7254638671875 C71.21688079833984 133.73147583007812 72.97201538085938 135.3219451904297 74.65263366699219 136.57281494140625 C76.333251953125 137.8236846923828 77.93936157226562 138.73497009277344 79.4322738647461 139.38258361816406 C80.92518615722656 140.0301971435547 82.30490112304688 140.41416931152344 83.53275299072266 140.61041259765625 C84.76060485839844 140.80665588378906 85.83657836914062 140.815185546875 86.72200775146484 140.71192932128906 C87.60743713378906 140.60867309570312 88.30232238769531 140.39364624023438 88.76799011230469 140.14276123046875 C89.9321517944336 139.516845703125 90.8275146484375 138.80068969726562 91.70047760009766 138.35284423828125 C92.57344055175781 137.90499877929688 93.42399597167969 137.7254638671875 94.49855041503906 138.17282104492188 C95.57310485839844 138.62017822265625 96.96094512939453 139.29217529296875 98.25934600830078 140.00880432128906 C99.55774688720703 140.72543334960938 100.76670837402344 141.48672485351562 101.48350524902344 142.1126708984375 C102.20030212402344 142.73985290527344 102.145263671875 143.85760498046875 102.22958374023438 145.3343963623047 C102.31390380859375 146.81118774414062 102.53759002685547 148.64703369140625 103.81182861328125 150.71038818359375 C104.66132354736328 152.08555603027344 105.62103271484375 153.53878784179688 106.536376953125 154.9846649169922 C107.45172119140625 156.4305419921875 108.32269287109375 157.8690643310547 108.99468994140625 159.21481323242188 C109.66668701171875 160.56056213378906 110.13972473144531 161.81353759765625 110.25918579101562 162.8883056640625 C110.37865447998047 163.96266174316406 110.44351196289062 165.09689331054688 110.56227111816406 166.23780822753906 C110.6810302734375 167.37872314453125 110.85369110107422 168.52630615234375 111.18876647949219 169.6273956298828 C111.52384185791016 170.72848510742188 112.02133178710938 171.78305053710938 112.78974914550781 172.73794555664062 C113.55817413330078 173.6928253173828 114.18978118896484 175.1652374267578 114.6970443725586 176.85000610351562 C115.20429992675781 178.53475952148438 115.58721923828125 180.43186950683594 115.85824584960938 182.23609924316406 C116.1292724609375 184.0403289794922 116.28842163085938 185.75167846679688 116.34814453125 187.06497192382812 C116.437744140625 189.03489685058594 116.63359069824219 190.83041381835938 116.5076675415039 192.13104248046875 C116.38175201416016 193.4316864013672 115.93407440185547 194.23744201660156 114.73663330078125 194.22784423828125 C113.53854370117188 194.21759033203125 112.01629638671875 195.02366638183594 111.19662475585938 195.94430541992188 C110.37693786621094 196.8649444580078 110.25982666015625 197.900146484375 111.87199401855469 198.34814453125 C112.94676971435547 198.64639282226562 114.43924713134766 198.8253173828125 115.96481323242188 198.85177612304688 C117.49038696289062 198.87823486328125 119.04904174804688 198.7522430419922 120.25617980957031 198.44064331054688 C121.46331787109375 198.12904357910156 122.31892395019531 197.6318359375 122.43840026855469 196.9158935546875 C122.61759185791016 195.84066772460938 122.43838500976562 195.12417602539062 122.16958618164062 194.31808471679688 C121.90078735351562 193.5120086669922 121.54238891601562 192.6163330078125 121.36318969726562 191.1827392578125 C121.27359008789062 190.46658325195312 121.0384750366211 189.16835021972656 120.73902130126953 187.5846405029297 C120.43955993652344 186.00094604492188 120.07575988769531 184.13177490234375 119.72880554199219 182.27377319335938 C119.38184356689453 180.415771484375 119.05171966552734 178.56893920898438 118.81961822509766 177.02987670898438 C118.58751678466797 175.49081420898438 118.45343017578125 174.25953674316406 118.49855041503906 173.63265991210938 C118.5881576538086 172.37889099121094 118.76734924316406 171.080322265625 118.76734924316406 169.69232177734375 C118.76734161376953 168.3043212890625 118.588134765625 166.82687377929688 117.9609375 165.21533203125 C117.5432357788086 164.1409912109375 117.2647705078125 163.06651306152344 117.06585693359375 161.98533630371094 C116.86693572998047 160.9041748046875 116.74756622314453 159.81631469726562 116.64805603027344 158.71524047851562 C116.54855346679688 157.61415100097656 116.46890258789062 156.49984741210938 116.34944152832031 155.36575317382812 C116.17023468017578 153.6646270751953 115.49855041503906 151.42623901367188 115.14047241210938 149.63551330566406 C114.78239440917969 147.8448028564453 114.7379150390625 146.50177001953125 115.8131103515625 146.59136962890625 C116.35038757324219 146.63648986816406 117.1227035522461 146.78216552734375 118.14405822753906 146.97531127929688 C119.16542053222656 147.16844177246094 120.43582153320312 147.40904235839844 121.9692611694336 147.6439971923828 C123.50270080566406 147.87896728515625 125.29918670654297 148.1082763671875 127.37271118164062 148.2788543701172 C129.44622802734375 148.44943237304688 131.7967987060547 148.561279296875 134.4384002685547 148.561279296875 C136.5516815185547 148.561279296875 138.62918090820312 148.41085815429688 140.625 148.1558380126953 C142.62081909179688 147.90081787109375 144.5349884033203 147.5412139892578 146.3216094970703 147.1228485107422 C148.1082305908203 146.70448303222656 149.76731872558594 146.22735595703125 151.25299072265625 145.73731994628906 C152.73866271972656 145.2472686767578 154.05091857910156 144.74429321289062 155.14389038085938 144.27423095703125 C156.23684692382812 143.80418395996094 157.11053466796875 143.36703491210938 157.7190399169922 143.00863647460938 C159.24159240722656 142.1139373779297 159.91326904296875 141.30816650390625 160.3609619140625 141.01712036132812 C160.8086395263672 140.72607421875 161.03231811523438 140.94973754882812 161.65887451171875 142.1138916015625 C162.0765838623047 142.88999938964844 162.47451782226562 144.12364196777344 162.8858184814453 145.5164337158203 C163.297119140625 146.90921020507812 163.7218017578125 148.46115112304688 164.19297790527344 149.8738555908203 C164.66416931152344 151.28656005859375 165.18185424804688 152.56002807617188 165.77919006347656 153.3958740234375 C166.67391967773438 154.64962768554688 166.85311889648438 155.58978271484375 166.83087158203125 156.64193725585938 C166.80862426757812 157.694091796875 166.5849609375 158.85824584960938 166.67391967773438 160.55999755859375 C166.733642578125 161.6945037841797 166.95252990722656 163.00791931152344 167.211181640625 164.35443115234375 C167.46983337402344 165.70094299316406 167.7682647705078 167.08055114746094 167.98709106445312 168.347412109375 C168.2059326171875 169.61428833007812 168.34515380859375 170.7684326171875 168.28543090820312 171.66400146484375 C168.24063110351562 172.33567810058594 168.06158447265625 173.4662322998047 167.779052734375 174.85421752929688 C167.4965057373047 176.24220275878906 167.1104736328125 177.88760375976562 166.65167236328125 179.58895874023438 C166.19287109375 181.29031372070312 165.66131591796875 183.04763793945312 165.08773803710938 184.65945434570312 C164.51416015625 186.27127075195312 163.8985595703125 187.73757934570312 163.2716827392578 188.85693359375 C162.4358367919922 190.34942626953125 161.81887817382812 191.6429443359375 161.2550048828125 192.7108917236328 C160.69113159179688 193.77883911132812 160.1803741455078 194.62123107910156 159.55691528320312 195.21145629882812 C158.9334716796875 195.80166625976562 158.19732666015625 196.13973999023438 157.18272399902344 196.19903564453125 C155.66015625 196.28929138183594 154.4956817626953 196.40866088867188 153.80160522460938 196.77793884277344 C153.10752868652344 197.147216796875 152.88385009765625 197.76641845703125 153.24288940429688 198.8563232421875 C153.60128784179688 199.94496154785156 155.97409057617188 200.1728057861328 158.2572784423828 200.1284942626953 C160.54046630859375 200.08416748046875 162.73406982421875 199.7677001953125 162.73406982421875 199.7677001953125 C162.73406982421875 199.7677001953125 163.1817626953125 199.23361206054688 163.78623962402344 198.25186157226562 C164.39071655273438 197.2700958251953 165.15200805664062 195.8406524658203 165.77919006347656 194.0499267578125 C166.02981567382812 193.33363342285156 166.58851623535156 192.14451599121094 167.32489013671875 190.68458557128906 C168.061279296875 189.2246551513672 168.975341796875 187.49392700195312 169.93670654296875 185.6944122314453 C170.8980712890625 183.8948974609375 171.90672302246094 182.02659606933594 172.83229064941406 180.2915496826172 C173.75787353515625 178.55648803710938 174.60035705566406 176.95468139648438 175.2293701171875 175.68814086914062 C175.85838317871094 174.4215850830078 176.27392578125 173.49029541015625 176.34559631347656 173.0963134765625 C176.52415466308594 172.11135864257812 176.74783325195312 170.768310546875 176.81503295898438 169.29086303710938 C176.88223266601562 167.81341552734375 176.79295349121094 166.2015838623047 176.34559631347656 164.67904663085938 C176.16639709472656 164.07028198242188 176.08749389648438 163.1175994873047 176.09744262695312 161.93994140625 C176.10739135742188 160.7622833251953 176.20616149902344 159.3596649169922 176.38233947753906 157.8509979248047 C176.55850219726562 156.34234619140625 176.81204223632812 154.72764587402344 177.1315155029297 153.1258544921875 C177.45098876953125 151.52406311035156 177.83639526367188 149.9351806640625 178.27626037597656 148.47813415527344 C178.71612548828125 147.02108764648438 179.21047973632812 145.69589233398438 179.74781799316406 144.6214599609375 C180.1956024169922 143.72610473632812 180.75778198242188 142.6964111328125 181.35391235351562 141.56472778320312 C181.95004272460938 140.43304443359375 182.5801544189453 139.19935607910156 183.163818359375 137.89601135253906 C183.74746704101562 136.59266662597656 184.28468322753906 135.2196502685547 184.69503784179688 133.80929565429688 C185.1053924560547 132.39895629882812 185.3888702392578 130.95127868652344 185.465087890625 129.49859619140625 C185.54129028320312 128.04591369628906 185.4102325439453 126.58822631835938 184.99147033691406 125.15787506103516 C184.5727081298828 123.72752380371094 183.86624145507812 122.32449340820312 182.79168701171875 120.98114013671875 C180.6429901123047 118.29483795166016 178.85226440429688 116.50397491455078 177.3997039794922 115.21055603027344 C175.9471435546875 113.9171371459961 174.83273315429688 113.12116241455078 174.0366668701172 112.42465209960938 C173.2406005859375 111.72813415527344 172.76287841796875 111.13108825683594 172.5836639404297 110.23550415039062 C172.4492645263672 109.5638198852539 172.19174194335938 108.42205810546875 171.8083038330078 107.00889587402344 C171.42486572265625 105.59573364257812 170.91551208496094 103.91117858886719 170.27743530273438 102.15390014648438 C169.63934326171875 100.39662170410156 168.87255859375 98.56661987304688 167.97422790527344 96.86258697509766 C167.07591247558594 95.1585464477539 166.04608154296875 93.5804672241211 164.8819122314453 92.3270263671875 C163.95059204101562 91.32402038574219 162.86883544921875 90.091796875 161.69540405273438 88.77362823486328 C160.52197265625 87.45545959472656 159.25686645507812 86.05133819580078 157.9588165283203 84.70455169677734 C156.6607666015625 83.3577651977539 155.32980346679688 82.06831359863281 154.02464294433594 80.97947692871094 C152.719482421875 79.89064025878906 151.4401397705078 79.00241088867188 150.24534606933594 78.45806884765625 C149.05056762695312 77.91373443603516 147.94033813476562 77.71328735351562 146.9734344482422 78.0 C145.76480102539062 78.3583984375 144.82470703125 78.97407531738281 144.07485961914062 79.78833770751953 C143.3249969482422 80.60259246826172 142.76535034179688 81.61543273925781 142.31759643554688 82.76815032958984 C141.86984252929688 83.92086791992188 141.53395080566406 85.21347045898438 141.2316131591797 86.58724975585938 C140.9292755126953 87.96102905273438 140.66046142578125 89.4159927368164 140.34686279296875 90.8934326171875 C139.9291534423828 92.86335754394531 139.57102966308594 94.87324523925781 139.21951293945312 96.69084930419922 C138.86798095703125 98.50845336914062 138.52305603027344 100.13377380371094 138.13169860839844 101.33455657958984 C137.7403564453125 102.53534698486328 137.30259704589844 103.31159973144531 136.7654266357422 103.43106079101562 C135.9590301513672 103.60961151123047 134.5708770751953 103.29633331298828 133.2052764892578 102.96065521240234 C131.8396759033203 102.62498474121094 130.4966278076172 102.26690673828125 129.78045654296875 102.35586547851562 C129.3030242919922 102.41602325439453 128.4872283935547 101.40139770507812 127.57194519042969 99.9090576171875 C126.65664672851562 98.41671752929688 125.641845703125 96.44664764404297 124.76637268066406 94.59590148925781 C123.89089965820312 92.74516296386719 123.15475463867188 91.01374816894531 122.79678344726562 89.99871826171875 C122.4388198852539 88.98368072509766 122.39913940429688 87.43161010742188 122.37263488769531 85.81330871582031 C122.34613037109375 84.19500732421875 122.33280944824219 82.51048278808594 122.02755737304688 81.23052978515625 C121.72229766845703 79.95057678222656 121.12510681152344 79.0751953125 119.93086242675781 79.0751953125 C119.03550720214844 79.0751953125 117.85238647460938 79.72431945800781 116.55854797363281 80.75115966796875 C115.26470947265625 81.77799987792969 113.86015319824219 83.18256378173828 112.52191162109375 84.69344329833984 C111.18367004394531 86.2043228149414 109.91175079345703 87.82152557373047 108.88319396972656 89.27364349365234 C107.8546371459961 90.72576904296875 107.06944274902344 92.01280975341797 106.70465087890625 92.86337280273438 C106.41280364990234 93.54407501220703 105.87847900390625 94.5542984008789 105.18168640136719 95.75077056884766 C104.48489379882812 96.9472427368164 103.6256332397461 98.3299560546875 102.68392181396484 99.7556381225586 C101.7422103881836 101.18132019042969 100.7180404663086 102.64997863769531 99.69144439697266 104.01831817626953 C98.66484069824219 105.38665771484375 97.63580322265625 106.65469360351562 96.6843490600586 107.67913818359375 C95.73289489746094 108.70358276367188 94.8590087890625 109.48443603515625 94.14273071289062 109.87841796875 C92.35199737548828 110.86337280273438 90.78495788574219 111.98240661621094 89.4417495727539 112.63136291503906 C88.09854888916016 113.28031158447266 86.97918701171875 113.45918273925781 86.08381652832031 112.56381225585938 C85.4869155883789 111.9669189453125 85.32777404785156 111.01176452636719 85.35432434082031 109.87750244140625 C85.38087463378906 108.74324035644531 85.59312438964844 107.42987060546875 85.73899841308594 106.11654663085938 C85.88487243652344 104.80322265625 85.96437072753906 103.48994445800781 85.72543334960938 102.35586547851562 C85.48648834228516 101.2217788696289 85.14686584472656 100.03677368164062 84.7276840209961 98.88491821289062 C84.30850982666016 97.73306274414062 83.80978393554688 96.61433410644531 83.25265502929688 95.61280822753906 C82.69552612304688 94.61127471923828 82.07998657226562 93.7269287109375 81.42718505859375 93.0438232421875 C80.80894470214844 92.39614868164062 79.77919006347656 91.63487243652344 78.65774536132812 90.83407592773438 C77.53631591796875 90.03327941894531 76.32319641113281 89.19295501708984 75.33824157714844 88.38719177246094 C74.353271484375 87.58142852783203 72.97279357910156 86.91615295410156 71.63694763183594 86.56416320800781 C70.30110168457031 86.21216583251953 69.00990295410156 86.17344665527344 68.2034912109375 86.62078857421875 C66.59197998046875 87.51679992675781 67.27935791015625 89.64031982421875 65.30941772460938 89.81953430175781 C64.324462890625 89.90912628173828 62.891502380371094 89.28224182128906 61.413902282714844 88.92400360107422 C59.936302185058594 88.56576538085938 58.4140625 88.47616577148438 57.25054931640625 89.64031982421875 C56.086395263671875 90.8038330078125 55.414710998535156 92.0124740600586 55.05662536621094 93.0870361328125 C54.69853973388672 94.16160583496094 54.654052734375 95.10209655761719 54.744293212890625 95.72930908203125 C54.923492431640625 96.98367309570312 54.56512451171875 98.59518432617188 56.535003662109375 98.59518432617188 C57.51997375488281 98.59518432617188 58.59454345703125 98.86366271972656 59.64670944213867 99.31118774414062 C60.698875427246094 99.75870513916016 61.7286376953125 100.38526916503906 62.623992919921875 101.1014404296875 C64.41213989257812 102.5350341796875 64.59005737304688 104.68289184570312 64.59005737304688 104.68289184570312"></path>
<path fill="#2E2E2E" fill-opacity="1.0"  filling="0" d="M55.546875 94.83200073242188 C55.546875 95.83425903320312 56.174072265625 93.66976928710938 57.068756103515625 92.862060546875 C57.9635009765625 92.05696105957031 58.5906982421875 92.4140625 60.381439208984375 92.23617553710938 C62.172149658203125 92.05696105957031 62.351348876953125 91.1622314453125 60.381439208984375 90.71426391601562 C58.411529541015625 90.26498413085938 57.9635009765625 90.44415283203125 57.4259033203125 91.1622314453125 C56.889617919921875 91.87777709960938 55.546875 93.75810241699219 55.546875 94.83200073242188"></path>
<path fill="#2E2E2E" fill-opacity="1.0"  filling="0" d="M68.71038818359375 91.87777709960938 C68.88958740234375 90.89215087890625 69.2467041015625 90.4454345703125 70.41152954101562 91.1622314453125 C71.57632446289062 91.87777709960938 72.29182434082031 92.32574462890625 72.65022277832031 92.32574462890625 C73.00860595703125 92.32574462890625 72.91903686523438 93.39968872070312 71.1282958984375 93.31137084960938 C69.3363037109375 93.22175598144531 68.71038818359375 91.87777709960938 68.71038818359375 91.87777709960938"></path>
<path fill="#D7974D" fill-opacity="1.0"  filling="0" d="M76.40190124511719 90.96641540527344 C76.89469909667969 90.29439544677734 77.92445373535156 89.53311157226562 79.06605529785156 89.00703430175781 C80.20765686035156 88.48095703125 81.46110534667969 88.1900863647461 82.40127563476562 88.45887756347656 C84.28158569335938 88.99649047851562 83.447021484375 91.137939453125 82.04287719726562 91.32862854003906 C80.63870239257812 91.5206298828125 78.640625 91.51425170898438 78.46142578125 92.58305358886719"></path>
<path fill="#2E2E2E" fill-opacity="1.0"  filling="0" d="M56.35198974609375 98.14593505859375 C57.6947021484375 97.609619140625 57.58465576171875 96.98239135742188 58.6700439453125 96.98239135742188 C59.7554931640625 96.98239135742188 61.635833740234375 97.52000427246094 62.35260009765625 96.53440856933594"></path>
<path fill="#2E2E2E" fill-opacity="1.0"  filling="0" d="M56.35198974609375 98.78594970703125 C56.098541259765625 98.78594970703125 55.85791015625 98.63360595703125 55.758087158203125 98.38398742675781 C55.626251220703125 98.05503845214844 55.786224365234375 97.68258666992188 56.11517333984375 97.55328369140625 C56.6195068359375 97.35232543945312 56.866546630859375 97.14625549316406 57.107208251953125 96.94784545898438 C57.465576171875 96.65090942382812 57.8367919921875 96.34237670898438 58.6700439453125 96.34237670898438 C58.955474853515625 96.34237670898438 59.292144775390625 96.37567138671875 59.649261474609375 96.41281127929688 C60.47869873046875 96.49601745605469 61.5103759765625 96.603515625 61.835479736328125 96.15937805175781 C62.042877197265625 95.87266540527344 62.4434814453125 95.8099365234375 62.730224609375 96.01856994628906 C63.01568603515625 96.2259521484375 63.078399658203125 96.62783813476562 62.87103271484375 96.91200256347656 C62.11328125 97.95266723632812 60.674560546875 97.80413818359375 59.518707275390625 97.6864013671875 C59.210235595703125 97.6544189453125 58.91839599609375 97.62237548828125 58.671356201171875 97.62237548828125 C58.298858642578125 97.62237548828125 58.213104248046875 97.69534301757812 57.92510986328125 97.93215942382812 C57.65374755859375 98.15742492675781 57.282562255859375 98.46466064453125 56.59136962890625 98.74111938476562 C56.511993408203125 98.7718505859375 56.431365966796875 98.78594970703125 56.35198974609375 98.78594970703125"></path></svg>