<svg xmlns="http://www.w3.org/2000/svg" viewBox="0.0 0.0 512.0 512.0" height="512.0px" width="512.0px"><path fill="#AA6729" fill-opacity="1.0"  filling="0" d="M347.6710510253906 294.25537109375 C351.96929931640625 304.643798828125 358.77374267578125 313.59619140625 359.13214111328125 317.5360107421875 C359.49310302734375 321.47589111328125 362.7135925292969 330.4306640625 364.5081481933594 333.29541015625 C366.297607421875 336.1600341796875 365.939208984375 344.0396728515625 368.0870056152344 348.34051513671875 C370.2374267578125 352.6387939453125 371.66845703125 363.74139404296875 371.66845703125 368.3980712890625 C371.66845703125 373.0546875 371.31005859375 387.2703857421875 368.0870056152344 390.37060546875 C364.8639831542969 393.470703125 354.8338928222656 392.037109375 356.62591552734375 396.33538818359375 C358.41534423828125 400.63623046875 375.24993896484375 399.9168701171875 377.7586975097656 398.124755859375 C380.26495361328125 396.33538818359375 377.7586975097656 384.515869140625 377.7586975097656 376.27777099609375 C377.7586975097656 368.0396728515625 382.7712097167969 343.735107421875 382.0569152832031 336.36474609375 C381.34014892578125 328.99713134765625 376.6834716796875 324.34051513671875 374.8915100097656 316.81927490234375 C373.10205078125 309.2978515625 372.38525390625 288.8819580078125 372.38525390625 279.5687255859375 C372.38525390625 270.2528076171875 372.0959777832031 249.83935546875 364.8972473144531 246.6163330078125 C357.69598388671875 243.39324951171875 345.1622009277344 262.3731689453125 345.1622009277344 268.1075439453125 C345.164794921875 273.83935546875 347.6710510253906 294.25537109375 347.6710510253906 294.25537109375 Z"></path>
<path fill="#D7974D" fill-opacity="1.0"  filling="0" d="M356.43389892578125 231.9244384765625 C362.35516357421875 233.36572265625 371.3126525878906 236.0487060546875 373.4579162597656 242.855712890625 C375.6083068847656 249.66015625 377.0931091308594 273.3759765625 378.83135986328125 276.5247802734375 C385.92510986328125 289.370849609375 379.8912048339844 290.2847900390625 379.89373779296875 297.5474853515625 C379.89630126953125 300.46337890625 382.1260681152344 305.44000244140625 377.0623474121094 310.176025390625 C374.2566223144531 312.800048828125 378.2579345703125 303.1077880859375 376.0537414550781 301.1724853515625 C373.849609375 299.2371826171875 368.08447265625 293.8944091796875 369.8764953613281 287.450927734375 C371.6659240722656 281.00225830078125 374.1747131347656 277.4207763671875 374.5305480957031 273.66015625 C374.888916015625 269.8995361328125 372.5081481933594 248.0499267578125 369.0419006347656 245.006103515625 C365.5756530761719 241.959716796875 361.81500244140625 241.2454833984375 360.20220947265625 239.99102783203125 C358.59710693359375 238.73663330078125 356.43389892578125 231.9244384765625 356.43389892578125 231.9244384765625 Z"></path>
<path fill="#AA6729" fill-opacity="1.0"  filling="0" d="M210.48828125 282.791748046875 C211.72732543945312 291.774658203125 213.71136474609375 318.2528076171875 212.63616943359375 322.54852294921875 C211.5609130859375 326.849365234375 209.74075317382812 334.01220703125 211.72479248046875 339.024658203125 C213.70880126953125 344.037109375 216.217529296875 354.7840576171875 215.85919189453125 360.515869140625 C215.50076293945312 366.2476806640625 214.78396606445312 379.4981689453125 210.48574829101562 382.3629150390625 C206.18746948242188 385.2301025390625 199.02203369140625 386.302734375 201.8892822265625 389.169921875 C204.75387573242188 392.0345458984375 218.36544799804688 388.8115234375 222.66366577148438 389.169921875 C226.96188354492188 389.52825927734375 225.52828979492188 382.00701904296875 224.45565795898438 374.841552734375 C223.38046264648438 367.67620849609375 222.66366577148438 348.6937255859375 223.38046264648438 341.1724853515625 C224.09722900390625 333.6512451171875 224.09722900390625 314.3104248046875 223.02203369140625 304.28289794921875 C221.94940185546875 294.25537109375 210.0556640625 279.66595458984375 210.48828125 282.791748046875 Z"></path>
<path fill="#D7974D" fill-opacity="1.0"  filling="0" d="M129.18011474609375 209.36578369140625 C127.0323486328125 217.9622802734375 120.9420166015625 243.3958740234375 138.851806640625 263.450927734375 C156.76156616210938 283.510986328125 172.87936401367188 282.79425048828125 177.53598022460938 280.2855224609375 C182.192626953125 277.7818603515625 184.69888305664062 274.55621337890625 188.99710083007812 276.34564208984375 C193.29531860351562 278.13507080078125 200.09982299804688 281.7215576171875 202.96701049804688 284.225341796875 C205.83419799804688 286.73406982421875 202.52670288085938 293.1673583984375 207.6236572265625 301.4207763671875 C212.72061157226562 309.6717529296875 219.80157470703125 319.3280029296875 220.51837158203125 325.776611328125 C221.23516845703125 332.2227783203125 220.968994140625 339.74658203125 225.57949829101562 345.47589111328125 C230.19003295898438 351.20513916015625 232.33792114257812 366.250244140625 232.6962890625 374.12994384765625 C233.0546875 382.0096435546875 234.26303100585938 388.49407958984375 229.4732666015625 388.4556884765625 C224.680908203125 388.4146728515625 217.29531860351562 394.904296875 223.74398803710938 396.6962890625 C230.192626953125 398.48577880859375 244.15997314453125 398.12744140625 244.87680053710938 393.831787109375 C245.59356689453125 389.5308837890625 243.44317626953125 388.099853515625 242.72637939453125 382.365478515625 C242.00961303710938 376.63623046875 236.63616943359375 352.28033447265625 236.99710083007812 347.26531982421875 C237.35552978515625 342.250244140625 238.4306640625 336.8768310546875 235.921875 330.4306640625 C233.41567993164062 323.984619140625 233.41567993164062 317.5360107421875 232.69888305664062 310.73150634765625 C231.9820556640625 303.927001953125 227.325439453125 292.8243408203125 231.626220703125 293.1827392578125 C235.92440795898438 293.543701171875 247.74398803710938 297.12255859375 268.8768005371094 297.12255859375 C290.0096130371094 297.12255859375 309.35296630859375 289.60125732421875 315.4380798339844 286.01727294921875 C321.5282897949219 282.4384765625 320.8115234375 279.5711669921875 323.3177490234375 284.227783203125 C325.823974609375 288.88446044921875 327.974365234375 301.776611328125 331.5583801269531 306.791748046875 C335.13726806640625 311.8067626953125 332.9919738769531 314.31298828125 333.34783935546875 321.1199951171875 C333.7062072753906 327.927001953125 336.92926025390625 337.95452880859375 336.57086181640625 343.3280029296875 C336.21246337890625 348.701416015625 331.5583801269531 368.75909423828125 326.5433654785156 377.7138671875 C321.5282897949219 386.6688232421875 320.4530944824219 392.042236328125 314.3654479980469 392.3980712890625 C308.2751770019531 392.75909423828125 305.04962158203125 393.35302734375 306.48577880859375 397.712646484375 C307.91937255859375 402.06719970703125 325.4681396484375 399.535400390625 325.4681396484375 399.535400390625 C325.4681396484375 399.535400390625 329.04962158203125 395.26275634765625 331.5583801269531 388.099853515625 C334.06463623046875 380.93695068359375 351.9743957519531 350.13250732421875 352.6911926269531 346.192626953125 C353.4054260253906 342.2528076171875 354.4806213378906 335.4482421875 352.6911926269531 329.35809326171875 C350.8992004394531 323.2703857421875 354.1221923828125 299.9871826171875 359.4956359863281 289.242919921875 C364.86907958984375 278.4986572265625 378.47808837890625 258.08258056640625 365.5833740234375 241.9622802734375 C352.6911926269531 225.844482421875 346.2425537109375 225.844482421875 345.1673278808594 220.47100830078125 C344.0921325683594 215.0975341796875 339.0771179199219 194.68157958984375 329.7638244628906 184.654052734375 C320.4505615234375 174.6240234375 303.6159973144531 153.1328125 293.9468688964844 156.0 C284.2777404785156 158.8671875 283.2025451660156 169.96734619140625 280.6937255859375 181.786865234375 C278.1874694824219 193.60641479492188 276.7538757324219 206.14532470703125 273.5308532714844 206.86212158203125 C270.3052673339844 207.57632446289062 262.42559814453125 204.35589599609375 259.5609130859375 204.71173095703125 C256.6962890625 205.07266235351562 247.74142456054688 186.087646484375 245.59356689453125 179.9974365234375 C243.44577026367188 173.90719604492188 247.02716064453125 158.150390625 239.86172485351562 158.150390625 C232.69888305664062 158.150390625 216.32763671875 178.9222412109375 213.4093017578125 185.72674560546875 C210.4908447265625 192.53375244140625 195.44830322265625 215.81695556640625 188.28546142578125 219.7568359375 C181.12252807617188 223.6966552734375 175.74911499023438 228.7091064453125 172.16763305664062 225.12762451171875 C168.58621215820312 221.5462646484375 172.88449096679688 211.51620483398438 171.45086669921875 204.71173095703125 C170.0172119140625 197.90719604492188 166.77120971679688 190.186279296875 162.8543701171875 186.087646484375 C160.38140869140625 183.4969482421875 154.61630249023438 179.9974365234375 150.67648315429688 176.77438354492188 C146.73660278320312 173.55133056640625 139.63262939453125 171.45220947265625 136.406982421875 173.2415771484375 C133.1839599609375 175.03359985351562 134.5587158203125 179.2806396484375 130.61883544921875 179.63906860351562 C126.67901611328125 179.9974365234375 119.1551513671875 174.6240234375 114.5010986328125 179.2806396484375 C109.844482421875 183.9346923828125 109.12762451171875 188.94976806640625 109.48858642578125 191.4586181640625 C109.84698486328125 193.96734619140625 109.1302490234375 197.19036865234375 113.07000732421875 197.19036865234375 C117.0098876953125 197.19036865234375 121.66656494140625 199.33819580078125 125.24798583984375 202.202880859375 C128.82427978515625 205.070068359375 129.18011474609375 209.36578369140625 129.18011474609375 209.36578369140625 Z"></path>
<path fill="#2E2E2E" fill-opacity="1.0"  filling="0" d="M111.09375 189.66400146484375 C111.09375 191.66851806640625 112.34814453125 187.33953857421875 114.13751220703125 185.72412109375 C115.927001953125 184.11392211914062 117.181396484375 184.828125 120.76287841796875 184.47235107421875 C124.34429931640625 184.11392211914062 124.70269775390625 182.324462890625 120.76287841796875 181.42852783203125 C116.82305908203125 180.52996826171875 115.927001953125 180.8883056640625 114.851806640625 182.324462890625 C113.77923583984375 183.75555419921875 111.09375 187.51620483398438 111.09375 189.66400146484375 Z"></path>
<path fill="#2E2E2E" fill-opacity="1.0"  filling="0" d="M137.4207763671875 183.75555419921875 C137.7791748046875 181.7843017578125 138.493408203125 180.890869140625 140.82305908203125 182.324462890625 C143.15264892578125 183.75555419921875 144.58364868164062 184.6514892578125 145.30044555664062 184.6514892578125 C146.0172119140625 184.6514892578125 145.83807373046875 186.79937744140625 142.256591796875 186.62274169921875 C138.672607421875 186.44351196289062 137.4207763671875 183.75555419921875 137.4207763671875 183.75555419921875 Z"></path>
<path fill="#D7974D" fill-opacity="1.0"  filling="0" d="M152.80380249023438 181.93283081054688 C154.77499389648438 179.2447509765625 161.0418701171875 175.84259033203125 164.80255126953125 176.91775512695312 C168.56317138671875 177.99298095703125 166.89404296875 182.27587890625 164.08575439453125 182.65725708007812 C161.27740478515625 183.041259765625 157.28125 183.02850341796875 156.9228515625 185.16610717773438"></path>
<path fill="#2E2E2E" fill-opacity="1.0"  filling="0" d="M112.7039794921875 196.2918701171875 C115.389404296875 195.21923828125 115.1693115234375 193.96478271484375 117.340087890625 193.96478271484375 C119.510986328125 193.96478271484375 123.27166748046875 195.04000854492188 124.7052001953125 193.06881713867188"></path>
<path fill="#2E2E2E" fill-opacity="1.0"  filling="0" d="M112.7039794921875 197.5718994140625 C112.19708251953125 197.5718994140625 111.7158203125 197.2672119140625 111.51617431640625 196.76797485351562 C111.25250244140625 196.11007690429688 111.57244873046875 195.36517333984375 112.2303466796875 195.1065673828125 C113.239013671875 194.70465087890625 113.73309326171875 194.29251098632812 114.21441650390625 193.89569091796875 C114.93115234375 193.30181884765625 115.673583984375 192.68475341796875 117.340087890625 192.68475341796875 C117.91094970703125 192.68475341796875 118.58428955078125 192.7513427734375 119.29852294921875 192.82562255859375 C120.9573974609375 192.99203491210938 123.020751953125 193.20703125 123.67095947265625 192.31875610351562 C124.08575439453125 191.74533081054688 124.886962890625 191.619873046875 125.46044921875 192.03713989257812 C126.0313720703125 192.451904296875 126.15679931640625 193.25567626953125 125.7420654296875 193.82400512695312 C124.2265625 195.90533447265625 121.34912109375 195.6082763671875 119.03741455078125 195.372802734375 C118.42047119140625 195.308837890625 117.8367919921875 195.2447509765625 117.34271240234375 195.2447509765625 C116.59771728515625 195.2447509765625 116.42620849609375 195.39068603515625 115.8502197265625 195.86431884765625 C115.3074951171875 196.31484985351562 114.56512451171875 196.9293212890625 113.1827392578125 197.48223876953125 C113.02398681640625 197.543701171875 112.86273193359375 197.5718994140625 112.7039794921875 197.5718994140625 Z"></path></svg>