<svg xmlns="http://www.w3.org/2000/svg" viewBox="0.0 0.0 256.0 256.0" height="256.0px" width="256.0px"><path fill="#EB7D46" fill-opacity="1.0"  filling="0" d="M151.47354125976562 110.77497863769531 C155.3578338623047 111.84394073486328 157.69432067871094 112.61609649658203 158.89102172851562 113.16069030761719 C160.08773803710938 113.70528411865234 160.14466857910156 114.0223159790039 159.46987915039062 114.1810302734375 C158.79507446289062 114.33973693847656 157.3885498046875 114.34013366699219 155.6583251953125 114.2514419555664 C153.9281005859375 114.16275024414062 151.8741912841797 113.98497772216797 149.90463256835938 113.78736877441406 C147.93507385253906 113.58975982666016 146.04986572265625 113.372314453125 144.65704345703125 113.20426177978516 C143.26422119140625 113.03621673583984 142.36378479003906 112.91757202148438 142.36378479003906 112.91757202148438 C143.64407348632812 114.68930053710938 145.29873657226562 115.73523712158203 146.63333129882812 116.33824920654297 C147.96792602539062 116.9412612915039 148.98245239257812 117.1013412475586 148.98245239257812 117.1013412475586 C147.17384338378906 117.74539947509766 145.4611053466797 118.24908447265625 143.8206787109375 118.63235473632812 C142.18023681640625 119.01563262939453 140.61209106445312 119.27850341796875 139.09268188476562 119.44093322753906 C137.57327270507812 119.60336303710938 136.1025848388672 119.66535186767578 134.65704345703125 119.64686584472656 C133.21151733398438 119.62837982177734 131.79112243652344 119.52942657470703 130.37232971191406 119.36996459960938 C128.95352172851562 119.21050262451172 127.53630828857422 118.99053192138672 126.09709930419922 118.73002624511719 C124.65789031982422 118.46952056884766 123.19668579101562 118.16847229003906 121.6899185180664 117.84685516357422 C120.18315124511719 117.52523803710938 118.63082885742188 117.18305206298828 117.00935363769531 116.84026336669922 C115.38789367675781 116.49746704101562 113.69728088378906 116.15406799316406 111.91397094726562 115.83003234863281 C110.4873275756836 115.57080078125 108.95458984375 115.41986846923828 107.35597229003906 115.3746566772461 C105.75735473632812 115.3294448852539 104.09285736083984 115.38996887207031 102.40269470214844 115.55364227294922 C100.71253204345703 115.71732330322266 98.99669647216797 115.98416900634766 97.29541015625 116.35160827636719 C95.59412384033203 116.71904754638672 93.90737915039062 117.18708801269531 92.275390625 117.75315856933594 C90.64340209960938 118.31922912597656 89.06617736816406 118.98332977294922 87.58391571044922 119.74290466308594 C86.1016616821289 120.50247955322266 84.71437072753906 121.35751342773438 83.46226501464844 122.30545806884766 C82.21015930175781 123.25340270996094 81.0932388305664 124.29425048828125 80.1517105102539 125.42543029785156 C79.2101821899414 126.5566177368164 78.44405364990234 127.77813720703125 77.8935317993164 129.08743286132812 C77.34300994873047 130.396728515625 77.00809478759766 131.79379272460938 76.92900085449219 133.2760772705078 C76.84990692138672 134.7583465576172 77.02662658691406 136.32583618164062 77.4993896484375 137.9759521484375 C78.05226135253906 139.90602111816406 79.07014465332031 141.33534240722656 80.31591796875 142.45579528808594 C81.56169128417969 143.57626342773438 83.03536987304688 144.3878631591797 84.4998550415039 145.08253479003906 C85.9643325805664 145.77719116210938 87.41961669921875 146.35488891601562 88.62859344482422 147.00755310058594 C89.83757781982422 147.66021728515625 90.80026245117188 148.3878173828125 91.27955627441406 149.38229370117188 C92.05081939697266 150.9830780029297 91.58256530761719 152.2080535888672 90.61543273925781 153.12991333007812 C89.64830017089844 154.0517578125 88.18230438232422 154.6704864501953 86.95808410644531 155.05874633789062 C85.73387145996094 155.44700622558594 84.75143432617188 155.60479736328125 84.75143432617188 155.60479736328125 C84.30319213867188 156.3730010986328 83.60926055908203 156.9588165283203 82.75666046142578 157.3179931640625 C81.90406036376953 157.6771697998047 80.89278411865234 157.80972290039062 79.80985260009766 157.67137145996094 C78.72692108154297 157.53302001953125 77.57233428955078 157.123779296875 76.43309783935547 156.39938354492188 C75.29386901855469 155.67498779296875 74.16999053955078 154.63543701171875 73.14849090576172 153.2364959716797 C72.12698364257812 151.83755493164062 71.20784759521484 150.07919311523438 70.47810363769531 147.91717529296875 C69.74835205078125 145.75515747070312 69.20799255371094 143.18948364257812 68.94403076171875 140.17587280273438 C68.1362533569336 139.57403564453125 67.38921356201172 138.8339080810547 66.714599609375 137.97528076171875 C66.03997802734375 137.1166534423828 65.43778991699219 136.13954162597656 64.91970825195312 135.06369018554688 C64.40162658691406 133.98785400390625 63.9676628112793 132.81329345703125 63.62949752807617 131.55978393554688 C63.29133224487305 130.3062744140625 63.048973083496094 128.9738311767578 62.91410446166992 127.58222961425781 C62.77923583984375 126.19062042236328 62.751861572265625 124.73985290527344 62.843666076660156 123.24969482421875 C62.93547439575195 121.7595443725586 63.146461486816406 120.2300033569336 63.48832321166992 118.68086242675781 C63.83018112182617 117.13172149658203 64.30290985107422 115.56298065185547 64.91820526123047 113.9944076538086 C65.53349304199219 112.42584228515625 66.29135131835938 110.8574447631836 67.20345306396484 109.30900573730469 C68.11555480957031 107.76056671142578 69.1819076538086 106.2320785522461 70.41419982910156 104.74332427978516 C71.64649200439453 103.25457763671875 73.04472351074219 101.80555725097656 74.62059020996094 100.41604614257812 C76.59041595458984 98.67915344238281 78.59781646728516 97.23895263671875 80.60261535644531 96.04840850830078 C82.60741424560547 94.85786437988281 84.609619140625 93.9169692993164 86.56904602050781 93.17869567871094 C88.52847290039062 92.44042205810547 90.44512939453125 91.90477752685547 92.27884674072266 91.52471160888672 C94.11256408691406 91.1446533203125 95.86333465576172 90.92017364501953 97.4909896850586 90.80426025390625 C99.11864471435547 90.68833923339844 100.6231918334961 90.68098449707031 101.96444702148438 90.73513793945312 C103.30570220947266 90.78929901123047 104.48367309570312 90.90498352050781 105.45819091796875 91.03515625 C106.43270874023438 91.16532897949219 107.20376586914062 91.30998992919922 107.73119354248047 91.42211151123047 C108.25862121582031 91.53423309326172 108.54241943359375 91.61380767822266 108.54241943359375 91.61380767822266 C109.46484375 90.54165649414062 110.68309783935547 89.95185852050781 112.09384155273438 89.7284927368164 C113.50458526611328 89.505126953125 115.10781860351562 89.64818572998047 116.80018615722656 90.04173278808594 C118.4925537109375 90.4352798461914 120.27405548095703 91.07931518554688 122.04135131835938 91.85789489746094 C123.80863952636719 92.63648223876953 125.56172180175781 93.54961395263672 127.1972427368164 94.48136901855469 C128.832763671875 95.41311645507812 130.3507080078125 96.36348724365234 131.6477508544922 97.21652221679688 C132.94479370117188 98.06956481933594 134.02093505859375 98.82528686523438 134.77279663085938 99.36774444580078 C135.52467346191406 99.91020202636719 135.95228576660156 100.2394027709961 135.95228576660156 100.2394027709961 C135.95228576660156 100.2394027709961 137.18984985351562 99.77243041992188 138.78741455078125 99.60163879394531 C140.38497924804688 99.43083953857422 142.34254455566406 99.55621337890625 143.7825164794922 100.74091339111328 C145.04884338378906 101.7820053100586 145.58831787109375 102.93518829345703 145.99050903320312 104.11296081542969 C146.39271545410156 105.29074096679688 146.6576690673828 106.49311828613281 147.37496948242188 107.63261413574219 C148.09226989746094 108.77210998535156 149.26193237304688 109.84872436523438 151.47354125976562 110.77497863769531"></path>
<path fill="#E7EFF7" fill-opacity="1.0"  filling="0" d="M143.92138671875 107.37406158447266 C143.19522094726562 108.07931518554688 142.23211669921875 108.40318298339844 141.26210021972656 108.35670471191406 C140.29208374023438 108.31022644042969 139.31517028808594 107.89340209960938 138.5614013671875 107.1172866821289 C137.80731201171875 106.34086608886719 137.41905212402344 105.35203552246094 137.40084838867188 104.38099670410156 C137.38262939453125 103.40995788574219 137.73448181152344 102.45671844482422 138.46063232421875 101.75146484375 C139.18679809570312 101.04620361328125 140.14990234375 100.72233581542969 141.1199951171875 100.76889038085938 C142.090087890625 100.81544494628906 143.06715393066406 101.232421875 143.82122802734375 102.00885009765625 C144.57501220703125 102.78496551513672 144.963134765625 103.77363586425781 144.98126220703125 104.74459075927734 C144.99940490722656 105.7155532836914 144.64755249023438 106.66879272460938 143.92138671875 107.37406158447266"></path>
<path fill="#1A426B" fill-opacity="1.0"  filling="0" d="M143.82122802734375 102.00885009765625 C143.75149536132812 101.93704986572266 143.677978515625 101.87135314941406 143.60507202148438 101.80626678466797 C142.43618774414062 101.50973510742188 141.21255493164062 101.76025390625 140.3565216064453 102.59164428710938 C139.66314697265625 103.26506805419922 139.34292602539062 104.19122314453125 139.38571166992188 105.1443099975586 C139.42849731445312 106.0973892211914 139.83428955078125 107.077392578125 140.59292602539062 107.85850524902344 C140.77059936523438 108.04144287109375 140.96026611328125 108.20304107666016 141.15757751464844 108.34748840332031 C142.1628875732422 108.42310333251953 143.1696014404297 108.10541534423828 143.92198181152344 107.37468719482422 C144.64785766601562 106.66911315917969 144.99954223632812 105.71570587158203 144.98133850097656 104.74467468261719 C144.963134765625 103.77363586425781 144.57501220703125 102.78496551513672 143.82122802734375 102.00885009765625"></path>
<path fill="#E7EFF7" fill-opacity="1.0"  filling="0" d="M142.636962890625 102.13499450683594 C142.46897888183594 101.9620361328125 142.2745361328125 101.8317642211914 142.0665740966797 101.74134063720703 C141.43161010742188 101.848388671875 140.83541870117188 102.12530517578125 140.3565216064453 102.59041595458984 C140.00811767578125 102.92878723144531 139.75421142578125 103.33072662353516 139.59271240234375 103.7678451538086 C139.66128540039062 104.08584594726562 139.81198120117188 104.39089965820312 140.05575561523438 104.64189147949219 C140.74827575683594 105.35493469238281 141.88674926757812 105.37157440185547 142.59979248046875 104.6790542602539 C143.31224060058594 103.98710632324219 143.32948303222656 102.84803771972656 142.636962890625 102.13499450683594"></path>
<path fill="#1A426B" fill-opacity="1.0"  filling="0" d="M69.22195434570312 139.35020446777344 C71.41201782226562 140.0885009765625 72.50704956054688 140.45765686035156 73.40455627441406 140.39013671875 C74.30207061767578 140.32260131835938 75.00205993652344 139.81838989257812 76.40203857421875 138.80996704101562 C76.75537109375 138.55535888671875 76.75537109375 138.55535888671875 77.059326171875 138.604736328125 C77.36207580566406 138.6540985107422 77.36207580566406 138.6540985107422 77.61666870117188 139.0074462890625 C78.125244140625 139.71351623535156 78.125244140625 139.71351623535156 77.419189453125 140.22206115722656 C75.65653991699219 141.49172973632812 74.77521514892578 142.12655639648438 73.68107604980469 142.2236785888672 C72.5869369506836 142.32080078125 71.27998352050781 141.88023376464844 68.66607666015625 140.99908447265625 C67.84100341796875 140.72177124023438 67.84100341796875 140.72177124023438 68.11959838867188 139.8966827392578 C68.25794982910156 139.48443603515625 68.25794982910156 139.48443603515625 68.53384399414062 139.3475341796875 C68.80975341796875 139.21060180664062 68.80975341796875 139.21060180664062 69.22195434570312 139.35020446777344"></path>
<path fill="#1A426B" fill-opacity="1.0"  filling="0" d="M74.93832397460938 140.40989685058594 C75.3785400390625 142.42562866210938 75.6720199584961 143.7694549560547 76.08528137207031 144.88938903808594 C76.49855041503906 146.00933837890625 77.03160095214844 146.9053955078125 77.95096588134766 148.02561950683594 C78.87033081054688 149.14584350585938 80.17601013183594 150.49020385742188 82.134521484375 152.50677490234375 C82.74093627929688 153.13116455078125 82.74093627929688 153.13116455078125 82.11654663085938 153.73757934570312 C81.49217224121094 154.34397888183594 81.49217224121094 154.34397888183594 80.88575744628906 153.71957397460938 C79.33045959472656 152.11817932128906 78.16398620605469 150.91712951660156 77.26681518554688 149.91427612304688 C76.36964416503906 148.9114227294922 75.74178314208984 148.1067657470703 75.26371002197266 147.29812622070312 C74.78562927246094 146.489501953125 74.45733642578125 145.67689514160156 74.15931701660156 144.65817260742188 C73.86128234863281 143.6394500732422 73.59352111816406 142.4145965576172 73.23651123046875 140.78146362304688 C73.05134582519531 139.93116760253906 73.05134582519531 139.93116760253906 73.90164184570312 139.74476623535156 C74.32647705078125 139.65249633789062 74.32647705078125 139.65249633789062 74.58566284179688 139.8181610107422 C74.84481811523438 139.9850616455078 74.84481811523438 139.9850616455078 74.93832397460938 140.40989685058594"></path>
<path fill="#1A426B" fill-opacity="1.0"  filling="0" d="M109.23220825195312 91.08096313476562 C110.4526138305664 92.66423797607422 111.367919921875 93.85169219970703 112.03539276123047 94.88713836669922 C112.70286560058594 95.9225845336914 113.12251281738281 96.80601501464844 113.35160064697266 97.78124237060547 C113.5806884765625 98.7564697265625 113.61921691894531 99.82350158691406 113.52445983886719 101.22613525390625 C113.42970275878906 102.62877655029297 113.20166015625 104.36701965332031 112.89759826660156 106.6846694946289 C112.5963363647461 108.97927856445312 112.44570922851562 110.1265869140625 112.17373657226562 111.12130737304688 C111.90176391601562 112.11603546142578 111.50845336914062 112.95819091796875 110.72183227539062 114.64248657226562 C110.53755187988281 115.03621673583984 110.53755187988281 115.03621673583984 110.24797058105469 115.14152526855469 C109.958984375 115.24626922607422 109.958984375 115.24626922607422 109.56463623046875 115.06260681152344 C108.7760009765625 114.69408416748047 108.7760009765625 114.69408416748047 109.14453125 113.90542602539062 C109.87428283691406 112.34309387207031 110.2391586303711 111.56193542480469 110.4925765991211 110.63102722167969 C110.7459945678711 109.70011901855469 110.88795471191406 108.61947631835938 111.171875 106.45817565917969 C111.45223999023438 104.31976318359375 111.66251373291016 102.71595001220703 111.75084686279297 101.42308044433594 C111.83917236328125 100.13020324707031 111.80555725097656 99.14826965332031 111.59814453125 98.25360870361328 C111.39073181152344 97.35894775390625 111.009521484375 96.55155181884766 110.40266418457031 95.60775756835938 C109.79580688476562 94.66397094726562 108.96330261230469 93.58378601074219 107.85328674316406 92.14354705810547 C107.58686828613281 91.79928588867188 107.58686828613281 91.79928588867188 107.62643432617188 91.49393463134766 C107.66659545898438 91.18922424316406 107.66659545898438 91.18922424316406 108.01144409179688 90.92341613769531 C108.69999694824219 90.39179992675781 108.69999694824219 90.39179992675781 109.23220825195312 91.08096313476562"></path>
<path fill="#1A426B" fill-opacity="1.0"  filling="0" d="M63.595123291015625 117.53544616699219 C65.50078582763672 117.62155151367188 66.77122497558594 117.67894744873047 67.78754425048828 117.86874389648438 C68.80386352539062 118.05853271484375 69.5660629272461 118.3807144165039 70.45524597167969 118.99637603759766 C71.34442901611328 119.61203002929688 72.360595703125 120.52117919921875 73.88484191894531 121.8848876953125 C75.02286529541016 122.9029769897461 75.59187316894531 123.41201782226562 76.02127838134766 123.9183349609375 C76.45068359375 124.42463684082031 76.740478515625 124.92821502685547 77.320068359375 125.93536376953125 C77.75408935546875 126.68958282470703 77.75408935546875 126.68958282470703 76.99989318847656 127.12358856201172 C76.6224365234375 127.34091186523438 76.6224365234375 127.34091186523438 76.32630920410156 127.26087951660156 C76.02896118164062 127.18083190917969 76.02896118164062 127.18083190917969 75.8116455078125 126.80340576171875 C74.79110717773438 125.03178405761719 74.79110717773438 125.03178405761719 72.72468566894531 123.18270874023438 C71.35415649414062 121.95687103271484 70.44046783447266 121.1396484375 69.64259338378906 120.58625793457031 C68.84471893310547 120.03286743164062 68.16265869140625 119.74332427978516 67.25537109375 119.57284545898438 C66.34808349609375 119.40235900878906 65.215576171875 119.35094451904297 63.516815185546875 119.27381896972656 C62.64698791503906 119.23526000976562 62.64698791503906 119.23526000976562 62.68678283691406 118.36547088623047 C62.7060546875 117.93058013916016 62.7060546875 117.93058013916016 62.933135986328125 117.72337341308594 C63.16082763671875 117.51558685302734 63.16082763671875 117.51558685302734 63.595123291015625 117.53544616699219"></path>
<path fill="#1A426B" fill-opacity="1.0"  filling="0" d="M88.56553649902344 91.89576721191406 C90.27421569824219 92.95203399658203 91.55573272705078 93.7442398071289 92.54175567626953 94.48265838623047 C93.52777862548828 95.22108459472656 94.21831512451172 95.90573120117188 94.74504852294922 96.74688720703125 C95.27177429199219 97.58804321289062 95.63470458984375 98.5857162475586 95.96550750732422 99.95018768310547 C96.29631042480469 101.31465911865234 96.59498596191406 103.04592895507812 96.99322509765625 105.35429382324219 C97.38678741455078 107.6353530883789 97.58357238769531 108.77587890625 97.61223602294922 109.81593322753906 C97.64089965820312 110.85598754882812 97.50145721435547 111.79557037353516 97.22256469726562 113.67472839355469 C97.15902709960938 114.10527038574219 97.15902709960938 114.10527038574219 96.9119873046875 114.28816986083984 C96.66496276855469 114.47230529785156 96.66496276855469 114.47230529785156 96.23439025878906 114.40754699707031 C95.373291015625 114.28047943115234 95.373291015625 114.28047943115234 95.5015869140625 113.41937255859375 C95.75968933105469 111.6781005859375 95.88874053955078 110.80746459960938 95.86075592041016 109.83636474609375 C95.83277130126953 108.8652572631836 95.64775085449219 107.79368591308594 95.2777099609375 105.65054321289062 C94.91281127929688 103.53517150878906 94.63914489746094 101.94864654541016 94.33751678466797 100.69918823242188 C94.035888671875 99.4497299194336 93.70630645751953 98.53733825683594 93.22958374023438 97.77023315429688 C92.75286102294922 97.00312805175781 92.12899780273438 96.38131713867188 91.23882293701172 95.71302032470703 C90.34864807128906 95.04472351074219 89.19215393066406 94.32994079589844 87.65016174316406 93.37689208984375 C86.90960693359375 92.91920471191406 86.90960693359375 92.91920471191406 87.36727905273438 92.17861938476562 C87.59611511230469 91.808349609375 87.59611511230469 91.808349609375 87.89566040039062 91.73823547363281 C88.19526672363281 91.66687774658203 88.19526672363281 91.66687774658203 88.56553649902344 91.89576721191406"></path>
<path fill="#1A426B" fill-opacity="1.0"  filling="0" d="M73.12104797363281 101.22572326660156 C75.2649154663086 101.8740005493164 76.69415283203125 102.30618286132812 77.79283905029297 102.87265014648438 C78.89151763916016 103.43911743164062 79.65963745117188 104.13986206054688 80.48124694824219 105.32527160644531 C81.3028564453125 106.51068115234375 82.17796325683594 108.18074035644531 83.49063110351562 110.68584442138672 C84.4610595703125 112.53768157958984 84.94627380371094 113.4636001586914 85.27548217773438 114.34507751464844 C85.60469055175781 115.22655487060547 85.77789306640625 116.06358337402344 86.12429809570312 117.73765563964844 C86.21224975585938 118.16427612304688 86.21224975585938 118.16427612304688 86.04290771484375 118.42093658447266 C85.87420654296875 118.67823791503906 85.87420654296875 118.67823791503906 85.44819641113281 118.76681518554688 C84.59556579589844 118.94331359863281 84.59556579589844 118.94331359863281 84.41905212402344 118.09068298339844 C84.09767150878906 116.53608703613281 83.93698120117188 115.7587890625 83.628173828125 114.93423461914062 C83.31936645507812 114.10968780517578 82.8624496459961 113.23788452148438 81.9486083984375 111.49427032470703 C80.7489242553711 109.20462799072266 79.94914245605469 107.67820739746094 79.20361328125 106.5964126586914 C78.45808410644531 105.51461791992188 77.76683044433594 104.87745666503906 76.78419494628906 104.36634826660156 C75.80156707763672 103.85523986816406 74.52757263183594 103.47018432617188 72.6165771484375 102.89260864257812 C71.78373718261719 102.6409912109375 71.78373718261719 102.6409912109375 72.03596496582031 101.80757141113281 C72.16146850585938 101.39083099365234 72.16146850585938 101.39083099365234 72.43258666992188 101.24523162841797 C72.70429992675781 101.10023498535156 72.70429992675781 101.10023498535156 73.12104797363281 101.22572326660156"></path>
<path fill="#EB7D46" fill-opacity="1.0"  filling="0" d="M80.49960327148438 123.34242248535156 C80.49960327148438 123.34242248535156 80.76891326904297 124.28504180908203 81.16499328613281 125.61692810058594 C81.56107330322266 126.94881439208984 82.08392333984375 128.6699676513672 82.59099578857422 130.22705078125 C83.09806823730469 131.7841339111328 83.58937072753906 133.17713928222656 83.92236328125 133.85272216796875 C84.2551498413086 134.52810668945312 85.64849090576172 135.02520751953125 87.3306884765625 135.4702606201172 C89.01288604736328 135.91531372070312 90.98393249511719 136.30828857421875 92.47212219238281 136.775390625 C93.96031188964844 137.24249267578125 94.96563720703125 137.78372192382812 94.71638488769531 138.52528381347656 C94.4671401977539 139.266845703125 93.04476165771484 139.39517211914062 91.21847534179688 139.1781463623047 C89.39219665527344 138.96112060546875 87.16201782226562 138.39874267578125 85.29718017578125 137.7589111328125 C83.4323501586914 137.11904907226562 81.932861328125 136.4017333984375 81.56796264648438 135.87484741210938 C81.20305633544922 135.3479461669922 80.6560287475586 134.02874755859375 80.0888442993164 132.50396728515625 C79.52165985107422 130.97918701171875 78.93431854248047 129.24887084960938 78.48876953125 127.89972686767578 C78.04322052001953 126.55058288574219 77.73947143554688 125.5826416015625 77.73947143554688 125.5826416015625 L80.49960327148438 123.34242248535156"></path>
<path fill="#EB7D46" fill-opacity="1.0"  filling="0" d="M87.67205810546875 117.58976745605469 C87.67205810546875 117.58976745605469 87.91687774658203 118.50952911376953 88.28028106689453 119.8109130859375 C88.6436767578125 121.1123046875 89.12566375732422 122.79531860351562 89.59999084472656 124.32183074951172 C90.07432556152344 125.84834289550781 90.54100036621094 127.21835327148438 90.873779296875 127.89371490478516 C91.20655822753906 128.569091796875 92.6259536743164 129.24002075195312 94.34288787841797 129.9167938232422 C96.05982208251953 130.59356689453125 98.07429504394531 131.27615356445312 99.59722900390625 131.97483825683594 C101.12015533447266 132.67352294921875 102.15155029296875 133.3883056640625 101.90231323242188 134.12945556640625 C101.65306854248047 134.8710174560547 100.20462799072266 134.8255157470703 98.34363555908203 134.3767547607422 C96.48263549804688 133.927978515625 94.2090835571289 133.075927734375 92.30960083007812 132.2044219970703 C90.41011810302734 131.33290100097656 88.88470458984375 130.44189453125 88.52000427246094 129.91522216796875 C88.15509796142578 129.38833618164062 87.63263702392578 128.09205627441406 87.09819793701172 126.59786224365234 C86.56376647949219 125.1036605834961 86.01734924316406 123.41153717041016 85.60454559326172 122.09297180175781 C85.19174194335938 120.77439880371094 84.91255187988281 119.82937622070312 84.91255187988281 119.82937622070312 L87.67205810546875 117.58976745605469"></path>
<path fill="#EB7D46" fill-opacity="1.0"  filling="0" d="M98.16061401367188 114.14204406738281 C98.16061401367188 114.14204406738281 98.2583999633789 115.01396942138672 98.42576599121094 116.25157928466797 C98.59312438964844 117.48918914794922 98.8300552368164 119.09248352050781 99.10833740234375 120.55522155761719 C99.38662719726562 122.01795959472656 99.70626831054688 123.34013366699219 100.03904724121094 124.01551818847656 C100.371826171875 124.69090270996094 101.76316833496094 125.32046508789062 103.44270324707031 125.94205474853516 C105.12223815917969 126.56364440917969 107.08995056152344 127.1772689819336 108.57547760009766 127.82078552246094 C110.06100463867188 128.46429443359375 111.0643310546875 129.1376953125 110.81509399414062 129.87884521484375 C110.56605529785156 130.62022399902344 109.14574432373047 130.6160430908203 107.32215118408203 130.22244262695312 C105.49856567382812 129.82884216308594 103.27169799804688 129.04583740234375 101.40955352783203 128.22955322265625 C99.54740905761719 127.41326904296875 98.04998779296875 126.563720703125 97.68527221679688 126.03703308105469 C97.1379165649414 125.2467041015625 96.56703186035156 122.83271789550781 96.13298034667969 120.61631774902344 C95.69892883300781 118.39990997314453 95.40171813964844 116.38108825683594 95.40171813964844 116.38108825683594 L98.16061401367188 114.14204406738281"></path>
<path fill="#EB7D46" fill-opacity="1.0"  filling="0" d="M109.32127380371094 114.86824798583984 C110.0756607055664 115.2506332397461 111.08474731445312 116.21356201171875 112.09491729736328 117.32752227783203 C113.10508728027344 118.44148254394531 114.11632537841797 119.70645904541016 114.87503051757812 120.69295501708984 C115.63372802734375 121.679443359375 116.139892578125 122.387451171875 116.139892578125 122.387451171875 C116.139892578125 122.387451171875 117.21195220947266 122.44284057617188 118.73970794677734 122.58435821533203 C120.26747131347656 122.72587585449219 122.25091552734375 122.95352172851562 124.07369995117188 123.29802703857422 C125.89646911621094 123.64253234863281 127.55857849121094 124.10389709472656 128.44363403320312 124.71285247802734 C129.32870483398438 125.32181549072266 130.43177795410156 126.64913940429688 131.49560546875 128.17124938964844 C132.55941772460938 129.693359375 133.583984375 131.4102325439453 134.31204223632812 132.79830932617188 C135.04010009765625 134.18638610839844 135.47164916992188 135.24566650390625 135.3494110107422 135.45254516601562 C135.22718811035156 135.659423828125 134.42556762695312 134.77352905273438 133.37322998046875 133.48497009277344 C132.32089233398438 132.1964111328125 131.01780700683594 130.5051727294922 129.89266967773438 129.10140991210938 C128.7675323486328 127.69763946533203 127.82032012939453 126.58132934570312 127.47970581054688 126.44258117675781 C127.13909149169922 126.30341339111328 125.6629638671875 126.21954345703125 123.79010772705078 126.12284851074219 C121.91725158691406 126.0261459350586 119.64764404296875 125.91661071777344 117.72007751464844 125.72610473632812 C115.7925033569336 125.53559112548828 114.20695495605469 125.26410675048828 113.70220947265625 124.843505859375 C113.19766998291016 124.42311096191406 112.11805725097656 123.1708755493164 110.90281677246094 121.68807983398438 C109.68757629394531 120.20527648925781 108.33670043945312 118.49190521240234 107.28964233398438 117.14923095703125 C106.2425765991211 115.80656433105469 105.49932861328125 114.8345947265625 105.49932861328125 114.8345947265625 L109.32127380371094 114.86824798583984"></path>
<path fill="#EB7D46" fill-opacity="1.0"  filling="0" d="M132.15606689453125 62.69810485839844 C132.17958068847656 64.38438415527344 132.19837951660156 65.73341369628906 132.29209899902344 66.8741683959961 C132.38580322265625 68.01492309570312 132.55441284179688 68.9474105834961 132.87753295898438 69.80060577392578 C133.20065307617188 70.65380859375 133.6782684326172 71.42772674560547 134.38998413085938 72.2513427734375 C135.10171508789062 73.07496643066406 136.04754638671875 73.94828796386719 137.3070831298828 75.00028991699219 C138.56661987304688 76.05230712890625 140.13986206054688 77.28300476074219 142.10643005371094 78.82137298583984 C143.2908477783203 79.74781036376953 144.23838806152344 80.48896026611328 145.115966796875 81.14234161376953 C145.99356079101562 81.79572296142578 146.80120849609375 82.36133575439453 147.7058563232422 82.93670654296875 C148.61050415039062 83.51207733154297 149.61215209960938 84.09719848632812 150.8777313232422 84.78958892822266 C152.143310546875 85.48198699951172 153.6728515625 86.28165435791016 155.63323974609375 87.28611755371094 C157.59365844726562 88.29058074951172 159.98492431640625 89.49983215332031 162.97402954101562 91.01140594482422 C166.06320190429688 92.5733413696289 168.3800811767578 93.74478912353516 170.1807861328125 94.67293548583984 C171.9814910888672 95.60108184814453 173.2660369873047 96.28591918945312 174.29054260253906 96.8746337890625 C175.31503295898438 97.46334838867188 176.07949829101562 97.9559326171875 176.84002685546875 98.49956512451172 C177.60055541992188 99.04319763183594 178.35714721679688 99.63787841796875 179.365966796875 100.43079376220703 C181.70156860351562 102.26717376708984 183.25863647460938 103.4914321899414 184.21136474609375 104.51292419433594 C185.16409301757812 105.53441619873047 185.51246643066406 106.35314178466797 185.43069458007812 107.37847137451172 C185.3489227294922 108.40380096435547 184.83700561523438 109.63572692871094 184.06912231445312 111.48362731933594 C183.19436645507812 113.5885238647461 182.49456787109375 115.27244567871094 181.8184356689453 116.59295654296875 C181.14230346679688 117.9134750366211 180.48985290527344 118.8705825805664 179.70977783203125 119.5218734741211 C178.92970275878906 120.17315673828125 178.0220184326172 120.51861572265625 176.83543395996094 120.6158218383789 C175.6488494873047 120.71302795410156 174.18336486816406 120.5619888305664 172.28770446777344 120.22026824951172 C170.39205932617188 119.87855529785156 168.06622314453125 119.34616088867188 165.15892028808594 118.6806640625 C162.81256103515625 118.14371490478516 161.24832153320312 117.78575134277344 159.9751739501953 117.41291046142578 C158.7020263671875 117.04006958007812 157.719970703125 116.65234375 156.5379638671875 116.05589294433594 C155.35595703125 115.45944213867188 153.97402954101562 114.65425109863281 151.90110778808594 113.44647216796875 C151.14915466308594 113.0083236694336 151.14915466308594 113.0083236694336 151.58731079101562 112.25637817382812 C151.80641174316406 111.87979125976562 151.80641174316406 111.87979125976562 152.104248046875 111.8016357421875 C152.40206909179688 111.72354125976562 152.40206909179688 111.72354125976562 152.77740478515625 111.94259643554688 C154.77381896972656 113.10575866699219 156.10476684570312 113.8812026977539 157.2432098388672 114.45565795898438 C158.38165283203125 115.03011322021484 159.32757568359375 115.40357971191406 160.55397033691406 115.76278686523438 C161.78036499023438 116.12200164794922 163.28720092773438 116.46695709228516 165.5474853515625 116.98439025878906 C168.16839599609375 117.58415222167969 170.26513671875 118.06395721435547 171.97299194335938 118.37445831298828 C173.68084716796875 118.6849594116211 174.9998321533203 118.82615661621094 176.0652618408203 118.74868774414062 C177.1306915283203 118.67122650146484 177.9425506591797 118.3750991821289 178.6361541748047 117.81095886230469 C179.32977294921875 117.24681091308594 179.90512084960938 116.41465759277344 180.49752807617188 115.26512908935547 C181.08995056152344 114.1156005859375 181.69943237304688 112.64869689941406 182.46127319335938 110.81507873535156 C183.06008911132812 109.37403869628906 183.4593048095703 108.4133529663086 183.50440979003906 107.59911346435547 C183.54949951171875 106.78488159179688 183.24050903320312 106.11709594726562 182.42288208007812 105.26187896728516 C181.60528564453125 104.40666198730469 180.279052734375 103.364013671875 178.28973388671875 101.80003356933594 C177.31500244140625 101.03346252441406 176.58395385742188 100.45853424072266 175.84500122070312 99.93094635009766 C175.10604858398438 99.40335845947266 174.35919189453125 98.92311096191406 173.35284423828125 98.34589385986328 C172.34649658203125 97.7686767578125 171.0806427001953 97.09449768066406 169.3037109375 96.1790542602539 C167.52679443359375 95.26361083984375 165.23878479003906 94.10688781738281 162.1881103515625 92.56460571289062 C159.1688232421875 91.0379409790039 156.75338745117188 89.81661224365234 154.77256774902344 88.80164337158203 C152.79176330566406 87.78667449951172 151.24557495117188 86.97806549072266 149.96478271484375 86.27684783935547 C148.68399047851562 85.57563018798828 147.6685791015625 84.98179626464844 146.74932861328125 84.3963851928711 C145.830078125 83.81097412109375 145.00698852539062 83.23397064208984 144.11080932617188 82.56642150878906 C143.2146453857422 81.89886474609375 142.24539184570312 81.14076232910156 141.03384399414062 80.19312286376953 C138.93594360351562 78.55200958251953 137.25762939453125 77.23912048339844 135.9139404296875 76.11468505859375 C134.57025146484375 74.99024963378906 133.5612030029297 74.05426025390625 132.80181884765625 73.16696166992188 C132.0424346923828 72.27965545654297 131.53273010253906 71.4410400390625 131.187744140625 70.51133728027344 C130.8427734375 69.58163452148438 130.66250610351562 68.56083679199219 130.56204223632812 67.30919647216797 C130.46156311035156 66.05754852294922 130.44085693359375 64.57504272460938 130.4149932861328 62.72191619873047 C130.40902709960938 62.287269592285156 130.40902709960938 62.287269592285156 130.6239776611328 62.06634521484375 C130.8383331298828 61.846046447753906 130.8383331298828 61.846046447753906 131.27362060546875 61.83946990966797 C132.14413452148438 61.827545166015625 132.14413452148438 61.827545166015625 132.15606689453125 62.69810485839844"></path>
<path fill="#EB7D46" fill-opacity="1.0"  filling="0" d="M142.0391387939453 68.17045593261719 C142.0861358642578 70.31368255615234 142.1237335205078 72.02826690673828 142.22987365722656 73.46818542480469 C142.3360137939453 74.90811157226562 142.51071166992188 76.07337188720703 142.83189392089844 77.11796569824219 C143.15309143066406 78.16255950927734 143.6207733154297 79.08648681640625 144.3129119873047 80.0437240600586 C145.00503540039062 81.00096130371094 145.92161560058594 81.99151611328125 147.1405792236328 83.16938018798828 C148.3595428466797 84.34723663330078 149.88088989257812 85.71239471435547 151.7825927734375 87.4188461303711 C152.90878295898438 88.42924499511719 153.80975341796875 89.2375717163086 154.63970947265625 89.94253540039062 C155.4696807861328 90.64749908447266 156.22865295410156 91.24910736083984 157.07089233398438 91.84607696533203 C157.91311645507812 92.44305419921875 158.83860778808594 93.03539276123047 160.00160217285156 93.7218246459961 C161.1645965576172 94.40824890136719 162.56509399414062 95.18877410888672 164.35736083984375 96.162109375 C166.14962768554688 97.13543701171875 168.33364868164062 98.30158996582031 171.06365966796875 99.75926971435547 C173.55331420898438 101.08870697021484 175.42054748535156 102.08578491210938 176.86756896972656 102.87577056884766 C178.31459045410156 103.66575622558594 179.34140014648438 104.2486572265625 180.1501922607422 104.74974060058594 C180.958984375 105.25082397460938 181.54977416992188 105.67008972167969 182.124755859375 106.13280487060547 C182.69973754882812 106.59552001953125 183.2589111328125 107.1016845703125 184.00445556640625 107.77658081054688 C185.73867797851562 109.34606170654297 186.8948211669922 110.39238739013672 187.55978393554688 111.27749633789062 C188.22474670410156 112.16260528564453 188.3985137939453 112.8864974975586 188.16798400878906 113.81112670898438 C187.93743896484375 114.73575592041016 187.3026123046875 115.86111450195312 186.350341796875 117.54916381835938 C185.3411102294922 119.3386459350586 184.5000762939453 120.82988739013672 183.7294158935547 122.04227447509766 C182.95875549316406 123.2546615600586 182.25845336914062 124.18819427490234 181.5306854248047 124.86227416992188 C180.80291748046875 125.5363540649414 180.0476837158203 125.95098114013672 179.16712951660156 126.12554931640625 C178.2865753173828 126.30011749267578 177.2807159423828 126.23463439941406 176.05169677734375 125.948486328125 C174.8226776123047 125.66233825683594 173.37051391601562 125.15552520751953 171.59735107421875 124.44744873046875 C169.82418823242188 123.7393798828125 167.73004150390625 122.83003234863281 165.21707153320312 121.73883056640625 C163.39266967773438 120.94662475585938 162.02435302734375 120.35247039794922 160.9021453857422 119.82542419433594 C159.77993774414062 119.29837799072266 158.90382385253906 118.83843994140625 158.06381225585938 118.31466674804688 C157.22378540039062 117.7908935546875 156.41986083984375 117.20328521728516 155.44203186035156 116.42090606689453 C154.46420288085938 115.63851928710938 153.31246948242188 114.66136169433594 151.7768096923828 113.35847473144531 C151.1128692626953 112.79603576660156 151.1128692626953 112.79603576660156 151.67654418945312 112.1321029663086 C151.9571533203125 111.80012512207031 151.9571533203125 111.80012512207031 152.26405334472656 111.77507019042969 C152.57095336914062 111.75 152.57095336914062 111.75 152.90292358398438 112.03182983398438 C154.38963317871094 113.29276275634766 155.50466918945312 114.23846435546875 156.45127868652344 114.99565124511719 C157.3978729248047 115.75283813476562 158.17604064941406 116.32150268554688 158.98902893066406 116.82837677001953 C159.80201721191406 117.33525085449219 160.64981079101562 117.78032684326172 161.73568725585938 118.29032897949219 C162.821533203125 118.80033111572266 164.1454620361328 119.37525939941406 165.9106903076172 120.1418228149414 C168.63841247558594 121.3262939453125 170.8206024169922 122.27388000488281 172.60862731933594 122.95698547363281 C174.3966522216797 123.64009094238281 175.79051208496094 124.05873107910156 176.94158935546875 124.18531799316406 C178.09268188476562 124.31190490722656 179.00099182128906 124.14645385742188 179.8179168701172 123.66136932373047 C180.63482666015625 123.17628479003906 181.36036682128906 122.37158203125 182.14588928222656 121.21968078613281 C182.93141174316406 120.06777954101562 183.7769317626953 118.56867980957031 184.83383178710938 116.69480895996094 C185.92037963867188 114.76837158203125 186.46365356445312 113.8051528930664 186.21397399902344 112.8515853881836 C185.96429443359375 111.89802551269531 184.9216766357422 110.95411682128906 182.83642578125 109.06629180908203 C181.89540100097656 108.21481323242188 181.26806640625 107.64716339111328 180.48797607421875 107.07550811767578 C179.70790100097656 106.50384521484375 178.77508544921875 105.92817687988281 177.22314453125 105.06066131591797 C175.67120361328125 104.19314575195312 173.5001220703125 103.0337905883789 170.24349975585938 101.29475402832031 C167.47622680664062 99.81719970703125 165.2624053955078 98.63516235351562 163.44505310058594 97.64797973632812 C161.62770080566406 96.66080474853516 160.20681762695312 95.86849212646484 159.02540588378906 95.17040252685547 C157.843994140625 94.4723129272461 156.90206909179688 93.86844635009766 156.04263305664062 93.2581558227539 C155.18319702148438 92.64786529541016 154.40625 92.0311508178711 153.5548095703125 91.30736541748047 C152.703369140625 90.58358764648438 151.77743530273438 89.75273132324219 150.62001037597656 88.71417236328125 C148.6060333251953 86.9071044921875 146.99485778808594 85.46145629882812 145.70391845703125 84.21316528320312 C144.4129638671875 82.96487426757812 143.44224548339844 81.91394805908203 142.7091827392578 80.89633178710938 C141.9761199951172 79.87871551513672 141.480712890625 78.8944091796875 141.14039611816406 77.77936553955078 C140.80007934570312 76.66432189941406 140.6148681640625 75.41854095458984 140.50216674804688 73.87796783447266 C140.3894805908203 72.33739471435547 140.34930419921875 70.50202941894531 140.29910278320312 68.20782470703125 C140.2894287109375 67.77314758300781 140.2894287109375 67.77314758300781 140.501953125 67.55095672607422 C140.71511840820312 67.32817840576172 140.71511840820312 67.32817840576172 141.1504364013672 67.31914520263672 C142.01983642578125 67.29981994628906 142.01983642578125 67.29981994628906 142.0391387939453 68.17045593261719"></path></svg>