<svg xmlns="http://www.w3.org/2000/svg" viewBox="0.0 0.0 256.0 256.0" height="256.0px" width="256.0px"><path fill="#ED7FAA" fill-opacity="1.0"  filling="0" d="M167.70355224609375 102.84799194335938 C168.55088806152344 104.86919403076172 169.15306091308594 106.81349182128906 169.53433227539062 108.6774673461914 C169.9156036376953 110.54144287109375 170.07595825195312 112.32511138916016 170.03964233398438 114.02506256103516 C170.00332641601562 115.72501373291016 169.77032470703125 117.34124755859375 169.36489868164062 118.87036895751953 C168.95945739746094 120.39949035644531 168.381591796875 121.84149169921875 167.655517578125 123.19297790527344 C166.929443359375 124.54446411132812 166.05516052246094 125.80542755126953 165.05691528320312 126.97248077392578 C164.0586700439453 128.1395263671875 162.9364471435547 129.21266174316406 161.71450805664062 130.18846130371094 C160.4925537109375 131.16427612304688 159.17088317871094 132.04275512695312 157.77371215820312 132.82052612304688 C156.3765411376953 133.59829711914062 154.90386962890625 134.27532958984375 153.37994384765625 134.84825134277344 C151.85601806640625 135.42117309570312 150.2808380126953 135.8899688720703 148.6786346435547 136.25123596191406 C147.07643127441406 136.6125030517578 145.44720458984375 136.8662567138672 143.815185546875 137.0090789794922 C142.18316650390625 137.1519012451172 140.54837036132812 137.18380737304688 138.93502807617188 137.1013641357422 C137.32168579101562 137.01893615722656 135.7297821044922 136.82217407226562 134.18357849121094 136.5076904296875 C132.63735961914062 136.19320678710938 131.1368408203125 135.760986328125 129.70623779296875 135.2076416015625 C128.275634765625 134.654296875 126.91495513916016 133.97982788085938 125.6484375 133.18081665039062 C124.38191223144531 132.38180541992188 123.20955657958984 131.45826721191406 122.15558624267578 130.40679931640625 C121.10161590576172 129.35531616210938 120.16604614257812 128.17591857910156 119.37310791015625 126.86517333984375 C118.58016967773438 125.55442810058594 117.92985534667969 124.11235046386719 117.44641876220703 122.53553771972656 C116.96297454833984 120.95872497558594 116.64640808105469 119.24717712402344 116.52093505859375 117.39749145507812 C116.40399169921875 115.6732406616211 116.48283386230469 114.00146484375 116.73502349853516 112.39033508300781 C116.98721313476562 110.77920532226562 117.41275787353516 109.22872161865234 117.98921203613281 107.74708557128906 C118.565673828125 106.26544189453125 119.29304504394531 104.8526382446289 120.14891052246094 103.51685333251953 C121.00477600097656 102.18106842041016 121.98912048339844 100.92230987548828 123.07952880859375 99.74876403808594 C124.16992950439453 98.5752182006836 125.36638641357422 97.48687744140625 126.64646911621094 96.49192810058594 C127.92655181884766 95.49697875976562 129.29025268554688 94.59542846679688 130.71514892578125 93.79546356201172 C132.14004516601562 92.99549102783203 133.62612915039062 92.29710388183594 135.1509552001953 91.70848083496094 C136.67579650878906 91.11985778808594 138.23939514160156 90.64100646972656 139.81932067871094 90.28009796142578 C141.3992462158203 89.91919708251953 142.99549865722656 89.6762466430664 144.5856475830078 89.55943298339844 C146.17579650878906 89.442626953125 147.75982666015625 89.45195007324219 149.31533813476562 89.5956039428711 C150.87083435058594 89.7392578125 152.39779663085938 90.0172348022461 153.87379455566406 90.43772888183594 C155.34979248046875 90.85821533203125 156.77481079101562 91.42121887207031 158.12643432617188 92.1349105834961 C159.47805786132812 92.84860229492188 160.75628662109375 93.71299743652344 161.9386749267578 94.73626708984375 C163.12106323242188 95.75953674316406 164.20761108398438 96.94169616699219 165.1759033203125 98.29092407226562 C166.14419555664062 99.64015197753906 166.99423217773438 101.15644836425781 167.70355224609375 102.84799194335938"></path>
<path fill="#ED7FAA" fill-opacity="1.0"  filling="0" d="M119.6236572265625 103.20074462890625 C118.02751159667969 103.70993041992188 116.37874603271484 103.96375274658203 114.82469940185547 103.76874542236328 C113.2706527709961 103.57373809814453 111.81132507324219 102.92990112304688 110.59405517578125 101.64376831054688 C109.61714172363281 100.61155700683594 108.9969711303711 99.28546905517578 108.69027709960938 97.87957763671875 C108.38358306884766 96.47369384765625 108.39036560058594 94.98800659179688 108.6673583984375 93.6365966796875 C108.97712707519531 92.12440490722656 109.66154479980469 90.81304931640625 110.64573669433594 89.79762268066406 C111.62992858886719 88.7822036743164 112.91389465332031 88.06271362304688 114.42276000976562 87.7342529296875 C115.68497467041016 87.45956420898438 116.97444915771484 87.4695816040039 118.25975036621094 87.68158721923828 C119.54505157470703 87.89359283447266 120.826171875 88.3075942993164 122.07167053222656 88.84087371826172 C123.31716918945312 89.37416076660156 124.52705383300781 90.02671813964844 125.66988372802734 90.71585083007812 C126.81271362304688 91.40498352050781 127.88848114013672 92.13068389892578 128.86575317382812 92.81024169921875 C129.61941528320312 93.33450317382812 130.89328002929688 92.64743041992188 130.79193115234375 91.70480346679688 C130.64114379882812 90.30516815185547 130.59637451171875 88.85018920898438 130.67044067382812 87.38904571533203 C130.7445068359375 85.92790222167969 130.93740844726562 84.4605941772461 131.261962890625 83.03628540039062 C131.58651733398438 81.61198425292969 132.04273986816406 80.23068237304688 132.64344787597656 78.9415512084961 C133.24415588378906 77.65242004394531 133.9893341064453 76.4554672241211 134.89183044433594 75.39985656738281 C135.79432678222656 74.34424591064453 136.8541259765625 73.42997741699219 138.0840606689453 72.70623016357422 C139.31399536132812 71.98248291015625 140.7140655517578 71.44924926757812 142.29708862304688 71.15570068359375 C143.85971069335938 70.86590576171875 145.4714813232422 71.02014923095703 146.93438720703125 71.5632553100586 C148.39730834960938 72.10636138916016 149.7113494873047 73.038330078125 150.67852783203125 74.30398559570312 C151.66787719726562 75.59882354736328 152.2726593017578 77.07656860351562 152.60202026367188 78.63671112060547 C152.93138122558594 80.19685363769531 152.98532104492188 81.83939361572266 152.87301635742188 83.46382141113281 C152.7606964111328 85.08824920654297 152.48211669921875 86.69456481933594 152.14642333984375 88.1822509765625 C151.84024047851562 89.53958129882812 153.83090209960938 90.53030395507812 154.4857177734375 89.16836547851562 C155.08712768554688 87.91816711425781 155.83876037597656 86.62351989746094 156.71498107910156 85.39199829101562 C157.5911865234375 84.16047668457031 158.59197998046875 82.9920654296875 159.69166564941406 81.99433898925781 C160.79135131835938 80.99661254882812 161.98992919921875 80.16957092285156 163.26174926757812 79.62076568603516 C164.5335693359375 79.07196044921875 165.87860107421875 78.80140686035156 167.27120971679688 78.91664123535156 C168.663818359375 79.03189086914062 170.10397338867188 79.53292846679688 171.5660400390625 80.52734375 C172.78025817871094 81.35319519042969 173.6871337890625 82.503662109375 174.28829956054688 83.80439758300781 C174.8894500732422 85.10513305664062 175.18487548828125 86.55613708496094 175.17617797851562 87.98306274414062 C175.16729736328125 89.43868255615234 174.8011474609375 90.81942749023438 174.19613647460938 92.10655975341797 C173.59112548828125 93.39369201660156 172.74722290039062 94.58720397949219 171.78285217285156 95.66834259033203 C170.81846618652344 96.74948120117188 169.73361206054688 97.71824645996094 168.64663696289062 98.55587768554688 C167.49105834960938 99.44674682617188 168.1505126953125 101.14300537109375 169.63272094726562 100.89523315429688 C170.84027099609375 100.69337463378906 172.151611328125 100.59190368652344 173.45765686035156 100.6425552368164 C174.76370239257812 100.69320678710938 176.064453125 100.89598846435547 177.2508544921875 101.3026351928711 C178.437255859375 101.70928955078125 179.50930786132812 102.31981658935547 180.3579559326172 103.18595886230469 C181.2065887451172 104.05209350585938 181.83180236816406 105.1738510131836 182.12454223632812 106.60296630859375 C182.40972900390625 107.99484252929688 182.2305145263672 109.23823547363281 181.73097229003906 110.32856750488281 C181.23143005371094 111.41889190673828 180.41152954101562 112.35614776611328 179.41534423828125 113.13573455810547 C178.41915893554688 113.91532135009766 177.2466583251953 114.53724670410156 176.04190063476562 114.99691009521484 C174.83712768554688 115.45658111572266 173.60009765625 115.75399017333984 172.474853515625 115.88455200195312 C171.21224975585938 116.03094482421875 170.72537231445312 117.51065063476562 171.8287353515625 118.26992797851562 C173.1676025390625 119.19075775146484 174.4643096923828 120.31587982177734 175.57540893554688 121.57765197753906 C176.68650817871094 122.83943176269531 177.6120147705078 124.23786926269531 178.20849609375 125.70532989501953 C178.80496215820312 127.17279052734375 179.07241821289062 128.7092742919922 178.867431640625 130.2471466064453 C178.66244506835938 131.78501892089844 177.98501586914062 133.32427978515625 176.69171142578125 134.79730224609375 C175.49606323242188 136.15908813476562 174.13967895507812 137.01095581054688 172.71975708007812 137.4430389404297 C171.2998504638672 137.8751220703125 169.81640625 137.88743591308594 168.36663818359375 137.57009887695312 C166.9168701171875 137.25274658203125 165.50079345703125 136.60577392578125 164.21560668945312 135.71926879882812 C162.930419921875 134.832763671875 161.776123046875 133.70675659179688 160.84991455078125 132.43136596679688 C160.03887939453125 131.31466674804688 158.076416015625 131.93777465820312 158.51058959960938 133.41744995117188 C158.9244842529297 134.8290252685547 159.15049743652344 136.2785186767578 159.18817138671875 137.71475219726562 C159.225830078125 139.15097045898438 159.0751495361328 140.57394409179688 158.7356414794922 141.93247985839844 C158.39613342285156 143.291015625 157.86781311035156 144.58511352539062 157.15020751953125 145.76361083984375 C156.4326171875 146.94210815429688 155.52572631835938 148.00498962402344 154.4290771484375 148.90110778808594 C153.3324432373047 149.79721069335938 152.04605102539062 150.52655029296875 150.5694580078125 151.03793334960938 C149.55262756347656 151.38992309570312 148.32473754882812 151.61431884765625 147.17022705078125 151.50865173339844 C146.0157470703125 151.4029998779297 144.9346466064453 150.96730041503906 144.21142578125 149.99911499023438 C143.50315856933594 149.05088806152344 143.2311248779297 147.91355895996094 143.2268524169922 146.7139129638672 C143.22259521484375 145.5142822265625 143.48609924316406 144.2523193359375 143.84893798828125 143.05484008789062 C144.21177673339844 141.85736083984375 144.6739501953125 140.724365234375 145.06698608398438 139.78262329101562 C144.24420166015625 139.55581665039062 143.42141723632812 139.32901000976562 142.5986328125 139.10220336914062 C142.25405883789062 140.613525390625 141.722412109375 142.03970336914062 141.02938842773438 143.33189392089844 C140.3363494873047 144.62408447265625 139.48191833496094 145.78228759765625 138.49176025390625 146.75762939453125 C137.50160217285156 147.7329864501953 136.375732421875 148.52548217773438 135.13980102539062 149.08628845214844 C133.90386962890625 149.6470947265625 132.55787658691406 149.97618103027344 131.12750244140625 150.0247039794922 C129.69712829589844 150.07322692871094 128.182373046875 149.8411865234375 126.60888671875 149.27972412109375 C125.20932006835938 148.78025817871094 123.9532470703125 147.9583740234375 122.9655990600586 146.89730834960938 C121.97795104980469 145.8362579345703 121.25872802734375 144.53604125976562 120.932861328125 143.07992553710938 C120.63077545166016 141.73028564453125 120.76127624511719 140.39157104492188 121.16690826416016 139.10687255859375 C121.57254028320312 137.82217407226562 122.25331115722656 136.59146118164062 123.05176544189453 135.45787048339844 C123.8502197265625 134.3242645263672 124.766357421875 133.28775024414062 125.64273071289062 132.39141845703125 C126.67135620117188 131.33975219726562 125.36572265625 129.68035888671875 124.09188842773438 130.38128662109375 C122.98674011230469 130.98902893066406 121.82779693603516 131.53158569335938 120.63555145263672 131.970703125 C119.44330596923828 132.40982055664062 118.2177505493164 132.74551391601562 116.97937774658203 132.9394989013672 C115.74101257324219 133.13348388671875 114.48982238769531 133.18577575683594 113.2463150024414 133.05810546875 C112.0028076171875 132.93045043945312 110.7669677734375 132.62283325195312 109.55929565429688 132.09701538085938 C108.30386352539062 131.550537109375 107.17227935791016 130.80142211914062 106.17896270751953 129.90187072753906 C105.18563842773438 129.0023193359375 104.33058166503906 127.95234680175781 103.62818908691406 126.80413818359375 C102.92579650878906 125.65592956542969 102.37608337402344 124.40950012207031 101.99343872070312 123.11703491210938 C101.6370849609375 121.913330078125 101.44644927978516 120.64584350585938 101.44258880615234 119.38175964355469 C101.438720703125 118.11766815185547 101.62162017822266 116.85697174072266 102.01233673095703 115.66683959960938 C102.4030532836914 114.47669982910156 103.0015869140625 113.35713195800781 103.8289794921875 112.37530517578125 C104.68119812011719 111.36397552490234 105.69351196289062 110.59318542480469 106.80799865722656 110.0171127319336 C107.9224853515625 109.4410400390625 109.1391372680664 109.05967712402344 110.40003967285156 108.82719421386719 C111.66093444824219 108.59471130371094 112.96607208251953 108.5111083984375 114.25752258300781 108.53055572509766 C115.54898071289062 108.55000305175781 116.82674407958984 108.67249298095703 118.03289794921875 108.85220336914062 C119.647216796875 109.09286499023438 120.34149169921875 106.62603759765625 118.71331787109375 106.38385009765625 C117.2753677368164 106.1695785522461 115.79315948486328 106.0293197631836 114.31207275390625 106.00926208496094 C112.83098602294922 105.98920440673828 111.35102081298828 106.08934783935547 109.91754913330078 106.35588073730469 C108.48407745361328 106.62240600585938 107.09709930419922 107.05531311035156 105.80199432373047 107.70079803466797 C104.50688934326172 108.34628295898438 103.30365753173828 109.20433044433594 102.2376708984375 110.32113647460938 C101.15631866455078 111.45419311523438 100.36322784423828 112.76502990722656 99.82379150390625 114.1732177734375 C99.28434753417969 115.58140563964844 98.99856567382812 117.08695220947266 98.93181610107422 118.60942840576172 C98.86506652832031 120.13189697265625 99.01736450195312 121.67131042480469 99.35409545898438 123.147216796875 C99.71027374267578 124.70813751220703 100.30607604980469 126.21342468261719 101.10126495361328 127.60617065429688 C101.8964614868164 128.9989013671875 102.89105224609375 130.2790985107422 104.04481506347656 131.3898468017578 C105.1985855102539 132.50057983398438 106.51152038574219 133.44186401367188 107.94342041015625 134.15679931640625 C109.36216735839844 134.86514282226562 110.8297119140625 135.30406188964844 112.31595611572266 135.51834106445312 C113.80219268798828 135.7326202392578 115.30712127685547 135.7222900390625 116.80062103271484 135.53213500976562 C118.29412841796875 135.3419952392578 119.77620697021484 134.9720458984375 121.21675109863281 134.46710205078125 C122.65729522705078 133.962158203125 124.05630493164062 133.32220458984375 125.3836669921875 132.59210205078125 C124.86654663085938 131.92190551757812 124.34942626953125 131.251708984375 123.83279418945312 130.58197021484375 C122.69957733154297 131.74098205566406 121.64138793945312 132.99356079101562 120.75981140136719 134.33505249023438 C119.87822723388672 135.67654418945312 119.17324829101562 137.10691833496094 118.74642944335938 138.6215057373047 C118.31961059570312 140.13609313964844 118.17095947265625 141.73489379882812 118.40203857421875 143.41323852539062 C118.57303619384766 144.65586853027344 119.02518463134766 145.81088256835938 119.6752700805664 146.85076904296875 C120.32536315917969 147.89065551757812 121.17338562011719 148.81541442871094 122.13613891601562 149.59754943847656 C123.09889221191406 150.37966918945312 124.17637634277344 151.0191650390625 125.28536987304688 151.48849487304688 C126.52986907958984 152.0151824951172 127.8208999633789 152.34906005859375 129.12510681152344 152.49859619140625 C130.4293212890625 152.64813232421875 131.74671936035156 152.61334228515625 133.04393005371094 152.4026641845703 C134.34115600585938 152.19198608398438 135.61819458007812 151.805419921875 136.84170532226562 151.25143432617188 C138.36422729492188 150.56211853027344 139.66693115234375 149.57907104492188 140.76678466796875 148.4010772705078 C141.86663818359375 147.22308349609375 142.76364135742188 145.85012817382812 143.47476196289062 144.38096618652344 C144.18589782714844 142.91180419921875 144.71115112304688 141.34646606445312 145.0675048828125 139.78366088867188 C145.44485473632812 138.12939453125 143.21865844726562 137.617919921875 142.59918212890625 139.10324096679688 C142.08700561523438 140.3304901123047 141.57130432128906 141.72091674804688 141.210205078125 143.1617431640625 C140.84910583496094 144.60256958007812 140.64260864257812 146.0937957763672 140.7488555908203 147.52267456054688 C140.8551025390625 148.95155334472656 141.27407836914062 150.31808471679688 142.1639404296875 151.50949096679688 C143.1544189453125 152.83583068847656 144.52056884765625 153.5722198486328 146.01336669921875 153.88217163085938 C147.50616455078125 154.19212341308594 149.12562561035156 154.0756378173828 150.62271118164062 153.69622802734375 C152.1532440185547 153.30813598632812 153.5297393798828 152.70066833496094 154.74961853027344 151.9188232421875 C155.96949768066406 151.13697814941406 157.0327606201172 150.18075561523438 157.9368438720703 149.09515380859375 C158.84091186523438 148.0095672607422 159.58580017089844 146.7946014404297 160.16893005371094 145.49526977539062 C160.75205993652344 144.19595336914062 161.1734161376953 142.812255859375 161.43045043945312 141.3892059326172 C161.68746948242188 139.96615600585938 161.7801513671875 138.5037384033203 161.7059326171875 137.04696655273438 C161.6317138671875 135.59017944335938 161.39056396484375 134.1390380859375 160.97994995117188 132.73855590820312 C160.20016479492188 133.06723022460938 159.42041015625 133.39593505859375 158.64059448242188 133.72467041015625 C159.58145141601562 135.02023315429688 160.67581176757812 136.1691436767578 161.87518310546875 137.1295166015625 C163.0745391845703 138.0898895263672 164.37889099121094 138.8617401123047 165.7397003173828 139.4031982421875 C167.1005096435547 139.9446563720703 168.5177764892578 140.25572204589844 169.94297790527344 140.2945098876953 C171.3681640625 140.33331298828125 172.80130004882812 140.09983825683594 174.19383239746094 139.55224609375 C175.58636474609375 139.004638671875 176.93829345703125 138.14291381835938 178.20108032226562 136.9251708984375 C179.02745056152344 136.12832641601562 179.71255493164062 135.19471740722656 180.24172973632812 134.1783905029297 C180.77090454101562 133.16204833984375 181.14414978027344 132.06297302246094 181.34678649902344 130.93519592285156 C181.54942321777344 129.80740356445312 181.58145141601562 128.65090942382812 181.42819213867188 127.51974487304688 C181.20205688476562 125.8512954711914 180.64773559570312 124.32730102539062 179.86114501953125 122.93505096435547 C179.07456970214844 121.54280853271484 178.05572509765625 120.28231811523438 176.90057373046875 119.14089965820312 C175.7454071044922 117.99948120117188 174.45391845703125 116.97712707519531 173.12203979492188 116.0611572265625 C172.906494140625 116.85629272460938 172.69140625 117.65142822265625 172.47589111328125 118.44656372070312 C174.0185546875 118.26762390136719 175.60084533691406 117.88455200195312 177.09475708007812 117.29928588867188 C178.58865356445312 116.71401977539062 179.99415588378906 115.92654418945312 181.18321228027344 114.93880462646484 C182.3722686767578 113.95106506347656 183.34487915039062 112.76304626464844 183.97299194335938 111.37667846679688 C184.60110473632812 109.99031829833984 184.8847198486328 108.40560913085938 184.69580078125 106.62448120117188 C184.49151611328125 104.69808197021484 183.7963409423828 103.15727996826172 182.77078247070312 101.94601440429688 C181.74522399902344 100.73474884033203 180.38926696777344 99.85301971435547 178.86341857910156 99.24476623535156 C177.33755493164062 98.63650512695312 175.6417999267578 98.30172729492188 173.93663024902344 98.1843490600586 C172.2314453125 98.06697082519531 170.51686096191406 98.16699981689453 168.95333862304688 98.42837524414062 C169.28204345703125 99.20816040039062 169.6107177734375 99.98794555664062 169.93942260742188 100.76773071289062 C171.2537384033203 99.75482177734375 172.48037719726562 98.65618133544922 173.55557250976562 97.45379638671875 C174.63076782226562 96.25141143798828 175.55453491210938 94.94528198242188 176.26309204101562 93.51738739013672 C176.97164916992188 92.08949279785156 177.46499633789062 90.53984069824219 177.67935180664062 88.85040283203125 C177.83534240722656 87.62109375 177.7564239501953 86.3820571899414 177.47923278808594 85.18754577636719 C177.2020263671875 83.99303436279297 176.72653198242188 82.84304809570312 176.08934020996094 81.79183959960938 C175.4521484375 80.74063110351562 174.65325927734375 79.78819274902344 173.72927856445312 78.98880004882812 C172.7819061279297 78.16907501220703 171.721435546875 77.54591369628906 170.59573364257812 77.11419677734375 C169.47003173828125 76.68247985839844 168.2790985107422 76.44222259521484 167.07078552246094 76.38831329345703 C165.86248779296875 76.33440399169922 164.63681030273438 76.46684265136719 163.441650390625 76.780517578125 C162.10968017578125 77.13008880615234 160.88677978515625 77.70538330078125 159.7664031982422 78.44496154785156 C158.64602661132812 79.18453979492188 157.62818908691406 80.08839416503906 156.70635986328125 81.09508514404297 C155.78453063964844 82.10177612304688 154.95870971679688 83.21128845214844 154.22239685058594 84.36219024658203 C153.486083984375 85.51309204101562 152.83926391601562 86.70537567138672 152.27542114257812 87.87759399414062 C153.05523681640625 88.20632934570312 153.83499145507812 88.53500366210938 154.61477661132812 88.86373901367188 C154.90457153320312 87.57964324951172 155.14356994628906 86.25231170654297 155.2918243408203 84.911865234375 C155.44009399414062 83.5714111328125 155.4976043701172 82.21784210205078 155.42442321777344 80.88126373291016 C155.3512420654297 79.54468536376953 155.14735412597656 78.22509765625 154.77279663085938 76.95262145996094 C154.39825439453125 75.68013763427734 153.85302734375 74.45476531982422 153.09719848632812 73.30661010742188 C152.35633850097656 72.18123626708984 151.42642211914062 71.24433135986328 150.3687744140625 70.50504302978516 C149.3111114501953 69.7657470703125 148.12570190429688 69.22407531738281 146.8738250732422 68.88914489746094 C145.6219482421875 68.55421447753906 144.3035888671875 68.42604064941406 142.98007202148438 68.51376342773438 C141.3489227294922 68.62194061279297 139.8614501953125 68.9742431640625 138.51296997070312 69.52705383300781 C137.16448974609375 70.0798568725586 135.95498657226562 70.83316040039062 134.87974548339844 71.74332427978516 C133.80450439453125 72.65348815917969 132.863525390625 73.72051239013672 132.05209350585938 74.90077209472656 C131.24066162109375 76.0810317993164 130.55877685546875 77.37451934814453 130.00172424316406 78.73760223388672 C129.44467163085938 80.1006851196289 129.012451171875 81.53337097167969 128.70034790039062 82.99201202392578 C128.38824462890625 84.45065307617188 128.19625854492188 85.93526458740234 128.1196746826172 87.4021987915039 C128.0430908203125 88.869140625 128.0819091796875 90.31840515136719 128.23141479492188 91.70635986328125 C128.87344360351562 91.33770751953125 129.5155029296875 90.96957397460938 130.15753173828125 90.6009521484375 C128.96841430664062 89.7740707397461 127.702880859375 88.9499740600586 126.3797378540039 88.19934844970703 C125.05659484863281 87.44872283935547 123.67584228515625 86.77157592773438 122.25628662109375 86.23857879638672 C120.83673095703125 85.70558166503906 119.37838745117188 85.3167495727539 117.90003967285156 85.14276123046875 C116.42169952392578 84.96878051757812 114.92337036132812 85.00963592529297 113.42385864257812 85.33602905273438 C112.17355346679688 85.60807037353516 111.04777526855469 86.1424331665039 110.0711669921875 86.86837768554688 C109.09455108642578 87.59431457519531 108.26709747314453 88.5118408203125 107.61344909667969 89.55021667480469 C106.95979309082031 90.58859252929688 106.47993469238281 91.74781799316406 106.19851684570312 92.9571533203125 C105.9201431274414 94.15283966064453 105.83372497558594 95.38050079345703 105.92903137207031 96.59073638916016 C106.02433776855469 97.80097198486328 106.30137634277344 98.99378204345703 106.74990844726562 100.11976623535156 C107.19844818115234 101.24575805664062 107.8184814453125 102.30491638183594 108.59979248046875 103.24786376953125 C109.56012725830078 104.40668487548828 110.73471069335938 105.20443725585938 112.0226821899414 105.70565032958984 C113.3106460571289 106.20686340332031 114.71199035644531 106.41152954101562 116.12584686279297 106.3841781616211 C117.53971099853516 106.3568344116211 118.96607971191406 106.09747314453125 120.30410766601562 105.67062377929688 C121.87033081054688 105.16937255859375 121.20059204101562 102.69744873046875 119.6236572265625 103.20074462890625"></path>
<path fill="#ED7FAA" fill-opacity="1.0"  filling="0" d="M140.96127319335938 136.26007080078125 C140.7441864013672 137.87942504882812 140.52069091796875 139.4999237060547 140.2893524169922 141.12075805664062 C140.05801391601562 142.74159240722656 139.81884765625 144.36279296875 139.57040405273438 145.9835205078125 C139.32196044921875 147.60426330566406 139.0642547607422 149.22454833984375 138.7958526611328 150.84359741210938 C138.52745056152344 152.462646484375 138.24835205078125 154.08045959472656 137.9571075439453 155.69622802734375 C137.66587829589844 157.31199645996094 137.36251831054688 158.9257354736328 137.0456085205078 160.53663635253906 C136.72869873046875 162.1475372314453 136.39822387695312 163.755615234375 136.05276489257812 165.3600616455078 C135.70730590820312 166.96450805664062 135.3468475341797 168.56533813476562 134.96998596191406 170.1617431640625 C134.59312438964844 171.75814819335938 134.1998291015625 173.3501434326172 133.7886962890625 174.93692016601562 C133.3775634765625 176.52369689941406 132.94857788085938 178.10525512695312 132.5003204345703 179.68081665039062 C132.05206298828125 181.25637817382812 131.58453369140625 182.825927734375 131.09628295898438 184.38868713378906 C130.60804748535156 185.95143127441406 130.09909057617188 187.50738525390625 129.56800842285156 189.0557403564453 C129.03692626953125 190.60409545898438 128.4836883544922 192.14486694335938 127.90689849853516 193.67724609375 C127.33010864257812 195.20962524414062 126.72974395751953 196.73361206054688 126.10438537597656 198.2484130859375 C125.4790267944336 199.76321411132812 124.82866668701172 201.2688446044922 124.1518783569336 202.76449584960938 C123.47509765625 204.26014709472656 122.77188110351562 205.74581909179688 122.04080200195312 207.22073364257812 C121.31021118164062 208.69476318359375 123.51791381835938 209.9921875 124.2510986328125 208.51303100585938 C124.95001220703125 207.10301208496094 125.62386322021484 205.6837615966797 126.27386474609375 204.25588989257812 C126.92386627197266 202.82801818847656 127.5500259399414 201.3915252685547 128.15354919433594 199.94703674316406 C128.757080078125 198.50254821777344 129.3379669189453 197.050048828125 129.89743041992188 195.5901641845703 C130.45689392089844 194.13027954101562 130.9949493408203 192.6630096435547 131.51278686523438 191.18896484375 C132.03062438964844 189.7149200439453 132.52825927734375 188.23410034179688 133.00689697265625 186.7471160888672 C133.48553466796875 185.2601318359375 133.94517517089844 183.76699829101562 134.38702392578125 182.26832580566406 C134.82888793945312 180.7696533203125 135.25296020507812 179.2654266357422 135.66046142578125 177.75628662109375 C136.06796264648438 176.2471466064453 136.45889282226562 174.73306274414062 136.83447265625 173.2146759033203 C137.21005249023438 171.6962890625 137.5702667236328 170.17359924316406 137.91635131835938 168.64720153808594 C138.26242065429688 167.1208038330078 138.5943603515625 165.59072875976562 138.91336059570312 164.05755615234375 C139.23236083984375 162.52438354492188 139.53842163085938 160.98812866210938 139.83277893066406 159.4494171142578 C140.1271209716797 157.91070556640625 140.40975952148438 156.36952209472656 140.681884765625 154.82647705078125 C140.95401000976562 153.283447265625 141.21563720703125 151.7385711669922 141.46795654296875 150.19244384765625 C141.72027587890625 148.64633178710938 141.96331787109375 147.09896850585938 142.19827270507812 145.55099487304688 C142.4332275390625 144.00302124023438 142.66009521484375 142.4544219970703 142.88009643554688 140.90582275390625 C143.10009765625 139.3572235107422 143.313232421875 137.80862426757812 143.52072143554688 136.2606201171875 C143.73989868164062 134.62783813476562 141.17733764648438 134.6488037109375 140.96127319335938 136.26007080078125"></path>
<path fill="#ED7FAA" fill-opacity="1.0"  filling="0" d="M120.30410766601562 206.63241577148438 C118.9906997680664 206.39663696289062 117.70186614990234 206.07693481445312 116.43878936767578 205.68325805664062 C115.17571258544922 205.28958129882812 113.93840026855469 204.82192993164062 112.72803497314453 204.290283203125 C111.51766967773438 203.75863647460938 110.33424377441406 203.16297912597656 109.17894744873047 202.5133056640625 C108.02365112304688 201.86361694335938 106.89649200439453 201.159912109375 105.79864501953125 200.41213989257812 C104.7201156616211 199.67755126953125 103.6219711303711 198.84913635253906 102.56149291992188 197.93771362304688 C101.50102233886719 197.0262908935547 100.47821807861328 196.0318603515625 99.55037689208984 194.96524047851562 C98.6225357055664 193.89862060546875 97.78965759277344 192.7598114013672 97.10902404785156 191.5596160888672 C96.42839813232422 190.35943603515625 95.90001678466797 189.09786987304688 95.5811767578125 187.78573608398438 C95.35781860351562 186.86708068847656 95.08223724365234 185.56512451171875 94.89876556396484 184.1449737548828 C94.71529388427734 182.72482299804688 94.62393188476562 181.1864776611328 94.76901245117188 179.79501342773438 C94.91410064697266 178.403564453125 95.29563903808594 177.15899658203125 96.05795288085938 176.32643127441406 C96.82026672363281 175.49386596679688 97.96337127685547 175.0732879638672 99.631591796875 175.32980346679688 C101.14608764648438 175.562744140625 102.61162567138672 176.10299682617188 104.01148223876953 176.85484313964844 C105.41133880615234 177.606689453125 106.74551391601562 178.5701446533203 107.99728393554688 179.64950561523438 C109.24906158447266 180.72885131835938 110.41844177246094 181.9241180419922 111.48869323730469 183.13958740234375 C112.55894470214844 184.35507202148438 113.53008270263672 185.59075927734375 114.3853759765625 186.75094604492188 C115.34814453125 188.0567626953125 116.24101257324219 189.42127990722656 117.05023956298828 190.83425903320312 C117.85946655273438 192.24722290039062 118.58503723144531 193.70864868164062 119.21322631835938 195.20823669433594 C119.84141540527344 196.7078399658203 120.37220764160156 198.24560546875 120.7918701171875 199.81129455566406 C121.21153259277344 201.37698364257812 121.52005767822266 202.97056579589844 121.70370483398438 204.58180236816406 C121.88734436035156 206.19302368164062 121.94610595703125 207.8218994140625 121.86624145507812 209.45816040039062 C121.80682373046875 210.677734375 123.72836303710938 211.28140258789062 124.25164794921875 210.10430908203125 C124.78248596191406 208.9103240966797 125.45265197753906 207.76119995117188 126.22499084472656 206.65512084960938 C126.99732971191406 205.54904174804688 127.87183380126953 204.4860382080078 128.8113555908203 203.46429443359375 C129.75086975097656 202.4425506591797 130.7554168701172 201.4620819091797 131.78781127929688 200.52110290527344 C132.82020568847656 199.58010864257812 133.88046264648438 198.67860412597656 134.93142700195312 197.81478881835938 C135.98239135742188 196.9509735107422 137.02407836914062 196.12484741210938 138.019287109375 195.33462524414062 C139.14138793945312 194.4436492919922 140.32542419433594 193.523193359375 141.56040954589844 192.6138916015625 C142.79541015625 191.70458984375 144.08135986328125 190.80645751953125 145.40728759765625 189.9600830078125 C146.7332305908203 189.1137237548828 148.09915161132812 188.31912231445312 149.49407958984375 187.616943359375 C150.88900756835938 186.9147491455078 152.31295776367188 186.30496215820312 153.75494384765625 185.8282012939453 C155.19692993164062 185.3514404296875 156.65695190429688 185.0076904296875 158.1240234375 184.83761596679688 C159.36920166015625 184.6932373046875 160.569580078125 184.76824951171875 161.61175537109375 185.17074584960938 C162.6539306640625 185.5732421875 163.5378875732422 186.30322265625 164.15023803710938 187.46881103515625 C164.6670379638672 188.45252990722656 164.97161865234375 189.61407470703125 165.0850067138672 190.82760620117188 C165.19839477539062 192.0411376953125 165.1205596923828 193.306640625 164.87252807617188 194.49827575683594 C164.62448120117188 195.68991088867188 164.20623779296875 196.80764770507812 163.63876342773438 197.72567749023438 C162.8236541748047 199.0443878173828 161.75718688964844 200.17538452148438 160.51609802246094 201.14573669433594 C159.27500915527344 202.1160888671875 157.85931396484375 202.92579650878906 156.3457794189453 203.6019287109375 C154.83224487304688 204.278076171875 153.22085571289062 204.82064819335938 151.58839416503906 205.25674438476562 C149.9559326171875 205.69284057617188 148.3023681640625 206.02244567871094 146.7045135498047 206.27264404296875 C145.1066436767578 206.52285766601562 143.564453125 206.69366455078125 142.15472412109375 206.8121337890625 C140.66685485839844 206.9373321533203 139.15594482421875 207.00326538085938 137.6485595703125 206.97235107421875 C136.14117431640625 206.94143676757812 134.63729858398438 206.81369018554688 133.16351318359375 206.55154418945312 C132.30740356445312 206.39947509765625 129.26104736328125 205.91461181640625 129.20010375976562 204.68426513671875 C129.11819458007812 203.041259765625 126.55767822265625 203.0335693359375 126.64010620117188 204.68426513671875 C126.70641326904297 206.01585388183594 127.37556457519531 206.98928833007812 128.39581298828125 207.69854736328125 C129.41604614257812 208.40780639648438 130.78738403320312 208.85287475585938 132.25802612304688 209.1277313232422 C133.7286834716797 209.40257263183594 135.29867553710938 209.5072021484375 136.71621704101562 209.53555297851562 C138.13377380371094 209.5639190673828 139.39889526367188 209.51602172851562 140.25982666015625 209.48580932617188 C141.80125427246094 209.43153381347656 143.3710479736328 209.31414794921875 144.94583129882812 209.12269592285156 C146.52061462402344 208.93125915527344 148.1003875732422 208.66575622558594 149.66175842285156 208.31529235839844 C151.22314453125 207.96481323242188 152.76614379882812 207.52935791015625 154.2673797607422 206.9979705810547 C155.76861572265625 206.46658325195312 157.22808837890625 205.83929443359375 158.62242126464844 205.1051483154297 C160.01675415039062 204.37100219726562 161.345947265625 203.52999877929688 162.58660888671875 202.57122802734375 C163.8379364013672 201.60418701171875 164.91018676757812 200.34707641601562 165.74916076660156 198.92269897460938 C166.588134765625 197.49832153320312 167.19381713867188 195.9066619873047 167.51199340820312 194.27056884765625 C167.83016967773438 192.6344757080078 167.86083984375 190.9539337158203 167.54978942871094 189.3517608642578 C167.23873901367188 187.7495880126953 166.58596801757812 186.2257843017578 165.53726196289062 184.90316772460938 C164.5922393798828 183.71109008789062 163.43325805664062 182.97653198242188 162.15567016601562 182.57716369628906 C160.87806701660156 182.17779541015625 159.48184204101562 182.11361694335938 158.0623321533203 182.2623291015625 C156.64280700683594 182.41104125976562 155.19998168945312 182.77261352539062 153.82920837402344 183.22476196289062 C152.4584197998047 183.6769256591797 151.15966796875 184.21963500976562 150.02825927734375 184.73062133789062 C148.7652587890625 185.30108642578125 147.52536010742188 185.928466796875 146.3081817626953 186.60337829589844 C145.09100341796875 187.27828979492188 143.8965301513672 188.00070190429688 142.72439575195312 188.76126098632812 C141.55226135253906 189.52182006835938 140.4024658203125 190.3205108642578 139.27459716796875 191.14793395996094 C138.14674377441406 191.97535705566406 137.04083251953125 192.83151245117188 135.95648193359375 193.70703125 C134.87213134765625 194.58253479003906 133.80935668945312 195.47738647460938 132.76773071289062 196.38217163085938 C131.77957153320312 197.24053955078125 130.75088500976562 198.14112854003906 129.72976684570312 199.08554077148438 C128.70864868164062 200.0299530029297 127.69507598876953 201.01817321777344 126.73712921142578 202.05184936523438 C125.7791748046875 203.08551025390625 124.87684631347656 204.16461181640625 124.07818603515625 205.290771484375 C123.27953338623047 206.41693115234375 122.58455657958984 207.5901336669922 122.04132080078125 208.81201171875 C122.83645629882812 209.02755737304688 123.631591796875 209.24261474609375 124.42672729492188 209.45816040039062 C124.50003051757812 207.95758056640625 124.46312713623047 206.46466064453125 124.32588195800781 204.98565673828125 C124.18863677978516 203.50665283203125 123.9510498046875 202.0415802001953 123.62299346923828 200.5966796875 C123.29493713378906 199.1517791748047 122.87640380859375 197.72705078125 122.37726593017578 196.32876586914062 C121.87812805175781 194.9304656982422 121.29839324951172 193.55860900878906 120.64791107177734 192.2194366455078 C119.9974365234375 190.8802490234375 119.2762222290039 189.57376098632812 118.494140625 188.3062286376953 C117.7120590209961 187.03868103027344 116.86911010742188 185.81008911132812 115.97515869140625 184.62667846679688 C115.21350860595703 183.61834716796875 114.37088012695312 182.57086181640625 113.4569091796875 181.5338592529297 C112.54293823242188 180.49685668945312 111.55763244628906 179.47036743164062 110.5106201171875 178.50401306152344 C109.46360778808594 177.53765869140625 108.35488891601562 176.63143920898438 107.1941146850586 175.83502197265625 C106.03333282470703 175.03860473632812 104.82048797607422 174.35198974609375 103.56521606445312 173.82481384277344 C102.30994415283203 173.29763793945312 101.01225280761719 172.929931640625 99.6817626953125 172.77130126953125 C98.0079116821289 172.57162475585938 96.67393493652344 172.8521728515625 95.62370300292969 173.46640014648438 C94.57347106933594 174.0806427001953 93.80699157714844 175.028564453125 93.26814270019531 176.16363525390625 C92.72929382324219 177.2987060546875 92.41807556152344 178.6209259033203 92.27836608886719 179.9837646484375 C92.13865661621094 181.34661865234375 92.17046356201172 182.75006103515625 92.31765747070312 184.047607421875 C92.5038833618164 185.68930053710938 92.85566711425781 187.25140380859375 93.35160064697266 188.7352294921875 C93.8475341796875 190.21905517578125 94.48761749267578 191.6245880126953 95.25042724609375 192.95310974121094 C96.01323699951172 194.28164672851562 96.89877319335938 195.53317260742188 97.8856201171875 196.70899963378906 C98.87246704101562 197.88482666015625 99.96063232421875 198.9849395751953 101.12869262695312 200.0106201171875 C102.29674530029297 201.03631591796875 103.5447006225586 201.9875946044922 104.85112762451172 202.86573791503906 C106.15755462646484 203.74386596679688 107.5224609375 204.54888916015625 108.9244155883789 205.28204345703125 C110.32637786865234 206.0152130126953 111.76539611816406 206.67654418945312 113.22006225585938 207.26730346679688 C114.25123596191406 207.6861114501953 115.304931640625 208.04644775390625 116.37443542480469 208.3511505126953 C117.44393920898438 208.65585327148438 118.52925109863281 208.9049530029297 119.6236572265625 209.10128784179688 C121.23748779296875 209.39056396484375 121.92715454101562 206.92376708984375 120.30410766601562 206.63241577148438"></path>
<path fill="#ED7FAA" fill-opacity="1.0"  filling="0" d="M151.14288330078125 192.43978881835938 C149.83164978027344 193.2086639404297 148.4887237548828 193.91494750976562 147.1207275390625 194.57046508789062 C145.75271606445312 195.2259979248047 144.359619140625 195.83078002929688 142.94805908203125 196.39666748046875 C141.5364990234375 196.96255493164062 140.1064453125 197.4895477294922 138.66453552246094 197.98948669433594 C137.22262573242188 198.48944091796875 135.76885986328125 198.96234130859375 134.309814453125 199.4200439453125 C132.8507843017578 199.8777618408203 131.38648986816406 200.32028198242188 129.92355346679688 200.75946044921875 C128.46060180664062 201.19863891601562 126.99901580810547 201.63449096679688 125.54537200927734 202.078857421875 C124.09173583984375 202.52322387695312 122.64605712890625 202.97610473632812 121.21493530273438 203.4493408203125 C119.65542602539062 203.96493530273438 120.32357788085938 206.4378662109375 121.89541625976562 205.91766357421875 C123.35688018798828 205.4344024658203 124.83270263671875 204.97146606445312 126.31629180908203 204.51686096191406 C127.79988098144531 204.062255859375 129.29122924804688 203.6160125732422 130.78375244140625 203.16612243652344 C132.27627563476562 202.71624755859375 133.76995849609375 202.26272583007812 135.2582244873047 201.7936248779297 C136.74649047851562 201.32452392578125 138.22933959960938 200.83981323242188 139.70016479492188 200.32754516601562 C141.17098999023438 199.81527709960938 142.6298065185547 199.2754364013672 144.07000732421875 198.69606018066406 C145.51022338867188 198.11666870117188 146.9318084716797 197.4977569580078 148.3282012939453 196.82733154296875 C149.72459411621094 196.1569061279297 151.09579467773438 195.43496704101562 152.4351806640625 194.64956665039062 C153.85751342773438 193.8160400390625 152.56985473632812 191.60317993164062 151.14288330078125 192.43978881835938"></path></svg>