<svg xmlns="http://www.w3.org/2000/svg" viewBox="0.0 0.0 256.0 256.0" height="256.0px" width="256.0px"><path fill="#fc9081" fill-opacity="1.0"  filling="0" d="M61.504005432128906 188.86398315429688 C61.69599151611328 189.69601440429688 62.33599090576172 190.59197998046875 63.55199432373047 191.488037109375 C64.76799011230469 192.39317321777344 66.109375 193.13113403320312 67.54387664794922 193.72727966308594 C68.9783706665039 194.32342529296875 70.50597381591797 194.77777099609375 72.09440612792969 195.1156768798828 C73.6828384399414 195.45358276367188 75.33209991455078 195.67506408691406 77.00990295410156 195.8054962158203 C78.68771362304688 195.9359130859375 80.3940658569336 195.9752960205078 82.09669494628906 195.948974609375 C83.79932403564453 195.92266845703125 85.49821472167969 195.8306884765625 87.16110229492188 195.69839477539062 C88.82398223876953 195.56610107421875 90.45085144042969 195.3935089111328 92.00942993164062 195.2059783935547 C93.56800842285156 195.01846313476562 95.05828857421875 194.81600952148438 96.44800567626953 194.62399291992188 C97.9072036743164 194.43199157714844 99.35615539550781 194.29119873046875 100.7989730834961 194.18572998046875 C102.24179077148438 194.08026123046875 103.67845916748047 194.01011657714844 105.11308288574219 193.9594268798828 C106.5477066040039 193.9087371826172 107.98027801513672 193.87750244140625 109.41490173339844 193.849853515625 C110.84952545166016 193.82220458984375 112.28620147705078 193.7981414794922 113.72901916503906 193.76177978515625 C115.17183685302734 193.72543334960938 116.62080383300781 193.67678833007812 118.08000183105469 193.60000610351562 C119.48799896240234 193.5360107421875 120.8985595703125 193.4361572265625 122.31065368652344 193.3173828125 C123.72274780273438 193.19859313964844 125.13638305664062 193.0608673095703 126.55052185058594 192.9210968017578 C127.96466827392578 192.78131103515625 129.3793182373047 192.63949584960938 130.79345703125 192.51251220703125 C132.20761108398438 192.38552856445312 133.62123107910156 192.27340698242188 135.0333251953125 192.19302368164062 C136.44541931152344 192.11264038085938 137.85598754882812 192.06399536132812 139.26397705078125 192.06399536132812 C140.86398315429688 192.0693359375 142.47998046875 192.07244873046875 144.1013946533203 192.06077575683594 C145.72280883789062 192.0491180419922 147.34962463378906 192.02267456054688 148.97125244140625 191.96888732910156 C150.59288024902344 191.9151153564453 152.20933532714844 191.83399963378906 153.80999755859375 191.71299743652344 C155.41065979003906 191.5919952392578 156.9955596923828 191.4311065673828 158.5540771484375 191.2177734375 C160.1125946044922 191.0044403076172 161.64474487304688 190.73866271972656 163.1399383544922 190.4078826904297 C164.63511657714844 190.0771026611328 166.0933380126953 189.6813201904297 167.50401306152344 189.20799255371094 C168.9146728515625 188.7346649169922 170.2777862548828 188.18377685546875 171.58274841308594 187.5427703857422 C172.88771057128906 186.90176391601562 174.134521484375 186.170654296875 175.31259155273438 185.33688354492188 C176.49066162109375 184.50311279296875 177.60000610351562 183.56666564941406 178.6300048828125 182.51499938964844 C179.66000366210938 181.4633331298828 180.6106719970703 180.2964324951172 181.47140502929688 179.00177001953125 C182.3321533203125 177.7071075439453 183.10296630859375 176.28466796875 183.77325439453125 174.72189331054688 C184.44354248046875 173.15911865234375 185.01332092285156 171.45599365234375 185.47198486328125 169.60000610351562 C185.7493133544922 168.5120086669922 185.9768829345703 167.41690063476562 186.1641387939453 166.31468200683594 C186.35140991210938 165.21246337890625 186.4983673095703 164.10311889648438 186.61451721191406 162.9866943359375 C186.7306671142578 161.8702392578125 186.81600952148438 160.7467041015625 186.8800048828125 159.61602783203125 C186.9759979248047 158.22402954101562 187.0399932861328 156.83203125 187.0889892578125 155.44102478027344 C187.1379852294922 154.05001831054688 187.1719970703125 152.66001892089844 187.20799255371094 151.2720184326172 C187.24398803710938 149.88401794433594 187.28199768066406 148.49801635742188 187.3389892578125 147.11502075195312 C187.39599609375 145.7320098876953 187.47198486328125 144.35202026367188 187.583984375 142.97601318359375 C187.7119903564453 141.5360107421875 187.93600463867188 140.04800415039062 188.37600708007812 138.63999938964844 C188.81600952148438 137.23199462890625 189.4720001220703 135.90399169921875 190.4639892578125 134.78399658203125 C191.42398071289062 133.72799682617188 192.63998413085938 133.05599975585938 193.8560028076172 132.38400268554688 C195.07200622558594 131.71200561523438 196.2880096435547 131.04000854492188 197.24801635742188 129.9840087890625 C198.67430114746094 128.4205780029297 199.4840850830078 126.86368560791016 199.79774475097656 125.36071014404297 C200.1114044189453 123.85773468017578 199.9289093017578 122.40868377685547 199.37063598632812 121.06095123291016 C198.81236267089844 119.71321868896484 197.8782958984375 118.46680450439453 196.6887969970703 117.36910247802734 C195.49929809570312 116.27140045166016 194.05435180664062 115.3224105834961 192.4743194580078 114.56952667236328 C190.894287109375 113.81664276123047 189.17916870117188 113.2598648071289 187.4492950439453 112.94658660888672 C185.71942138671875 112.63330078125 183.97482299804688 112.56352233886719 182.33583068847656 112.78463745117188 C180.69683837890625 113.00574493408203 179.1634521484375 113.51774597167969 177.85601806640625 114.3680419921875 C176.5888214111328 115.20003509521484 175.44192504882812 116.2470703125 174.40513610839844 117.45026397705078 C173.3683319091797 118.65345764160156 172.4416046142578 120.0128173828125 171.61473083496094 121.46945190429688 C170.787841796875 122.92608642578125 170.06080627441406 124.48001098632812 169.42337036132812 126.07232666015625 C168.78591918945312 127.6646499633789 168.2380828857422 129.29537963867188 167.76959228515625 130.90560913085938 C167.30111694335938 132.51585388183594 166.9119873046875 134.10562133789062 166.5919952392578 135.61602783203125 C166.4639892578125 136.19198608398438 166.3360137939453 136.7039794921875 166.27198791503906 137.21600341796875 C165.97332763671875 138.85867309570312 165.5555419921875 140.42489624023438 165.02191162109375 141.90785217285156 C164.48828125 143.39080810546875 163.83880615234375 144.79051208496094 163.0767364501953 146.1001434326172 C162.31466674804688 147.40977478027344 161.44000244140625 148.62933349609375 160.45599365234375 149.7519989013672 C159.4720001220703 150.87466430664062 158.378662109375 151.90045166015625 157.17926025390625 152.82252502441406 C155.9798583984375 153.74459838867188 154.67437744140625 154.56298828125 153.26608276367188 155.27084350585938 C151.8577880859375 155.97869873046875 150.3466796875 156.57601928710938 148.73602294921875 157.0560302734375 C147.33602905273438 157.47201538085938 145.947021484375 157.92701721191406 144.56552124023438 158.40802001953125 C143.18402099609375 158.88900756835938 141.8100128173828 159.39601135253906 140.4400177001953 159.91600036621094 C139.07000732421875 160.43600463867188 137.70401000976562 160.968994140625 136.33851623535156 161.5019989013672 C134.97300720214844 162.0349884033203 133.60801696777344 162.5679931640625 132.24000549316406 163.08798217773438 C130.87200927734375 163.6079864501953 129.50100708007812 164.114990234375 128.12350463867188 164.59597778320312 C126.74600219726562 165.0769805908203 125.36200714111328 165.531982421875 123.96800994873047 165.94798278808594 C122.57400512695312 166.36398315429688 121.17001342773438 166.74098205566406 119.75251007080078 167.06597900390625 C118.33501434326172 167.39097595214844 116.90401458740234 167.66397094726562 115.45601654052734 167.87197875976562 C113.95201110839844 168.09597778320312 112.44400787353516 168.37599182128906 110.9380111694336 168.69898986816406 C109.4320068359375 169.02198791503906 107.9280014038086 169.38800048828125 106.43199920654297 169.78399658203125 C104.93599700927734 170.17999267578125 103.447998046875 170.6060028076172 101.9739990234375 171.04901123046875 C100.5 171.49200439453125 99.03999328613281 171.95201110839844 97.5999984741211 172.416015625 C96.28160095214844 172.83840942382812 94.96575927734375 173.2608184814453 93.65196990966797 173.68373107910156 C92.33818054199219 174.1066436767578 91.02643585205078 174.5300750732422 89.71622467041016 174.9545135498047 C88.40601348876953 175.37896728515625 87.09734344482422 175.804443359375 85.7896957397461 176.2314453125 C84.48204040527344 176.658447265625 83.1754150390625 177.08700561523438 81.86930847167969 177.51759338378906 C80.56319427490234 177.9481964111328 79.25759887695312 178.38082885742188 77.95199584960938 178.8160400390625 C76.60798645019531 179.26400756835938 75.26399230957031 179.71200561523438 73.91999816894531 180.16000366210938 C72.57600402832031 180.60800170898438 71.23200988769531 181.05601501464844 69.88800811767578 181.50399780273438 C68.73600006103516 181.95201110839844 67.33511352539062 182.55645751953125 66.00769805908203 183.28416442871094 C64.68029022216797 184.01187133789062 63.42636489868164 184.86282348632812 62.56829071044922 185.80386352539062 C61.71022033691406 186.74488830566406 61.24800109863281 187.7760009765625 61.504005432128906 188.86398315429688"></path>
<path fill="#fc9081" fill-opacity="1.0"  filling="0" d="M177.9199981689453 115.64801025390625 C177.61599731445312 114.00001525878906 177.25599670410156 112.416015625 176.89898681640625 110.85401916503906 C176.5419921875 109.29202270507812 176.18798828125 107.75202941894531 175.89599609375 106.19203186035156 C175.60400390625 104.63203430175781 175.37399291992188 103.05203247070312 175.26499938964844 101.4100341796875 C175.156005859375 99.76803588867188 175.16799926757812 98.06404113769531 175.36000061035156 96.25604248046875 C175.4720001220703 95.21603393554688 175.864013671875 93.77202606201172 176.47601318359375 92.27802276611328 C177.0880126953125 90.78401184082031 177.92001342773438 89.24000549316406 178.91201782226562 88.00000762939453 C179.90402221679688 86.76000213623047 181.05601501464844 85.8239974975586 182.30801391601562 85.5459976196289 C183.55999755859375 85.26799774169922 184.9119873046875 85.64800262451172 186.30398559570312 87.04000854492188 C187.8719940185547 88.60801696777344 187.80799865722656 89.74401092529297 187.09600830078125 90.656005859375 C186.38400268554688 91.56800842285156 185.0240020751953 92.25601196289062 184.0 92.92803955078125 C182.94400024414062 93.63201904296875 182.1439971923828 94.38401794433594 181.51199340820312 95.25601196289062 C180.8800048828125 96.12801361083984 180.41600036621094 97.12001037597656 180.03199768066406 98.30398559570312 C179.64797973632812 99.583984375 179.32798767089844 100.97598266601562 179.08798217773438 102.39198303222656 C178.84799194335938 103.8079833984375 178.68798828125 105.24798583984375 178.62399291992188 106.62399291992188 C178.52798461914062 108.35200500488281 178.92799377441406 109.8239974975586 179.37599182128906 111.25599670410156 C179.82398986816406 112.68798828125 180.32000732421875 114.07998657226562 180.416015625 115.64801025390625 C180.416015625 115.90399169921875 180.416015625 116.16000366210938 180.416015625 116.35198974609375 L177.9199981689453 115.64801025390625"></path>
<path fill="#fc9081" fill-opacity="1.0"  filling="0" d="M189.1199951171875 116.6719970703125 C189.4239959716797 115.02400207519531 189.65200805664062 113.41600799560547 189.875 111.83000946044922 C190.09800720214844 110.24401092529297 190.31600952148438 108.68001556396484 190.60000610351562 107.1200180053711 C190.88400268554688 105.56001281738281 191.2340087890625 104.00401306152344 191.7209930419922 102.43401336669922 C192.20799255371094 100.864013671875 192.83200073242188 99.2800064086914 193.6639862060547 97.66400146484375 C194.14398193359375 96.73599243164062 195.02798461914062 95.52798461914062 196.1339874267578 94.35099029541016 C197.239990234375 93.17398834228516 198.5679931640625 92.02799224853516 199.9359893798828 91.22399139404297 C201.30398559570312 90.41999816894531 202.71200561523438 89.95800018310547 203.97799682617188 90.14900207519531 C205.24400329589844 90.34000396728516 206.36801147460938 91.18400573730469 207.16799926757812 92.99200439453125 C208.06399536132812 95.00799560546875 207.59999084472656 96.03199768066406 206.61599731445312 96.6240005493164 C205.63198852539062 97.21600341796875 204.12799072265625 97.37600708007812 202.94398498535156 97.66400146484375 C201.72799682617188 97.95199584960938 200.70399475097656 98.36799621582031 199.7919921875 98.95999145507812 C198.8800048828125 99.55199432373047 198.0800018310547 100.31999206542969 197.31199645996094 101.31198120117188 C196.48001098632812 102.36799621582031 195.6800079345703 103.55200958251953 194.95199584960938 104.78401184082031 C194.2239990234375 106.01602172851562 193.5679931640625 107.2960205078125 193.02398681640625 108.54400634765625 C192.32000732421875 110.14399719238281 192.16000366210938 111.64799499511719 192.06399536132812 113.13599395751953 C191.96800231933594 114.62399291992188 191.93600463867188 116.09599304199219 191.48800659179688 117.63198852539062 C191.42398071289062 117.88803100585938 191.2960205078125 118.08001708984375 191.23199462890625 118.33599853515625 L189.1199951171875 116.6719970703125"></path>
<path fill="#fc9081" fill-opacity="1.0"  filling="0" d="M191.1680145263672 90.3680419921875 C190.7840118408203 91.9893569946289 189.90223693847656 93.39735412597656 188.76919555664062 94.3786849975586 C187.6361541748047 95.36001586914062 186.25186157226562 95.91468048095703 184.86282348632812 95.829345703125 C183.47378540039062 95.74401092529297 182.0800018310547 95.0186767578125 180.92800903320312 93.44000244140625 C180.17601013183594 92.41600036621094 179.77200317382812 91.12799835205078 179.6800079345703 89.78799438476562 C179.58799743652344 88.44799041748047 179.80799865722656 87.05599212646484 180.3040008544922 85.8239974975586 C180.79998779296875 84.59199523925781 181.57199096679688 83.52000427246094 182.583984375 82.82000732421875 C183.59597778320312 82.12001037597656 184.84799194335938 81.79202270507812 186.30398559570312 82.04803466796875 C187.6266632080078 82.28268432617188 188.700439453125 82.87289428710938 189.5134735107422 83.69304656982422 C190.32650756835938 84.51319122314453 190.87881469726562 85.56326293945312 191.1585235595703 86.71764373779297 C191.438232421875 87.87201690673828 191.44534301757812 89.13069152832031 191.1680145263672 90.3680419921875"></path>
<path fill="#fc9081" fill-opacity="1.0"  filling="0" d="M211.45602416992188 97.27999877929688 C211.07200622558594 98.90132904052734 210.1902313232422 100.309326171875 209.05718994140625 101.29065704345703 C207.9241485595703 102.27198791503906 206.53985595703125 102.82666015625 205.15081787109375 102.7413330078125 C203.76177978515625 102.65599822998047 202.36801147460938 101.9306640625 201.2160186767578 100.35198974609375 C200.46401977539062 99.3280029296875 200.0600128173828 98.04000854492188 199.968017578125 96.70001983642578 C199.87600708007812 95.36002349853516 200.09600830078125 93.96803283691406 200.59201049804688 92.73603057861328 C201.0880126953125 91.5040283203125 201.86000061035156 90.4320297241211 202.8719940185547 89.7320327758789 C203.88400268554688 89.03202819824219 205.135986328125 88.70402526855469 206.5919952392578 88.96002197265625 C207.9359893798828 89.21602630615234 209.02398681640625 89.8133544921875 209.84414672851562 90.63350677490234 C210.66429138183594 91.45365905761719 211.21658325195312 92.49661254882812 211.4891815185547 93.64387512207031 C211.76177978515625 94.79112243652344 211.75466918945312 96.04267883300781 211.45602416992188 97.27999877929688"></path>
<path fill="#ffffff" fill-opacity="1.0"  filling="0" d="M182.4639892578125 92.35198974609375 C183.16799926757812 94.43197631835938 184.36798095703125 95.11997985839844 185.6079864501953 94.93598937988281 C186.84799194335938 94.75199890136719 188.12799072265625 93.69601440429688 188.9919891357422 92.28802490234375 C189.44000244140625 91.58401489257812 189.7760009765625 90.76800537109375 189.93600463867188 89.93600463867188 C190.09600830078125 89.10400390625 190.0800018310547 88.25601196289062 189.82398986816406 87.488037109375 C189.5360107421875 86.6240234375 188.81600952148438 85.93601989746094 187.95199584960938 85.49601745605469 C187.08799743652344 85.05601501464844 186.0800018310547 84.864013671875 185.2160186767578 84.99200439453125 C183.58401489257812 85.24798583984375 182.68800354003906 86.47998046875 182.3040008544922 87.95198059082031 C181.91998291015625 89.42398071289062 182.04798889160156 91.135986328125 182.4639892578125 92.35198974609375"></path>
<path fill="#ffffff" fill-opacity="1.0"  filling="0" d="M202.94398498535156 99.3280029296875 C203.64797973632812 101.40802001953125 204.84799194335938 102.09602355957031 206.08798217773438 101.91201782226562 C207.32798767089844 101.72801208496094 208.6079864501953 100.6719970703125 209.47198486328125 99.26397705078125 C209.9199981689453 98.55999755859375 210.25601196289062 97.74400329589844 210.41600036621094 96.91200256347656 C210.5760040283203 96.08000183105469 210.55999755859375 95.23199462890625 210.30398559570312 94.4639892578125 C210.0159912109375 93.60000610351562 209.29598999023438 92.91200256347656 208.43199157714844 92.47200012207031 C207.5679931640625 92.03199768066406 206.55999755859375 91.83999633789062 205.69601440429688 91.968017578125 C204.06399536132812 92.22401428222656 203.16799926757812 93.45601654052734 202.78399658203125 94.92801666259766 C202.39999389648438 96.40001678466797 202.52798461914062 98.11201477050781 202.94398498535156 99.3280029296875"></path>
<path fill="#000000" fill-opacity="1.0"  filling="0" d="M186.4960174560547 86.656005859375 C188.03199768066406 87.488037109375 188.16000366210938 89.60000610351562 187.52000427246094 91.00802612304688 C187.1999969482422 91.71197509765625 186.55999755859375 92.35198974609375 185.72801208496094 92.35198974609375 C184.89601135253906 92.35198974609375 184.44801330566406 91.64801025390625 184.19198608398438 90.9439697265625 C183.80801391601562 89.7919921875 183.80801391601562 87.04000854492188 185.5360107421875 87.04000854492188 C186.36801147460938 87.04000854492188 186.94398498535156 87.93603515625 187.07199096679688 88.6400146484375 C187.13601684570312 89.0880126953125 187.1999969482422 89.60000610351562 187.07199096679688 90.04803466796875 C187.0080108642578 90.239990234375 186.94398498535156 90.43197631835938 186.81600952148438 90.62399291992188 C186.7519989013672 90.68801879882812 186.68800354003906 90.75198364257812 186.68800354003906 90.8160400390625 C186.11199951171875 91.90399169921875 184.51199340820312 90.9439697265625 184.9600067138672 89.85601806640625 C185.02398681640625 89.72802734375 185.0880126953125 89.60000610351562 185.15199279785156 89.5360107421875 C185.15199279785156 89.343994140625 185.2160186767578 88.96002197265625 185.0880126953125 88.83197021484375 C185.7919921875 88.511962890625 186.04800415039062 88.511962890625 185.9199981689453 88.76800537109375 C185.9199981689453 88.96002197265625 185.85601806640625 89.0880126953125 185.85601806640625 89.27999877929688 C185.85601806640625 89.60000610351562 185.85601806640625 89.85601806640625 185.9199981689453 90.176025390625 C185.9199981689453 90.30398559570312 185.98397827148438 90.3680419921875 185.98397827148438 90.49603271484375 C185.47198486328125 90.55999755859375 185.343994140625 90.49603271484375 185.6639862060547 90.3680419921875 C185.85601806640625 90.239990234375 185.85601806640625 89.72802734375 185.9199981689453 89.5360107421875 C185.98397827148438 89.02398681640625 185.98397827148438 88.44802856445312 185.5360107421875 88.19198608398438 C184.44801330566406 87.74398803710938 185.4080047607422 86.08001708984375 186.4960174560547 86.656005859375"></path>
<path fill="#000000" fill-opacity="1.0"  filling="0" d="M207.36000061035156 93.88803100585938 C208.95999145507812 94.4639892578125 208.51199340820312 96.6400146484375 207.93601989746094 97.7919921875 C207.67999267578125 98.30398559570312 207.16799926757812 99.13601684570312 206.52801513671875 99.26397705078125 C205.63198852539062 99.45602416992188 204.92800903320312 98.9439697265625 204.6719970703125 98.11199951171875 C204.2880096435547 96.96002197265625 204.8000030517578 95.3599853515625 205.44000244140625 94.4639892578125 C205.88800048828125 93.88803100585938 206.78399658203125 93.760009765625 207.36000061035156 94.08001708984375 C208.0 94.4000244140625 208.25601196289062 95.10400390625 208.25601196289062 95.74398803710938 C208.25601196289062 96.7039794921875 207.74398803710938 97.9840087890625 207.23199462890625 98.75198364257812 C206.9119873046875 99.26397705078125 206.27200317382812 99.71197509765625 205.63198852539062 99.52001953125 C204.86398315429688 99.3280029296875 204.48001098632812 98.49603271484375 204.35198974609375 97.7919921875 C204.16000366210938 96.96002197265625 204.48001098632812 96.19198608398438 204.8000030517578 95.42401123046875 C205.05601501464844 94.8480224609375 205.31199645996094 94.14398193359375 205.82398986816406 93.823974609375 C206.39999389648438 93.50396728515625 206.97601318359375 93.63198852539062 207.48800659179688 93.88803100585938 C208.19198608398438 94.2080078125 208.1280059814453 95.3599853515625 207.42398071289062 95.61602783203125 C206.3360137939453 96.06399536132812 205.37600708007812 94.4639892578125 206.4639892578125 93.95196533203125 C206.39999389648438 94.08001708984375 206.2080078125 94.27197265625 206.0800018310547 94.4639892578125 C206.14398193359375 94.72000122070312 206.27200317382812 95.04000854492188 206.3360137939453 95.2960205078125 C206.78399658203125 95.10400390625 206.9119873046875 95.10400390625 206.72000122070312 95.3599853515625 C206.5919952392578 95.552001953125 206.52801513671875 95.74398803710938 206.4639892578125 95.93603515625 C206.27200317382812 96.44802856445312 205.95199584960938 96.96002197265625 206.14398193359375 97.5360107421875 C205.44000244140625 97.66400146484375 205.24801635742188 97.72802734375 205.5039825439453 97.60000610351562 C205.56800842285156 97.5360107421875 205.63198852539062 97.40802001953125 205.63198852539062 97.343994140625 C205.69601440429688 97.1519775390625 205.82398986816406 97.02398681640625 205.88800048828125 96.83197021484375 C206.01602172851562 96.511962890625 206.0800018310547 96.12802124023438 206.2080078125 95.80804443359375 C206.27200317382812 95.67999267578125 206.27200317382812 95.552001953125 206.2080078125 95.3599853515625 C206.5919952392578 95.3599853515625 206.72000122070312 95.42401123046875 206.5919952392578 95.61602783203125 C206.5919952392578 95.67999267578125 206.52801513671875 95.67999267578125 206.52801513671875 95.74398803710938 C206.39999389648438 96.06399536132812 206.3360137939453 96.44802856445312 206.3360137939453 96.83197021484375 C206.3360137939453 96.96002197265625 206.3360137939453 97.0880126953125 206.3360137939453 97.21600341796875 C206.39999389648438 97.60000610351562 206.2080078125 97.60000610351562 205.69601440429688 97.21600341796875 C205.88800048828125 97.02398681640625 206.01602172851562 96.76800537109375 206.0800018310547 96.57601928710938 C206.3360137939453 96.19198608398438 206.52801513671875 95.488037109375 206.2080078125 95.04000854492188 C206.39999389648438 95.16802978515625 206.5919952392578 95.3599853515625 206.78399658203125 95.488037109375 C206.72000122070312 95.488037109375 206.72000122070312 95.42401123046875 206.65602111816406 95.42401123046875 C205.760009765625 95.2960205078125 206.2080078125 93.44000244140625 207.36000061035156 93.88803100585938"></path>
<path fill="#ffffff" fill-opacity="1.0"  filling="0" d="M184.63999938964844 86.9119873046875 C184.63999938964844 86.9119873046875 184.7039794921875 86.9119873046875 184.7039794921875 86.9119873046875 C185.9199981689453 86.9119873046875 185.9199981689453 88.83197021484375 184.7039794921875 88.83197021484375 C183.42398071289062 88.76800537109375 183.42398071289062 86.9119873046875 184.63999938964844 86.9119873046875"></path>
<path fill="#ffffff" fill-opacity="1.0"  filling="0" d="M206.4639892578125 95.04000854492188 C206.4639892578125 95.04000854492188 206.4639892578125 95.10400390625 206.4639892578125 95.10400390625 C206.4639892578125 95.61602783203125 206.01602172851562 96.06399536132812 205.5039825439453 96.06399536132812 C204.92800903320312 96.06399536132812 204.48001098632812 95.61602783203125 204.48001098632812 95.10400390625 C204.48001098632812 93.823974609375 206.39999389648438 93.823974609375 206.39999389648438 95.04000854492188 C206.0800018310547 94.78399658203125 205.760009765625 94.4639892578125 205.44000244140625 94.14398193359375 C205.18399047851562 94.4639892578125 204.86398315429688 94.78399658203125 204.54397583007812 95.10400390625 C204.54397583007812 93.823974609375 206.4639892578125 93.823974609375 206.4639892578125 95.04000854492188"></path>
<path fill="#79ba43" fill-opacity="1.0"  filling="0" d="M63.488006591796875 155.84002685546875 C64.0497817993164 157.43292236328125 64.6953125 158.97128295898438 65.4193344116211 160.4517059326172 C66.14334869384766 161.93212890625 66.94585418701172 163.3546142578125 67.82157135009766 164.7157440185547 C68.6972885131836 166.0768585205078 69.64622497558594 167.37661743164062 70.66311645507812 168.611572265625 C71.68000793457031 169.84652709960938 72.76483917236328 171.01670837402344 73.91236114501953 172.11866760253906 C75.05988311767578 173.2206268310547 76.27008819580078 174.25436401367188 77.53771209716797 175.2164764404297 C78.80532836914062 176.1785888671875 80.13037109375 177.0690460205078 81.50755310058594 177.88446044921875 C82.88473510742188 178.69985961914062 84.31407165527344 179.44021606445312 85.790283203125 180.10206604003906 C87.26649475097656 180.763916015625 88.78959655761719 181.3472900390625 90.35430908203125 181.8487548828125 C91.91902160644531 182.3502197265625 93.52534484863281 182.769775390625 95.16800689697266 183.10400390625 C96.656005859375 183.4080047607422 98.13600158691406 183.6320037841797 99.60900115966797 183.78201293945312 C101.08200073242188 183.9320068359375 102.5479965209961 184.0080108642578 104.00799560546875 184.01600646972656 C105.46798706054688 184.02401733398438 106.92198944091797 183.96401977539062 108.37098693847656 183.84201049804688 C109.81999206542969 183.7200164794922 111.26399230957031 183.5360107421875 112.70398712158203 183.2960205078125 C113.7919921875 183.10401916503906 114.87999725341797 182.88357543945312 115.96562957763672 182.63467407226562 C117.05125427246094 182.3857879638672 118.13451385498047 182.10845947265625 119.2130355834961 181.80267333984375 C120.29154968261719 181.49688720703125 121.36532592773438 181.16265869140625 122.43199157714844 180.79998779296875 C123.71199035644531 180.35198974609375 125.05601501464844 179.84002685546875 126.33601379394531 179.32803344726562 C127.7226791381836 178.7626953125 129.18402099609375 178.23292541503906 130.68771362304688 177.7144012451172 C132.19142150878906 177.1958770751953 133.73748779296875 176.68861389160156 135.29364013671875 176.16831970214844 C136.84979248046875 175.64801025390625 138.41600036621094 175.11468505859375 139.9600067138672 174.54400634765625 C141.50399780273438 173.97332763671875 143.02577209472656 173.36532592773438 144.49302673339844 172.69569396972656 C145.96029663085938 172.02606201171875 147.37303161621094 171.2947998046875 148.69894409179688 170.47760009765625 C150.02487182617188 169.66043090820312 151.26397705078125 168.75732421875 152.3839874267578 167.74398803710938 C153.6266632080078 166.62399291992188 154.77598571777344 165.43243408203125 155.83322143554688 164.1793212890625 C156.89044189453125 162.92620849609375 157.85556030273438 161.61154174804688 158.7297821044922 160.2453155517578 C159.60400390625 158.87908935546875 160.38734436035156 157.46131896972656 161.0810089111328 156.00198364257812 C161.77467346191406 154.5426483154297 162.37867736816406 153.04176330566406 162.89422607421875 151.5093231201172 C163.4097900390625 149.9768829345703 163.83689880371094 148.41287231445312 164.17678833007812 146.82733154296875 C164.5166778564453 145.2417755126953 164.76934814453125 143.63465881347656 164.93600463867188 142.0159912109375 C165.10267639160156 140.39732360839844 165.18333435058594 138.76710510253906 165.17922973632812 137.1353302001953 C165.17510986328125 135.50355529785156 165.0862274169922 133.87022399902344 164.9137725830078 132.24533081054688 C164.7413330078125 130.6204376220703 164.48533630371094 129.00399780273438 164.14700317382812 127.40599822998047 C163.8086700439453 125.80799865722656 163.38800048828125 124.22843933105469 162.88621520996094 122.67733001708984 C162.38442993164062 121.126220703125 161.80154418945312 119.60354614257812 161.13876342773438 118.11932373046875 C160.47598266601562 116.63510131835938 159.7333221435547 115.1893310546875 158.9119873046875 113.7919921875 C158.0762176513672 112.37269592285156 157.1671600341797 111.00279235839844 156.1915283203125 109.68477630615234 C155.2158966064453 108.36676788330078 154.17369079589844 107.10065460205078 153.07167053222656 105.88895416259766 C151.96963500976562 104.67725372314453 150.8077850341797 103.51996612548828 149.5928192138672 102.41960906982422 C148.37786865234375 101.31924438476562 147.10980224609375 100.27581024169922 145.79539489746094 99.29181671142578 C144.48097229003906 98.30782318115234 143.1201934814453 97.38327026367188 141.71978759765625 96.52066802978516 C140.3193817138672 95.65806579589844 138.8793487548828 94.85742950439453 137.40643310546875 94.12125396728516 C135.93350219726562 93.38507843017578 134.4276885986328 92.71337127685547 132.89572143554688 92.10865020751953 C131.36373901367188 91.5039291381836 129.8056182861328 90.9661865234375 128.22805786132812 90.4979476928711 C126.65050506591797 90.02970886230469 125.05352783203125 89.6309585571289 123.44385528564453 89.30422973632812 C121.83419036865234 88.97749328613281 120.21183776855469 88.72277069091797 118.58352661132812 88.54257202148438 C116.9552230834961 88.36237335205078 115.32096099853516 88.25669860839844 113.68748474121094 88.22807312011719 C112.05400848388672 88.1994400024414 110.42131042480469 88.24784851074219 108.79612731933594 88.37580871582031 C107.17094421386719 88.50376892089844 105.55328369140625 88.7112808227539 103.94986724853516 89.00086212158203 C102.34645080566406 89.29044342041016 100.75729370117188 89.66209411621094 99.18911743164062 90.11833190917969 C97.62094116210938 90.5745620727539 96.0737533569336 91.1153793334961 94.55428314208984 91.7432861328125 C93.0348129272461 92.37120056152344 91.54306030273438 93.0862045288086 90.08576965332031 93.89082336425781 C88.62847137451172 94.6954345703125 87.20562744140625 95.58966064453125 85.82398223876953 96.57601928710938 C84.61712646484375 97.44915771484375 83.4321517944336 98.39544677734375 82.27469635009766 99.40743255615234 C81.11724090576172 100.41941833496094 79.9873046875 101.49710845947266 78.89053344726562 102.633056640625 C77.79376220703125 103.76900482177734 76.73016357421875 104.96322631835938 75.70536804199219 106.20825958251953 C74.68057250976562 107.45329284667969 73.69459533691406 108.74915313720703 72.75306701660156 110.08839416503906 C71.81153869628906 111.4276351928711 70.91446685791016 112.81025695800781 70.06749725341797 114.22882080078125 C69.22052001953125 115.64738464355469 68.42365264892578 117.10189056396484 67.6825180053711 118.58489990234375 C66.94139099121094 120.06790924072266 66.25599670410156 121.57942199707031 65.63200378417969 123.11199188232422 C65.00800323486328 124.64456176757812 64.44538879394531 126.19819641113281 63.94981002807617 127.76544952392578 C63.45423126220703 129.33270263671875 63.02568054199219 130.91357421875 62.6698112487793 132.50064086914062 C62.31393814086914 134.0876922607422 62.03074645996094 135.68093872070312 61.825870513916016 137.2729034423828 C61.620994567871094 138.86488342285156 61.494441986083984 140.45559692382812 61.45185470581055 142.03762817382812 C61.40926742553711 143.61964416503906 61.45064163208008 145.19296264648438 61.58163070678711 146.75015258789062 C61.712615966796875 148.3073272705078 61.93321228027344 149.84835815429688 62.24905776977539 151.36582946777344 C62.56490707397461 152.88328552246094 62.97600555419922 154.37716674804688 63.488006591796875 155.84002685546875"></path>
<path fill="#5e8e3f" fill-opacity="1.0"  filling="0" d="M93.37601470947266 153.343994140625 C94.3725814819336 154.5691375732422 95.55461883544922 155.66758728027344 96.86316680908203 156.6143341064453 C98.17171478271484 157.5610809326172 99.60676574707031 158.35614013671875 101.10936737060547 158.97450256347656 C102.61196899414062 159.59286499023438 104.18211364746094 160.03451538085938 105.7608413696289 160.27447509765625 C107.33956909179688 160.51443481445312 108.9268798828125 160.55267333984375 110.46381378173828 160.36422729492188 C112.00074768066406 160.17576599121094 113.4873046875 159.76060485839844 114.86450958251953 159.09373474121094 C116.2417221069336 158.42686462402344 117.50959014892578 157.50828552246094 118.60916137695312 156.31298828125 C119.70872497558594 155.11770629882812 120.63998413085938 153.64569091796875 121.34398651123047 151.87197875976562 C121.8773193359375 150.50665283203125 122.0124282836914 148.9137725830078 121.7706527709961 147.33509826660156 C121.52887725830078 145.75643920898438 120.91021728515625 144.19200134277344 119.93599700927734 142.88356018066406 C118.96177673339844 141.5751190185547 117.63200378417969 140.52267456054688 115.96800994873047 139.968017578125 C114.04801177978516 139.32801818847656 112.17778778076172 139.57691955566406 110.77215576171875 140.31884765625 C109.36653137207031 141.06076049804688 108.42549133300781 142.2957305908203 108.36386108398438 143.62786865234375 C108.3022232055664 144.96002197265625 109.1199951171875 146.38934326171875 111.23199462890625 147.52001953125 C109.61066436767578 145.55734252929688 109.55377960205078 144.0924530029297 110.3265151977539 143.1703643798828 C111.09925842285156 142.248291015625 112.70162963867188 141.86903381347656 114.39881134033203 142.07762145996094 C116.09599304199219 142.2862091064453 117.88800048828125 143.0826416015625 119.04000091552734 144.511962890625 C120.16799926757812 145.9439697265625 120.76899719238281 147.31398010253906 120.94349670410156 148.59085083007812 C121.11799621582031 149.86773681640625 120.86599731445312 151.05148315429688 120.28799438476562 152.11099243164062 C119.70999145507812 153.17050170898438 118.80599212646484 154.10574340820312 117.6764907836914 154.88563537597656 C116.54698944091797 155.66551208496094 115.1919937133789 156.29000854492188 113.71199035644531 156.72801208496094 C112.23199462890625 157.166015625 110.62699127197266 157.41751098632812 108.99748992919922 157.45138549804688 C107.36798858642578 157.48526000976562 105.7139892578125 157.301513671875 104.13599395751953 156.86900329589844 C102.55799865722656 156.43650817871094 101.05599212646484 155.75526428222656 99.7304916381836 154.79412841796875 C98.40499114990234 153.8330078125 97.25598907470703 152.59201049804688 96.38398742675781 151.04000854492188 C95.56112670898438 149.56800842285156 94.99688720703125 148.01895141601562 94.66606140136719 146.44284057617188 C94.33524322509766 144.86672973632812 94.23784637451172 143.2635498046875 94.34867858886719 141.68333435058594 C94.45951080322266 140.1031036376953 94.77857971191406 138.54583740234375 95.28069305419922 137.0615234375 C95.78280639648438 135.57720947265625 96.46795654296875 134.1658477783203 97.31096649169922 132.87744140625 C98.15397644042969 131.5890350341797 99.15483856201172 130.42359924316406 100.28836822509766 129.43113708496094 C101.4218978881836 128.43865966796875 102.68809509277344 127.61915588378906 104.06175994873047 127.02262878417969 C105.4354248046875 126.42609405517578 106.91656494140625 126.05253601074219 108.47999572753906 125.95196533203125 C110.30399322509766 125.83197021484375 111.99874114990234 125.90771484375 113.56815338134766 126.15792083740234 C115.13755798339844 126.40812683105469 116.58161926269531 126.83277893066406 117.90424346923828 127.41059875488281 C119.22686767578125 127.98841094970703 120.42805480957031 128.71937561035156 121.51171112060547 129.58221435546875 C122.59536743164062 130.44503784179688 123.56149291992188 131.43972778320312 124.41399383544922 132.54498291015625 C125.26649475097656 133.65023803710938 126.00537109375 134.8660430908203 126.63452911376953 136.17112731933594 C127.26368713378906 137.47621154785156 127.78312683105469 138.87054443359375 128.19674682617188 140.33287048339844 C128.61036682128906 141.79518127441406 128.91818237304688 143.32546997070312 129.1240997314453 144.9024200439453 C129.3300018310547 146.4793701171875 129.4340057373047 148.10299682617188 129.44000244140625 149.7519989013672 C129.4459991455078 151.4010009765625 129.35400390625 153.07537841796875 129.16790771484375 154.7538299560547 C128.9818115234375 156.43228149414062 128.70162963867188 158.1148223876953 128.3312530517578 159.78013610839844 C127.96087646484375 161.44544982910156 127.50032043457031 163.09353637695312 126.95347595214844 164.703125 C126.40663146972656 166.3126983642578 125.77350616455078 167.88375854492188 125.0580062866211 169.39501953125 C124.3425064086914 170.90626525878906 123.54463195800781 172.35769653320312 122.66828918457031 173.72802734375 C121.79194641113281 175.09835815429688 120.83712768554688 176.3875732421875 119.80775451660156 177.5743865966797 C118.77838134765625 178.76119995117188 117.67444610595703 179.84561157226562 116.49984741210938 180.80630493164062 C115.32525634765625 181.7670135498047 114.08000183105469 182.60401916503906 112.76800537109375 183.2960205078125 C113.85600280761719 183.10401916503906 114.94400024414062 182.88357543945312 116.02963256835938 182.63467407226562 C117.11526489257812 182.3857879638672 118.19852447509766 182.10845947265625 119.27704620361328 181.80267333984375 C120.3555679321289 181.49688720703125 121.42935180664062 181.16265869140625 122.49601745605469 180.79998779296875 C123.56800842285156 179.8879852294922 124.58800506591797 178.8759765625 125.53199768066406 177.80899047851562 C126.47599792480469 176.7419891357422 127.34400177001953 175.6199951171875 128.11199951171875 174.4879913330078 C128.8800048828125 173.35598754882812 129.54800415039062 172.21400451660156 130.09201049804688 171.1070098876953 C130.63601684570312 170.00001525878906 131.05599975585938 168.9280242919922 131.3280029296875 167.93603515625 C131.71200561523438 166.5280303955078 132.0111083984375 165.02859497070312 132.22811889648438 163.467041015625 C132.44512939453125 161.9054718017578 132.58001708984375 160.28176879882812 132.6356201171875 158.62522888183594 C132.69122314453125 156.96868896484375 132.6675262451172 155.27931213378906 132.56732177734375 153.5863800048828 C132.46713256835938 151.89346313476562 132.29042053222656 150.19699096679688 132.04002380371094 148.52627563476562 C131.7896270751953 146.85556030273438 131.46551513671875 145.21060180664062 131.0705108642578 143.62066650390625 C130.67550659179688 142.03074645996094 130.20957946777344 140.49586486816406 129.67556762695312 139.0453338623047 C129.14154052734375 137.59478759765625 128.5394287109375 136.22857666015625 127.87199401855469 134.97601318359375 C127.15885162353516 133.6411590576172 126.27460479736328 132.37551879882812 125.2526626586914 131.19776916503906 C124.230712890625 130.02001953125 123.07106018066406 128.93014526367188 121.8071060180664 127.94682312011719 C120.54315185546875 126.9635009765625 119.17489624023438 126.08671569824219 117.73573303222656 125.33513641357422 C116.29656982421875 124.58355712890625 114.78650665283203 123.9571762084961 113.23893737792969 123.47465515136719 C111.69136810302734 122.99213409423828 110.10629272460938 122.65348052978516 108.5171127319336 122.47734069824219 C106.92793273925781 122.30120849609375 105.33465576171875 122.28759002685547 103.77066802978516 122.45514678955078 C102.20668029785156 122.62271118164062 100.6719970703125 122.97145080566406 99.19999694824219 123.52001953125 C97.60913848876953 124.10516357421875 96.21028137207031 124.95675659179688 95.00155639648438 126.01172637939453 C93.79283142089844 127.06669616699219 92.77424621582031 128.32505798339844 91.94392395019531 129.72372436523438 C91.11360168457031 131.1223907470703 90.47154998779297 132.661376953125 90.01589965820312 134.27760314941406 C89.56024932861328 135.89382934570312 89.29100799560547 137.58731079101562 89.206298828125 139.29498291015625 C89.12158966064453 141.0026397705078 89.22142028808594 142.7244873046875 89.50391387939453 144.39744567871094 C89.78640747070312 146.07040405273438 90.25157928466797 147.6944580078125 90.89755249023438 149.20657348632812 C91.54352569580078 150.71868896484375 92.37030029296875 152.11886596679688 93.37601470947266 153.343994140625"></path>
<path fill="#ef6456" fill-opacity="1.0"  filling="0" d="M196.86398315429688 124.48001098632812 C196.03199768066406 125.66401672363281 194.83200073242188 126.11200714111328 193.58399963378906 126.09600830078125 C192.33599853515625 126.08000183105469 191.04000854492188 125.60000610351562 190.01602172851562 124.92803955078125 C190.2080078125 125.85601806640625 190.3520050048828 127.04000854492188 190.78399658203125 127.88800048828125 C191.21600341796875 128.73599243164062 191.93600463867188 129.24798583984375 193.27999877929688 128.83197021484375 C194.0800018310547 128.57598876953125 194.8000030517578 127.87200164794922 195.38400268554688 127.11201477050781 C195.96800231933594 126.35202026367188 196.41600036621094 125.53602600097656 196.6719970703125 125.0560302734375 L196.86398315429688 124.48001098632812"></path></svg>