<svg xmlns="http://www.w3.org/2000/svg" viewBox="0.0 0.0 256.0 256.0" height="256.0px" width="256.0px"><path fill="#603913" fill-opacity="1.0"  filling="0" d="M74.4625473022461 133.90301513671875 L75.97079467773438 131.4373016357422 L80.17431640625 134.00714111328125 L84.3778305053711 136.57696533203125 L88.58135223388672 139.14678955078125 L92.78486633300781 141.71661376953125 L96.98838806152344 144.28646850585938 L101.19190979003906 146.85629272460938 L105.39543151855469 149.42611694335938 L109.59894561767578 151.99595642089844 L113.8024673461914 154.56578063964844 L118.0059814453125 157.1356201171875 L122.20950317382812 159.7054443359375 L120.7012710571289 162.171142578125 L116.49775695800781 159.601318359375 L112.29422760009766 157.031494140625 L108.09071350097656 154.46165466308594 L103.88719177246094 151.89181518554688 L99.68367004394531 149.32200622558594 L95.48014831542969 146.75216674804688 L91.27662658691406 144.1823272705078 L87.07311248779297 141.6125030517578 L82.86958312988281 139.0426788330078 L78.66607666015625 136.4728546142578 L74.4625473022461 133.90301513671875"></path>
<path fill="#EE3426" fill-opacity="1.0"  filling="0" d="M75.3839340209961 124.82876586914062 C75.29381561279297 124.49755859375 75.19808197021484 124.15403747558594 74.97392272949219 123.89381408691406 C74.3634262084961 123.18531799316406 73.07369232177734 123.54238891601562 72.6400375366211 124.37028503417969 C72.20635986328125 125.19931030273438 72.43276977539062 126.22998046875 72.87431335449219 127.05448913574219 C72.33477783203125 126.41019439697266 71.76481628417969 125.74674987792969 71.12459564208984 125.19889831542969 C70.484375 124.65104675292969 69.77389526367188 124.21879577636719 68.95331573486328 124.03688049316406 C67.8471908569336 123.79244995117188 66.69038391113281 124.04702758789062 65.62593078613281 124.43336486816406 C64.18075561523438 124.95712280273438 62.707427978515625 125.86500549316406 62.26251220703125 127.33609008789062 C61.96063232421875 128.3318328857422 62.189292907714844 129.40528869628906 62.459617614746094 130.4100341796875 C62.818939208984375 131.74595642089844 63.29991912841797 133.13818359375 64.36548614501953 134.02127075195312 C65.59101104736328 135.03729248046875 67.30764770507812 135.15780639648438 68.89812469482422 135.1814727783203 C69.76770782470703 135.19387817382812 70.63729095458984 135.19158935546875 71.50686645507812 135.17471313476562 C72.03290557861328 135.16458129882812 72.59947204589844 135.1341552734375 73.01286315917969 134.8074951171875 C73.41950225830078 134.48648071289062 73.58170318603516 133.95481872558594 73.73939514160156 133.4625701904297 C74.26205444335938 131.83154296875 76.03387451171875 131.03631591796875 76.5069580078125 129.77137756347656 C76.72604370117188 129.1833953857422 76.52582550048828 128.2448272705078 76.2305679321289 127.30470275878906 C75.93531036376953 126.36459350585938 75.54501342773438 125.42292785644531 75.3839340209961 124.82876586914062"></path>
<path fill="#BA2526" fill-opacity="1.0"  filling="0" d="M74.51886749267578 130.27711486816406 C73.65040588378906 131.2830047607422 72.96217346191406 132.4296875 72.27957153320312 133.569580078125 C71.98332977294922 134.06405639648438 71.67694854736328 134.64419555664062 71.8661880493164 135.188232421875 C72.06781005859375 135.7660675048828 72.72563171386719 136.0206298828125 73.30799102783203 136.20535278320312 C73.72024536132812 136.33602905273438 74.18769836425781 136.46331787109375 74.56729888916016 136.25607299804688 C74.76892852783203 136.14569091796875 74.91310119628906 135.95645141601562 75.05389404296875 135.77394104003906 C75.85476684570312 134.7309112548828 76.72773742675781 133.741943359375 77.66265106201172 132.81600952148438 C78.42634582519531 132.0602264404297 79.30043029785156 131.181640625 79.19905853271484 130.111572265625 C79.09880065917969 129.05047607421875 78.14924621582031 127.99278259277344 77.17266845703125 128.18316650390625 C76.20282745361328 128.37350463867188 75.13050079345703 129.568603515625 74.51886749267578 130.27711486816406"></path>
<path fill="#603913" fill-opacity="1.0"  filling="0" d="M164.3852996826172 154.8123779296875 L166.4162139892578 150.32366943359375 L168.4470977783203 145.83497619628906 L170.47799682617188 141.3462677001953 L172.5089111328125 136.85755920410156 L174.53981018066406 132.36886596679688 L176.57070922851562 127.88015747070312 L178.60159301757812 123.39144897460938 L180.63250732421875 118.90274810791016 L182.66339111328125 114.4140396118164 L184.69432067871094 109.92533874511719 L186.72520446777344 105.43663024902344 L189.35760498046875 106.62722778320312 L187.32681274414062 111.11604309082031 L185.2960205078125 115.60484313964844 L183.26522827148438 120.09365844726562 L181.23440551757812 124.58247375488281 L179.20361328125 129.0712890625 L177.17282104492188 133.5601043701172 L175.14202880859375 138.0489044189453 L173.11123657226562 142.5377197265625 L171.08041381835938 147.02651977539062 L169.04962158203125 151.51535034179688 L167.01882934570312 156.004150390625 L164.3852996826172 154.8123779296875"></path>
<path fill="#EE3426" fill-opacity="1.0"  filling="0" d="M183.48455810546875 99.64019775390625 C183.373046875 99.31575012207031 183.25926208496094 98.97784423828125 183.2987060546875 98.63653564453125 C183.40570068359375 97.707275390625 184.67178344726562 97.2769775390625 185.49630737304688 97.71852111816406 C186.32081604003906 98.16006469726562 186.71395874023438 99.14007568359375 186.81192016601562 100.07046508789062 C186.89584350585938 99.23410034179688 186.99386596679688 98.36508178710938 187.21505737304688 97.55223846435547 C187.43626403808594 96.7394027709961 187.78065490722656 95.98274993896484 188.35736083984375 95.37112426757812 C189.13458251953125 94.54660034179688 190.23394775390625 94.10617065429688 191.33216857910156 93.82681274414062 C192.8223876953125 93.44721984863281 194.55029296875 93.3695068359375 195.7465362548828 94.3359375 C196.55641174316406 94.99038696289062 196.970947265625 96.00527954101562 197.312255859375 96.98861694335938 C197.76617431640625 98.29525756835938 198.1514129638672 99.71678161621094 197.76731872558594 101.0458984375 C197.32577514648438 102.5755615234375 195.97406005859375 103.64004516601562 194.67083740234375 104.55464172363281 C193.9589385986328 105.05474853515625 193.23919677734375 105.5413818359375 192.51040649414062 106.01557922363281 C192.06886291503906 106.30282592773438 191.5833740234375 106.59681701660156 191.0584716796875 106.55853271484375 C190.54144287109375 106.52134704589844 190.10891723632812 106.17327880859375 189.70114135742188 105.85453796386719 C188.35171508789062 104.80023193359375 186.4390869140625 105.13925170898438 185.33749389648438 104.35865783691406 C184.82498168945312 103.99595642089844 184.4622802734375 103.10751342773438 184.17742919921875 102.16415405273438 C183.89259338378906 101.22079467773438 183.6856231689453 100.2225341796875 183.48455810546875 99.64019775390625"></path>
<path fill="#BA2526" fill-opacity="1.0"  filling="0" d="M187.26475524902344 103.6591796875 C188.54885864257812 104.0015869140625 189.76199340820312 104.56365966796875 190.96835327148438 105.12234497070312 C191.4910125732422 105.36454772949219 192.0710906982422 105.67202758789062 192.2197723388672 106.22850036621094 C192.3786163330078 106.8187255859375 191.97760009765625 107.39993286132812 191.6002655029297 107.88092041015625 C191.33331298828125 108.22108459472656 191.01791381835938 108.58941650390625 190.587646484375 108.631103515625 C190.35897827148438 108.65362548828125 190.13255310058594 108.57815551757812 189.91403198242188 108.50604248046875 C188.66488647460938 108.09378051757812 187.38754272460938 107.76603698730469 186.09329223632812 107.5272216796875 C185.0367431640625 107.33233642578125 183.8202362060547 107.0958251953125 183.30206298828125 106.15414428710938 C182.78843688964844 105.2203369140625 182.97882080078125 103.81234741210938 183.8934326171875 103.42037963867188 C184.80130004882812 103.03175354003906 186.3602294921875 103.4169921875 187.26475524902344 103.6591796875"></path>
<path fill="#f4ecec" fill-opacity="1.0"  filling="0" d="M151.3078155517578 128.6190643310547 C153.00018310546875 129.01210021972656 154.64341735839844 129.5049285888672 156.2327117919922 130.0899200439453 C157.82200622558594 130.67489624023438 159.3573760986328 131.35202026367188 160.83404541015625 132.11361694335938 C162.3107147216797 132.87521362304688 163.72866821289062 133.72129821777344 165.08314514160156 134.64418029785156 C166.4376220703125 135.5670623779297 167.72862243652344 136.5667724609375 168.95135498046875 137.63560485839844 C170.17408752441406 138.70445251464844 171.32855224609375 139.84243774414062 172.4099884033203 141.04190063476562 C173.49142456054688 142.24136352539062 174.4998016357422 143.50230407714844 175.4303741455078 144.8170623779297 C176.36094665527344 146.13182067871094 177.2136993408203 147.50038146972656 177.98385620117188 148.9150848388672 C178.75401306152344 150.32980346679688 179.4415740966797 151.7906494140625 180.04176330566406 153.28997802734375 C180.64195251464844 154.789306640625 181.15475463867188 156.32711791992188 181.57540893554688 157.895751953125 C181.99606323242188 159.46437072753906 182.32456970214844 161.06381225585938 182.55613708496094 162.68638610839844 C182.78770446777344 164.30897521972656 182.92233276367188 165.95469665527344 182.95526123046875 167.61590576171875 C182.98818969726562 169.27711486816406 182.91940307617188 170.95379638671875 182.744140625 172.6383056640625 C182.56886291503906 174.3227996826172 182.287109375 176.01510620117188 181.89407348632812 177.70758056640625 C181.5010528564453 179.3999481201172 181.00820922851562 181.04318237304688 180.42323303222656 182.63247680664062 C179.8382568359375 184.22177124023438 179.1611328125 185.75714111328125 178.3995361328125 187.2338104248047 C177.637939453125 188.71047973632812 176.79185485839844 190.12843322753906 175.8689727783203 191.48291015625 C174.9460906982422 192.83738708496094 173.94638061523438 194.12838745117188 172.87754821777344 195.3511199951172 C171.80870056152344 196.5738525390625 170.67071533203125 197.7283172607422 169.47125244140625 198.80975341796875 C168.27178955078125 199.8911895751953 167.01084899902344 200.8995819091797 165.6960906982422 201.8301544189453 C164.38133239746094 202.76072692871094 163.0127716064453 203.6134796142578 161.59805297851562 204.38363647460938 C160.183349609375 205.15379333496094 158.7224884033203 205.8413543701172 157.22315979003906 206.44154357910156 C155.7238311767578 207.04173278808594 154.18600463867188 207.55453491210938 152.6173858642578 207.97520446777344 C151.04876708984375 208.39585876464844 149.44932556152344 208.724365234375 147.8267364501953 208.9559326171875 C146.2041473388672 209.1875 144.5584259033203 209.3221435546875 142.897216796875 209.35507202148438 C141.2360076904297 209.38800048828125 139.559326171875 209.3192138671875 137.8748321533203 209.14395141601562 C136.19033813476562 208.9686737060547 134.49801635742188 208.68692016601562 132.80557250976562 208.29388427734375 C131.1132049560547 207.90084838867188 129.46998596191406 207.40802001953125 127.88069152832031 206.82302856445312 C126.2914047241211 206.23805236816406 124.75605010986328 205.56092834472656 123.27941131591797 204.79931640625 C121.80276489257812 204.0377197265625 120.38483428955078 203.19163513183594 119.03038787841797 202.2687530517578 C117.67594146728516 201.3458709716797 116.38497924804688 200.34616088867188 115.16228485107422 199.27732849121094 C113.93959045410156 198.20848083496094 112.78515625 197.07049560546875 111.70376586914062 195.87103271484375 C110.62237548828125 194.67156982421875 109.61402893066406 193.41062927246094 108.68350219726562 192.0958709716797 C107.75297546386719 190.78111267089844 106.90026092529297 189.4125518798828 106.1301498413086 187.9978485107422 C105.36003875732422 186.58314514160156 104.67251586914062 185.12228393554688 104.07237243652344 183.62295532226562 C103.47222900390625 182.12362670898438 102.95945739746094 180.5858154296875 102.5388412475586 179.01718139648438 C102.11822509765625 177.4485626220703 101.78975677490234 175.84912109375 101.55821990966797 174.22654724121094 C101.3266830444336 172.6039581298828 101.19207000732422 170.95823669433594 101.15916442871094 169.29701232910156 C101.12625885009766 167.63580322265625 101.19506072998047 165.9591064453125 101.37034606933594 164.2746124267578 C101.5456314086914 162.59010314941406 101.82740020751953 160.89779663085938 102.22042846679688 159.205322265625 C102.61336517333984 157.51295471191406 103.10612487792969 155.86973571777344 103.69103240966797 154.28045654296875 C104.27593994140625 152.69117736816406 104.95299530029297 151.15582275390625 105.71453094482422 149.67916870117188 C106.47606658935547 148.20252990722656 107.32209014892578 146.7845916748047 108.24492645263672 145.43014526367188 C109.16776275634766 144.07569885253906 110.16741180419922 142.78472900390625 111.23621368408203 141.56202697753906 C112.30501556396484 140.33932495117188 113.44296264648438 139.18487548828125 114.64239501953125 138.10348510742188 C115.84182739257812 137.02207946777344 117.10273742675781 136.0137176513672 118.41746520996094 135.0831756591797 C119.73219299316406 134.1526336669922 121.10073852539062 133.29989624023438 122.51542663574219 132.52975463867188 C123.93011474609375 131.75961303710938 125.39095306396484 131.0720672607422 126.89027404785156 130.47189331054688 C128.38958740234375 129.87171936035156 129.92739868164062 129.35890197753906 131.4960174560547 128.93824768066406 C133.06463623046875 128.51759338378906 134.6640625 128.18907165527344 136.28663635253906 127.95748138427734 C137.90921020507812 127.72589111328125 139.55494689941406 127.59122467041016 141.2161407470703 127.55825805664062 C142.87734985351562 127.5252914428711 144.5540313720703 127.59402465820312 146.23854064941406 127.76923370361328 C147.92303466796875 127.94444274902344 149.6153564453125 128.2261199951172 151.3078155517578 128.6190643310547"></path>
<path fill="#A8C7E3" fill-opacity="1.0"  filling="0" d="M142.01951599121094 127.5816650390625 C140.5247802734375 127.5816650390625 139.05145263671875 127.66725158691406 137.598388671875 127.8238525390625 C139.30723571777344 128.0076446533203 140.9845733642578 128.29664611816406 142.623779296875 128.68426513671875 C144.2629852294922 129.07188415527344 145.86407470703125 129.55810546875 147.42042541503906 130.13633728027344 C148.97677612304688 130.71456909179688 150.48838806152344 131.38479614257812 151.94863891601562 132.1404266357422 C153.4088897705078 132.89605712890625 154.8177947998047 133.73709106445312 156.16873168945312 134.6569061279297 C157.5196533203125 135.57672119140625 158.8126220703125 136.57533264160156 160.04098510742188 137.64613342285156 C161.2693634033203 138.71693420410156 162.4331512451172 139.8599090576172 163.52572631835938 141.06846618652344 C164.61831665039062 142.2770233154297 165.6396942138672 143.5511474609375 166.58326721191406 144.88426208496094 C167.52682495117188 146.2173614501953 168.392578125 147.60943603515625 169.17388916015625 149.0538787841797 C169.9552001953125 150.49832153320312 170.65208435058594 151.9951171875 171.25791931152344 153.53768920898438 C171.86375427246094 155.0802459716797 172.3785400390625 156.6685791015625 172.795654296875 158.29605102539062 C173.2127685546875 159.92352294921875 173.5322265625 161.59014892578125 173.74740600585938 163.289306640625 C173.96258544921875 164.9884796142578 174.073486328125 166.72018432617188 174.073486328125 168.47784423828125 C174.073486328125 170.23550415039062 173.96258544921875 171.96722412109375 173.74742126464844 173.66641235351562 C173.53224182128906 175.3656005859375 173.21278381347656 177.03224182128906 172.79566955566406 178.6597442626953 C172.3785400390625 180.28724670410156 171.86375427246094 181.87559509277344 171.2579345703125 183.41818237304688 C170.652099609375 184.9607696533203 169.95521545410156 186.45761108398438 169.1739044189453 187.90208435058594 C168.39259338378906 189.3465576171875 167.52684020996094 190.73866271972656 166.58326721191406 192.07179260253906 C165.6396942138672 193.40492248535156 164.61831665039062 194.67909240722656 163.52572631835938 195.88766479492188 C162.43313598632812 197.09625244140625 161.26934814453125 198.23924255371094 160.04098510742188 199.31005859375 C158.81260681152344 200.380859375 157.5196533203125 201.37948608398438 156.16871643066406 202.29930114746094 C154.81777954101562 203.2191162109375 153.40887451171875 204.0601348876953 151.94862365722656 204.8157501220703 C150.48837280273438 205.5713653564453 148.9767608642578 206.2415771484375 147.42041015625 206.8197784423828 C145.86407470703125 207.39797973632812 144.2629852294922 207.8841552734375 142.623779296875 208.27171325683594 C140.98455810546875 208.65927124023438 139.30722045898438 208.9481964111328 137.598388671875 209.13189697265625 C139.05145263671875 209.2884521484375 140.5247802734375 209.37408447265625 142.01951599121094 209.37408447265625 C143.75694274902344 209.37408447265625 145.4690704345703 209.2657470703125 147.1494903564453 209.05545043945312 C148.8299102783203 208.84515380859375 150.47865295410156 208.5329132080078 152.08929443359375 208.12509155273438 C153.699951171875 207.71726989746094 155.27252197265625 207.21389770507812 156.8006134033203 206.621337890625 C158.32872009277344 206.02877807617188 159.81234741210938 205.34703063964844 161.2451171875 204.58250427246094 C162.67788696289062 203.81796264648438 164.059814453125 202.97064208984375 165.38449096679688 202.04690551757812 C166.70916748046875 201.1231689453125 167.97659301757812 200.123046875 169.18040466308594 199.05288696289062 C170.3842010498047 197.98272705078125 171.52438354492188 196.84255981445312 172.5945281982422 195.63876342773438 C173.66468811035156 194.43496704101562 174.66482543945312 193.1675262451172 175.5885467529297 191.8428497314453 C176.5122833251953 190.51817321777344 177.35960388183594 189.13626098632812 178.12413024902344 187.7034912109375 C178.888671875 186.27072143554688 179.57040405273438 184.78707885742188 180.1629638671875 183.2589874267578 C180.75552368164062 181.7308807373047 181.2589111328125 180.15830993652344 181.66673278808594 178.54766845703125 C182.07455444335938 176.93701171875 182.3867950439453 175.28826904296875 182.5970916748047 173.6078338623047 C182.80738830566406 171.92739868164062 182.9157257080078 170.21527099609375 182.9157257080078 168.47784423828125 C182.9157257080078 166.74041748046875 182.80738830566406 165.02828979492188 182.5970916748047 163.34786987304688 C182.3867950439453 161.6674346923828 182.07455444335938 160.01870727539062 181.66673278808594 158.40806579589844 C181.2589111328125 156.7974090576172 180.7555389404297 155.22483825683594 180.16297912597656 153.69674682617188 C179.57041931152344 152.16864013671875 178.888671875 150.6850128173828 178.1241455078125 149.2522430419922 C177.35960388183594 147.81947326660156 176.5122833251953 146.4375457763672 175.5885467529297 145.1128692626953 C174.66481018066406 143.78819274902344 173.6646728515625 142.52076721191406 172.5945281982422 141.3169708251953 C171.5243682861328 140.11317443847656 170.3842010498047 138.97300720214844 169.18040466308594 137.90284729003906 C167.9766082763672 136.83270263671875 166.70916748046875 135.8325653076172 165.38449096679688 134.90882873535156 C164.059814453125 133.985107421875 162.6779022216797 133.1377716064453 161.24513244628906 132.3732452392578 C159.81236267089844 131.6087188720703 158.3287353515625 130.92697143554688 156.80062866210938 130.33441162109375 C155.2725372314453 129.74185180664062 153.69996643066406 129.23846435546875 152.0893096923828 128.83065795898438 C150.47866821289062 128.4228515625 148.82992553710938 128.110595703125 147.14950561523438 127.90029907226562 C145.4690704345703 127.69000244140625 143.7569580078125 127.5816650390625 142.01951599121094 127.5816650390625"></path>
<path fill="#f4ecec" fill-opacity="1.0"  filling="0" d="M147.50057983398438 83.26681518554688 C149.1724090576172 83.65705108642578 150.77392578125 84.18965911865234 152.29530334472656 84.84883117675781 C153.81668090820312 85.50799560546875 155.25790405273438 86.29371643066406 156.60916137695312 87.19017791748047 C157.96041870117188 88.08663940429688 159.22169494628906 89.0938491821289 160.38316345214844 90.19598388671875 C161.5446319580078 91.2981185913086 162.60630798339844 92.49517822265625 163.55831909179688 93.77135467529297 C164.51034545898438 95.04753112792969 165.35272216796875 96.40281677246094 166.07562255859375 97.82140350341797 C166.79852294921875 99.239990234375 167.40194702148438 100.72187805175781 167.87606811523438 102.25125122070312 C168.35018920898438 103.78062438964844 168.6949920654297 105.35748291015625 168.90065002441406 106.96601104736328 C169.1063232421875 108.57453918457031 169.17283630371094 110.2147445678711 169.09039306640625 111.87080383300781 C169.0079345703125 113.52685546875 168.77651977539062 115.19877624511719 168.3862762451172 116.8707275390625 C167.9960479736328 118.54255676269531 167.4634246826172 120.14405822753906 166.8042449951172 121.66541290283203 C166.1450653076172 123.18675994873047 165.35931396484375 124.62796020507812 164.4628143310547 125.97917175292969 C163.56631469726562 127.33038330078125 162.55906677246094 128.59161376953125 161.45689392089844 129.75302124023438 C160.35472106933594 130.9144287109375 159.15760803222656 131.97604370117188 157.88140869140625 132.92799377441406 C156.60519409179688 133.87994384765625 155.2498779296875 134.72225952148438 153.8312530517578 135.44509887695312 C152.4126434326172 136.16793823242188 150.9307403564453 136.77130126953125 149.4013671875 137.245361328125 C147.8719940185547 137.71942138671875 146.29513549804688 138.06417846679688 144.6866455078125 138.26980590820312 C143.07815551757812 138.47543334960938 141.43800354003906 138.5419158935547 139.78201293945312 138.45944213867188 C138.12603759765625 138.376953125 136.4542236328125 138.1455078125 134.78237915039062 137.75527954101562 C133.1104278564453 137.36505126953125 131.50881958007812 136.8324432373047 129.98736572265625 136.17327880859375 C128.46591186523438 135.5141143798828 127.0246353149414 134.7283935546875 125.67334747314453 133.83193969726562 C124.32205963134766 132.93548583984375 123.0607681274414 131.9282684326172 121.89929962158203 130.82614135742188 C120.73783111572266 129.72401428222656 119.67617797851562 128.52694702148438 118.72418212890625 127.25077056884766 C117.77218627929688 125.97459411621094 116.92984008789062 124.61930084228516 116.20697784423828 123.20071411132812 C115.48411560058594 121.78211975097656 114.88072967529297 120.30023193359375 114.40665435791016 118.77085876464844 C113.93257904052734 117.24148559570312 113.58781433105469 115.66461944580078 113.38218688964844 114.05609130859375 C113.17655944824219 112.44755554199219 113.11006164550781 110.80735778808594 113.19253540039062 109.15129852294922 C113.27500915527344 107.4952392578125 113.50645446777344 105.82331848144531 113.89668273925781 104.1513671875 C114.28691864013672 102.47953796386719 114.81953430175781 100.87803649902344 115.47872161865234 99.356689453125 C116.13790893554688 97.83534240722656 116.92366027832031 96.3941421508789 117.82015991210938 95.04293060302734 C118.71665954589844 93.69171905517578 119.72390747070312 92.43048858642578 120.82608795166016 91.26907348632812 C121.92826080322266 90.10765838623047 123.1253662109375 89.04605865478516 124.40158081054688 88.09410095214844 C125.67779541015625 87.14214324951172 127.03311157226562 86.29983520507812 128.45172119140625 85.57699584960938 C129.87033081054688 84.85415649414062 131.35223388671875 84.25079345703125 132.88160705566406 83.7767333984375 C134.41098022460938 83.30267333984375 135.98782348632812 82.95791625976562 137.59632873535156 82.75228881835938 C139.204833984375 82.54666137695312 140.844970703125 82.48017883300781 142.50096130371094 82.56265258789062 C144.1569366455078 82.64513397216797 145.82875061035156 82.87657165527344 147.50057983398438 83.26681518554688"></path>
<path fill="#A8C7E3" fill-opacity="1.0"  filling="0" d="M141.13302612304688 82.54031372070312 C140.1102752685547 82.54031372070312 139.10214233398438 82.59884643554688 138.108642578125 82.70585632324219 C139.66732788085938 82.87344360351562 141.1876983642578 83.16900634765625 142.65904235839844 83.58183288574219 C144.13037109375 83.99465942382812 145.55267333984375 84.5247573852539 146.91519165039062 85.1613998413086 C148.2777099609375 85.79804229736328 149.58047485351562 86.5412368774414 150.81272888183594 87.38026428222656 C152.04498291015625 88.21929168701172 153.2067413330078 89.15415954589844 154.28726196289062 90.17414855957031 C155.36778259277344 91.19413757324219 156.36708068847656 92.29924774169922 157.27442932128906 93.47876739501953 C158.1817626953125 94.65828704833984 158.9971466064453 95.91221618652344 159.7098388671875 97.22984313964844 C160.4225311279297 98.54747009277344 161.03253173828125 99.92878723144531 161.5291290283203 101.36309051513672 C162.0257110595703 102.79739379882812 162.40887451171875 104.28466796875 162.66790771484375 105.81422424316406 C162.9269256591797 107.34376525878906 163.06179809570312 108.91558837890625 163.06179809570312 110.51895141601562 C163.06179809570312 112.1221923828125 162.9269256591797 113.69389343261719 162.6678924560547 115.22334289550781 C162.40887451171875 116.75279235839844 162.02569580078125 118.239990234375 161.52911376953125 119.6742172241211 C161.03253173828125 121.10844421386719 160.4225311279297 122.48970794677734 159.7098388671875 123.80728912353516 C158.9971466064453 125.12487030029297 158.1817626953125 126.37877655029297 157.27442932128906 127.55828094482422 C156.36709594726562 128.73779296875 155.3677978515625 129.8428955078125 154.28726196289062 130.86289978027344 C153.2067413330078 131.88290405273438 152.04498291015625 132.8177947998047 150.81272888183594 133.6568603515625 C149.58047485351562 134.4959259033203 148.27772521972656 135.2391815185547 146.91519165039062 135.87588500976562 C145.55267333984375 136.51260375976562 144.13038635253906 137.04278564453125 142.65904235839844 137.45570373535156 C141.18771362304688 137.86862182617188 139.66732788085938 138.164306640625 138.108642578125 138.33200073242188 C139.10214233398438 138.43899536132812 140.11138916015625 138.49758911132812 141.13302612304688 138.49758911132812 C142.84991455078125 138.49758911132812 144.53067016601562 138.34295654296875 146.16212463378906 138.04684448242188 C147.7935791015625 137.750732421875 149.37574768066406 137.3131561279297 150.8954620361328 136.74728393554688 C152.4151611328125 136.18141174316406 153.87240600585938 135.4872283935547 155.25401306152344 134.67791748046875 C156.6356201171875 133.8686065673828 157.94158935546875 132.9441680908203 159.1587677001953 131.91775512695312 C160.37594604492188 130.89134216308594 161.5043182373047 129.76296997070312 162.53073120117188 128.54579162597656 C163.55714416503906 127.32861328125 164.48159790039062 126.02264404296875 165.29090881347656 124.64103698730469 C166.1002197265625 123.25942993164062 166.79440307617188 121.80220031738281 167.3602752685547 120.28250122070312 C167.9261474609375 118.76280212402344 168.3637237548828 117.1806411743164 168.65982055664062 115.54917907714844 C168.9559326171875 113.917724609375 169.11056518554688 112.23696899414062 169.11056518554688 110.52008056640625 C169.11056518554688 108.80307006835938 168.9559326171875 107.12218475341797 168.65982055664062 105.4906005859375 C168.36370849609375 103.85901641845703 167.92613220214844 102.27672576904297 167.36026000976562 100.75690460205078 C166.7943878173828 99.2370834350586 166.10020446777344 97.77973175048828 165.2908935546875 96.39801788330078 C164.48158264160156 95.01630401611328 163.55714416503906 93.71022033691406 162.53073120117188 92.4929428100586 C161.5043182373047 91.27566528320312 160.37594604492188 90.14720153808594 159.1587677001953 89.1207046508789 C157.94158935546875 88.09420776367188 156.63560485839844 87.16968536376953 155.25399780273438 86.36030578613281 C153.8723907470703 85.5509262084961 152.41514587402344 84.856689453125 150.89544677734375 84.29076385498047 C149.37574768066406 83.72483825683594 147.7935791015625 83.28722381591797 146.16212463378906 82.99109649658203 C144.53067016601562 82.69496154785156 142.84991455078125 82.54031372070312 141.13302612304688 82.54031372070312"></path>
<path fill="#231F20" fill-opacity="1.0"  filling="0" d="M133.14236450195312 102.54290771484375 C133.14236450195312 103.23870849609375 132.86566162109375 103.9067153930664 132.3736572265625 104.39871978759766 C131.88165283203125 104.8907241821289 131.21365356445312 105.16741943359375 130.51785278320312 105.16741943359375 C129.82205200195312 105.16741943359375 129.154052734375 104.8907241821289 128.66204833984375 104.39871978759766 C128.1700439453125 103.9067153930664 127.89334106445312 103.23870849609375 127.89334106445312 102.54290771484375 C127.89334106445312 101.84710693359375 128.1700439453125 101.1791000366211 128.66204833984375 100.68709564208984 C129.154052734375 100.1950912475586 129.82205200195312 99.91839599609375 130.51785278320312 99.91839599609375 C131.21365356445312 99.91839599609375 131.88165283203125 100.1950912475586 132.3736572265625 100.68709564208984 C132.86566162109375 101.1791000366211 133.14236450195312 101.84710693359375 133.14236450195312 102.54290771484375"></path>
<path fill="#f4ecec" fill-opacity="1.0"  filling="0" d="M130.0909423828125 101.27122497558594 C130.0909423828125 101.52012634277344 129.88931274414062 101.722900390625 129.63925170898438 101.722900390625 C129.39031982421875 101.722900390625 129.18756103515625 101.52125549316406 129.18756103515625 101.27122497558594 C129.18756103515625 101.02227783203125 129.38919067382812 100.81953430175781 129.63925170898438 100.81953430175781 C129.88931274414062 100.81953430175781 130.0909423828125 101.02227783203125 130.0909423828125 101.27122497558594"></path>
<path fill="#231F20" fill-opacity="1.0"  filling="0" d="M149.72296142578125 102.54290771484375 C149.72296142578125 103.99256896972656 148.54811096191406 105.16853332519531 147.09844970703125 105.16853332519531 C145.64878845214844 105.16853332519531 144.47280883789062 103.99371337890625 144.47280883789062 102.54290771484375 C144.47280883789062 101.09323120117188 145.6476593017578 99.91725158691406 147.09844970703125 99.91725158691406 C148.54701232910156 99.91838073730469 149.72296142578125 101.09323120117188 149.72296142578125 102.54290771484375"></path>
<path fill="#f4ecec" fill-opacity="1.0"  filling="0" d="M146.67042541503906 101.27122497558594 C146.67042541503906 101.52012634277344 146.46878051757812 101.722900390625 146.21873474121094 101.722900390625 C145.9686737060547 101.722900390625 145.7670440673828 101.52125549316406 145.7670440673828 101.27122497558594 C145.7670440673828 101.02227783203125 145.9686737060547 100.81953430175781 146.21873474121094 100.81953430175781 C146.46878051757812 100.81953430175781 146.67042541503906 101.02227783203125 146.67042541503906 101.27122497558594"></path>
<path fill="#FB9526" fill-opacity="1.0"  filling="0" d="M119.15583801269531 108.48016357421875 L123.4206771850586 110.07542419433594 L127.68550872802734 111.67069244384766 L131.95034790039062 113.26596069335938 L136.21517944335938 114.86122131347656 C137.53363037109375 115.35457611083984 138.90867614746094 115.16421508789062 139.9952392578125 114.50104522705078 C141.081787109375 113.83787536621094 141.8798370361328 112.701904296875 142.04429626464844 111.30404663085938 L142.07470703125 111.042724609375 C142.23916625976562 109.64429473876953 141.7263641357422 108.35428619384766 140.82313537597656 107.45738983154297 C139.91989135742188 106.56048583984375 138.626220703125 106.05670166015625 137.2289276123047 106.230712890625 L132.7106475830078 106.79307556152344 L128.1923828125 107.35543823242188 L123.67411804199219 107.91780090332031 L119.15583801269531 108.48016357421875"></path>
<path fill="#EF7F11" fill-opacity="1.0"  filling="0" d="M119.16033935546875 108.48240661621094 L123.4251708984375 110.07766723632812 L127.69001007080078 111.67293548583984 L131.95484924316406 113.26820373535156 L136.2196807861328 114.86346435546875 C137.23513793945312 115.24305725097656 138.2835235595703 115.2174301147461 139.2078857421875 114.88275146484375 C140.13223266601562 114.54806518554688 140.9325408935547 113.90432739257812 141.45181274414062 113.04769897460938 C140.1807861328125 113.10491943359375 138.52650451660156 112.9566421508789 136.693115234375 112.68277740478516 C134.8597412109375 112.4089126586914 132.8472442626953 112.00945281982422 130.8597869873047 111.56431579589844 C128.87232971191406 111.11917877197266 126.90990447998047 110.62837219238281 125.17665100097656 110.17179107666016 C123.44340515136719 109.7152099609375 121.93932342529297 109.29286193847656 120.86856079101562 108.98466491699219 C119.79779052734375 108.67646026611328 119.16033935546875 108.48240661621094 119.16033935546875 108.48240661621094"></path>
<path fill="#231F20" fill-opacity="1.0"  filling="0" d="M142.04090881347656 166.26898193359375 C142.04090881347656 167.2039031982422 141.6621551513672 168.05010986328125 141.0496826171875 168.66258239746094 C140.43719482421875 169.27505493164062 139.59100341796875 169.65380859375 138.65609741210938 169.65380859375 C137.72117614746094 169.65380859375 136.87496948242188 169.27505493164062 136.26248168945312 168.66258239746094 C135.64999389648438 168.05010986328125 135.271240234375 167.2039031982422 135.271240234375 166.26898193359375 C135.271240234375 165.33404541015625 135.64999389648438 164.48782348632812 136.26248168945312 163.87535095214844 C136.87496948242188 163.26287841796875 137.72117614746094 162.88412475585938 138.65609741210938 162.88412475585938 C139.59100341796875 162.88412475585938 140.43719482421875 163.26315307617188 141.0496826171875 163.87579345703125 C141.6621551513672 164.4884033203125 142.04090881347656 165.33462524414062 142.04090881347656 166.26898193359375"></path>
<path fill="#333333" fill-opacity="1.0"  filling="0" d="M141.2772216796875 166.26898193359375 C141.2772216796875 167.7164306640625 140.10350036621094 168.89010620117188 138.65609741210938 168.89010620117188 C137.2086639404297 168.89010620117188 136.03494262695312 167.7164306640625 136.03494262695312 166.26898193359375 C136.03494262695312 164.82156372070312 137.2086639404297 163.64785766601562 138.65609741210938 163.64785766601562 C140.10350036621094 163.64785766601562 141.2772216796875 164.82156372070312 141.2772216796875 166.26898193359375"></path>
<path fill="#231F20" fill-opacity="1.0"  filling="0" d="M142.109619140625 177.52963256835938 C142.109619140625 178.46453857421875 141.7305908203125 179.31072998046875 141.1179656982422 179.9232177734375 C140.50534057617188 180.53567504882812 139.65914916992188 180.9144287109375 138.72479248046875 180.9144287109375 C137.79043579101562 180.9144287109375 136.94424438476562 180.535400390625 136.3316192626953 179.92279052734375 C135.718994140625 179.3101806640625 135.3399658203125 178.46397399902344 135.3399658203125 177.52963256835938 C135.3399658203125 176.59527587890625 135.71871948242188 175.74905395507812 136.33120727539062 175.13644409179688 C136.9436798095703 174.5238037109375 137.78988647460938 174.144775390625 138.72479248046875 174.144775390625 C139.65969848632812 174.144775390625 140.50592041015625 174.52352905273438 141.11839294433594 175.13601684570312 C141.73086547851562 175.74850463867188 142.109619140625 176.59471130371094 142.109619140625 177.52963256835938"></path>
<path fill="#333333" fill-opacity="1.0"  filling="0" d="M141.34591674804688 177.5296630859375 C141.3465118408203 178.22494506835938 141.0704345703125 178.8926544189453 140.57899475097656 179.38450622558594 C140.08755493164062 179.87635803222656 139.42007446289062 180.15301513671875 138.72479248046875 180.15301513671875 C138.02951049804688 180.15301513671875 137.36203002929688 179.87635803222656 136.87059020996094 179.38450622558594 C136.379150390625 178.8926544189453 136.1030731201172 178.22494506835938 136.10366821289062 177.5296630859375 C136.1030731201172 176.83432006835938 136.379150390625 176.16661071777344 136.87059020996094 175.6747589111328 C137.36203002929688 175.1829071044922 138.02951049804688 174.90625 138.72479248046875 174.90625 C139.42007446289062 174.90625 140.08755493164062 175.1829071044922 140.57899475097656 175.6747589111328 C141.0704345703125 176.16661071777344 141.3465118408203 176.83432006835938 141.34591674804688 177.52960205078125"></path>
<path fill="#231F20" fill-opacity="1.0"  filling="0" d="M142.17945861816406 188.51312255859375 C142.17945861816406 189.44805908203125 141.80043029785156 190.29428100585938 141.18780517578125 190.90675354003906 C140.57518005371094 191.51922607421875 139.72897338867188 191.89797973632812 138.79461669921875 191.89797973632812 C137.85971069335938 191.89797973632812 137.0135040283203 191.51922607421875 136.40103149414062 190.90675354003906 C135.78855895996094 190.29428100585938 135.40980529785156 189.44805908203125 135.40980529785156 188.51312255859375 C135.40980529785156 187.57821655273438 135.78883361816406 186.73202514648438 136.40145874023438 186.11953735351562 C137.01406860351562 185.507080078125 137.8602752685547 185.12832641601562 138.79461669921875 185.12832641601562 C139.72897338867188 185.12832641601562 140.57518005371094 185.507080078125 141.18780517578125 186.11953735351562 C141.80043029785156 186.73202514648438 142.17945861816406 187.57821655273438 142.17945861816406 188.51312255859375"></path>
<path fill="#333333" fill-opacity="1.0"  filling="0" d="M141.415771484375 188.51312255859375 C141.415771484375 189.20802307128906 141.13941955566406 189.87518310546875 140.64805603027344 190.36654663085938 C140.1566925048828 190.85791015625 139.48953247070312 191.13426208496094 138.7946319580078 191.13426208496094 C138.0997314453125 191.13426208496094 137.4325714111328 190.85791015625 136.9412078857422 190.36654663085938 C136.44984436035156 189.87518310546875 136.17349243164062 189.20802307128906 136.17349243164062 188.51312255859375 C136.17349243164062 187.81822204589844 136.44984436035156 187.15106201171875 136.9412078857422 186.65969848632812 C137.4325714111328 186.1683349609375 138.0997314453125 185.89198303222656 138.7946319580078 185.89198303222656 C139.48953247070312 185.89198303222656 140.1566925048828 186.1683349609375 140.64805603027344 186.65969848632812 C141.13941955566406 187.15106201171875 141.415771484375 187.81822204589844 141.415771484375 188.51312255859375"></path>
<path fill="#EE3426" fill-opacity="1.0"  filling="0" d="M167.42095947265625 139.84814453125 C167.05601501464844 140.7104034423828 166.3058319091797 141.2181396484375 165.41371154785156 141.5155029296875 C164.5216064453125 141.8128662109375 163.487548828125 141.89988708496094 162.5548858642578 141.92071533203125 C161.9331512451172 141.9376220703125 161.31924438476562 141.94549560546875 160.6986083984375 141.953369140625 C159.4468994140625 141.97618103027344 158.1951904296875 141.99435424804688 156.94345092773438 142.00758361816406 C155.6917266845703 142.0208282470703 154.43997192382812 142.0291290283203 153.1881866455078 142.03224182128906 C151.9364013671875 142.03533935546875 150.68458557128906 142.03323364257812 149.43270874023438 142.025634765625 C148.18084716796875 142.01803588867188 146.92892456054688 142.00494384765625 145.6769256591797 141.98606872558594 C144.41705322265625 141.9697265625 143.15914916992188 141.94915771484375 141.9012451171875 141.92227172851562 C140.64334106445312 141.8953857421875 139.38543701171875 141.86215209960938 138.12554931640625 141.82046508789062 C136.46485900878906 141.77354431152344 134.80416870117188 141.7164764404297 133.1434783935547 141.64988708496094 C131.4827880859375 141.58331298828125 129.82211303710938 141.50721740722656 128.1614227294922 141.4222412109375 C126.500732421875 141.33726501464844 124.84004211425781 141.24339294433594 123.1793441772461 141.14126586914062 C122.4415512084961 141.09957885742188 121.71165466308594 141.05792236328125 120.97384643554688 141.00833129882812 C119.9583969116211 140.93792724609375 118.83706665039062 140.79489135742188 117.87850189208984 140.43106079101562 C116.91993713378906 140.06723022460938 116.12413024902344 139.48263549804688 115.7597427368164 138.52914428710938 C115.44435119628906 137.71701049804688 115.53559875488281 136.81362915039062 115.6606216430664 135.95980834960938 C115.80592346191406 134.8863525390625 115.9405288696289 133.72586059570312 116.13835144042969 132.5808868408203 C116.336181640625 131.43589782714844 116.59722137451172 130.30641174316406 116.99540710449219 129.294921875 C117.83233642578125 127.16488647460938 118.15559387207031 127.34736633300781 120.4354248046875 127.52081298828125 C122.01014709472656 127.6368408203125 123.59385681152344 127.74496459960938 125.1685791015625 127.84413146972656 C126.67738342285156 127.93535614013672 128.18618774414062 128.01194763183594 129.6969757080078 128.06881713867188 C131.207763671875 128.12570190429688 132.72052001953125 128.16287231445312 134.23721313476562 128.17526245117188 C134.48614501953125 128.17526245117188 134.73394775390625 128.17526245117188 134.98289489746094 128.18316650390625 C136.40591430664062 128.185791015625 137.8289337158203 128.17465209960938 139.2516632080078 128.15158081054688 C140.67437744140625 128.12850952148438 142.09681701660156 128.09349060058594 143.51866149902344 128.04840087890625 C144.94052124023438 128.0032958984375 146.36178588867188 127.9480972290039 147.78216552734375 127.8846435546875 C149.37376403808594 127.81819915771484 150.96762084960938 127.73934936523438 152.5614776611328 127.65232849121094 C154.15533447265625 127.5653076171875 155.7491912841797 127.47012329101562 157.34078979492188 127.37100219726562 C158.86593627929688 127.28765869140625 160.3832244873047 127.18855285644531 161.9083709716797 127.0972900390625 C162.62925720214844 127.05563354492188 163.41661071777344 127.03085327148438 164.0135955810547 127.43746948242188 C164.51145935058594 127.77761840820312 164.78404235839844 128.35775756835938 165.02513122558594 128.91302490234375 C165.5888671875 130.24783325195312 166.0780029296875 131.61358642578125 166.4894256591797 133.00315856933594 C166.90084838867188 134.39271545410156 167.23455810546875 135.80606079101562 167.48744201660156 137.23602294921875 C167.64511108398438 138.10675048828125 167.76112365722656 139.034912109375 167.42095947265625 139.84814453125"></path>
<path fill="#418A03" fill-opacity="1.0"  filling="0" d="M134.98289489746094 128.18426513671875 L136.0300750732422 132.72967529296875 L137.07723999023438 137.2750701904297 L138.12442016601562 141.82046508789062 C136.46372985839844 141.77354431152344 134.80303955078125 141.7164764404297 133.14234924316406 141.64988708496094 C131.48165893554688 141.58331298828125 129.8209686279297 141.50721740722656 128.1602783203125 141.4222412109375 C126.49958801269531 141.33726501464844 124.83889770507812 141.24339294433594 123.17820739746094 141.14126586914062 L123.8412857055664 136.70889282226562 L124.50436401367188 132.27651977539062 L125.16744232177734 127.84413146972656 L130.07516479492188 128.01419067382812 L134.98289489746094 128.18426513671875"></path>
<path fill="#418A03" fill-opacity="1.0"  filling="0" d="M160.6986083984375 141.953369140625 C159.4468994140625 141.97618103027344 158.1951904296875 141.99435424804688 156.94345092773438 142.00758361816406 C155.6917266845703 142.0208282470703 154.43997192382812 142.0291290283203 153.1881866455078 142.03224182128906 C151.9364013671875 142.03533935546875 150.68458557128906 142.03323364257812 149.43270874023438 142.025634765625 C148.18084716796875 142.01803588867188 146.92892456054688 142.00494384765625 145.6769256591797 141.98606872558594 L146.37867736816406 137.28598022460938 L147.08041381835938 132.58587646484375 L147.78216552734375 127.88578796386719 L152.5614776611328 127.62897491455078 L157.34078979492188 127.37216186523438 L158.46006774902344 132.23257446289062 L159.579345703125 137.0929718017578 L160.6986083984375 141.953369140625"></path>
<path fill="#231F20" fill-opacity="1.0"  filling="0" d="M133.0770263671875 128.11782836914062 C133.0770263671875 128.11782836914062 132.7620086669922 129.2537384033203 132.42642211914062 130.88919067382812 C132.09085083007812 132.52462768554688 131.7346954345703 134.6596221923828 131.65243530273438 136.6577606201172 C131.57015991210938 138.65591430664062 131.76177978515625 140.5172119140625 132.521728515625 141.60531616210938 L129.6978302001953 141.4498748779297 L126.87393951416016 141.29443359375 C126.87393951416016 141.29443359375 127.11573791503906 139.93011474609375 127.488037109375 138.07455444335938 C127.8603286743164 136.218994140625 128.36312866210938 133.87220764160156 128.88510131835938 131.9072723388672 C129.40708923339844 129.94232177734375 129.94827270507812 128.35923767089844 130.39732360839844 128.0310821533203 L133.0770263671875 128.11782836914062"></path>
<path fill="#EE3426" fill-opacity="1.0"  filling="0" d="M133.04209899902344 161.6845703125 C132.49578857421875 162.521484375 131.64874267578125 163.02020263671875 130.68878173828125 163.32093811035156 C129.7288055419922 163.62167358398438 128.65591430664062 163.72445678710938 127.65791320800781 163.76950073242188 C126.5653076171875 163.8196258544922 125.46987915039062 163.84976196289062 124.37445831298828 163.86102294921875 C123.2790298461914 163.87228393554688 122.18360900878906 163.86468505859375 121.09100341796875 163.83935546875 C119.78775787353516 163.8089599609375 118.42369079589844 163.72894287109375 117.310791015625 163.0474853515625 C116.21819305419922 162.37559509277344 115.5967025756836 161.28269958496094 115.26708984375 160.03829956054688 C114.9374771118164 158.79391479492188 114.89974212646484 157.39801025390625 114.97465515136719 156.1201171875 C114.97465515136719 156.05029296875 114.98479461669922 155.98947143554688 114.98479461669922 155.9196319580078 C115.06175994873047 154.63290405273438 115.1910400390625 153.351806640625 115.36074829101562 152.0755615234375 C115.53045654296875 150.79930114746094 115.74059295654297 149.52789306640625 115.97926330566406 148.26051330566406 C116.21794128417969 146.99314880371094 116.48515319824219 145.72982788085938 116.76901245117188 144.46975708007812 C116.8895263671875 143.9381103515625 117.01004791259766 143.39744567871094 117.13959503173828 142.86578369140625 C117.35530090332031 141.9381866455078 117.58085632324219 141.01087951660156 117.83147430419922 140.09230041503906 C118.08209991455078 139.17372131347656 118.3577880859375 138.2638702392578 118.67375183105469 137.37118530273438 C119.02517700195312 136.3585662841797 119.43518829345703 135.3763427734375 119.91729736328125 134.4132537841797 C120.54412841796875 133.16015625 121.29093170166016 131.9796905517578 122.14305114746094 130.88059997558594 C122.99517822265625 129.78152465820312 123.95262145996094 128.76380920410156 125.00074005126953 127.83621215820312 C126.13389587402344 126.82864379882812 127.12653350830078 126.27980041503906 128.2156219482422 126.06169891357422 C129.30471801757812 125.84359741210938 130.49024963378906 125.95623779296875 132.0092010498047 126.27163696289062 C132.59042358398438 126.39218139648438 133.26287841796875 126.63209533691406 133.41268920898438 127.20428466796875 C133.59291076660156 127.92634582519531 132.85174560546875 128.507568359375 132.30995178222656 129.01895141601562 C131.46795654296875 129.83108520507812 131.03683471679688 130.89637756347656 130.82379150390625 132.0506591796875 C130.6107635498047 133.20492553710938 130.61582946777344 134.4481964111328 130.646240234375 135.61627197265625 C130.67666625976562 136.5083770751953 130.69581604003906 137.40048217773438 130.73635864257812 138.29257202148438 C130.77127075195312 139.37054443359375 130.81155395507812 140.4507598876953 130.86561584472656 141.52972412109375 C130.919677734375 142.60867309570312 130.987548828125 143.68637084960938 131.07765197753906 144.75927734375 C131.19818115234375 146.32833862304688 131.36123657226562 147.892333984375 131.5867919921875 149.44508361816406 C131.81236267089844 150.99783325195312 132.10043334960938 152.539306640625 132.47100830078125 154.06332397460938 C132.6016845703125 154.64456176757812 132.7616424560547 155.22691345214844 132.9215850830078 155.7979736328125 C133.19754028320312 156.77117919921875 133.50335693359375 157.8167724609375 133.6023406982422 158.8320770263672 C133.70132446289062 159.84739685058594 133.59347534179688 160.8324432373047 133.04209899902344 161.6845703125"></path>
<path fill="#418A03" fill-opacity="1.0"  filling="0" d="M132.30995178222656 129.02005004882812 C131.46795654296875 129.8321990966797 131.03683471679688 130.89749145507812 130.82379150390625 132.05177307128906 C130.6107635498047 133.2060546875 130.61582946777344 134.44931030273438 130.646240234375 135.61737060546875 C130.67666625976562 136.50950622558594 130.69581604003906 137.40159606933594 130.73635864257812 138.293701171875 C129.47628784179688 138.32713317871094 128.11497497558594 138.29258728027344 126.72695922851562 138.21273803710938 C125.33894348144531 138.13290405273438 123.92422485351562 138.0077362060547 122.55736541748047 137.85992431640625 C121.19049835205078 137.7121124267578 119.8714828491211 137.54165649414062 118.67486572265625 137.37118530273438 C119.02631378173828 136.3585662841797 119.43631744384766 135.3763427734375 119.91841125488281 134.4132537841797 C120.54525756835938 133.16015625 121.29206848144531 131.9796905517578 122.1441879272461 130.88059997558594 C122.99630737304688 129.78152465820312 123.95375061035156 128.76380920410156 125.00186157226562 127.83621215820312 C126.13502502441406 126.82864379882812 127.12767028808594 126.27980041503906 128.2167510986328 126.06169891357422 C129.30584716796875 125.84359741210938 130.49136352539062 125.95623779296875 132.01031494140625 126.27163696289062 C132.591552734375 126.39218139648438 133.26400756835938 126.63209533691406 133.413818359375 127.20428466796875 C133.59405517578125 127.92744445800781 132.85174560546875 128.50869750976562 132.30995178222656 129.02005004882812"></path>
<path fill="#418A03" fill-opacity="1.0"  filling="0" d="M132.47100830078125 154.064453125 C131.2705535888672 154.16470336914062 129.91148376464844 154.28182983398438 128.46463012695312 154.41339111328125 C127.01779174804688 154.54495239257812 125.4831771850586 154.69093322753906 123.931640625 154.8488311767578 C122.38009643554688 155.00674438476562 120.8116226196289 155.1765899658203 119.29705047607422 155.3558807373047 C117.78248596191406 155.53517150878906 116.32182312011719 155.72390747070312 114.98591613769531 155.9196319580078 C115.0628890991211 154.63290405273438 115.19216918945312 153.351806640625 115.36188507080078 152.0755615234375 C115.53160095214844 150.79930114746094 115.74172973632812 149.52789306640625 115.98040771484375 148.26051330566406 C116.21907043457031 146.99314880371094 116.48628234863281 145.72982788085938 116.77012634277344 144.46975708007812 C118.32756042480469 144.46299743652344 119.9539566040039 144.46524047851562 121.59107208251953 144.4805145263672 C123.22819519042969 144.49578857421875 124.87602996826172 144.52407836914062 126.47635650634766 144.5693817138672 C128.07667541503906 144.61468505859375 129.62948608398438 144.67703247070312 131.0765380859375 144.7603759765625 C131.1970672607422 146.32945251464844 131.360107421875 147.89346313476562 131.5858154296875 149.4462127685547 C131.8115234375 150.99896240234375 132.09986877441406 152.54043579101562 132.47100830078125 154.064453125"></path>
<path fill="#EE3426" fill-opacity="1.0"  filling="0" d="M163.318603515625 77.58975219726562 L163.318603515625 81.11952209472656 L163.318603515625 84.64928436279297 L163.318603515625 88.17904663085938 L158.6125030517578 88.17904663085938 L153.90640258789062 88.17904663085938 L149.2003173828125 88.17904663085938 L144.4942169189453 88.17904663085938 L139.78811645507812 88.17904663085938 L135.08203125 88.17904663085938 L130.37591552734375 88.17904663085938 L125.66983032226562 88.17904663085938 L120.96372985839844 88.17904663085938 L120.96372985839844 84.64928436279297 L120.96372985839844 81.11952209472656 L120.96372985839844 77.58975219726562 C120.96372985839844 76.47856140136719 121.0805892944336 75.39411926269531 121.30516052246094 74.3482666015625 C121.52973175048828 73.30240631103516 121.86201477050781 72.29512786865234 122.29286193847656 71.3382568359375 C122.89098358154297 69.98263549804688 123.67911529541016 68.7293701171875 124.62353515625 67.61201477050781 C125.56795501708984 66.49465942382812 126.66865539550781 65.51321411132812 127.89192962646484 64.70121765136719 C129.11520385742188 63.88922119140625 130.46104431152344 63.24667739868164 131.89572143554688 62.807132720947266 C133.33041381835938 62.36758804321289 134.85394287109375 62.13104248046875 136.43258666992188 62.13104248046875 L140.2386932373047 62.13104248046875 L144.0447998046875 62.13104248046875 L147.85089111328125 62.13104248046875 C149.58639526367188 62.13104248046875 151.25416564941406 62.41609191894531 152.8103485107422 62.94184112548828 C154.36651611328125 63.46759033203125 155.81109619140625 64.23403930664062 157.10018920898438 65.19683074951172 C158.3892822265625 66.15962219238281 159.52288818359375 67.31875610351562 160.4571533203125 68.62989044189453 C161.3914031982422 69.94102478027344 162.12631225585938 71.40414428710938 162.6179656982422 72.97491455078125 C163.0741729736328 74.4437255859375 163.318603515625 75.99589538574219 163.318603515625 77.58975219726562"></path>
<path fill="#BA2526" fill-opacity="1.0"  filling="0" d="M148.61119079589844 57.301055908203125 C149.16030883789062 58.932647705078125 148.99642944335938 60.632102966308594 148.287353515625 62.06107711791992 C147.5782928466797 63.49005126953125 146.3240509033203 64.64854431152344 144.69247436523438 65.19821166992188 C143.06088256835938 65.74734497070312 141.36141967773438 65.58345794677734 139.93243408203125 64.8743896484375 C138.50344848632812 64.16532897949219 137.34494018554688 62.91108703613281 136.79525756835938 61.279510498046875 C136.2461395263672 59.647911071777344 136.4100341796875 57.94816970825195 137.11911010742188 56.519046783447266 C137.82818603515625 55.08992385864258 139.08242797851562 53.931419372558594 140.71401977539062 53.382293701171875 C142.34561157226562 52.833168029785156 144.04507446289062 52.9970588684082 145.4740447998047 53.70613098144531 C146.90301513671875 54.41520309448242 148.0615234375 55.669456481933594 148.61119079589844 57.301055908203125"></path>
<path fill="#E6E7E8" fill-opacity="1.0"  filling="0" d="M162.42764282226562 93.17913818359375 C160.83340454101562 92.99653625488281 159.2406463623047 92.8338623046875 157.6493682861328 92.69123840332031 C156.05809020996094 92.54861450195312 154.4683074951172 92.42603302001953 152.8800048828125 92.32362365722656 C151.2917022705078 92.2212142944336 149.70489501953125 92.13896942138672 148.11959838867188 92.07701873779297 C146.5343017578125 92.01506805419922 144.9504852294922 91.97340393066406 143.36819458007812 91.9521484375 C141.78590393066406 91.93089294433594 140.2051239013672 91.9300537109375 138.62586975097656 91.94973754882812 C137.04661560058594 91.96942138671875 135.4688720703125 92.0096435546875 133.89266967773438 92.07051086425781 C132.31646728515625 92.13137817382812 130.74179077148438 92.21289825439453 129.16864013671875 92.315185546875 C127.59550476074219 92.41747283935547 126.02389526367188 92.54053497314453 124.45384216308594 92.68448638916016 C122.8837890625 92.82843780517578 121.31527709960938 92.9932861328125 119.74832916259766 93.17913818359375 C118.43551635742188 93.17913818359375 117.24237060546875 92.64212799072266 116.37743377685547 91.77705383300781 C115.51249694824219 90.91197204589844 114.97576904296875 89.71883392333984 114.97576904296875 88.40657043457031 L114.97576904296875 88.28155517578125 C114.97576904296875 86.96874237060547 115.51277923583984 85.77560424804688 116.37785339355469 84.9106674194336 C117.24292755126953 84.04573059082031 118.43606567382812 83.50900268554688 119.74832916259766 83.50900268554688 C121.30864715576172 83.36695098876953 122.87118530273438 83.24040222167969 124.43596649169922 83.12944793701172 C126.00074768066406 83.01850128173828 127.56776428222656 82.92314910888672 129.13702392578125 82.84349060058594 C130.706298828125 82.76383209228516 132.27781677246094 82.69985961914062 133.8516082763672 82.65167236328125 C135.42539978027344 82.60348510742188 137.00144958496094 82.57108306884766 138.5797882080078 82.5545654296875 C140.1581268310547 82.53804016113281 141.73873901367188 82.53739166259766 143.3216552734375 82.5527114868164 C144.90457153320312 82.56803131103516 146.48977661132812 82.59931945800781 148.07728576660156 82.64667510986328 C149.664794921875 82.69402313232422 151.25462341308594 82.75743865966797 152.84677124023438 82.83700561523438 C154.4389190673828 82.91657257080078 156.03338623046875 83.01229095458984 157.6302032470703 83.12425994873047 C159.2270050048828 83.2362289428711 160.82614135742188 83.36444091796875 162.42764282226562 83.50900268554688 C163.74044799804688 83.50900268554688 164.93359375 84.04601287841797 165.7985382080078 84.91108703613281 C166.66348266601562 85.77616119384766 167.20021057128906 86.96929931640625 167.20021057128906 88.28155517578125 L167.20021057128906 88.40657043457031 C167.20021057128906 89.71883392333984 166.66319274902344 90.91197204589844 165.79811096191406 91.77705383300781 C164.9330291748047 92.64212799072266 163.73989868164062 93.17913818359375 162.42764282226562 93.17913818359375"></path>
<path fill="#A97C50" fill-opacity="1.0"  filling="0" d="M69.75869750976562 202.28564453125 C68.58386993408203 202.28564453125 67.6320571899414 201.33380126953125 67.6320571899414 200.15899658203125 L67.63206481933594 195.23497009277344 L67.6320571899414 190.31094360351562 L67.6320571899414 185.3869171142578 L67.6320571899414 180.462890625 L67.6320571899414 175.5388641357422 L67.6320571899414 170.61483764648438 L67.6320571899414 165.6907958984375 L67.6320571899414 160.76678466796875 L67.63206481933594 155.84275817871094 L67.63206481933594 150.91873168945312 L67.6320571899414 145.99468994140625 L67.6320571899414 141.0706787109375 L67.6320571899414 136.14663696289062 L67.6320571899414 131.22262573242188 L67.6320571899414 126.298583984375 L67.6320571899414 121.37455749511719 L67.6320571899414 116.45053100585938 L67.63206481933594 111.52650451660156 L67.6320571899414 106.60247802734375 L71.88421630859375 106.60247802734375 L71.88421630859375 111.52650451660156 L71.88421630859375 116.45053100585938 L71.88421630859375 121.37455749511719 L71.88421630859375 126.298583984375 L71.88421630859375 131.22262573242188 L71.88421630859375 136.14663696289062 L71.88421630859375 141.0706787109375 L71.88421630859375 145.99468994140625 L71.88421630859375 150.91873168945312 L71.88421630859375 155.84275817871094 L71.88421630859375 160.76678466796875 L71.88421630859375 165.6907958984375 L71.88421630859375 170.61483764648438 L71.88421630859375 175.5388641357422 L71.88421630859375 180.462890625 L71.88421630859375 185.3869171142578 L71.88421630859375 190.31094360351562 L71.88421630859375 195.23497009277344 L71.88421630859375 200.15899658203125 C71.88534545898438 201.33380126953125 70.93353271484375 202.28564453125 69.75869750976562 202.28564453125"></path>
<path fill="#FBB040" fill-opacity="1.0"  filling="0" d="M71.88534545898438 107.13525390625 L67.6320571899414 107.13525390625 L66.10381317138672 102.94912719726562 L64.57556915283203 98.76300048828125 L63.047325134277344 94.57686614990234 L61.519081115722656 90.39073944091797 L59.99083709716797 86.2046127319336 L58.46259307861328 82.01847839355469 L56.934349060058594 77.83235168457031 L55.406105041503906 73.64622497558594 L59.69672393798828 73.64622497558594 L63.98734664916992 73.64622497558594 L68.27796936035156 73.64622497558594 L72.56858825683594 73.64622497558594 L76.85920715332031 73.64622497558594 L81.14982604980469 73.64622497558594 L85.44044494628906 73.64622497558594 L83.74606323242188 77.83235168457031 L82.05167388916016 82.01847839355469 L80.35728454589844 86.2046127319336 L78.66289520263672 90.39073944091797 L76.968505859375 94.57686614990234 L75.27412414550781 98.76300048828125 L73.5797348022461 102.94912719726562 L71.88534545898438 107.13525390625"></path>
<path fill="#936842" fill-opacity="1.0"  filling="0" d="M72.37194061279297 109.61557006835938 L67.58812713623047 109.61557006835938 C66.49212646484375 109.61557006835938 65.59439849853516 108.71896362304688 65.59439849853516 107.62185668945312 C65.59439849853516 106.52584838867188 66.49101257324219 105.62809753417969 67.58812713623047 105.62809753417969 L72.37194061279297 105.62809753417969 C73.46793365478516 105.62809753417969 74.36567687988281 106.52474975585938 74.36567687988281 107.62185668945312 C74.36567687988281 108.71896362304688 73.46905517578125 109.61557006835938 72.37194061279297 109.61557006835938"></path>
<path fill="#EA9C36" fill-opacity="1.0"  filling="0" d="M59.83623504638672 73.64622497558594 L60.99896240234375 77.4666976928711 L62.16168975830078 81.28717041015625 L63.32441711425781 85.10765075683594 L64.48714447021484 88.92811584472656 L64.58457946777344 85.10145568847656 L64.68201446533203 81.27479553222656 L64.77944946289062 77.44813537597656 L64.87688446044922 73.62147521972656 L62.35655975341797 73.63385009765625 L59.83623504638672 73.64622497558594"></path>
<path fill="#EA9C36" fill-opacity="1.0"  filling="0" d="M79.9379653930664 73.64622497558594 L78.77496337890625 77.4666976928711 L77.61195373535156 81.28717041015625 L76.4489517211914 85.10765075683594 L75.28594970703125 88.92811584472656 L75.18879699707031 85.10145568847656 L75.09164428710938 81.27479553222656 L74.9944839477539 77.44813537597656 L74.89733123779297 73.62147521972656 L77.41764831542969 73.63385009765625 L79.9379653930664 73.64622497558594"></path>
<path fill="#EA9C36" fill-opacity="1.0"  filling="0" d="M68.25270080566406 73.6011962890625 L68.66242980957031 78.42979431152344 L69.07215881347656 83.25839233398438 L69.48188781738281 88.08699035644531 L69.89161682128906 92.91558837890625 L70.47846984863281 88.08699035644531 L71.06532287597656 83.25839233398438 L71.65217590332031 78.42979431152344 L72.23902893066406 73.6011962890625 L68.25270080566406 73.6011962890625"></path>
<path fill="#231F20" fill-opacity="1.0"  filling="0" d="M144.2103729248047 117.98922729492188 L144.2103729248047 119.85003662109375 C144.2103729248047 119.98855590820312 144.2002410888672 120.13728332519531 144.18894958496094 120.27581787109375 C144.0932159423828 121.58355712890625 143.5086212158203 122.78543090820312 142.61538696289062 123.66741943359375 C141.6376495361328 124.64511108398438 140.287109375 125.25114440917969 138.79913330078125 125.25114440917969 C137.48126220703125 125.25114440917969 136.25796508789062 124.77239990234375 135.32305908203125 123.98617553710938 C134.14260864257812 122.987060546875 133.38790893554688 121.49906921386719 133.38790893554688 119.85003662109375 L133.38790893554688 117.98922729492188 L136.9954071044922 117.98922729492188 L140.60289001464844 117.98922729492188 L144.2103729248047 117.98922729492188"></path>
<path fill="#EE3426" fill-opacity="1.0"  filling="0" d="M144.18894958496094 120.27581787109375 C144.0932159423828 121.58355712890625 143.5086212158203 122.78543090820312 142.61538696289062 123.66741943359375 C141.6376495361328 124.64511108398438 140.287109375 125.25114440917969 138.79913330078125 125.25114440917969 C137.48126220703125 125.25114440917969 136.25796508789062 124.77239990234375 135.32305908203125 123.98617553710938 C135.59959411621094 122.87498474121094 136.45285034179688 121.89698791503906 137.66879272460938 121.19679260253906 C138.88473510742188 120.49658966064453 140.46339416503906 120.07418823242188 142.19073486328125 120.07418823242188 C142.88121032714844 120.07305908203125 143.56155395507812 120.13728332519531 144.18894958496094 120.27581787109375"></path></svg>