<svg xmlns="http://www.w3.org/2000/svg" viewBox="0.0 0.0 256.0 256.0" height="256.0px" width="256.0px"><path fill="#FCA688" fill-opacity="1.0"  filling="0" d="M93.92066955566406 80.45240783691406 L93.59954833984375 78.72799682617188 L91.06126403808594 79.14047241210938 L88.52297973632812 79.55294799804688 L88.88752746582031 81.85569763183594 L91.40409851074219 81.154052734375 L93.92066955566406 80.45240783691406"></path>
<path fill="#EA162C" fill-opacity="1.0"  filling="0" d="M123.39303588867188 111.35018157958984 C123.39303588867188 111.35018157958984 122.81592559814453 111.2952651977539 121.8397445678711 111.13085174560547 C120.86357116699219 110.96644592285156 119.48831939697266 110.69254302978516 117.89205169677734 110.25457763671875 C116.2957763671875 109.81661224365234 114.47847747802734 109.21458435058594 112.61819458007812 108.39392852783203 C110.7579116821289 107.5732650756836 108.85464477539062 106.53396606445312 107.08643341064453 105.22146606445312 C105.31822204589844 103.90896606445312 103.68505859375 102.32325744628906 102.36500549316406 100.4097671508789 C101.0449447631836 98.49627685546875 99.92801666259766 96.52718353271484 98.98576354980469 94.60126495361328 C98.04351043701172 92.67534637451172 97.27593994140625 90.7926025390625 96.65460205078125 89.05181884765625 C96.03326416015625 87.31103515625 95.55815124511719 85.71220397949219 95.20082092285156 84.35411834716797 C94.84349060058594 82.99603271484375 94.60394287109375 81.87867736816406 94.45372772216797 81.1008529663086 C94.30351257324219 80.32302856445312 94.24263000488281 79.88471984863281 94.24263000488281 79.88471984863281 L91.31358337402344 80.66868591308594 L88.38453674316406 81.45265197753906 C88.38453674316406 81.45265197753906 88.36309814453125 81.76970672607422 88.36139678955078 82.36253356933594 C88.35969543457031 82.95536041259766 88.37772369384766 83.82395935058594 88.45665740966797 84.92706298828125 C88.53559112548828 86.03015899658203 88.67542266845703 87.36775207519531 88.91732788085938 88.89856719970703 C89.15923309326172 90.42937469482422 89.50320434570312 92.15340423583984 89.99040985107422 94.02937316894531 C90.47762298583984 95.90534210205078 91.10807037353516 97.9332504272461 91.92292785644531 100.07181549072266 C92.73778533935547 102.21038818359375 93.73704528808594 104.45960998535156 94.96188354492188 106.7782211303711 C96.03316497802734 108.80585479736328 97.32780456542969 110.66679382324219 98.76011657714844 112.3672866821289 C100.19242858886719 114.0677719116211 101.7624282836914 115.6078109741211 103.3844223022461 116.99364471435547 C105.00641632080078 118.37947845458984 106.68040466308594 119.6111068725586 108.32071685791016 120.69478607177734 C109.96102905273438 121.77845764160156 111.56765747070312 122.71417999267578 113.05492401123047 123.50819396972656 C114.54219818115234 124.30220794677734 115.91011047363281 124.95451354980469 117.07298278808594 125.47135925292969 C118.23585510253906 125.98820495605469 119.19368743896484 126.36959838867188 119.86080169677734 126.62177276611328 C120.52791595458984 126.87394714355469 120.90431213378906 126.99691009521484 120.90431213378906 126.99691009521484 L121.52649688720703 123.0852279663086 L122.14867401123047 119.17354583740234 L122.77085876464844 115.2618637084961 L123.39303588867188 111.35018157958984"></path>
<path fill="#EA162C" fill-opacity="1.0"  filling="0" d="M144.70370483398438 93.09759521484375 C144.70370483398438 94.76303100585938 144.64303588867188 96.32435607910156 144.49063110351562 97.77830505371094 C144.33822631835938 99.23225402832031 144.09410095214844 100.57881927490234 143.7271728515625 101.81473541259766 C143.36024475097656 103.05065155029297 142.8705291748047 104.17591094970703 142.22695922851562 105.18724060058594 C141.58338928222656 106.19857788085938 140.7859649658203 107.09597778320312 139.8036346435547 107.87618255615234 C138.82130432128906 108.65637969970703 137.654052734375 109.31938171386719 136.2708282470703 109.86190032958984 C134.88760375976562 110.4044189453125 133.28842163085938 110.82646179199219 131.44219970703125 111.124755859375 C129.59597778320312 111.42304992675781 127.50272369384766 111.59757995605469 125.13137817382812 111.64509582519531 C122.85796356201172 111.6906967163086 120.86701202392578 111.56390380859375 119.12751770019531 111.26693725585938 C117.38802337646484 110.969970703125 115.89999389648438 110.5028305053711 114.63241577148438 109.86773681640625 C113.36483764648438 109.2326431274414 112.31771850585938 108.42959594726562 111.46005249023438 107.46082305908203 C110.60238647460938 106.49205017089844 109.93416595458984 105.35755157470703 109.42440032958984 104.05953979492188 C108.91462707519531 102.76153564453125 108.56330108642578 101.30001831054688 108.33942413330078 99.6772232055664 C108.11553955078125 98.05442810058594 108.01910400390625 96.27033996582031 108.01910400390625 94.32720184326172 C108.01910400390625 92.66165161132812 108.12438201904297 91.02234649658203 108.3405990600586 89.43578338623047 C108.55682373046875 87.8492202758789 108.88398742675781 86.31539154052734 109.32777404785156 84.86080169677734 C109.77156066894531 83.40620422363281 110.33195495605469 82.03084564208984 111.01464080810547 80.76119995117188 C111.69732666015625 79.49156188964844 112.5022964477539 78.32764434814453 113.43521881103516 77.29593658447266 C114.3681411743164 76.26423645019531 115.42902374267578 75.36474609375 116.62352752685547 74.62396240234375 C117.81803131103516 73.8831787109375 119.14616394042969 73.30109405517578 120.61358642578125 72.90421295166016 C122.08100891113281 72.50732421875 123.68772888183594 72.29563903808594 125.43940734863281 72.29563903808594 C127.19109344482422 72.29563903808594 128.83544921875 72.48224639892578 130.3673858642578 72.83614349365234 C131.89932250976562 73.19003295898438 133.31884765625 73.71121215820312 134.62086486816406 74.38033294677734 C135.9228973388672 75.0494613647461 137.107421875 75.86653900146484 138.16937255859375 76.81224060058594 C139.2313232421875 77.75794219970703 140.1707000732422 78.832275390625 140.98240661621094 80.0158920288086 C141.7941131591797 81.19951629638672 142.47816467285156 82.492431640625 143.0294647216797 83.87532043457031 C143.5807647705078 85.25820922851562 143.99932861328125 86.7310562133789 144.28005981445312 88.27454376220703 C144.560791015625 89.81803131103516 144.70370483398438 91.43215942382812 144.70370483398438 93.09759521484375"></path>
<path fill="#FCA688" fill-opacity="1.0"  filling="0" d="M112.01516723632812 84.89984130859375 C112.01516723632812 84.89984130859375 111.95527648925781 85.5645751953125 111.8460464477539 86.62274169921875 C111.73681640625 87.680908203125 111.57826232910156 89.13249969482422 111.38092803955078 90.70621490478516 C111.18359375 92.2799301147461 110.94749450683594 93.97576904296875 110.68316650390625 95.52241516113281 C110.55635070800781 96.26412200927734 110.4911117553711 97.22520446777344 110.56463623046875 98.28614044189453 C110.6381607055664 99.34707641601562 110.85044860839844 100.50786590576172 111.27869415283203 101.64897155761719 C111.70694732666016 102.79007720947266 112.35115814208984 103.91150665283203 113.28852081298828 104.89372253417969 C114.22589111328125 105.87593078613281 115.45640563964844 106.71893310546875 117.05728149414062 107.3031997680664 C118.65815734863281 107.88745880126953 120.62937927246094 108.21298217773438 123.04815673828125 108.16022491455078 C125.98990631103516 108.09612274169922 128.3210906982422 107.61576080322266 130.15834045410156 106.88484191894531 C131.99559020996094 106.15392303466797 133.3389129638672 105.17243957519531 134.30490112304688 104.10609436035156 C135.27088928222656 103.03974914550781 135.85955810546875 101.88854217529297 136.18753051757812 100.81816864013672 C136.5155029296875 99.74779510498047 136.58279418945312 98.75825500488281 136.5059814453125 98.01524353027344 C136.40357971191406 97.02482604980469 136.24420166015625 95.23733520507812 136.07720947265625 93.294189453125 C135.91021728515625 91.35104370117188 135.735595703125 89.25225830078125 135.6027374267578 87.63925170898438 C135.46986389160156 86.02625274658203 135.37875366210938 84.89903259277344 135.37875366210938 84.89903259277344 L130.70603942871094 84.89903259277344 L126.0333251953125 84.89903259277344 L121.36061096191406 84.89903259277344 L116.6878890991211 84.89903259277344 L112.01516723632812 84.89903259277344"></path>
<path fill="#4A000C" fill-opacity="1.0"  filling="0" d="M117.65127563476562 92.7559814453125 C117.65235137939453 93.49063873291016 117.48717498779297 94.19660949707031 117.19251251220703 94.71676635742188 C116.8978500366211 95.23692321777344 116.497314453125 95.52957153320312 116.0800552368164 95.52957153320312 C115.66279602050781 95.52957153320312 115.26226043701172 95.23692321777344 114.96759796142578 94.71676635742188 C114.67293548583984 94.19660949707031 114.50775909423828 93.49063873291016 114.50883483886719 92.7559814453125 C114.50775909423828 92.02132415771484 114.67293548583984 91.31535339355469 114.96759796142578 90.79519653320312 C115.26226043701172 90.27503967285156 115.66279602050781 89.98239135742188 116.0800552368164 89.98239135742188 C116.497314453125 89.98239135742188 116.8978500366211 90.27503967285156 117.19251251220703 90.79519653320312 C117.48717498779297 91.31535339355469 117.65235137939453 92.02132415771484 117.65127563476562 92.7559814453125"></path>
<path fill="#FFFFFF" fill-opacity="1.0"  filling="0" d="M115.70404052734375 91.47474670410156 C115.70404052734375 91.77294158935547 115.55082702636719 92.01460266113281 115.3624267578125 92.01460266113281 C115.17401123046875 92.01460266113281 115.02082824707031 91.77294158935547 115.02082824707031 91.47474670410156 C115.02082824707031 91.17656707763672 115.17401123046875 90.93489074707031 115.3624267578125 90.93489074707031 C115.55166625976562 90.93489074707031 115.70404052734375 91.17737579345703 115.70404052734375 91.47474670410156"></path>
<path fill="#4A000C" fill-opacity="1.0"  filling="0" d="M127.06143188476562 92.7559814453125 C127.06143188476562 93.4894027709961 126.8957748413086 94.19354248046875 126.60122680664062 94.71215057373047 C126.30667877197266 95.23075866699219 125.9067611694336 95.52242279052734 125.49020385742188 95.52242279052734 C125.07364654541016 95.52242279052734 124.6737289428711 95.23075866699219 124.37918090820312 94.71215057373047 C124.08463287353516 94.19354248046875 123.91897583007812 93.4894027709961 123.91897583007812 92.7559814453125 C123.91897583007812 92.0225601196289 124.08463287353516 91.31842041015625 124.37918090820312 90.79981231689453 C124.6737289428711 90.28120422363281 125.07364654541016 89.98954010009766 125.49020385742188 89.98954010009766 C125.9067611694336 89.98954010009766 126.30667877197266 90.28120422363281 126.60122680664062 90.79981231689453 C126.8957748413086 91.31842041015625 127.06143188476562 92.0225601196289 127.06143188476562 92.7559814453125"></path>
<path fill="#FFFFFF" fill-opacity="1.0"  filling="0" d="M125.260009765625 91.47474670410156 C125.260009765625 91.77294158935547 125.1068115234375 92.01460266113281 124.91838073730469 92.01460266113281 C124.72998046875 92.01460266113281 124.5767822265625 91.77294158935547 124.5767822265625 91.47474670410156 C124.5767822265625 91.17656707763672 124.72998046875 90.93489074707031 124.91838073730469 90.93489074707031 C125.1068115234375 90.93489074707031 125.260009765625 91.17737579345703 125.260009765625 91.47474670410156"></path>
<path fill="#4A000C" fill-opacity="1.0"  filling="0" d="M116.32742309570312 100.25575256347656 L120.79330444335938 100.25575256347656 L125.25918579101562 100.25575256347656 C125.25918579101562 100.25575256347656 125.18975830078125 101.3583984375 124.59675598144531 102.46104431152344 C124.0037612915039 103.56368255615234 122.88719177246094 104.66632843017578 120.79290771484375 104.66632843017578 C118.69903564453125 104.66632843017578 117.5826644897461 103.56368255615234 116.98976135253906 102.46104431152344 C116.39685821533203 101.3583984375 116.32742309570312 100.25575256347656 116.32742309570312 100.25575256347656"></path>
<path fill="#EA162C" fill-opacity="1.0"  filling="0" d="M120.79373168945312 102.56835174560547 C119.46659851074219 102.56835174560547 118.53434753417969 103.01236724853516 117.87655639648438 103.616943359375 C118.53353881835938 104.22150421142578 119.46659851074219 104.66551971435547 120.79373168945312 104.66551971435547 C122.12083435058594 104.66551971435547 123.05307006835938 104.22150421142578 123.71087646484375 103.616943359375 C123.05307006835938 103.01236724853516 122.12083435058594 102.56835174560547 120.79373168945312 102.56835174560547"></path>
<path fill="#FCA688" fill-opacity="1.0"  filling="0" d="M131.14349365234375 97.6572494506836 C131.14349365234375 98.38389587402344 130.14981079101562 98.97206115722656 128.9234619140625 98.97206115722656 C127.69712829589844 98.97206115722656 126.70343017578125 98.38306427001953 126.70343017578125 97.6572494506836 C126.70343017578125 96.93144226074219 127.69793701171875 96.34243774414062 128.9234619140625 96.34243774414062 C130.1489715576172 96.34243774414062 131.14349365234375 96.93144226074219 131.14349365234375 97.6572494506836"></path>
<path fill="#FCA688" fill-opacity="1.0"  filling="0" d="M115.84083557128906 97.6572494506836 C115.84083557128906 98.38389587402344 114.84716796875 98.97206115722656 113.62080383300781 98.97206115722656 C112.39445495605469 98.97206115722656 111.40078735351562 98.38306427001953 111.40078735351562 97.6572494506836 C111.40078735351562 96.93144226074219 112.39445495605469 96.34243774414062 113.62080383300781 96.34243774414062 C114.84716796875 96.34243774414062 115.84083557128906 96.93144226074219 115.84083557128906 97.6572494506836"></path>
<path fill="#FFFFFF" fill-opacity="1.0"  filling="0" d="M112.56813049316406 97.00353240966797 C112.56813049316406 97.11003112792969 112.44525146484375 97.19686889648438 112.29452514648438 97.19686889648438 C112.14378356933594 97.19686889648438 112.02090454101562 97.11003112792969 112.02090454101562 97.00353240966797 C112.02090454101562 96.89704132080078 112.14378356933594 96.81018829345703 112.29452514648438 96.81018829345703 C112.44525146484375 96.81018829345703 112.56813049316406 96.8962173461914 112.56813049316406 97.00353240966797"></path>
<path fill="#FFFFFF" fill-opacity="1.0"  filling="0" d="M128.00184631347656 97.00353240966797 C128.00184631347656 97.11003112792969 127.87896728515625 97.19686889648438 127.72825622558594 97.19686889648438 C127.5775146484375 97.19686889648438 127.45462036132812 97.11003112792969 127.45462036132812 97.00353240966797 C127.45462036132812 96.89704132080078 127.5775146484375 96.81018829345703 127.72825622558594 96.81018829345703 C127.87896728515625 96.81018829345703 128.00184631347656 96.8962173461914 128.00184631347656 97.00353240966797"></path>
<path fill="#FCA688" fill-opacity="1.0"  filling="0" d="M134.9691619873047 92.7559814453125 C134.9691619873047 92.7559814453125 135.4430694580078 91.80386352539062 136.23081970214844 91.06310272216797 C137.01858520507812 90.32234191894531 138.12020874023438 89.79293060302734 139.37562561035156 90.63834381103516 C140.2125701904297 91.20195007324219 140.59970092773438 92.24943542480469 140.576904296875 93.36900329589844 C140.5541229248047 94.48857879638672 140.12142944335938 95.68024444580078 139.3187713623047 96.53221130371094 C138.51611328125 97.38418579101562 137.34347534179688 97.89645385742188 135.84078979492188 97.6572494506836 L134.9691619873047 92.7559814453125"></path>
<path fill="#FCA688" fill-opacity="1.0"  filling="0" d="M135.8653564453125 93.25159454345703 C135.8653564453125 93.25159454345703 136.94097900390625 90.8431396484375 138.58099365234375 91.2535629272461 C140.22021484375 91.66316223144531 139.17001342773438 94.25101470947266 139.17001342773438 94.25101470947266 C139.17001342773438 94.25101470947266 139.3494415283203 92.22759246826172 138.35000610351562 92.02197265625 C137.3505859375 91.81716918945312 136.5567626953125 93.66118621826172 136.5567626953125 94.02000427246094 C136.5567626953125 94.37881469726562 137.12037658691406 93.35399627685547 137.55618286132812 93.7898178100586 C137.99200439453125 94.22561645507812 137.58157348632812 95.50604248046875 136.71078491210938 95.25044250488281 C136.71078491210938 95.25044250488281 136.4805908203125 96.42845153808594 137.3251953125 96.4030532836914 C138.17059326171875 96.3776626586914 138.78582763671875 95.19884490966797 138.78582763671875 95.19884490966797 C138.78582763671875 95.19884490966797 138.7342071533203 96.71025085449219 137.17196655273438 96.91505432128906 C135.60894775390625 97.1198501586914 135.43035888671875 95.1980209350586 135.8653564453125 93.25159454345703"></path>
<path fill="#4A000C" fill-opacity="1.0"  filling="0" d="M112.01516723632812 84.89984130859375 C112.01516723632812 84.89984130859375 112.6811752319336 85.67684936523438 113.95349884033203 86.53076934814453 C115.22581481933594 87.38468170166016 117.10445404052734 88.31550598144531 119.52970886230469 88.62311553955078 L118.43687438964844 86.84709167480469 C118.43687438964844 86.84709167480469 119.23948669433594 87.27410125732422 120.6826171875 87.74800872802734 C122.12574768066406 88.22190856933594 124.20938873291016 88.74272155761719 126.77143859863281 88.93031311035156 L126.08819580078125 87.70069122314453 C126.08819580078125 87.70069122314453 127.79621887207031 88.5887222290039 130.35787963867188 88.82791900634766 C132.91952514648438 89.0671157836914 132.031494140625 91.01354217529297 132.1339111328125 92.00476837158203 C132.18511962890625 92.4999771118164 132.73171997070312 92.90138244628906 133.15872192382812 93.59739685058594 C133.5857391357422 94.29341125488281 133.8931427001953 95.28402709960938 133.4659423828125 96.95765686035156 C133.4659423828125 96.95765686035156 133.90994262695312 96.6074447631836 134.4436492919922 95.72782897949219 C134.97735595703125 94.84821319580078 135.60076904296875 93.43919372558594 135.95957946777344 91.32156372070312 C135.95957946777344 91.32156372070312 137.39398193359375 89.61353302001953 138.9996337890625 90.43354034423828 L139.00823974609375 86.6934814453125 L139.01683044433594 82.95343017578125 L134.48255920410156 82.95342254638672 L129.94827270507812 82.95343017578125 L125.41400146484375 82.95343017578125 L120.87973022460938 82.95343017578125 L116.34544372558594 82.95342254638672 L111.81117248535156 82.95343017578125 C111.81117248535156 82.95343017578125 109.40275573730469 85.20787048339844 111.78579711914062 87.20588684082031 L112.01516723632812 84.89984130859375"></path>
<path fill="#EA162C" fill-opacity="1.0"  filling="0" d="M110.81996154785156 83.70463562011719 C110.81996154785156 83.70463562011719 110.99453735351562 83.70463562011719 111.60430145263672 83.70463562011719 C112.21405792236328 83.70463562011719 113.25898742675781 83.70463562011719 114.99970245361328 83.70463562011719 C116.74040985107422 83.70463562011719 119.17689514160156 83.70463562011719 122.56976318359375 83.70463562011719 C125.1144027709961 83.70463562011719 127.45413970947266 84.11878967285156 129.53237915039062 84.74002838134766 C131.61062622070312 85.36126708984375 133.42738342285156 86.1895751953125 134.92605590820312 87.01789093017578 C136.4247283935547 87.84620666503906 137.60531616210938 88.67452239990234 138.4112548828125 89.2957534790039 C139.21717834472656 89.9169921875 139.6484375 90.33114624023438 139.6484375 90.33114624023438 L140.43405151367188 85.6514663696289 L141.21966552734375 80.97178649902344 L137.2231903076172 79.707763671875 L133.22671508789062 78.44374084472656 L129.1279296875 78.71702575683594 L125.0291519165039 78.99031066894531 L120.93036651611328 79.26359558105469 L116.83157348632812 79.53688049316406 L112.7327880859375 79.81016540527344 C112.7327880859375 79.81016540527344 109.6583251953125 81.38137817382812 110.81996154785156 83.70463562011719"></path>
<path fill="#FDEDCB" fill-opacity="1.0"  filling="0" d="M116.84434509277344 75.72235107421875 C116.84434509277344 75.72235107421875 115.90185546875 75.30783081054688 114.78959655761719 74.5648193359375 C113.67732238769531 73.82180786132812 112.39527893066406 72.75028991699219 111.71615600585938 71.43629455566406 C110.52995300292969 69.14007568359375 111.00018310546875 67.66879272460938 111.00018310546875 67.66879272460938 C111.00018310546875 67.66879272460938 110.2774429321289 68.06549072265625 109.49736022949219 68.91704559326172 C108.71726989746094 69.76860046386719 107.87984466552734 71.07501983642578 107.65046691894531 72.89445495605469 C107.415771484375 74.7536392211914 108.3201675415039 76.86410522460938 109.28323364257812 78.50977325439453 C110.24630737304688 80.15544128417969 111.26805114746094 81.33631896972656 111.26805114746094 81.33631896972656 C111.26805114746094 81.33631896972656 113.21121215820312 81.67138671875 114.71853637695312 80.13046264648438 C116.22666931152344 78.58955383300781 116.84434509277344 75.72235107421875 116.84434509277344 75.72235107421875"></path>
<path fill="#FDEDCB" fill-opacity="1.0"  filling="0" d="M133.41184997558594 77.35501098632812 C133.41184997558594 77.35501098632812 134.3965301513672 77.05354309082031 135.58816528320312 76.4457015991211 C136.77980041503906 75.83786010742188 138.1783905029297 74.92363739013672 139.00619506835938 73.6981201171875 C140.452880859375 71.55671691894531 140.15797424316406 70.04039001464844 140.15797424316406 70.04039001464844 C140.15797424316406 70.04039001464844 140.82931518554688 70.51900482177734 141.5044403076172 71.45606994628906 C142.1795654296875 72.39312744140625 142.8584747314453 73.78863525390625 142.87362670898438 75.62242126464844 C142.88919067382812 77.49633026123047 141.74395751953125 79.486572265625 140.59481811523438 81.00833892822266 C139.4456787109375 82.53010559082031 138.29266357421875 83.58338928222656 138.29266357421875 83.58338928222656 C138.29266357421875 83.58338928222656 136.3240966796875 83.68907165527344 135.0068359375 81.98187255859375 C133.69036865234375 80.27546691894531 133.41184997558594 77.35501098632812 133.41184997558594 77.35501098632812"></path>
<path fill="#EA162C" fill-opacity="1.0"  filling="0" d="M115.73025512695312 109.78304290771484 C115.73025512695312 109.78304290771484 114.20899963378906 110.03535461425781 112.69889831542969 110.82189178466797 C111.18880462646484 111.60842895507812 109.68987274169922 112.92918395996094 109.73452758789062 115.06607055664062 C109.74049377441406 115.35044860839844 109.70720672607422 115.96670532226562 109.65267944335938 116.84674835205078 C109.59815216064453 117.72679138183594 109.52238464355469 118.87062072753906 109.44339752197266 120.21015167236328 C109.36441040039062 121.5496826171875 109.28219604492188 123.08490753173828 109.21476745605469 124.74774169921875 C109.14734649658203 126.41058349609375 109.09471130371094 128.20101928710938 109.07489013671875 130.05099487304688 C109.05506134033203 131.9009552001953 109.06804656982422 133.81044006347656 109.13184356689453 135.71136474609375 C109.19564819335938 137.61227416992188 109.31027221679688 139.50460815429688 109.49372863769531 141.32029724121094 C109.67718505859375 143.135986328125 109.92948913574219 144.875 110.26863098144531 146.4692840576172 L114.67849731445312 146.4692840576172 L119.08837890625 146.4692840576172 L123.49824523925781 146.46929931640625 L127.90811157226562 146.46929931640625 L132.3179931640625 146.4692840576172 L136.7278594970703 146.4692840576172 L141.13772583007812 146.4692840576172 C141.13772583007812 146.4692840576172 141.15586853027344 145.82948303222656 141.18692016601562 144.7375946044922 C141.2179718017578 143.6457061767578 141.26194763183594 142.1017303466797 141.31361389160156 140.29336547851562 C141.3652801513672 138.48500061035156 141.42465209960938 136.4122314453125 141.4864959716797 134.26280212402344 C141.54835510253906 132.1133575439453 141.61268615722656 129.88722229003906 141.6742706298828 127.77210998535156 C141.73587036132812 125.65699768066406 141.7947235107422 123.65289306640625 141.8456268310547 121.94751739501953 C141.89651489257812 120.24214172363281 141.939453125 118.83548736572266 141.96922302246094 117.91525268554688 C142.02847290039062 116.07505798339844 141.79100036621094 114.4524917602539 141.28970336914062 113.10694122314453 C140.78842163085938 111.76139068603516 140.0233154296875 110.69285583496094 139.02731323242188 109.96070098876953 C138.0313262939453 109.22854614257812 136.804443359375 108.8327865600586 135.37957763671875 108.8327865600586 L130.46725463867188 109.07035064697266 L125.55491638183594 109.30791473388672 L120.64258575439453 109.54547882080078 L115.73025512695312 109.78304290771484"></path>
<path fill="#EA162C" fill-opacity="1.0"  filling="0" d="M109.20040893554688 138.75241088867188 C109.20040893554688 138.75241088867188 109.2245864868164 139.03382873535156 109.27295684814453 139.56124877929688 C109.32131958007812 140.0886688232422 109.39386749267578 140.86209106445312 109.49059295654297 141.84608459472656 C109.58732604980469 142.830078125 109.70823669433594 144.024658203125 109.85333251953125 145.39439392089844 C109.99842834472656 146.76412963867188 110.16771697998047 148.30902099609375 110.3611831665039 149.99363708496094 C110.55465698242188 151.6782684326172 110.77230834960938 153.50262451171875 111.01415252685547 155.43130493164062 C111.25599670410156 157.3599853515625 111.52202606201172 159.39297485351562 111.81224822998047 161.494873046875 C112.10247039794922 163.5967559814453 112.41687774658203 165.7675323486328 112.75547790527344 167.97178649902344 C113.09407043457031 170.17604064941406 113.45686340332031 172.41375732421875 113.84384155273438 174.6495361328125 C114.23081970214844 176.88531494140625 114.64198303222656 179.119140625 115.07734680175781 181.3155975341797 C115.07734680175781 181.3155975341797 113.35537719726562 183.39309692382812 111.45646667480469 184.10580444335938 C110.82322692871094 184.34336853027344 109.56339263916016 184.60723876953125 108.24420928955078 185.09532165527344 C106.9250259399414 185.58340454101562 105.54649353027344 186.29571533203125 104.67587280273438 187.43016052246094 C103.80524444580078 188.56460571289062 103.44252014160156 190.12118530273438 104.15495300292969 192.29779052734375 C104.15495300292969 192.29779052734375 104.40727233886719 192.7133331298828 105.40157318115234 193.12887573242188 C106.3958740234375 193.54441833496094 108.13217163085938 193.9599609375 111.10012817382812 193.9599609375 C113.07904815673828 193.9599609375 115.20960235595703 193.60379028320312 117.17082977294922 193.12889099121094 C119.1320571899414 192.65399169921875 120.9239501953125 192.0603790283203 122.22554016113281 191.5854949951172 C123.52713012695312 191.110595703125 124.33840942382812 190.75442504882812 124.33840942382812 190.75442504882812 C124.33840942382812 190.75442504882812 124.41254425048828 189.24075317382812 124.38284301757812 187.26698303222656 C124.3531494140625 185.293212890625 124.21961975097656 182.859375 123.80429077148438 181.01904296875 C123.66584014892578 180.40560913085938 123.53397369384766 179.30078125 123.424072265625 177.87550354003906 C123.31417083740234 176.45022583007812 123.22624206542969 174.7045135498047 123.1756820678711 172.80929565429688 C123.1251220703125 170.91407775878906 123.11192321777344 168.86935424804688 123.15148162841797 166.84605407714844 C123.1910400390625 164.82276916503906 123.28336334228516 162.8209228515625 123.44383239746094 161.01144409179688 C123.60430908203125 159.20196533203125 123.83293151855469 157.58486938476562 124.14510345458984 156.33108520507812 C124.457275390625 155.07730102539062 124.85299682617188 154.18682861328125 125.34765625 153.83062744140625 C125.84231567382812 153.4744110107422 126.33121490478516 153.8206787109375 126.79978942871094 154.67320251464844 C127.26836395263672 155.52572631835938 127.71660614013672 156.88449096679688 128.1299591064453 158.55328369140625 C128.54330444335938 160.22207641601562 128.9217529296875 162.20086669921875 129.250732421875 164.29344177246094 C129.5797119140625 166.38601684570312 129.85922241210938 168.59237670898438 130.07469177246094 170.71627807617188 C130.2901611328125 172.84017944335938 130.4415740966797 174.88162231445312 130.51438903808594 176.6443634033203 C130.5872039794922 178.4071044921875 130.58139038085938 179.89114379882812 130.48240661621094 180.9002685546875 L134.56365966796875 180.9002685546875 L138.64491271972656 180.9002685546875 C138.64491271972656 180.9002685546875 138.6788330078125 180.57557678222656 138.73941040039062 179.96498107910156 C138.79998779296875 179.3543701171875 138.88720703125 178.45785522460938 138.99380493164062 177.31417846679688 C139.1004180908203 176.17050170898438 139.2263946533203 174.77969360351562 139.364501953125 173.1804962158203 C139.50259399414062 171.581298828125 139.65281677246094 169.7737274169922 139.807861328125 167.79653930664062 C139.96290588378906 165.81935119628906 140.122802734375 163.6725616455078 140.28025817871094 161.3949432373047 C140.43771362304688 159.1173095703125 140.59275817871094 156.70884704589844 140.73809814453125 154.20831298828125 C140.8834228515625 151.70777893066406 141.01907348632812 149.11517333984375 141.13772583007812 146.4692840576172 L136.57525634765625 145.36688232421875 L132.01278686523438 144.26446533203125 L127.45030212402344 143.1620635986328 L122.88783264160156 142.0596466064453 L118.32536315917969 140.9572296142578 L113.76287841796875 139.85482788085938 L109.20040893554688 138.75241088867188"></path>
<path fill="#EA162C" fill-opacity="1.0"  filling="0" d="M138.66375732421875 180.9002685546875 C138.66375732421875 180.9002685546875 139.14566040039062 181.71311950683594 139.94049072265625 182.6878662109375 C140.73532104492188 183.66261291503906 141.84307861328125 184.79925537109375 143.09481811523438 185.4468231201172 C143.92930603027344 185.8785400390625 144.90769958496094 186.28140258789062 145.84133911132812 186.81211853027344 C146.77499389648438 187.34283447265625 147.66387939453125 188.0014190673828 148.31936645507812 188.94456481933594 C148.97483825683594 189.8876953125 149.39691162109375 191.11541748046875 149.39691162109375 192.78439331054688 C149.39691162109375 192.78439331054688 149.0299072265625 193.34555053710938 147.8968505859375 193.90670776367188 C146.7637939453125 194.46786499023438 144.86468505859375 195.02902221679688 141.8004608154297 195.02902221679688 C139.7573699951172 195.02902221679688 137.67596435546875 194.64535522460938 135.80880737304688 194.13381958007812 C133.94163513183594 193.6222686767578 132.2886962890625 192.9828338623047 131.10256958007812 192.47128295898438 C129.9164276123047 191.95974731445312 129.19708251953125 191.57608032226562 129.19708251953125 191.57608032226562 C129.19708251953125 191.57608032226562 129.1192626953125 191.0559844970703 129.0890350341797 190.1344451904297 C129.05880737304688 189.21290588378906 129.07620239257812 187.88992309570312 129.26661682128906 186.2841796875 C129.45703125 184.6784210205078 129.82049560546875 182.78988647460938 130.48240661621094 180.73724365234375 L134.57308959960938 180.81875610351562 L138.66375732421875 180.9002685546875"></path>
<path fill="#EA162C" fill-opacity="1.0"  filling="0" d="M135.9136962890625 143.26458740234375 C135.9136962890625 143.26458740234375 136.26986694335938 142.61814880371094 136.9646453857422 141.8529815673828 C137.659423828125 141.08782958984375 138.6927947998047 140.2039337158203 140.0471954345703 139.72903442382812 C141.401611328125 139.254150390625 143.07705688476562 139.188232421875 145.0559539794922 140.05905151367188 C146.53993225097656 140.712158203125 148.06851196289062 141.58041381835938 149.56187438964844 142.43934631347656 C151.05523681640625 143.2982940673828 152.5133819580078 144.14793395996094 153.8565216064453 144.76380920410156 C155.19964599609375 145.37969970703125 156.42776489257812 145.76182556152344 157.46104431152344 145.68576049804688 C158.49432373046875 145.60968017578125 159.33279418945312 145.07540893554688 159.8966064453125 143.85848999023438 C160.46063232421875 142.64157104492188 160.13418579101562 141.56561279296875 159.3736114501953 140.51930236816406 C158.61305236816406 139.47300720214844 157.41836547851562 138.4563751220703 156.24594116210938 137.35813903808594 C155.07351684570312 136.25990295410156 153.92332458496094 135.08004760742188 153.25173950195312 133.70730590820312 C152.58016967773438 132.3345489501953 152.38719177246094 130.76890563964844 153.12918090820312 128.89907836914062 L148.973388671875 130.0861053466797 L150.8198699951172 126.96031951904297 L152.66635131835938 123.83452606201172 L154.5128173828125 120.70872497558594 L156.1094512939453 123.8741226196289 L157.70608520507812 127.03951263427734 L159.30270385742188 130.20489501953125 L154.5537872314453 128.89907836914062 C154.5537872314453 128.89907836914062 154.22732543945312 129.99722290039062 154.53903198242188 131.52574157714844 C154.85073852539062 133.05426025390625 155.80059814453125 135.01318359375 158.3532257080078 136.7347412109375 C160.0549774169922 137.88243103027344 161.26866149902344 139.18841552734375 162.0250244140625 140.5207977294922 C162.78140258789062 141.85317993164062 163.0804443359375 143.2119598388672 162.95289611816406 144.46524047851562 C162.82534790039062 145.71853637695312 162.27120971679688 146.8663330078125 161.32119750976562 147.7767333984375 C160.37147521972656 148.68685913085938 159.316162109375 149.28041076660156 158.10690307617188 149.53982543945312 C156.89764404296875 149.7992401123047 155.53443908691406 149.72451782226562 153.9689178466797 149.29806518554688 C152.40338134765625 148.8716278076172 150.63555908203125 148.09347534179688 148.61703491210938 146.94606018066406 C146.5988006591797 145.79837036132812 144.9762420654297 145.13873291015625 143.62188720703125 144.94522094726562 C142.26754760742188 144.751708984375 141.181396484375 145.02432250976562 140.23602294921875 145.74111938476562 C139.29061889648438 146.45791625976562 138.48599243164062 147.618896484375 137.6946258544922 149.2021484375 L136.80416870117188 146.23336791992188 L135.9136962890625 143.26458740234375"></path>
<path fill="#FFFFFF" fill-opacity="1.0"  filling="0" d="M116.82716369628906 101.17489624023438 L120.76300811767578 101.17489624023438 L124.6988525390625 101.17489624023438 L125.00521850585938 100.25575256347656 L120.83589935302734 100.25575256347656 L116.66658020019531 100.25575256347656 L116.82716369628906 101.17489624023438"></path>
<path fill="#FCA688" fill-opacity="1.0"  filling="0" d="M93.29728698730469 71.93600463867188 C93.595458984375 74.11590576171875 93.1956787109375 75.97056579589844 92.40434265136719 76.07868957519531 C91.61300659179688 76.18684387207031 90.72990417480469 74.50747680664062 90.43252563476562 72.32759094238281 C90.13433837890625 70.14768981933594 90.53408813476562 68.29302978515625 91.32545471191406 68.18489074707031 C92.115966796875 68.07594299316406 92.99908447265625 69.75611877441406 93.29728698730469 71.93600463867188"></path>
<path fill="#FCA688" fill-opacity="1.0"  filling="0" d="M91.90872192382812 72.692138671875 C92.27816772460938 74.86137390136719 91.93984985351562 76.72831726074219 91.152587890625 76.86186218261719 C90.36534118652344 76.9962158203125 89.42817687988281 75.34634399414062 89.0587158203125 73.17709350585938 C88.68928527832031 71.00785827636719 89.027587890625 69.14088439941406 89.81484985351562 69.00736999511719 C90.60128784179688 68.87300109863281 91.53927612304688 70.52288818359375 91.90872192382812 72.692138671875"></path>
<path fill="#FCA688" fill-opacity="1.0"  filling="0" d="M90.11058044433594 72.9215087890625 C90.37028503417969 74.78273010253906 90.03358459472656 76.36869812011719 89.35855102539062 76.46292114257812 C88.68272399902344 76.55711364746094 87.92413330078125 75.12515258789062 87.66445922851562 73.26312255859375 C87.40396118164062 71.40188598632812 87.741455078125 69.81591796875 88.41647338867188 69.72171020507812 C89.09150695800781 69.62750244140625 89.85008239746094 71.06028747558594 90.11058044433594 72.9215087890625"></path>
<path fill="#FCA688" fill-opacity="1.0"  filling="0" d="M88.77365112304688 73.89634704589844 C89.01779174804688 75.86161804199219 88.63766479492188 77.52622985839844 87.92413330078125 77.61470031738281 C87.21060180664062 77.70318603515625 86.43482971191406 76.18191528320312 86.19070434570312 74.21665954589844 C85.94657897949219 72.25140380859375 86.32670593261719 70.5867919921875 87.04022216796875 70.49749755859375 C87.75375366210938 70.40983581542969 88.529541015625 71.93109130859375 88.77365112304688 73.89634704589844"></path>
<path fill="#FCA688" fill-opacity="1.0"  filling="0" d="M86.24232482910156 71.87457275390625 C86.24232482910156 71.87457275390625 85.47145080566406 72.96656799316406 85.98509216308594 75.60111999511719 C86.24231719970703 76.91839599609375 86.94641876220703 78.01079559326172 87.58621215820312 78.77388000488281 C88.22601318359375 79.53695678710938 88.80149841308594 79.97071838378906 88.80149841308594 79.97071838378906 L91.25418090820312 77.97842407226562 L91.35084533691406 73.99465942382812 L88.79658508300781 72.93461608886719 L86.24232482910156 71.87457275390625"></path>
<path fill="#4A000C" fill-opacity="1.0"  filling="0" d="M130.842041015625 46.930755615234375 L126.87186431884766 49.669586181640625 L122.90169525146484 52.408416748046875 L118.93152618408203 55.14725112915039 L114.96135711669922 57.886077880859375 L110.99118041992188 60.624908447265625 L107.02100372314453 63.363739013671875 L103.05083465576172 66.10256958007812 L99.0806655883789 68.84140014648438 L95.1104965209961 71.58023071289062 L91.14031982421875 74.31906127929688 L87.17015075683594 77.05789184570312 L83.19998168945312 79.7967300415039 L79.22979736328125 82.53556060791016 L75.25962829589844 85.27438354492188 L71.28945922851562 88.01322174072266 L67.31929016113281 90.7520523071289 L63.34911346435547 93.49088287353516 L59.378944396972656 96.2297134399414 L55.40877151489258 98.96853637695312 L51.4385986328125 101.7073745727539 C50.863525390625 102.10386657714844 50.076271057128906 101.95886993408203 49.68060302734375 101.3846206665039 C49.28411102294922 100.81035614013672 49.42829132080078 100.02310180664062 50.00335693359375 99.62661743164062 L54.02349853515625 96.95958709716797 L58.04364013671875 94.29255676269531 L62.063785552978516 91.62553405761719 L66.08392333984375 88.95850372314453 L70.10406494140625 86.29147338867188 L74.12421417236328 83.62444305419922 L78.14434814453125 80.95741271972656 L82.16449737548828 78.29039001464844 L86.18463134765625 75.62335968017578 L90.20478057861328 72.95632934570312 L94.22492218017578 70.28929901123047 L98.24507141113281 67.62226867675781 L102.26520538330078 64.95524597167969 L106.28534698486328 62.28821563720703 L110.30549621582031 59.621185302734375 L114.32563781738281 56.954158782958984 L118.34577941894531 54.28712844848633 L122.36591339111328 51.62009811401367 L126.38606262207031 48.953067779541016 L130.4062042236328 46.286041259765625 C130.58480834960938 46.16725158691406 130.82644653320312 46.216400146484375 130.94525146484375 46.394989013671875 C131.06320190429688 46.57194519042969 131.01651000976562 46.81031799316406 130.842041015625 46.930755615234375"></path>
<path fill="#4A000C" fill-opacity="1.0"  filling="0" d="M123.32341003417969 40.70481872558594 C123.32341003417969 40.70481872558594 122.65740966796875 41.212738037109375 121.47694396972656 42.07945251464844 C120.88343048095703 42.50788879394531 120.16744995117188 43.035247802734375 119.34414672851562 43.637054443359375 C118.52084350585938 44.23885726928711 117.5902328491211 44.91510772705078 116.56745910644531 45.641326904296875 C115.01097106933594 46.746429443359375 115.55247497558594 46.186920166015625 114.31629943847656 47.67048645019531 C113.60729217529297 48.52122497558594 113.02381896972656 49.518192291259766 112.64207458496094 50.58202362060547 C112.26033020019531 51.64585876464844 112.08030700683594 52.77655792236328 112.17820739746094 53.89476013183594 C112.24208068847656 55.38816833496094 112.79013061523438 56.85125732421875 113.6142578125 58.11692810058594 C114.1893310546875 58.817344665527344 114.7668685913086 59.44525909423828 115.41751861572266 59.980499267578125 C116.06816864013672 60.515743255615234 116.79193115234375 60.95831298828125 117.65945434570312 61.28804016113281 C118.89849853515625 61.75908660888672 120.2071762084961 61.939720153808594 121.49127197265625 61.83373260498047 C122.77537536621094 61.72774887084961 124.03489685058594 61.33514404296875 125.17562866210938 60.65971374511719 C125.75559997558594 60.3238525390625 126.7730712890625 59.54315185546875 127.30224609375 59.20646667480469 C128.47412109375 58.460174560546875 129.6533660888672 57.72494125366211 130.83506774902344 56.99339294433594 C132.01675415039062 56.26184844970703 133.20091247558594 55.53398895263672 134.38259887695312 54.80244445800781 C134.4932098388672 54.960540771484375 134.60459899902344 55.11865234375 134.7152099609375 55.276763916015625 C134.80532836914062 55.40496063232422 133.2154541015625 56.60672378540039 131.52626037597656 57.82692337036133 C129.83706665039062 59.047122955322266 128.04855346679688 60.28575897216797 127.74134826660156 60.487701416015625 C126.61495208740234 61.22743225097656 125.74148559570312 61.91371154785156 124.80647277832031 62.444244384765625 C123.8714599609375 62.97477722167969 122.8749008178711 63.34956359863281 121.50233459472656 63.46630859375 C120.15557098388672 63.58099365234375 118.80204772949219 63.409576416015625 117.52306365966797 62.99884796142578 C116.24408721923828 62.5881233215332 115.03965759277344 61.938087463378906 113.9910888671875 61.09553527832031 C113.53970336914062 60.732635498046875 113.11618041992188 60.334503173828125 112.72705078125 59.90606689453125 L112.53700256347656 59.657012939453125 L112.13067626953125 59.12126159667969 C111.63055419921875 58.357765197753906 111.2191162109375 57.52873229980469 110.9234848022461 56.66498565673828 C110.62785339355469 55.80124282836914 110.44804382324219 54.90278625488281 110.41117858886719 54.00044250488281 C110.33171844482422 52.8277587890625 110.49288940429688 51.65671157836914 110.8461685180664 50.543521881103516 C111.19944763183594 49.43033218383789 111.74482727050781 48.375 112.43377685546875 47.433746337890625 C113.91900634765625 45.40376281738281 113.73057556152344 45.82481384277344 115.7933349609375 44.49690246582031 C116.8480453491211 43.817779541015625 117.82206726074219 43.20542526245117 118.68704223632812 42.664955139160156 C119.55201721191406 42.124488830566406 120.30793762207031 41.655906677246094 120.92643737792969 41.26432800292969 C122.16998291015625 40.49101257324219 122.88922119140625 40.06175231933594 122.88922119140625 40.06175231933594 L123.32341003417969 40.70481872558594"></path>
<path fill="#4A000C" fill-opacity="1.0"  filling="0" d="M133.7165985107422 44.5157470703125 L130.99151611328125 45.303001403808594 L128.26644897460938 46.09025573730469 L129.2470703125 47.54023742675781 L130.22845458984375 48.98939514160156 L131.9725341796875 46.75257110595703 L133.7165985107422 44.5157470703125"></path>
<path fill="#4A000C" fill-opacity="1.0"  filling="0" d="M126.19796752929688 38.29063415527344 L123.47290802001953 39.07788848876953 L120.74784851074219 39.865142822265625 L121.72843933105469 41.31431579589844 L122.70899963378906 42.7642822265625 L124.45348358154297 40.52745819091797 L126.19796752929688 38.29063415527344"></path>
<path fill="#4A000C" fill-opacity="1.0"  filling="0" d="M137.67581176757812 52.954315185546875 L134.9503173828125 53.74156951904297 L132.22482299804688 54.52882385253906 L133.2062225341797 55.977996826171875 L134.18682861328125 57.427978515625 L135.9313201904297 55.19114685058594 L137.67581176757812 52.954315185546875"></path>
<path fill="#FCA688" fill-opacity="1.0"  filling="0" d="M93.59954833984375 78.72799682617188 C93.59954833984375 78.72799682617188 94.58505249023438 76.37197875976562 95.18470764160156 75.51509094238281 C95.78434753417969 74.65821838378906 95.65574645996094 73.11647033691406 95.39932250976562 72.08837890625 C95.14208984375 71.06028747558594 94.20004272460938 70.16081237792969 93.25712585449219 70.28941345214844 C92.31504821777344 70.41804504394531 90.64387512207031 71.48872375488281 89.83042907714844 71.83114624023438 C89.01695251464844 72.17356872558594 88.07405090332031 73.45889282226562 89.53057861328125 73.97337341308594 C90.98712158203125 74.48782348632812 92.18643188476562 73.5023193359375 92.18643188476562 73.5023193359375 C92.18643188476562 73.5023193359375 90.95497131347656 73.89860534667969 89.91622161865234 74.9052963256836 C88.87747955322266 75.9119873046875 88.03145599365234 77.52909088134766 88.80233764648438 79.97071838378906 L93.59954833984375 78.72799682617188"></path>
<path fill="#EA162C" fill-opacity="1.0"  filling="0" d="M89.67640686035156 92.7592544555664 C89.91254425048828 93.76502990722656 90.19015502929688 94.82087707519531 90.51642608642578 95.91969299316406 C90.84269714355469 97.01850891113281 91.21763610839844 98.16029357910156 91.64842987060547 99.33794403076172 C92.0792236328125 100.51559448242188 92.56587219238281 101.72911834716797 93.1155776977539 102.97139739990234 C93.665283203125 104.21367645263672 94.27804565429688 105.48471069335938 94.96104431152344 106.77741241455078 C95.65229034423828 108.0856704711914 96.43643188476562 109.32437133789062 97.29049682617188 110.49524688720703 C98.14456176757812 111.66612243652344 99.06854248046875 112.7691879272461 100.03945922851562 113.80618286132812 C101.01038360595703 114.84317779541016 102.02825164794922 115.8141098022461 103.07008361816406 116.72071838378906 C104.1119155883789 117.62733459472656 105.1777114868164 118.4696273803711 106.24449920654297 119.24935150146484 C107.31128692626953 120.02908325195312 108.37905883789062 120.7462387084961 109.42485046386719 121.40258026123047 C109.50759887695312 120.10497283935547 109.61083984375 118.62549591064453 109.73533630371094 117.0731201171875 C109.73533630371094 117.07323455810547 109.46075439453125 116.99290466308594 108.97078704833984 116.79570770263672 C108.48081970214844 116.5985107421875 107.77546691894531 116.28445434570312 106.91392517089844 115.8171157836914 C106.05238342285156 115.34977722167969 105.03466033935547 114.72915649414062 103.91993713378906 113.9188461303711 C102.80522155761719 113.10853576660156 101.59351348876953 112.10852813720703 100.34400939941406 110.88241577148438 C99.0945053100586 109.65630340576172 97.80721282958984 108.2040786743164 96.54132080078125 106.48933410644531 C95.27543640136719 104.77458953857422 94.03094482421875 102.79731750488281 92.8670654296875 100.52111053466797 C91.70317840576172 98.24490356445312 90.61988830566406 95.66975402832031 89.67640686035156 92.7592544555664"></path>
<path fill="#FCA688" fill-opacity="1.0"  filling="0" d="M159.21337890625 80.45240783691406 L159.53451538085938 78.72799682617188 L162.0727996826172 79.14047241210938 L164.611083984375 79.55294799804688 L164.24656677246094 81.85569763183594 L161.72998046875 81.154052734375 L159.21337890625 80.45240783691406"></path>
<path fill="#EA162C" fill-opacity="1.0"  filling="0" d="M129.74102783203125 111.35018157958984 C129.74102783203125 111.35018157958984 130.31814575195312 111.2952651977539 131.2943115234375 111.13085174560547 C132.27049255371094 110.96644592285156 133.64573669433594 110.69254302978516 135.2420196533203 110.25457763671875 C136.83828735351562 109.81661224365234 138.6555938720703 109.21458435058594 140.51588439941406 108.39392852783203 C142.37615966796875 107.5732650756836 144.27943420410156 106.53396606445312 146.04763793945312 105.22146606445312 C147.81585693359375 103.90896606445312 149.44900512695312 102.32325744628906 150.76907348632812 100.4097671508789 C152.08912658691406 98.49627685546875 153.2060546875 96.52718353271484 154.1483154296875 94.60126495361328 C155.09056091308594 92.67534637451172 155.85813903808594 90.7926025390625 156.47947692871094 89.05181884765625 C157.10081481933594 87.31103515625 157.575927734375 85.71220397949219 157.93325805664062 84.35411834716797 C158.29058837890625 82.99603271484375 158.53013610839844 81.87867736816406 158.68035888671875 81.1008529663086 C158.83056640625 80.32302856445312 158.89144897460938 79.88471984863281 158.89144897460938 79.88471984863281 L161.82049560546875 80.66868591308594 L164.74954223632812 81.45265197753906 C164.74954223632812 81.45265197753906 164.77098083496094 81.76970672607422 164.77267456054688 82.36253356933594 C164.77438354492188 82.95536041259766 164.75634765625 83.82395935058594 164.6774139404297 84.92706298828125 C164.59848022460938 86.03015899658203 164.45864868164062 87.36775207519531 164.2167510986328 88.89856719970703 C163.974853515625 90.42937469482422 163.63087463378906 92.15340423583984 163.14366149902344 94.02937316894531 C162.65646362304688 95.90534210205078 162.0260009765625 97.9332504272461 161.21115112304688 100.07181549072266 C160.39630126953125 102.21038818359375 159.39703369140625 104.45960998535156 158.1721954345703 106.7782211303711 C157.1009063720703 108.80585479736328 155.8062744140625 110.66679382324219 154.37396240234375 112.3672866821289 C152.941650390625 114.0677719116211 151.37164306640625 115.6078109741211 149.74964904785156 116.99364471435547 C148.12765502929688 118.37947845458984 146.45367431640625 119.6111068725586 144.8133544921875 120.69478607177734 C143.1730499267578 121.77845764160156 141.56642150878906 122.71417999267578 140.0791473388672 123.50819396972656 C138.5918731689453 124.30220794677734 137.22396850585938 124.95451354980469 136.06109619140625 125.47135925292969 C134.89822387695312 125.98820495605469 133.9403839111328 126.36959838867188 133.2732696533203 126.62177276611328 C132.6061553955078 126.87394714355469 132.22975158691406 126.99691009521484 132.22975158691406 126.99691009521484 L131.60757446289062 123.0852279663086 L130.98538208007812 119.17354583740234 L130.3632049560547 115.2618637084961 L129.74102783203125 111.35018157958984"></path>
<path fill="#FCA688" fill-opacity="1.0"  filling="0" d="M159.8376007080078 71.93600463867188 C159.53944396972656 74.11590576171875 159.93919372558594 75.97056579589844 160.73052978515625 76.07868957519531 C161.52188110351562 76.18684387207031 162.40415954589844 74.50747680664062 162.7023468017578 72.32759094238281 C163.0005645751953 70.14768981933594 162.6007843017578 68.29302978515625 161.8094482421875 68.18489074707031 C161.01808166503906 68.07594299316406 160.13497924804688 69.75611877441406 159.8376007080078 71.93600463867188"></path>
<path fill="#FCA688" fill-opacity="1.0"  filling="0" d="M161.22616577148438 72.692138671875 C160.85670471191406 74.86137390136719 161.19503784179688 76.72831726074219 161.98228454589844 76.86186218261719 C162.76953125 76.9962158203125 163.7067108154297 75.34634399414062 164.076171875 73.17709350585938 C164.4456024169922 71.00785827636719 164.10728454589844 69.14088439941406 163.32003784179688 69.00736999511719 C162.53277587890625 68.87300109863281 161.59559631347656 70.52288818359375 161.22616577148438 72.692138671875"></path>
<path fill="#FCA688" fill-opacity="1.0"  filling="0" d="M163.02346801757812 72.9215087890625 C162.76296997070312 74.78273010253906 163.09967041015625 76.36869812011719 163.7755126953125 76.46292114257812 C164.45135498046875 76.55711364746094 165.20994567871094 75.12515258789062 165.4696044921875 73.26312255859375 C165.7301025390625 71.40188598632812 165.3934326171875 69.81591796875 164.71759033203125 69.72171020507812 C164.04257202148438 69.62750244140625 163.28396606445312 71.06028747558594 163.02346801757812 72.9215087890625"></path>
<path fill="#FCA688" fill-opacity="1.0"  filling="0" d="M164.36041259765625 73.89634704589844 C164.11631774902344 75.86161804199219 164.4964141845703 77.52622985839844 165.20994567871094 77.61470031738281 C165.9234619140625 77.70318603515625 166.69921875 76.18191528320312 166.943359375 74.21665954589844 C167.18746948242188 72.25140380859375 166.80734252929688 70.5867919921875 166.09384155273438 70.49749755859375 C165.38113403320312 70.40983581542969 164.6045379638672 71.93109130859375 164.36041259765625 73.89634704589844"></path>
<path fill="#FCA688" fill-opacity="1.0"  filling="0" d="M166.89175415039062 71.87457275390625 C166.89175415039062 71.87457275390625 167.66259765625 72.96656799316406 167.1489715576172 75.60111999511719 C166.89173889160156 76.91839599609375 166.18763732910156 78.01079559326172 165.5478515625 78.77388000488281 C164.90805053710938 79.53695678710938 164.3325653076172 79.97071838378906 164.3325653076172 79.97071838378906 L161.8798828125 77.97842407226562 L161.783203125 73.99465942382812 L164.3374786376953 72.93461608886719 L166.89175415039062 71.87457275390625"></path>
<path fill="#FCA688" fill-opacity="1.0"  filling="0" d="M159.53451538085938 78.72799682617188 C159.53451538085938 78.72799682617188 158.54901123046875 76.37197875976562 157.9493408203125 75.51509094238281 C157.34970092773438 74.65821838378906 157.4783172607422 73.11647033691406 157.73556518554688 72.08837890625 C157.99278259277344 71.06028747558594 158.93484497070312 70.16081237792969 159.87774658203125 70.28941345214844 C160.81982421875 70.41804504394531 162.49099731445312 71.48872375488281 163.30445861816406 71.83114624023438 C164.11795043945312 72.17356872558594 165.0608367919922 73.45889282226562 163.60430908203125 73.97337341308594 C162.14776611328125 74.48782348632812 160.94845581054688 73.5023193359375 160.94845581054688 73.5023193359375 C160.94845581054688 73.5023193359375 162.179931640625 73.89860534667969 163.2186737060547 74.9052963256836 C164.25741577148438 75.9119873046875 165.10345458984375 77.52909088134766 164.3325653076172 79.97071838378906 L159.53451538085938 78.72799682617188"></path>
<path fill="#EA162C" fill-opacity="1.0"  filling="0" d="M125.32144165039062 153.85519409179688 C124.80699157714844 154.04238891601562 124.02854919433594 154.47286987304688 123.37154388427734 155.45396423339844 C122.71453857421875 156.43505859375 122.17898559570312 157.96676635742188 122.15031433105469 160.3563690185547 C122.13491821289062 161.626953125 122.1073226928711 163.00160217285156 122.07915496826172 164.43072509765625 C122.05098724365234 165.85986328125 122.02224731445312 167.3434600830078 122.0045394897461 168.83197021484375 C121.98683166503906 170.32046508789062 121.98016357421875 171.81385803222656 121.99613952636719 173.26254272460938 C122.01211547851562 174.71124267578125 122.05074310302734 176.11521911621094 122.12362670898438 177.42491149902344 C122.19651794433594 178.73460388183594 122.30366516113281 179.95001220703125 122.45669555664062 181.02151489257812 C122.63665008544922 182.281982421875 122.7319564819336 183.6099090576172 122.77246856689453 184.9038543701172 C122.81297302246094 186.19778442382812 122.7986831665039 187.45774841308594 122.75945281982422 188.58230590820312 C122.72022247314453 189.70684814453125 122.65605163574219 190.69598388671875 122.59678649902344 191.4482879638672 C123.67730712890625 191.04441833496094 124.33758544921875 190.7552490234375 124.33758544921875 190.7552490234375 C124.33758544921875 190.7552490234375 124.4117202758789 189.2415771484375 124.38201904296875 187.26780700683594 C124.35232543945312 185.29403686523438 124.21879577636719 182.86019897460938 123.803466796875 181.01986694335938 C123.66529846191406 180.408203125 123.53372192382812 179.3081512451172 123.42399597167969 177.8891143798828 C123.31426239013672 176.4700927734375 123.22637176513672 174.73208618164062 123.17556762695312 172.84449768066406 C123.12476348876953 170.9569091796875 123.11103820800781 168.91973876953125 123.14964294433594 166.9023895263672 C123.18824768066406 164.88504028320312 123.2791748046875 162.88751220703125 123.43767547607422 161.07920837402344 C123.59617614746094 159.27090454101562 123.8222427368164 157.65182495117188 124.1311264038086 156.39134216308594 C124.44000244140625 155.13087463378906 124.83169555664062 154.22903442382812 125.32144165039062 153.85519409179688"></path></svg>