<svg xmlns="http://www.w3.org/2000/svg" viewBox="0.0 0.0 256.0 256.0" height="256.0px" width="256.0px"><path fill="#269FD9" fill-opacity="1.0"  filling="0" d="M159.55287170410156 137.94784545898438 C158.73260498046875 136.9251251220703 157.7655487060547 135.8348846435547 156.7396240234375 134.8060302734375 C155.71371459960938 133.7771759033203 154.62890625 132.80970764160156 153.5731201171875 132.03253173828125 C152.25302124023438 131.060791015625 151.9304656982422 131.55914306640625 152.11468505859375 132.46197509765625 C152.29888916015625 133.3647918701172 152.9898681640625 134.67208862304688 153.6968536376953 135.3182830810547 C154.3944549560547 135.95571899414062 155.0279541015625 136.45631408691406 155.62794494628906 137.00469970703125 C156.2279510498047 137.55307006835938 156.79446411132812 138.14923095703125 157.3580780029297 138.97781372070312 C158.03477478027344 139.9723663330078 158.62091064453125 141.0104522705078 159.12643432617188 142.06410217285156 C159.6319580078125 143.11773681640625 160.05685424804688 144.18695068359375 160.41104125976562 145.2437744140625 C160.76524353027344 146.30059814453125 161.04873657226562 147.34503173828125 161.27145385742188 148.34912109375 C161.6024627685547 149.84152221679688 161.8400421142578 151.32232666015625 162.0084991455078 152.79176330566406 C162.1769561767578 154.26119995117188 162.27630615234375 155.7192840576172 162.3308868408203 157.16622924804688 C162.3854522705078 158.61317443847656 162.39523315429688 160.04898071289062 162.38458251953125 161.473876953125 C162.37391662597656 162.89877319335938 162.34280395507812 164.312744140625 162.31558227539062 165.71603393554688 C162.28836059570312 167.11932373046875 162.2650146484375 168.51193237304688 162.26986694335938 169.8940887451172 C162.27371215820312 170.9960174560547 162.34933471679688 172.19630432128906 162.49647521972656 173.47085571289062 C162.64361572265625 174.74539184570312 162.8622589111328 176.0941925048828 163.1521453857422 177.4931182861328 C163.44203186035156 178.8920440673828 163.8031463623047 180.34109497070312 164.2352294921875 181.81614685058594 C164.6673126220703 183.2912139892578 165.1703643798828 184.7922821044922 165.7440948486328 186.2952423095703 C166.3178253173828 187.79820251464844 166.96224975585938 189.3030548095703 167.67709350585938 190.78567504882812 C168.39193725585938 192.26829528808594 169.17718505859375 193.7286834716797 170.03257751464844 195.14273071289062 C170.88796997070312 196.55677795410156 171.81350708007812 197.92446899414062 172.80889892578125 199.2216796875 C173.80429077148438 200.51890563964844 174.8695526123047 201.7456512451172 176.00440979003906 202.8778076171875 C177.13926696777344 204.0099639892578 178.3437042236328 205.04754638671875 179.61746215820312 205.96640014648438 C180.89122009277344 206.88525390625 182.2342987060547 207.68540954589844 183.6464080810547 208.34274291992188 C185.05853271484375 209.00006103515625 186.53968811035156 209.51455688476562 188.08961486816406 209.86209106445312 C189.47586059570312 210.17291259765625 190.8712615966797 210.5638427734375 192.22250366210938 210.82180786132812 C193.57376098632812 211.0797882080078 194.880859375 211.20480346679688 196.0904541015625 210.98377990722656 C196.97174072265625 210.82293701171875 197.77685546875 210.5499725341797 198.58641052246094 210.28213500976562 C199.39596557617188 210.01429748535156 200.20993041992188 209.7515869140625 201.10891723632812 209.6112060546875 C201.8638916015625 209.49322509765625 202.66827392578125 209.39297485351562 203.5126953125 209.43948364257812 C204.3571319580078 209.48599243164062 205.24160766601562 209.67926025390625 206.15679931640625 210.1483917236328 C207.25460815429688 210.71115112304688 207.85044860839844 211.36151123046875 208.33029174804688 212.08087158203125 C208.8101348876953 212.80023193359375 209.17398071289062 213.58859252929688 209.8077850341797 214.42742919921875 C211.2586669921875 216.34783935546875 211.8157958984375 215.82302856445312 211.67665100097656 214.4833526611328 C211.53750610351562 213.1436767578125 210.70208740234375 210.98912048339844 209.36788940429688 209.6500244140625 C208.20664978027344 208.484375 207.06204223632812 207.658447265625 205.9293670654297 207.0930938720703 C204.79669189453125 206.52774047851562 203.67596435546875 206.2229766845703 202.56243896484375 206.0996551513672 C201.44891357421875 205.976318359375 200.34262084960938 206.03445434570312 199.23883056640625 206.1948699951172 C197.70005798339844 206.41845703125 196.08575439453125 206.841064453125 194.43626403808594 207.17552185058594 C192.78677368164062 207.50997924804688 191.10208129882812 207.7562713623047 189.42250061035156 207.627197265625 C188.20877075195312 207.53390502929688 186.7918701171875 207.0100555419922 185.33387756347656 206.23387145996094 C183.87588500976562 205.45767211914062 182.3768310546875 204.4291534423828 180.99884033203125 203.32652282714844 C179.62081909179688 202.22389221191406 178.36386108398438 201.04714965820312 177.39007568359375 199.97451782226562 C176.37109375 198.8521728515625 175.45565795898438 197.72201538085938 174.62551879882812 196.57839965820312 C173.79539489746094 195.43478393554688 173.05056762695312 194.2777099609375 172.372802734375 193.10154724121094 C171.69503784179688 191.92538452148438 171.0843505859375 190.73013305664062 170.52249145507812 189.51014709472656 C169.9606170654297 188.2901611328125 169.44757080078125 187.04544067382812 168.9651336669922 185.7703399658203 C168.54969787597656 184.6722412109375 168.1476287841797 183.56959533691406 167.78753662109375 182.47222900390625 C167.42745971679688 181.37484741210938 167.10934448242188 180.2827606201172 166.86178588867188 179.20578002929688 C166.6142578125 178.12879943847656 166.43728637695312 177.06692504882812 166.35948181152344 176.02996826171875 C166.25344848632812 174.61727905273438 166.302734375 173.25759887695312 166.3353271484375 171.88661193847656 C166.36790466308594 170.515625 166.3837890625 169.13333129882812 166.21099853515625 167.6754150390625 C166.03956604003906 166.2294464111328 165.92166137695312 164.7803955078125 165.82025146484375 163.3262176513672 C165.71884155273438 161.87203979492188 165.6339111328125 160.4127197265625 165.52841186523438 158.94619750976562 C165.42291259765625 157.47967529296875 165.2968292236328 156.00595092773438 165.11312866210938 154.52296447753906 C164.92942810058594 153.03997802734375 164.68809509277344 151.54771423339844 164.35208129882812 150.0441131591797 C164.01608276367188 148.54052734375 163.58538818359375 147.02560424804688 163.02294921875 145.49728393554688 C162.5956268310547 144.3369598388672 162.15966796875 142.98773193359375 161.61477661132812 141.65951538085938 C161.0698699951172 140.331298828125 160.416015625 139.02410888671875 159.55287170410156 137.94784545898438"></path>
<path fill="#DE2427" fill-opacity="1.0"  filling="0" d="M121.19125366210938 99.27562713623047 C120.0812759399414 100.13699340820312 118.98077392578125 100.99469757080078 117.88631439208984 101.85122680664062 C116.79185485839844 102.70775604248047 115.70344543457031 103.56310272216797 114.61766052246094 104.41975402832031 C113.53187561035156 105.27640533447266 112.4487075805664 106.13436126708984 111.36474609375 106.99610137939453 C110.2807846069336 107.85784149169922 109.1960220336914 108.72337341308594 108.1070327758789 109.59516906738281 C107.01805114746094 110.46696472167969 105.92483520507812 111.34503936767578 104.82398223876953 112.23185729980469 C103.72312927246094 113.11868286132812 102.6146240234375 114.01425170898438 101.49505615234375 114.92106628417969 C100.76821899414062 115.50965118408203 100.11744689941406 116.22325134277344 99.4557876586914 116.94170379638672 C98.79413604736328 117.66015625 98.12159729003906 118.38346099853516 97.35124969482422 118.991455078125 C97.57481384277344 119.40533447265625 97.7843246459961 119.68778991699219 97.97333526611328 119.80726623535156 C98.22463989257812 119.96609497070312 98.76187896728516 120.23601531982422 99.54116821289062 120.59503936767578 C100.32044982910156 120.95405578613281 101.34178161621094 121.40216827392578 102.56127166748047 121.91736602783203 C103.78076171875 122.43256378173828 105.19841003417969 123.01484680175781 106.77033233642578 123.64220428466797 C108.34225463867188 124.26956939697266 110.0684585571289 124.94200897216797 111.90504455566406 125.63751983642578 C113.74163055419922 126.33303833007812 115.68860626220703 127.05162048339844 117.70208740234375 127.77127838134766 C119.71556091308594 128.49093627929688 121.79553985595703 129.21165466308594 123.89813232421875 129.9114227294922 C126.00072479248047 130.6112060546875 128.12594604492188 131.2900390625 130.22987365722656 131.92593383789062 C132.3338165283203 132.56182861328125 134.41648864746094 133.15476989746094 136.4340057373047 133.68275451660156 C138.45152282714844 134.2107391357422 140.4038848876953 134.6737823486328 142.24720764160156 135.0498504638672 C144.0905303955078 135.42591857910156 145.82479858398438 135.7150421142578 147.40615844726562 135.8951873779297 C148.98751831054688 136.07533264160156 150.4159393310547 136.14651489257812 151.64755249023438 136.08670043945312 C152.879150390625 136.0269012451172 153.91395568847656 135.83612060546875 154.7080535888672 135.49237060546875 C153.60606384277344 134.3221435546875 152.51052856445312 133.14756774902344 151.4198760986328 131.9696807861328 C150.32923889160156 130.7917938232422 149.2434844970703 129.610595703125 148.16107177734375 128.42713928222656 C147.0786590576172 127.24369049072266 145.99957275390625 126.05799102783203 144.92225646972656 124.87109375 C143.84494018554688 123.6842041015625 142.76937866210938 122.4961166381836 141.69403076171875 121.30789184570312 C140.61866760253906 120.11967468261719 139.54351806640625 118.93131256103516 138.4669952392578 117.74388122558594 C137.39047241210938 116.55644226074219 136.31259155273438 115.36993408203125 135.2317657470703 114.18539428710938 C134.15093994140625 113.00086212158203 133.06719970703125 111.81830596923828 131.9789581298828 110.63878631591797 C130.89071655273438 109.45926666259766 129.7979736328125 108.28278350830078 128.6991729736328 107.11039733886719 C127.60037231445312 105.93800354003906 126.4955062866211 104.76971435546875 125.38301849365234 103.6065673828125 C124.2705307006836 102.44342041015625 123.15042114257812 101.28543090820312 122.0211181640625 100.1336441040039 C121.74250030517578 99.84864807128906 121.46687316894531 99.56234741210938 121.19125366210938 99.27562713623047"></path>
<path fill="#3BB24D" fill-opacity="1.0"  filling="0" d="M126.45419311523438 95.21846008300781 C125.56095886230469 95.90240478515625 124.67701721191406 96.58155822753906 123.80048370361328 97.25728607177734 C122.9239501953125 97.93302154541016 122.0548324584961 98.60533905029297 121.19125366210938 99.27562713623047 C121.46687316894531 99.56192779541016 121.7429428100586 99.84864807128906 122.0211181640625 100.13323211669922 C123.15042114257812 101.28501892089844 124.2705307006836 102.4430160522461 125.38301849365234 103.60615539550781 C126.4955062866211 104.76930236816406 127.6003646850586 105.9375991821289 128.6991729736328 107.1099853515625 C129.7979736328125 108.28237915039062 130.89071655273438 109.4588623046875 131.9789581298828 110.63838195800781 C133.06719970703125 111.81790161132812 134.15093994140625 113.00045776367188 135.2317657470703 114.18498992919922 C136.3125762939453 115.36952209472656 137.39047241210938 116.55603790283203 138.46697998046875 117.74346923828125 C139.5435028076172 118.93090057373047 140.61865234375 120.1192626953125 141.6940155029297 121.30747985839844 C142.76937866210938 122.49569702148438 143.8449249267578 123.68378448486328 144.9222412109375 124.87068176269531 C145.9995574951172 126.05757141113281 147.07864379882812 127.24327087402344 148.16107177734375 128.4267120361328 C149.24349975585938 129.61016845703125 150.32923889160156 130.79136657714844 151.4198760986328 131.96925354003906 C152.51052856445312 133.14715576171875 153.60604858398438 134.32174682617188 154.7080535888672 135.49195861816406 C155.7811279296875 135.02731323242188 156.4147186279297 134.2836151123047 156.50091552734375 133.206298828125 C156.5312042236328 132.82557678222656 156.51771545410156 132.17637634277344 156.46377563476562 131.3011474609375 C156.4098358154297 130.42591857910156 156.3154754638672 129.3246612548828 156.18402099609375 128.039794921875 C156.0525665283203 126.75493621826172 155.884033203125 125.28648376464844 155.68177795410156 123.67686462402344 C155.47952270507812 122.06724548339844 155.24354553222656 120.31647491455078 154.97720336914062 118.46697235107422 C154.7108612060547 116.61746978759766 154.41415405273438 114.66924285888672 154.09043884277344 112.66472625732422 C153.7667236328125 110.66020965576172 153.41598510742188 108.59940338134766 153.04161071777344 106.52474975585938 C152.667236328125 104.45008850097656 152.26919555664062 102.36157989501953 151.85086059570312 100.30165100097656 C151.43252563476562 98.2417221069336 150.993896484375 96.21037292480469 150.538330078125 94.25004577636719 C150.082763671875 92.28971862792969 149.61024475097656 90.40040588378906 149.12416076660156 88.62454986572266 C148.6380615234375 86.84869384765625 148.13839721679688 85.18629455566406 147.6284942626953 83.67977905273438 C147.11859130859375 82.17327117919922 146.59844970703125 80.82264709472656 146.07144165039062 79.67035675048828 C145.54443359375 78.51805877685547 145.01055908203125 77.5640869140625 144.47317504882812 76.85088348388672 C143.38865661621094 77.8154296875 142.35696411132812 78.82180786132812 141.358642578125 79.85375213623047 C140.36032104492188 80.88569641113281 139.39535522460938 81.94320678710938 138.44430541992188 83.0100326538086 C137.49325561523438 84.07685852050781 136.55612182617188 85.15299224853516 135.61343383789062 86.22218322753906 C134.67076110839844 87.29137420654297 133.7225341796875 88.35362243652344 132.74929809570312 89.39266204833984 C131.77606201171875 90.43170928955078 130.77783203125 91.44755554199219 129.73512268066406 92.42393493652344 C128.6924285888672 93.40032196044922 127.60527038574219 94.33724975585938 126.45419311523438 95.21846008300781"></path>
<path fill="#269FD9" fill-opacity="1.0"  filling="0" d="M97.350830078125 118.991455078125 C98.12139129638672 118.3836669921875 98.7939224243164 117.66036224365234 99.45552062988281 116.94185638427734 C100.11711883544922 116.22335815429688 100.76778411865234 115.50965118408203 101.4946060180664 114.92106628417969 C102.61418151855469 114.01432800292969 103.72268676757812 113.11880493164062 104.82354736328125 112.23201751708984 C105.92440795898438 111.34523010253906 107.01761627197266 110.46717071533203 108.10660552978516 109.59537506103516 C109.19559478759766 108.72357177734375 110.28035736083984 107.8580322265625 111.36432647705078 106.99626922607422 C112.44828796386719 106.13450622558594 113.53145599365234 105.27652740478516 114.61724090576172 104.41985321044922 C115.70303344726562 103.56317901611328 116.79144287109375 102.70780944824219 117.88589477539062 101.85126495361328 C118.98035430908203 100.99472045898438 120.08085632324219 100.13699340820312 121.19083404541016 99.27562713623047 C120.10005950927734 98.14261627197266 119.027587890625 96.99440002441406 117.97093963623047 95.83287048339844 C116.91429138183594 94.67134094238281 115.87345123291016 93.49649810791016 114.84595489501953 92.31021881103516 C113.81845092773438 91.12394714355469 112.80428314208984 89.9262466430664 111.80096435546875 88.71900177001953 C110.79764556884766 87.51175689697266 109.80516815185547 86.29497528076172 108.82105255126953 85.07054138183594 C107.8369369506836 83.84610748291016 106.8611831665039 82.614013671875 105.89131164550781 81.37615966796875 C104.92143249511719 80.1383056640625 103.95742797851562 78.8946762084961 102.99681854248047 77.64717864990234 C102.03620910644531 76.39967346191406 101.0789794921875 75.14830017089844 100.12266540527344 73.8949203491211 C99.16634368896484 72.64154815673828 98.21092987060547 71.38618469238281 97.2539291381836 70.1307144165039 C96.29693603515625 68.875244140625 95.33834838867188 67.61966705322266 94.37570190429688 66.36587524414062 C93.41305541992188 65.1120834350586 92.44633483886719 63.86007308959961 91.47306823730469 62.611732482910156 C91.00199127197266 63.0460090637207 90.62466430664062 63.75211715698242 90.33085632324219 64.68568420410156 C90.03704833984375 65.61924743652344 89.82676696777344 66.7802734375 89.68978881835938 68.1243667602539 C89.55281066894531 69.46846008300781 89.4891357421875 70.99563598632812 89.4885482788086 72.66150665283203 C89.48796081542969 74.32737731933594 89.55045318603516 76.13195037841797 89.66580200195312 78.03083801269531 C89.78115844726562 79.92972564697266 89.94937133789062 81.92293548583984 90.16023254394531 83.96607971191406 C90.37109375 86.00922393798828 90.62458801269531 88.1023178100586 90.91050720214844 90.20096588134766 C91.19642639160156 92.29961395263672 91.5147705078125 94.40382385253906 91.85530853271484 96.4692153930664 C92.19584655761719 98.53460693359375 92.55859375 100.56118774414062 92.93331146240234 102.50456237792969 C93.30802917480469 104.44794464111328 93.69473266601562 106.3081283569336 94.08319091796875 108.04073333740234 C94.47164916992188 109.77334594726562 94.86186218261719 111.37837982177734 95.24362182617188 112.81145477294922 C95.62537384033203 114.24453735351562 95.99866485595703 115.50566101074219 96.353271484375 116.55045318603516 C96.7078857421875 117.59524536132812 97.04380798339844 118.4237060546875 97.350830078125 118.991455078125"></path>
<path fill="#E9E749" fill-opacity="1.0"  filling="0" d="M143.5293731689453 75.85674285888672 C142.71633911132812 75.22787475585938 141.6646728515625 74.56697082519531 140.42056274414062 73.88834381103516 C139.17645263671875 73.20972442626953 137.73988342285156 72.51338195800781 136.1570587158203 71.81365966796875 C134.57423400878906 71.11392974853516 132.8451385498047 70.41081237792969 131.01597595214844 69.71862030029297 C129.1868133544922 69.02643585205078 127.25756072998047 68.34517669677734 125.27442169189453 67.68917846679688 C123.2912826538086 67.0331802368164 121.2542495727539 66.40243530273438 119.20951080322266 65.81127166748047 C117.1647720336914 65.22010803222656 115.11231994628906 64.66851806640625 113.09835052490234 64.17083740234375 C111.08438110351562 63.673152923583984 109.10888671875 63.229373931884766 107.21804809570312 62.85382080078125 C105.32721710205078 62.478267669677734 103.52104949951172 62.17094039916992 101.8457260131836 61.946163177490234 C100.17040252685547 61.72138595581055 98.62593078613281 61.57916259765625 97.25849151611328 61.533809661865234 C95.89105224609375 61.48845672607422 94.70064544677734 61.53997802734375 93.73345947265625 61.70269775390625 C92.76626586914062 61.86541748046875 92.02229309082031 62.13933563232422 91.5477294921875 62.53877258300781 C91.52213287353516 62.56053161621094 91.49867248535156 62.58869934082031 91.4734878540039 62.612159729003906 C92.44676208496094 63.86050033569336 93.4134750366211 65.11251068115234 94.37612915039062 66.36630249023438 C95.33877563476562 67.6200942993164 96.29735565185547 68.87567138671875 97.25435638427734 70.13114166259766 C98.21135711669922 71.38661193847656 99.1667709350586 72.64197540283203 100.12309265136719 73.89534759521484 C101.07941436767578 75.14871978759766 102.03663635253906 76.40010070800781 102.99724578857422 77.64759826660156 C103.95785522460938 78.89509582519531 104.92185974121094 80.13871765136719 105.89173889160156 81.37657928466797 C106.86161804199219 82.61443328857422 107.83737182617188 83.84652709960938 108.82147979736328 85.07096099853516 C109.80559539794922 86.29539489746094 110.79806518554688 87.51217651367188 111.8013916015625 88.71941375732422 C112.8047103881836 89.9266586303711 113.81887817382812 91.12435913085938 114.84638214111328 92.31063079833984 C115.87388610839844 93.49690246582031 116.91471862792969 94.67174530029297 117.97136688232422 95.8332748413086 C119.02801513671875 96.99481201171875 120.10047912597656 98.14302062988281 121.19125366210938 99.27603912353516 C122.05503845214844 98.60575866699219 122.92416381835938 97.93333435058594 123.80064392089844 97.25755310058594 C124.6771240234375 96.5817642211914 125.56095886230469 95.90261840820312 126.45419311523438 95.21887969970703 C127.60527038574219 94.3376693725586 128.6924285888672 93.40072631835938 129.73512268066406 92.42433166503906 C130.77781677246094 91.44792938232422 131.7760467529297 90.43206787109375 132.74928283691406 89.39300537109375 C133.72250366210938 88.35394287109375 134.6707305908203 87.29168701171875 135.61338806152344 86.22249603271484 C136.55604553222656 85.15330505371094 137.4931640625 84.07717895507812 138.4441680908203 83.01039123535156 C139.3951873779297 81.943603515625 140.360107421875 80.88613891601562 141.35838317871094 79.85427856445312 C142.35665893554688 78.82241821289062 143.38827514648438 77.81614685058594 144.4727325439453 76.85174560546875 C144.15914916992188 76.43531036376953 143.8446807861328 76.1003646850586 143.5293731689453 75.85674285888672"></path>
<path fill="#DE2427" fill-opacity="1.0"  filling="0" d="M144.83456420898438 77.04330444335938 C146.42987060546875 77.23445129394531 147.526611328125 78.10551452636719 148.37759399414062 79.34484100341797 C149.2285614013672 80.58416748046875 149.83377075195312 82.19175720214844 150.44598388671875 83.85594177246094 C151.05819702148438 85.52012634277344 151.67742919921875 87.24091339111328 152.5564422607422 88.70663452148438 C153.4354705810547 90.17236328125 154.5742950439453 91.38302612304688 156.2257080078125 92.0269775390625 C158.06634521484375 92.74463653564453 159.52947998046875 92.75509643554688 160.80308532714844 93.11824035644531 C162.07669067382812 93.48138427734375 163.16073608398438 94.19722747802734 164.24319458007812 96.32565307617188 C164.9495391845703 97.7144546508789 165.52511596679688 99.25663757324219 166.0341339111328 100.80501556396484 C166.54315185546875 102.35338592529297 166.985595703125 103.90794372558594 167.4257049560547 105.32148742675781 C167.40750122070312 104.03011322021484 167.59988403320312 102.94647979736328 167.80752563476562 101.92526245117188 C168.01516723632812 100.904052734375 168.2380828857422 99.94525146484375 168.28094482421875 98.90354919433594 C168.3238067626953 97.86185455322266 168.18661499023438 96.73725128173828 167.67404174804688 95.38442993164062 C167.19175720214844 94.11125183105469 166.56076049804688 92.97840118408203 165.7922821044922 91.98698425292969 C165.0238037109375 90.99556732177734 164.1178436279297 90.14558410644531 163.0856475830078 89.43814086914062 C162.05343627929688 88.73069763183594 160.89498901367188 88.16578674316406 159.6215362548828 87.7445297241211 C158.2890625 87.30377960205078 157.07647705078125 86.94381713867188 155.9953155517578 86.49259185791016 C154.91415405273438 86.04136657714844 153.9644317626953 85.49888610839844 153.1576690673828 84.69309997558594 C152.3509063720703 83.88731384277344 151.68710327148438 82.81822204589844 151.1778106689453 81.31379699707031 C150.82005310058594 80.25695037841797 150.762451171875 79.21737670898438 150.54058837890625 78.28553771972656 C150.3187255859375 77.35369873046875 149.93258666992188 76.52959442138672 148.91775512695312 75.90367126464844 C147.25546264648438 74.87841033935547 144.5034637451172 75.7581787109375 144.19029235839844 75.98432159423828"></path>
<path fill="#DE2427" fill-opacity="1.0"  filling="0" d="M97.80181884765625 119.29994201660156 C97.56544494628906 119.19969177246094 97.55476379394531 118.97140502929688 97.25140380859375 119.1851806640625 C97.24799346923828 120.71221160888672 97.90409851074219 121.74185943603516 98.82714080810547 122.56025695800781 C99.75018310546875 123.378662109375 100.94015502929688 123.98580932617188 102.00447845458984 124.6678466796875 C103.30474853515625 125.50091552734375 103.99114990234375 126.84395599365234 104.4708251953125 128.33084106445312 C104.95050811767578 129.81771850585938 105.22346496582031 131.44842529296875 105.69684600830078 132.85684204101562 C106.17129516601562 134.26846313476562 106.88884735107422 135.3009033203125 107.6715087890625 136.2835235595703 C108.45417785644531 137.26614379882812 109.30197143554688 138.19894409179688 110.03690338134766 139.4113006591797 C110.49429321289062 140.16543579101562 110.71434783935547 142.1290740966797 111.19061279296875 143.76751708984375 C111.6668701171875 145.40597534179688 112.39935302734375 146.71923828125 113.881591796875 146.1726837158203 C115.347412109375 145.63232421875 115.35050964355469 144.3343963623047 114.82405853271484 143.02720642089844 C114.297607421875 141.72000122070312 113.2416000366211 140.4035186767578 112.58921813964844 139.82601928710938 C111.4775390625 138.84149169921875 110.67060852050781 137.9449462890625 110.05865478515625 136.925537109375 C109.44670867919922 135.9061279296875 109.02975463867188 134.7638397216797 108.6980209350586 133.28778076171875 C108.40042877197266 131.96298217773438 108.1673583984375 130.56170654296875 107.76421356201172 129.248046875 C107.36106872558594 127.93440246582031 106.787841796875 126.7083740234375 105.80992126464844 125.73408508300781 C104.94314575195312 124.8705062866211 103.93782043457031 124.1724853515625 102.97077941894531 123.41915130615234 C102.00373840332031 122.66581726074219 101.07498168945312 121.857177734375 100.36138153076172 120.77236938476562 C99.95817565917969 120.15968322753906 99.60575866699219 119.57516479492188 99.60489654541016 118.75807189941406"></path>
<path fill="#E9E749" fill-opacity="1.0"  filling="0" d="M100.44116973876953 125.87017822265625 C100.97409057617188 127.17236328125 100.54059600830078 128.65505981445312 100.73257446289062 130.01780700683594 C100.92926788330078 131.4155731201172 101.52362060546875 132.68789672851562 102.16107177734375 133.91668701171875 C102.70249938964844 134.96075439453125 103.54432678222656 136.0692138671875 103.67786407470703 137.30569458007812 C103.82122802734375 138.63180541992188 102.99903869628906 139.5734405517578 102.92051696777344 140.8397979736328 C102.86122131347656 141.7967987060547 103.09994506835938 143.1884765625 103.47967529296875 144.54783630371094 C103.85941314697266 145.90719604492188 104.38015747070312 147.2342529296875 104.88489532470703 148.06198120117188 C105.4438247680664 148.9784698486328 106.93161010742188 149.7293701171875 107.19658660888672 148.2761688232422 C107.31690216064453 147.6148223876953 106.45846557617188 145.51220703125 106.3167953491211 144.66656494140625 C106.11156463623047 143.44158935546875 105.66783905029297 142.1910400390625 105.82270812988281 140.95497131347656 C105.98783874511719 139.63827514648438 106.43923950195312 138.66506958007812 106.23062133789062 137.29248046875 C106.01343536376953 135.86570739746094 105.21598815917969 134.8480987548828 104.47445678710938 133.71359252929688 C103.4969482421875 132.21685791015625 103.62197875976562 131.11434936523438 103.49739074707031 129.3522186279297 C103.41034698486328 128.1199951171875 103.15872192382812 126.79285430908203 102.73072052001953 125.53706359863281 C102.30271911621094 124.28128051757812 101.69834899902344 123.09685516357422 100.90580749511719 122.15008544921875 C99.91979217529297 120.97247314453125 99.01653289794922 120.11872863769531 98.50070190429688 118.68299865722656 C98.37312316894531 118.32843017578125 97.5074234008789 119.80682373046875 97.46646118164062 119.96682739257812 C97.27445220947266 120.71476745605469 97.55093383789062 121.46400451660156 97.86708068847656 122.12831115722656 C98.520751953125 123.5030517578125 99.85963439941406 124.44981384277344 100.44116973876953 125.87017822265625"></path>
<path fill="#269FD9" fill-opacity="1.0"  filling="0" d="M146.74815368652344 76.81674194335938 C147.5844268798828 77.54463195800781 147.82164001464844 79.10411071777344 148.12289428710938 80.13408660888672 C148.52908325195312 81.5224609375 148.8284912109375 82.75691223144531 149.2835693359375 83.92416381835938 C149.73866271972656 85.09141540527344 150.3494415283203 86.19146728515625 151.37835693359375 87.31104278564453 C152.31082153320312 88.32587432861328 152.825927734375 89.310302734375 153.26351928710938 90.33328247070312 C153.70111083984375 91.35626983642578 154.06121826171875 92.41781616210938 154.68373107910156 93.58687591552734 C155.26998901367188 94.68789672851562 156.234130859375 95.30368041992188 157.11483764648438 95.99317932128906 C157.99551391601562 96.68267059326172 158.79275512695312 97.44587707519531 159.04513549804688 98.84172058105469 C159.32289123535156 100.37728881835938 158.93247985839844 102.10270690917969 159.8656005859375 103.52310180664062 C160.70187377929688 104.79627990722656 161.1989288330078 105.27114868164062 161.64395141601562 106.80671691894531 C161.97332763671875 107.9425048828125 162.56256103515625 108.99594116210938 162.3573455810547 110.1953125 C162.00148010253906 112.27871704101562 161.01547241210938 111.29312133789062 160.22271728515625 109.99263000488281 C159.59146118164062 108.95690155029297 159.00799560546875 107.82176208496094 158.47817993164062 106.65248107910156 C157.9483642578125 105.48320007324219 157.4722137451172 104.27979278564453 157.05557250976562 103.10752868652344 C156.6749725341797 102.03744506835938 156.76927185058594 100.71263122558594 156.23934936523438 99.70911407470703 C155.64158630371094 98.57674407958984 154.32107543945312 98.0980224609375 153.45663452148438 97.18112182617188 C152.73406982421875 96.41483306884766 152.36276245117188 95.59519958496094 152.0915069580078 94.73765563964844 C151.82025146484375 93.8801040649414 151.64906311035156 92.98463439941406 151.32672119140625 92.06666564941406 C150.9915771484375 91.11285400390625 150.3537139892578 90.47935485839844 149.70309448242188 89.83279418945312 C149.052490234375 89.18623352050781 148.38912963867188 88.52660369873047 148.00299072265625 87.52052307128906 C147.6277313232422 86.5426025390625 147.36000061035156 85.54559326171875 147.10623168945312 84.55172729492188 C146.85247802734375 83.557861328125 146.61270141601562 82.56714630126953 146.2933349609375 81.60182189941406 C145.90762329101562 80.43486785888672 144.54356384277344 79.67710876464844 144.17022705078125 78.50080871582031 C143.61129760742188 76.7386703491211 145.18955993652344 75.46036529541016 146.74815368652344 76.81674194335938"></path></svg>