<svg xmlns="http://www.w3.org/2000/svg" viewBox="0.0 0.0 256.0 256.0" height="256.0px" width="256.0px"><path fill="#E5456C" fill-opacity="1.0"  filling="0" d="M203.92868041992188 165.24624633789062 L203.92868041992188 167.09112548828125 C203.92868041992188 167.09112548828125 203.56430053710938 167.185791015625 202.8955535888672 167.35960388183594 C202.226806640625 167.53341674804688 201.2537078857422 167.78639221191406 200.0362548828125 168.10299682617188 C198.81881713867188 168.4196014404297 197.35704040527344 168.79986572265625 195.71095275878906 169.22824096679688 C194.0648651123047 169.65663146972656 192.23448181152344 170.13314819335938 190.27980041503906 170.6422882080078 C188.3251190185547 171.15142822265625 186.24615478515625 171.69320678710938 184.10293579101562 172.2520751953125 C181.959716796875 172.8109588623047 179.75222778320312 173.38694763183594 177.54051208496094 173.9645538330078 C175.32879638671875 174.54214477539062 173.1128387451172 175.12135314941406 170.9526824951172 175.6866455078125 C168.79251098632812 176.25193786621094 166.68814086914062 176.80332946777344 164.69960021972656 177.3253173828125 C162.71104431152344 177.8472900390625 160.8383026123047 178.33985900878906 159.14141845703125 178.78749084472656 C157.44451904296875 179.23513793945312 155.9234619140625 179.63784790039062 154.63827514648438 179.98013305664062 C153.35308837890625 180.32241821289062 152.30377197265625 180.60427856445312 151.55035400390625 180.8101806640625 C150.27740478515625 181.15805053710938 148.89418029785156 181.53416442871094 147.42689514160156 181.9293975830078 C145.95962524414062 182.3246307373047 144.40829467773438 182.73898315429688 142.79916381835938 183.16331481933594 C141.1900177001953 183.58766174316406 139.5230712890625 184.02200317382812 137.82452392578125 184.4572296142578 C136.1259765625 184.8924560546875 134.39584350585938 185.32855224609375 132.6603546142578 185.7564239501953 C130.92486572265625 186.18429565429688 129.18402099609375 186.60391235351562 127.46404266357422 187.0061798095703 C125.74407196044922 187.408447265625 124.04497528076172 187.79336547851562 122.39298248291016 188.15179443359375 C120.74098205566406 188.51022338867188 119.13609313964844 188.84219360351562 117.60453796386719 189.1385498046875 C116.07298278808594 189.43492126464844 114.61476135253906 189.6956787109375 113.256103515625 189.9117431640625 C111.24691772460938 190.23114013671875 109.29415130615234 190.5018768310547 107.39385223388672 190.7290496826172 C105.49356079101562 190.9562225341797 103.64573669433594 191.1398162841797 101.84642791748047 191.28497314453125 C100.047119140625 191.43011474609375 98.29632568359375 191.53680419921875 96.59010314941406 191.61013793945312 C94.88387298583984 191.6834716796875 93.22220611572266 191.7234649658203 91.60115051269531 191.73519897460938 C89.98009490966797 191.7469482421875 88.39964294433594 191.73043823242188 86.85585021972656 191.6907958984375 C85.31205749511719 191.65115356445312 83.80491638183594 191.58837890625 82.33047485351562 191.50755310058594 C80.85603332519531 191.42674255371094 79.41429901123047 191.327880859375 78.00130462646484 191.2161102294922 C76.58831024169922 191.10433959960938 75.20406341552734 190.97962951660156 73.84461212158203 190.84710693359375 C72.48515319824219 190.71458435058594 71.15049743652344 190.57424926757812 69.836669921875 190.43118286132812 C67.59452819824219 190.18728637695312 65.45051574707031 189.85665893554688 63.4550666809082 189.4837646484375 C61.45962142944336 189.11087036132812 59.61273956298828 188.69569396972656 57.96485900878906 188.28268432617188 C56.31697463989258 187.8696746826172 54.86809158325195 187.45884704589844 53.668636322021484 187.09461975097656 C52.46918487548828 186.7303924560547 51.519161224365234 186.41278076171875 50.86899948120117 186.18621826171875 C50.218841552734375 185.95965576171875 49.86854553222656 185.82415771484375 49.86854553222656 185.82415771484375 L49.86854553222656 183.77774047851562 L54.71991729736328 182.95497131347656 L59.5712890625 182.1322021484375 L64.42265319824219 181.30943298339844 L69.27403259277344 180.48666381835938 L74.12539672851562 179.6638946533203 L78.97677612304688 178.84112548828125 L83.82814025878906 178.0183563232422 L88.67951965332031 177.19558715820312 L93.5308837890625 176.37283325195312 L98.38224792480469 175.550048828125 L103.23362731933594 174.727294921875 L108.08499908447266 173.90451049804688 L112.93637084960938 173.08175659179688 L117.78773498535156 172.25897216796875 L122.63911437988281 171.43621826171875 L127.490478515625 170.61343383789062 L132.3418426513672 169.79066467285156 L137.19322204589844 168.96791076660156 L142.0446014404297 168.1451416015625 L146.8959503173828 167.32235717773438 L151.74732971191406 166.49960327148438 L156.59869384765625 165.6768341064453 L161.45008850097656 164.85406494140625 L166.30145263671875 164.0312957763672 L171.15281677246094 163.20851135253906 L176.0041961669922 162.38575744628906 L180.85556030273438 161.56298828125 L185.47018432617188 162.29965209960938 L190.08480834960938 163.0363006591797 L194.69943237304688 163.77294921875 L199.31405639648438 164.50961303710938 L203.92868041992188 165.24624633789062"></path>
<path fill="#CA2D4C" fill-opacity="1.0"  filling="0" d="M190.88873291015625 151.3270263671875 C190.88873291015625 151.3270263671875 190.68385314941406 151.33816528320312 190.293212890625 151.3603057861328 C189.90257263183594 151.3824462890625 189.32615661621094 151.4156036376953 188.5830841064453 151.45965576171875 C187.8400115966797 151.5037078857422 186.9302978515625 151.55865478515625 185.87301635742188 151.62435913085938 C184.8157501220703 151.69007873535156 183.61093139648438 151.7665557861328 182.27767944335938 151.85369873046875 C180.94442749023438 151.9408416748047 179.4827423095703 152.0386199951172 177.9117431640625 152.14694213867188 C176.34072875976562 152.25526428222656 174.660400390625 152.37411499023438 172.8898468017578 152.5033721923828 C171.1193084716797 152.63262939453125 169.258544921875 152.77230834960938 167.32667541503906 152.92227172851562 C165.3948211669922 153.07223510742188 163.391845703125 153.2324981689453 161.33689880371094 153.40292358398438 C159.2819366455078 153.57334899902344 157.1750030517578 153.75393676757812 155.03517150878906 153.94459533691406 C152.8953399658203 154.13523864746094 150.72264099121094 154.3359375 148.53616333007812 154.5465545654297 C146.3496856689453 154.75717163085938 144.14942932128906 154.9777374267578 141.95452880859375 155.20809936523438 C139.75961303710938 155.43846130371094 137.57005310058594 155.6786346435547 135.40493774414062 155.92848205566406 C133.2398223876953 156.1783447265625 131.09915161132812 156.43789672851562 129.00204467773438 156.70700073242188 C126.90494537353516 156.9761199951172 124.85140228271484 157.2548065185547 122.86053466796875 157.54293823242188 C120.86966705322266 157.83106994628906 118.94147491455078 158.12864685058594 117.0950698852539 158.43556213378906 C115.2486572265625 158.74246215820312 113.48403930664062 159.0587158203125 111.82030487060547 159.3841552734375 C110.15657043457031 159.7095947265625 108.59373474121094 160.04425048828125 107.15090942382812 160.38800048828125 C104.24515533447266 161.08026123046875 101.44750213623047 161.80442810058594 98.75850677490234 162.55148315429688 C96.06951141357422 163.2985382080078 93.48918151855469 164.06849670410156 91.01807403564453 164.8523406982422 C88.54696655273438 165.6361846923828 86.1850814819336 166.4339141845703 83.9329833984375 167.23654174804688 C81.6808853149414 168.03916931152344 79.53857421875 168.8466796875 77.5066146850586 169.6500701904297 C75.47465515136719 170.45346069335938 73.55304718017578 171.25274658203125 71.74235534667969 172.0388946533203 C69.9316635131836 172.82505798339844 68.23188781738281 173.59808349609375 66.64358520507812 174.3489990234375 C65.05528259277344 175.09991455078125 63.57846450805664 175.82870483398438 62.21368408203125 176.5263671875 C60.84890365600586 177.22402954101562 59.59616470336914 177.89056396484375 58.456031799316406 178.5169677734375 C57.31589889526367 179.14337158203125 56.288368225097656 179.72964477539062 55.37400817871094 180.26678466796875 C54.45964813232422 180.80392456054688 53.65845489501953 181.29193115234375 52.97099304199219 181.7218017578125 C52.283531188964844 182.15167236328125 51.70980453491211 182.5233917236328 51.250370025634766 182.82797241210938 C50.79093551635742 183.132568359375 50.445796966552734 183.3699951171875 50.21551513671875 183.5312957763672 C49.985233306884766 183.69259643554688 49.86981201171875 183.77774047851562 49.86981201171875 183.77774047851562 C49.86981201171875 183.77774047851562 50.00973892211914 183.8282470703125 50.282859802246094 183.91990661621094 C50.55598068237305 184.01158142089844 50.9622917175293 184.1444091796875 51.49505615234375 184.30908203125 C52.02782440185547 184.4737548828125 52.68704605102539 184.67027282714844 53.46598434448242 184.8892822265625 C54.24492645263672 185.10830688476562 55.143585205078125 185.34982299804688 56.15522384643555 185.60452270507812 C57.166866302490234 185.85922241210938 58.29148864746094 186.12709045410156 59.52235794067383 186.3988037109375 C60.75322723388672 186.67051696777344 62.09033966064453 186.94607543945312 63.5269660949707 187.2161407470703 C64.96359252929688 187.4862060546875 66.49972534179688 187.7507781982422 68.12863159179688 188.0005340576172 C69.75753784179688 188.2502899169922 71.47921752929688 188.48521423339844 73.28692626953125 188.6959991455078 C75.09464263916016 188.9067840576172 76.98838806152344 189.09339904785156 78.96144104003906 189.24655151367188 C80.93449401855469 189.39968872070312 82.9868392944336 189.51934814453125 85.11175537109375 189.59619140625 C87.2366714477539 189.67303466796875 89.43414306640625 189.70704650878906 91.69744873046875 189.6889190673828 C93.96075439453125 189.67079162597656 96.28988647460938 189.60052490234375 98.6781005859375 189.46876525878906 C101.06632232666016 189.33702087402344 103.51363372802734 189.14378356933594 106.01329803466797 188.87974548339844 C108.5129623413086 188.61569213867188 111.06497955322266 188.28085327148438 113.66261291503906 187.8658447265625 C116.26024627685547 187.4508514404297 118.90350341796875 186.95571899414062 121.58563232421875 186.37109375 C123.2656021118164 186.00486755371094 125.0130615234375 185.6141357421875 126.81532287597656 185.2027587890625 C128.61758422851562 184.79136657714844 130.47463989257812 184.3593292236328 132.3738250732422 183.91049194335938 C134.27301025390625 183.46165466308594 136.2143096923828 182.99600219726562 138.18504333496094 182.5174102783203 C140.15577697753906 182.038818359375 142.15594482421875 181.54727172851562 144.17286682128906 181.04664611816406 C146.18978881835938 180.54600524902344 148.2234649658203 180.03628540039062 150.26119995117188 179.52130126953125 C152.29893493652344 179.00633239746094 154.34075927734375 178.48611450195312 156.3739471435547 177.96450805664062 C158.40713500976562 177.44290161132812 160.4317169189453 176.919921875 162.43499755859375 176.39939880371094 C164.4382781982422 175.87887573242188 166.42025756835938 175.36082458496094 168.36825561523438 174.8490753173828 C170.31625366210938 174.33734130859375 172.2302703857422 173.83192443847656 174.09762573242188 173.336669921875 C175.96498107910156 172.8414306640625 177.78565979003906 172.35635375976562 179.5469970703125 171.88531494140625 C181.30833435058594 171.41427612304688 183.01031494140625 170.95724487304688 184.64027404785156 170.5181121826172 C186.27023315429688 170.07896423339844 187.82814025878906 169.65771484375 189.3013458251953 169.2581787109375 C190.77455139160156 168.858642578125 192.1630401611328 168.48085021972656 193.45411682128906 168.12864685058594 C194.74520874023438 167.7764434814453 195.9388885498047 167.44981384277344 197.02249145507812 167.1526336669922 C198.10609436035156 166.85545349121094 199.07962036132812 166.5877227783203 199.9303741455078 166.353271484375 C200.7811279296875 166.11883544921875 201.5091094970703 165.9176788330078 202.10165405273438 165.75367736816406 C202.69418334960938 165.5896759033203 203.15127563476562 165.4628143310547 203.46022033691406 165.376953125 C203.76918029785156 165.29110717773438 203.92999267578125 165.24624633789062 203.92999267578125 165.24624633789062 L200.669677734375 161.76644897460938 L197.40936279296875 158.28663635253906 L194.1490478515625 154.80682373046875 L190.88873291015625 151.3270263671875"></path>
<path fill="#FFCCA9" fill-opacity="1.0"  filling="0" d="M136.80548095703125 57.715667724609375 C137.27655029296875 56.935821533203125 137.61410522460938 56.5498046875 137.31842041015625 55.513519287109375 C136.84735107421875 53.8662109375 137.602294921875 51.73211669921875 138.18853759765625 51.00201416015625 C139.87506103515625 48.89935302734375 140.63006591796875 49.07469177246094 140.63006591796875 49.07469177246094 C141.66177368164062 49.07469177246094 143.4906463623047 50.208457946777344 145.1222686767578 51.486480712890625 C146.75389099121094 52.76449966430664 148.18826293945312 54.18677520751953 148.43096923828125 54.7637939453125 C148.62399291992188 55.22174835205078 149.0122833251953 56.04475784301758 149.42852783203125 57.05651092529297 C149.84478759765625 58.06826400756836 150.28900146484375 59.268760681152344 150.5938720703125 60.481689453125 C150.75222778320312 61.10975646972656 150.88174438476562 61.741729736328125 150.9393310546875 62.35279846191406 C150.94454956054688 62.403778076171875 151.07012939453125 62.75578308105469 151.27688598632812 63.24253845214844 C150.60302734375 63.65208435058594 149.66061401367188 64.19017028808594 148.54908752441406 64.72859191894531 C147.43756103515625 65.26700592041016 146.1569061279297 65.80574798583984 144.80657958984375 66.21659851074219 C144.40234375 65.23922729492188 143.85015869140625 64.78517150878906 143.248291015625 64.51040649414062 C142.05889892578125 64.45283508300781 140.80804443359375 65.20124816894531 140.255859375 65.30203247070312 C139.37530517578125 65.46426391601562 138.10870361328125 64.99583435058594 138.12310791015625 64.17938232421875 C138.1348876953125 63.55393981933594 138.00924682617188 63.552642822265625 137.79730224609375 63.42045593261719 C137.496337890625 63.23335266113281 137.34588623046875 63.092041015625 137.54736328125 62.74531555175781 C137.20590209960938 62.57521057128906 136.80810546875 62.47969055175781 137.11297607421875 62.05316162109375 C137.3798828125 61.678924560546875 137.36813354492188 61.381927490234375 136.72958374023438 61.018157958984375 C136.35931396484375 60.807525634765625 135.41070556640625 60.80621337890625 135.43292236328125 60.30244445800781 C135.46173095703125 59.67437744140625 136.49932861328125 58.222015380859375 136.80548095703125 57.715667724609375"></path>
<path fill="#6B2415" fill-opacity="1.0"  filling="0" d="M155.08181762695312 47.0125732421875 C155.74063110351562 47.758392333984375 156.03634643554688 48.69883728027344 155.98187255859375 49.6167106628418 C155.9274139404297 50.534584045410156 155.5227813720703 51.42988586425781 154.78091430664062 52.085418701171875 C154.03904724121094 52.74029541015625 153.10089111328125 53.031097412109375 152.18348693847656 52.97172546386719 C151.26609802246094 52.912353515625 150.36947631835938 52.5028076171875 149.710693359375 51.756988525390625 C149.0518798828125 51.01118469238281 148.75616455078125 50.070743560791016 148.8106231689453 49.15303421020508 C148.86508178710938 48.23532485961914 149.26971435546875 47.34034729003906 150.0115966796875 46.68547058105469 C150.75283813476562 46.029937744140625 151.6909942626953 45.739139556884766 152.60853576660156 45.79851150512695 C153.52609252929688 45.85788345336914 154.4230194091797 46.267425537109375 155.08181762695312 47.0125732421875"></path>
<path fill="#6D2F06" fill-opacity="1.0"  filling="0" d="M138.98931884765625 50.156768798828125 C138.98931884765625 50.156768798828125 139.30792236328125 50.853187561035156 139.81362915039062 51.76091766357422 C140.3193359375 52.66865158081055 141.01214599609375 53.787696838378906 141.76055908203125 54.63294982910156 C142.33236694335938 55.279327392578125 143.53485107421875 56.0487060546875 145.1455078125 56.275054931640625 C145.7369384765625 54.98883056640625 146.7091064453125 54.70491027832031 147.21548461914062 54.87763977050781 C147.7218017578125 55.05035400390625 148.40618896484375 55.67185974121094 148.49514770507812 56.77490234375 C148.55792236328125 57.56388854980469 148.02410888671875 58.843536376953125 148.02410888671875 58.843536376953125 C148.02410888671875 58.843536376953125 150.2117919921875 61.338714599609375 150.97332763671875 62.525482177734375 C151.21798706054688 61.39630126953125 151.54251098632812 61.111083984375 152.51077270507812 59.9007568359375 C152.99485778808594 59.29560852050781 153.4263153076172 58.544891357421875 153.72743225097656 57.66234588623047 C154.02853393554688 56.7797966003418 154.19931030273438 55.765419006347656 154.16201782226562 54.63294982910156 C154.12669372558594 53.55675506591797 153.92681884765625 52.544673919677734 153.47116088867188 51.55549240112305 C153.01548767089844 50.56631088256836 152.30401611328125 49.60002899169922 151.2454833984375 48.61543273925781 C150.62310791015625 48.03578567504883 149.6653289794922 47.40235137939453 148.46107482910156 47.01921844482422 C147.2568359375 46.636085510253906 145.8061065673828 46.50325393676758 144.19784545898438 46.9248161315918 C142.58956909179688 47.346378326416016 140.82376098632812 48.32233428955078 138.98931884765625 50.156768798828125"></path>
<path fill="#14293D" fill-opacity="1.0"  filling="0" d="M133.59194946289062 129.189453125 C133.7378387451172 128.3448486328125 134.05960083007812 127.09716796875 134.49456787109375 125.60423278808594 C134.92953491210938 124.11129760742188 135.4777069091797 122.37311553955078 136.07638549804688 120.54749298095703 C136.67507934570312 118.72187805175781 137.32427978515625 116.80882263183594 137.96131896972656 114.96614837646484 C138.59837341308594 113.12348175048828 139.2232666015625 111.3511962890625 139.7733154296875 109.8071060180664 C140.3233642578125 108.26302337646484 140.798583984375 106.9471435546875 141.13629150390625 106.01728057861328 C141.4739990234375 105.08741760253906 141.6741943359375 104.5435791015625 141.6741943359375 104.5435791015625 L146.56353759765625 104.5435791015625 L151.45286560058594 104.5435791015625 L156.34219360351562 104.5435791015625 L161.23153686523438 104.5435791015625 C161.23153686523438 104.5435791015625 161.3680419921875 105.09806823730469 161.5045623779297 106.07625579833984 C161.64108276367188 107.054443359375 161.777587890625 108.45631408691406 161.777587890625 110.15108489990234 C161.777587890625 111.84585571289062 161.64108276367188 113.83351135253906 161.23153686523438 115.9832763671875 C160.92437744140625 117.59561920166016 160.43936157226562 119.44789123535156 159.8845977783203 121.31936645507812 C159.329833984375 123.19083404541016 158.70533752441406 125.08150482177734 158.11924743652344 126.77062225341797 C157.53314208984375 128.45974731445312 156.9854278564453 129.94732666015625 156.58424377441406 131.0126190185547 C156.1830596923828 132.0779266357422 155.92840576171875 132.720947265625 155.92840576171875 132.720947265625 L156.56103515625 136.16213989257812 L157.19366455078125 139.60333251953125 L153.63665771484375 140.8535614013672 L150.07965087890625 142.10379028320312 C149.46141052246094 139.96578979492188 148.91612243652344 138.01620483398438 148.52212524414062 136.49415588378906 C148.12811279296875 134.97210693359375 147.88540649414062 133.87757873535156 147.872314453125 133.44970703125 C147.83860778808594 132.34735107421875 147.87001037597656 130.76805114746094 147.93606567382812 129.01919555664062 C148.0021209716797 127.27033996582031 148.1028289794922 125.35192108154297 148.207763671875 123.5712890625 C148.31268310546875 121.79066467285156 148.4218292236328 120.14783477783203 148.50473022460938 118.95016479492188 C148.587646484375 117.75248718261719 148.64431762695312 116.99996948242188 148.64431762695312 116.99996948242188 C148.64431762695312 116.99996948242188 148.3876953125 117.50788879394531 147.97280883789062 118.3738784790039 C147.55792236328125 119.23986053466797 146.9847869873047 120.46391296386719 146.35174560546875 121.89616394042969 C145.71868896484375 123.32841491699219 145.0257568359375 124.96887969970703 144.3712615966797 126.66768646240234 C143.71676635742188 128.3665008544922 143.10073852539062 130.1236572265625 142.62152099609375 131.789306640625 C142.3118438720703 132.8661651611328 141.9418487548828 134.00173950195312 141.54708862304688 135.1774444580078 C141.15231323242188 136.3531494140625 140.7327880859375 137.56898498535156 140.32406616210938 138.80633544921875 C139.91534423828125 140.04368591308594 139.51742553710938 141.30255126953125 139.1658935546875 142.56434631347656 L135.56048583984375 141.90032958984375 L131.955078125 141.23629760742188 C132.116455078125 139.44677734375 132.32725524902344 137.65565490722656 132.54489135742188 136.01487731933594 C132.76254272460938 134.37408447265625 132.98699951171875 132.8836212158203 133.17572021484375 131.69540405273438 C133.3644256591797 130.5072021484375 133.51736450195312 129.62124633789062 133.59194946289062 129.189453125"></path>
<path fill="#CA2D4C" fill-opacity="1.0"  filling="0" d="M141.52374267578125 76.2406005859375 C141.548583984375 74.38655090332031 142.3019256591797 72.35356140136719 143.04905700683594 70.78407287597656 C143.7961883544922 69.214599609375 144.537109375 68.10862731933594 144.537109375 68.10862731933594 C144.927001953125 67.75794982910156 145.18344116210938 67.2882080078125 144.9544677734375 66.58950805664062 C144.90869140625 66.45083618164062 144.857666015625 66.33566284179688 144.80657958984375 66.2139892578125 C146.1569061279297 65.80314636230469 147.43722534179688 65.26472473144531 148.54859924316406 64.72663116455078 C149.65997314453125 64.18853759765625 150.60238647460938 63.65076446533203 151.27688598632812 63.2412109375 C151.48626708984375 63.73841857910156 151.77935791015625 64.37564086914062 152.11297607421875 64.98274230957031 C152.57745361328125 65.82798767089844 153.27227783203125 66.19306945800781 153.93560791015625 66.405029296875 C153.86495971679688 67.23654174804688 153.8096923828125 68.24698638916016 153.82852172851562 69.27493286132812 C153.8473358154297 70.30288696289062 153.94024658203125 71.34833526611328 154.16595458984375 72.24986267089844 C154.4910888671875 73.55110168457031 154.94642639160156 75.2020263671875 155.6549530029297 76.67337799072266 C156.36346435546875 78.14472198486328 157.32518005371094 79.43648529052734 158.66305541992188 80.01939392089844 C158.5609893798828 81.11544036865234 158.44308471679688 82.51460266113281 158.35003662109375 83.99895477294922 C158.25698852539062 85.48330688476562 158.18881225585938 87.0528564453125 158.1862030029297 88.48967742919922 C158.18359375 89.9264907836914 158.24655151367188 91.23057556152344 158.415771484375 92.18399047851562 C158.75160217285156 94.07862091064453 159.17642211914062 96.0835952758789 159.59356689453125 97.91484069824219 C160.01071166992188 99.74607849121094 160.4202117919922 101.40357971191406 160.7254180908203 102.60327911376953 C161.03062438964844 103.802978515625 161.23153686523438 104.54486083984375 161.23153686523438 104.54486083984375 L156.34219360351562 104.54486083984375 L151.45286560058594 104.54486083984375 L146.56353759765625 104.54486083984375 L141.6741943359375 104.54486083984375 C141.6741943359375 104.54486083984375 141.87380981445312 103.80835723876953 142.13616943359375 102.65765380859375 C142.39854431152344 101.5069580078125 142.7236785888672 99.94206237792969 142.97470092773438 98.2852783203125 C143.22573852539062 96.62850189208984 143.40267944335938 94.87983703613281 143.36865234375 93.36160278320312 C143.33551025390625 91.88959503173828 143.14157104492188 90.04483032226562 142.88958740234375 88.19915008544922 C142.63758850097656 86.35346984863281 142.32752990722656 84.50686645507812 142.06216430664062 83.03118133544922 C141.79678344726562 81.55550384521484 141.57608032226562 80.45074462890625 141.5028076171875 80.0887451171875 C141.50149536132812 78.80909729003906 141.508056640625 77.45355224609375 141.52374267578125 76.2406005859375"></path>
<path fill="#FFCCA9" fill-opacity="1.0"  filling="0" d="M153.93695068359375 66.40371704101562 C154.01416015625 66.4285888671875 154.09136962890625 66.4599609375 154.167236328125 66.48094177246094 C154.92417907714844 66.68570709228516 155.8466339111328 66.94052124023438 156.7412872314453 67.20074462890625 C157.63592529296875 67.4609603881836 158.50277709960938 67.72657775878906 159.14849853515625 67.95294189453125 C159.66400146484375 68.13349914550781 160.45758056640625 68.62973022460938 161.4012908935547 69.45944213867188 C162.34500122070312 70.2891616821289 163.43885803222656 71.4523696899414 164.554931640625 72.96688842773438 C165.34197998046875 74.03523254394531 166.12640380859375 75.09507751464844 166.88726806640625 76.11549377441406 C167.64813232421875 77.13592529296875 168.38543701171875 78.11692810058594 169.0782470703125 79.02760314941406 C169.73443603515625 79.8741683959961 170.5845947265625 80.9578857421875 171.34677124023438 81.906005859375 C172.10894775390625 82.8541259765625 172.7831268310547 83.66666412353516 173.08737182617188 83.97087097167969 C173.56561279296875 84.44943237304688 174.61203002929688 85.23687744140625 175.95254516601562 86.15882110595703 C177.29306030273438 87.08076477050781 178.92767333984375 88.13721466064453 180.58229064941406 89.15379333496094 C182.23690795898438 90.17037963867188 183.9114990234375 91.1470947265625 185.33200073242188 91.9095687866211 C186.75250244140625 92.67204284667969 187.9188995361328 93.22028350830078 188.55709838867188 93.37991333007812 C189.30551147460938 93.56702423095703 190.92013549804688 94.11526489257812 192.59182739257812 94.74626159667969 C194.26351928710938 95.37725830078125 195.9923095703125 96.09101867675781 196.96905517578125 96.60916137695312 C199.43678283691406 97.91825866699219 200.36383056640625 98.83514404296875 200.10574340820312 99.38993072509766 C199.84765625 99.94470977783203 198.40444946289062 100.13738250732422 196.13168334960938 99.998046875 C193.80133056640625 99.85540771484375 192.537353515625 98.67649841308594 191.426513671875 99.12136840820312 C190.79061889648438 99.37521362304688 190.51187133789062 100.35395812988281 190.03167724609375 101.51321411132812 C189.3538818359375 103.1474609375 188.27047729492188 102.78897094726562 188.27047729492188 102.78897094726562 C188.27047729492188 102.78897094726562 188.3427734375 101.49589538574219 188.16549682617188 100.1068115234375 C187.98822021484375 98.71772766113281 187.56134033203125 97.23263549804688 186.56298828125 96.84860229492188 C185.78546142578125 96.54962158203125 184.60426330566406 96.02632904052734 183.22830200195312 95.3807144165039 C181.85235595703125 94.73509979248047 180.28164672851562 93.96717071533203 178.72509765625 93.17891693115234 C177.16854858398438 92.39066314697266 175.62612915039062 91.58208465576172 174.3067626953125 90.85517883300781 C172.98741149902344 90.12828063964844 171.89109802246094 89.48304748535156 171.22674560546875 89.021484375 C170.64581298828125 88.61783599853516 169.7632598876953 87.89361572265625 168.7804412841797 87.04608154296875 C167.79763793945312 86.19853973388672 166.7145538330078 85.22767639160156 165.73257446289062 84.33073425292969 C165.54937744140625 84.17242431640625 165.38189697265625 84.01145935058594 165.20526123046875 83.84658813476562 C165.09274291992188 83.74322509765625 164.97500610351562 83.63461303710938 164.86773681640625 83.53518676757812 C164.404541015625 83.09423828125 163.93215942382812 82.65461730957031 163.4859619140625 82.22933959960938 C163.2635498046875 81.99774169921875 163.03848266601562 81.78317260742188 162.81216430664062 81.58430480957031 C161.70652770996094 80.52315521240234 160.72682189941406 79.56471252441406 160.02352905273438 78.8715591430664 C159.32022094726562 78.17840576171875 158.89334106445312 77.75053405761719 158.89334106445312 77.75053405761719 C158.89334106445312 77.75053405761719 158.79000854492188 78.656005859375 158.66305541992188 80.01806640625 C157.32518005371094 79.43516540527344 156.36380004882812 78.14340209960938 155.6554412841797 76.67205810546875 C154.94708251953125 75.20071411132812 154.4917449951172 73.5497817993164 154.16595458984375 72.24853515625 C153.94088745117188 71.34703063964844 153.84829711914062 70.30158233642578 153.82965087890625 69.27363586425781 C153.81100463867188 68.24568176269531 153.8662872314453 67.2352294921875 153.93695068359375 66.40371704101562"></path>
<path fill="#FFCCA9" fill-opacity="1.0"  filling="0" d="M105.3099365234375 100.50308227539062 C105.8952407836914 100.0337905883789 106.71098327636719 99.39208221435547 107.66629791259766 98.69148254394531 C108.6216049194336 97.99089050292969 109.71648406982422 97.23141479492188 110.86006164550781 96.52660369873047 C112.0036392211914 95.82179260253906 113.1959228515625 95.17164611816406 114.34603881835938 94.689697265625 C115.74149322509766 94.10481262207031 117.25732421875 93.44380187988281 118.76810455322266 92.74828338623047 C120.27888488769531 92.05276489257812 121.78461456298828 91.3227310180664 123.15987396240234 90.59981536865234 C124.53512573242188 89.87690734863281 125.7799072265625 89.16110229492188 126.76878356933594 88.4940414428711 C127.75765991210938 87.82698059082031 128.49063110351562 87.20865631103516 128.84228515625 86.68069458007812 C129.28192138671875 86.02091217041016 130.00057983398438 84.87683868408203 130.879150390625 83.4902572631836 C131.75770568847656 82.10367584228516 132.79615783691406 80.47457885742188 133.87538146972656 78.8447494506836 C134.95460510253906 77.21492004394531 136.07460021972656 75.5843505859375 137.11622619628906 74.19482421875 C138.15785217285156 72.8052978515625 139.12112426757812 71.65680694580078 139.88690185546875 70.99113464355469 C141.01736450195312 70.00846862792969 142.214599609375 69.485107421875 143.4693603515625 68.79031372070312 C143.7886962890625 68.61366271972656 144.20867919921875 68.40304565429688 144.537109375 68.10862731933594 C144.537109375 68.10862731933594 143.7961883544922 69.214599609375 143.04905700683594 70.78407287597656 C142.3019256591797 72.35356140136719 141.548583984375 74.38655090332031 141.52374267578125 76.2406005859375 C141.50674438476562 77.45355224609375 141.50149536132812 78.80909729003906 141.50149536132812 80.08612060546875 C141.4844970703125 80.00238037109375 141.47402954101562 79.94876098632812 141.47402954101562 79.94876098632812 C141.47402954101562 79.94876098632812 141.0623016357422 80.5064468383789 140.3910675048828 81.38882446289062 C139.71983337402344 82.27120208740234 138.78909301757812 83.47826385498047 137.7510528564453 84.77701568603516 C136.7130126953125 86.07575988769531 135.56768798828125 87.46620178222656 134.46728515625 88.71531677246094 C133.5081787109375 89.80392456054688 132.58184814453125 90.79049682617188 131.79153442382812 91.50753784179688 C130.91455078125 92.30503845214844 129.6815185546875 92.9905014038086 128.26905822753906 93.61426544189453 C126.8565902709961 94.23802947998047 125.26470184326172 94.80009460449219 123.67003631591797 95.35078430175781 C122.07536315917969 95.90147399902344 120.47792053222656 96.44080352783203 119.05433654785156 97.01909637451172 C117.63075256347656 97.5973892211914 116.38102722167969 98.21464538574219 115.4818115234375 98.92120361328125 C114.36569213867188 99.79782104492188 114.7451171875 101.1939697265625 115.11669921875 102.46966552734375 C115.36007690429688 103.304443359375 114.97540283203125 104.03326416015625 114.4794921875 103.42616271972656 C113.9495849609375 102.77717590332031 113.36993408203125 101.89527893066406 112.80465698242188 101.2724609375 C112.53907775878906 100.98001098632812 111.83154296875 101.25904083251953 110.97107696533203 101.71095275878906 C110.11061096191406 102.16285705566406 109.09721374511719 102.78764343261719 108.21990966796875 103.18670654296875 C107.0501708984375 103.71923828125 105.52484893798828 103.68816375732422 104.69087219238281 103.20404052734375 C103.85690307617188 102.71991729736328 103.71427917480469 101.78274536132812 105.3099365234375 100.50308227539062"></path>
<path fill="#FFCCA9" fill-opacity="1.0"  filling="0" d="M150.07965087890625 167.39862060546875 C151.2173614501953 166.7659912109375 152.2392578125 166.05746459960938 153.08123779296875 165.30380249023438 C153.9232177734375 164.55014038085938 154.58529663085938 163.75132751464844 155.00335693359375 162.93814086914062 C155.76751708984375 161.45306396484375 155.42987060546875 159.80181884765625 155.42987060546875 159.80181884765625 C155.15902709960938 158.9310302734375 154.8029022216797 157.78286743164062 154.3926239013672 156.4521026611328 C153.9823455810547 155.12132263183594 153.5179443359375 153.60794067382812 153.03054809570312 152.00674438476562 C152.54315185546875 150.40553283691406 152.03277587890625 148.71649169921875 151.5305633544922 147.03440856933594 C151.0283660888672 145.35232543945312 150.53433227539062 143.67718505859375 150.07965087890625 142.10379028320312 L153.63665771484375 140.8535614013672 L157.19366455078125 139.60333251953125 C157.19366455078125 139.60333251953125 157.30210876464844 140.4515380859375 157.49241638183594 141.81565856933594 C157.6827392578125 143.17979431152344 157.95494079589844 145.0598602294922 158.28245544433594 147.1236114501953 C158.6099853515625 149.18734741210938 158.99282836914062 151.4347686767578 159.4044189453125 153.53359985351562 C159.8160400390625 155.63243103027344 160.25640869140625 157.58267211914062 160.698974609375 159.05206298828125 C161.201416015625 160.718994140625 161.89230346679688 161.9476318359375 162.66033935546875 163.02188110351562 C163.42840576171875 164.09609985351562 163.12094116210938 165.50399780273438 160.51058959960938 166.55337524414062 C159.2053985595703 167.07806396484375 158.09844970703125 168.16603088378906 156.9036865234375 169.16127014160156 C155.7089080810547 170.156494140625 154.42630004882812 171.0590057373047 152.769775390625 171.2127685546875 C151.11395263671875 171.3665008544922 149.785888671875 171.35340881347656 148.8719482421875 171.17709350585938 C147.9580078125 171.00076293945312 147.45819091796875 170.66122436523438 147.4588623046875 170.16204833984375 C147.4588623046875 169.1636962890625 148.32763671875 168.3734130859375 150.07965087890625 167.39862060546875"></path>
<path fill="#FFCCA9" fill-opacity="1.0"  filling="0" d="M118.81964111328125 167.475830078125 C119.71853637695312 166.99826049804688 121.53759765625 166.20272827148438 123.26277923583984 165.28451538085938 C124.98796081542969 164.36630249023438 126.6192626953125 163.32542419433594 127.14263916015625 162.357177734375 C127.64350891113281 161.43080139160156 128.05435180664062 160.40414428710938 128.4075927734375 159.2795867919922 C128.76083374023438 158.155029296875 129.0564422607422 156.93255615234375 129.3268585205078 155.6145782470703 C129.59727478027344 154.2965850830078 129.84249877929688 152.88307189941406 130.09490966796875 151.37640380859375 C130.34732055664062 149.86973571777344 130.60694885253906 148.26991271972656 130.9061737060547 146.57931518554688 C131.2053985595703 144.88873291015625 131.54421997070312 143.10736083984375 131.955078125 141.23757934570312 L135.56048583984375 141.90162658691406 L139.1658935546875 142.565673828125 C138.75865173339844 144.02915954589844 138.26251220703125 145.613525390625 137.7257537841797 147.23974609375 C137.18899536132812 148.86598205566406 136.61160278320312 150.53408813476562 136.04185485839844 152.16505432128906 C135.47210693359375 153.79603576660156 134.91001892089844 155.389892578125 134.40383911132812 156.86761474609375 C133.8976593017578 158.3453369140625 133.4473876953125 159.70693969726562 133.101318359375 160.8734130859375 C132.772216796875 161.98297119140625 132.9655303955078 163.37777709960938 133.00119018554688 164.52398681640625 C133.03683471679688 165.67018127441406 132.91482543945312 166.56777954101562 131.955078125 166.68292236328125 C130.99533081054688 166.79806518554688 129.70159912109375 167.38490295410156 128.5230255126953 168.00787353515625 C127.34443664550781 168.630859375 126.28099060058594 169.28997802734375 125.78179931640625 169.5496826171875 C124.50215148925781 170.21505737304688 123.17605590820312 170.59222412109375 122.07795715332031 170.7808074951172 C120.97985076904297 170.96939086914062 120.1097412109375 170.96939086914062 119.7420654296875 170.88043212890625 C118.68287658691406 170.6239471435547 117.83827209472656 170.0989227294922 117.56546020507812 169.47496032714844 C117.29265594482422 168.85098266601562 117.59164428710938 168.12808227539062 118.81964111328125 167.475830078125"></path></svg>